<?xml version="1.0" standalone="no"?>
<!DOCTYPE svg PUBLIC "-//W3C//DTD SVG 1.1//EN" "http://www.w3.org/Graphics/SVG/1.1/DTD/svg11.dtd" >
<svg xmlns="http://www.w3.org/2000/svg" xmlns:xlink="http://www.w3.org/1999/xlink" version="1.1">
<metadata>
Created by FontForge 20200314 at Wed Jan 13 11:59:37 2021
 By Robert Madole
Copyright (c) Font Awesome
</metadata>
<!-- Font Awesome Pro 5.15.2 by @fontawesome - https://fontawesome.com License - https://fontawesome.com/license (Commercial License) --><defs>
<font id="FontAwesome5Pro-Solid" horiz-adv-x="640" >
  <font-face 
    font-family="Font Awesome 5 Pro Solid"
    font-weight="900"
    font-stretch="normal"
    units-per-em="512"
    panose-1="2 0 5 3 0 0 0 0 0 0"
    ascent="448"
    descent="-64"
    bbox="-0.0134288 -64.0084 640.007 448.01"
    underline-thickness="25"
    underline-position="-50"
    unicode-range="U+0020-F8FF"
  />
    <missing-glyph />
    <glyph glyph-name="road" unicode="&#xf018;" horiz-adv-x="576" 
d="M573.19 45.3301c9.25977 -21.1904 -5.5 -45.3301 -27.7305 -45.3301h-196.84l-10.3105 97.6797c-0.859375 8.14062 -7.71973 14.3203 -15.9092 14.3203h-68.8008c-8.18945 0 -15.0498 -6.17969 -15.9092 -14.3203l-10.3105 -97.6797h-196.84
c-22.2305 0 -36.9902 24.1396 -27.7402 45.3301l139.79 320c4.96973 11.3799 15.7998 18.6699 27.7305 18.6699h97.5898l-2.4502 -23.1602c-0.5 -4.71973 3.20996 -8.83984 7.95996 -8.83984h29.1602c4.75 0 8.45996 4.12012 7.95996 8.83984l-2.4502 23.1602h97.5898
c11.9199 0 22.75 -7.29004 27.7207 -18.6699zM260.4 312.84l-4.59082 -43.5801c-0.75 -7.08984 4.80078 -13.2598 11.9307 -13.2598h40.54c7.12012 0 12.6797 6.16992 11.9297 13.2598l-4.59961 43.5801c-0.430664 4.07031 -3.87012 7.16016 -7.95996 7.16016h-39.29
c-0.00195312 0 -0.00390625 -0.0078125 -0.00488281 -0.0078125c-4.12891 0 -7.53125 -3.13477 -7.95508 -7.15234zM315.64 144c9.5 0 16.9102 8.23047 15.9102 17.6797l-5.06934 48c-0.860352 8.14062 -7.7207 14.3203 -15.9102 14.3203h-45.1504
c-8.18945 0 -15.0498 -6.17969 -15.9102 -14.3203l-5.06934 -48c-1 -9.44922 6.40918 -17.6797 15.9092 -17.6797h55.29z" />
    <glyph glyph-name="tachometer" unicode="&#xf0e4;" horiz-adv-x="576" 
d="M288 416c159.06 0 288 -128.94 288 -288c0 -52.7998 -14.25 -102.26 -39.0596 -144.8c-5.61035 -9.62012 -16.3008 -15.2002 -27.4404 -15.2002h-443c-11.1396 0 -21.8301 5.58008 -27.4404 15.2002c-24.8096 42.54 -39.0596 92 -39.0596 144.8
c0 159.06 128.94 288 288 288zM390.77 296.41c4.18066 12.5703 -2.59961 26.1699 -15.1699 30.3594c-12.6299 4.28027 -26.1895 -2.60938 -30.3594 -15.1699l-61.3398 -184.01c-33.4004 -2.16016 -59.9004 -29.6494 -59.9004 -63.5898
c0 -11.7197 3.37988 -22.5498 8.87988 -32h110.24c5.5 9.4502 8.87988 20.2803 8.87988 32c0 19.46 -8.87012 36.6699 -22.5596 48.4102z" />
    <glyph glyph-name="laptop" unicode="&#xf109;" 
d="M624 32c8.7998 0 16 -7.2002 16 -16v-16c0 -35.2002 -28.7998 -64 -64 -64h-512c-35.2002 0 -64 28.7998 -64 64v16c0 8.7998 7.2002 16 16 16h239.23c-0.25 -14.5303 14.0791 -32 32.7695 -32h60.7998c18.0303 0 32 12.1904 32.7402 32h242.46zM576 400v-336h-512v336
c0 26.4004 21.5996 48 48 48h416c26.4004 0 48 -21.5996 48 -48zM512 128v256h-384v-256h384z" />
    <glyph glyph-name="car" unicode="&#xf1b9;" horiz-adv-x="512" 
d="M499.99 272c7.80957 0 13.54 -7.33984 11.6494 -14.9102l-6 -24c-1.33008 -5.33984 -6.12988 -9.08984 -11.6396 -9.08984h-20.0703c13.4199 -11.7305 22.0703 -28.7803 22.0703 -48v-48c0 -16.1299 -6.16016 -30.6797 -16 -41.9297v-54.0703
c0 -17.6699 -14.3301 -32 -32 -32h-32c-17.6699 0 -32 14.3301 -32 32v32h-256v-32c0 -17.6699 -14.3301 -32 -32 -32h-32c-17.6699 0 -32 14.3301 -32 32v54.0703c-9.83984 11.2598 -16 25.8096 -16 41.9297v48c0 19.2197 8.65039 36.2695 22.0801 48h-20.0703
c-5.50977 0 -10.3096 3.75 -11.6396 9.08984l-6 24c-1.90039 7.57031 3.83008 14.9102 11.6396 14.9102h59.8604l16.6396 41.5996c17.1104 42.7705 57.9307 70.4004 103.99 70.4004h127c46.0703 0 86.8799 -27.6299 103.98 -70.4004l16.6396 -41.5996h59.8701z
M147.93 289.83l-19.9297 -49.8301h256l-19.9297 49.8301c-7.29004 18.2197 -24.9404 30.1699 -44.5703 30.1699h-127c-19.6299 0 -37.2803 -11.9502 -44.5703 -30.1699zM96 128.2c19.2002 0 48 -3.19043 48 15.9502c0 19.1396 -28.7998 47.8496 -48 47.8496
s-32 -12.7598 -32 -31.9004c0 -19.1396 12.7998 -31.8994 32 -31.8994zM416 128.2c19.2002 0 32 12.7598 32 31.8994c0 19.1406 -12.7998 31.9004 -32 31.9004s-48 -28.71 -48 -47.8496c0 -19.1406 28.7998 -15.9502 48 -15.9502z" />
    <glyph glyph-name="binoculars" unicode="&#xf1e5;" horiz-adv-x="512" 
d="M416 400v-48h-96v48c0 8.83984 7.16016 16 16 16h64c8.83984 0 16 -7.16016 16 -16zM63.9102 288.01c0.479492 17.6201 14.2998 31.9902 31.9297 31.9902h96.1602v-160h-32v-160c0 -17.6699 -14.3301 -32 -32 -32h-96c-17.6699 0 -32 14.3301 -32 32v44
c3.45996 129.78 61.4004 150.16 63.9102 244.01zM448.09 288.01c2.50977 -93.8496 60.4502 -114.229 63.9102 -244.01v-44c0 -17.6699 -14.3301 -32 -32 -32h-96c-17.6699 0 -32 14.3301 -32 32v160h-32v160h96.1602c17.6299 0 31.4502 -14.3701 31.9297 -31.9902zM176 416
c8.83984 0 16 -7.16016 16 -16v-48h-96v48c0 8.83984 7.16016 16 16 16h64zM224 160v160h64v-160h-64z" />
    <glyph glyph-name="bell-slash" unicode="&#xf1f6;" 
d="M633.82 -10.0996c6.97949 -5.43066 8.22949 -15.4805 2.80957 -22.4502l-19.6396 -25.2705c-5.43066 -6.97949 -15.4805 -8.23926 -22.46 -2.80957l-588.351 454.729c-6.97949 5.43066 -8.22949 15.4805 -2.80957 22.4502l19.6396 25.2705
c5.41992 6.97949 15.4805 8.22949 22.46 2.80957l144.96 -112.04c22.9307 31.5 57.2607 54.1904 97.5898 62.5703v20.8398c0 17.6699 14.3203 32 31.9805 32s31.9805 -14.3301 31.9805 -32v-20.8301c73.46 -15.2598 127.939 -77.46 127.939 -155.16
c0 -102.3 36.1504 -133.529 55.4697 -154.29c6 -6.43945 8.66016 -14.1602 8.61035 -21.71c0 -1.39941 -0.610352 -2.67969 -0.799805 -4.05957zM157.23 196.46l212.789 -164.46h-241.92c-19.1191 0 -31.9893 15.5996 -32.0996 32
c-0.0498047 7.5498 2.61035 15.2598 8.61035 21.71c16.21 17.4199 44.0098 42.79 52.6201 110.75zM320 -64c-35.3203 0 -63.9697 28.6504 -63.9697 64h127.939c0 -35.3496 -28.6494 -64 -63.9697 -64z" />
    <glyph glyph-name="street-view" unicode="&#xf21d;" horiz-adv-x="512" 
d="M367.9 118.24c85.2295 -15.5801 144.1 -48.29 144.1 -86.2402c0 -53.0195 -114.62 -96 -256 -96s-256 42.9805 -256 96c0 37.9502 58.8701 70.6602 144.1 86.2402c4.62012 -5.2998 9.78027 -10.1006 15.9004 -13.6504v-22.9395
c-66.5195 -9.35059 -112 -28.0508 -112 -49.6504c0 -30.9297 93.1201 -56 208 -56s208 25.0703 208 56c0 21.5996 -45.4805 40.3096 -112 49.6504v22.9395c6.12012 3.5498 11.2803 8.35059 15.9004 13.6504zM256 320c-35.3496 0 -64 28.6504 -64 64s28.6504 64 64 64
s64 -28.6504 64 -64s-28.6504 -64 -64 -64zM192 128c-17.6699 0 -32 14.3301 -32 32v96c0 26.5098 21.4902 48 48 48h11.7998c11.0703 -5.03027 23.2598 -8 36.2002 -8s25.1299 2.96973 36.2002 8h11.7998c26.5098 0 48 -21.4902 48 -48v-96
c0 -17.6699 -14.3301 -32 -32 -32v-96c0 -17.6699 -14.3301 -32 -32 -32h-64c-17.6699 0 -32 14.3301 -32 32v96z" />
    <glyph glyph-name="map-pin" unicode="&#xf276;" horiz-adv-x="288" 
d="M112 131.06c10.3896 -1.91992 21.0596 -3.05957 32 -3.05957s21.6104 1.13965 32 3.05957v-156.689l-22.0098 -33.0205c-4.75 -7.11914 -15.2207 -7.11914 -19.9707 0l-22.0195 33.0205v156.689zM144 448c79.5303 0 144 -64.4697 144 -144s-64.4697 -144 -144 -144
s-144 64.4697 -144 144s64.4697 144 144 144zM144 372c6.62012 0 12 5.37988 12 12s-5.37988 12 -12 12c-50.7197 0 -92 -41.2695 -92 -92c0 -6.62012 5.37988 -12 12 -12s12 5.37988 12 12c0 37.5 30.5 68 68 68z" />
    <glyph glyph-name="map-signs" unicode="&#xf277;" horiz-adv-x="512" 
d="M507.31 363.31c6.25 -6.25 6.25 -16.3691 0 -22.6299l-43.3096 -43.3096c-6.00977 -6 -14.1396 -9.37012 -22.6299 -9.37012h-385.37c-13.25 0 -24 10.75 -24 24v80c0 13.25 10.75 24 24 24h168v16c0 8.83984 7.16016 16 16 16h32c8.83984 0 16 -7.16016 16 -16v-16
h153.37c8.49023 0 16.6299 -3.37012 22.6299 -9.37012zM224 -48v112h64v-112c0 -8.83984 -7.16016 -16 -16 -16h-32c-8.83984 0 -16 7.16016 -16 16zM456 224c13.25 0 24 -10.75 24 -24v-80c0 -13.25 -10.75 -24 -24 -24h-385.37
c-8.49023 0 -16.6299 3.37012 -22.6299 9.37012l-43.3096 43.3096c-6.25 6.25 -6.25 16.3799 0 22.6299l43.3096 43.3203c6.00977 6 14.1396 9.37012 22.6299 9.37012h153.37v32h64v-32h168z" />
    <glyph glyph-name="tachometer-alt" unicode="&#xf3fd;" horiz-adv-x="576" 
d="M288 416c159.06 0 288 -128.94 288 -288c0 -52.7998 -14.25 -102.26 -39.0596 -144.8c-5.61035 -9.62012 -16.3008 -15.2002 -27.4404 -15.2002h-443c-11.1396 0 -21.8301 5.58008 -27.4404 15.2002c-24.8096 42.54 -39.0596 92 -39.0596 144.8
c0 159.06 128.94 288 288 288zM288 352c-17.6699 0 -31.9902 -14.3301 -31.9902 -32s14.3301 -32 32 -32c6.66992 0 12.5098 2.51953 17.6406 6.00977l9.21973 27.6699c0.80957 2.44043 2.33984 4.41016 3.4502 6.66992c-3.74023 13.5205 -15.6104 23.6504 -30.3203 23.6504
zM96 64c17.6699 0 32 14.3301 32 32s-14.3301 32 -32 32s-32 -14.3301 -32 -32s14.3301 -32 32 -32zM144 224c17.6699 0 32 14.3301 32 32s-14.3301 32 -32 32s-32 -14.3301 -32 -32s14.3301 -32 32 -32zM390.77 296.41c4.18066 12.5703 -2.59961 26.1699 -15.1699 30.3594
c-12.6299 4.28027 -26.1895 -2.60938 -30.3594 -15.1699l-61.3398 -184.01c-33.4004 -2.16016 -59.9004 -29.6494 -59.9004 -63.5898c0 -11.7197 3.37988 -22.5498 8.87988 -32h110.24c5.5 9.4502 8.87988 20.2803 8.87988 32c0 19.46 -8.87012 36.6699 -22.5596 48.4102z
M405.43 239.21c5.68066 -8.94043 15.1904 -15.21 26.5703 -15.2197c17.6699 0 32 14.3301 32 32s-14.3301 32 -32 32c-3.91992 0 -7.58008 -0.94043 -11.0498 -2.23047zM480 64c17.6699 0 32 14.3301 32 32s-14.3301 32 -32 32s-32 -14.3301 -32 -32s14.3301 -32 32 -32z
" />
    <glyph glyph-name="route" unicode="&#xf4d7;" horiz-adv-x="512" 
d="M416 128c52.9004 0 96 -43.0996 96 -96s-43.0996 -96 -96 -96h-277.8c13.5 16.2998 31.2998 39.2002 47.2998 64h230.5c17.5996 0 32 14.4004 32 32s-14.4004 32 -32 32h-96c-52.9004 0 -96 43.0996 -96 96s43.0996 96 96 96h45.2998
c-23.0996 32.5996 -45.2998 70.5 -45.2998 96c0 53 43 96 96 96s96 -43 96 -96s-96 -160 -96 -160h-96c-17.5996 0 -32 -14.4004 -32 -32s14.4004 -32 32 -32h96zM416 384c-17.7002 0 -32 -14.2998 -32 -32s14.2998 -32 32 -32s32 14.2998 32 32s-14.2998 32 -32 32zM96 192
c53 0 96 -43 96 -96s-96 -160 -96 -160s-96 107 -96 160s43 96 96 96zM96 64c17.7002 0 32 14.2998 32 32s-14.2998 32 -32 32s-32 -14.2998 -32 -32s14.2998 -32 32 -32z" />
    <glyph glyph-name="book-open" unicode="&#xf518;" horiz-adv-x="576" 
d="M542.22 415.95c18.4199 1.04004 33.7803 -12.9902 33.7705 -30.7002v-337.84c0 -16.2305 -13.1299 -29.7705 -30.0205 -30.6602c-49.4697 -2.59961 -149.52 -12.0996 -218.7 -46.9199c-10.6494 -5.36035 -23.2793 1.93945 -23.2793 13.4902v363.87
c0 5.2793 2.62988 10.3291 7.26953 13.1699c67.2402 41.1592 176.16 52.4795 230.96 55.5898zM264.73 360.36c4.64941 -2.85059 7.26953 -7.7002 7.26953 -12.9902v-364.12c0 -11.5195 -12.5898 -18.8096 -23.21 -13.46c-69.1797 34.8398 -169.28 44.3496 -218.771 46.9502
c-16.8896 0.879883 -30.0195 14.4199 -30.0195 30.6602v337.85c0 17.71 15.3604 31.7402 33.7803 30.7002c54.7998 -3.12012 163.72 -14.4307 230.95 -55.5898z" />
    <glyph glyph-name="air-freshener" unicode="&#xf5d0;" horiz-adv-x="384" 
d="M378.94 126.59c11.75 -12.1494 1.71973 -30.5898 -16.6406 -30.5898h-138.3v-32h112c8.83984 0 16 -7.16016 16 -16v-96c0 -8.83984 -7.16016 -16 -16 -16h-288c-8.83984 0 -16 7.16016 -16 16v96c0 8.83984 7.16016 16 16 16h112v32h-138.3
c-18.3604 0 -28.3906 18.4404 -16.6406 30.5898l94.2402 97.4102h-49.2197c-15.2998 0 -23.6602 16.5996 -13.8604 27.5303l113.33 126.51c-3.42969 6.61035 -5.5498 14 -5.5498 21.96c0 26.5098 21.4902 48 48 48s48 -21.4902 48 -48
c0 -7.95996 -2.12012 -15.3496 -5.5498 -21.96l113.33 -126.51c9.7998 -10.9307 1.43945 -27.5303 -13.8604 -27.5303h-49.2197zM192 416.02c-8.84961 0 -16.0195 -7.16992 -16.0195 -16.0195c0 -8.83984 7.16992 -16.0195 16.0195 -16.0195
s16.0195 7.17969 16.0195 16.0195c0 8.84961 -7.16992 16.0195 -16.0195 16.0195zM304 16h-224v-32h224v32z" />
    <glyph glyph-name="apple-alt" unicode="&#xf5d1;" horiz-adv-x="448" 
d="M350.85 319c25.9707 -4.66992 47.2705 -18.6699 63.9199 -42c14.6504 -20.6699 24.6406 -46.6699 29.9609 -78c4.66992 -28.6699 4.31934 -57.3301 -1 -86c-7.99023 -47.3301 -23.9707 -87 -47.9404 -119c-28.6396 -38.6699 -64.5898 -58 -107.87 -58
c-10.6602 0 -22.2998 3.33008 -34.96 10c-8.66016 5.33008 -18.3096 8 -28.9697 8s-20.2998 -2.66992 -28.9707 -8c-12.6592 -6.66992 -24.2998 -10 -34.96 -10c-43.2793 0 -79.2295 19.3301 -107.869 58c-23.9707 32 -39.9502 71.6699 -47.9404 119
c-5.32031 28.6699 -5.66992 57.3301 -1 86c5.32031 31.3301 15.3096 57.3301 29.96 78c16.6504 23.3301 37.9502 37.3301 63.9199 42c15.9805 2.66992 37.9502 0.330078 65.9199 -7c23.9697 -6.66992 44.2803 -14.6699 60.9307 -24
c16.6494 9.33008 36.96 17.3301 60.9297 24c27.9795 7.33008 49.96 9.66992 65.9395 7zM295.91 360c-9.32031 -8.66992 -21.6504 -15 -36.96 -19c-10.6602 -3.33008 -22.2998 -5 -34.96 -5l-14.9805 1c-1.33008 9.33008 -1.33008 20 0 32
c2.66992 24 10.3203 42.3301 22.9707 55c9.31934 8.66992 21.6494 15 36.96 19c10.6592 3.33008 22.2998 5 34.96 5l14.9795 -1l1 -15c0 -12.6699 -1.66992 -24.3301 -4.99023 -35c-3.98926 -15.3301 -10.3096 -27.6699 -18.9795 -37z" />
    <glyph glyph-name="backpack" unicode="&#xf5d4;" horiz-adv-x="448" 
d="M320 128c17.6699 0 32 -14.3301 32 -32v-32h-256v32c0 17.6699 14.3301 32 32 32h192zM96 -64v96h256v-96h-256zM320 368c70.6904 0 128 -57.3096 128 -128v-240c0 -35.3496 -28.6504 -64 -64 -64v160c0 35.29 -28.71 64 -64 64h-192c-35.29 0 -64 -28.71 -64 -64v-160
c-35.3496 0 -64 28.6504 -64 64v240c0 70.6904 57.3096 128 128 128h8v24c0 30.8799 25.1201 56 56 56h64c30.8799 0 56 -25.1201 56 -56v-24h8zM184 392v-24h80v24c0 4.41016 -3.58984 8 -8 8h-64c-4.41016 0 -8 -3.58984 -8 -8zM320 248v16c0 4.41992 -3.58008 8 -8 8
h-176c-4.41992 0 -8 -3.58008 -8 -8v-16c0 -4.41992 3.58008 -8 8 -8h176c4.41992 0 8 3.58008 8 8z" />
    <glyph glyph-name="bell-school" unicode="&#xf5d5;" horiz-adv-x="512" 
d="M416 240c0 -114.88 -93.1201 -208 -208 -208s-208 93.1201 -208 208s93.1201 208 208 208s208 -93.1201 208 -208zM128 240c0 -44.1104 35.8896 -80 80 -80s80 35.8896 80 80s-35.8896 80 -80 80s-80 -35.8896 -80 -80zM256 240c0 -26.5098 -21.4902 -48 -48 -48
s-48 21.4902 -48 48s21.4902 48 48 48s48 -21.4902 48 -48zM464 128c26.5098 0 48 -21.4902 48 -48c0 -18.54 -10.6299 -34.4404 -26.0195 -42.4404c-8.5 -39.6895 -43.7803 -69.5596 -85.9805 -69.5596h-48c0 -17.6699 -14.3301 -32 -32 -32h-224
c-17.6699 0 -32 14.3301 -32 32v80.46c40.1699 -30.2803 89.9404 -48.46 144 -48.46s103.83 18.1797 144 48.46v-32.46h48c16.5498 0 30.7803 10.0996 36.8604 24.4502c-12.5908 8.66016 -20.8604 23.1201 -20.8604 39.5498c0 26.5098 21.4902 48 48 48z" />
    <glyph glyph-name="bell-school-slash" unicode="&#xf5d6;" 
d="M272 0c38.29 0 74.2305 9.49023 106.34 25.5801l37.6602 -29.1104v-28.4697c0 -17.6699 -14.3301 -32 -32 -32h-224c-17.6699 0 -32 14.3301 -32 32v80.46c40.1699 -30.2803 89.9404 -48.46 144 -48.46zM350.19 47.3301
c-24.1504 -9.81055 -50.5107 -15.3301 -78.1904 -15.3301c-114.88 0 -208 93.1201 -208 208c0 9.17969 0.799805 18.1504 1.9502 27.0098zM633.82 -10.0996c6.97949 -5.43066 8.22949 -15.4805 2.80957 -22.4502l-19.6396 -25.2705
c-5.43066 -6.97949 -15.4805 -8.23926 -22.46 -2.80957l-588.351 454.729c-6.97949 5.43066 -8.22949 15.4805 -2.80957 22.4502l19.6396 25.2705c5.41992 6.97949 15.4805 8.22949 22.46 2.80957l77.7305 -60.0801c37.7402 38.9502 90.2598 63.4502 148.8 63.4502
c114.87 0 208 -93.1201 208 -208c0 -39.5195 -11.1201 -76.3799 -30.29 -107.8l36.8096 -28.4502c8.28027 14.4199 23.6602 24.25 41.4805 24.25c26.5098 0 48 -21.4902 48 -48c0 -13.4297 -5.5498 -25.54 -14.4404 -34.25zM346.64 211.85
c3.34082 8.78027 5.36035 18.2002 5.36035 28.1504c0 44.1104 -35.8896 80 -80 80c-17.1904 0 -32.8896 -5.70996 -45.8701 -15l27 -20.8701c5.7998 2.48047 12.1699 3.87012 18.8701 3.87012c26.5098 0 48 -21.4902 48 -48
c0 -2.40039 -0.370117 -4.7002 -0.709961 -7.00977z" />
    <glyph glyph-name="bone" unicode="&#xf5d7;" 
d="M598.88 203.44c-9.42969 -4.70996 -9.42969 -18.1709 -0.00976562 -22.8809c25.2002 -12.5996 41.1201 -38.3496 41.1201 -66.5293v-7.64062c0 -41.0898 -33.2998 -74.3896 -74.3799 -74.3896c-32.0107 0 -60.4404 20.4902 -70.5703 50.8604
c-6.53027 19.5996 -10.7305 45.1396 -38.1104 45.1396h-273.87c-26.5098 0 -30.4297 -22.1104 -38.1094 -45.1396c-10.1299 -30.3701 -38.5498 -50.8604 -70.5703 -50.8604c-41.0801 0 -74.3799 33.2998 -74.3799 74.3896v7.64062
c0 28.1699 15.9199 53.9297 41.1201 66.5293c9.42969 4.70996 9.42969 18.1709 0 22.8809c-25.2002 12.5996 -41.1201 38.3594 -41.1201 66.5293v7.64062c0 41.0898 33.2998 74.3896 74.3896 74.3896c32.0107 0 60.4404 -20.4902 70.5605 -50.8604
c6.53027 -19.5996 10.7295 -45.1396 38.1094 -45.1396h273.87c26.5107 0 30.4307 22.1104 38.1104 45.1396c10.1299 30.3701 38.5498 50.8604 70.5703 50.8604c41.0898 0 74.3896 -33.2998 74.3896 -74.3896v-7.64062c0 -28.1699 -15.9199 -53.9297 -41.1201 -66.5293z" />
    <glyph glyph-name="bone-break" unicode="&#xf5d8;" 
d="M598.88 299.44c-9.42969 -4.70996 -9.42969 -18.1709 -0.00976562 -22.8809c25.2002 -12.5996 41.1201 -38.3496 41.1201 -66.5293v-7.64062c0 -41.0898 -33.2998 -74.3896 -74.3799 -74.3896c-32.0107 0 -60.4404 20.4902 -70.5605 50.8604l-7.75 23.2598
c-4.35938 13.0703 -16.5898 21.8799 -30.3594 21.8799h-104.94l32 64l-32 64h104.94c14.127 0.000976562 26.1201 9.16992 30.3594 21.8799l7.75 23.2598c10.1299 30.3701 38.5498 50.8604 70.5703 50.8604c41.0801 0 74.3799 -33.2998 74.3799 -74.3896v-7.64062
c0 -28.1699 -15.9199 -53.9297 -41.1201 -66.5293zM320 165.49l-62.9902 -62.9502c-9.74023 -9.74023 -12.1494 -24.6201 -5.99023 -36.9404l10.9609 -21.9297c14.3193 -28.6396 8.70996 -63.2295 -13.9307 -85.8701c-29.0498 -29.0498 -76.1494 -29.0498 -105.2 0
l-5.39941 5.40039c-19.9199 19.9199 -26.8799 49.3896 -17.9697 76.1201c3.3291 10 -6.18066 19.5098 -16.1807 16.1797c-26.7295 -8.91016 -56.2002 -1.9502 -76.1201 17.9697l-5.39941 5.40039c-29.0498 29.0498 -29.0498 76.1494 0 105.2
c22.6494 22.6396 57.2295 28.25 85.8701 13.9297l21.9297 -10.96c12.3203 -6.16016 27.2002 -3.75 36.9395 5.99023l62.9707 62.9697l26.5098 -64z" />
    <glyph glyph-name="book-alt" unicode="&#xf5d9;" horiz-adv-x="448" 
d="M448 89.5996c0 -9.59961 -3.2002 -16 -9.59961 -19.1992c-3.2002 -12.8008 -3.2002 -57.6006 0 -73.6006c6.39941 -6.39941 9.59961 -12.7998 9.59961 -19.2002v-16c0 -16 -12.7998 -25.5996 -25.5996 -25.5996h-326.4c-54.4004 0 -96 41.5996 -96 96v320
c0 54.4004 41.5996 96 96 96h326.4c16 0 25.5996 -9.59961 25.5996 -25.5996v-332.801zM380.8 0v64h-284.8c-16 0 -32 -12.7998 -32 -32s12.7998 -32 32 -32h284.8z" />
    <glyph glyph-name="book-reader" unicode="&#xf5da;" horiz-adv-x="512" 
d="M352 352c0 -53.0195 -42.9805 -96 -96 -96s-96 42.9805 -96 96s42.9805 96 96 96s96 -42.9805 96 -96zM233.59 206.9c4.10059 -2.51074 6.41016 -6.79004 6.41992 -11.46v-245.99c0 -10.1602 -11.1094 -16.5898 -20.4795 -11.8701
c-61.0498 30.75 -149.38 39.1396 -193.04 41.4297c-14.9004 0.770508 -26.4902 12.7207 -26.4902 27.0498v222.801c0 15.6299 13.5498 28.0098 29.7998 27.0898c48.3604 -2.75 144.46 -12.7305 203.79 -49.0498zM482.2 255.95
c16.25 0.919922 29.7998 -11.46 29.8096 -27.0898v-222.82c0 -14.3301 -11.5898 -26.2803 -26.4902 -27.0596c-43.6494 -2.29004 -131.93 -10.6807 -192.97 -41.4004c-9.39941 -4.73047 -20.54 1.70996 -20.54 11.9004v245.789c0 4.6709 2.31055 9.12012 6.41016 11.6309
c59.3203 36.3193 155.43 46.3096 203.78 49.0498z" />
    <glyph glyph-name="bus-school" unicode="&#xf5dd;" horiz-adv-x="512" 
d="M488 336c13.25 0 24 -10.7402 24 -24v-80c0 -13.25 -10.75 -24 -24 -24h-24v-20.9004c9.38965 -5.58008 16 -15.3799 16 -27.0996v-128c0 -17.6699 -14.3301 -32 -32 -32v-32c0 -17.6699 -14.3301 -32 -32 -32h-32c-17.6699 0 -32 14.3301 -32 32v32h-192v-32
c0 -17.6699 -14.3301 -32 -32 -32h-32c-17.6699 0 -32 14.3301 -32 32v32c-17.6699 0 -32 14.3301 -32 32v128c0 11.7197 6.61035 21.5303 16 27.0996v20.9004h-24c-13.25 0 -24 10.75 -24 24v80c0 13.2598 10.75 24 24 24h24v32c0 44.7998 92.1104 80 208 80
s208 -35.2002 208 -80v-32h24zM160 376v-16c0 -4.41992 3.58008 -8 8 -8h176c4.41992 0 8 3.58008 8 8v16c0 4.41992 -3.58008 8 -8 8h-176c-4.41992 0 -8 -3.58008 -8 -8zM112 64c17.6699 0 32 14.3301 32 32s-14.3301 32 -32 32s-32 -14.3301 -32 -32s14.3301 -32 32 -32z
M240 192v128h-96c-17.6699 0 -32 -14.3301 -32 -32v-64c0 -17.6699 14.3301 -32 32 -32h96zM272 192h96c17.6699 0 32 14.3301 32 32v64c0 17.6699 -14.3301 32 -32 32h-96v-128zM400 64c17.6699 0 32 14.3301 32 32s-14.3301 32 -32 32s-32 -14.3301 -32 -32
s14.3301 -32 32 -32z" />
    <glyph glyph-name="car-battery" unicode="&#xf5df;" horiz-adv-x="512" 
d="M480 320c17.6699 0 32 -14.3301 32 -32v-256c0 -17.6699 -14.3301 -32 -32 -32h-448c-17.6699 0 -32 14.3301 -32 32v256c0 17.6699 14.3301 32 32 32h32v48c0 8.83984 7.16016 16 16 16h96c8.83984 0 16 -7.16016 16 -16v-48h128v48c0 8.83984 7.16016 16 16 16h96
c8.83984 0 16 -7.16016 16 -16v-48h32zM192 184v16c0 4.41992 -3.58008 8 -8 8h-112c-4.41992 0 -8 -3.58008 -8 -8v-16c0 -4.41992 3.58008 -8 8 -8h112c4.41992 0 8 3.58008 8 8zM448 184v16c0 4.41992 -3.58008 8 -8 8h-40v40c0 4.41992 -3.58008 8 -8 8h-16
c-4.41992 0 -8 -3.58008 -8 -8v-40h-40c-4.41992 0 -8 -3.58008 -8 -8v-16c0 -4.41992 3.58008 -8 8 -8h40v-40c0 -4.41992 3.58008 -8 8 -8h16c4.41992 0 8 3.58008 8 8v40h40c4.41992 0 8 3.58008 8 8z" />
    <glyph glyph-name="car-bump" unicode="&#xf5e0;" horiz-adv-x="576" 
d="M575.67 -44.4404c2.06055 -9.90918 -5.84961 -19.2695 -16.1299 -19.2695h-158.9c-10.29 0 -18.1895 9.34961 -16.1299 19.2695c9.07031 43.75 48.4199 76.6709 95.5801 76.6709s86.5098 -32.9209 95.5801 -76.6709zM173.72 -5.16016
c7.2002 -16.1699 -0.239258 -35.04 -16.6201 -42.1494l-32.21 -13.9805c-16.3799 -7.11035 -35.5 0.230469 -42.6992 16.4004l-22.5605 50.6396c-13.9902 6.28027 -25.8896 17.2598 -32.5703 32.2402l-21.6094 48.5195c-11.3506 25.4902 -4.32031 54.1504 15.1201 72.1904
l-1.04004 30.4902l-1.89062 55.1299c-1.62012 47.3301 25.71 90.2197 69.6201 109.279l121.08 52.5605c43.9199 19.0596 94.4199 9.9502 128.66 -23.2197l39.8896 -38.6406l22.0605 -21.3701c26.6094 1.9502 52.7598 -12.3096 64.1201 -37.79l21.6201 -48.5195
c6.67969 -14.9805 6.8291 -31.0605 2.05957 -45.4805l22.5596 -50.6396c7.2002 -16.1699 -0.239258 -35.04 -16.6191 -42.1504l-32.21 -13.9795c-16.3809 -7.11035 -35.5 0.229492 -42.7002 16.3994l-13.79 30.9502l-244.061 -105.93zM355.14 200.53
c8.02051 -18.0107 34.1406 -3.08984 52.4502 4.84961c18.2998 7.94043 25.1602 25.25 17.1299 43.2598c-8.01953 18.0107 -25.5801 24.7207 -43.8799 16.7803c-18.2998 -7.9502 -33.7295 -46.8799 -25.7002 -64.8896zM141.58 107.83
c-8.02051 18.0098 -47.5205 33.1104 -65.8203 25.1699s-25.1602 -25.25 -17.1299 -43.2598c8.02051 -18.0098 25.5801 -24.7207 43.8799 -16.7803c18.2998 7.9502 47.1006 16.8604 39.0703 34.8701zM330.21 297.35l-39.8896 38.6406
c-14.5898 14.1299 -36.4307 18.0693 -55.1406 9.9502l-121.08 -52.5605c-18.71 -8.12012 -30.5293 -26.6699 -29.8398 -46.8398l1.89062 -55.1299z" />
    <glyph glyph-name="car-crash" unicode="&#xf5e1;" 
d="M143.25 227.19l-12.4199 -46.3701c-3.00977 -11.25 -3.62988 -22.8906 -2.41016 -34.3906l-35.2002 -28.9795c-6.56934 -5.41016 -16.3096 0.429688 -14.6201 8.76953l15.4404 76.6807c1.05957 5.25977 -2.66016 10.2793 -8 10.79l-77.8604 7.5498
c-8.46973 0.819336 -11.2295 11.8301 -4.13965 16.54l65.1504 43.2998c4.45996 2.96973 5.37988 9.15039 1.97949 13.29l-49.71 60.4102c-5.41016 6.56934 0.429688 16.2998 8.78027 14.6201l76.6797 -15.4404c5.25977 -1.05957 10.2803 2.66016 10.7998 8l7.5498 77.8604
c0.820312 8.47949 11.8301 11.2295 16.5508 4.13965l43.2998 -65.1396c2.96973 -4.45996 9.14941 -5.37988 13.29 -1.98047l60.3994 49.71c6.57031 5.41016 16.3008 -0.429688 14.6201 -8.76953l-11.3301 -56.1602c-2.70996 -3.0498 -5.42969 -6.08984 -7.90918 -9.40039
l-32.1504 -42.9697l-10.71 -14.3203c-32.7305 -8.75977 -59.1797 -34.5293 -68.0801 -67.7393zM637.82 94.6797l-12.4199 -46.3594c-3.13086 -11.6807 -9.38086 -21.6104 -17.5508 -29.3604c-2.72852 -2.58398 -5.62695 -4.90137 -8.75977 -7l-13.9902 -52.2295
c-1.13965 -4.27051 -3.09961 -8.10059 -5.64941 -11.3809c-7.66992 -9.83984 -20.7402 -14.6797 -33.54 -11.25l-30.9102 8.28027c-17.0703 4.57031 -27.2002 22.1201 -22.6299 39.1904l8.28027 30.9102l-247.28 66.2598l-8.28027 -30.9102
c-4.57031 -17.0703 -22.1201 -27.2002 -39.1895 -22.6299l-30.9102 8.28027c-12.7998 3.42969 -21.7002 14.1592 -23.4199 26.5098c-0.570312 4.12012 -0.350586 8.41992 0.790039 12.6797l13.9893 52.2305c-1.63086 3.31445 -3.02148 6.85352 -4.08984 10.4492
c-3.2002 10.79 -3.64941 22.5205 -0.519531 34.2002l12.4199 46.3701c5.30957 19.7998 19.3594 34.8301 36.8896 42.21c5.75 2.42285 12.0352 4.06543 18.4902 4.71973l18.1299 24.2305l32.1504 42.9697c3.44922 4.61035 7.18945 8.90039 11.1992 12.8398
c8 7.89062 17.0303 14.4404 26.7402 19.5107c4.86035 2.54004 9.89062 4.70996 15.0498 6.48926c10.3301 3.58008 21.1904 5.62988 32.2402 6.04004s22.3105 -0.819336 33.4307 -3.7998l122.68 -32.8701c11.1201 -2.97949 21.4795 -7.54004 30.8496 -13.4297
c14.0459 -8.81934 25.7959 -20.5068 34.6904 -34.5c8.81934 -13.8799 14.6396 -29.8398 16.6797 -46.9902l6.36035 -53.29l3.58984 -30.0498c10.3115 -7.44531 18.2578 -17.8018 22.7402 -29.9297c4.38965 -11.8799 5.29004 -25.1904 1.75 -38.3906zM255.58 213.66
c-18.5498 4.96973 -34.21 -4.04004 -39.1699 -22.5303s4.10938 -34.1201 22.6494 -39.0898c18.5508 -4.96973 45.54 -15.5098 50.4902 2.97949c4.95996 18.4902 -15.4297 53.6709 -33.9697 58.6406zM546.19 185.49l-6.36035 53.29
c-0.580078 4.87012 -1.88965 9.5293 -3.82031 13.8594c-5.7998 12.9902 -17.2002 23.0107 -31.4199 26.8203l-122.68 32.8701c-3.96777 1.0625 -8.13672 1.62891 -12.4375 1.62891c-15.7295 0 -29.6641 -7.53418 -38.4229 -19.2393l-32.1494 -42.9697l172 -46.0801z
M564.68 130.84c-18.5498 4.96973 -53.7998 -15.3096 -58.75 -33.79c-4.94922 -18.4902 23.6904 -22.8594 42.2402 -27.8301c18.5498 -4.96973 34.21 4.04004 39.1699 22.5303c4.9502 18.4805 -4.10938 34.1201 -22.6602 39.0898z" />
    <glyph glyph-name="car-garage" unicode="&#xf5e2;" 
d="M512.49 155.1c23.1797 -9.61914 39.5098 -32.4395 39.5098 -59.0996v-32c0 -20.1201 -9.48047 -37.8604 -24 -49.5898v-46.4102c0 -17.6699 -14.3301 -32 -32 -32h-32c-17.6699 0 -32 14.3301 -32 32v32h-224v-32c0 -17.6699 -14.3301 -32 -32 -32h-32
c-17.6699 0 -32 14.3301 -32 32v46.4102c-14.5195 11.7295 -24 29.4697 -24 49.5898v32c0 26.6602 16.3301 49.4805 39.5098 59.1104l5.07031 12.6699l19.9297 49.8193c17.1104 42.7705 57.9307 70.4004 103.99 70.4004h127c46.0703 0 86.8799 -27.6299 103.99 -70.4004
l19.9297 -49.8301zM160 48.2002c19.2002 0 48 -3.19043 48 15.9502c0 19.1396 -28.7998 47.8496 -48 47.8496s-32 -12.7598 -32 -31.9004c0 -19.1396 12.7998 -31.8994 32 -31.8994zM198.4 159.99h243.199l-13.5293 33.8301
c-7.29004 18.2197 -24.9404 30.1699 -44.5703 30.1699h-127c-19.6299 0 -37.2803 -11.9502 -44.5703 -30.1699zM480 48.2002c19.2002 0 32 12.7598 32 31.8994c0 19.1406 -12.7998 31.9004 -32 31.9004s-48 -28.71 -48 -47.8496c0 -19.1406 28.7998 -15.9502 48 -15.9502z
M631.76 279.77c7.73047 -4.2998 10.5205 -14.0498 6.2207 -21.7998l-7.78027 -14.0098c-4.2998 -7.72949 -14.0498 -10.5195 -21.79 -6.21973l-288.41 158.729l-288.41 -158.72c-7.74023 -4.2998 -17.4902 -1.51953 -21.79 6.21973l-7.78027 14.0107
c-4.2998 7.73926 -1.50977 17.4893 6.2207 21.7891l300.09 165.211c3.4502 1.91504 7.47168 3.00684 11.6953 3.00684s8.19434 -1.0918 11.6445 -3.00684z" />
    <glyph glyph-name="car-mechanic" unicode="&#xf5e3;" horiz-adv-x="512" 
d="M503.91 344c5.93945 0 9.89941 -6.2998 7.24023 -11.6299c-13.0605 -26.25 -39.9102 -44.3701 -71.2305 -44.3701c-32.7402 0 -60.5596 19.8301 -72.9395 48h-222.25c-10.3203 -23.5195 -31.4004 -41.6504 -57.0508 -46.5098
c-37.8301 -7.16992 -71.6494 12.3496 -86.8398 42.8701c-2.64941 5.33008 1.2998 11.6396 7.25 11.6396h55.9805l24 24l-24 24h-55.9805c-5.93945 0 -9.89941 6.30957 -7.25 11.6299c13.0605 26.25 39.9102 44.3701 71.2305 44.3701c32.7393 0 60.5596 -19.8301 72.9395 -48
h222.25c10.3301 23.5303 31.4004 41.6504 57.0498 46.5098c37.8301 7.16992 71.6504 -12.3496 86.8408 -42.8701c2.64941 -5.33008 -1.30078 -11.6396 -7.25 -11.6396h-55.9707l-24 -24l24 -24h55.9805zM448.49 155.09c23.1797 -9.60938 39.5098 -32.4297 39.5098 -59.0898
v-32c0 -20.1201 -9.48047 -37.8604 -24 -49.5898v-46.4102c0 -17.6699 -14.3301 -32 -32 -32h-32c-17.6699 0 -32 14.3301 -32 32v32h-224v-32c0 -17.6699 -14.3301 -32 -32 -32h-32c-17.6699 0 -32 14.3301 -32 32v46.4102c-14.5195 11.7295 -24 29.4697 -24 49.5898v32
c0 26.6602 16.3301 49.4805 39.5098 59.0996l5.07031 12.6699l19.9297 49.8203c17.1104 42.7705 57.9307 70.4004 103.99 70.4004h127c46.0703 0 86.8799 -27.6299 103.99 -70.4004l19.9297 -49.8301zM96 48.2002c19.2002 0 48 -3.19043 48 15.9502
c0 19.1396 -28.7998 47.8496 -48 47.8496s-32 -12.7598 -32 -31.9004c0 -19.1396 12.7998 -31.8994 32 -31.8994zM134.4 159.99h243.199l-13.5293 33.8301c-7.29004 18.2197 -24.9404 30.1699 -44.5703 30.1699h-127c-19.6299 0 -37.2803 -11.9502 -44.5703 -30.1699z
M416 48.2002c19.2002 0 32 12.7598 32 31.8994c0 19.1406 -12.7998 31.9004 -32 31.9004s-48 -28.71 -48 -47.8496c0 -19.1406 28.7998 -15.9502 48 -15.9502z" />
    <glyph glyph-name="car-side" unicode="&#xf5e4;" 
d="M544 256c53.0195 0 96 -42.9805 96 -96v-80c0 -8.83984 -7.16016 -16 -16 -16h-48c0 -53.0195 -42.9805 -96 -96 -96s-96 42.9805 -96 96h-128c0 -53.0195 -42.9805 -96 -96 -96s-96 42.9805 -96 96h-48c-8.83984 0 -16 7.16016 -16 16v112
c0 29.79 20.4404 54.5996 48 61.7402l47.9102 122.029c9.71973 24.3008 33.25 40.2305 59.4199 40.2305h213.91c20.2227 -0.00292969 38.2441 -9.35645 49.9795 -24.0195l108.78 -135.98h16zM160 16c26.4697 0 48 21.5303 48 48s-21.5303 48 -48 48s-48 -21.5303 -48 -48
s21.5303 -48 48 -48zM232 256v96h-76.6699l-38.4004 -96h115.07zM280 256h166.04l-76.7998 96h-89.2402v-96zM480 16c26.4697 0 48 21.5303 48 48s-21.5303 48 -48 48s-48 -21.5303 -48 -48s21.5303 -48 48 -48z" />
    <glyph glyph-name="car-tilt" unicode="&#xf5e5;" 
d="M624 0c8.83984 0 16 -7.16016 16 -16v-32c0 -8.83984 -7.16016 -16 -16 -16h-608c-8.83984 0 -16 7.16016 -16 16v32c0 8.83984 7.16016 16 16 16h165.36l-53.4199 53.4102c-19.3301 19.3301 -23.5303 47.8799 -12.96 71.4199l-11.9209 27.8203l-21.1396 49.3301
c-18.1396 42.3398 -8.82031 90.7393 23.75 123.31l89.7998 89.8096c32.5703 32.5801 80.9805 41.9004 123.311 23.75l49.3301 -21.1494l27.8193 -11.9199c23.54 10.5693 52.0898 6.37012 71.4199 -12.96l33.9404 -33.9404c11.4004 -11.3994 17.3301 -26.0498 18.3301 -40.96
l38.2402 -38.2295c12.5 -12.5 12.5 -32.7607 0 -45.2607l-22.6299 -22.6299c-12.4902 -12.5 -32.75 -12.5 -45.25 0l-22.6309 22.6299l-192.33 -192.33l42.1006 -42.0996h306.88zM399.47 347.57c-13.5801 -13.5703 -13.6396 -54.2402 -0.109375 -67.7803
c13.5293 -13.54 31.6396 9.08008 45.2197 22.6602s13.6104 31.6494 0.0703125 45.1895c-13.5303 13.54 -31.6006 13.5107 -45.1807 -0.0693359zM140.74 227.19l21.1396 -49.3203l181.021 181.01l-49.3301 21.1396c-5.79395 2.4834 -12.2148 3.88672 -18.9131 3.88672
c-13.2471 0 -25.248 -5.37695 -33.9375 -14.0664l-89.7998 -89.7998c-8.68945 -8.68945 -14.0371 -20.7314 -14.0371 -33.9785c0 -6.69824 1.37402 -13.0771 3.85742 -18.8711zM218.31 76.1904c13.5703 13.5693 36.2002 31.6797 22.6602 45.2197
c-13.54 13.5303 -54.2002 13.4697 -67.7793 -0.110352c-13.5801 -13.5693 -13.6006 -31.6494 -0.0703125 -45.1797c13.54 -13.54 31.6104 -13.5098 45.1895 0.0703125z" />
    <glyph glyph-name="clipboard-prescription" unicode="&#xf5e8;" horiz-adv-x="384" 
d="M176 208c8.82031 0 16 -7.17969 16 -16s-7.17969 -16 -16 -16h-48v32h48zM336 384c26.5098 0 48 -21.4902 48 -48v-352c0 -26.5098 -21.4902 -48 -48 -48h-288c-26.5098 0 -48 21.4902 -48 48v352c0 26.5098 21.4902 48 48 48h80c0 35.29 28.71 64 64 64
s64 -28.71 64 -64h80zM192 408c-13.2598 0 -24 -10.7402 -24 -24c0 -13.25 10.7402 -24 24 -24s24 10.75 24 24c0 13.2598 -10.7402 24 -24 24zM304 16c6.24023 6.25 6.24023 16.3799 0 22.6201l-30.0703 30.0596l29.9004 29.9004c6.25 6.25 6.25 16.3799 0 22.6299
l-11.2998 11.3096c-6.25 6.25 -16.3799 6.25 -22.6299 0l-29.9004 -29.8994l-33.46 33.46c19.8398 10.8701 33.46 31.7002 33.46 55.9199c0 35.3496 -28.6602 64 -64 64h-80c-8.83984 0 -16 -7.16016 -16 -16v-160c0 -8.83984 7.16016 -16 16 -16h16
c8.83984 0 16 7.16016 16 16v48h18.7402l59.3193 -59.3096l-30.0596 -30.0605c-6.25 -6.25 -6.25 -16.3799 0 -22.6299l11.3096 -11.3096c6.25 -6.25 16.3809 -6.25 22.6309 0l30.0596 30.0596l30.0596 -30.0596c6.25 -6.25 16.3809 -6.25 22.6309 0z" />
    <glyph glyph-name="compass-slash" unicode="&#xf5e9;" 
d="M633.82 -10.0996c6.97949 -5.43066 8.22949 -15.4805 2.81934 -22.4502l-19.6396 -25.2705c-5.42969 -6.97949 -15.4805 -8.23926 -22.46 -2.80957l-588.36 454.729c-6.97949 5.43066 -8.22949 15.4805 -2.80957 22.4502l19.6396 25.2705
c5.41992 6.97949 15.4805 8.22949 22.46 2.80957l99.71 -77.0703c44.79 44.7207 106.511 72.4404 174.82 72.4404c136.97 0 248 -111.03 248 -248c0 -45.6201 -12.5303 -88.21 -34.0303 -124.93zM446.14 291.95c7.61035 16.6494 -9.54004 33.7998 -26.1992 26.2002
l-132.48 -60.5508l105.65 -81.6592zM220.05 65.8604l66.7197 30.4893l155.33 -120.06c-36.0693 -20.46 -77.6699 -32.29 -122.1 -32.29c-136.97 0 -248 111.03 -248 248c0 22.0703 3.16016 43.3496 8.57031 63.71l138.979 -107.41l-25.7002 -56.2402
c-7.60938 -16.6494 9.55078 -33.8096 26.2002 -26.1992z" />
    <glyph glyph-name="diploma" unicode="&#xf5ea;" 
d="M384 179.33l95.1602 -164c3.0498 -7.49023 -2.65039 -15.6299 -10.7305 -15.3203l-36.6396 -0.00976562l-25.2002 -28.5195c-5.55957 -5.87012 -15.3398 -4.04004 -18.3896 3.44922l-68.2002 121.07l-68.1904 -121.07
c-3.05957 -7.48926 -12.8291 -9.31934 -18.3896 -3.44922l-25.21 28.5195l-36.6396 0.00976562c-8.08008 -0.30957 -13.7803 7.83008 -10.7305 15.3203l95.1602 164v140.67h128v-140.67zM224 187.94l-51.0098 -87.9102l-104.601 -35.2402
c-15.0195 -3.11035 -30.25 3.26953 -37.0293 14.7695c-41.8105 70.9404 -41.8105 217.95 0 288.891c6.7793 11.5 22 17.8701 37.0293 14.7695l126.96 -42.79c9.44043 -3.17969 19.0107 -5.91992 28.6504 -8.37012v-144.119zM608.64 368.44
c41.8105 -70.9404 41.8105 -217.95 0 -288.891c-6.7793 -11.5 -22 -17.8701 -37.0293 -14.7695l-104.601 35.2393l-51.0098 87.9209v144.119c9.63965 2.44043 19.21 5.19043 28.6504 8.37012l126.96 42.7803c15.0195 3.11035 30.25 -3.26953 37.0293 -14.7695z" />
    <glyph glyph-name="draw-circle" unicode="&#xf5ed;" horiz-adv-x="512" 
d="M512 192c0 -26.9297 -16.6699 -49.8799 -40.2305 -59.3203c-20.8896 -75.8398 -80.6094 -135.569 -156.449 -156.449c-9.44043 -23.5605 -32.3906 -40.2305 -59.3203 -40.2305s-49.8799 16.6699 -59.3203 40.2305c-75.8398 20.8896 -135.569 80.6094 -156.449 156.449
c-23.5605 9.44043 -40.2305 32.3906 -40.2305 59.3203s16.6699 49.8799 40.2305 59.3203c20.8799 75.8398 80.6094 135.569 156.449 156.449c9.44043 23.5508 32.3906 40.2305 59.3203 40.2305s49.8799 -16.6797 59.3203 -40.2305
c75.8398 -20.8896 135.569 -80.6094 156.449 -156.449c23.5605 -9.44043 40.2305 -32.3906 40.2305 -59.3203zM448 208c-8.82031 0 -16 -7.17969 -16 -16s7.17969 -16 16 -16s16 7.17969 16 16s-7.17969 16 -16 16zM272 384c0 8.82031 -7.17969 16 -16 16
s-16 -7.17969 -16 -16s7.17969 -16 16 -16s16 7.17969 16 16zM64 176c8.82031 0 16 7.17969 16 16s-7.17969 16 -16 16s-16 -7.17969 -16 -16s7.17969 -16 16 -16zM240 0c0 -8.82031 7.17969 -16 16 -16s16 7.17969 16 16s-7.17969 16 -16 16s-16 -7.17969 -16 -16z
M305.15 40.5303c48.3691 15.7549 86.5645 53.9502 102.319 102.319c-14.2197 11.7402 -23.4697 29.2705 -23.4697 49.1504s9.25 37.4199 23.4697 49.1504c-15.7588 48.3672 -53.9521 86.5605 -102.319 102.319c-11.7402 -14.2197 -29.2705 -23.4697 -49.1504 -23.4697
s-37.4102 9.25 -49.1504 23.4697c-48.3672 -15.7588 -86.5605 -53.9521 -102.319 -102.319c14.2197 -11.7305 23.4697 -29.2705 23.4697 -49.1504s-9.25 -37.4102 -23.4697 -49.1504c15.7588 -48.3672 53.9521 -86.5605 102.319 -102.319
c11.7402 14.2197 29.2705 23.4697 49.1504 23.4697s37.4102 -9.25 49.1504 -23.4697z" />
    <glyph glyph-name="draw-polygon" unicode="&#xf5ee;" horiz-adv-x="448" 
d="M384 96c35.3496 0 64 -28.6504 63.9902 -64c0 -35.3496 -28.6504 -64 -64 -64c-23.6299 0 -44.0303 12.9502 -55.1201 32h-209.75c-11.0801 -19.0498 -31.4902 -32 -55.1201 -32c-35.3496 0 -64 28.6504 -64 64c0 23.6299 12.9502 44.04 32 55.1299v209.75
c-19.0498 11.0801 -32 31.4902 -32 55.1201c0 35.3496 28.6504 64 64 64c23.6299 0 44.04 -12.9502 55.1201 -32h209.76c11.0801 19.0498 31.4902 32 55.1201 32c35.3496 0 64 -28.6504 64 -64s-28.6504 -64 -64 -64c-0.349609 0 -0.669922 0.0898438 -1.01953 0.0996094
l-39.2002 -65.3193c5.08008 -9.16992 8.21973 -19.5605 8.21973 -30.7803s-3.15039 -21.6104 -8.21973 -30.7803l39.2002 -65.3193c0.349609 0 0.669922 0.0996094 1.01953 0.0996094zM96 87.1201c9.61816 -5.58398 17.5361 -13.502 23.1201 -23.1201h208.36
l-38.4609 64.0996c-0.349609 0 -0.669922 -0.0996094 -1.01953 -0.0996094c-35.3496 0 -64 28.6504 -64 64s28.6504 64 64 64c0.349609 0 0.669922 -0.0898438 1.01953 -0.0996094l38.4609 64.0996h-208.36c-5.58691 -9.61523 -13.5049 -17.5332 -23.1201 -23.1201v-209.76z
M272 192c0 -8.82031 7.17969 -16 16 -16s16 7.17969 16 16s-7.17969 16 -16 16s-16 -7.17969 -16 -16zM400 352c0 8.82031 -7.17969 16 -16 16s-16 -7.17969 -16 -16s7.17969 -16 16 -16s16 7.17969 16 16zM64 368c-8.82031 0 -16 -7.17969 -16 -16s7.17969 -16 16 -16
s16 7.17969 16 16s-7.17969 16 -16 16zM48 32c0 -8.82031 7.17969 -16 16 -16s16 7.17969 16 16s-7.17969 16 -16 16s-16 -7.17969 -16 -16zM384 16c8.82031 0 16 7.17969 16 16s-7.17969 16 -16 16s-16 -7.17969 -16 -16s7.17969 -16 16 -16z" />
    <glyph glyph-name="draw-square" unicode="&#xf5ef;" horiz-adv-x="448" 
d="M416 87.1201c19.0498 -11.0801 32 -31.4902 31.9902 -55.1201c0 -35.3496 -28.6504 -64 -64 -64c-23.6299 0 -44.0303 12.9502 -55.1201 32h-209.75c-11.0801 -19.0498 -31.4902 -32 -55.1201 -32c-35.3496 0 -64 28.6504 -64 64c0 23.6299 12.9502 44.04 32 55.1299
v209.75c-19.0498 11.0801 -32 31.4902 -32 55.1201c0 35.3496 28.6504 64 64 64c23.6299 0 44.04 -12.9502 55.1201 -32h209.76c11.0801 19.0498 31.4902 32 55.1201 32c35.3496 0 64 -28.6504 64 -64c0 -23.6299 -12.9502 -44.0303 -32 -55.1201v-209.76zM96 87.1201
c9.61523 -5.58398 17.5322 -13.4971 23.1201 -23.1104h209.75c5.58691 9.61621 13.5039 17.5332 23.1201 23.1201v209.75c-9.61621 5.58691 -17.5332 13.5049 -23.1201 23.1201h-209.75c-5.58691 -9.61523 -13.5049 -17.5332 -23.1201 -23.1201v-209.76zM400 352
c0 8.82031 -7.17969 16 -16 16s-16 -7.17969 -16 -16s7.17969 -16 16 -16s16 7.17969 16 16zM64 368c-8.82031 0 -16 -7.17969 -16 -16s7.17969 -16 16 -16s16 7.17969 16 16s-7.17969 16 -16 16zM48 32c0 -8.82031 7.17969 -16 16 -16s16 7.17969 16 16s-7.17969 16 -16 16
s-16 -7.17969 -16 -16zM384 16c8.82031 0 16 7.17969 16 16s-7.17969 16 -16 16s-16 -7.17969 -16 -16s7.17969 -16 16 -16z" />
    <glyph glyph-name="ear" unicode="&#xf5f0;" horiz-adv-x="384" 
d="M192 448c106.04 0 192 -85.96 192 -192c0 -71.0195 -38.6699 -132.89 -96 -166.1v-9.90039c0 -79.5303 -64.4697 -144 -144 -144s-144 64.4697 -144 144v176c0 106.04 85.96 192 192 192zM320 248v8c0 70.5801 -57.4199 128 -128 128s-128 -57.4199 -128 -128
c0 -35.2998 28.7002 -64 64 -64h32c17.6396 0 32 -14.3604 32 -32s-14.3604 -32 -32 -32h-8c-4.41992 0 -8 -3.58008 -8 -8v-16c0 -4.41992 3.58008 -8 8 -8h8c35.2998 0 64 28.7002 64 64s-28.7002 64 -64 64h-32c-17.6396 0 -32 14.3604 -32 32
c0 52.9404 43.0596 96 96 96s96 -43.0596 96 -96v-8c0 -4.41992 3.58008 -8 8 -8h16c4.41992 0 8 3.58008 8 8z" />
    <glyph glyph-name="engine-warning" unicode="&#xf5f2;" 
d="M48 192c0 -59.5303 19.5498 -117.37 55.3398 -164.52c5.16992 -6.82031 4.46973 -16.3105 -2.04004 -21.8604l-12.1895 -10.4004c-6.91992 -5.88965 -17.6201 -5.0498 -23.1504 2.16016c-42.6396 55.6602 -65.96 124.15 -65.96 194.62
c0 70.5 23.3203 138.98 65.9805 194.63c5.5293 7.20996 16.2393 8.0498 23.1494 2.15039l12.2002 -10.4102c6.50977 -5.5498 7.20996 -15.0498 2.03027 -21.8604c-35.8105 -47.1299 -55.3604 -104.979 -55.3604 -164.51zM320 416c123.7 0 224 -100.3 224 -224
c0 -123.76 -100.3 -224 -224 -224s-224 100.24 -224 224c0 123.7 100.3 224 224 224zM320 64c17.6699 0 32 14.3301 32 32s-14.3301 32 -32 32s-32 -14.3301 -32 -32s14.3301 -32 32 -32zM345.44 174.41l12.7998 128c0.939453 9.41992 -6.4502 17.5898 -15.9199 17.5898
h-44.6406c-9.46973 0 -16.8594 -8.16992 -15.9199 -17.5898l12.7998 -128c0.820312 -8.17969 7.7002 -14.4102 15.9209 -14.4102h19.0391c8.2207 0 15.1006 6.23047 15.9209 14.4102zM572.73 388.29c43.4795 -55.9502 67.2695 -125.021 67.2695 -196.29
c0 -71.3096 -23.79 -140.38 -67.2598 -196.32c-5.58008 -7.17969 -16.2998 -7.94922 -23.1699 -2l-12.1504 10.5c-6.46973 5.60059 -7.09961 15.0898 -1.87988 21.8701c36.5 47.3799 56.46 105.72 56.46 165.95c0 60.1904 -19.96 118.53 -56.4697 165.91
c-5.2207 6.78027 -4.58984 16.2695 1.87988 21.8701l12.1494 10.5098c6.88086 5.9502 17.5908 5.17969 23.1709 -2z" />
    <glyph glyph-name="gas-pump-slash" unicode="&#xf5f4;" 
d="M633.82 -10.0996c6.97949 -5.43066 8.22949 -15.4805 2.81934 -22.4502l-19.6396 -25.2705c-5.42969 -6.97949 -15.4805 -8.23926 -22.46 -2.80957l-588.36 454.729c-6.97949 5.43066 -8.22949 15.4805 -2.80957 22.4502l19.6396 25.2705
c5.41992 6.97949 15.4805 8.22949 22.46 2.80957l53.75 -41.5498c8.16016 25.96 32.1299 44.9199 60.7803 44.9199h160c35.3496 0 64 -28.6504 64 -64v-201.02l143.95 -111.25c0 0.0898438 0.0498047 0.169922 0.0498047 0.269531v160.81
c-27.0703 3.9209 -48 27.0508 -48 55.1904v62.0596l-37.6602 37.6602c-6.25 6.25 -6.25 16.3799 0 22.6299l11.3105 11.3105c6.25 6.25 16.3799 6.25 22.6299 0l80.9697 -80.9697c12.0098 -12.0107 18.75 -28.29 18.75 -45.2607v-223.43
c0 -11.3701 -2.91016 -21.9805 -7.62988 -31.5195zM96 32v211.79l274.03 -211.79h-274.03zM400 0c8.83984 0 16 -7.16016 16 -16v-32c0 -8.83984 -7.16016 -16 -16 -16h-320c-8.83984 0 -16 7.16016 -16 16v32c0 8.83984 7.16016 16 16 16h320z" />
    <glyph glyph-name="glasses-alt" unicode="&#xf5f5;" horiz-adv-x="576" 
d="M560.51 222.1c13.3301 -53.4395 15.4902 -74.2197 15.4805 -118.1c0 -75.1104 -60.8906 -136 -136 -136c-72.3701 0 -130.971 56.6904 -135.19 128h-33.6094c-4.2207 -71.3096 -62.8203 -128 -135.19 -128c-75.1104 0 -136 60.8896 -136 136
c0 43.8799 2.16016 64.6602 15.4902 118.1l31.7598 127.261c6.7002 26.8594 33.75 66.6396 85.4199 66.6396c15.6299 0 23.0303 -2.94043 43.0205 -9.58984c8.38965 -2.79004 12.9199 -11.8604 10.1191 -20.2402l-5.05957 -15.1797
c-2.24023 -6.7002 -8.48047 -10.9404 -15.1797 -10.9404c-3.53027 0 -4.81055 0.740234 -18.2305 5.20996c-26.0703 8.68066 -48.21 -6.12988 -53.5303 -27.54l-29.6699 -118.68c20.8906 13.0801 45.3906 20.96 71.8604 20.96c55.0898 0 102.27 -32.9102 123.65 -80h56.6992
c21.3809 47.0898 68.5605 80 123.65 80c26.4697 0 50.9697 -7.87988 71.8604 -20.9697l-29.6699 118.68c-5.33008 21.4102 -27.46 36.2197 -53.5303 27.54c-13.4102 -4.46973 -14.6904 -5.20996 -18.2305 -5.20996c-6.69922 0 -12.9395 4.24023 -15.1797 10.9404
l-5.05957 15.1797c-2.80078 8.37988 1.72949 17.4502 10.1191 20.2402c19.9902 6.65918 27.3906 9.59961 43.0205 9.59961c51.6797 0 78.7197 -39.7803 85.4199 -66.6396zM136 32c39.7002 0 72 32.2998 72 72s-32.2998 72 -72 72s-72 -32.2998 -72 -72s32.2998 -72 72 -72z
M440 32c39.7002 0 72 32.2998 72 72s-32.2998 72 -72 72s-72 -32.2998 -72 -72s32.2998 -72 72 -72z" />
    <glyph glyph-name="heart-rate" unicode="&#xf5f8;" 
d="M624 224c8.83984 0 16 -7.16016 16 -16v-32c0 -8.83984 -7.16016 -16 -16 -16h-124.22l-55.1504 -110.3c-5.93945 -11.8398 -18.6201 -18.7305 -31.7803 -17.5303c-13.3223 1.32227 -24.2822 10.8359 -27.7197 23.4199l-61.3896 225.12l-68.4404 -319.4
c-3.08008 -14.3594 -15.5498 -24.7793 -30.2197 -25.2793c-0.360352 -0.0205078 -0.730469 -0.0205078 -1.08984 -0.0205078c-14.2305 0 -26.8105 9.43066 -30.75 23.2002l-57.3799 200.79h-119.86c-8.83984 0 -16 7.16016 -16 16v32c0 8.83984 7.16016 16 16 16h144
c14.29 0 26.8398 -9.46973 30.7695 -23.2002l28.79 -100.78l69.1406 322.681c3.09961 14.4395 15.6602 24.8701 30.4297 25.2803c14.6904 0.529297 27.8604 -9.33008 31.75 -23.5605l73.9502 -271.2l26.54 53.0898c5.41992 10.8408 16.5098 17.6904 28.6299 17.6904h144z
" />
    <glyph glyph-name="inhaler" unicode="&#xf5f9;" 
d="M32 0c17.6699 0 32 -14.3301 32 -32s-14.3301 -32 -32 -32s-32 14.3301 -32 32s14.3301 32 32 32zM32 192c17.6699 0 32 -14.3301 32 -32s-14.3301 -32 -32 -32s-32 14.3301 -32 32s14.3301 32 32 32zM32 96c17.6699 0 32 -14.3301 32 -32s-14.3301 -32 -32 -32
s-32 14.3301 -32 32s14.3301 32 32 32zM128 144c17.6699 0 32 -14.3301 32 -32s-14.3301 -32 -32 -32s-32 14.3301 -32 32s14.3301 32 32 32zM616.27 409.98c17.0801 -4.58008 27.2109 -22.1201 22.6309 -39.1904l-46.29 -172.78l-168.74 168.74l15.4102 57.5195
c4.56934 17.0703 22.1201 27.2002 39.1895 22.6309zM409.19 336.18l176.96 -176.96c8.04004 -8.04004 11.21 -19.75 8.33008 -30.75l-44.2207 -168.59c-3.68945 -14.0703 -16.3994 -23.8799 -30.9502 -23.8799h-295.31c-17.6699 0 -32 14.3301 -32 32v192
c0 17.6699 14.3301 32 32 32h122.49l35.9102 136.92c3.12988 11.96 18.0498 16 26.79 7.25977zM128 48c17.6699 0 32 -14.3301 32 -32s-14.3301 -32 -32 -32s-32 14.3301 -32 32s14.3301 32 32 32z" />
    <glyph glyph-name="kidneys" unicode="&#xf5fb;" 
d="M231.6 415.93c35.3301 -39.5596 31.8906 -100.239 -7.68945 -135.54c-49.1504 -43.8398 -27.1104 -90.5693 -26.0703 -94.2695c17.1797 -60.6396 -28.1602 -122.11 -92.4697 -122.11c-41.8896 0 -80.4102 27.6201 -92.3506 69.9307
c-5.41992 19.1494 -14.1699 48.0195 -12.8896 90.0596c2.25977 74.04 35.9502 146.15 95.8506 199.62c39.5791 35.2998 100.289 31.8701 135.619 -7.69043zM303.87 180.23v-180.23l0.0195312 -48c0 -8.83984 -7.15918 -16 -16 -16h-16c-8.83984 0 -16 7.16016 -16 16
l-0.0195312 16.0098v212.21c0 3.07031 -1.71973 5.79004 -4.44043 7.16016l-24.21 12.1104l-1.81934 6.49023c-4.89062 17.3096 3.08984 32.1396 11.6592 42.2598l35.8408 -17.9199c19.1299 -9.58984 30.9697 -28.7803 30.9697 -50.0898zM366.84 230.32l35.8906 17.96
c8.5293 -10 16.5 -24.6201 11.6094 -41.5605l-2.12988 -7.38965l-23.8701 -11.9404c-2.75 -1.37988 -4.46973 -4.12988 -4.46973 -7.15918v-180.23l0.0195312 -48c0 -8.83984 -7.15918 -16 -16 -16h-16c-8.83984 0 -16 7.16016 -16 16v16.0195l-0.0195312 212.211
c0 21.3096 11.8799 40.5 30.9697 50.0898zM543.89 423.7c60.2002 -53.54 93.9199 -125.67 96.0107 -199.7c1.18945 -42.46 -7.81055 -71.2695 -13.3506 -90.54c-12.1299 -42.0898 -50.5195 -69.46 -92.2598 -69.46c-64.6699 0 -109.8 62 -92.3203 122.57
c0.730469 2.55957 23.8398 49.5898 -25.7598 93.71c-39.6396 35.25 -43.1797 95.9297 -7.91016 135.52c35.2598 39.6504 96.04 43.1201 135.59 7.90039z" />
    <glyph glyph-name="laptop-code" unicode="&#xf5fc;" 
d="M255.03 186.35l-58.3506 58.3408c-6.25 6.25 -6.25 16.3799 0 22.6299l58.3398 58.3398c6.25 6.25 16.3809 6.25 22.6309 0l11.3096 -11.3105c6.25 -6.25 6.25 -16.3799 0 -22.6299l-35.71 -35.7197l35.7197 -35.71c6.25 -6.25 6.25 -16.3799 0 -22.6299
l-11.3096 -11.3105c-6.25 -6.25 -16.3799 -6.25 -22.6299 0zM351.04 197.65c-6.25 6.25 -6.25 16.3799 0 22.6299l35.71 35.7197l-35.71 35.71c-6.25 6.25 -6.25 16.3799 0 22.6299l11.3096 11.3105c6.25 6.25 16.3809 6.25 22.6309 0l58.3398 -58.3408
c6.25 -6.25 6.25 -16.3799 0 -22.6299l-58.3398 -58.3398c-6.25 -6.25 -16.3809 -6.25 -22.6309 0zM624 32c8.7998 0 16 -7.2002 16 -16v-16c0 -35.2002 -28.7998 -64 -64 -64h-512c-35.2002 0 -64 28.7998 -64 64v16c0 8.7998 7.2002 16 16 16h239.23
c-0.25 -14.5303 14.0791 -32 32.7695 -32h60.7998c18.0303 0 32 12.1904 32.7402 32h242.46zM576 400v-336h-512v336c0 26.4004 21.5996 48 48 48h416c26.4004 0 48 -21.5996 48 -48zM512 128v256h-384v-256h384z" />
    <glyph glyph-name="layer-group" unicode="&#xf5fd;" horiz-adv-x="512" 
d="M12.4102 299.98c-16.5498 7.50977 -16.5498 32.5293 0 40.0391l232.95 105.671c3.23633 1.47949 6.87695 2.30371 10.666 2.30371s7.38672 -0.824219 10.624 -2.30371l232.93 -105.681c16.5498 -7.50977 16.5498 -32.5195 0 -40.0293l-232.94 -105.671
c-6.7998 -3.08984 -14.4893 -3.08984 -21.29 0zM499.59 211.7c16.5498 -7.5 16.5498 -32.5 0 -40l-232.95 -105.59c-6.7998 -3.08008 -14.4893 -3.08008 -21.29 0l-232.939 105.59c-16.5498 7.5 -16.5498 32.5 0 40l58.0996 26.3301l161.63 -73.2705
c7.57031 -3.42969 15.5908 -5.16992 23.8604 -5.16992s16.2998 1.74023 23.8604 5.16992l161.64 73.2705zM499.59 83.9004c16.5498 -7.5 16.5498 -32.5 0 -40l-232.95 -105.591c-6.7998 -3.0791 -14.4893 -3.0791 -21.29 0l-232.939 105.591
c-16.5498 7.5 -16.5498 32.5 0 40l57.8799 26.2295l161.85 -73.3701c7.57031 -3.42969 15.5908 -5.16992 23.8604 -5.16992s16.2998 1.74023 23.8604 5.16992l161.859 73.3701z" />
    <glyph glyph-name="layer-minus" unicode="&#xf5fe;" horiz-adv-x="512" 
d="M12.4102 171.7c-16.5498 7.5 -16.5498 32.5 0 40l232.95 105.58c3.23828 1.47461 6.87793 2.29688 10.666 2.29688s7.38574 -0.822266 10.624 -2.29688l232.939 -105.58c16.5498 -7.5 16.5498 -32.5 0 -40l-232.95 -105.59c-6.7998 -3.08008 -14.4893 -3.08008 -21.29 0z
M304 384c-8.83984 0 -16 7.16016 -16 16v32c0 8.83984 7.16016 16 16 16h192c8.83984 0 16 -7.16016 16 -16v-32c0 -8.83984 -7.16016 -16 -16 -16h-192zM499.59 83.9004c16.5498 -7.5 16.5498 -32.5 0 -40l-232.95 -105.591c-6.7998 -3.0791 -14.4893 -3.0791 -21.29 0
l-232.939 105.591c-16.5498 7.5 -16.5498 32.5 0 40l58.0996 26.3301l161.641 -73.2705c7.56934 -3.42969 15.5898 -5.16992 23.8594 -5.16992c8.27051 0 16.2998 1.74023 23.8604 5.16992l161.63 73.2705z" />
    <glyph glyph-name="layer-plus" unicode="&#xf5ff;" horiz-adv-x="512" 
d="M304 304c-8.83984 0 -16 7.16016 -16 16v32c0 8.83984 7.16016 16 16 16h64v64c0 8.83984 7.16016 16 16 16h32c8.83984 0 16 -7.16016 16 -16v-64h64c8.83984 0 16 -7.16016 16 -16v-32c0 -8.83984 -7.16016 -16 -16 -16h-64v-64c0 -8.83984 -7.16016 -16 -16 -16h-32
c-8.83984 0 -16 7.16016 -16 16v64h-64zM499.59 83.9004c16.5498 -7.5 16.5498 -32.5 0 -40l-232.95 -105.591c-6.7998 -3.0791 -14.4893 -3.0791 -21.29 0l-232.939 105.591c-16.5498 7.5 -16.5498 32.5 0 40l58.54 26.5293l161.189 -73.0596
c7.57031 -3.42969 15.5908 -5.16992 23.8604 -5.16992s16.2998 1.74023 23.8604 5.16992l161.189 73.0596zM12.4102 172.1c-16.5498 7.5 -16.5498 32.5 0 40l213.87 96.9502c13 -84.3701 85.71 -149.04 173.72 -149.04c16.7305 0 32.6797 2.91016 48 7.29004v-18.5801
l-181.36 -82.21c-6.7998 -3.08008 -14.4893 -3.08008 -21.29 0z" />
    <glyph glyph-name="lips" unicode="&#xf600;" 
d="M631.14 252.32c10.3203 -17.1104 11.6299 -37.9902 3.89062 -56.3701c-27.9902 -66.46 -112.63 -227.95 -274.32 -227.95h-81.4297c-161.69 0 -246.33 161.49 -274.311 227.94c-7.73926 18.3896 -6.42969 39.2695 3.89062 56.3799
c51.6699 85.6895 164.83 163.68 213.42 163.68c0 0 32.5693 0 97.7197 -50c65.1504 50 97.7197 50 97.7197 50c48.5898 0 161.75 -77.9902 213.42 -163.68zM320 128c170.66 0 256 96 256 96s-64 32 -160 32l-35.3799 -8.83984
c-18.8203 -4.70996 -39.5703 -7.16016 -60.6201 -7.16016s-41.7998 2.4502 -60.6201 7.16016l-35.3799 8.83984c-96 0 -160 -32 -160 -32s85.3398 -96 256 -96z" />
    <glyph glyph-name="location-slash" unicode="&#xf603;" 
d="M633.82 -10.0996c6.97949 -5.43066 8.22949 -15.4805 2.81934 -22.4502l-19.6396 -25.2705c-5.42969 -6.97949 -15.4805 -8.23926 -22.46 -2.80957l-588.36 454.729c-6.97949 5.43066 -8.22949 15.4805 -2.80957 22.4502l19.6396 25.2705
c5.41992 6.97949 15.4805 8.22949 22.46 2.80957l144.58 -111.75c26.71 24.7002 60.4307 41.9297 97.9502 48.2402v50.8799c0 8.83984 7.16016 16 16 16h32c8.83984 0 16 -7.16016 16 -16v-50.8799c80.3398 -13.5098 143.61 -76.7803 157.12 -157.12h50.8799
c8.83984 0 16 -7.16016 16 -16v-32c0 -8.83984 -7.16016 -16 -16 -16h-50.8701c-3.5 -20.7803 -10.5195 -40.2695 -20.1797 -58.1299zM437.33 141.76c6.72949 15.4102 10.6699 32.3105 10.6699 50.2402c0 70.6904 -57.2998 128 -128 128
c-29.5596 0 -56.5498 -10.2803 -78.2002 -27.1201l33.21 -25.6602c13.1504 7.98047 28.4307 12.7803 44.9902 12.7803c48.5996 0 88 -39.4004 88 -88c0 -8.61035 -1.42969 -16.8203 -3.75977 -24.6602zM320 64c2.61035 0 5.0498 0.620117 7.62012 0.769531l64.5703 -49.8994
c-12.8408 -5.24023 -26.1201 -9.62012 -40.1904 -11.9902v-50.8799c0 -8.83984 -7.16016 -16 -16 -16h-32c-8.83984 0 -16 7.16016 -16 16v50.8799c-80.3398 13.5098 -143.61 76.7803 -157.12 157.12h-50.8799c-8.83984 0 -16 7.16016 -16 16v32c0 8.83984 7.16016 16 16 16
h41.6104l72.8398 -56.2998c11.3701 -59.0498 63.1797 -103.7 125.55 -103.7z" />
    <glyph glyph-name="lungs" unicode="&#xf604;" 
d="M636.11 57.8496c2.58984 -9.68945 3.88965 -19.6396 3.88965 -29.6299c0 -61.2295 -62.4805 -105.439 -125.24 -88.6201l-59.5 15.9502c-42.1797 11.3105 -71.2598 47.4697 -71.2598 88.6201v87.4902l85.8398 -57.2305
c1.26855 -0.845703 2.79395 -1.35156 4.43164 -1.35156c2.77734 0 5.22559 1.41992 6.6582 3.57227l8.87988 13.3096c0.845703 1.26758 1.35254 2.79395 1.35254 4.43164c0 2.77734 -1.41992 5.22559 -3.57227 6.6582l-167.59 111.72l-167.59 -111.72
c-2.15332 -1.43262 -3.55957 -3.88379 -3.55957 -6.66113c0 -1.6377 0.493164 -3.16113 1.33984 -4.42871l8.87988 -13.3096c1.43262 -2.15332 3.88379 -3.56055 6.66113 -3.56055c1.6377 0 3.16016 0.494141 4.42871 1.33984l85.8398 57.2305v-87.4902
c0 -41.1504 -29.0801 -77.3203 -71.2598 -88.6201l-59.5 -15.9502c-62.7598 -16.8193 -125.24 27.3906 -125.24 88.6201c0 9.99023 1.2998 19.9404 3.88965 29.6299c21.6699 81.3008 56.04 159.15 102.011 231.021c22.1191 34.5703 36.0693 63.1299 80.0498 63.1299
c38.6895 0 70.0498 -29.4199 70.0498 -65.71v-60.1104l32.8799 21.9199c4.4502 2.9707 7.12012 7.95996 7.12012 13.3105v170.59c0 8.83984 7.16016 16 16 16h16c8.83984 0 16 -7.16016 16 -16v-170.59c0 -5.55273 2.81934 -10.4414 7.12012 -13.3105l32.8799 -21.9199
v60.1104c0 36.29 31.3604 65.71 70.0498 65.71c43.9805 0 57.9307 -28.5596 80.0498 -63.1299c45.9707 -71.8701 80.3408 -149.72 102.011 -231.021z" />
    <glyph glyph-name="map-marker-alt-slash" unicode="&#xf605;" 
d="M300.8 -54.4004c-119.18 171 -158.62 218.23 -169.33 270.78l257.87 -199.31c-14.9102 -21.1504 -31.54 -44.7803 -50.1396 -71.4707c-9.60059 -12.7998 -28.7998 -12.7998 -38.4004 0zM633.82 -10.0996c6.97949 -5.43066 8.22949 -15.4805 2.80957 -22.4502
l-19.6396 -25.2705c-5.43066 -6.97949 -15.4805 -8.23926 -22.46 -2.80957l-588.351 454.729c-6.97949 5.43066 -8.22949 15.4805 -2.80957 22.4502l19.6396 25.2705c5.41992 6.97949 15.4805 8.22949 22.46 2.80957l112.23 -86.75
c34.0596 53.9902 94.0996 90.1201 162.3 90.1201c105.6 0 192 -86.4004 192 -192c0 -46.2998 -9.91016 -73.5195 -49.5898 -133.62zM370.12 193.71c18.1699 14.5498 29.8799 36.7197 29.8799 62.29c0 44.7998 -35.2002 80 -80 80c-32.9902 0 -60.6602 -19.1699 -73 -47.1299
z" />
    <glyph glyph-name="map-marker-check" unicode="&#xf606;" horiz-adv-x="384" 
d="M192 448c105.6 0 192 -86.4004 192 -192c0 -76.7998 -25.5996 -99.2002 -172.8 -310.4c-9.60059 -12.7998 -28.7998 -12.7998 -38.4004 0c-147.2 211.2 -172.8 233.601 -172.8 310.4c0 105.6 86.4004 192 192 192zM306.08 284.17
c4.30957 4.28027 4.33984 11.2402 0.0595703 15.5605l-25.8193 26.0293c-4.27051 4.31055 -11.2402 4.33984 -15.5508 0.0605469l-97.1992 -96.4199l-42.1504 42.4893c-4.28027 4.31055 -11.25 4.34082 -15.5596 0.0605469l-26.0303 -25.8203
c-4.31055 -4.28027 -4.33984 -11.25 -0.0605469 -15.5596l75.7207 -76.3301c4.26953 -4.31055 11.2402 -4.33984 15.5498 -0.0605469z" />
    <glyph glyph-name="map-marker-edit" unicode="&#xf607;" horiz-adv-x="384" 
d="M192 448c105.6 0 192 -86.4004 192 -192c0 -76.7998 -25.5996 -99.2002 -172.8 -310.4c-9.60059 -12.7998 -28.7998 -12.7998 -38.4004 0c-147.2 211.2 -172.8 233.601 -172.8 310.4c0 105.6 86.4004 192 192 192zM148.83 164.85l85.54 85.54l-47.9805 47.9805
l-85.54 -85.54l-4.7998 -42.8301c-0.620117 -5.67969 4.16992 -10.5703 9.9502 -9.9502zM282.74 298.75c7.01953 7.01953 7.01953 18.4004 0 25.4102l-22.5703 22.5703c-7.01953 7.01953 -18.3896 7.01953 -25.4102 0l-28.2598 -28.2607l47.9805 -47.9795z" />
    <glyph glyph-name="map-marker-exclamation" unicode="&#xf608;" horiz-adv-x="384" 
d="M192 448c105.6 0 192 -86.4004 192 -192c0 -76.7998 -25.5996 -99.2002 -172.8 -310.4c-9.60059 -12.7998 -28.7998 -12.7998 -38.4004 0c-147.2 211.2 -172.8 233.601 -172.8 310.4c0 105.6 86.4004 192 192 192zM192 112c17.6699 0 32 14.3301 32 32
s-14.3301 32 -32 32s-32 -14.3301 -32 -32s14.3301 -32 32 -32zM217.44 222.41l12.7998 128c0.939453 9.41992 -6.4502 17.5898 -15.9199 17.5898h-44.6406c-9.46973 0 -16.8594 -8.16992 -15.9199 -17.5898l12.7998 -128
c0.820312 -8.17969 7.7002 -14.4102 15.9209 -14.4102h19.0391c8.2207 0 15.1006 6.23047 15.9209 14.4102z" />
    <glyph glyph-name="map-marker-minus" unicode="&#xf609;" horiz-adv-x="384" 
d="M192 448c105.6 0 192 -86.4004 192 -192c0 -76.7998 -25.5996 -99.2002 -172.8 -310.4c-9.60059 -12.7998 -28.7998 -12.7998 -38.4004 0c-147.2 211.2 -172.8 233.601 -172.8 310.4c0 105.6 86.4004 192 192 192zM304 248v16c0 8.83984 -7.16016 16 -16 16h-192
c-8.83984 0 -16 -7.16016 -16 -16v-16c0 -8.83984 7.16016 -16 16 -16h192c8.83984 0 16 7.16016 16 16z" />
    <glyph glyph-name="map-marker-plus" unicode="&#xf60a;" horiz-adv-x="384" 
d="M192 448c105.6 0 192 -86.4004 192 -192c0 -76.7998 -25.5996 -99.2002 -172.8 -310.4c-9.60059 -12.7998 -28.7998 -12.7998 -38.4004 0c-147.2 211.2 -172.8 233.601 -172.8 310.4c0 105.6 86.4004 192 192 192zM304 248v16c0 8.83984 -7.16016 16 -16 16h-72v72
c0 8.83984 -7.16016 16 -16 16h-16c-8.83984 0 -16 -7.16016 -16 -16v-72h-72c-8.83984 0 -16 -7.16016 -16 -16v-16c0 -8.83984 7.16016 -16 16 -16h72v-72c0 -8.83984 7.16016 -16 16 -16h16c8.83984 0 16 7.16016 16 16v72h72c8.83984 0 16 7.16016 16 16z" />
    <glyph glyph-name="map-marker-question" unicode="&#xf60b;" horiz-adv-x="384" 
d="M192 448c105.6 0 192 -86.4004 192 -192c0 -76.7998 -25.5996 -99.2002 -172.8 -310.4c-9.60059 -12.7998 -28.7998 -12.7998 -38.4004 0c-147.2 211.2 -172.8 233.601 -172.8 310.4c0 105.6 86.4004 192 192 192zM192 96c17.6699 0 32 14.3301 32 32s-14.3301 32 -32 32
s-32 -14.3301 -32 -32s14.3301 -32 32 -32zM218.67 209.27c31.25 16.2607 64 37.7803 64 78.7305c0 43.25 -32.9199 88 -88 88c-41.8096 0 -76.9004 -29.2998 -85.8096 -68.4502c-2.28027 -9.99023 5.19922 -19.5498 15.4395 -19.5498h16.8398
c7.2207 0 13.1807 4.98047 15.3301 11.8799c5.07031 16.2803 20.2705 28.1201 38.2002 28.1201c25.9805 0 40 -20.6104 40 -40c0 -15.96 -20.0596 -27.1904 -50.6699 -42.5c-8.13965 -4.07031 -13.3301 -12.4004 -13.3301 -21.5v-16.1602
c0 -8.75 7.08984 -15.8398 15.8398 -15.8398h16.3203c8.75 0 15.8398 7.08984 15.8398 15.8398v1.42969z" />
    <glyph glyph-name="map-marker-slash" unicode="&#xf60c;" 
d="M633.82 -10.0996c6.97949 -5.43066 8.22949 -15.4805 2.80957 -22.4502l-19.6396 -25.2705c-5.43066 -6.97949 -15.4805 -8.23926 -22.46 -2.80957l-588.351 454.729c-6.97949 5.43066 -8.22949 15.4805 -2.80957 22.4502l19.6396 25.2705
c5.41992 6.97949 15.4805 8.22949 22.46 2.80957l112.23 -86.75c34.0596 53.9902 94.0996 90.1201 162.3 90.1201c105.6 0 192 -86.4004 192 -192c0 -46.2998 -9.91016 -73.5195 -49.5898 -133.62zM300.8 -54.4004c-119.18 171 -158.62 218.23 -169.33 270.78
l257.87 -199.31c-14.9102 -21.1504 -31.54 -44.7803 -50.1396 -71.4707c-9.60059 -12.7998 -28.7998 -12.7998 -38.4004 0z" />
    <glyph glyph-name="map-marker-smile" unicode="&#xf60d;" horiz-adv-x="384" 
d="M192 448c105.6 0 192 -86.4004 192 -192c0 -76.7998 -25.5996 -99.2002 -172.8 -310.4c-9.60059 -12.7998 -28.7998 -12.7998 -38.4004 0c-147.2 211.2 -172.8 233.601 -172.8 310.4c0 105.6 86.4004 192 192 192zM256 330.84
c-14.8203 0 -26.8398 -12.0195 -26.8398 -26.8398s12.0195 -26.8398 26.8398 -26.8398s26.8398 12.0195 26.8398 26.8398s-12.0195 26.8398 -26.8398 26.8398zM128 330.84c-14.8203 0 -26.8398 -12.0195 -26.8398 -26.8398s12.0195 -26.8398 26.8398 -26.8398
s26.8398 12.0195 26.8398 26.8398s-12.0195 26.8398 -26.8398 26.8398zM292.17 189.87c5.74023 6.71973 4.94043 16.8301 -1.78027 22.5703c-6.69922 5.75 -16.7793 4.94922 -22.5596 -1.78027c-18.7998 -22.0303 -46.4199 -34.6602 -75.8301 -34.6602
c-29.3799 0 -57.0195 12.6201 -75.8398 34.6396c-5.74023 6.74023 -15.8604 7.5 -22.5498 1.77051c-6.7207 -5.74023 -7.52051 -15.8301 -1.77051 -22.5498c24.8906 -29.1406 61.4102 -45.8604 100.16 -45.8604c38.7803 0 75.2998 16.7197 100.17 45.8701z" />
    <glyph glyph-name="map-marker-times" unicode="&#xf60e;" horiz-adv-x="384" 
d="M192 448c105.6 0 192 -86.4004 192 -192c0 -76.7998 -25.5996 -99.2002 -172.8 -310.4c-9.60059 -12.7998 -28.7998 -12.7998 -38.4004 0c-147.2 211.2 -172.8 233.601 -172.8 310.4c0 105.6 86.4004 192 192 192zM276.85 205.09l-50.9092 50.9102l50.9092 50.9102
c6.25 6.25 6.25 16.3799 0 22.6299l-11.3096 11.3096c-6.25 6.25 -16.3799 6.25 -22.6299 0l-50.9102 -50.9092l-50.9102 50.9092c-6.25 6.25 -16.3799 6.25 -22.6299 0l-11.3096 -11.3096c-6.25 -6.25 -6.25 -16.3799 0 -22.6299l50.9092 -50.9102l-50.9092 -50.9102
c-6.25 -6.25 -6.25 -16.3799 0 -22.6299l11.3096 -11.3096c6.25 -6.25 16.3799 -6.25 22.6299 0l50.9102 50.9092l50.9102 -50.9092c6.25 -6.25 16.3799 -6.25 22.6299 0l11.3096 11.3096c6.25 6.25 6.25 16.3799 0 22.6299z" />
    <glyph glyph-name="microscope" unicode="&#xf610;" horiz-adv-x="512" 
d="M160 128c-17.6699 0 -32 14.3301 -32 32v224c0 17.6699 14.3301 32 32 32v16c0 8.83984 7.16016 16 16 16h64c8.83984 0 16 -7.16016 16 -16v-16c17.6699 0 32 -14.3301 32 -32v-224c0 -17.6699 -14.3301 -32 -32 -32h-12v-16c0 -8.83984 -7.16016 -16 -16 -16h-40
c-8.83984 0 -16 7.16016 -16 16v16h-12zM464 0c26.5098 0 48 -21.4902 48 -48c0 -8.83984 -7.16016 -16 -16 -16h-480c-8.83984 0 -16 7.16016 -16 16c0 26.5098 21.4902 48 48 48h272c70.5801 0 128 57.4199 128 128s-57.4199 128 -128 128v64
c105.88 0 192 -86.1201 192 -192c0 -49.2002 -18.7598 -93.9902 -49.29 -128h1.29004zM104 32c-4.41992 0 -8 3.58008 -8 8v16c0 4.41992 3.58008 8 8 8h208c4.41992 0 8 -3.58008 8 -8v-16c0 -4.41992 -3.58008 -8 -8 -8h-208z" />
    <glyph glyph-name="oil-temp" unicode="&#xf614;" 
d="M320 64c-44.1797 0 -80 35.8203 -80 80c0 32.79 19.7695 60.9004 48 73.25v214.75c0 8.83984 7.16016 16 16 16h96c8.83984 0 16 -7.16016 16 -16v-16c0 -8.83984 -7.16016 -16 -16 -16h-48v-32h48c8.83984 0 16 -7.16016 16 -16v-16c0 -8.83984 -7.16016 -16 -16 -16
h-48v-32h48c8.83984 0 16 -7.16016 16 -16v-16c0 -8.83984 -7.16016 -16 -16 -16h-48v-22.75c28.2305 -12.3604 48 -40.46 48 -73.25c0 -44.1797 -35.8203 -80 -80 -80zM16 64c-8.83984 0 -16 7.16016 -16 16v32c0 8.83984 7.16016 16 16 16h16
c26.04 0 45.7998 8.41992 56.0703 17.9004c8.89941 8.20996 19.6602 14.0996 31.7695 14.0996h16.2998c12.1104 0 22.8701 -5.88965 31.7705 -14.0996c8.25 -7.60059 22.7998 -14.3008 41.5898 -16.7402c3.30957 -24.6904 14.25 -46.9697 30.96 -63.8604
c-5.4502 -0.509766 -10.79 -1.2998 -16.46 -1.2998c-38.6201 0 -72.7197 12.1797 -96 31.8398c-23.2803 -19.6494 -57.3799 -31.8398 -96 -31.8398h-16zM624 0c8.83984 0 16 -7.16016 16 -16v-32c0 -8.83984 -7.16016 -16 -16 -16h-16
c-38.6201 0 -72.7197 12.1797 -96 31.8398c-23.2803 -19.6494 -57.3799 -31.8398 -96 -31.8398s-72.7197 12.1797 -96 31.8398c-23.2803 -19.6494 -57.3799 -31.8398 -96 -31.8398s-72.7197 12.1797 -96 31.8398c-23.2803 -19.6494 -57.3799 -31.8398 -96 -31.8398h-16
c-8.83984 0 -16 7.16016 -16 16v32c0 8.83984 7.16016 16 16 16h16c26.04 0 45.7998 8.41992 56.0703 17.9004c8.89941 8.20996 19.6602 14.0996 31.7695 14.0996h16.2998c12.1104 0 22.8701 -5.88965 31.7705 -14.0996c10.29 -9.48047 30.0498 -17.9004 56.0898 -17.9004
s45.7998 8.41992 56.0703 17.9004c8.89941 8.20996 19.6602 14.0996 31.7695 14.0996h16.2998c12.1104 0 22.8701 -5.88965 31.7705 -14.0996c10.29 -9.48047 30.0498 -17.9004 56.0898 -17.9004s45.7998 8.41992 56.0703 17.9004
c8.89941 8.20996 19.6602 14.0996 31.7695 14.0996h16.2998c12.1104 0 22.8701 -5.88965 31.7705 -14.0996c10.29 -9.48047 30.0498 -17.9004 56.0898 -17.9004h16zM624 128c8.83984 0 16 -7.16016 15.9805 -16v-32c0 -8.83984 -7.16016 -16 -16 -16h-16
c-38.6201 0 -72.7207 12.1797 -96 31.8398c-23.2803 -19.6494 -57.3809 -31.8398 -96 -31.8398c-5.6709 0 -11 0.790039 -16.4609 1.2998c16.7109 16.8906 27.6406 39.1699 30.9609 63.8604c18.7891 2.43945 33.3496 9.13965 41.5898 16.7402
c8.89941 8.20996 19.6602 14.0996 31.7695 14.0996h16.2998c12.1104 0 22.8701 -5.88965 31.7705 -14.0996c10.29 -9.48047 30.0498 -17.9004 56.0898 -17.9004h16z" />
    <glyph glyph-name="parking-slash" unicode="&#xf617;" 
d="M288 80v15.4004l164.83 -127.4h-308.83c-26.5 0 -48 21.5 -48 48v227.79l128 -98.9297v-64.8604c0 -8.83984 7.16016 -16 16 -16h32c8.83984 0 16 7.16016 16 16zM633.82 -10.0996c6.97949 -5.43066 8.22949 -15.4805 2.80957 -22.4502l-19.6396 -25.2705
c-5.43066 -6.97949 -15.4805 -8.23926 -22.46 -2.80957l-588.351 454.729c-6.97949 5.43066 -8.22949 15.4805 -2.80957 22.4502l19.6396 25.2705c5.41992 6.97949 15.4805 8.22949 22.46 2.80957l60.9502 -47.1104c8.79004 11.1709 22.2705 18.4805 37.5801 18.4805h352
c26.5 0 48 -21.5 48 -48v-308.68zM409.69 163.13c13.8193 16.5205 22.3096 37.6299 22.3096 60.8701c0 52.9404 -43.0596 96 -96 96h-96c-8.01953 0 -14.3896 -6 -15.54 -13.71l65.0596 -50.29h46.4805c17.6396 0 32 -14.3604 32 -32
c0 -8.48047 -3.44043 -16.0898 -8.83984 -21.8203z" />
    <glyph glyph-name="pencil-paintbrush" unicode="&#xf618;" horiz-adv-x="512" 
d="M316.08 365.29l113.2 -113.19l-296.92 -296.93l-107.45 -18.8398c-14.5 -2.5498 -27.1201 10.0703 -24.5898 24.5596l18.7598 107.44zM497.93 320.76l-46.0293 -46.04l-113.2 113.2l46.0303 46.0205c18.7598 18.7598 49.1797 18.7598 67.9395 0l45.2598 -45.25
c18.75 -18.7607 18.75 -49.1709 0 -67.9307zM456.75 56.3799c11.1104 0 45.46 27.6699 55.25 34.3506c0 -82.3506 -37.9297 -154.73 -128 -154.73c-68.5801 0 -117.36 36.0498 -126.17 99.3896l101.68 101.681c34.25 -5.33008 64.5205 -22.9307 82.6504 -70.71
c2.34961 -6.20996 8 -9.98047 14.5898 -9.98047zM120.18 214.68l-99.0996 100.33c-73.2305 80.4707 62.9697 188.29 124.93 99.8906l69.9902 -104.41z" />
    <glyph glyph-name="poop" unicode="&#xf619;" horiz-adv-x="512" 
d="M451.36 78.8604c34.3301 -5.48047 60.6396 -34.9805 60.6396 -70.8604c0 -39.7598 -32.2402 -72 -72 -72h-368c-39.7598 0 -72 32.2402 -72 72c0 35.8799 26.3096 65.3799 60.6396 70.8604c-17.2998 13.1494 -28.6396 33.7295 -28.6396 57.1396
c0 39.7695 32.2402 72 72 72h14.0703c-13.4199 11.7305 -22.0703 28.7803 -22.0703 48c0 35.3496 28.6504 64 64 64h16c44.1797 0 80 35.8203 80 80c0 17.3799 -5.69043 33.3604 -15.1104 46.4805c4.95996 0.779297 9.94043 1.51953 15.1104 1.51953
c53.0195 0 96 -42.9805 96 -96c0 -11.2803 -2.30957 -21.9502 -5.87988 -32h5.87988c35.3496 0 64 -28.6504 64 -64c0 -19.2197 -8.65039 -36.2695 -22.0703 -48h14.0703c39.7598 0 72 -32.2305 72 -72c0 -23.4102 -11.3398 -43.9902 -28.6396 -57.1396z" />
    <glyph glyph-name="ruler-triangle" unicode="&#xf61c;" horiz-adv-x="512" 
d="M501.65 -4.08008c22.1094 -22.1201 6.44922 -59.9199 -24.8203 -59.9199h-441.73c-19.3896 0 -35.0996 15.71 -35.0996 35.0996v441.73c0 21.1602 17.3096 35.1699 35.3496 35.1699c8.62012 0 17.4102 -3.2002 24.5605 -10.3496l51.1699 -51.1699l-38.5703 -38.5703
c-3.12012 -3.12012 -3.12012 -8.19043 0 -11.3105l11.3105 -11.3096c3.12012 -3.12012 8.18945 -3.12012 11.3096 0l38.5703 38.5703l56.5996 -56.5908l-38.5693 -38.5693c-3.12012 -3.12012 -3.12012 -8.19043 0 -11.3105l11.3096 -11.3096
c3.12012 -3.12012 8.19043 -3.12012 11.3096 0l38.5703 38.5703l56.5703 -56.5703l-38.5703 -38.5703c-3.12012 -3.12012 -3.12012 -8.18945 0 -11.3096l11.3105 -11.3105c3.11914 -3.12012 8.18945 -3.12012 11.3096 0l38.5703 38.5703l56.5693 -56.5703l-38.5693 -38.5693
c-3.12012 -3.12012 -3.12012 -8.19043 0 -11.3105l11.3096 -11.3096c3.12012 -3.12012 8.19043 -3.12012 11.3105 0l38.5693 38.5693l56.5703 -56.5693l-38.5703 -38.5703c-3.12012 -3.12012 -3.12012 -8.18945 0 -11.3096l11.3105 -11.3105
c3.12012 -3.12012 8.18945 -3.12012 11.3096 0l38.5703 38.5703zM128 64h124.54l-124.54 124.54v-124.54z" />
    <glyph glyph-name="scalpel" unicode="&#xf61d;" horiz-adv-x="512" 
d="M482.7 436.15c33.7598 -24.0801 38.8994 -71.6904 12.5303 -102.49l-139.021 -162.44c-6.08984 -7.12012 -15 -11.2197 -24.3701 -11.2197h-131.939c-13.7002 0 -21.0908 16.0596 -12.1904 26.4697l201.5 235.46c23.3096 27.25 64.29 35.0508 93.4902 14.2207zM0 -64
l176 192h105.6v-8.04004c0 -38.3896 -15.3496 -76.6104 -46.7197 -102.32c-0.200195 -0.15918 -0.389648 -0.319336 -0.589844 -0.479492c-64.0098 -51.9805 -147.29 -81.2305 -234.29 -81.1602z" />
    <glyph glyph-name="scalpel-path" unicode="&#xf61e;" 
d="M312 -32c4.41992 0 8 -3.58008 8 -8v-16c0 -4.41992 -3.58008 -8 -8 -8h-80c-4.41992 0 -8 3.58008 -8 8v16c0 4.41992 3.58008 8 8 8h80zM472 -32c4.41992 0 8 -3.58008 8 -8v-16c0 -4.41992 -3.58008 -8 -8 -8h-80c-4.41992 0 -8 3.58008 -8 8v16
c0 4.41992 3.58008 8 8 8h80zM632 -32c4.41992 0 8 -3.58008 8 -8v-16c0 -4.41992 -3.58008 -8 -8 -8h-80c-4.41992 0 -8 3.58008 -8 8v16c0 4.41992 3.58008 8 8 8h80zM234.88 17.6396c-0.200195 -0.15918 -0.389648 -0.319336 -0.589844 -0.479492
c-64.0098 -51.9805 -147.29 -81.2305 -234.29 -81.1602l176 192h105.6v-8.04004c0 -38.3896 -15.3496 -76.6104 -46.7197 -102.32zM482.71 436.15c33.75 -24.0801 38.8896 -71.6904 12.5303 -102.48l-139.021 -162.439c-6.08984 -7.12012 -15 -11.2207 -24.3701 -11.2207
h-131.939c-13.7002 0 -21.0898 16.0498 -12.1904 26.46l201.5 235.46c23.3105 27.25 64.29 35.0508 93.4902 14.2207z" />
    <glyph glyph-name="skeleton" unicode="&#xf620;" horiz-adv-x="512" 
d="M496 288c8.83984 0 16 -7.16016 16 -16v-32c0 -8.83984 -7.16016 -16 -16 -16h-208v-32h144c8.83984 0 16 -7.16016 16 -16v-32c0 -8.83984 -7.16016 -16 -16 -16h-144v-32h112.01c44.1807 0 80 -35.8203 80 -80s-35.8193 -80 -80 -80c-44.1797 0 -80 35.8203 -80 80
c0 5.49902 0.554688 10.8105 1.61035 16h-131.23c1.05078 -5.16992 1.61035 -10.5195 1.61035 -16c0 -44.1797 -35.8203 -80 -80 -80s-80 35.8203 -80 80s35.8203 80 80 80h112v32h-144c-8.83984 0 -16 7.16016 -16 16v32c0 8.83984 7.16016 16 16 16h144v32h-208
c-8.83984 0 -16 7.16016 -16 16v32c0 8.83984 7.16016 16 16 16h208v32h-144c-8.83984 0 -16 7.16016 -16 16v32c0 8.83984 7.16016 16 16 16h144v48c0 8.83984 7.16016 16 16 16h32c8.83984 0 16 -7.16016 16 -16v-48h144c8.83984 0 16 -7.16016 16 -16v-32
c0 -8.83984 -7.16016 -16 -16 -16h-144v-32h208zM112 -16c17.6396 0 32 14.3604 32 32s-14.3604 32 -32 32s-32 -14.3604 -32 -32s14.3604 -32 32 -32zM400 48c-17.6396 0 -32 -14.3604 -32 -32s14.3604 -32 32 -32s32 14.3604 32 32s-14.3604 32 -32 32z" />
    <glyph glyph-name="star-of-life" unicode="&#xf621;" horiz-adv-x="480" 
d="M471.99 113.57c7.66016 -4.41992 10.2793 -14.2002 5.85938 -21.8506l-32.0195 -55.4297c-4.41992 -7.66016 -14.21 -10.2803 -21.8701 -5.86035l-135.93 78.4307v-156.86c0 -8.83984 -7.16992 -16 -16.0107 -16h-64.0391c-8.84082 0 -16.0107 7.16016 -16.0107 16
v156.85l-135.93 -78.4297c-7.66016 -4.41016 -17.4502 -1.79004 -21.8701 5.86035l-32.0195 55.4297c-4.41992 7.65039 -1.80078 17.4404 5.85938 21.8604l135.931 78.4297l-135.931 78.4297c-7.66016 4.41992 -10.2793 14.21 -5.85938 21.8604l32.0195 55.4199
c4.41992 7.65039 14.21 10.2803 21.8701 5.86035l135.93 -78.4307v156.86c0 8.83984 7.16992 16 16.0107 16h64.0391c8.84082 0 16.0107 -7.16016 16.0107 -16v-156.85l135.93 78.4297c7.66016 4.41992 17.4502 1.79004 21.8701 -5.86035l32.0195 -55.4297
c4.41992 -7.66016 1.80078 -17.4404 -5.85938 -21.8604l-135.931 -78.4297z" />
    <glyph glyph-name="stomach" unicode="&#xf623;" horiz-adv-x="512" 
d="M384 352c70.7002 0 128 -57.3096 128.01 -128v-84.3496c0 -112.48 -91.1699 -203.65 -203.649 -203.65c-10.7305 0 -82.1504 -2.20996 -149.37 65.0098c-11.4805 11.4902 -23.96 18.2002 -41.0703 18.2002c-19.96 0 -53.9199 -13.5801 -53.9199 -51.21v-16
c0 -8.83984 -7.16016 -16 -16 -16h-32c-8.83984 0 -16 7.16016 -16 16v16c0 70.6904 57.2998 128 128 128h64c35.3398 0 64 28.6504 64 64v58.5c0 1.87012 0.419922 3.65039 0.490234 5.5h-0.490234c-70.7002 0 -128 57.3096 -128 128v80c0 8.83984 7.16016 16 16 16h32
c8.83984 0 16 -7.16016 16 -16v-80c0 -35.3496 28.6602 -64 64 -64h18.8301c18.3096 31.4297 54.8799 64 109.17 64zM448 139.65v84.3496c0 35.29 -28.71 64 -64 64c-37.6201 0 -64 -33.3496 -64 -69.5v-58.5c0 -6.16992 -0.759766 -12.1396 -1.59961 -18.0703
c22.6895 8.20996 48.2295 3.44043 65.5996 -13.9297c16.2598 -16.2695 39.71 -21.3799 61.2695 -15.2998c1.7207 8.74023 2.73047 17.7197 2.73047 26.9502z" />
    <glyph glyph-name="tachometer-alt-average" unicode="&#xf624;" horiz-adv-x="576" 
d="M288 416c159.06 0 288 -128.94 288 -288c0 -52.7998 -14.25 -102.26 -39.0596 -144.8c-5.61035 -9.62012 -16.3008 -15.2002 -27.4404 -15.2002h-443c-11.1396 0 -21.8301 5.58008 -27.4404 15.2002c-24.8096 42.54 -39.0596 92 -39.0596 144.8
c0 159.06 128.94 288 288 288zM96 64c17.6699 0 32 14.3301 32 32s-14.3301 32 -32 32s-32 -14.3301 -32 -32s14.3301 -32 32 -32zM144 224c17.6699 0 32 14.3301 32 32s-14.3301 32 -32 32s-32 -14.3301 -32 -32s14.3301 -32 32 -32zM343.12 32
c5.5 9.4502 8.87988 20.2803 8.87988 32c0 26.8398 -16.5596 49.75 -40 59.25v196.75c0 13.25 -10.75 24 -24 24s-24 -10.75 -24 -24v-196.75c-23.4404 -9.5 -40 -32.4004 -40 -59.25c0 -11.7197 3.37988 -22.5498 8.87988 -32h110.24zM400 256
c0 -17.6699 14.3301 -32 32 -32s32 14.3301 32 32s-14.3301 32 -32 32s-32 -14.3301 -32 -32zM480 64c17.6699 0 32 14.3301 32 32s-14.3301 32 -32 32s-32 -14.3301 -32 -32s14.3301 -32 32 -32z" />
    <glyph glyph-name="tachometer-alt-fast" unicode="&#xf625;" horiz-adv-x="576" 
d="M288 416c159.06 0 288 -128.94 288 -288c0 -52.7998 -14.25 -102.26 -39.0596 -144.8c-5.61035 -9.62012 -16.3008 -15.2002 -27.4404 -15.2002h-443c-11.1396 0 -21.8301 5.58008 -27.4404 15.2002c-24.8096 42.54 -39.0596 92 -39.0596 144.8
c0 159.06 128.94 288 288 288zM288 352c-17.6699 0 -32 -14.3301 -32 -32s14.3301 -32 32 -32s32 14.3301 32 32s-14.3301 32 -32 32zM96 64c17.6699 0 32 14.3301 32 32s-14.3301 32 -32 32s-32 -14.3301 -32 -32s14.3301 -32 32 -32zM144 224c17.6699 0 32 14.3301 32 32
s-14.3301 32 -32 32s-32 -14.3301 -32 -32s14.3301 -32 32 -32zM343.12 32c5.5 9.4502 8.87988 20.2803 8.87988 32c0 12.0703 -3.54004 23.2305 -9.34961 32.8604l108.56 144.739c7.9502 10.6104 5.79004 25.6602 -4.7998 33.6104
c-10.6104 7.91992 -25.6299 5.75977 -33.6104 -4.7998l-108.56 -144.75c-5.2207 1.37988 -10.5898 2.33984 -16.2402 2.33984c-35.3496 0 -64 -28.6504 -64 -64c0 -11.7197 3.37988 -22.5498 8.87988 -32h110.24zM480 64c17.6699 0 32 14.3301 32 32s-14.3301 32 -32 32
s-32 -14.3301 -32 -32s14.3301 -32 32 -32z" />
    <glyph glyph-name="tachometer-alt-fastest" unicode="&#xf626;" horiz-adv-x="576" 
d="M288 416c159.06 0 288 -128.94 288 -288c0 -52.7998 -14.25 -102.26 -39.0596 -144.8c-5.61035 -9.62012 -16.3008 -15.2002 -27.4404 -15.2002h-443c-11.1396 0 -21.8301 5.58008 -27.4404 15.2002c-24.8096 42.54 -39.0596 92 -39.0596 144.8
c0 159.06 128.94 288 288 288zM432 288c-17.6699 0 -32 -14.3301 -32 -32s14.3301 -32 32 -32s32 14.3301 32 32s-14.3301 32 -32 32zM288 352c-17.6699 0 -32 -14.3301 -32 -32s14.3301 -32 32 -32s32 14.3301 32 32s-14.3301 32 -32 32zM96 64c17.6699 0 32 14.3301 32 32
s-14.3301 32 -32 32s-32 -14.3301 -32 -32s14.3301 -32 32 -32zM144 224c17.6699 0 32 14.3301 32 32s-14.3301 32 -32 32s-32 -14.3301 -32 -32s14.3301 -32 32 -32zM483.95 72.3301c13.0693 2.16992 21.9102 14.5498 19.7197 27.6201
c-2.16992 13.0801 -14.5303 21.8896 -27.6201 19.7197l-133.68 -22.2803c-11.2705 18.3008 -31.3105 30.6104 -54.3701 30.6104c-35.3496 0 -64 -28.6504 -64 -64c0 -11.7197 3.37988 -22.5498 8.87988 -32h110.24c3.20996 5.53027 5.38965 11.6396 6.89941 18.0098z" />
    <glyph glyph-name="tachometer-alt-slow" unicode="&#xf627;" horiz-adv-x="576" 
d="M288 416c159.06 0 288 -128.94 288 -288c0 -52.7998 -14.25 -102.26 -39.0596 -144.8c-5.61035 -9.62012 -16.3008 -15.2002 -27.4404 -15.2002h-443c-11.1396 0 -21.8301 5.58008 -27.4404 15.2002c-24.8096 42.54 -39.0596 92 -39.0596 144.8
c0 159.06 128.94 288 288 288zM288 352c-17.6699 0 -32 -14.3301 -32 -32s14.3301 -32 32 -32s32 14.3301 32 32s-14.3301 32 -32 32zM96 64c17.6699 0 32 14.3301 32 32s-14.3301 32 -32 32s-32 -14.3301 -32 -32s14.3301 -32 32 -32zM343.12 32
c5.5 9.4502 8.87988 20.2803 8.88965 32c0 35.3496 -28.6494 64 -64 64c-5.64941 0 -11.0293 -0.969727 -16.2402 -2.33984l-108.56 144.74c-7.9502 10.5693 -22.9697 12.7197 -33.6104 4.7998c-10.5996 -7.9502 -12.75 -23 -4.7998 -33.6104l108.55 -144.729
c-5.80957 -9.62988 -9.34961 -20.79 -9.34961 -32.8604c0 -11.7197 3.37988 -22.5498 8.87988 -32h110.24zM400 256c0 -17.6699 14.3301 -32 32 -32s32 14.3301 32 32s-14.3301 32 -32 32s-32 -14.3301 -32 -32zM480 64c17.6699 0 32 14.3301 32 32s-14.3301 32 -32 32
s-32 -14.3301 -32 -32s14.3301 -32 32 -32z" />
    <glyph glyph-name="tachometer-alt-slowest" unicode="&#xf628;" horiz-adv-x="576" 
d="M288 416c159.06 0 288 -128.94 288 -288c0 -52.7998 -14.25 -102.26 -39.0596 -144.8c-5.61035 -9.62012 -16.3008 -15.2002 -27.4404 -15.2002h-443c-11.1396 0 -21.8301 5.58008 -27.4404 15.2002c-24.8096 42.54 -39.0596 92 -39.0596 144.8
c0 159.06 128.94 288 288 288zM288 352c-17.6699 0 -32 -14.3301 -32 -32s14.3301 -32 32 -32s32 14.3301 32 32s-14.3301 32 -32 32zM144 288c-17.6699 0 -32 -14.3301 -32 -32s14.3301 -32 32 -32s32 14.3301 32 32s-14.3301 32 -32 32zM343.12 32
c5.5 9.4502 8.87988 20.2803 8.87988 32c0 35.3496 -28.6504 64 -64 64c-23.0596 0 -43.0996 -12.3096 -54.3701 -30.6104l-133.68 22.2803c-13.0898 2.16992 -25.4502 -6.63965 -27.6201 -19.7197c-2.19043 -13.0703 6.66016 -25.4502 19.7197 -27.6201l133.931 -22.3203
c1.50977 -6.37988 3.68945 -12.4902 6.89941 -18.0098h110.24zM400 256c0 -17.6699 14.3301 -32 32 -32s32 14.3301 32 32s-14.3301 32 -32 32s-32 -14.3301 -32 -32zM480 64c17.6699 0 32 14.3301 32 32s-14.3301 32 -32 32s-32 -14.3301 -32 -32s14.3301 -32 32 -32z" />
    <glyph glyph-name="tachometer-average" unicode="&#xf629;" horiz-adv-x="576" 
d="M288 416c159.06 0 288 -128.94 288 -288c0 -52.7998 -14.25 -102.26 -39.0596 -144.8c-5.61035 -9.62012 -16.3008 -15.2002 -27.4404 -15.2002h-443c-11.1396 0 -21.8301 5.58008 -27.4404 15.2002c-24.8096 42.54 -39.0596 92 -39.0596 144.8
c0 159.06 128.94 288 288 288zM343.12 32c5.5 9.4502 8.87988 20.2803 8.87988 32c0 26.8398 -16.5596 49.75 -40 59.25v196.75c0 13.25 -10.75 24 -24 24s-24 -10.75 -24 -24v-196.75c-23.4404 -9.5 -40 -32.4004 -40 -59.25c0 -11.7197 3.37988 -22.5498 8.87988 -32
h110.24z" />
    <glyph glyph-name="tachometer-fast" unicode="&#xf62a;" horiz-adv-x="576" 
d="M288 416c159.06 0 288 -128.94 288 -288c0 -52.7998 -14.25 -102.26 -39.0596 -144.8c-5.61035 -9.62012 -16.3008 -15.2002 -27.4404 -15.2002h-443c-11.1396 0 -21.8301 5.58008 -27.4404 15.2002c-24.8096 42.54 -39.0596 92 -39.0596 144.8
c0 159.06 128.94 288 288 288zM451.2 241.59c7.95996 10.6104 5.7998 25.6602 -4.79004 33.6201c-10.6104 7.91992 -25.6299 5.75977 -33.6104 -4.7998l-108.56 -144.75c-5.2207 1.37988 -10.5898 2.33984 -16.2402 2.33984c-35.3496 0 -64 -28.6504 -64 -64
c0 -11.7197 3.37988 -22.5498 8.87988 -32h110.24c5.5 9.4502 8.87988 20.2803 8.87988 32c0 12.0703 -3.54004 23.2305 -9.34961 32.8604z" />
    <glyph glyph-name="tachometer-fastest" unicode="&#xf62b;" horiz-adv-x="576" 
d="M288 416c159.06 0 288 -128.94 288 -288c0 -52.7998 -14.25 -102.26 -39.0596 -144.8c-5.61035 -9.62012 -16.3008 -15.2002 -27.4404 -15.2002h-443c-11.1396 0 -21.8301 5.58008 -27.4404 15.2002c-24.8096 42.54 -39.0596 92 -39.0596 144.8
c0 159.06 128.94 288 288 288zM483.95 72.3301c13.0693 2.16992 21.9102 14.5498 19.7197 27.6201c-2.16992 13.0801 -14.5303 21.8896 -27.6201 19.7197l-133.68 -22.2803c-11.2705 18.3008 -31.3105 30.6104 -54.3701 30.6104c-35.3496 0 -64 -28.6504 -64 -64
c0 -11.7197 3.37988 -22.5498 8.87988 -32h110.24c3.20996 5.53027 5.38965 11.6396 6.89941 18.0098z" />
    <glyph glyph-name="tachometer-slow" unicode="&#xf62c;" horiz-adv-x="576" 
d="M288 416c159.06 0 288 -128.94 288 -288c0 -52.7998 -14.25 -102.26 -39.0596 -144.8c-5.61035 -9.62012 -16.3008 -15.2002 -27.4404 -15.2002h-443c-11.1396 0 -21.8301 5.58008 -27.4404 15.2002c-24.8096 42.54 -39.0596 92 -39.0596 144.8
c0 159.06 128.94 288 288 288zM343.12 32c5.5 9.4502 8.87988 20.2803 8.88965 32c0 35.3496 -28.6494 64 -64 64c-5.64941 0 -11.0293 -0.969727 -16.2402 -2.33984l-108.56 144.74c-7.9502 10.5693 -22.9697 12.7197 -33.6104 4.7998
c-10.5996 -7.9502 -12.75 -23 -4.7998 -33.6104l108.55 -144.729c-5.80957 -9.62988 -9.34961 -20.79 -9.34961 -32.8604c0 -11.7197 3.37988 -22.5498 8.87988 -32h110.24z" />
    <glyph glyph-name="tachometer-slowest" unicode="&#xf62d;" horiz-adv-x="576" 
d="M288 416c159.06 0 288 -128.94 288 -288c0 -52.7998 -14.25 -102.26 -39.0596 -144.8c-5.61035 -9.62012 -16.3008 -15.2002 -27.4404 -15.2002h-443c-11.1396 0 -21.8301 5.58008 -27.4404 15.2002c-24.8096 42.54 -39.0596 92 -39.0596 144.8
c0 159.06 128.94 288 288 288zM343.12 32c5.5 9.4502 8.87988 20.2803 8.87988 32c0 35.3496 -28.6504 64 -64 64c-23.0596 0 -43.0996 -12.3096 -54.3701 -30.6104l-133.68 22.2803c-13.0898 2.16992 -25.4502 -6.63965 -27.6201 -19.7197
c-2.19043 -13.0703 6.66016 -25.4502 19.7197 -27.6201l133.931 -22.3203c1.50977 -6.37988 3.68945 -12.4902 6.89941 -18.0098h110.24z" />
    <glyph glyph-name="teeth" unicode="&#xf62e;" 
d="M544 448c53.0195 0 96 -42.9805 96 -96v-320c0 -53.0195 -42.9805 -96 -96 -96h-448c-53.0195 0 -96 42.9805 -96 96v320c0 53.0195 42.9805 96 96 96h448zM160 80v64c0 8.83984 -7.16016 16 -16 16h-64c-8.83984 0 -16 -7.16016 -16 -16v-64
c0 -26.5098 21.4902 -48 48 -48s48 21.4902 48 48zM160 208v64c0 26.5098 -21.4902 48 -48 48s-48 -21.4902 -48 -48v-64c0 -8.83984 7.16016 -16 16 -16h64c8.83984 0 16 7.16016 16 16zM304 88v56c0 8.83984 -7.16016 16 -16 16h-80c-8.83984 0 -16 -7.16016 -16 -16v-56
c0 -30.9297 25.0703 -56 56 -56s56 25.0703 56 56zM304 208v88c0 30.9297 -25.0703 56 -56 56s-56 -25.0703 -56 -56v-88c0 -8.83984 7.16016 -16 16 -16h80c8.83984 0 16 7.16016 16 16zM448 88v56c0 8.83984 -7.16016 16 -16 16h-80c-8.83984 0 -16 -7.16016 -16 -16v-56
c0 -30.9297 25.0703 -56 56 -56s56 25.0703 56 56zM448 208v88c0 30.9297 -25.0703 56 -56 56s-56 -25.0703 -56 -56v-88c0 -8.83984 7.16016 -16 16 -16h80c8.83984 0 16 7.16016 16 16zM576 80v64c0 8.83984 -7.16016 16 -16 16h-64c-8.83984 0 -16 -7.16016 -16 -16v-64
c0 -26.5098 21.4902 -48 48 -48s48 21.4902 48 48zM576 208v64c0 26.5098 -21.4902 48 -48 48s-48 -21.4902 -48 -48v-64c0 -8.83984 7.16016 -16 16 -16h64c8.83984 0 16 7.16016 16 16z" />
    <glyph glyph-name="teeth-open" unicode="&#xf62f;" 
d="M544 448c53.0195 0 96 -42.9805 96 -96v-64c0 -35.3496 -28.6602 -64 -64 -64h-512c-35.3398 0 -64 28.6504 -64 64v64c0 53.0195 42.9805 96 96 96h448zM160 272v32c0 26.5098 -21.4902 48 -48 48s-48 -21.4902 -48 -48v-32c0 -8.83984 7.16016 -16 16 -16h64
c8.83984 0 16 7.16016 16 16zM304 272v56c0 30.9297 -25.0703 56 -56 56s-56 -25.0703 -56 -56v-56c0 -8.83984 7.16016 -16 16 -16h80c8.83984 0 16 7.16016 16 16zM448 272v56c0 30.9297 -25.0703 56 -56 56s-56 -25.0703 -56 -56v-56c0 -8.83984 7.16016 -16 16 -16h80
c8.83984 0 16 7.16016 16 16zM576 272v32c0 26.5098 -21.4902 48 -48 48s-48 -21.4902 -48 -48v-32c0 -8.83984 7.16016 -16 16 -16h64c8.83984 0 16 7.16016 16 16zM576 128c35.3398 0 64 -28.6504 64 -64v-32c0 -53.0195 -42.9805 -96 -96 -96h-448
c-53.0195 0 -96 42.9805 -96 96v32c0 35.3496 28.6602 64 64 64h512zM160 48v32c0 8.83984 -7.16016 16 -16 16h-64c-8.83984 0 -16 -7.16016 -16 -16v-32c0 -26.5098 21.4902 -48 48 -48s48 21.4902 48 48zM304 56v24c0 8.83984 -7.16016 16 -16 16h-80
c-8.83984 0 -16 -7.16016 -16 -16v-24c0 -30.9297 25.0703 -56 56 -56s56 25.0703 56 56zM448 56v24c0 8.83984 -7.16016 16 -16 16h-80c-8.83984 0 -16 -7.16016 -16 -16v-24c0 -30.9297 25.0703 -56 56 -56s56 25.0703 56 56zM576 48v32c0 8.83984 -7.16016 16 -16 16h-64
c-8.83984 0 -16 -7.16016 -16 -16v-32c0 -26.5098 21.4902 -48 48 -48s48 21.4902 48 48z" />
    <glyph glyph-name="tire-pressure-warning" unicode="&#xf633;" horiz-adv-x="512" 
d="M474.5 306.46c23.7402 -41.5195 37.5 -90.2695 37.5 -142.54c0 -76.8096 -32.54 -146.14 -80 -195.92v-16c0 -8.83984 -7.16016 -16 -16 -16h-32c-8.83984 0 -16 7.16016 -16 16v16h-32v-16c0 -8.83984 -7.16016 -16 -16 -16h-32c-8.83984 0 -16 7.16016 -16 16v16h-32
v-16c0 -8.83984 -7.16016 -16 -16 -16h-32c-8.83984 0 -16 7.16016 -16 16v16h-32v-16c0 -8.83984 -7.16016 -16 -16 -16h-32c-8.83984 0 -16 7.16016 -16 16v16c-47.46 49.7803 -80 119.11 -80 195.92c0 52.2705 13.7598 101.021 37.5 142.53
c16.1699 28.29 26.5 60.9297 26.5 95.46v28.9502c0 9.46973 7.16016 17.1396 16 17.1396h32c8.83984 0 16 -7.16016 16 -16v-48c0 -32 -15.2305 -74.8496 -34.9297 -109.31c-19.0107 -33.2402 -29.0605 -71.5508 -29.0605 -110.771
c0 -41.1201 12.75 -82.4902 35.7998 -118.12c5.7207 -8.83984 15.9502 -13.79 26.4805 -13.79h259.43c10.5303 0 20.7607 4.94043 26.4805 13.79c23.0498 35.6299 35.7998 76.9902 35.7998 118.12c0 39.2197 -10.0498 77.5205 -29.0596 110.771
c-19.71 34.46 -34.9404 77.3096 -34.9404 109.31v48c0 8.83984 7.16016 16 16 16h32c8.83984 0 16 -7.66992 16 -17.1396v-28.9502c0 -34.5205 10.3301 -67.1699 26.5 -95.4502zM246.48 192c-8.2207 0 -15.1006 6.23047 -15.9209 14.4102l-12.7998 128
c-0.939453 9.41992 6.4502 17.5898 15.9199 17.5898h44.6406c9.46973 0 16.8594 -8.16992 15.9199 -17.5898l-12.7998 -128c-0.820312 -8.17969 -7.7002 -14.4102 -15.9209 -14.4102h-19.0391zM256 160c17.6699 0 32 -14.3301 32 -32s-14.3301 -32 -32 -32
s-32 14.3301 -32 32s14.3301 32 32 32z" />
    <glyph glyph-name="toothbrush" unicode="&#xf635;" 
d="M624 0c8.83984 0 16 -7.16016 16 -16v-32c0 -8.83984 -7.16016 -16 -16 -16h-608c-8.83984 0 -16 7.16016 -16 16v32c0 8.83984 7.16016 16 16 16h608zM64 32h-32v184c0 4.41992 3.58008 8 8 8h16c4.41992 0 8 -3.58008 8 -8v-184zM128 32h-32v184
c0 4.41992 3.58008 8 8 8h16c4.41992 0 8 -3.58008 8 -8v-184zM192 32h-32v184c0 4.41992 3.58008 8 8 8h16c4.41992 0 8 -3.58008 8 -8v-184zM256 32h-32v184c0 4.41992 3.58008 8 8 8h16c4.41992 0 8 -3.58008 8 -8v-184zM320 32h-32v184c0 4.41992 3.58008 8 8 8h16
c4.41992 0 8 -3.58008 8 -8v-184zM384 32h-32v184c0 4.41992 3.58008 8 8 8h16c4.41992 0 8 -3.58008 8 -8v-184zM416 32v184c0 4.41992 3.58008 8 8 8h16c4.41992 0 8 -3.58008 8 -8v-184h-32zM64 256c-35.3496 0 -64 28.6504 -64 64s28.6504 64 64 64h261.49
c33.3994 0 50.1299 40.3799 26.5098 64c70.6904 0 128 -57.3096 128 -128c0 -35.3496 -28.6504 -64 -64 -64h-352z" />
    <glyph glyph-name="traffic-cone" unicode="&#xf636;" horiz-adv-x="512" 
d="M362.12 256l38.2002 -96h-288.65l38.21 96h212.24zM289.73 437.92l46.9199 -117.92h-161.301l46.9199 117.92c2.35645 5.9082 8.12598 10.0791 14.8701 10.0801h37.7207c6.74414 -0.000976562 12.5137 -4.17188 14.8701 -10.0801zM496 0c8.83984 0 16 -7.16016 16 -16
v-32c0 -8.83984 -7.16016 -16 -16 -16h-480c-8.83984 0 -16 7.16016 -16 16v32c0 8.83984 7.16016 16 16 16h32l38.21 96h339.58l38.21 -96h32z" />
    <glyph glyph-name="traffic-light" unicode="&#xf637;" horiz-adv-x="384" 
d="M384 256c0 -41.7402 -26.7998 -76.9004 -64 -90.1201v-37.8799h64c0 -42.8398 -28.25 -78.6904 -66.9902 -91.0498c-12.4297 -57.6699 -63.6094 -100.95 -125.01 -100.95s-112.58 43.2803 -125.01 100.95c-38.7402 12.3594 -66.9902 48.21 -66.9902 91.0498h64v37.8799
c-37.2002 13.2197 -64 48.3799 -64 90.1201h64v37.8799c-37.2002 13.2197 -64 48.3799 -64 90.1201h64v32c0 17.6699 14.3301 32 32 32h192c17.6699 0 32 -14.3301 32 -32v-32h64c0 -41.7402 -26.7998 -76.9004 -64 -90.1201v-37.8799h64zM192 32
c26.5098 0 48 21.4902 48 48s-21.4902 48 -48 48s-48 -21.4902 -48 -48s21.4902 -48 48 -48zM192 160c26.5098 0 48 21.4902 48 48s-21.4902 48 -48 48s-48 -21.4902 -48 -48s21.4902 -48 48 -48zM192 288c26.5098 0 48 21.4902 48 48s-21.4902 48 -48 48
s-48 -21.4902 -48 -48s21.4902 -48 48 -48z" />
    <glyph glyph-name="traffic-light-go" unicode="&#xf638;" horiz-adv-x="384" 
d="M192 240c17.6396 0 32 -14.3604 32 -32s-14.3604 -32 -32 -32s-32 14.3604 -32 32s14.3604 32 32 32zM192 368c17.6396 0 32 -14.3604 32 -32s-14.3604 -32 -32 -32s-32 14.3604 -32 32s14.3604 32 32 32zM384 256c0 -41.7402 -26.7998 -76.9004 -64 -90.1201v-37.8799
h64c0 -42.8398 -28.25 -78.6904 -66.9902 -91.0498c-12.4297 -57.6699 -63.6094 -100.95 -125.01 -100.95s-112.58 43.2803 -125.01 100.95c-38.7402 12.3594 -66.9902 48.21 -66.9902 91.0498h64v37.8799c-37.2002 13.2197 -64 48.3799 -64 90.1201h64v37.8799
c-37.2002 13.2197 -64 48.3799 -64 90.1201h64v32c0 17.6699 14.3301 32 32 32h192c17.6699 0 32 -14.3301 32 -32v-32h64c0 -41.7402 -26.7998 -76.9004 -64 -90.1201v-37.8799h64zM192 32c26.5098 0 48 21.4902 48 48s-21.4902 48 -48 48s-48 -21.4902 -48 -48
s21.4902 -48 48 -48zM192 160c26.5098 0 48 21.4902 48 48s-21.4902 48 -48 48s-48 -21.4902 -48 -48s21.4902 -48 48 -48zM192 288c26.5098 0 48 21.4902 48 48s-21.4902 48 -48 48s-48 -21.4902 -48 -48s21.4902 -48 48 -48z" />
    <glyph glyph-name="traffic-light-slow" unicode="&#xf639;" horiz-adv-x="384" 
d="M192 112c17.6396 0 32 -14.3604 32 -32s-14.3604 -32 -32 -32s-32 14.3604 -32 32s14.3604 32 32 32zM384 256c0 -41.7402 -26.7998 -76.9004 -64 -90.1201v-37.8799h64c0 -42.8398 -28.25 -78.6904 -66.9902 -91.0498
c-12.4297 -57.6699 -63.6094 -100.95 -125.01 -100.95s-112.58 43.2803 -125.01 100.95c-38.7402 12.3594 -66.9902 48.21 -66.9902 91.0498h64v37.8799c-37.2002 13.2197 -64 48.3799 -64 90.1201h64v37.8799c-37.2002 13.2197 -64 48.3799 -64 90.1201h64v32
c0 17.6699 14.3301 32 32 32h192c17.6699 0 32 -14.3301 32 -32v-32h64c0 -41.7402 -26.7998 -76.9004 -64 -90.1201v-37.8799h64zM192 32c26.5098 0 48 21.4902 48 48s-21.4902 48 -48 48s-48 -21.4902 -48 -48s21.4902 -48 48 -48zM192 160c26.5098 0 48 21.4902 48 48
s-21.4902 48 -48 48s-48 -21.4902 -48 -48s21.4902 -48 48 -48zM192 288c26.5098 0 48 21.4902 48 48s-21.4902 48 -48 48s-48 -21.4902 -48 -48s21.4902 -48 48 -48zM192 368c17.6396 0 32 -14.3604 32 -32s-14.3604 -32 -32 -32s-32 14.3604 -32 32s14.3604 32 32 32z" />
    <glyph glyph-name="traffic-light-stop" unicode="&#xf63a;" horiz-adv-x="384" 
d="M192 112c17.6396 0 32 -14.3604 32 -32s-14.3604 -32 -32 -32s-32 14.3604 -32 32s14.3604 32 32 32zM192 240c17.6396 0 32 -14.3604 32 -32s-14.3604 -32 -32 -32s-32 14.3604 -32 32s14.3604 32 32 32zM384 256c0 -41.7402 -26.7998 -76.9004 -64 -90.1201v-37.8799
h64c0 -42.8398 -28.25 -78.6904 -66.9902 -91.0498c-12.4297 -57.6699 -63.6094 -100.95 -125.01 -100.95s-112.58 43.2803 -125.01 100.95c-38.7402 12.3594 -66.9902 48.21 -66.9902 91.0498h64v37.8799c-37.2002 13.2197 -64 48.3799 -64 90.1201h64v37.8799
c-37.2002 13.2197 -64 48.3799 -64 90.1201h64v32c0 17.6699 14.3301 32 32 32h192c17.6699 0 32 -14.3301 32 -32v-32h64c0 -41.7402 -26.7998 -76.9004 -64 -90.1201v-37.8799h64zM192 32c26.5098 0 48 21.4902 48 48s-21.4902 48 -48 48s-48 -21.4902 -48 -48
s21.4902 -48 48 -48zM192 160c26.5098 0 48 21.4902 48 48s-21.4902 48 -48 48s-48 -21.4902 -48 -48s21.4902 -48 48 -48zM192 288c26.5098 0 48 21.4902 48 48s-21.4902 48 -48 48s-48 -21.4902 -48 -48s21.4902 -48 48 -48z" />
    <glyph glyph-name="truck-monster" unicode="&#xf63b;" 
d="M624 224c8.83984 0 16 -7.16016 16 -16v-32c0 -8.83984 -7.16016 -16 -16 -16h-16.71c-29.21 38.6504 -75.0996 64 -127.28 64c-52.1797 0 -98.0693 -25.3496 -127.279 -64h-65.4502c-29.21 38.6504 -75.1006 64 -127.28 64s-98.0703 -25.3496 -127.28 -64h-16.7197
c-8.83984 0 -16 7.16016 -16 16v32c0 8.83984 7.16016 16 16 16h16v80c0 8.83984 7.16016 16 16 16h176v96c0 17.6699 14.3301 32 32 32h113.24c20.2227 -0.00292969 38.2441 -9.35645 49.9795 -24.0195l83.1807 -103.98h73.5996c17.6699 0 32 -14.3301 32 -32v-64h16z
M288 320h132.44l-51.2002 64h-81.2402v-64zM592 96c8.83984 0 16 -7.16016 16.0195 -16v-32c0 -8.83984 -7.15918 -16 -16 -16h-5.19922c-2.1709 -7.26172 -5.11426 -14.3359 -8.65039 -20.8896l3.66992 -3.66992c6.25 -6.25 6.25 -16.3809 0 -22.6309l-22.6299 -22.6299
c-6.25 -6.25 -16.3799 -6.25 -22.6299 0l-3.66992 3.66992c-6.62012 -3.58008 -13.5703 -6.44922 -20.9004 -8.64941v-5.2002c0 -8.83984 -7.16016 -16 -16 -16h-32c-8.83984 0 -16 7.16016 -16 16v5.2002c-7.33008 2.2002 -14.29 5.08008 -20.8994 8.64941
l-3.66992 -3.66992c-6.25 -6.25 -16.3809 -6.25 -22.6309 0l-22.6299 22.6299c-6.25 6.25 -6.25 16.3809 0 22.6309l3.66992 3.66992c-3.58008 6.60938 -6.44922 13.5596 -8.64941 20.8896h-5.2002c-8.83984 0 -16 7.16016 -16 16v32c0 8.83984 7.16016 16 16 16h5.2002
c2.16992 7.26172 5.11426 14.3359 8.64941 20.8896l-3.66992 3.66992c-6.25 6.25 -6.25 16.3809 0 22.6309l22.6299 22.6299c6.25 6.25 16.3809 6.25 22.6309 0l3.66992 -3.66992c6.60938 3.58008 13.5596 6.44922 20.8896 8.64941v5.2002c0 8.83984 7.16016 16 16 16h32
c8.83984 0 16 -7.16016 16 -16v-5.2002c7.26172 -2.16992 14.3359 -5.11426 20.8896 -8.64941l3.66992 3.66992c6.25 6.25 16.3809 6.25 22.6309 0l22.6299 -22.6299c6.25 -6.25 6.25 -16.3809 0 -22.6309l-3.66992 -3.66992
c3.58008 -6.60938 6.44922 -13.5596 8.64941 -20.8896h5.2002zM480 16c26.5098 0 48 21.4902 48 48s-21.4902 48 -48 48s-48 -21.4902 -48 -48s21.4902 -48 48 -48zM272 96c8.83984 0 16 -7.16016 16.0195 -15.9902v-32c0 -8.83984 -7.15918 -16 -16 -16h-5.19922
c-2.1709 -7.26074 -5.11426 -14.3359 -8.65039 -20.8896l3.66992 -3.66992c6.25 -6.25 6.25 -16.3799 0 -22.6299l-22.6299 -22.6299c-6.25 -6.25 -16.3799 -6.25 -22.6299 0l-3.66992 3.66992c-6.62012 -3.58008 -13.5703 -6.4502 -20.9004 -8.65039v-5.2002
c0 -8.83984 -7.16016 -16 -16 -16h-32c-8.83984 0 -16 7.16016 -16 16v5.2002c-7.33008 2.2002 -14.29 5.08008 -20.8994 8.65039l-3.66992 -3.66992c-6.25 -6.25 -16.3809 -6.25 -22.6309 0l-22.6299 22.6299c-6.25 6.25 -6.25 16.3799 0 22.6299l3.66992 3.66992
c-3.58008 6.61035 -6.44922 13.5596 -8.64941 20.8896h-5.2002c-8.83984 0 -16 7.16016 -16 16v32c0 8.83984 7.16016 16 16 16h5.2002c2.16992 7.26172 5.11426 14.3359 8.64941 20.8906l-3.66992 3.66992c-6.25 6.25 -6.25 16.3799 0 22.6299l22.6299 22.6201
c6.25 6.25 16.3809 6.25 22.6309 0l3.66992 -3.66992c6.60938 3.58008 13.5596 6.44922 20.8896 8.64941v5.2002c0 8.83984 7.16016 16 16 16h32c8.83984 0 16 -7.16016 16 -16v-5.2002c7.26172 -2.16992 14.3359 -5.11426 20.8896 -8.64941l3.66992 3.66992
c6.25 6.25 16.3809 6.25 22.6309 0l22.6299 -22.6299c6.25 -6.25 6.25 -16.3809 0 -22.6309l-3.66992 -3.66992c3.58008 -6.60938 6.44922 -13.5596 8.64941 -20.8896h5.2002zM160 16c26.5098 0 48 21.4902 48 48s-21.4902 48 -48 48s-48 -21.4902 -48 -48
s21.4902 -48 48 -48z" />
    <glyph glyph-name="truck-pickup" unicode="&#xf63c;" 
d="M624 160c8.83984 0 16 -7.16016 16 -16v-32c0 -8.83984 -7.16016 -16 -16 -16h-49.5996c0.759766 -5.26953 1.60938 -10.5195 1.60938 -16c0 -61.8604 -50.1396 -112 -112 -112c-61.8594 0 -112 50.1396 -112 112c0 5.48047 0.850586 10.7305 1.61035 16h-67.2305
c0.760742 -5.26953 1.61035 -10.5195 1.61035 -16c0 -61.8604 -50.1396 -112 -112 -112s-112 50.1396 -112 112c0 5.48047 0.849609 10.7305 1.61035 16h-49.6104c-8.83984 0 -16 7.16016 -16 16v32c0 8.83984 7.16016 16 16 16h16v64c0 17.6699 14.3301 32 32 32h160v128
c0 17.6699 14.3301 32 32 32h113.24c20.2227 -0.00292969 38.2441 -9.35645 49.9795 -24.0195l108.78 -135.98h48c17.6699 0 32 -14.3301 32 -32v-64h16zM288 352v-96h158.04l-76.7998 96h-81.2402zM176 32c26.4697 0 48 21.5303 48 48s-21.5303 48 -48 48
s-48 -21.5303 -48 -48s21.5303 -48 48 -48zM464 32c26.4697 0 48 21.5303 48 48s-21.5303 48 -48 48s-48 -21.5303 -48 -48s21.5303 -48 48 -48z" />
    <glyph glyph-name="users-class" unicode="&#xf63d;" 
d="M256 160c0 35.3496 28.6602 64 64 64c35.3496 0 64 -28.6504 64 -64s-28.6504 -64 -64 -64c-35.3398 0 -64 28.6504 -64 64zM480 160c0 35.3496 28.6602 64 64 64c35.3496 0 64 -28.6504 64 -64s-28.6504 -64 -64 -64c-35.3398 0 -64 28.6504 -64 64zM96 96
c-35.3398 0 -64 28.6504 -64 64s28.6602 64 64 64c35.3496 0 64 -28.6504 64 -64s-28.6504 -64 -64 -64zM576 64c35.3398 0 64 -28.6504 64 -64v-32c0 -17.6699 -14.3301 -32 -32 -32h-128c-17.6699 0 -32 14.3301 -32 32v32c0 35.3496 28.6602 64 64 64h64zM352 64
c35.3398 0 64 -28.6504 64 -64v-32c0 -17.6699 -14.3301 -32 -32 -32h-128c-17.6699 0 -32 14.3301 -32 32v32c0 35.3496 28.6602 64 64 64h64zM128 64c35.3398 0 64 -28.6504 64 -64v-32c0 -17.6699 -14.3301 -32 -32 -32h-128c-17.6699 0 -32 14.3301 -32 32v32
c0 35.3496 28.6602 64 64 64h64zM96 384v-128c-24.6699 0 -46.9805 -9.62012 -64 -24.9697v167.38c0 27.3398 21.5303 49.5898 48 49.5898h480c26.4697 0 48 -22.25 48 -49.5898v-167.38c-17.0195 15.3496 -39.3203 24.9697 -64 24.9697v128h-448z" />
  </font>
</defs>
</svg>
