<?xml version="1.0" standalone="no"?>
<!DOCTYPE svg PUBLIC "-//W3C//DTD SVG 1.1//EN" "http://www.w3.org/Graphics/SVG/1.1/DTD/svg11.dtd" >
<svg xmlns="http://www.w3.org/2000/svg" xmlns:xlink="http://www.w3.org/1999/xlink" version="1.1">
<metadata>
Created by FontForge 20200314 at Wed Jan 13 11:59:38 2021
 By Robert Madole
Copyright (c) Font Awesome
</metadata>
<!-- Font Awesome Pro 5.15.2 by @fontawesome - https://fontawesome.com License - https://fontawesome.com/license (Commercial License) --><defs>
<font id="FontAwesome5Pro-Light" horiz-adv-x="512" >
  <font-face 
    font-family="Font Awesome 5 Pro Light"
    font-weight="300"
    font-stretch="normal"
    units-per-em="512"
    panose-1="2 0 3 3 0 0 0 0 0 0"
    ascent="448"
    descent="-64"
    bbox="-0.0176802 -64.0411 640.005 448.005"
    underline-thickness="25"
    underline-position="-50"
    unicode-range="U+0020-F8FF"
  />
    <missing-glyph />
    <glyph glyph-name="tint" unicode="&#xf043;" horiz-adv-x="352" 
d="M205.22 425.91c46.9902 -158.48 146.78 -200.07 146.78 -311.82c0 -98.4395 -78.7197 -178.09 -176 -178.09s-176 79.6504 -176 178.09c0 111.19 100.01 154.061 146.78 311.82c4.4502 14.8896 16.8398 22.0898 29.1895 22.0898
c12.6406 0 25.2402 -7.53027 29.25 -22.0898zM176 -32c79.4004 0 144 65.54 144 146.09c0 48.6104 -22.9404 81.3906 -54.6797 126.771c-29.2402 41.7695 -65.4707 93.5596 -89.3008 171.08c-23.8398 -77.2803 -60 -129.101 -89.1797 -170.91
c-31.8398 -45.6201 -54.8398 -78.5801 -54.8398 -126.94c0 -80.5498 64.5996 -146.09 144 -146.09zM176 32c8.83984 0 16 -7.16016 16 -16s-7.16016 -16 -16 -16c-61.75 0 -112 50.25 -112 112c0 8.83984 7.16016 16 16 16s16 -7.16016 16 -16
c0 -44.1104 35.8799 -80 80 -80z" />
    <glyph glyph-name="cut" unicode="&#xf0c4;" horiz-adv-x="448" 
d="M249.52 192l197.311 -197.17c0.722656 -0.723633 1.16992 -1.72363 1.16992 -2.8252c0 -1.10254 -0.447266 -2.10156 -1.16992 -2.8252c-12.4902 -12.5 -32.75 -12.5 -45.25 0l-177.521 177.38l-48.6396 -48.6094c10.46 -15.3799 16.5801 -33.9502 16.5801 -53.9502
c0 -53.0195 -42.9805 -96 -96 -96s-96 42.9805 -96 96s42.9805 96 96 96c20.0098 0 38.5801 -6.12012 53.96 -16.5996l48.6299 48.5996l-48.6299 48.5996c-15.3799 -10.4795 -33.9502 -16.5996 -53.96 -16.5996c-53.0195 0 -96 42.9805 -96 96s42.9805 96 96 96
s96 -42.9805 96 -96c0 -20 -6.12012 -38.5703 -16.5801 -53.9502l48.6396 -48.6094l177.521 177.38c12.4902 12.5 32.75 12.5 45.25 0c0.722656 -0.723633 1.16992 -1.72363 1.16992 -2.82617s-0.447266 -2.10059 -1.16992 -2.82422zM96 256c35.29 0 64 28.71 64 64
s-28.71 64 -64 64s-64 -28.71 -64 -64s28.71 -64 64 -64zM96 0c35.29 0 64 28.71 64 64s-28.71 64 -64 64s-64 -28.71 -64 -64s28.71 -64 64 -64z" />
    <glyph glyph-name="magic" unicode="&#xf0d0;" 
d="M224 352l-16 32l-32 16l32 16l16 32l16 -32l32 -16l-32 -16zM80 288l-26.6602 53.3301l-53.3398 26.6699l53.3398 26.6699l26.6602 53.3301l26.6602 -53.3301l53.3398 -26.6699l-53.3398 -26.6699zM80 384c-8.83984 0 -16 -7.16016 -16 -16s7.16016 -16 16 -16
s16 7.16016 16 16s-7.16016 16 -16 16zM432 160l26.6602 -53.3301l53.3398 -26.6699l-53.3398 -26.6699l-26.6602 -53.3301l-26.6602 53.3301l-53.3398 26.6699l53.3398 26.6699zM432 64c8.83984 0 16 7.16016 16 16s-7.16016 16 -16 16s-16 -7.16016 -16 -16
s7.16016 -16 16 -16zM502.63 370.04c12.4902 -12.5 12.4902 -32.7598 0 -45.2598l-379.41 -379.41c-6.25 -6.25 -14.4395 -9.37012 -22.6299 -9.37012c-8.18945 0 -16.3799 3.12012 -22.6299 9.37012l-68.5898 68.5898c-12.5 12.4902 -12.5 32.75 0 45.25l379.41 379.42
c6.25 6.25 14.4395 9.37012 22.6299 9.37012c8.18945 0 16.3799 -3.12012 22.6299 -9.37012zM100.59 -32l258.391 258.39l-68.6006 68.6006l-258.38 -258.4zM381.61 249.02l98.3896 98.3906l-68.5898 68.5898h-0.0302734l-98.3701 -98.3799z" />
    <glyph glyph-name="crop" unicode="&#xf125;" 
d="M488 128c13.25 0 24 -10.75 24 -24v-48c0 -13.25 -10.75 -24 -24 -24h-72v-72c0 -13.25 -10.75 -24 -24 -24h-48c-13.25 0 -24 10.75 -24 24v72h-192c-17.6699 0 -32 14.3301 -32 32v192h-72c-13.25 0 -24 10.75 -24 24v48c0 13.2598 10.75 24 24 24h72v72
c0 13.2598 10.75 24 24 24h48c13.25 0 24 -10.7402 24 -24v-72h201.37l93.6699 93.6602c3.12012 3.12012 8.19043 3.12012 11.3096 0l11.3105 -11.3105c3.12012 -3.11914 3.12012 -8.18945 0 -11.3096l-93.6602 -93.6602v-201.38h72zM96 288v32h-64v-32h64zM192 320v-32
h137.37l32 32h-169.37zM297.38 256h-105.38v-105.38zM320 64v32h-160v320h-32v-352h192zM214.62 128h105.38v105.37zM352 -32h32v329.37l-32 -32v-297.37zM480 64v32h-64v-32h64z" />
    <glyph glyph-name="taxi" unicode="&#xf1ba;" 
d="M96 160c17.6699 0 32 -14.3301 32 -32s-14.3301 -32 -32 -32s-32 14.3301 -32 32s14.3301 32 32 32zM416 160c17.6699 0 32 -14.3301 32 -32s-14.3301 -32 -32 -32s-32 14.3301 -32 32s14.3301 32 32 32zM328 128c4.41992 0 8 -3.58008 8 -8v-16
c0 -4.41992 -3.58008 -8 -8 -8h-144c-4.41992 0 -8 3.58008 -8 8v16c0 4.41992 3.58008 8 8 8h144zM447.11 218.4c37.6592 -12.9805 64.8896 -48.3301 64.8896 -90.4004v-32c0 -23.6299 -12.9502 -44.0303 -32 -55.1201v-40.8799c0 -17.6699 -14.3301 -32 -32 -32h-48
c-17.6699 0 -32 14.3301 -32 32v32h-224v-32c0 -17.6699 -14.3301 -32 -32 -32h-48c-17.6699 0 -32 14.3301 -32 32v40.8799c-19.0498 11.0801 -32 31.4902 -32 55.1201v32c0 42.0703 27.2305 77.4199 64.9004 90.4004l13.3193 68.7998
c7.25 37.5498 40.2803 64.7998 78.5303 64.7998h3.25v32c0 17.6699 14.3301 32 32 32h128c17.6699 0 32 -14.3301 32 -32v-32h3.25c38.25 0 71.2803 -27.25 78.54 -64.8096zM192 384v-32h128v32h-128zM109.66 281.12l-11.0605 -57.1201h314.801l-11.0605 57.1104
c-4.33984 22.5498 -24.1494 38.8896 -47.0898 38.8896h-198.5c-22.9404 0 -42.75 -16.3398 -47.0898 -38.8799zM112 0v32h-48v-32h48zM448 0v32h-48v-32h48zM480 96v32c0 35.29 -28.71 64 -64 64h-320c-35.29 0 -64 -28.71 -64 -64v-32c0 -17.6396 14.3604 -32 32 -32h384
c17.6396 0 32 14.3604 32 32z" />
    <glyph glyph-name="eye-dropper" unicode="&#xf1fb;" 
d="M483.61 421.38c45.2393 -45.4102 29.6699 -98.7402 0 -128.51l-82.6299 -82.9404l16.9492 -17.0195c9.37012 -9.41016 9.37988 -24.6699 0 -34.0801l-40.9795 -41.1396c-9.37012 -9.41016 -24.5703 -9.41016 -33.9502 0l-16.96 17.04l-149.31 -147.851
c-11.5723 -11.623 -27.5908 -18.8135 -45.2705 -18.8203h-33.6201l-39.6494 -27.0996c-12.6504 -8 -29.1406 -6.15039 -39.71 4.45996l-9.11035 9.13965c-10.5703 10.6104 -12.4199 27.1602 -4.44043 39.8604l27 39.79v33.7402
c0 0.00390625 -0.0078125 0.0185547 -0.0078125 0.0224609c0 17.7168 7.17188 33.7715 18.7686 45.417l147.3 149.841l-16.9805 17.0498c-9.37988 9.41016 -9.37012 24.6699 0 34.0801l40.9805 41.1396c9.37988 9.41016 24.5801 9.41016 33.9502 0l17 -17.0596
l82.6299 82.9395c35.1992 35.3301 92.5293 35.6504 128.04 0zM154.09 7.58984l149.311 149.851l-82.7705 83.0791l-147.3 -149.85c-6.0498 -6.07031 -9.37988 -14.1396 -9.37988 -22.7197v-43.0303l-31.9404 -47.6504l9.11035 -9.13965l47.4697 32.0498h42.8701
c8.5498 0 16.5801 1.33984 22.6299 7.41016zM460.98 315.58c6.90918 6.93945 39.3896 43.5498 0 83.0801c-22.8203 22.9102 -59.9502 22.9102 -82.7705 0l-105.27 -105.66l-33.9707 34.0996l-29.6699 -29.7695l150.67 -151.24l29.6699 29.7803l-33.9297 34.0596z" />
    <glyph glyph-name="paint-brush" unicode="&#xf1fc;" 
d="M455.59 448c29.2998 0 56.4102 -21.5195 56.4102 -51.6602c0 -16.8203 -6.7998 -32.9902 -14.4902 -47.96c-109.3 -203.979 -149.55 -259.479 -206.45 -266.49c7.66016 -58.1396 -27.8799 -145.89 -145.06 -145.89c-102.74 0 -146 82.5498 -146 176.5
c11.1699 -7.62988 50.3496 -39.1904 63.0195 -39.1904c7.52051 0 13.9609 4.30078 16.6406 11.3809c21.7295 57.2695 58.7998 76.3594 100.32 81.3193c-10.2109 65.4902 15.75 70.1699 233.68 264.84c11.3096 10.1602 26.1201 17.1504 41.9297 17.1504zM236.52 2.4502
c20.6504 23.5498 25.9307 51.6201 21.9004 82.2998l-65.0801 50.6201c-67.71 -8.08984 -77.1094 -44.5205 -83.7598 -62.04c-7.36035 -19.4502 -25.6396 -32.0303 -46.5605 -32.0303c-6.78906 0 -13.75 1.74023 -21.7695 5.39062
c12.46 -39.8604 40.9697 -78.6904 104.75 -78.6904c40.0195 0 70.4697 11.5898 90.5195 34.4502zM469.31 363.5c5.15039 10.0498 10.6904 22.2598 10.6904 32.8398c0 11.7598 -12.6201 19.6602 -24.4102 19.6602c-6.72949 0 -14.21 -3.25977 -20.54 -8.9502
c-236.62 -211.359 -230.62 -190.21 -221.819 -246.64l62 -48.2197c50.3896 6.19922 75.6797 30.3496 194.079 251.31z" />
    <glyph glyph-name="bus" unicode="&#xf207;" 
d="M128 64c-17.6699 0 -32 14.3301 -32 32s14.3301 32 32 32s32 -14.3301 32 -32s-14.3301 -32 -32 -32zM384 64c-17.6699 0 -32 14.3301 -32 32s14.3301 32 32 32s32 -14.3301 32 -32s-14.3301 -32 -32 -32zM488 320c13.25 0 24 -10.7402 24 -24v-80
c0 -13.25 -10.75 -24 -24 -24h-8v-160c0 -17.6699 -14.3301 -32 -32 -32v-32c0 -17.6699 -14.3301 -32 -32 -32h-48c-17.6699 0 -32 14.3301 -32 32v32h-160v-32c0 -17.6699 -14.3301 -32 -32 -32h-48c-17.6699 0 -32 14.3301 -32 32v32c-17.6699 0 -32 14.3301 -32 32v160
h-8c-13.25 0 -24 10.75 -24 24v80c0 13.2598 10.75 24 24 24h8v48c0 44.7998 99.2002 80 224 80s224 -35.2002 224 -80v-48h8zM144 -32v32h-48v-32h48zM416 -32v32h-48v-32h48zM448 32l0.00976562 128h-384.02l0.00976562 -128h384zM448.01 192l0.0205078 128h-384.05
l0.00976562 -128h384.02zM448.03 352v15.6904c-3.33984 13.3096 -67.4404 48.3096 -192.03 48.3096s-188.69 -35 -192.03 -48.3096v-15.6904h384.061z" />
    <glyph glyph-name="bed" unicode="&#xf236;" horiz-adv-x="640" 
d="M144 128c-44.1104 0 -80 35.8896 -80 80s35.8896 80 80 80s80 -35.8896 80 -80s-35.8896 -80 -80 -80zM144 256c-26.4697 0 -48 -21.5303 -48 -48s21.5303 -48 48 -48s48 21.5303 48 48s-21.5303 48 -48 48zM528 288c61.8604 0 112 -50.1396 112 -112v-168
c0 -4.41992 -3.58008 -8 -8 -8h-16c-4.41992 0 -8 3.58008 -8 8v56h-576v-56c0 -4.41992 -3.58008 -8 -8 -8h-16c-4.41992 0 -8 3.58008 -8 8v368c0 4.41992 3.58008 8 8 8h16c4.41992 0 8 -3.58008 8 -8v-280h224v176c0 8.83984 7.16016 16 16 16h256zM608 96v80
c0 44.1104 -35.8896 80 -80 80h-240v-160h320z" />
    <glyph glyph-name="map" unicode="&#xf279;" horiz-adv-x="576" 
d="M560.02 416c8.4502 0 15.9805 -6.83008 15.9805 -16.0195v-346.32c0 -13.4707 -8.32422 -24.9951 -20.1201 -29.71l-151.83 -52.8105c-6.23242 -2.02832 -12.9023 -3.12305 -19.8076 -3.12305c-7.07324 0 -13.8799 1.15039 -20.2422 3.27344l-172 60.71l-170.05 -62.8398
c-1.99023 -0.790039 -4 -1.16016 -5.95996 -1.16016c-8.45996 0 -15.9902 6.83008 -15.9902 16.0195v346.32c0.00292969 13.4697 8.32617 24.9932 20.1201 29.71l151.83 52.8105c6.43945 2.08984 13.1201 3.13965 19.8096 3.13965
c7.06641 -0.00292969 13.8789 -1.16602 20.2402 -3.28027l172 -60.7197h0.00976562l170.05 62.8398c1.98047 0.790039 4 1.16016 5.95996 1.16016zM30.6299 329.82l1.28027 -322.87l144.09 53.25v320.189zM208 60.29l160 -56.4805v319.91l-160 56.4805v-319.91zM400 3.61035
l145.37 50.5801l-1.28027 322.869l-144.09 -53.2598v-320.189z" />
    <glyph glyph-name="pen" unicode="&#xf304;" 
d="M493.25 391.74c25 -24.9902 25 -65.5098 0.00976562 -90.5l-352.479 -352.48l-114.141 -12.6094c-0.90918 -0.100586 -1.7998 -0.150391 -2.68945 -0.150391c-14.0703 0 -25.4004 12.2803 -23.7998 26.6602l12.6992 114.22l352.381 352.38
c12.5 12.4902 28.8799 18.7402 45.2598 18.7402s32.7598 -6.25 45.25 -18.75zM126.09 -20.6797l263.99 263.979l-82.7705 82.7705l-263.89 -263.891l-10.3604 -93.1699zM470.63 323.86c12.4697 12.4795 12.4697 32.7793 0 45.2598l-37.5098 37.5098
c-6.0498 6.04004 -14.0801 9.37012 -22.6299 9.37012s-16.5898 -3.33008 -22.6299 -9.37012l-57.9307 -57.9297l82.7705 -82.7705z" />
    <glyph glyph-name="pen-alt" unicode="&#xf305;" 
d="M493.25 391.74c25 -24.9902 25 -65.5098 0.00976562 -90.5098l-271.279 -271.28c-86.9707 -86.96 -192.301 -93.9502 -198.03 -93.9502c-14.0703 0 -25.4004 12.2803 -23.8105 26.6504l0.0302734 0.229492c8.41895 75.6807 42.6758 143.984 93.7803 195.09l180.77 180.78
l-22.6201 22.6201l-130.109 -130.11c-3.12012 -3.12012 -8.19043 -3.12012 -11.3105 0l-11.3096 11.3105c-3.12012 3.12012 -3.12012 8.18945 0 11.3096l130.12 130.12c12.4902 12.5 32.75 12.5 45.25 0l22.6201 -22.6201l67.8799 67.8799
c12.4902 12.4902 28.8701 18.7402 45.25 18.7402c16.3701 0 32.75 -6.25 45.25 -18.75zM199.35 52.5801l180.79 180.78l-82.7598 82.7598l-0.00976562 -0.00976562l-0.00976562 0.00976562l-180.771 -180.771c-44.8398 -44.8398 -74.21 -103.52 -83.3398 -166.159
c62.1699 8.97949 121.1 38.3896 166.1 83.3896zM470.63 323.86c12.5098 12.5195 12.5 32.7598 -0.00976562 45.2598l-37.5098 37.5098c-12.5107 12.5098 -32.75 12.5 -45.25 0l-67.8799 -67.8799l82.7695 -82.7695z" />
    <glyph glyph-name="feather" unicode="&#xf52d;" 
d="M467.11 403.11c62.5498 -62.5508 64.8398 -161.66 -25.7607 -252.271l-85.7393 -85.7402c-50.0801 -50.0801 -120.931 -65.5596 -178.11 -65.5596c-33.4404 0 -62.0303 5.32031 -79.2305 12.0801l-70.9297 -70.9297
c-3.12012 -3.13086 -7.21973 -4.69043 -11.3203 -4.69043c-9.14941 0 -16.0195 7.48047 -16.0195 16.0195c0 0.00683594 -0.00195312 0.0146484 -0.00195312 0.0205078c0 4.41309 1.79395 8.40918 4.69238 11.2998l70.8799 70.8701
c-18.29 46.7002 -25.7803 178.08 53.54 257.4l85.7393 85.7393c48.8008 48.8008 100.061 70.6504 146.761 70.6504c40 0 76.6396 -16.0303 105.5 -44.8896zM151.76 268.96c-63.8701 -63.8604 -60.4697 -165.79 -50.5693 -209.12l223.819 223.82
c6.25977 6.25977 16.3906 6.25977 22.6504 0s6.25977 -16.3906 0 -22.6504l-37.2402 -37.2402h147.17c32.6201 56.5908 29.1904 114.37 -13.1299 156.69c-23.2295 23.2305 -51.8799 35.5098 -82.8496 35.5098c-41.1104 0 -84.0303 -21.1895 -124.11 -61.2695zM177.5 31.5801
c37.0801 0 106.58 7.2998 155.46 56.1797l7.99023 7.99023l-158.19 0.370117l-58.75 -58.75c12.5205 -3 30.1904 -5.79004 53.4902 -5.79004zM372.88 127.67c0 0 56.7402 57.9502 61.8506 64.0703h-156.341l-64.0693 -64.0703h158.56z" />
    <glyph glyph-name="archway" unicode="&#xf557;" horiz-adv-x="576" 
d="M568 416h-24v-448h24c4.40039 0 8 -3.59961 8 -8v-16c0 -4.40039 -3.59961 -8 -8 -8h-167.98c-8.83984 0 -16 7.16016 -16 16l-0.0195312 16v160c0 52.9404 -43.0596 96 -96 96s-96 -43.0596 -96 -96v-176c0 -8.83984 -7.16016 -16 -16 -16h-168
c-4.40039 0 -8 3.59961 -8 8v16c0 4.40039 3.59961 8 8 8h24v448h-24c-4.40039 0 -8 3.59961 -8 8v16c0 4.40039 3.59961 8 8 8h560c4.40039 0 8 -3.59961 8 -8v-16c0 -4.40039 -3.59961 -8 -8 -8zM512 -32v352h-448v-352h96v160c0 70.5801 57.4102 128 128 128
s128 -57.4199 128 -128v-160h96zM512 352v64h-448v-64h448z" />
    <glyph glyph-name="atlas" unicode="&#xf558;" horiz-adv-x="448" 
d="M448 56c0 -10 -6.2002 -18.5996 -14.9004 -22.2002c-3.59961 -16.0996 -4.39941 -45.5996 -0.399414 -65.7998h3.2998c6.59961 0 12 -5.40039 12 -12v-8c0 -6.59961 -5.40039 -12 -12 -12h-372c-35.3496 0 -64 28.6504 -64 64v368c0 44.2002 35.7998 80 80 80h344
c13.2998 0 24 -10.7002 24 -24v-368zM404.3 -32c-3.09961 20.4004 -2.89941 45.2002 0 64h-340.3c-17.6699 0 -32 -14.3301 -32 -32s14.3301 -32 32 -32h340.3zM416 64v352h-336c-26.5 0 -48 -21.5 -48 -48v-312.88c9.4502 5.5 20.2803 8.87988 32 8.87988h352zM224 112
c-70.6904 0 -128 57.3096 -128 128s57.3096 128 128 128s128 -57.3096 128 -128s-57.3096 -128 -128 -128zM318.38 256c-5.28027 31.2197 -25.5898 57.1699 -53.2998 70.4102c7.66992 -19.0605 12.7197 -43.3799 14.21 -70.4102h39.0898zM279.29 224
c-1.49023 -27.0303 -6.53027 -51.3496 -14.21 -70.4102c27.71 13.2402 48.0098 39.1904 53.2998 70.4102h-39.0898zM224 334.69c-7.69043 -7.4502 -20.7695 -34.4307 -23.4404 -78.6904h46.8701c-2.66016 44.2695 -15.7393 71.2402 -23.4297 78.6904zM247.43 224h-46.8594
c2.66016 -44.2695 15.7393 -71.2402 23.4297 -78.6904c7.69043 7.4502 20.7695 34.4307 23.4297 78.6904zM182.92 326.41c-27.71 -13.2402 -48.0195 -39.1904 -53.2998 -70.4102h39.0898c1.49023 27.0303 6.53027 51.3496 14.21 70.4102zM168.71 224h-39.0898
c5.28027 -31.2197 25.5898 -57.1699 53.2998 -70.4102c-7.66992 19.0605 -12.7197 43.3799 -14.21 70.4102z" />
    <glyph glyph-name="backspace" unicode="&#xf55a;" horiz-adv-x="640" 
d="M469.66 266.35c1.44629 -1.4502 2.34082 -3.45312 2.34082 -5.66113s-0.894531 -4.20801 -2.34082 -5.6582l-63.0303 -63.0303l63.0205 -63.04c3.11914 -3.12012 3.11914 -8.19043 0 -11.3096l-11.3105 -11.3105c-3.12012 -3.12012 -8.18945 -3.12012 -11.3096 0
l-63.0303 63.0303l-63.0303 -63.0205c-3.12012 -3.11914 -8.18945 -3.11914 -11.3096 0l-11.3105 11.3105c-3.11914 3.12012 -3.11914 8.18945 0 11.3096l63.0303 63.0303l-63.0303 63.04c-3.11914 3.12012 -3.11914 8.19043 0 11.3096l11.3105 11.3105
c3.12012 3.12012 8.18945 3.12012 11.3096 0l63.0303 -63.0303l63.04 63.0303c3.12012 3.12012 8.19043 3.12012 11.3096 0zM576 384c35.3496 0 64 -28.6504 64 -64v-256c0 -35.3496 -28.6504 -64 -64 -64h-370.75c-16.9697 0 -33.25 6.75 -45.25 18.75l-150.63 150.63
c-12.5 12.4902 -12.5 32.75 0 45.25l150.63 150.63c12 12 28.2803 18.7402 45.2598 18.7402h370.74zM608 64v256c0 17.6396 -14.3604 32 -32 32h-370.74c-8.5498 0 -16.5898 -3.33008 -22.6299 -9.37012l-150.63 -150.63l150.63 -150.63
c6.0498 -6.04004 14.0801 -9.37012 22.6299 -9.37012h370.74c17.6396 0 32 14.3604 32 32z" />
    <glyph glyph-name="bezier-curve" unicode="&#xf55b;" horiz-adv-x="640" 
d="M576 272c-29.79 0 -54.5996 20.4404 -61.7305 48h-112.81c80.6104 -31.5098 135.14 -105.79 141.271 -192h33.2695c17.6699 0 32 -14.3301 32 -32v-96c0 -17.6699 -14.3301 -32 -32 -32h-96c-17.6699 0 -32 14.3301 -32 32v96c0 17.6699 14.3301 32 32 32h30.7305
c-5.76074 69.4102 -48.0605 129.53 -111.08 158.25c-0.959961 -16.8096 -14.6006 -30.25 -31.6504 -30.25h-96c-17.0498 0 -30.6904 13.4404 -31.6504 30.25c-63.0195 -28.71 -105.319 -88.8398 -111.08 -158.25h30.7305c17.6699 0 32 -14.3301 32 -32v-96
c0 -17.6699 -14.3301 -32 -32 -32h-96c-17.6699 0 -32 14.3301 -32 32v96c0 17.6699 14.3301 32 32 32h33.2803c6.13965 86.21 60.6602 160.49 141.27 192h-112.81c-7.14062 -27.5596 -31.9502 -48 -61.7402 -48c-35.3496 0 -64 28.6504 -64 64s28.6504 64 64 64
c29.79 0 54.5996 -20.4404 61.7402 -48h114.26v32c0 17.6699 14.3301 32 32 32h96c17.6699 0 32 -14.3301 32 -32v-32h114.26c7.14062 27.5596 31.9502 48 61.7402 48c35.3496 0 64 -28.6504 64 -64s-28.6504 -64 -64 -64zM160 0v96h-96v-96h96zM64 304
c17.6396 0 32 14.3604 32 32s-14.3604 32 -32 32s-32 -14.3604 -32 -32s14.3604 -32 32 -32zM368 288v96h-96v-96h96zM576 0v96h-96v-96h96zM576 368c-17.6396 0 -32 -14.3604 -32 -32s14.3604 -32 32 -32s32 14.3604 32 32s-14.3604 32 -32 32z" />
    <glyph glyph-name="bong" unicode="&#xf55c;" horiz-adv-x="448" 
d="M445.66 223.43c1.44531 -1.44629 2.33984 -3.44629 2.33984 -5.65039c0 -2.20996 -0.898438 -4.21191 -2.34961 -5.65918l-11.3105 -11.3105c-3.12012 -3.11914 -8.18945 -3.11914 -11.3096 0l-19.7998 19.8008l-51.2607 -51.2607
c20.04 -30.2695 32.0303 -66.3096 32.0303 -105.35c0 -43.7998 -14.79 -84.0703 -39.5303 -116.35c-5.81934 -7.61035 -15.21 -11.6504 -24.79 -11.6504h-255.37c-9.5791 0 -18.9697 4.04004 -24.79 11.6504c-24.7197 32.2793 -39.5195 72.54 -39.5195 116.35
c0 71.0303 38.6699 132.89 96 166.1v185.9h-24c-4.41992 0 -8 3.58008 -8 8v16c0 4.41992 3.58008 8 8 8h240.01c4.41992 0 8 -3.58008 8 -8v-16c0 -4.41992 -3.58008 -8 -8 -8h-24v-185.89c16.46 -9.53027 31.1299 -21.6504 44.04 -35.4404l48.5703 48.5703
l-19.7998 19.7998c-3.12012 3.12012 -3.12012 8.19043 0 11.3096l11.3096 11.3105c3.12012 3.12012 8.19043 3.12012 11.3105 0zM112.04 202.41c-29.9297 -17.3301 -52.8301 -43.7197 -66.3496 -74.4004h292.619c-13.5195 30.6807 -36.4199 57.0703 -66.3496 74.4102
l-15.96 9.24023v204.34h-128v-204.35zM319.69 -32c20.9297 27.2305 32.3096 60.7305 32.3193 96c0 10.8799 -1.45996 21.54 -3.62988 32h-312.75c-2.16992 -10.46 -3.62988 -21.1201 -3.62988 -32c0 -35.2598 11.3799 -68.7695 32.9297 -96.8896z" />
    <glyph glyph-name="brush" unicode="&#xf55d;" horiz-adv-x="384" 
d="M352 448c17.6699 0 32 -14.3301 32 -32v-288c0 -35.3496 -28.6602 -64 -64 -64h-64v-64c0 -35.3496 -28.6602 -64 -64 -64s-64 28.6504 -64 64v64h-64c-35.3398 0 -64 28.6504 -64 64v288c0 17.6699 14.3301 32 32 32h320zM352 128v32h-320v-32
c0 -17.6396 14.3604 -32 32 -32h96v-96c0 -17.6396 14.3604 -32 32 -32s32 14.3604 32 32v96h96c17.6396 0 32 14.3604 32 32zM352 192v224h-320v-224h320z" />
    <glyph glyph-name="bus-alt" unicode="&#xf55e;" 
d="M384 64c-17.6699 0 -32 14.3301 -32 32s14.3301 32 32 32s32 -14.3301 32 -32s-14.3301 -32 -32 -32zM128 64c-17.6699 0 -32 14.3301 -32 32s14.3301 32 32 32s32 -14.3301 32 -32s-14.3301 -32 -32 -32zM488 320c13.25 0 24 -10.7402 24 -24v-80
c0 -13.25 -10.75 -24 -24 -24h-8v-160c0 -17.6699 -14.3301 -32 -32 -32v-32c0 -17.6699 -14.3301 -32 -32 -32h-48c-17.6699 0 -32 14.3301 -32 32v32h-160v-32c0 -17.6699 -14.3301 -32 -32 -32h-48c-17.6699 0 -32 14.3301 -32 32v32c-17.6699 0 -32 14.3301 -32 32v160
h-8c-13.25 0 -24 10.75 -24 24v80c0 13.2598 10.75 24 24 24h8v48c0 44.7998 99.2002 80 224 80s224 -35.2002 224 -80v-48h8zM63.9697 320l0.0205078 -128h176.01v128h-176.03zM144 -32v32h-48v-32h48zM416 -32v32h-48v-32h48zM448 32l0.00976562 128h-384.02
l0.00976562 -128h384zM448.01 192l0.0205078 128h-176.03v-128h176.01zM448.03 352v15.6904c-3.33984 13.3096 -67.4404 48.3096 -192.03 48.3096s-188.69 -35 -192.03 -48.3096v-15.6904h128.03v8c0 13.2598 10.75 24 24 24h80c13.25 0 24 -10.7402 24 -24v-8h128.03z" />
    <glyph glyph-name="cannabis" unicode="&#xf55f;" 
d="M494.42 124.57c10.7705 -5.44043 17.5498 -16.4902 17.5605 -28.5605c0.00976562 -12.0693 -6.77051 -23.1201 -17.54 -28.5693c-2.31055 -1.16016 -54.4209 -27.1807 -120.971 -29.8906c2.85059 -6.83984 4.26074 -11.0596 4.41016 -11.5098
c1.04688 -3.16113 1.62402 -6.55176 1.62402 -10.0625c0 -8.65332 -3.44336 -16.5078 -9.03418 -22.2676c-6.10938 -6.30957 -14.4395 -9.71973 -22.9697 -9.71973c-3.04004 0 -6.11035 0.439453 -9.12012 1.33008c-1.64941 0.5 -31.4502 9.5498 -66.3896 30.71v-72.0303
c0 -4.41992 -3.58008 -8 -8 -8h-16c-4.41992 0 -8 3.58008 -8 8v72.04c-34.9307 -21.1602 -64.7305 -30.2197 -66.3906 -30.71c-3.00977 -0.900391 -6.08008 -1.33008 -9.11914 -1.33008c-17.6611 0 -31.9922 14.3428 -31.9922 32.0039
c0 3.50879 0.566406 6.88574 1.61133 10.0459c0.150391 0.450195 1.57031 4.66992 4.41016 11.5098c-66.5498 2.7002 -118.67 28.7207 -120.97 29.8906c-10.4219 5.28027 -17.54 16.0762 -17.54 28.5488v0.0205078c0.0107422 12.4844 7.1543 23.2871 17.5996 28.5508
c1.19043 0.599609 19.5908 9.7793 47.96 17.8301c-48.2998 64.25 -63.9492 129.699 -64.7197 133.04c-0.541016 2.33008 -0.831055 4.74512 -0.831055 7.23828c0 8.70898 3.4873 16.6104 9.1416 22.3809c6.08008 6.20996 14.3496 9.61035 22.8594 9.61035
c2.19043 0 4.40039 -0.229492 6.58984 -0.689453c3.34082 -0.700195 66.3105 -14.3506 130.681 -55.9707c8.58008 97.79 57.8496 172.391 60.1396 175.8c5.94043 8.87012 15.9102 14.1904 26.5801 14.1904s20.6396 -5.32031 26.5996 -14.1904
c2.28027 -3.40918 51.5508 -78 60.1406 -175.8c64.3701 41.6201 127.34 55.2705 130.68 55.9707c2.19043 0.459961 4.40039 0.689453 6.58984 0.689453c8.95117 0 17.0508 -3.67773 22.8604 -9.61035c5.6543 -5.76855 9.1377 -13.6562 9.1377 -22.3643
c0 -2.49512 -0.286133 -4.92383 -0.828125 -7.25488c-0.779297 -3.34082 -16.4199 -68.8008 -64.7197 -133.04c28.3604 -8.05078 46.7598 -17.2305 47.96 -17.8301zM362.4 69.3398c64.9492 0 117.6 26.6602 117.6 26.6602s-40.9502 20.6699 -95.1299 25.5898
c0.849609 0.799805 1.57031 1.36035 2.42969 2.17969c71.6807 68.2607 92.7002 158.9 92.7002 158.9s-95.1797 -20.0195 -166.85 -88.29c-0.930664 -0.889648 -1.57031 -1.62988 -2.48047 -2.50977c0.849609 11.2803 1.33008 23.6699 1.33008 37.46
c0 103.1 -56 186.67 -56 186.67s-56 -83.5703 -56 -186.66c0 -13.79 0.480469 -26.1797 1.33008 -37.46c-0.910156 0.879883 -1.5498 1.62012 -2.48047 2.50977c-71.6699 68.2607 -166.85 88.2803 -166.85 88.2803s21.0195 -90.6504 92.7002 -158.91
c0.859375 -0.819336 1.58008 -1.37988 2.42969 -2.17969c-54.1797 -4.91016 -95.1299 -25.5801 -95.1299 -25.5801s52.6504 -26.6602 117.6 -26.6602c17.3301 0 31.1904 0.890625 42.4902 2.41992c0.219727 -0.120117 0.400391 -0.160156 0.620117 -0.279297
c-19.7998 -30.0107 -28.2295 -55.4805 -28.2295 -55.4805s48.0791 14.2998 91.5195 50.5c43.4404 -36.2002 91.5195 -50.5 91.5195 -50.5s-8.42969 25.4697 -28.2295 55.4805c0.219727 0.119141 0.400391 0.15918 0.620117 0.279297
c11.2998 -1.51953 25.1602 -2.41992 42.4902 -2.41992z" />
    <glyph glyph-name="concierge-bell" unicode="&#xf562;" 
d="M504 32c4.41992 0 8 -3.58008 8 -8v-16c0 -4.41992 -3.58008 -8 -8 -8h-496c-4.41992 0 -8 3.58008 -8 8v16c0 4.41992 3.58008 8 8 8h24v64c0 118.31 91.79 214.96 208 223.19v32.8096h-40c-4.41992 0 -8 3.58008 -8 8v16c0 4.41992 3.58008 8 8 8h112
c4.41992 0 8 -3.58008 8 -8v-16c0 -4.41992 -3.58008 -8 -8 -8h-40v-32.8096c116.21 -8.23047 208 -104.881 208 -223.19v-64h24zM448 32v64c0 100.17 -78.2998 184.19 -178.26 191.27c-17.1504 1.21094 -10.6104 1.19043 -27.4805 0
c-99.96 -7.0791 -178.26 -91.0996 -178.26 -191.27v-64h384z" />
    <glyph glyph-name="cookie" unicode="&#xf563;" 
d="M352 120c13.25 0 24 -10.7402 24 -24c0 -13.25 -10.75 -24 -24 -24s-24 10.75 -24 24c0 13.2598 10.75 24 24 24zM344 320c0 -13.25 -10.75 -24 -24 -24s-24 10.75 -24 24c0 13.2598 10.75 24 24 24s24 -10.7402 24 -24zM184 256c0 -13.25 -10.75 -24 -24 -24
s-24 10.75 -24 24c0 13.2598 10.75 24 24 24s24 -10.7402 24 -24zM192 120c13.25 0 24 -10.7402 24 -24c0 -13.25 -10.75 -24 -24 -24s-24 10.75 -24 24c0 13.2598 10.75 24 24 24zM288 216c13.25 0 24 -10.7402 24 -24c0 -13.25 -10.75 -24 -24 -24s-24 10.75 -24 24
c0 13.2598 10.75 24 24 24zM510.37 193.21c1.07715 -6.79883 1.55371 -13.7725 1.55371 -20.8721c0 -21.6123 -5.18359 -42.0244 -14.374 -60.0576l-35.0996 -68.8701c-12.7021 -24.9277 -32.8652 -45.0938 -57.79 -57.7998l-69.1201 -35.21
c-18.6299 -9.5 -39.1602 -14.3809 -59.8799 -14.3809c-6.87988 0 -13.7705 0.530273 -20.6299 1.62012l-76.7002 12.1406c-28.1211 4.45801 -53.4453 17.7891 -72.71 37.0498l-54.7598 54.75c-19.3223 19.3281 -32.6934 44.7363 -37.1602 72.9502l-12.0801 76.2695
c-1.07715 6.79883 -1.55371 13.7734 -1.55371 20.873c0 21.6152 5.18359 42.0303 14.374 60.0674l35.0996 68.8701c12.6992 24.9287 32.8633 45.0957 57.79 57.7998l69.1201 35.21c18.6396 9.5 39.1699 14.3799 59.8896 14.3799
c6.87988 0 13.7705 -0.540039 20.6201 -1.62988l76.7002 -12.1504c27.5303 -4.34961 52.9795 -17.3301 72.71 -37.0498l54.7598 -54.75c19.3213 -19.3281 32.6924 -44.7363 37.1602 -72.9502zM469.04 126.8c9.7002 19.04 13.0703 40.2803 9.71973 61.4004l-12.0801 76.2598
c-3.33984 21.1104 -13.0898 40.2402 -28.1797 55.3301l-54.7598 54.75c-15.04 15.0498 -34.0898 24.7598 -55.0801 28.0801l-76.7002 12.1494c-5.15039 0.820312 -10.4102 1.23047 -15.6201 1.23047c-15.6895 0 -31.3701 -3.76953 -45.3594 -10.8896l-69.1201 -35.21
c-18.9707 -9.66992 -34.1201 -24.8203 -43.8008 -43.8203l-35.0996 -68.8799c-9.7002 -19.04 -13.0703 -40.2803 -9.71973 -61.4004l12.0801 -76.2598c3.33984 -21.1104 13.0898 -40.2402 28.1797 -55.3301l54.75 -54.7598c15.0498 -15.04 34.0996 -24.75 55.0898 -28.0801
l76.6904 -12.1396c5.16016 -0.820312 10.4199 -1.23047 15.6299 -1.23047c15.6895 0 31.3799 3.75977 45.3594 10.8896l69.1201 35.21c18.9707 9.66992 34.1201 24.8203 43.8008 43.8203z" />
    <glyph glyph-name="cookie-bite" unicode="&#xf564;" 
d="M352 120c13.25 0 24 -10.7402 24 -24c0 -13.25 -10.75 -24 -24 -24s-24 10.75 -24 24c0 13.2598 10.75 24 24 24zM184 256c0 -13.25 -10.75 -24 -24 -24s-24 10.75 -24 24c0 13.2598 10.75 24 24 24s24 -10.7402 24 -24zM192 120c13.25 0 24 -10.7402 24 -24
c0 -13.25 -10.75 -24 -24 -24s-24 10.75 -24 24c0 13.2598 10.75 24 24 24zM288 216c13.25 0 24 -10.7402 24 -24c0 -13.25 -10.75 -24 -24 -24s-24 10.75 -24 24c0 13.2598 10.75 24 24 24zM510.52 192.18c4.10059 -27.3301 -0.349609 -55.2695 -12.9092 -79.8994
l-35.1006 -68.8799c-12.6963 -24.9346 -32.8604 -45.1055 -57.79 -57.8105l-69.1299 -35.2197c-18.6396 -9.5 -39.1699 -14.3799 -59.8896 -14.3799c-6.87988 0 -13.7803 0.529297 -20.6406 1.62012l-76.71 12.1396c-28.123 4.45703 -53.4482 17.793 -72.71 37.0596
l-54.7695 54.7607c-19.3203 19.333 -32.6904 44.7441 -37.1602 72.96l-12.0801 76.2793c-1.07617 6.7998 -1.55273 13.7734 -1.55273 20.874c0 21.6182 5.18262 42.0361 14.373 60.0762l35.0996 68.8799c12.6963 24.9346 32.8613 45.1055 57.79 57.8105l69.1299 35.2197
c18.6104 9.48047 39.1104 14.3301 59.79 14.3301c6.64062 0 13.3105 -0.5 19.9307 -1.50977c0.859375 -69.96 57.6895 -126.45 127.859 -126.45c0 -70.1699 56.5 -127.01 126.47 -127.86zM469.1 126.82c5.89062 11.54 9.43066 23.9492 10.5303 36.6797
c-63.1602 13.1396 -112.96 63.8301 -124.87 127.25c-63.4102 11.9102 -114.1 61.71 -127.25 124.86c-12.71 -1.12988 -25.1797 -4.69043 -36.5098 -10.46l-69.1201 -35.2305c-18.9795 -9.66992 -34.1299 -24.8203 -43.8096 -43.8203l-35.1006 -68.8799
c-9.7002 -19.0498 -13.0693 -40.29 -9.71973 -61.4102l12.0801 -76.2695c3.33984 -21.0996 13.0801 -40.2402 28.1797 -55.3301l54.7705 -54.7598c15.04 -15.04 34.0898 -24.75 55.0898 -28.0801l76.7002 -12.1396c5.16016 -0.820312 10.4199 -1.23047 15.6299 -1.23047
c15.6895 0 31.3799 3.76953 45.3594 10.8896l69.1309 35.2207c18.9795 9.66992 34.1299 24.8193 43.8096 43.8193z" />
    <glyph glyph-name="crop-alt" unicode="&#xf565;" 
d="M488 128c13.25 0 24 -10.7402 24 -24v-48c0 -13.25 -10.75 -24 -24 -24h-72v-72c0 -13.25 -10.75 -24 -24 -24h-48c-13.25 0 -24 10.75 -24 24v72h-192c-17.6699 0 -32 14.3301 -32 32v192h-72c-13.25 0 -24 10.75 -24 24v48c0 13.2598 10.75 24 24 24h72v72
c0 13.2598 10.75 24 24 24h48c13.25 0 24 -10.7402 24 -24v-72h192c17.6699 0 32 -14.3301 32 -32v-192h72zM96 288v32h-64v-32h64zM320 64v32h-160v320h-32v-352h192zM320 128v128h-128v-128h128zM384 -32v352h-192v-32h160v-320h32zM480 64v32h-64v-32h64z" />
    <glyph glyph-name="digital-tachograph" unicode="&#xf566;" horiz-adv-x="640" 
d="M608 352c17.6699 0 32 -14.3301 32 -32v-256c0 -17.6699 -14.3301 -32 -32 -32h-576c-17.6699 0 -32 14.3301 -32 32v256c0 17.6699 14.3301 32 32 32h576zM608 64v256h-576v-256h576zM80 176c-8.83984 0 -16 7.16016 -16 16v80c0 8.83984 7.16016 16 16 16h208
c8.83984 0 16 -7.16016 16 -16v-80c0 -8.83984 -7.16016 -16 -16 -16h-208zM88 264v-64h192v64h-192zM72 88c-4.41992 0 -8 3.58008 -8 8v8c0 4.41992 3.58008 8 8 8h224c4.41992 0 8 -3.58008 8 -8v-8c0 -4.41992 -3.58008 -8 -8 -8h-224zM344 88
c-4.41992 0 -8 3.58008 -8 8v8c0 4.41992 3.58008 8 8 8h224c4.41992 0 8 -3.58008 8 -8v-8c0 -4.41992 -3.58008 -8 -8 -8h-224zM80 160h16c4.41992 0 8 -3.58008 8 -8v-16c0 -4.41992 -3.58008 -8 -8 -8h-16c-4.41992 0 -8 3.58008 -8 8v16c0 4.41992 3.58008 8 8 8z
M144 160h16c4.41992 0 8 -3.58008 8 -8v-16c0 -4.41992 -3.58008 -8 -8 -8h-16c-4.41992 0 -8 3.58008 -8 8v16c0 4.41992 3.58008 8 8 8zM208 160h16c4.41992 0 8 -3.58008 8 -8v-16c0 -4.41992 -3.58008 -8 -8 -8h-16c-4.41992 0 -8 3.58008 -8 8v16
c0 4.41992 3.58008 8 8 8zM272 160h16c4.41992 0 8 -3.58008 8 -8v-16c0 -4.41992 -3.58008 -8 -8 -8h-16c-4.41992 0 -8 3.58008 -8 8v16c0 4.41992 3.58008 8 8 8z" />
    <glyph glyph-name="drafting-compass" unicode="&#xf568;" 
d="M433.86 143.69l78.1396 -135.351l-7.01953 -58.25c-1 -8.34961 -8.11035 -14.0996 -15.8809 -14.0996c-2.08984 0 -4.21973 0.419922 -6.29004 1.2998l-53.9492 23.04l-77.9805 135.06c-29.3604 -10.6992 -60.5596 -16.8193 -92.6299 -16.8193
c-33.4297 0 -65.8896 6.62012 -96.2598 18.3301l-78.8506 -136.57l-53.9492 -23.04c-2.08008 -0.889648 -4.20996 -1.2998 -6.29004 -1.2998c-7.77051 0 -14.8701 5.75 -15.8809 14.0996l-7.01953 58.25l79.9004 138.38c-20.2402 17.54 -38.5703 37.4707 -53 60.7607
c-2.38086 3.83984 -1.01074 8.94922 2.88965 11.21l13.8604 8.0293c3.72949 2.16992 8.40918 0.890625 10.6895 -2.76953c11.5605 -18.5703 25.96 -34.7002 41.7705 -49.1406l75.9395 131.53c-7.43945 13.6299 -12.0498 29.0303 -12.0498 45.6602
c0 53.0195 42.9805 96 96 96s96 -42.9805 96 -96c0 -16.6299 -4.61035 -32.0303 -12.0498 -45.6504l77.71 -134.59c17.0195 15.1201 32.2197 32.4502 44.5098 52.2002c2.28027 3.66016 6.95996 4.92969 10.6904 2.77051l13.8594 -8.03027
c3.90039 -2.25977 5.27051 -7.37988 2.89062 -11.21c-15.1602 -24.46 -34.2803 -45.6299 -55.75 -63.7998zM392.11 152.01l-73.6699 127.61c-8.09082 -6.98047 -17.1709 -12.7705 -27.2803 -16.7598l73.2598 -126.891c9.58008 4.74023 18.8203 10.0703 27.6904 16.04z
M256 416c-35.3496 0 -64 -28.6504 -64 -64s28.6504 -64 64 -64s64 28.6504 64 64s-28.6504 64 -64 64zM60.7598 -14.4199l160.09 277.28c-10.1094 3.98926 -19.1895 9.7793 -27.2793 16.7598l-160.521 -278.04l3.19043 -26.4697zM258.25 110.59
c26.3604 0 51.9902 4.82031 76.3203 13.04l-76.54 132.57c-0.69043 -0.0205078 -1.33984 -0.209961 -2.04004 -0.209961s-1.33984 0.189453 -2.04004 0.209961l-75.8105 -131.311c25.3906 -9.18945 52.3799 -14.2998 80.1104 -14.2998zM475.76 -24.8896l3.19043 26.4697
l-70.8701 122.76c-8.91992 -5.89941 -18.1201 -11.2803 -27.6602 -16.0996l70.8203 -122.66z" />
    <glyph glyph-name="drum-steelpan" unicode="&#xf56a;" horiz-adv-x="576" 
d="M288 416c159.06 0 288 -57.3096 288 -128v-192c0 -70.6904 -128.94 -128 -288 -128s-288 57.3096 -288 128v192c0 70.6904 128.94 128 288 128zM288 384c-25.6797 0 -50.4297 -1.45996 -73.8203 -4.08984l15.4502 -60.0898
c4.50977 -17.5508 30.7002 -31.8203 58.3701 -31.8203s53.8604 14.2803 58.3701 31.8301l15.4502 60.0801c-23.3906 2.62988 -48.1406 4.08984 -73.8203 4.08984zM382.84 198.88c-20.1094 19.3301 -33.5195 44.9902 -37.1602 73.0703
c-16.21 -10.0801 -36.6602 -15.9502 -57.6797 -15.9502c-21.3398 0 -42.0498 6.08008 -58.3701 16.4404c-3.74023 -28.0303 -17.0498 -53.8203 -37.1201 -73.4707c29.5303 -4.4502 61.7002 -6.96973 95.4902 -6.96973c33.54 0 65.4902 2.48047 94.8398 6.87988z
M178.26 374.63c-86.3896 -15.4199 -146.26 -48.3604 -146.26 -86.6299c0 -34.0195 47.3203 -63.8398 118.5 -80.8799c37.0898 20.7598 56.7803 64.8096 44.7305 107.47zM544 96v133.54c-47.8096 -41.2705 -144.38 -69.54 -256 -69.54s-208.19 28.2695 -256 69.5303v-133.53
c0 -39.1396 99.7305 -96 256 -96s256 56.8604 256 96zM425.61 207.13c71.1094 17.0605 118.39 46.8701 118.39 80.8701c0 38.79 -61.4805 72.1299 -149.79 87.2695l-15.5596 -66.9795c-9.59082 -41.3203 10.9199 -82.4697 46.96 -101.16z" />
    <glyph glyph-name="feather-alt" unicode="&#xf56b;" 
d="M71.46 160.39c25.4102 249.41 388.82 284.051 440.54 287.61c-3.55957 -51.7197 -38.2002 -415.13 -287.61 -440.54c-42.0098 -4.84961 -84.2695 -7.25977 -126.56 -7.37988l-11.1602 -0.0302734l-59.3604 -59.3594
c-3.11914 -3.13086 -7.21973 -4.69043 -11.3096 -4.69043c-8.53027 0 -16 6.86035 -16 16c0 0.00878906 -0.00195312 0.0185547 -0.00195312 0.0273438c0 4.40723 1.79395 8.39844 4.69238 11.2822l59.3594 59.3604l0.0302734 11.1602
c0.110352 42.29 2.51953 84.5498 7.37988 126.56zM103.29 157.15c-3.87012 -33.5303 -5.7998 -67.6201 -6.5498 -101.79l227.95 227.949c6.23926 6.25 16.3691 6.24023 22.6191 0c6.25 -6.23926 6.25 -16.3691 0 -22.6191l-36.6895 -36.6904h117.78
c29.0693 70.2002 42.1592 143.77 47.8301 188.23c-101.25 -12.8906 -353.48 -64.0908 -372.94 -255.08zM214.62 128h158.729c15.5205 19.6904 29.0107 41.2695 40.3809 64h-135.11zM220.72 39.25c50.2207 5.12012 90.5801 26.5 123.34 56.75h-161.439l-63.2598 -63.2598
c34.1592 0.75 68.1992 2.67969 101.359 6.50977z" />
    <glyph glyph-name="fill" unicode="&#xf575;" 
d="M502.63 230.94c12.4902 -12.5 12.4902 -32.7607 0 -45.25l-221.57 -221.57c-18.75 -18.75 -43.3096 -28.1201 -67.8799 -28.1201c-24.5596 0 -49.1201 9.37988 -67.8701 28.1201l-117.189 117.189c-37.4902 37.4902 -37.4902 98.2607 0 135.75l106.1 106.101
l-99.8799 99.8701c-3.12012 3.12012 -3.12012 8.18945 0 11.3096l11.3203 11.3105c3.12012 3.11914 8.18945 3.11914 11.3096 0l99.8701 -99.8701l92.8506 92.8496c6.23926 6.25 14.4297 9.37012 22.6191 9.37012c8.19043 0 16.3809 -3.12012 22.6309 -9.37012z
M258.43 -13.2598l141.25 141.26h-363.85c3.13965 -8.91992 8.03027 -17.1797 14.9102 -24.0596l117.2 -117.2c12.0791 -12.0801 28.1494 -18.7402 45.2393 -18.7402s33.1602 6.66016 45.25 18.7402zM431.68 160l48.3203 48.3203l-207.69 207.68h-0.0195312
l-92.8301 -92.8398l87.8496 -87.8506c6.25 -6.23926 6.25 -16.3691 0 -22.6191c-6.23926 -6.25 -16.3691 -6.25 -22.6191 0l-87.8506 87.8496l-106.09 -106.11c-9.49023 -9.48926 -15.4902 -21.4697 -17.6904 -34.4297h398.62z" />
    <glyph glyph-name="fill-drip" unicode="&#xf576;" horiz-adv-x="576" 
d="M512 128c0 0 64 -92.6504 64 -128s-28.6602 -64 -64 -64s-64 28.6504 -64 64s64 128 64 128zM512 -32c17.6396 0 32 14.3604 32 32c-0.259766 9.78027 -13.5596 37.6504 -31.9902 68.6904c-18.4395 -31.0605 -31.75 -58.9502 -32.0098 -68.7305
c0 -17.5996 14.3604 -31.96 32 -31.96zM502.63 230.94c12.4902 -12.5 12.4902 -32.7607 -0.00976562 -45.2607l-221.57 -221.569c-18.7402 -18.75 -43.2998 -28.1201 -67.8701 -28.1201c-24.5596 0 -49.1201 9.37988 -67.8701 28.1201l-117.189 117.189
c-37.4902 37.4902 -37.4902 98.2598 0 135.75l106.1 106.101l-99.8799 99.8799c-3.12012 3.12012 -3.12012 8.18945 0 11.3096l11.3203 11.3105c3.12012 3.11914 8.18945 3.11914 11.3096 0l99.8701 -99.8701l92.8506 92.8496c6.23926 6.25 14.4297 9.37012 22.6191 9.37012
c8.19043 0 16.3809 -3.12012 22.6309 -9.37012zM258.43 -13.2598l141.25 141.26h-363.85c3.13965 -8.91992 8.03027 -17.1797 14.9102 -24.0596l117.2 -117.2c12.0791 -12.0801 28.1494 -18.7402 45.2393 -18.7402s33.1602 6.66016 45.25 18.7402zM431.68 160
l48.3203 48.3203l-207.69 207.68h-0.0195312l-92.8301 -92.8398l87.8496 -87.8506c6.25 -6.23926 6.25 -16.3691 0 -22.6191c-6.23926 -6.25 -16.3691 -6.25 -22.6191 0l-87.8506 87.8496l-106.09 -106.11c-9.49023 -9.48926 -15.4902 -21.4697 -17.6904 -34.4297h398.62z
" />
    <glyph glyph-name="fingerprint" unicode="&#xf577;" 
d="M256 278.08c54.1904 -0.799805 98.1299 -44.5605 99 -97.5605c0.780273 -52.3096 -3.08984 -104.71 -11.5596 -155.789c-1.28027 -7.84082 -8.06055 -13.3906 -15.75 -13.3906c-0.880859 0 -1.75 0.0605469 -2.66016 0.219727
c-8.7207 1.44043 -14.6006 9.6709 -13.1602 18.3906c8.14941 49.2002 11.8994 99.6895 11.1201 150.06c-0.560547 35.8701 -29.8506 65.5098 -66.9707 66.0605c-6.47949 0 -30.0898 -0.140625 -48.75 -18.8008c-11.8193 -11.8096 -18.1592 -27.5391 -17.9092 -44.3096
c0.80957 -52.5703 -4.12988 -105.18 -14.6904 -156.35c-1.82031 -8.66992 -10.4102 -14.1006 -18.9102 -12.4404c-8.62988 1.79004 -14.2197 10.25 -12.4102 18.9102c10.0908 48.8896 14.7803 99.1602 14 149.39c-0.40918 25.5 9.28027 49.4404 27.2803 67.4404
c18.5303 18.5498 43.0898 27.7598 71.3701 28.1699zM255.91 191.99c8.03027 0.149414 16.1201 -6.91016 16.2598 -15.75c1.19043 -76.4707 -8.55957 -151.13 -28.9697 -224.21l-1.21973 -4.37012c-2 -7.0498 -8.41016 -11.6602 -15.4102 -11.6602
c-13.6699 0 -17.2607 13.71 -15.4102 20.3398l1.21973 4.33008c19.5605 70.0801 28.9004 141.68 27.7803 215.07c-0.120117 8.83984 6.91016 16.1094 15.75 16.25zM112.66 298.21c5.59961 6.88965 15.6602 7.87012 22.5098 2.32031
c6.83984 -5.57031 7.90039 -15.6504 2.31055 -22.5107c-20.7207 -25.5195 -31.4404 -56.46 -30.9102 -89.4697c0.629883 -41.6396 -2.75 -83.29 -10.0898 -123.819c-1.41016 -7.7207 -8.16016 -13.1406 -15.7207 -13.1406c-0.959961 0 -1.89941 0.0800781 -2.87012 0.25
c-8.71973 1.58008 -14.4697 9.91016 -12.9092 18.6104c6.96973 38.4697 10.21 78.0498 9.58984 117.609c-0.629883 40.04 12.8994 79.1709 38.0898 110.15zM511.88 195.18c0.120117 -7.91016 0.150391 -15.8096 0.0800781 -23.7197
c-0.0595703 -8.79004 -7.21973 -15.8701 -16 -15.8701h-0.120117c-8.83984 0.0703125 -15.9297 7.29004 -15.8701 16.1201c0.0703125 7.66016 0.0302734 15.3096 -0.0898438 22.9697c-0.219727 14.3398 -1.91016 28.7305 -5 42.7305
c-1.89941 8.63965 3.57031 17.1699 12.1904 19.0801c8.71973 1.83008 17.1494 -3.56055 19.0596 -12.1699c3.56055 -16.1104 5.5 -32.6406 5.75 -49.1406zM252.6 447.95c84.9004 -1.25 164.681 -43.4697 213.431 -112.95
c5.08984 -7.23047 3.33984 -17.2002 -3.91016 -22.2803c-7.16016 -5.05957 -17.1602 -3.31934 -22.2803 3.91016c-42.8799 61.0898 -113.06 98.2305 -187.75 99.3203c-60.25 0.889648 -117.37 -21.6406 -159.149 -63.4805
c-40.0908 -40.1201 -61.6807 -93.4697 -60.7803 -150.16c0.120117 -8.00977 0.0595703 -16.0293 -0.160156 -24.0293c-0.25 -8.68066 -7.37988 -15.5498 -16 -15.5498h-0.44043c-8.83984 0.25 -15.8096 7.61914 -15.5596 16.4492
c0.219727 7.53027 0.280273 15.0703 0.160156 22.6201c-1.03027 65.4404 23.8799 126.98 70.1602 173.29c48 48.0303 112.31 74.2002 182.279 72.8604zM253.88 363.02c99.8701 -1.46973 182.37 -81.9492 183.86 -179.39c0.620117 -41.0303 -1.37988 -82.3496 -6 -122.82
c-0.930664 -8.16992 -7.87012 -14.1895 -15.8701 -14.1895c-0.620117 0 -1.21973 0.0302734 -1.83984 0.110352c-8.78027 1 -15.0898 8.91992 -14.0898 17.6992c4.46973 39.1104 6.42969 79.0508 5.80957 118.7c-1.25 80.3301 -69.5898 146.67 -152.37 147.89
c-12.2197 0.220703 -25.1895 -1.16992 -37.3096 -4.0293c-8.5 -2.00977 -17.2207 3.2793 -19.25 11.8594c-2.04004 8.60059 3.2793 17.2305 11.8701 19.2607c13.5566 3.21973 27.5479 4.93555 42.084 4.93555c1.03711 0 2.07227 -0.00878906 3.10547 -0.0263672z" />
    <glyph glyph-name="glass-martini-alt" unicode="&#xf57b;" 
d="M502.05 390.4l-230.05 -230.04v-192.36h53.3203c14.7295 0 26.6699 -11.9404 26.6699 -26.6699c0 -2.94043 -2.37988 -5.33008 -5.33008 -5.33008h-181.33c-2.94043 0 -5.33008 2.37988 -5.33008 5.33008c0 14.7295 11.9404 26.6699 26.6699 26.6699h53.3301v192.36
l-230.05 230.04c-21.25 21.2598 -6.2002 57.5996 23.8496 57.5996h444.4c30.0498 0 45.0996 -36.3398 23.8496 -57.5996zM32.2002 414.93c-0.44043 -1.08008 -0.140625 -1.38965 0.379883 -1.89941l61.0303 -61.0303h324.779l61.0303 61.04
c0.520508 0.509766 0.830078 0.820312 0.379883 1.88965c-0.439453 1.07031 -0.879883 1.07031 -1.59961 1.07031h-444.4c-0.719727 0 -1.16016 0 -1.59961 -1.07031zM256.06 189.67l130.341 130.33h-260.79z" />
    <glyph glyph-name="grin-squint-tears" unicode="&#xf586;" 
d="M402 241.9c5.2002 0.5 10.9004 -2.10059 14.2002 -6.60059c32.2998 -45.5 7.2002 -124.899 -35.7002 -167.7c-29.2998 -29.3994 -75.7002 -50.3994 -116.7 -50.3994c-18.8994 0 -36.7002 4.5 -51 14.7002c-4.5 3.2998 -7.09961 8.59961 -6.7002 14.1992
c0.400391 5.60059 3.7002 10.6006 8.7002 13.1006c28.2002 14.5 63.9004 42.2998 97.7998 76.2998c33.9004 33.9004 61.7002 69.5 76.3008 97.7998c2.59961 4.90039 7.5 8.2002 13.0996 8.60059zM357.8 90.2002c24.7998 24.7002 42.9004 66 41.1006 98.2002
c-16.5 -24.1006 -38.7002 -50.4004 -63.8008 -75.5c-25.0996 -25.2002 -51.3994 -47.3008 -75.5 -63.8008c33.3008 -2 73.4004 16.4004 98.2002 41.1006zM207.9 211.8c3 -3 4.19922 -7.2998 3.19922 -11.5l-22.5996 -90.5c-0.700195 -2.89941 -4 -9.5 -12.5996 -9.09961
c-5.80078 0.5 -10.5 5.09961 -11 10.8994l-4.80078 52.3008l-52.2998 4.7998c-5.7998 0.5 -10.3994 5.2002 -10.8994 11c-0.400391 5.89941 3.39941 11.2002 9.09961 12.5996l90.5 22.7002c4.09961 1 8.40039 -0.200195 11.4004 -3.2002zM247.6 236.9
c-0.0996094 0 -6.39941 -1.80078 -11.3994 3.19922c-3 3 -4.2002 7.30078 -3.2002 11.4004l22.5996 90.5c1.40039 5.7002 6.90039 9.2002 12.6006 9.09961c5.7998 -0.5 10.5 -5.09961 11 -10.8994l4.7998 -52.2998l52.2998 -4.80078
c5.7998 -0.5 10.4004 -5.19922 10.9004 -11c0.399414 -5.89941 -3.40039 -11.1992 -9.10059 -12.5996zM491.2 323.4c-4.40039 -4.30078 -10.7998 -8.40039 -18.7998 -12.2002c52 -94.2998 38.8994 -214.7 -41 -294.601c-48.4004 -48.3994 -111.9 -72.5996 -175.4 -72.5996
c-41.2002 0 -82.2002 10.9004 -119.2 31.4004c-3.59961 -7.60059 -7.59961 -14 -12.0996 -18.5c-28.4004 -28.4004 -74.4004 -27.7002 -102.9 0.799805c-28.5996 28.5996 -29 74.7002 -0.899414 102.899c4.2998 4.40039 10.6992 8.40039 18.6992 12.2002
c-52 94.2002 -38.8994 214.7 41 294.601c48.4004 48.3994 111.9 72.5996 175.4 72.5996c41.2002 0 82.2002 -10.9004 119.3 -31.4004c3.60059 7.60059 7.60059 14 12.1006 18.5c27.5996 27.5 73.6992 28.4004 102.899 -0.799805
c28.6006 -28.5996 29 -74.7002 0.900391 -102.899zM410 404.5c-6.59961 -6.59961 -16.7998 -32.2998 -24.7998 -83.2998c51 8 76.7002 18.2002 83.2998 24.7998c15.5996 15.5996 15.2002 41.5 -0.900391 57.5996c-7.89941 7.90039 -18.1992 12.3008 -29.1992 12.4004
h-0.400391c-10.5996 0 -20.5996 -4.09961 -28 -11.5zM102 -20.5c6.59961 6.59961 16.7998 32.4004 24.7998 83.2002c-51 -8 -76.7002 -18.2002 -83.2998 -24.7998c-15.5996 -15.6006 -15.2002 -41.5 0.900391 -57.6006c16.0996 -16.0996 41.8994 -16.5 57.5996 -0.799805z
M408.8 39.2998c70.7002 70.7002 81.1006 178.4 32.9004 261c-16.7002 -4.5 -36.7998 -8.59961 -60.6006 -12c-1.2998 -0.200195 -2.5 -0.299805 -3.69922 -0.299805c-6.7002 0 -13.1006 2.59961 -18 7.5c-5.7002 5.7998 -8.40039 13.7002 -7.2002 21.7002
c2.7998 19.2998 6.7998 41.2002 12.2002 60.8994c-32.6006 19.1006 -69.6006 29.9004 -108.4 29.9004c-57.7002 0 -112 -22.4004 -152.7 -63.2002c-70.7002 -70.7002 -81.0996 -178.3 -33 -261c16.7002 4.5 36.7998 8.60059 60.6006 12
c8 1.10059 15.8994 -1.5 21.6992 -7.2998c5.7002 -5.7998 8.40039 -13.7002 7.2002 -21.7002c-2.7998 -19.2998 -6.7998 -41.2002 -12.2002 -60.8994c32.6006 -19.1006 69.6006 -29.9004 108.4 -29.9004c57.7002 0 112 22.5 152.8 63.2998z" />
    <glyph glyph-name="grin-tears" unicode="&#xf588;" horiz-adv-x="640" 
d="M349.7 200.3c-3.60059 1.10059 -6 4.60059 -5.7002 8.2998c3.2998 42.1006 32.2002 71.4004 56 71.4004s52.7002 -29.2998 56 -71.4004c0.299805 -3.7998 -2.09961 -7.19922 -5.7002 -8.2998c-3.09961 -1 -7.2002 0 -9.2998 3.7002l-9.5 17
c-7.7002 13.7002 -19.2002 21.5996 -31.5 21.5996s-23.7998 -7.89941 -31.5 -21.5996l-9.5 -17c-1.90039 -3.2002 -5.90039 -4.7998 -9.2998 -3.7002zM443.1 127.2c5.40039 1.7998 11.2002 0.599609 15.5 -3.10059c4.2002 -3.69922 6.2002 -9.2998 5.30078 -14.7998
c-9.30078 -55 -83.2002 -93.2998 -143.801 -93.2998c-60.5996 0 -134.5 38.2998 -143.8 93.2998c-1 5.60059 1.10059 11.1006 5.2998 14.7998c4.2002 3.60059 10 4.80078 15.3008 3.10059c30.1992 -9.7002 75.0996 -15.2002 123.1 -15.2002s92.9004 5.5 123.1 15.2002z
M320 48c35 0 77 16.2998 98.5996 40.2998c-57.5 -10.7998 -139.6 -10.7998 -197.1 0c21.5 -24 63.5 -40.2998 98.5 -40.2998zM189.7 200.3c-3.60059 1.10059 -6 4.60059 -5.7002 8.2998c3.2998 42.1006 32.2002 71.4004 56 71.4004s52.7002 -29.2998 56 -71.4004
c0.299805 -3.7998 -2.09961 -7.19922 -5.7002 -8.2998c-3.09961 -1 -7.2002 0 -9.2998 3.7002l-9.5 17c-7.7002 13.7002 -19.2002 21.5996 -31.5 21.5996s-23.7998 -7.89941 -31.5 -21.5996l-9.5 -17c-1.90039 -3.2002 -5.90039 -4.7998 -9.2998 -3.7002zM619.2 188.6
c28.0996 -28.0996 27.7002 -74.2998 -1.10059 -102.8c-11.8994 -11.8994 -44.2998 -32.7998 -82.6992 -14.7002c-42.4004 -75.5 -122.7 -127 -215.5 -127c-92.8008 0 -173 51.5 -215.5 127c-38.5 -18.1992 -70.9004 2.90039 -82.7002 14.7002
c-28.6006 28.6006 -29 74.7002 -0.900391 102.9c9.2002 9.2002 26.7998 17.2002 52.4004 23.8994c10.5 127.301 116.8 227.4 246.8 227.4s236.3 -100.1 246.8 -227.5c25.6006 -6.7002 43.2002 -14.7002 52.4004 -23.9004zM102 107.5
c6.59961 6.59961 16.7998 32.2998 24.7002 83.2998c-51 -8 -76.7002 -18.2002 -83.2998 -24.7998c-15.6006 -15.5996 -15.2002 -41.5 0.899414 -57.5996c16.2998 -16.4004 42.2002 -16.4004 57.7002 -0.900391zM320 -24c82.5996 0 154.1 46.9004 190.4 115.1
c-15.6006 22.2002 -24.9004 67.5 -30.1006 103.601c-1.2002 8.09961 1.40039 15.8994 7.2002 21.7002c5.7998 5.7998 13.7998 8.39941 21.7002 7.2998c8.7002 -1.2002 16.7998 -2.60059 24.5996 -4c-13.7002 106 -104.1 188.3 -213.8 188.3s-200.1 -82.2998 -213.8 -188.2
c7.7998 1.40039 15.8994 2.7002 24.5996 4c8 1.10059 15.9004 -1.5 21.7002 -7.2998c5.7002 -5.7998 8.40039 -13.7002 7.2002 -21.7002c-5.10059 -36.0996 -14.5 -81.3994 -30.1006 -103.6c36.3008 -68.2998 107.801 -115.2 190.4 -115.2zM595.7 108.4
c16.0996 16.0996 16.5 41.8994 0.899414 57.6992c-6.59961 6.60059 -32.2998 16.8008 -83.2998 24.8008c8 -51 18.2002 -76.7002 24.7998 -83.3008c15.3008 -15.3994 41.2002 -15.6992 57.6006 0.800781z" />
    <glyph glyph-name="grip-horizontal" unicode="&#xf58d;" horiz-adv-x="448" 
d="M424 352c13.2197 0 24 -10.7695 24 -24v-80c0 -13.2305 -10.7803 -24 -24 -24h-80c-13.2197 0 -24 10.7695 -24 24v80c0 13.2305 10.7803 24 24 24h80zM416 256v64h-64v-64h64zM264 352c13.2197 0 24 -10.7695 24 -24v-80c0 -13.2305 -10.7803 -24 -24 -24h-80
c-13.2197 0 -24 10.7695 -24 24v80c0 13.2305 10.7803 24 24 24h80zM256 256v64h-64v-64h64zM104 352c13.2197 0 24 -10.7695 24 -24v-80c0 -13.2305 -10.7803 -24 -24 -24h-80c-13.2197 0 -24 10.7695 -24 24v80c0 13.2305 10.7803 24 24 24h80zM96 256v64h-64v-64h64z
M424 160c13.2197 0 24 -10.7695 24 -24v-80c0 -13.2305 -10.7803 -24 -24 -24h-80c-13.2197 0 -24 10.7695 -24 24v80c0 13.2305 10.7803 24 24 24h80zM416 64v64h-64v-64h64zM264 160c13.2197 0 24 -10.7695 24 -24v-80c0 -13.2305 -10.7803 -24 -24 -24h-80
c-13.2197 0 -24 10.7695 -24 24v80c0 13.2305 10.7803 24 24 24h80zM256 64v64h-64v-64h64zM104 160c13.2197 0 24 -10.7695 24 -24v-80c0 -13.2305 -10.7803 -24 -24 -24h-80c-13.2197 0 -24 10.7695 -24 24v80c0 13.2305 10.7803 24 24 24h80zM96 64v64h-64v-64h64z" />
    <glyph glyph-name="grip-vertical" unicode="&#xf58e;" horiz-adv-x="320" 
d="M104 416c13.2197 0 24 -10.7695 24 -24v-80c0 -13.2305 -10.7803 -24 -24 -24h-80c-13.2197 0 -24 10.7695 -24 24v80c0 13.2305 10.7803 24 24 24h80zM96 320v64h-64v-64h64zM104 256c13.2197 0 24 -10.7695 24 -24v-80c0 -13.2305 -10.7803 -24 -24 -24h-80
c-13.2197 0 -24 10.7695 -24 24v80c0 13.2305 10.7803 24 24 24h80zM96 160v64h-64v-64h64zM104 96c13.2197 0 24 -10.7695 24 -24v-80c0 -13.2305 -10.7803 -24 -24 -24h-80c-13.2197 0 -24 10.7695 -24 24v80c0 13.2305 10.7803 24 24 24h80zM96 0v64h-64v-64h64zM296 416
c13.2197 0 24 -10.7695 24 -24v-80c0 -13.2305 -10.7803 -24 -24 -24h-80c-13.2197 0 -24 10.7695 -24 24v80c0 13.2305 10.7803 24 24 24h80zM288 320v64h-64v-64h64zM296 256c13.2197 0 24 -10.7695 24 -24v-80c0 -13.2305 -10.7803 -24 -24 -24h-80
c-13.2197 0 -24 10.7695 -24 24v80c0 13.2305 10.7803 24 24 24h80zM288 160v64h-64v-64h64zM296 96c13.2197 0 24 -10.7695 24 -24v-80c0 -13.2305 -10.7803 -24 -24 -24h-80c-13.2197 0 -24 10.7695 -24 24v80c0 13.2305 10.7803 24 24 24h80zM288 0v64h-64v-64h64z" />
    <glyph glyph-name="headphones-alt" unicode="&#xf58f;" 
d="M384 160c35.3496 0 64 -28.71 64 -64.1201v-63.7598c0 -35.4102 -28.6504 -64.1201 -64 -64.1201h-32c-17.6699 0 -32 14.3604 -32 32.0596v127.881c0 17.71 14.3301 32.0596 32 32.0596h32zM416 32.1201v63.7598c0 17.6797 -14.3604 32.0605 -32 32.0605h-32v-127.881
h32c17.6396 0 32 14.3809 32 32.0605zM160 160c17.6699 0 32 -14.3496 32 -32.0596v-127.881c0 -17.71 -14.3301 -32.0596 -32 -32.0596h-32c-35.3496 0 -64 28.71 -64 64.1201v63.7598c0 35.4102 28.6504 64.1201 64 64.1201h32zM160 0.0595703v127.881h-32
c-17.6396 0 -32 -14.3809 -32 -32.0605v-63.7598c0 -17.6797 14.3604 -32.0605 32 -32.0605h32zM256 416c141.16 0 256 -114.85 256 -256v-120c0 -4.41992 -3.58008 -8 -8 -8h-16c-4.41992 0 -8 3.58008 -8 8v120c0 123.52 -100.5 224 -224 224s-224 -100.48 -224 -224v-120
c0 -4.41992 -3.58008 -8 -8 -8h-16c-4.41992 0 -8 3.58008 -8 8v120c0 141.15 114.84 256 256 256z" />
    <glyph glyph-name="headset" unicode="&#xf590;" 
d="M192 224v-127.64c0 -17.6699 -14.3301 -32 -32 -32h-32c-35.3496 0 -64 28.6494 -64 64v63.6396c0 35.3496 28.6504 64 64 64h32c17.6699 0 32 -14.3301 32 -32zM160 96.3604v127.64h-32c-17.6396 0 -32 -14.3604 -32 -32v-63.6396c0 -17.6406 14.3604 -32 32 -32h32z
M384 64.3604h-32c-17.6699 0 -32 14.3301 -32 32v127.64c0 17.6699 14.3301 32 32 32h32c35.3496 0 64 -28.6504 64 -64v-63.6396c0 -35.3506 -28.6504 -64 -64 -64zM352 224v-127.64h32c17.6396 0 32 14.3594 32 32v63.6396c0 17.6396 -14.3604 32 -32 32h-32zM256 448
c141.16 0 256 -114.85 256 -256v-176c0 -44.1104 -35.8799 -80 -80 -80h-192c-26.5098 0 -48 21.4902 -48 48s21.4902 48 48 48h64c26.5098 0 48 -21.4902 48 -48c0 -5.63965 -1.15039 -10.9697 -2.94043 -16h82.9404c26.4697 0 48 21.5303 48 48v176
c0 123.52 -100.5 224 -224 224c-124.37 0 -220.57 -103.19 -223.91 -224l-0.0898438 -24c0 -4.41992 -3.58008 -8 -8 -8h-16c-4.41992 0 -8 3.58008 -8 8l0.0996094 24c3.82031 138.18 113.87 256 255.9 256zM304 -32c8.82031 0 16 7.17969 16 16s-7.17969 16 -16 16h-64
c-8.82031 0 -16 -7.17969 -16 -16s7.17969 -16 16 -16h64z" />
    <glyph glyph-name="hot-tub" unicode="&#xf593;" 
d="M80 304c-39.7598 0 -72 32.2402 -72 72c0 39.7695 32.2402 72 72 72s72 -32.2305 72 -72c0 -39.7598 -32.2402 -72 -72 -72zM80 416c-22.0596 0 -40 -17.9404 -40 -40s17.9404 -40 40 -40s40 17.9404 40 40s-17.9404 40 -40 40zM335.58 231.72
c-1.79004 30.7705 -14.2002 58.6006 -33.96 75.5107c-26.8506 22.9795 -43.5703 60.0498 -45.6006 100.42c-0.229492 4.54004 3.57031 8.33984 8.11035 8.33984h15.9805c4.2998 0 7.67969 -3.41992 7.92969 -7.70996c1.78027 -30.7705 14.1904 -58.6006 33.96 -75.5205
c26.8496 -22.9795 43.5703 -60.0498 45.5996 -100.42c0.230469 -4.54004 -3.56934 -8.33984 -8.10938 -8.33984h-15.9805c-4.2998 0 -7.67969 3.42969 -7.92969 7.71973zM431.58 231.72c-1.79004 30.7705 -14.2002 58.6006 -33.96 75.5107
c-26.8506 22.9795 -43.5703 60.0498 -45.6006 100.42c-0.229492 4.54004 3.57031 8.33984 8.11035 8.33984h15.9805c4.2998 0 7.67969 -3.41992 7.92969 -7.70996c1.78027 -30.7705 14.1904 -58.6006 33.96 -75.5205c26.8496 -22.9795 43.5703 -60.0498 45.5996 -100.42
c0.230469 -4.54004 -3.56934 -8.33984 -8.10938 -8.33984h-15.9805c-4.2998 0 -7.67969 3.42969 -7.92969 7.71973zM104 0c-4.41992 0 -8 3.58008 -8 8v112c0 4.41992 3.58008 8 8 8h16c4.41992 0 8 -3.58008 8 -8v-112c0 -4.41992 -3.58008 -8 -8 -8h-16zM200 0
c-4.41992 0 -8 3.58008 -8 8v112c0 4.41992 3.58008 8 8 8h16c4.41992 0 8 -3.58008 8 -8v-112c0 -4.41992 -3.58008 -8 -8 -8h-16zM296 0c-4.41992 0 -8 3.58008 -8 8v112c0 4.41992 3.58008 8 8 8h16c4.41992 0 8 -3.58008 8 -8v-112c0 -4.41992 -3.58008 -8 -8 -8h-16z
M392 0c-4.41992 0 -8 3.58008 -8 8v112c0 4.41992 3.58008 8 8 8h16c4.41992 0 8 -3.58008 8 -8v-112c0 -4.41992 -3.58008 -8 -8 -8h-16zM480 192c17.6699 0 32 -14.3301 32 -32v-160c0 -35.3496 -28.6504 -64 -64 -64h-384c-35.3496 0 -64 28.6504 -64 64v224
c0 35.3496 28.6504 64 64 64h58.6699c14.3779 0 27.7109 -4.78223 38.4004 -12.7998l110.93 -83.2002h208zM32 224v-32h186.67l-76.7998 57.5996c-5.5 4.13086 -12.3203 6.40039 -19.2002 6.40039h-58.6699c-17.6396 0 -32 -14.3604 -32 -32zM480 0v160h-448v-160
c0 -17.6396 14.3604 -32 32 -32h384c17.6396 0 32 14.3604 32 32z" />
    <glyph glyph-name="hotel" unicode="&#xf594;" horiz-adv-x="576" 
d="M396.8 224c-6.39941 0 -12.7998 6.40039 -12.7998 12.7998v38.4004c0 6.39941 6.40039 12.7998 12.7998 12.7998h38.4004c6.39941 0 12.7998 -6.40039 12.7998 -12.7998v-38.4004c0 -6.39941 -6.40039 -12.7998 -12.7998 -12.7998h-38.4004zM268.8 320
c-6.39941 0 -12.7998 6.40039 -12.7998 12.7998v38.4004c0 6.39941 6.40039 12.7998 12.7998 12.7998h38.4004c6.39941 0 12.7998 -6.40039 12.7998 -12.7998v-38.4004c0 -6.39941 -6.40039 -12.7998 -12.7998 -12.7998h-38.4004zM396.8 320
c-6.39941 0 -12.7998 6.40039 -12.7998 12.7998v38.4004c0 6.39941 6.40039 12.7998 12.7998 12.7998h38.4004c6.39941 0 12.7998 -6.40039 12.7998 -12.7998v-38.4004c0 -6.39941 -6.40039 -12.7998 -12.7998 -12.7998h-38.4004zM140.8 320
c-6.39941 0 -12.7998 6.40039 -12.7998 12.7998v38.4004c0 6.39941 6.40039 12.7998 12.7998 12.7998h38.4004c6.39941 0 12.7998 -6.40039 12.7998 -12.7998v-38.4004c0 -6.39941 -6.40039 -12.7998 -12.7998 -12.7998h-38.4004zM268.8 224
c-6.39941 0 -12.7998 6.40039 -12.7998 12.7998v38.4004c0 6.39941 6.40039 12.7998 12.7998 12.7998h38.4004c6.39941 0 12.7998 -6.40039 12.7998 -12.7998v-38.4004c0 -6.39941 -6.40039 -12.7998 -12.7998 -12.7998h-38.4004zM568 416h-24v-448h24
c4.41992 0 8 -3.58008 8 -8v-16c0 -4.41992 -3.58008 -8 -8 -8h-560c-4.41992 0 -8 3.58008 -8 8v16c0 4.41992 3.58008 8 8 8h23.9805v448h-23.9805c-4.41992 0 -8 3.58008 -8 8v16c0 4.41992 3.58008 8 8 8h560c4.41992 0 8 -3.58008 8 -8v-16
c0 -4.41992 -3.58008 -8 -8 -8zM320 -32v80c0 8.83984 -7.16016 16 -16 16h-32c-8.83984 0 -16 -7.16016 -16 -16v-80h64zM512 -32v448h-448.02v-448h160.02v80c0 26.4697 21.5303 48 48 48h32c26.4697 0 48 -21.5303 48 -48v-80h160zM140.8 224
c-6.39941 0 -12.7998 6.40039 -12.7998 12.7998v38.4004c0 6.39941 6.40039 12.7998 12.7998 12.7998h38.4004c6.39941 0 12.7998 -6.40039 12.7998 -12.7998v-38.4004c0 -6.39941 -6.40039 -12.7998 -12.7998 -12.7998h-38.4004zM167.11 66.3398
c-4.60059 0.640625 -7.90039 4.91992 -6.94043 9.35059c12.6104 58.0195 66.1104 100.81 127.83 100.81s115.22 -42.79 127.85 -100.82c0.959961 -4.41992 -2.33984 -8.69922 -6.93945 -9.33984l-16.25 -2.25977c-4.2998 -0.599609 -8.11035 2.24023 -9.07031 6.36035
c-9.96973 42.8291 -49.7402 74.2793 -95.5801 74.2793s-85.6201 -31.4502 -95.5801 -74.2793c-0.959961 -4.12012 -4.76953 -6.95996 -9.06934 -6.36035z" />
    <glyph glyph-name="joint" unicode="&#xf595;" horiz-adv-x="640" 
d="M556.44 354.52c52.3193 -34.8994 83.5596 -93.2793 83.5596 -156.21v-30.3096c0 -4.41992 -3.58008 -8 -8 -8h-16c-4.41992 0 -8 3.58008 -8 8v30.3203c0 52.0596 -25.7803 100.38 -68.9805 129.359c-16.7393 11.2305 -27.0195 29.8506 -27.0195 50.0107v62.3096
c0 4.41992 3.58008 8 8 8h16c4.41992 0 8 -3.58008 8 -8v-63.2598c0 -9.07031 4.90039 -17.1904 12.4404 -22.2207zM503.57 274.39c-33.4199 22.5605 -55.5703 58.2607 -55.5703 98.5801v67.0303c0 4.41992 3.58008 8 8 8h16c4.41992 0 8 -3.58008 8 -8v-60.9697
c0 -30.5605 14.0703 -60.2803 39.6904 -76.9404c35.2295 -22.8994 56.3096 -61.8203 56.3096 -103.78v-30.3096c0 -4.41992 -3.58008 -8 -8 -8h-16c-4.41992 0 -8 3.58008 -8 8v30.3096c0 30.5908 -15.0996 58.9805 -40.4297 76.0801zM616 96c13.25 0 24 -10.7402 24 -24
v-112c0 -13.25 -10.75 -24 -24 -24h-337.06c-98.6406 0 -195.29 27.7197 -278.94 80c83.6504 52.2803 180.3 80 278.94 80h337.06zM278.94 -32h61.1094l-81.2998 94.8799c-66.8203 -2.74023 -132.21 -18.2402 -192.32 -46.8799c66.1807 -31.5303 138.66 -48 212.511 -48z
M382.21 -32h117.85l-82.2695 96h-117.85zM608 -32v96h-148.06l82.2695 -96h65.79z" />
    <glyph glyph-name="luggage-cart" unicode="&#xf59d;" horiz-adv-x="640" 
d="M224 96c-17.6699 0 -32 14.3301 -32 32v192c0 17.6699 14.3301 32 32 32h64v48c0 26.5098 21.4902 48 48 48h96c26.5098 0 48 -21.4902 48 -48v-48h64c17.6699 0 32 -14.3301 32 -32v-192c0 -17.6699 -14.3301 -32 -32 -32h-320zM480 320v-192h64v192h-64zM320 400v-48
h128v48c0 8.83984 -7.16016 16 -16 16h-96c-8.83984 0 -16 -7.16016 -16 -16zM320 320v-192h128v192h-128zM224 320v-192h64v192h-64zM632 32c4.41992 0 8 -3.58008 8 -8v-16c0 -4.41992 -3.58008 -8 -8 -8h-90.9404c1.79004 -5.03027 2.94043 -10.3604 2.94043 -16
c0 -26.5098 -21.4902 -48 -48 -48s-48 21.4902 -48 48c0 5.63965 1.15039 10.9697 2.94043 16h-197.881c1.79004 -5.03027 2.94043 -10.3604 2.94043 -16c0 -26.5098 -21.4902 -48 -48 -48s-48 21.4902 -48 48c0 5.63965 1.15039 10.9697 2.94043 16h-58.9404
c-4.41992 0 -8 3.58008 -8 8v408h-88c-4.41992 0 -8 3.58008 -8 8v16c0 4.41992 3.58008 8 8 8h112c4.41992 0 8 -3.58008 8 -8v-408h504zM208 -32c8.82031 0 16 7.17969 16 16s-7.17969 16 -16 16s-16 -7.17969 -16 -16s7.17969 -16 16 -16zM496 -32
c8.82031 0 16 7.17969 16 16s-7.17969 16 -16 16s-16 -7.17969 -16 -16s7.17969 -16 16 -16z" />
    <glyph glyph-name="map-marked" unicode="&#xf59f;" horiz-adv-x="576" 
d="M560 288c8.5 0 16 -6.7998 16 -16v-250.3c0 -13.1006 -7.90039 -24.7998 -20.0996 -29.7002l-151.9 -52.9004c-13 -4.19922 -27 -4.09961 -40 0.200195l-172 60.7002l-170 -62.7998c-2 -0.799805 -4 -1.2002 -6 -1.2002c-8.5 0 -16 6.7998 -16 16v250.3
c0 13.1006 8 24.9004 20.0996 29.7002l150.301 52.4004c-6.40039 14.7998 -10.4004 28.7998 -10.4004 40.5996c0 67.9004 57.2998 123 128 123s128 -55 128 -123c0 -26.2002 -19 -62.5 -42.2998 -97.4004l10.2998 -3.59961l170 62.7998c2 0.799805 4 1.2002 6 1.2002z
M176 28.2002v224.2l-145.4 -50.5l1.30078 -226.9zM288 416c-52.9004 0 -96 -40.7998 -96 -91c0 -27 38.0996 -88.9004 96 -156.8c57.9004 67.8994 96 129.8 96 156.8c0 50.2002 -43.0996 91 -96 91zM208 28.2998l160 -56.5v223.9l-13.4004 4.7002
c-20.5996 -27.8008 -41.5 -52.4004 -54.2998 -66.9004c-3.2998 -3.7002 -7.7998 -5.5 -12.2998 -5.5s-9.09961 1.7998 -12.2998 5.5c-15.6006 17.7002 -43.2998 50.4004 -67.7002 85.7002v-190.9zM400 -28.4004l145.4 50.5l-1.30078 226.9l-144.1 -53.2002v-224.2z" />
    <glyph glyph-name="map-marked-alt" unicode="&#xf5a0;" horiz-adv-x="576" 
d="M560 288c8.5 0 16 -6.7998 16 -16v-250.3c0 -13.1006 -7.90039 -24.7998 -20.0996 -29.7002l-151.9 -52.9004c-13 -4.19922 -27 -4.09961 -40 0.200195l-172 60.7002l-170 -62.7998c-2 -0.799805 -4 -1.2002 -6 -1.2002c-8.5 0 -16 6.7998 -16 16v250.3
c0 13.1006 8 24.9004 20.0996 29.7002l150.301 52.4004c-6.40039 14.7998 -10.4004 28.7998 -10.4004 40.5996c0 67.9004 57.2998 123 128 123s128 -55 128 -123c0 -26.2002 -19 -62.5 -42.2998 -97.4004l10.2998 -3.59961l170 62.7998c2 0.799805 4 1.2002 6 1.2002z
M176 28.2002v224.2l-145.4 -50.5l1.30078 -226.9zM288 416c-52.9004 0 -96 -40.7998 -96 -91c0 -27 38.0996 -88.9004 96 -156.8c57.9004 67.8994 96 129.8 96 156.8c0 50.2002 -43.0996 91 -96 91zM368 -28.2002v223.9l-13.4004 4.7002
c-20.5996 -27.8008 -41.5 -52.4004 -54.2998 -66.9004c-3.2998 -3.7002 -7.7998 -5.5 -12.2998 -5.5s-9.09961 1.7998 -12.2998 5.5c-15.6006 17.7002 -43.2998 50.4004 -67.7002 85.7002v-190.9zM400 -28.4004l145.4 50.5l-1.30078 226.9l-144.1 -53.2002v-224.2zM312 320
c0 -13.2998 -10.7998 -24 -24 -24s-24 10.7998 -24 24c0 13.2998 10.7998 24 24 24s24 -10.7002 24 -24z" />
    <glyph glyph-name="marker" unicode="&#xf5a1;" 
d="M421.4 448c79.9492 0 121.14 -97.3799 64 -154.54l-263.471 -263.51c-51.1494 -51.1543 -119.532 -85.4277 -195.3 -93.7998c-0.910156 -0.100586 -1.7998 -0.150391 -2.68945 -0.150391c-14.0605 0 -25.3906 12.2803 -23.79 26.6504l0.0292969 0.229492
c8.41602 75.6777 42.665 143.98 93.7607 195.09l234.55 234.601l-23.4199 23.4297l-130.09 -130.1c-3.12012 -3.12012 -8.19043 -3.12012 -11.3105 0l-11.3096 11.3096c-3.12012 3.12012 -3.12012 8.19043 0 11.3096l130.08 130.11c12.5 12.5 32.75 12.5 45.25 0
l23.4297 -23.4297l6.28027 6.28027c17.6699 17.6797 40.8301 26.5195 64 26.5195zM199.31 52.5801l78.71 78.7197l-82.75 82.7705l-78.71 -78.7207c-44.8291 -44.8398 -74.1895 -103.52 -83.3193 -166.159c62.1602 8.97949 121.08 38.3896 166.069 83.3896zM462.77 316.09
c11.0605 11.0498 17.1406 25.75 17.1504 41.3799c0 32.3701 -26.2002 58.5303 -58.5195 58.5303c-15.6309 0 -30.3301 -6.08984 -41.3809 -17.1396l-162.13 -162.16l82.75 -82.7705z" />
    <glyph glyph-name="medal" unicode="&#xf5a2;" horiz-adv-x="576" 
d="M332.37 172.59l44.1104 -6.4502c10.4092 -1.50977 18.9092 -8.66992 22.1895 -18.6992c3.25 -10.0107 0.589844 -20.8301 -6.96973 -28.1709l-31.9102 -31.0898l7.55957 -43.9199c3.95996 -23.0693 -20.5596 -39.0801 -39.9092 -28.9502l-39.4404 20.7207
l-39.4697 -20.7305c-19.6201 -10.5303 -43.7803 6.23047 -39.8701 28.9697l7.55957 43.9209l-31.9102 31.0898c-7.55957 7.33984 -10.2197 18.1494 -6.96973 28.1699c3.28027 10.0303 11.7803 17.2002 22.2197 18.7002l44.0605 6.43945l19.7197 39.9697
c9.37012 18.9404 39.8398 18.8906 49.2803 0.0800781zM325.41 99.3398l37.3994 36.4697l-51.6895 7.53027l-23.1201 46.8799l-23.1201 -46.8799l-51.6895 -7.53027l37.4092 -36.4697l-8.93945 -52.0596l46.3398 24.9102l46.25 -24.3008zM559.97 448
c12.9502 0 20.5303 -14.5703 13.1104 -25.1797l-144.12 -205.88c21.9004 -29.3408 35.04 -65.5908 35.04 -104.94c0 -97.0498 -78.9502 -176 -176 -176s-176 78.9502 -176 176c0 39.3496 13.1396 75.5996 35.04 104.94l-144.12 205.88
c-7.41992 10.6094 0.160156 25.1797 13.1104 25.1797h157.85c11.6572 0 21.8467 -6.21387 27.4404 -15.54l86.6797 -144.46l86.6797 144.46c5.78027 9.63965 16.2002 15.54 27.4404 15.54h157.85zM46.7598 416l122.271 -174.68
c23.1299 21.29 51.8301 36.6201 83.7793 43.1299l-78.9297 131.55h-127.12zM432 112c0 79.5303 -64.4697 144 -144 144s-144 -64.4697 -144 -144s64.4697 -144 144 -144s144 64.4697 144 144zM406.97 241.32l122.271 174.68h-127.12l-78.9297 -131.55
c31.9492 -6.50977 60.6494 -21.8398 83.7793 -43.1299z" />
    <glyph glyph-name="monument" unicode="&#xf5a6;" horiz-adv-x="384" 
d="M368 32c8.83984 0 16 -7.16016 16 -16v-64c0 -8.83984 -7.16016 -16 -16 -16h-352c-8.83984 0 -16 7.16016 -16 16v64c0 8.83984 7.16016 16 16 16h48l30.8701 315.26c0.751953 7.54688 4.12988 14.3613 9.20996 19.4404l76.6104 76.6094
c3.11914 3.13086 7.21973 4.69043 11.3096 4.69043s8.19043 -1.55957 11.3096 -4.69043l76.6201 -76.6094c5.08008 -5.0791 8.45801 -11.8936 9.20996 -19.4404l30.8604 -315.26h48zM126.71 344.08l-30.5596 -312.08h191.699l-30.5498 312.15l-65.29 65.2295zM352 -32v32
h-320v-32h320zM232 192c4.40039 0 8 -3.59961 8 -8v-16c0 -4.40039 -3.59961 -8 -8 -8h-80c-4.40039 0 -8 3.59961 -8 8v16c0 4.40039 3.59961 8 8 8h80z" />
    <glyph glyph-name="mortar-pestle" unicode="&#xf5a7;" 
d="M504 256c4.41992 0 8 -3.58008 8 -8v-16c0 -4.41992 -3.58008 -8 -8 -8h-24v-32c0 -81.4199 -50.7598 -150.83 -122.29 -178.75c12.7705 -16.7695 21.71 -36.6299 24.9199 -58.4404c1.4502 -9.83984 -5.97949 -18.8096 -15.9199 -18.8096h-221.42
c-9.94043 0 -17.3701 8.98047 -15.9199 18.8096c3.21973 21.8105 12.1602 41.6602 24.9199 58.4404c-71.5303 27.9199 -122.29 97.3301 -122.29 178.75v32h-24c-4.41992 0 -8 3.58008 -8 8v16c0 4.41992 3.58008 8 8 8h181.39l242.681 182.01
c8.81934 6.61035 19.3594 9.99023 29.9795 9.99023c8.00488 -0.000976562 15.6211 -1.91699 22.3301 -5.26953c30.4902 -15.25 37.0898 -55.8906 12.9805 -80l-106.73 -106.73h113.37zM451.26 412.41l-208.54 -156.41h102.66l129.351 129.36
c15.7393 15.7393 -5.89062 40.2295 -23.4707 27.0498zM448 192v32h-384v-32c0 -66.3096 40.0098 -124.77 101.93 -148.94l39.5107 -15.4199l-25.6807 -33.7598c-6.08984 -8 -10.8701 -16.75 -14.1895 -25.8799h180.87c-3.32031 9.12988 -8.11035 17.8799 -14.1904 25.8799
l-25.6797 33.7598l39.5098 15.4199c61.9102 24.1709 101.92 82.6309 101.92 148.94z" />
    <glyph glyph-name="paint-brush-alt" unicode="&#xf5a9;" 
d="M489.17 303.95l-202.24 -222.44l-0.0195312 -0.0195312c2.97949 -28.4502 -1.7002 -145.49 -142.91 -145.49c-101.33 0 -144 81.4199 -144 174.08c11.0098 -7.52051 49.6602 -38.6504 62.1504 -38.6504c7.40918 0 13.7598 4.23047 16.4092 11.2207
c23.2402 61.25 64.21 78.4395 109.341 81.3398l165.939 248.16c17.8105 25.4092 41.29 35.8496 64.6797 35.8496c64.7607 0 128.921 -80.0195 70.6504 -144.05zM230.96 -1.17969c19.6396 21.8096 26.6797 54.9697 23.7197 83.1797l-56.8896 50.5596
c-71.6797 -4.59961 -82.4502 -43.1699 -89.3096 -61.2598c-7.33008 -19.3496 -25.5205 -31.8701 -46.3301 -31.8701c-6.57031 0 -13.1699 1.54004 -20.7207 4.86035c12.4199 -38.8203 40.4902 -76.29 102.57 -76.29c39.2803 0 68.54 10.3701 86.96 30.8203zM270.36 110.85
l195.13 214.631c14.8398 16.2998 18.3301 33.6797 10.3896 51.6396c-9.7998 22.1699 -34.46 38.8799 -57.3604 38.8799c-15.1895 0 -28.1396 -7.46973 -38.4697 -22.2197l-159.55 -238.61z" />
    <glyph glyph-name="paint-roller" unicode="&#xf5aa;" 
d="M464 384c26.4697 0 48 -21.5303 48 -48v-96c0 -26.4697 -21.5303 -48 -48 -48h-208c-8.80957 0 -16 -7.16992 -16 -16v-48h16c17.6699 0 32 -14.3301 32 -32v-128c0 -17.6699 -14.3301 -32 -32 -32h-64c-17.6699 0 -32 14.3301 -32 32v128c0 17.6699 14.3301 32 32 32h16
v48c0 26.4697 21.5303 48 48 48h208c8.80957 0 16 7.16992 16 16v96c0 8.83008 -7.19043 16 -16 16h-48v-16c0 -26.5098 -21.4902 -48 -48 -48h-320c-26.5098 0 -48 21.4902 -48 48v64c0 26.5098 21.4902 48 48 48h320c26.5098 0 48 -21.4902 48 -48v-16h48zM384 384v16
c0 8.82031 -7.17969 16 -16 16h-320c-8.82031 0 -16 -7.17969 -16 -16v-64c0 -8.82031 7.17969 -16 16 -16h320c8.82031 0 16 7.17969 16 16v48zM256 -32v128h-64v-128h64z" />
    <glyph glyph-name="passport" unicode="&#xf5ab;" horiz-adv-x="448" 
d="M416 448c17.6699 0 32 -14.3301 32 -32v-448c0 -17.6699 -14.3301 -32 -32 -32h-352c-35.3496 0 -64 28.6504 -64 64v384c0 35.3496 28.6504 64 64 64h352zM416 -32v448h-352c-17.6396 0 -32 -14.3604 -32 -32v-384c0 -17.6396 14.3604 -32 32 -32h352zM112 32
c-8.7998 0 -16 7.2002 -16 16s7.2002 16 16 16h224c8.7998 0 16 -7.2002 16 -16s-7.2002 -16 -16 -16h-224zM224 128c-70.6904 0 -128 57.3096 -128 128s57.3096 128 128 128s128 -57.3096 128 -128s-57.3096 -128 -128 -128zM318.38 272
c-5.28027 31.2197 -25.5898 57.1699 -53.2998 70.4102c7.66992 -19.0605 12.7197 -43.3799 14.21 -70.4102h39.0898zM279.29 240c-1.49023 -27.0303 -6.53027 -51.3496 -14.21 -70.4102c27.71 13.2402 48.0098 39.1904 53.2998 70.4102h-39.0898zM224 350.69
c-7.69043 -7.4502 -20.7695 -34.4307 -23.4404 -78.6904h46.8701c-2.66016 44.2695 -15.7393 71.2402 -23.4297 78.6904zM247.43 240h-46.8594c2.66016 -44.2695 15.7393 -71.2402 23.4297 -78.6904c7.69043 7.4502 20.7695 34.4307 23.4297 78.6904zM182.92 342.41
c-27.71 -13.2402 -48.0195 -39.1904 -53.2998 -70.4102h39.0898c1.49023 27.0303 6.53027 51.3496 14.21 70.4102zM168.71 240h-39.0898c5.28027 -31.2197 25.5898 -57.1699 53.2998 -70.4102c-7.66992 19.0605 -12.7197 43.3799 -14.21 70.4102z" />
    <glyph glyph-name="pen-fancy" unicode="&#xf5ac;" 
d="M424.86 448c75.2197 0 119.64 -96.3799 58.21 -150.7l-211.19 -191.3l-28.5996 -85.8799c-3.37695 -10.125 -11.375 -18.123 -21.5 -21.5l-187.79 -62.6201l-33.9902 34l62.5996 187.88c3.37695 10.125 11.375 18.123 21.5 21.5l85.8301 28.6201l191.221 211.28
c16.8594 19.0801 40.25 28.7197 63.71 28.7197zM212.93 30.25l29.5 88.5898l-59.6895 59.71l-88.54 -29.5303c-0.600586 -0.199219 -49.3203 -145.489 -49.3203 -145.489l68.6396 68.6699c-0.65918 2.55957 -1.56934 5.03027 -1.56934 7.7998
c0 17.6699 14.3193 32 31.9902 32c17.6699 0 31.9893 -14.3301 31.9893 -32s-14.3193 -32 -31.9893 -32c-2.77051 0 -5.24023 0.910156 -7.80078 1.57031l-68.6299 -68.6602s145.221 48.75 145.42 49.3398zM461.6 321.03c11.3604 10.0498 17.7207 23.5801 18.1699 38.3594
c0.960938 31.0605 -25.8096 56.6104 -54.9092 56.6104c-15.8223 -0.000976562 -30.0273 -6.91895 -39.75 -17.9199l-178.94 -197.71l58.0898 -58.1104z" />
    <glyph glyph-name="pen-nib" unicode="&#xf5ad;" 
d="M493.87 352.4c24.1699 -24.1699 24.1699 -63.3506 0 -87.5205l-92.4502 -92.4502l-28.21 -99.8301c-5.76172 -20.3838 -21.3594 -36.6455 -41.3496 -43.3096l-279.86 -93.29l-52 52l93.29 279.86c6.66406 19.9902 22.9258 35.5879 43.3096 41.3496l99.8301 28.21
l92.4502 92.4502c12.0801 12.0898 27.9199 18.1299 43.7598 18.1299c15.8408 0 31.6807 -6.04004 43.7607 -18.1299zM342.42 81.2998l28.21 99.8398l0.350586 1.25l-124.601 124.601l-1.25 -0.360352l-99.8301 -28.21
c-10.1963 -2.87793 -18.3311 -10.6797 -21.6602 -20.6797l-87.0293 -261.101l0.709961 -0.699219l115.75 115.75c-5.62012 9.51953 -9.07031 20.4795 -9.07031 32.3096c0 35.2998 28.7197 64 64 64s64 -28.7002 64 -64s-28.7197 -64 -64 -64
c-11.8301 0 -22.7803 3.4502 -32.2998 9.07031l-115.76 -115.761l0.699219 -0.699219l261.101 87.0293c10 3.3291 17.8018 11.4639 20.6797 21.6602zM176 144c0 -17.6396 14.3398 -32 32 -32s32 14.3604 32 32s-14.3398 32 -32 32s-32 -14.3604 -32 -32zM471.25 287.51
c11.6504 11.6504 11.6504 30.6104 0 42.2598l-77.4697 77.4707c-11.6904 11.6895 -30.6006 11.6699 -42.2705 0l-80.0693 -80.0605l119.75 -119.729z" />
    <glyph glyph-name="pencil-ruler" unicode="&#xf5ae;" 
d="M502.71 79.8604c12.3896 -12.3906 12.3896 -32.4707 0 -44.8604l-89.7197 -89.7002c-6.19043 -6.18945 -14.3105 -9.29004 -22.4307 -9.29004c-0.0107422 0 -0.0253906 -0.00390625 -0.0361328 -0.00390625c-8.74023 0 -16.6572 3.55371 -22.3838 9.29395l-122.83 122.83
l-112.939 -112.96l-107.44 -18.8398c-13.3701 -2.33984 -27.3096 8.92969 -24.5898 24.5596l18.7598 107.45l113.011 113l-122.801 122.8c-12.3896 12.3906 -12.3799 32.4707 0 44.8604l89.7002 89.71c6.2002 6.19043 14.3105 9.29004 22.4307 9.29004
c8.11914 0 16.2393 -3.09961 22.4297 -9.29004l122.82 -122.82l49.3994 49.4004l68.6504 68.6396c9.37988 9.37988 21.6797 14.0703 33.9697 14.0703s24.5898 -4.69043 33.9697 -14.0703l45.25 -45.25c18.75 -18.7598 18.7607 -49.1699 0 -67.9297l-68.6494 -68.6602
l-49.4004 -49.3994zM407.36 411.3l-46.0303 -46l67.9395 -67.9395l46.0303 46.0293c6.25 6.25 6.25 16.4199 0 22.6699l-45.25 45.2402c-4.08984 4.08984 -18.5996 4.08984 -22.6895 0zM31.9297 326.37l122.69 -122.521l89.5 89.4902l-44.1006 44.0498l-39.0391 -39.04
c-3.12012 -3.11914 -8.19043 -3.11914 -11.3105 0l-11.3096 11.3105c-3.12012 3.12012 -3.12012 8.18945 0 11.3096l39.0293 39.0303l-55.9492 55.8896zM116.89 -15.0596l289.75 289.779l-67.9395 67.9404l-289.83 -289.8l-14.3701 -82.3701zM390.77 -32.0801
l89.3105 89.7197l-55.9404 55.8799l-39.1699 -39.1699c-3.12012 -3.11914 -8.18945 -3.11914 -11.3096 0l-11.3105 11.3105c-3.11914 3.12012 -3.11914 8.18945 0 11.3096l39.1504 39.1602l-44.1201 44.0703l-89.4697 -89.4805z" />
    <glyph glyph-name="plane-arrival" unicode="&#xf5af;" horiz-adv-x="640" 
d="M632 -32c4.41992 0 8 -3.58008 8 -8v-16c0 -4.41992 -3.58008 -8 -8 -8h-624c-4.41992 0 -8 3.58008 -8 8v16c0 4.41992 3.58008 8 8 8h624zM580.44 145.46c22.5195 -23.3799 31.2998 -45.29 26.1299 -65.1396c-5.16992 -19.8506 -23.4404 -34.3105 -54.3105 -43
c-12.5596 -3.54004 -25.9199 -5.33008 -39.71 -5.33008c-15.5596 0 -31.6699 2.26953 -47.8799 6.72949l-295.95 81.4502c-10.8701 2.99023 -21.0693 8.62988 -29.4893 16.2998l-93.3203 83.1699c-8.41016 7.66016 -13.3701 18.6699 -13.6201 30.21l-0.290039 107.221
c0.230469 13.9492 11.4502 25.29 25 25.29c4.42969 0 2.87012 0.109375 47.4004 -12.1406c7.56934 -2.08008 13.8301 -7.79004 16.75 -15.2598l26.8799 -67.79l87.29 -24.0195l-42.3203 151.85c-2.28027 7.94043 -0.320312 18.0996 5.08984 24.3496
c7.91992 9.13086 18.4102 8.65039 18.6904 8.65039c0 0 52.3193 -15.0498 71.4893 -20.3203c7.08008 -1.94922 12.9102 -6.97949 16.0508 -13.6201c2.0293 -4.30957 3.98926 -8.65918 6.17969 -12.8896l96.4502 -185.26l96.9395 -26.6797
c30.6201 -8.4209 57.0908 -23.5605 76.5508 -43.7705zM575.58 88.3896c2.09961 8 -4.54004 20.7002 -18.1797 34.8799c-15.4805 16.0703 -36.9102 28.2109 -61.9902 35.1104l-110.44 30.4004l-108.76 209.029l-48.7998 13.9805l54.5098 -194.65l-157.85 43.4404
l-31.54 79.7197l-28.3506 7.7998l0.100586 -97.5693c0.0595703 -2.77051 1.23926 -5.4707 3.16992 -7.23047l93.3193 -83.1699c4.71094 -4.29004 10.4004 -7.43945 16.4307 -9.09961l295.95 -81.4502c10.3896 -2.86035 39.5693 -10.1299 70.4199 -1.4502
c18.3398 5.16016 30 12.54 32.0098 20.2598z" />
    <glyph glyph-name="prescription" unicode="&#xf5b1;" horiz-adv-x="384" 
d="M278.63 96l103.021 -103.04c3.11914 -3.12012 3.11914 -8.19043 0 -11.3096l-11.3105 -11.3105c-3.12012 -3.12012 -8.18945 -3.12012 -11.3096 0l-103.03 103.03l-103.04 -103.021c-3.12012 -3.11914 -8.19043 -3.11914 -11.3096 0l-11.3105 11.3105
c-3.12012 3.12012 -3.12012 8.18945 0 11.3096l103.03 103.03l-128 128h-73.3701v-88c0 -4.41992 -3.58008 -8 -8 -8h-16c-4.41992 0 -8 3.58008 -8 8v272c0 4.41992 3.58008 8 8 8h152c53.0195 0 96 -42.9805 96 -96s-42.9805 -96 -96 -96h-9.37012l105.37 -105.37
l103.04 103.021c3.12012 3.11914 8.19043 3.11914 11.3096 0l11.3105 -11.3105c3.12012 -3.12012 3.12012 -8.18945 0 -11.3096zM32 256h128c35.29 0 64 28.71 64 64s-28.71 64 -64 64h-128v-128z" />
    <glyph glyph-name="shuttle-van" unicode="&#xf5b6;" horiz-adv-x="640" 
d="M625.17 209.8c9.58008 -11.5 14.8301 -26 14.8301 -40.9697v-104.83c0 -17.6699 -14.3301 -32 -32 -32h-33.6201c-7.42969 -36.4697 -39.75 -64 -78.3799 -64s-70.9502 27.5303 -78.3799 64h-195.24c-7.42969 -36.4697 -39.75 -64 -78.3799 -64
s-70.9502 27.5303 -78.3799 64h-33.6201c-17.6699 0 -32 14.3301 -32 32v272c0 26.5098 21.4902 48 48 48h402.02c19.7627 0 37.4258 -8.93652 49.1709 -23.0303zM352 352v-128h219.68l-97.0801 116.49c-6.09961 7.30957 -15.0498 11.5098 -24.5801 11.5098h-98.0195z
M192 352v-128h128v128h-128zM32 336v-112h128v128h-112c-8.82031 0 -16 -7.17969 -16 -16zM144 0c26.5098 0 48 21.4902 48 48s-21.4902 48 -48 48s-48 -21.4902 -48 -48s21.4902 -48 48 -48zM496 0c26.5098 0 48 21.4902 48 48s-21.4902 48 -48 48s-48 -21.4902 -48 -48
s21.4902 -48 48 -48zM608 64v104.83c-0.0078125 7.78027 -2.7998 14.9355 -7.41992 20.4902l-2.23047 2.67969h-566.35v-128h33.6201c7.42969 36.4697 39.75 64 78.3799 64s70.9502 -27.5303 78.3799 -64h195.24c7.42969 36.4697 39.75 64 78.3799 64
s70.9502 -27.5303 78.3799 -64h33.6201z" />
    <glyph glyph-name="smile-plus" unicode="&#xf5b9;" horiz-adv-x="640" 
d="M208 352c114.9 0 208 -93.0996 208 -208s-93.0996 -208 -208 -208s-208 93.0996 -208 208s93.0996 208 208 208zM208 -32c97 0 176 79 176 176s-79 176 -176 176s-176 -79 -176 -176s79 -176 176 -176zM283.8 98.7002c5.7998 6.7002 16 7.39941 22.6006 1.7998
c6.69922 -5.7998 7.59961 -15.9004 1.7998 -22.5996c-24.9004 -29.2002 -61.4004 -45.9004 -100.2 -45.9004s-75.2998 16.7002 -100.1 45.7998c-5.7002 6.7998 -5 16.7998 1.7998 22.6006c6.59961 5.69922 16.7998 4.89941 22.5 -1.80078
c18.7998 -22 46.3994 -34.5996 75.7998 -34.5996s57 12.5996 75.7998 34.7002zM144 168c-13.2998 0 -24 10.7002 -24 24s10.7002 24 24 24s24 -10.7002 24 -24s-10.7002 -24 -24 -24zM272 168c-13.2998 0 -24 10.7002 -24 24s10.7002 24 24 24s24 -10.7002 24 -24
s-10.7002 -24 -24 -24zM632 352c4.40039 0 8 -3.59961 8 -8v-16c0 -4.40039 -3.59961 -8 -8 -8h-88v-88c0 -4.40039 -3.59961 -8 -8 -8h-16c-4.40039 0 -8 3.59961 -8 8v88h-88c-4.40039 0 -8 3.59961 -8 8v16c0 4.40039 3.59961 8 8 8h88v88c0 4.40039 3.59961 8 8 8h16
c4.40039 0 8 -3.59961 8 -8v-88h88z" />
    <glyph glyph-name="solar-panel" unicode="&#xf5ba;" horiz-adv-x="640" 
d="M586.22 421.26l53.3301 -320c3.25 -19.5 -11.79 -37.2598 -31.5596 -37.2598h-191.99v-96h40c4.41992 0 8 -3.58008 8 -8v-16c0 -4.41992 -3.58008 -8 -8 -8h-272c-4.41992 0 -8 3.58008 -8 8v16c0 4.41992 3.58008 8 8 8h40v96h-191.99
c-19.7793 0 -34.8193 17.7598 -31.5596 37.2598l53.3301 320c2.56934 15.4307 15.9199 26.7402 31.5596 26.7402h469.32c15.6396 0 28.9902 -11.3096 31.5596 -26.7402zM578.66 272l-24 144h-129l14.3994 -144h138.601zM407.93 272l-14.3896 144h-147.07l-14.3994 -144
h175.859zM85.3398 416l-24 -144h138.601l14.3994 144h-129zM56.0098 240l-24 -144h150.33l14.4004 144h-140.73zM384 -32v96h-128v-96h128zM214.48 96h211.05l-14.4004 144h-182.25zM457.65 96h150.34l-24 144h-140.74z" />
    <glyph glyph-name="spa" unicode="&#xf5bb;" horiz-adv-x="576" 
d="M568.28 255.92c4.39941 0 7.75977 -3.41016 7.68945 -7.82031c-0.229492 -27.9395 -7.12988 -126.21 -88.7695 -199.409c-58.2305 -56.7305 -131.07 -74.8008 -176.96 -80.46c0 -0.300781 -44.5098 -0.300781 -44.5205 0
c-45.8896 5.65918 -118.729 23.7295 -176.96 80.46c-81.6299 73.21 -88.54 171.47 -88.7695 199.409c-0.0400391 4.41016 3.33008 7.82031 7.71973 7.82031h0.0400391c22.6504 -0.110352 92.0098 -4.29004 158.85 -42.3604c19.4502 81.5908 60.4004 153.891 112.57 199.301
c2.41016 2.09961 5.62988 3.13965 8.84961 3.13965c3.2207 0 6.4502 -1.0498 8.85059 -3.13965c52.1602 -45.4102 93.0898 -117.71 112.52 -199.29c66.8506 38.0596 136.21 42.25 158.851 42.3496h0.0400391zM110.13 72.5303
c47.2803 -46.0205 119.09 -71.4707 161.86 -72.6201c0 24.5195 -5.07031 45.25 -13.5703 65.8203c-13.7695 33.3193 -32.7998 60.5596 -58.1699 83.2793c-55.5303 54.1299 -125.6 69.3398 -166.44 73.4404c4.70996 -37.6406 21.1006 -100.4 76.3203 -149.92zM221.59 172.87
c33.1201 -29.6396 53.3604 -63.3301 66.4102 -94.9004c13.0498 31.5703 33.29 65.2607 66.4102 94.9102c8.51953 8.2998 17.4502 15.4199 26.4697 22.1504c-15.1104 71.5801 -48.6797 138.149 -92.8496 182.319c-44.1904 -44.1797 -77.7705 -110.75 -92.9004 -182.33
c9.00977 -6.72949 17.9502 -13.8496 26.46 -22.1494zM464.9 71.6299c55.9893 50.2305 72.54 113.17 77.2793 150.851c-40.7295 -4.06055 -110.66 -19.1006 -165.439 -72.5205c-26.3701 -23.6504 -45.4004 -50.8896 -59.1699 -84.2197
c-8.58984 -20.79 -13.5703 -41.5098 -13.5703 -65.8203c44.7695 1.2002 116.29 28.25 160.9 71.71z" />
    <glyph glyph-name="splotch" unicode="&#xf5bc;" 
d="M463.94 262.92c27.6895 -9.40039 46.0596 -31.5098 47.8896 -57.7598c1.80957 -25.3604 -12.5303 -48.9697 -37.4697 -61.5801l-58.0908 -29.4805c-11.7197 -5.93945 -19.1895 -15.9697 -20 -26.8594l-4.40918 -57.4502
c-1.81055 -23.3604 -16.8701 -43.6699 -40.3105 -54.3398c-11 -5.02051 -22.9102 -7.46973 -34.7197 -7.46973c-17.3799 0 -34.5303 5.30957 -48.4102 15.6396l-50.9395 37.9199c-11 8.19043 -26.1807 11.1699 -40.5605 8.08008l-65.5898 -14.1699
c-30.8398 -6.60059 -62.1797 3.96973 -80.0605 27.0303c-14.75 19.0596 -17.1895 43.1094 -6.5 64.3291l26.6602 52.9209c4.9707 9.84961 3.90039 20.75 -2.91016 29.9092l-36.1299 48.6904c-14.6592 19.75 -16.4395 44.1895 -4.75 65.3604
c13.7207 24.9092 42.75 39.46 74.1602 37.0498l67.4404 -5.2207c14.5693 -1.21973 28.9697 3.78027 38.1299 13.1602l43.25 44.2803c19.5303 20 49.6299 27.75 78.4697 20.1699c26.0303 -6.82031 45.2803 -24.8496 51.5303 -48.2295l15 -56.1406
c2.91016 -10.9502 12.4395 -20.1201 25.4102 -24.5293zM459.91 172.14c13.4395 6.81055 20.9102 18.3105 20.0195 30.79c-0.929688 13.3301 -10.7793 24.4199 -26.3096 29.6904l-62.8398 21.3096c-23.1504 7.86035 -40.3701 25.2607 -46.0898 46.5898l-15 56.1406
c-3.2207 12.1201 -13.9707 21.6699 -28.7207 25.5303c-17.4102 4.59961 -36.0898 0.0498047 -47.4697 -11.5908l-43.25 -44.2695c-15.7197 -16.0898 -39.1602 -24.54 -63.5 -22.7002l-67.4102 5.21973c-18.4395 1.27051 -35.9697 -6.63965 -43.6895 -20.6094
c-3.25 -5.91016 -7.28027 -17.75 2.43945 -30.8301l36.1299 -48.6699c14.0898 -18.96 16.25 -42.6602 5.78027 -63.4102l-26.6602 -52.9102c-6.93945 -13.79 -0.939453 -24.9297 3.25 -30.3398c7.83984 -10.1504 25.0605 -20.3203 48 -15.3398l65.5898 14.1699
c5.91016 1.29004 11.9102 1.91016 17.9102 1.91016c17.5898 0 34.8701 -5.44043 48.5303 -15.6104l50.9395 -37.9199c14.0605 -10.4697 33.9707 -12.3096 50.75 -4.7002c6.10059 2.77051 20.3809 11 21.6309 27.6602l4.40918 57.4404
c1.69043 22.1396 15.6904 41.9492 37.4707 52.9697z" />
    <glyph glyph-name="spray-can" unicode="&#xf5bd;" 
d="M224 320c53.0195 0 96 -42.9805 96 -96v-256c0 -17.6699 -14.3301 -32 -32 -32h-256c-17.6699 0 -32 14.3301 -32 32v256c0 53.0195 42.9805 96 96 96v96c0 17.6699 14.3301 32 32 32h64c17.6699 0 32 -14.3301 32 -32v-96zM128 416v-96h64v96h-64zM288 -32v256
c0 35.29 -28.71 64 -64 64h-128c-35.29 0 -64 -28.71 -64 -64v-256h256zM160 208c44.1797 0 80 -35.8203 80 -80s-35.8203 -80 -80 -80s-80 35.8203 -80 80s35.8203 80 80 80zM160 80c26.4697 0 48 21.5303 48 48s-21.5303 48 -48 48s-48 -21.5303 -48 -48
s21.5303 -48 48 -48zM488 368c-13.25 0 -24 10.75 -24 24c0 13.2598 10.75 24 24 24s24 -10.7402 24 -24c0 -13.25 -10.75 -24 -24 -24zM488 320c13.25 0 24 -10.7402 24 -24c0 -13.25 -10.75 -24 -24 -24s-24 10.75 -24 24c0 13.2598 10.75 24 24 24zM392 416
c13.25 0 24 -10.7402 24 -24c0 -13.25 -10.75 -24 -24 -24s-24 10.75 -24 24c0 13.2598 10.75 24 24 24zM392 320c13.25 0 24 -10.7402 24 -24c0 -13.25 -10.75 -24 -24 -24s-24 10.75 -24 24c0 13.2598 10.75 24 24 24zM296 416c13.25 0 24 -10.7402 24 -24
c0 -13.25 -10.75 -24 -24 -24s-24 10.75 -24 24c0 13.2598 10.75 24 24 24zM488 224c13.25 0 24 -10.7402 24 -24c0 -13.25 -10.75 -24 -24 -24s-24 10.75 -24 24c0 13.2598 10.75 24 24 24z" />
    <glyph glyph-name="swimmer" unicode="&#xf5c4;" horiz-adv-x="640" 
d="M128 160c-53.0195 0 -96 42.9805 -96 96s42.9805 96 96 96s96 -42.9805 96 -96s-42.9805 -96 -96 -96zM128 320c-35.29 0 -64 -28.71 -64 -64s28.71 -64 64 -64s64 28.71 64 64s-28.71 64 -64 64zM189.61 105.42c-2.19043 2.02051 -4.52051 3.58008 -6.81055 5.33984
l45.3799 64.8105c42.6201 60.9395 94.9404 113.779 155.5 157.029c13.0957 9.35254 29.1426 14.8975 46.4453 14.8975c5.77441 0 11.4062 -0.612305 16.835 -1.77734l99.8799 -17.9697c8.69043 -1.55957 14.4697 -9.88965 12.9102 -18.5898
c-1.58984 -8.71973 -10 -14.4404 -18.5898 -12.9102l-100.38 18.0801c-13.5605 2.91992 -27.5 0.0595703 -38.4707 -7.77051c-26.7793 -19.1191 -51.6699 -40.3994 -74.9092 -63.3096l167.76 -116.15c-12.3604 -1.58008 -24.3301 -6.37988 -35.4404 -14.3691l-154.55 107
c-18.0703 -19.79 -35.29 -40.4004 -50.7598 -62.5205l-42.2402 -60.29c-12.1104 1.81055 -19.8301 5.98047 -22.5596 8.5zM632 64c4.41992 0 8 -3.58008 8 -8v-16c0 -4.41992 -3.58008 -8 -8 -8h-24c-38.6201 0 -72.7197 12.1797 -96 31.8398
c-23.2803 -19.6494 -57.3799 -31.8398 -96 -31.8398s-72.7197 12.1797 -96 31.8398c-23.2803 -19.6494 -57.3799 -31.8398 -96 -31.8398s-72.7197 12.1797 -96 31.8398c-23.2803 -19.6494 -57.3799 -31.8398 -96 -31.8398h-24c-4.41992 0 -8 3.58008 -8 8v16
c0 4.41992 3.58008 8 8 8h24c26.04 0 45.7998 8.41992 56.0703 17.9004c8.89941 8.20996 19.6602 14.0996 31.7695 14.0996h16.2998c12.1104 0 22.8701 -5.88965 31.7705 -14.0996c10.29 -9.48047 30.0498 -17.9004 56.0898 -17.9004s45.7998 8.41992 56.0703 17.9004
c8.89941 8.20996 19.6602 14.0996 31.7695 14.0996h16.2998c12.1104 0 22.8701 -5.88965 31.7705 -14.0996c10.29 -9.48047 30.0498 -17.9004 56.0898 -17.9004s45.7998 8.41992 56.0703 17.9004c8.89941 8.20996 19.6602 14.0996 31.7695 14.0996h16.2998
c12.1104 0 22.8701 -5.88965 31.7705 -14.0996c10.29 -9.48047 30.0498 -17.9004 56.0898 -17.9004h24z" />
    <glyph glyph-name="swimming-pool" unicode="&#xf5c5;" horiz-adv-x="640" 
d="M632 0c4.41992 0 8 -3.58008 8 -8v-16c0 -4.41992 -3.58008 -8 -8 -8h-24c-38.6201 0 -72.7197 12.1797 -96 31.8398c-23.2803 -19.6494 -57.3799 -31.8398 -96 -31.8398s-72.7197 12.1797 -96 31.8398c-23.2803 -19.6494 -57.3799 -31.8398 -96 -31.8398
s-72.7197 12.1797 -96 31.8398c-23.2803 -19.6494 -57.3799 -31.8398 -96 -31.8398h-24c-4.41992 0 -8 3.58008 -8 8v16c0 4.41992 3.58008 8 8 8h24c26.04 0 45.7998 8.41992 56.0703 17.9004c8.89941 8.20996 19.6602 14.0996 31.7695 14.0996h16.2998
c12.1104 0 22.8701 -5.88965 31.7705 -14.0996c10.29 -9.48047 30.0498 -17.9004 56.0898 -17.9004s45.7998 8.41992 56.0703 17.9004c8.89941 8.20996 19.6602 14.0996 31.7695 14.0996h16.2998c12.1104 0 22.8701 -5.88965 31.7705 -14.0996
c10.29 -9.48047 30.0498 -17.9004 56.0898 -17.9004s45.7998 8.41992 56.0703 17.9004c8.89941 8.20996 19.6602 14.0996 31.7695 14.0996h16.2998c12.1104 0 22.8701 -5.88965 31.7705 -14.0996c10.29 -9.48047 30.0498 -17.9004 56.0898 -17.9004h24zM192 39.79
c-0.839844 0.55957 -1.88965 1.16992 -2.38965 1.63965c-9.16992 8.4502 -19.2002 14.3398 -29.6104 18.0703v276.5c0 44.1104 35.8799 80 80 80s80 -35.8896 80 -80v-8c0 -4.41992 -3.58008 -8 -8 -8h-16c-4.41992 0 -8 3.58008 -8 8v8c0 26.4697 -21.5303 48 -48 48
s-48 -21.5303 -48 -48v-112h224v112c0 44.1104 35.8799 80 80 80s80 -35.8896 80 -80v-8c0 -4.41992 -3.58008 -8 -8 -8h-16c-4.41992 0 -8 3.58008 -8 8v8c0 26.4697 -21.5303 48 -48 48s-48 -21.5303 -48 -48v-296.21c-5.03027 -3.33984 -15.6201 -7.79004 -32 -7.79004
v160h-224v-152.21z" />
    <glyph glyph-name="tint-slash" unicode="&#xf5c7;" horiz-adv-x="640" 
d="M320 -32c45.2002 0 85 21.5996 111.4 54.7998l25.6992 -20.2002c-32.1992 -40.5 -81.5996 -66.5 -137.1 -66.5c-97.2998 0 -176 79.7002 -176 178.101c0 42.2998 14.5996 74.7002 35.0996 107.399l25.3008 -20c-17.3008 -28 -28.4004 -54.0996 -28.4004 -87.5
c0 -80.5996 64.5996 -146.1 144 -146.1zM320 411.9c-12.5 -40.6006 -28.5 -74.1006 -45 -103l-25.4004 20c15.4004 27.3994 29.9004 58.7998 41.2002 97c4.5 14.8994 16.7998 22.0996 29.2002 22.0996c12.5996 0 25.2002 -7.5 29.2998 -22.0996
c43.7002 -147.7 133.3 -193.9 145.3 -289.9l-41.7998 32.9004c-9.7998 23.3994 -25.0996 45.5 -43.5 71.8994c-29.2002 41.7998 -65.5 93.6006 -89.2998 171.101zM637 -37.2002c3.5 -2.7998 4 -7.7998 1.2002 -11.2998l-10 -12.5
c-2.7002 -3.40039 -7.7998 -4 -11.2002 -1.2002l-614 483.5c-3.40039 2.7002 -4 7.7002 -1.2002 11.2002l10 12.5c2.7002 3.5 7.7998 4 11.2002 1.2002z" />
    <glyph glyph-name="tooth" unicode="&#xf5c9;" horiz-adv-x="448" 
d="M443.94 351.75c9.62988 -39.4697 2 -78.6904 -21.4707 -110.45c-20.5 -27.6797 -32.0293 -61.7803 -36.3096 -107.34c-3.62012 -38.6699 -9.24023 -89.5898 -20.9297 -140.31l-7.81055 -33.9707c-3.21973 -13.96 -15.4004 -23.6895 -29.6504 -23.6895
c-0.0146484 0 -0.0253906 0.0146484 -0.0400391 0.0146484c-14.2725 0 -26.2559 9.87305 -29.4893 23.1553l-34.5 138.41c-4.56055 18.3496 -20.9004 31.1602 -39.7402 31.1602s-35.1797 -12.8105 -39.7402 -31.1406l-34.5 -138.439
c-3.34961 -13.6104 -15.5 -23.1602 -29.5293 -23.1602c-14.25 0 -26.4307 9.74023 -29.6504 23.6895l-7.81055 33.9707c-11.6797 50.6992 -17.3096 101.619 -20.9297 140.31c-4.22949 45.5 -15.7803 79.6104 -36.29 107.34c-23.4697 31.7402 -31.1094 70.96 -21.5 110.44
c11.0098 45.2793 47.1299 82.0801 92 93.7197c27.8701 7.2002 57.2705 -1.05957 88.6104 -24.0195c0.0595703 -0.0400391 0.129883 -0.0400391 0.189453 -0.0800781l0.400391 -0.280273c33.3896 -24.4199 65.0098 -9.17969 77.5898 0.0595703
c31.5205 23.2207 61.1504 31.5605 89.0801 24.3408c44.9004 -11.6504 80.9902 -48.4502 92.0205 -93.7305zM396.73 260.34c17.75 23.9697 23.46 53.75 16.1592 83.8506c-8.2793 33.9795 -35.3701 61.5791 -68.9893 70.3096
c-18.3506 4.75 -38.5908 -1.78027 -62.0908 -19.1396c-10.7695 -7.91992 -23.2598 -13.3408 -36.3096 -16.4707l19.6904 -13.7793c7.21973 -5.08008 9 -15.0508 3.90918 -22.2803c-2.12988 -3.07031 -11.5801 -11.3701 -22.2793 -3.94043l-80.3301 56.25
c-0.0302734 0.0205078 -0.0400391 0.0507812 -0.0703125 0.0703125c-0.0595703 0.0498047 -0.139648 0.0800781 -0.209961 0.129883c-13.5703 10.0098 -37.8203 25.4102 -62.1201 19.1406c-33.6201 -8.7207 -60.6797 -36.3203 -68.9395 -70.3008
c-7.33008 -30.0898 -1.60059 -59.8701 16.1191 -83.8398c24.1406 -32.6299 37.6406 -71.8496 42.4502 -123.41c3.5 -37.6992 9 -87.2295 20.25 -136.09l7.81055 -33.9697l31.4297 138.45c8.12012 32.6299 37.25 55.4102 70.7998 55.4102s62.6807 -22.7803 70.7998 -55.4209
l32.9004 -132.06l6.33984 27.5898c11.25 48.8799 16.75 98.4102 20.25 136.11c4.83984 51.6299 18.3398 90.8301 42.4307 123.39z" />
    <glyph glyph-name="umbrella-beach" unicode="&#xf5ca;" horiz-adv-x="640" 
d="M443.48 429.92c123.659 -45.0098 199.46 -163.2 196.43 -287.86c-0.219727 -8.79004 -7.77051 -15.1396 -16.04 -15.1396c-1.83008 0 -3.7002 0.310547 -5.53027 0.980469l-236.75 86.1699l-89.5596 -246.07h275.97c4.41992 0 8 -3.58008 8 -8v-16
c0 -4.41992 -3.58008 -8 -8 -8h-560c-4.41992 0 -8 3.58008 -8 8v16c0 4.41992 3.58008 8 8 8h249.99l93.5498 257.01l-236.15 85.9502c-10.0898 3.66992 -14.1201 16.3203 -7.41992 24.71c56.6006 70.8799 142.971 112.33 233.44 112.33
c33.8994 0 68.3594 -5.80957 102.07 -18.0801zM148.17 333.08l113.55 -41.3301c29.2998 56.5898 66.1904 100.05 103.061 123.21c-7.76074 0.69043 -15.5498 1.04004 -23.3604 1.04004c-72.6504 0 -143.31 -30.6396 -193.25 -82.9199zM463.38 218.35
c8.24023 38.0508 11.3701 74.6699 7.70996 106.5c-4.58984 39.8408 -19 67.8809 -38.5596 75c-3.81055 1.38086 -7.78027 2.06055 -12.1299 2.06055c-35.5107 -0.00976562 -87.71 -44.8398 -128.141 -121.28zM494.18 207.14l113.311 -41.25
c-5.03027 81.4404 -47.2803 154.811 -112.61 200.891c12.9697 -41.3604 13.1299 -98.0703 -0.700195 -159.641z" />
    <glyph glyph-name="vector-square" unicode="&#xf5cb;" 
d="M486.4 320h-22.4004v-256h22.4004c14.1396 0 25.5996 -11.46 25.5996 -25.5996v-76.8008c0 -14.1396 -11.46 -25.5996 -25.5996 -25.5996h-76.8008c-14.1396 0 -25.5996 11.46 -25.5996 25.5996v22.4004h-256v-22.4004c0 -14.1396 -11.46 -25.5996 -25.5996 -25.5996
h-76.8008c-14.1396 0 -25.5996 11.46 -25.5996 25.5996v76.8008c0 14.1396 11.46 25.5996 25.5996 25.5996h22.4004v256h-22.4004c-14.1396 0 -25.5996 11.46 -25.5996 25.5996v76.8008c0 14.1396 11.46 25.5996 25.5996 25.5996h76.8008
c14.1396 0 25.5996 -11.46 25.5996 -25.5996v-22.4004h256v22.4004c0 14.1396 11.46 25.5996 25.5996 25.5996h76.8008c14.1396 0 25.5996 -11.46 25.5996 -25.5996v-76.8008c0 -14.1396 -11.46 -25.5996 -25.5996 -25.5996zM416 416v-64h64v64h-64zM32 352h64v64h-64v-64z
M96 -32v64h-64v-64h64zM480 32h-64v-64h64v64zM432 64v256h-22.4004c-14.1396 0 -25.5996 11.46 -25.5996 25.5996v22.4004h-256v-22.4004c0 -14.1396 -11.46 -25.5996 -25.5996 -25.5996h-22.4004v-256h22.4004c14.1396 0 25.5996 -11.46 25.5996 -25.5996v-22.4004h256
v22.4004c0 14.1396 11.46 25.5996 25.5996 25.5996h22.4004z" />
    <glyph glyph-name="weight-hanging" unicode="&#xf5cd;" 
d="M510.28 2.13965c8.33008 -33.3096 -14.6602 -66.1396 -46.2998 -66.1396h-415.95c-31.6504 0 -54.6406 32.8301 -46.3105 66.1396l73.0303 292.141c3.79004 15.1797 16.4404 25.7197 30.8701 25.7197h86.7402c-10.1299 13.4004 -16.3604 29.9102 -16.3604 48
c0 44.1797 35.8203 80 80 80s80 -35.8203 80 -80c0 -18.0898 -6.23047 -34.5996 -16.3604 -48.0098h86.7402c14.4297 0 27.0703 -10.5303 30.8701 -25.7207zM208 368c0 -26.4697 21.5303 -48 48 -48s48 21.5303 48 48s-21.5303 48 -48 48s-48 -21.5303 -48 -48z
M475.27 -25.9199c4.29004 5.49023 5.77051 13.0801 3.96094 20.2998l-73.0303 292.13c-0.19043 0.759766 -0.459961 1.2207 -0.660156 1.48047h-299.31c0.0898438 -0.160156 -0.220703 -0.650391 -0.430664 -1.48047l-73.0303 -292.13
c-1.80957 -7.21973 -0.329102 -14.8096 3.96094 -20.2998c2.16992 -2.78027 5.87988 -6.08008 11.2998 -6.08008h415.939c5.41992 0 9.12988 3.30957 11.2998 6.08008z" />
  </font>
</defs>
</svg>
