<?xml version="1.0" standalone="no"?>
<!DOCTYPE svg PUBLIC "-//W3C//DTD SVG 1.1//EN" "http://www.w3.org/Graphics/SVG/1.1/DTD/svg11.dtd" >
<svg xmlns="http://www.w3.org/2000/svg" xmlns:xlink="http://www.w3.org/1999/xlink" version="1.1">
<metadata>
Created by FontForge 20200314 at Wed Jan 13 11:59:39 2021
 By Robert Madole
Copyright (c) Font Awesome
</metadata>
<!-- Font Awesome Pro 5.15.2 by @fontawesome - https://fontawesome.com License - https://fontawesome.com/license (Commercial License) --><defs>
<font id="FontAwesome5Pro-Light" horiz-adv-x="640" >
  <font-face 
    font-family="Font Awesome 5 Pro Light"
    font-weight="300"
    font-stretch="normal"
    units-per-em="512"
    panose-1="2 0 3 3 0 0 0 0 0 0"
    ascent="448"
    descent="-64"
    bbox="-0.00372657 -64.0126 640.01 448.011"
    underline-thickness="25"
    underline-position="-50"
    unicode-range="U+0020-F8FF"
  />
    <missing-glyph />
    <glyph glyph-name="road" unicode="&#xf018;" horiz-adv-x="576" 
d="M279.47 256c-5.80957 0 -10.3496 6.16992 -9.73926 13.2598l3.75 43.5801c0.349609 4.07031 3.14941 7.16016 6.48926 7.16016h16.0498c3.34082 0 6.14062 -3.08984 6.49023 -7.16016l3.75 -43.5801c0.620117 -7.08984 -3.91992 -13.2598 -9.72949 -13.2598h-17.0605z
M273.45 144c-7.75 0 -13.79 8.23047 -12.9697 17.6797l4.12988 48c0.699219 8.14062 6.2998 14.3203 12.9795 14.3203h20.8301c6.67969 0 12.2803 -6.17969 12.9805 -14.3203l4.12988 -48c0.80957 -9.44922 -5.23047 -17.6797 -12.9805 -17.6797h-29.0996zM284.11 352
c-3.87988 0 -6.90039 4.12012 -6.49023 8.83984l1.37988 16c0.349609 4.07031 3.15039 7.16016 6.49023 7.16016h5.0293c3.34082 0 6.14062 -3.08984 6.49023 -7.16016l1.37988 -16c0.410156 -4.71973 -2.60938 -8.83984 -6.48926 -8.83984h-7.79004zM308.06 112
c6.68066 0 12.2803 -6.17969 12.9707 -14.3203l6.88965 -80c0.810547 -9.44922 -5.22949 -17.6797 -12.9795 -17.6797h-53.8906c-7.75 0 -13.79 8.23047 -12.9795 17.6797l6.88965 80c0.700195 8.14062 6.2998 14.3203 12.9805 14.3203h40.1191zM157.35 384
c5.33008 0 9.16992 -5.12012 7.68066 -10.2402l-105.65 -362.24c-1.99023 -6.8291 -8.25 -11.5195 -15.3604 -11.5195h-28c-11.4199 0 -19.1592 11.6201 -14.7695 22.1504l148.72 356.93c1.20312 2.89062 4.05273 4.91992 7.37695 4.91992h0.00292969zM574.75 22.1504
c4.40039 -10.5303 -3.34961 -22.1504 -14.7598 -22.1504h-28l-0.000976562 0.00195312c-7.27344 0 -13.4209 4.86621 -15.3594 11.5176l-105.649 362.24c-1.49023 5.12012 2.34961 10.2402 7.67969 10.2402c3.32422 -0.000976562 6.17383 -2.03027 7.37988 -4.91992z" />
    <glyph glyph-name="tachometer" unicode="&#xf0e4;" horiz-adv-x="576" 
d="M288 416c159.06 0 288 -128.94 288 -288c0 -52.7998 -14.25 -102.26 -39.0596 -144.8c-5.61035 -9.62012 -16.3008 -15.2002 -27.4404 -15.2002h-443c-11.1396 0 -21.8301 5.58008 -27.4404 15.2002c-24.8096 42.54 -39.0596 92 -39.0596 144.8
c0 159.06 128.94 288 288 288zM509.5 0c22.5 38.25 34.5 82.7402 34.5 128c0 141.16 -114.84 256 -256 256s-256 -114.84 -256 -256c0 -45.2598 12 -89.75 34.7002 -128.68zM365.22 319.12c8.37012 -2.88965 12.7803 -12.0098 9.91016 -20.3506l-51.7402 -149.479
c17.2402 -11.4697 28.6201 -31.04 28.6201 -53.29c0 -35.3496 -28.6494 -64 -64 -64c-35.3496 0 -64 28.6504 -64 64s28.6504 64 64 64c1.73047 0 3.35059 -0.379883 5.04004 -0.509766l51.8301 149.74c2.90039 8.33984 12.1504 12.6699 20.3398 9.88965zM288 64
c17.6396 0 32 14.3604 32 32s-14.3604 32 -32 32s-32 -14.3604 -32 -32s14.3604 -32 32 -32z" />
    <glyph glyph-name="laptop" unicode="&#xf109;" 
d="M624 80c8.83984 0 16 -7.16016 16 -16v-48c0 -44.1104 -35.8799 -80 -80 -80h-480c-44.1201 0 -80 35.8896 -80 80v48c0 8.83984 7.16016 16 16 16h48v272c0 35.2998 28.7197 64 64 64h384c35.2803 0 64 -28.7002 64 -64v-272h48zM96 352v-272h152.87
c4.05957 0 7.01953 -3.12988 7.91992 -7.08984c3.22949 -14.2598 15.9795 -24.9102 31.21 -24.9102h64c15.2305 0 27.9805 10.6504 31.21 24.9102c0.900391 3.95996 3.86035 7.08984 7.91992 7.08984h152.87v272c0 17.6699 -14.3301 32 -32 32h-384
c-17.6699 0 -32 -14.3301 -32 -32zM608 16v32h-194.75c-6.58984 -18.6201 -24.3701 -32 -45.25 -32h-96c-20.8701 0 -38.6602 13.3799 -45.25 32h-194.75v-32c0 -26.4697 21.5303 -48 48 -48h480c26.4697 0 48 21.5303 48 48z" />
    <glyph glyph-name="car" unicode="&#xf1b9;" horiz-adv-x="512" 
d="M120.81 200c24.1006 0 55.1904 -23.2402 55.2002 -47.9199c0 -11.9805 -5.84961 -32.0801 -45.0596 -32.0801l-10.1406 0.0996094c-25.96 0 -44.7998 16.8008 -44.7998 39.9502c0 23.1504 18.8398 39.9502 44.7998 39.9502zM130.95 144
c10.5195 0 21.0596 0.900391 21.0596 8.07031c0 9.56934 -18.7197 23.9297 -31.2002 23.9297c-12.4795 0 -20.7998 -6.37988 -20.7998 -15.9502c0 -9.56934 8.32031 -15.9502 20.7998 -15.9502c3.12012 0 6.63086 -0.0996094 10.1406 -0.0996094zM391.19 200
c25.96 0 44.7998 -16.7998 44.8096 -39.96c0 -23.1504 -18.8398 -39.9502 -44.7998 -39.9502l-10.1406 -0.0996094c-39.21 0 -45.0596 20.0996 -45.0596 32.0801c0 24.6895 31.0898 47.9297 55.1904 47.9297zM391.19 144.1c12.4795 0 20.7998 6.38086 20.7998 15.9502
c0 9.57031 -8.32031 15.9502 -20.7998 15.9502c-12.4805 0 -31.2002 -14.3604 -31.2002 -23.9297c0 -7.16992 10.5293 -8.07031 21.0596 -8.07031c3.50977 0 7.02051 0.0996094 10.1406 0.0996094zM505.99 285.04c7.33984 -11.8701 8 -26.4199 1.75977 -38.9199
l-5.78027 -11.5605c-3.95996 -7.88965 -9.91016 -14.1094 -17 -18.5693c6.91016 -11.75 11.0303 -25.3203 11.0303 -39.9805v-128.01c0 -26.4697 -21.5303 -48 -48 -48h-16c-26.4697 0 -48 21.5303 -48 48v16h-255.99v-16c0 -26.4697 -21.5293 -48 -48 -48h-16
c-26.4697 0 -48 21.5303 -48 48v128.01c0 14.6504 4.12012 28.2305 11.0303 39.9707c-7.08008 4.45996 -13.04 10.6699 -17 18.5498l-5.78027 11.6094c-6.25 12.4902 -5.58984 27.0303 1.75 38.9102s20.0605 18.9697 34.0303 18.9697h49.6602l8.06934 24.7607
c10.7305 32.9297 41.4209 55.2197 76.0605 55.2197h164.34c34.6299 0 65.3301 -22.29 76.0605 -55.2305l8.06934 -24.7598h49.6602c13.9697 0 26.6904 -7.08984 34.0303 -18.9697zM128.2 318.86l-20.4697 -62.8408h296.55l-20.4707 62.8506
c-6.45996 19.8096 -24.7998 33.1299 -45.6396 33.1299h-164.33c-20.8398 0 -39.1797 -13.3203 -45.6396 -33.1396zM38.6699 248.84c2.20996 -4.41992 6.44043 -6.93945 11.1504 -7.93945c6.91992 4.89453 14.7217 8.75586 23.0098 11.29l6.4502 19.8193h-39.2402
c-3.87012 0 -5.94043 -2.37988 -6.80957 -3.7998c-0.680664 -1.13965 -2.15039 -4.19043 -0.34082 -7.78027zM96.0098 48v16h-48v-16c0 -8.83008 7.19043 -16 16 -16h16c8.81055 0 16 7.16992 16 16zM463.99 48v16h-48v-16c0 -8.83008 7.18945 -16 16 -16h16
c8.80957 0 16 7.16992 16 16zM463.99 128.01v48c0 26.4707 -21.5303 48 -48 48h-319.98c-26.4697 0 -48 -21.5293 -48 -48v-80h415.98v32zM479.11 260.42c1.81934 3.61035 0.349609 6.65039 -0.34082 7.79004c-0.869141 1.41992 -2.93945 3.7998 -6.80957 3.7998h-39.2402
l6.4502 -19.8193c8.32031 -2.53027 16.0703 -6.39062 23.0098 -11.29c4.70996 1 8.94043 3.5293 11.1504 7.96973z" />
    <glyph glyph-name="binoculars" unicode="&#xf1e5;" horiz-adv-x="512" 
d="M511.67 44l0.330078 -28c0 -26.5098 -21.4902 -48 -48 -48h-128c-26.5098 0 -48 21.4902 -48 48v144h-64v-144c0 -26.5098 -21.4902 -48 -48 -48h-128c-26.5098 0 -48 21.4902 -48 48l0.330078 28c3.45996 129.77 61.0596 182.16 63.5801 275.98
c0.479492 17.6396 14.2803 32.0195 31.9297 32.0195h0.160156v32c0 17.6699 14.3301 32 32 32h64c17.6699 0 32 -14.3301 32 -32v-32h64v32c0 17.6699 14.3301 32 32 32h64c17.6699 0 32 -14.3301 32 -32v-32h0.160156c17.6494 0 31.4502 -14.3799 31.9199 -32.0195
c2.53027 -93.8203 60.1299 -146.211 63.5898 -275.98zM320 384v-32h64v32h-64zM128 384v-32h64v32h-64zM192 16v48h-158.52c-0.540039 -6.74023 -1.48047 -48 -1.48047 -48c0 -8.82031 7.17969 -16 16 -16h128c8.82031 0 16 7.17969 16 16zM192 96v224h-96.1602
c-1.24023 -49.2998 -15.71 -88.1797 -29.7002 -125.78c-11.0693 -29.7295 -22.2793 -60.3398 -28.6592 -98.2197h154.52zM224 192h64v128h-64v-128zM320 320v-224h154.52c-6.37988 37.8896 -17.5996 68.4902 -28.6592 98.2197
c-13.9902 37.6006 -28.46 76.4805 -29.7607 124.9l0.0605469 0.879883h-96.1602zM480 16c0 0 -0.94043 41.2598 -1.48047 48h-158.52v-48c0 -8.82031 7.17969 -16 16 -16h128c8.82031 0 16 7.17969 16 16z" />
    <glyph glyph-name="bell-slash" unicode="&#xf1f6;" 
d="M320 -32c17.7002 0 32 14.4004 32 32h32c0 -35.2998 -28.7002 -64 -64 -64s-64 28.7002 -64 64h32c0 -17.5996 14.2998 -32 32 -32zM320 384c-42.2998 0 -79.5996 -19.7998 -102.8 -49.9004l-24.7002 19.4004c27.2998 34.7002 67.5996 56.7002 111.5 60.9004v17.5996
c0 8.7998 7.2002 16 16 16s16 -7.2002 16 -16v-17.5996c80.5996 -7.80078 144 -72.7002 144 -152.301c0 -94.3994 21.2998 -122.3 49.2998 -148.899c10.2002 -9.7002 15.1006 -22.9004 14.4004 -36.2998l-70.7002 55.6992c-15.5996 27.9004 -25 66.3008 -25 129.5
c0 67.4004 -57.2002 121.9 -128 121.9zM637 -37.2002c3.5 -2.7998 4 -7.7998 1.2002 -11.2998l-10 -12.5c-2.7002 -3.40039 -7.7998 -4 -11.2002 -1.2002l-614 483.5c-3.40039 2.7002 -4 7.7002 -1.2002 11.2002l10 12.5c2.7002 3.5 7.7998 4 11.2002 1.2002zM144 64h261
l40.5996 -32h-301.6c-19.7998 0 -37.2998 11.7998 -44.5996 30c-7.2002 17.7998 -2.80078 37.9004 11.1992 51.2002c27.4004 26.0996 48.4004 53.7998 49.2002 143.8l31.2002 -24.5996c-4.40039 -79.4004 -27.0996 -112.7 -58.2998 -142.4
c-10 -9.5 -2.90039 -26 11.2998 -26z" />
    <glyph glyph-name="street-view" unicode="&#xf21d;" horiz-adv-x="512" 
d="M368 87.8496c85.1797 -12.9893 144 -40.2393 144 -71.8496c0 -44.1797 -114.62 -80 -256 -80s-256 35.8203 -256 80c0 31.6104 58.8203 58.8604 144 71.8604v-30.8701c-62.2695 -8.43066 -104 -23.6104 -104 -40.9902c0 -26.5098 96.71 -48.0098 216 -48.0098
s216 21.4902 216 48c0 17.3896 -41.7305 32.5693 -104 40.9902v30.8691zM176 128c-26.4697 0 -48 21.5303 -48 48v64c0 34.5303 22.1104 63.75 52.8203 74.9297c-7.95996 13.2305 -12.8203 28.5303 -12.8203 45.0703c0 48.5195 39.4805 88 88 88s88 -39.4805 88 -88
c0 -16.54 -4.86035 -31.8398 -12.8203 -45.0703c30.71 -11.1797 52.8203 -40.3994 52.8203 -74.9297v-64c0 -26.4697 -21.5303 -48 -48 -48v-80c0 -26.4697 -21.5303 -48 -48 -48h-64c-26.4697 0 -48 21.5303 -48 48v80zM256 416c-30.9297 0 -56 -25.0703 -56 -56
s25.0703 -56 56 -56s56 25.0703 56 56s-25.0703 56 -56 56zM160 240v-64c0 -8.83008 7.19043 -16 16 -16h32v-112c0 -8.83008 7.19043 -16 16 -16h64c8.80957 0 16 7.16992 16 16v112h32c8.80957 0 16 7.16992 16 16v64c0 25.7598 -20.4404 46.6797 -45.9297 47.79
c-14.2402 -9.90039 -31.4502 -15.79 -50.0703 -15.79s-35.8301 5.88965 -50.0703 15.79c-25.4893 -1.11035 -45.9297 -22.0303 -45.9297 -47.79z" />
    <glyph glyph-name="map-pin" unicode="&#xf276;" horiz-adv-x="288" 
d="M144 448c79.5303 0 144 -64.4697 144 -144c0 -74.0498 -56.0996 -134.34 -128 -142.39v-206.431l-11.0098 -16.5098c-2.37012 -3.55957 -7.60059 -3.55957 -9.98047 0l-11.0098 16.5098v206.431c-71.9004 8.05957 -128 68.3398 -128 142.39
c0 79.5303 64.4697 144 144 144zM144 192c61.7598 0 112 50.2402 112 112s-50.2402 112 -112 112s-112 -50.2402 -112 -112s50.2402 -112 112 -112zM144 384c8.83984 0 16 -7.16016 16 -16s-7.16016 -16 -16 -16c-26.4697 0 -48 -21.5303 -48 -48
c0 -8.83984 -7.16016 -16 -16 -16s-16 7.16016 -16 16c0 44.1104 35.8799 80 80 80z" />
    <glyph glyph-name="map-signs" unicode="&#xf277;" horiz-adv-x="512" 
d="M441.37 256h-169.37v-32h184c13.25 0 24 -13.4297 24 -30v-100c0 -16.5703 -10.75 -30 -24 -30h-184v-120c0 -4.41992 -3.58008 -8 -8 -8h-16c-4.41992 0 -8 3.58008 -8 8v120h-169.37c-8.49023 0 -16.6299 4.21973 -22.6299 11.7197l-43.3096 54.1299
c-6.25 7.82031 -6.25 20.4805 0 28.29l43.3096 54.1504c6 7.5 14.1396 11.71 22.6299 11.71h169.37v32h-184c-13.25 0 -24 13.4297 -24 30v100c0 16.5703 10.75 30 24 30h184v24c0 4.41992 3.58008 8 8 8h16c4.41992 0 8 -3.58008 8 -8v-24h169.37
c8.49023 0 16.6299 -4.20996 22.6299 -11.71l43.3096 -54.1396c6.25 -7.82031 6.25 -20.4805 0 -28.29l-43.3096 -54.1406c-6.00977 -7.50977 -14.1396 -11.7197 -22.6299 -11.7197zM447.75 96l0.240234 96h-375.19l-38.4502 -48l38.4004 -48h375zM64.25 384l-0.240234 -96
h375.19l38.4502 48l-38.4004 48h-375z" />
    <glyph glyph-name="tachometer-alt" unicode="&#xf3fd;" horiz-adv-x="576" 
d="M288 296c-13.2598 0 -24 10.7402 -24 24s10.7402 24 24 24s24 -10.7402 24 -24s-10.7402 -24 -24 -24zM152 288c13.2598 0 24 -10.7402 24 -24s-10.7402 -24 -24 -24s-24 10.7402 -24 24s10.7402 24 24 24zM424 288c13.2598 0 24 -10.7402 24 -24s-10.7402 -24 -24 -24
s-24 10.7402 -24 24s10.7402 24 24 24zM480 152c13.2598 0 24 -10.7402 24 -24s-10.7402 -24 -24 -24s-24 10.7402 -24 24s10.7402 24 24 24zM288 416c159.06 0 288 -128.94 288 -288c0 -52.7998 -14.25 -102.26 -39.0596 -144.8
c-5.61035 -9.62012 -16.3008 -15.2002 -27.4404 -15.2002h-443c-11.1396 0 -21.8301 5.58008 -27.4404 15.2002c-24.8096 42.54 -39.0596 92 -39.0596 144.8c0 159.06 128.94 288 288 288zM509.5 0c22.5 38.25 34.5 82.7402 34.5 128c0 141.16 -114.84 256 -256 256
s-256 -114.84 -256 -256c0 -45.2598 12 -89.75 34.7002 -128.68zM96 152c13.2598 0 24 -10.7402 24 -24s-10.7402 -24 -24 -24s-24 10.7402 -24 24s10.7402 24 24 24zM365.22 319.12c8.37012 -2.88965 12.7803 -12.0098 9.91016 -20.3506l-51.7402 -149.479
c17.2402 -11.4697 28.6201 -31.04 28.6201 -53.29c0 -35.3496 -28.6494 -64 -64 -64c-35.3496 0 -64 28.6504 -64 64s28.6504 64 64 64c1.73047 0 3.35059 -0.379883 5.04004 -0.509766l51.8301 149.74c2.90039 8.33984 12.1504 12.6699 20.3398 9.88965zM288 64
c17.6396 0 32 14.3604 32 32s-14.3604 32 -32 32s-32 -14.3604 -32 -32s14.3604 -32 32 -32z" />
    <glyph glyph-name="route" unicode="&#xf4d7;" horiz-adv-x="512" 
d="M432 96c44.0996 0 80 -35.9004 80 -80s-35.9004 -80 -80 -80h-336s-96 107 -96 160s43 96 96 96s96 -43 96 -96c0 -34.5996 -40.9004 -92.2002 -69.2998 -128h309.3c26.5 0 48 21.5 48 48s-21.5 48 -48 48h-112c-44.0996 0 -80 35.9004 -80 80s35.9004 80 80 80h69.2998
c-28.3994 35.7998 -69.2998 93.4004 -69.2998 128c0 53 43 96 96 96s96 -43 96 -96s-96 -160 -96 -160h-96c-26.5 0 -48 -21.5 -48 -48s21.5 -48 48 -48h112zM352 352c0 -19.7998 30 -67.7998 64 -110.4c33.9004 42.4004 64 90 64 110.4c0 35.2998 -28.7002 64 -64 64
s-64 -28.7002 -64 -64zM32 96c0 -19.7998 30 -67.7998 64 -110.4c33.9004 42.4004 64 90 64 110.4c0 35.2998 -28.7002 64 -64 64s-64 -28.7002 -64 -64zM96 112c21.0996 0 21.2002 -32 0 -32c-21.0996 0 -21.2002 32 0 32zM416 368c21.0996 0 21.2002 -32 0 -32
c-21.0996 0 -21.2002 32 0 32z" />
    <glyph glyph-name="book-open" unicode="&#xf518;" horiz-adv-x="576" 
d="M514.91 416c33.6895 0 61.0898 -26.4697 61.0801 -59.0098v-296.71c0 -31.4102 -25.4102 -57.2705 -57.8203 -58.8906c-34.7998 -1.75977 -122.05 -8.25977 -181.92 -30.3701c-5.26953 -1.93945 -10.6396 -3.01953 -16.2598 -3.01953h-64
c-5.61035 0 -10.9805 1.07031 -16.25 3.01953c-59.8604 22.1104 -147.12 28.6104 -181.891 30.3701c-32.4395 1.62012 -57.8496 27.4902 -57.8496 58.9004v296.7c0 32.54 27.4004 59.0098 61.0898 59.0098h0.160156c24.0703 -0.120117 144.74 -8.83008 219.56 -48.0898
c4.05078 -2.12012 10.3301 -2.12012 14.3809 0c74.8096 39.2598 195.479 47.9697 219.56 48.0898h0.160156zM272 15v202.54l-0.129883 100.32c-0.0205078 12.0898 -7.40039 22.8398 -18.6602 27.8398c-69.6602 30.9102 -172.84 38.1895 -192.12 38.29
c-16.0303 0 -29.0898 -12.1104 -29.0898 -27v-296.7c0 -14.3301 12.0498 -26.1602 27.4404 -26.9297c42.9199 -2.18066 129.46 -9.30078 191.909 -32.5107c1.80078 -0.669922 3.62012 -0.979492 5.39062 -0.979492c8.12012 0 15.2598 6.51953 15.2598 15.1299zM544 60.29
l-0.00976562 296.7c0 14.8896 -13.0605 27 -29.0898 27c-19.2803 -0.100586 -122.46 -7.37988 -192.12 -38.29c-11.2607 -5 -18.6504 -15.75 -18.6602 -27.8398l-0.129883 -100.32v-202.54c0 -8.61035 7.14941 -15.1299 15.2598 -15.1299
c1.76953 0 3.58984 0.30957 5.38965 0.979492c62.4502 23.21 148.99 30.3301 191.91 32.5107c15.4004 0.769531 27.4502 12.5996 27.4502 26.9297z" />
    <glyph glyph-name="air-freshener" unicode="&#xf5d0;" horiz-adv-x="416" 
d="M406.45 121.73c9.46973 -9.79004 12.1299 -23.4609 6.92969 -35.6602c-5.64941 -13.3906 -19.4297 -22.0508 -35.0596 -22.0508h-146.32v-32h120.01c8.83984 0 16 -7.15918 16 -16v-64.0195c0 -8.83984 -7.16016 -16 -16 -16h-288.02c-8.83984 0 -16 7.16016 -16 16
v64.0098c0 8.83984 7.16016 16 16 16h120.01v32h-146.33c-15.6201 0 -29.4004 8.66016 -35.0596 22.0498c-5.19043 12.2002 -2.53027 25.8701 6.93945 35.6709l68 70.2793h-11.4697c-13.6201 0 -25.9297 7.7998 -31.3105 19.8604
c-5.18945 11.6104 -3.05957 24.7803 5.53027 34.3604l122.84 137.13c-1.92969 5.19922 -3.13965 10.7598 -3.13965 16.6396c0 26.5098 21.4902 48 48 48s48 -21.4902 48 -48c0 -5.87988 -1.2002 -11.4404 -3.12988 -16.6396l122.83 -137.15
c8.58984 -9.55957 10.7197 -22.7295 5.53027 -34.3398c-5.37012 -12.0605 -17.6807 -19.8604 -31.3105 -19.8604h-11.4697zM208 416c-8.82031 0 -16 -7.17969 -16 -16s7.17969 -16 16 -16s16 7.17969 16 16s-7.17969 16 -16 16zM336.01 0.0195312h-256.02v-32.0195h256.02
v32.0195zM378.32 96.0195c4.12988 0 5.66016 2.1709 5.68945 2.74023l-107.96 111.69c-4.91016 5.08008 -1.30957 13.5596 5.75 13.5596h68.1104l-118.93 134.09c-6.85059 -3.76953 -14.6104 -6.09961 -22.9805 -6.09961c-8.7998 0 -16.9404 2.54004 -24.0303 6.67969
l-119.85 -133.8l70.3203 -0.679688c7.01953 -0.0605469 10.5596 -8.50977 5.66992 -13.5605l-107.561 -111.149c-0.530273 -1.2998 1 -3.4707 5.12988 -3.4707h340.641z" />
    <glyph glyph-name="apple-alt" unicode="&#xf5d1;" horiz-adv-x="448" 
d="M224.48 320c-9.56055 0 -15.7305 0.75 -15.7305 0.75s-7.82031 64.46 27.1104 99.3896c24.1201 24.1299 62.3301 27.8604 83.6592 27.8604c9.56055 0 15.7402 -0.75 15.7402 -0.75s7.82031 -64.46 -27.1094 -99.3896
c-24.1309 -24.1299 -62.3408 -27.8604 -83.6699 -27.8604zM258.49 397.52c-11.0498 -11.0498 -15.8398 -28.8193 -17.6299 -44.5996c14.6094 1.65039 33.1592 6.08008 44.6592 17.5703c11.0508 11.0596 15.8506 28.8994 17.6406 44.5996
c-14.6201 -1.64941 -33.1797 -6.07031 -44.6699 -17.5703zM351.18 318.85c81.2607 -14.2998 107.42 -124.489 93.1006 -205.6c-14.3203 -81.1104 -61.29 -177.25 -156.681 -177.25c-12.0498 0 -24.1094 4.61035 -34.4297 10.3398
c-9.04004 5.00977 -19.0996 7.52051 -29.1602 7.52051c-10.0596 0 -20.1201 -2.5 -29.1602 -7.52051c-10.3193 -5.72949 -22.3799 -10.3398 -34.4395 -10.3398c-95.3906 0 -142.37 96.1396 -156.69 177.25c-14.3193 81.1104 11.8506 191.3 93.0898 205.6
c4.45996 0.790039 9.34082 1.15039 14.5303 1.15039c36.1699 0 87.2002 -17.5703 112.66 -31.96c25.46 14.3896 76.4902 31.96 112.65 31.96c5.18945 0 10.0693 -0.360352 14.5293 -1.15039zM412.76 118.81c6.54004 37.04 3.12988 78.5303 -9.12988 110.99
c-8.72949 23.1299 -25.8799 51.8906 -58 57.54c-14.4395 2.5498 -58.71 -0.490234 -121.63 -36.0498c-63.3398 35.79 -107.23 38.5898 -121.64 36.0498c-32.1006 -5.64941 -49.2607 -34.4102 -57.9902 -57.54c-12.2598 -32.46 -15.6699 -73.9502 -9.12988 -110.979
c4.4502 -25.1904 31.3799 -150.82 125.17 -150.811c4.84961 0 11.5596 2.24023 18.8994 6.32031c13.6201 7.5498 29.0703 11.54 44.6904 11.54s31.0703 -3.99023 44.6797 -11.54c7.35059 -4.08984 14.0605 -6.33008 18.9102 -6.33008c93.79 0 120.73 125.63 125.17 150.81z
" />
    <glyph glyph-name="backpack" unicode="&#xf5d4;" horiz-adv-x="448" 
d="M320 384c70.6904 0 128 -57.3096 128 -128v-256c0 -35.3496 -28.6504 -64 -64 -64h-320c-35.3496 0 -64 28.6504 -64 64v256c0 70.6904 57.3096 128 128 128h16v16c0 26.4697 21.5303 48 48 48h64c26.4697 0 48 -21.5303 48 -48v-16h16zM176 400v-16h96v16
c0 8.83008 -7.19043 16 -16 16h-64c-8.80957 0 -16 -7.16992 -16 -16zM336 -32v96h-224v-96h224zM336 96v32c0 17.6699 -14.3301 32 -32 32h-160c-17.6699 0 -32 -14.3301 -32 -32v-32h224zM416 0v256c0 52.9404 -43.0596 96 -96 96h-192c-52.9404 0 -96 -43.0596 -96 -96
v-256c0 -17.6396 14.3604 -32 32 -32h16v160c0 35.29 28.71 64 64 64h160c35.29 0 64 -28.71 64 -64v-160h16c17.6396 0 32 14.3604 32 32zM312 288c4.41992 0 8 -3.58008 8 -8v-16c0 -4.41992 -3.58008 -8 -8 -8h-176c-4.41992 0 -8 3.58008 -8 8v16
c0 4.41992 3.58008 8 8 8h176z" />
    <glyph glyph-name="bell-school" unicode="&#xf5d5;" horiz-adv-x="512" 
d="M208 320c44.1104 0 80 -35.8896 80 -80s-35.8896 -80 -80 -80s-80 35.8896 -80 80s35.8896 80 80 80zM208 192c26.5098 0 48 21.4902 48 48s-21.4902 48 -48 48s-48 -21.4902 -48 -48s21.4902 -48 48 -48zM464 144c26.4697 0 48 -21.5303 48 -48
c0 -21.3301 -14.0801 -39.2402 -33.3604 -45.4697c-6.44922 -37.6904 -39.1299 -66.5303 -78.6396 -66.5303h-48v-16c0 -17.6699 -14.3301 -32 -32 -32h-224c-17.6699 0 -32 14.3301 -32 32v122.12c-39.3799 37.8496 -64 90.9502 -64 149.88c0 114.88 93.1201 208 208 208
s208 -93.1201 208 -208c0 -58.9404 -24.6201 -112.03 -64 -149.88v-74.1201h48c22.1299 0 40.6201 15.1201 46.1504 35.5195c-17.6406 7.11035 -30.1504 24.3301 -30.1504 44.4805c0 26.4697 21.5303 48 48 48zM320 -32v96.9102
c-32.3496 -20.7305 -70.7197 -32.9102 -112 -32.9102s-79.6504 12.1797 -112 32.9102v-96.9102h224zM208 64c97.0498 0 176 78.9502 176 176s-78.9502 176 -176 176s-176 -78.9502 -176 -176s78.9502 -176 176 -176zM464 80c8.80957 0 16 7.16992 16 16s-7.19043 16 -16 16
s-16 -7.16992 -16 -16s7.19043 -16 16 -16z" />
    <glyph glyph-name="bell-school-slash" unicode="&#xf5d6;" 
d="M272 416c-41.5 0 -79.5996 -14.5 -109.8 -38.7002l-25.7002 20.2998c36.4004 31.3008 83.7002 50.4004 135.5 50.4004c114.9 0 208 -93.0996 207.9 -208c0 -34.2002 -8.5 -66.2998 -23.1006 -94.7002l-25.5996 20.2002c10.7002 22.7002 16.7998 47.9004 16.7998 74.5
c0 97 -79 176 -176 176zM242.4 314.2c9.19922 3.59961 19.0996 5.7998 29.5996 5.89941c44.0996 0 80 -35.8994 80 -80c0 -3.7998 -0.599609 -7.5 -1.09961 -11.1992l-33.6006 26.3994c-6 17.6006 -21.7998 30.6006 -41.0996 32.2998zM528 112
c-7 0 -12.7998 -4.59961 -14.9004 -10.9004l-25.6992 20.2002c8.5 13.6006 23.3994 22.7002 40.5996 22.7002c26.5 0 48 -21.5 48 -48c0 -13.2002 -5.7002 -24.5996 -14.2998 -33.2002l-25.2998 19.9004c4.39941 2.89941 7.59961 7.59961 7.59961 13.2998
c0 8.7998 -7.2002 16 -16 16zM637 -37.2002c3.5 -2.7998 4 -7.7998 1.2002 -11.2998l-10 -12.5c-2.7002 -3.40039 -7.7998 -4 -11.2002 -1.2002l-614 483.5c-3.40039 2.7002 -4 7.7002 -1.2002 11.2002l10 12.5c2.7002 3.5 7.7998 4 11.2002 1.2002zM464 16
c0.599609 0 1 0.200195 1.5 0.299805l31.5 -24.7998c-10.0996 -4.59961 -21.0996 -7.5 -33 -7.5h-48v-16c0 -17.7002 -14.2998 -32 -32 -32h-224c-17.7002 0 -32 14.2998 -32 32v122.1c-39.4004 37.9004 -64 91 -64 149.9c0 28.2998 5.7998 55.2998 16 79.9004
l26.4004 -20.8008c-6.60059 -18.5 -10.4004 -38.2998 -10.4004 -59.0996c0 -97 79 -176 176 -176c35.5 0 68.5996 10.7002 96.2998 28.9004l47.7002 -37.6006v-39.2998h48zM384 16v48.9004c-32.2998 -20.7002 -70.7002 -32.9004 -112 -32.9004
s-79.5996 12.2002 -112 32.9004v-96.9004h224v48zM281.8 161c-3.2998 -0.400391 -6.39941 -1 -9.7998 -1c-41 0 -74.5 31.2002 -79.0996 71z" />
    <glyph glyph-name="bone" unicode="&#xf5d7;" 
d="M600.44 192c28.8896 -17.75 39.5596 -44.3398 39.5596 -77.0498c0 -45.7305 -38.0303 -82.9502 -84.8096 -82.9502c-36.5 0 -68.8203 22.75 -80.4102 56.5898c-7.58984 22.6299 -7.20996 23.4102 -18.7803 23.4102h-272c-11.5703 0 -11.1904 -0.780273 -18.7803 -23.4102
c-11.5996 -33.8398 -43.9102 -56.5898 -80.4102 -56.5898c-46.7793 0 -84.8096 37.2197 -84.8096 82.9502c0 32.71 10.6699 59.2998 39.5596 77.0498c-28.8896 17.75 -39.5596 44.3398 -39.5596 77.0498c0 45.7305 38.0303 82.9502 84.8096 82.9502
c36.5 0 68.8105 -22.75 80.4102 -56.5898c7.58984 -22.6299 7.20996 -23.4102 18.7803 -23.4102h272c11.5703 0 11.1904 0.780273 18.7803 23.4102c11.5996 33.8398 43.9102 56.5898 80.4102 56.5898c46.7793 0 84.8096 -37.2197 84.8096 -82.9502
c0 -32.71 -10.6699 -59.2998 -39.5596 -77.0498zM555.19 64c29.1191 0 52.8096 22.8604 52.8096 50.9502c0 23.4395 -6.87988 41.5898 -29.0303 52.3594v0.0205078c-9.58984 4.65039 -15.5293 14.1201 -15.5293 24.6699s5.93945 20.0098 15.5293 24.6699v0.0205078
c22.1504 10.7695 29.0303 28.9199 29.0303 52.3594c0 28.0898 -23.6904 50.9502 -52.8096 50.9502c-22.8203 0 -42.9707 -14.0498 -50.1602 -34.9697c-8.90039 -26.6299 -16.5605 -45.0303 -49.0303 -45.0303h-272c-32.4697 0 -40.1299 18.4004 -49.0303 45.0303
c-7.18945 20.9199 -27.3496 34.9697 -50.1602 34.9697c-29.1191 0 -52.8096 -22.8604 -52.8096 -50.9502c0 -23.4395 6.87988 -41.5898 29.0303 -52.3594v-0.0205078c9.58984 -4.65039 15.5293 -14.1201 15.5293 -24.6699s-5.93945 -20.0098 -15.5293 -24.6699v-0.0205078
c-22.1504 -10.7695 -29.0303 -28.9199 -29.0303 -52.3594c0 -28.0898 23.6904 -50.9502 52.8096 -50.9502c22.8105 0 42.9707 14.0498 50.1602 34.9697c8.90039 26.6299 16.5605 45.0303 49.0303 45.0303h272c32.4697 0 40.1299 -18.4004 49.0303 -45.0303
c7.18945 -20.9199 27.3496 -34.9697 50.1602 -34.9697z" />
    <glyph glyph-name="bone-break" unicode="&#xf5d8;" 
d="M600.44 288c28.8896 -17.75 39.5596 -44.3398 39.5596 -77.0498c0 -45.7305 -38.0303 -82.9502 -84.8096 -82.9502c-36.5 0 -68.8203 22.75 -80.4102 56.5898c-7.58984 22.6299 -7.20996 23.4102 -18.7803 23.4102h-88c0 17.6699 14.3301 32 32 32h56
c32.4697 0 40.1299 -18.4004 49.0303 -45.0303c7.18945 -20.9199 27.3496 -34.9697 50.1602 -34.9697c29.1191 0 52.8096 22.8604 52.8096 50.9502c0 23.4395 -6.87988 41.5898 -29.0303 52.3594v0.0205078c-9.58984 4.65039 -15.5293 14.1201 -15.5293 24.6699
c0 10.54 5.93945 20.0098 15.5293 24.6699v0.0205078c22.1504 10.7695 29.0303 28.9199 29.0303 52.3594c0 28.0898 -23.6904 50.9502 -52.8096 50.9502c-22.8203 0 -42.9707 -14.0498 -50.1602 -34.9697c-8.90039 -26.6299 -16.5605 -45.0303 -49.0303 -45.0303h-120
c0 17.6699 14.3301 32 32 32h88c11.5703 0 11.1904 0.780273 18.7803 23.4102c11.5996 33.8398 43.9102 56.5898 80.4102 56.5898c46.7793 0 84.8096 -37.2197 84.8096 -82.9502c0 -32.71 -10.6699 -59.2998 -39.5596 -77.0498zM327.26 150.12l-62.21 -62.2402
c-8.17969 -8.17969 -7.35938 -8.46973 3.27051 -29.8301c15.7295 -32.1299 8.96973 -71.0596 -16.8398 -96.8701c-33.0801 -33.0801 -86.29 -33.6494 -118.631 -1.30957c-23.1299 23.1299 -34.3896 49.4795 -26.5098 82.46
c-32.9795 -7.87012 -59.3301 3.37988 -82.46 26.5098c-32.3301 32.3398 -31.7598 85.5498 1.32031 118.63c25.7998 25.8105 64.7402 32.5703 96.8496 16.8398c21.3604 -10.6299 21.6504 -11.4492 29.8301 -3.26953l62.2305 62.2197c12.4893 12.5 32.75 12.5 45.25 0
l-84.8506 -84.8496c-22.96 -22.96 -41.3799 -15.3604 -66.5098 -2.83008c-19.8701 9.70996 -44.0596 5.38965 -60.1904 -10.7402c-20.5898 -20.5898 -21.1797 -53.5 -1.30957 -73.3701c16.5703 -16.5801 34.2695 -24.5498 57.5498 -16.5l0.00976562 -0.00976562
c10.0801 3.5 20.9707 1 28.4307 -6.45996c7.4502 -7.45996 9.9502 -18.3496 6.45996 -28.4297l0.00976562 -0.0107422c-8.0498 -23.2793 -0.0800781 -40.9697 16.5 -57.5498c19.8604 -19.8701 52.7705 -19.2793 73.3701 1.31055
c16.1299 16.1299 20.4502 40.3096 10.7402 60.1895c-12.5303 25.1201 -20.1299 43.5498 2.83008 66.5098l39.5996 39.6006c12.5 12.5 32.7598 12.5 45.2598 0z" />
    <glyph glyph-name="book-alt" unicode="&#xf5d9;" horiz-adv-x="448" 
d="M448 56c0 -10 -6.2002 -18.5996 -14.9004 -22.2002c-3.59961 -16.0996 -4.39941 -45.5996 -0.399414 -65.7998h3.2998c6.59961 0 12 -5.40039 12 -12v-8c0 -6.59961 -5.40039 -12 -12 -12h-372c-35.3496 0 -64 28.6504 -64 64v368c0 44.2002 35.7998 80 80 80h344
c13.2998 0 24 -10.7002 24 -24v-368zM404.3 -32c-3.09961 20.4004 -2.89941 45.2002 0 64h-340.3c-17.6699 0 -32 -14.3301 -32 -32s14.3301 -32 32 -32h340.3zM416 64v352h-336c-26.5 0 -48 -21.5 -48 -48v-312.88c9.4502 5.5 20.2803 8.87988 32 8.87988h352z" />
    <glyph glyph-name="book-reader" unicode="&#xf5da;" horiz-adv-x="512" 
d="M459.91 255.98c20.3799 0 52.0898 -14.3408 52.0898 -50.2002v-178.05c0 -26.6807 -21.25 -48.7002 -48.3398 -50.1201c-34.4102 -1.82031 -120.561 -9.08008 -177 -37.4707c-4.67969 -2.35938 -9.66016 -3.5 -14.6602 -3.83984v-0.269531h-2.26953
c-0.0800781 0 -0.170898 -0.0302734 -0.260742 -0.0302734h-26.9395c-0.0800781 0 -0.169922 0.0302734 -0.260742 0.0302734h-2.26953v0.269531c-5 0.339844 -9.98047 1.46973 -14.6602 3.83984c-56.4395 28.3906 -142.59 35.6602 -177 37.4707
c-27.0898 1.41992 -48.3398 23.4297 -48.3398 50.1201v178.05c0 35.8594 31.71 50.21 52.1104 50.2002c0.699219 0 1.38965 -0.0107422 2.05957 -0.0507812c49.79 -2.83984 140.51 -13 201.84 -47.5693c61.3301 34.5693 152.04 44.7295 201.84 47.5693
c0.669922 0.0302734 1.36035 0.0507812 2.06055 0.0507812zM240 -31.3496v211.979c-58.4004 32.7803 -150.66 41.25 -187.67 43.3604c-3.92969 0 -9.92969 -1.57031 -14.4004 -5.00977c-4.16016 -3.2002 -5.92969 -7.15039 -5.92969 -13.2002v-178.05
c0 -9.66016 7.91992 -17.6406 18.0195 -18.1709c45.2705 -2.38965 130.11 -10.8691 189.7 -40.8398c0.100586 -0.0498047 0.19043 -0.0292969 0.280273 -0.0693359zM480 27.7305l-0.0195312 178.05c0 17.7197 -19.8906 18.21 -20.0908 18.21l-0.389648 -0.00976562
c-36.8496 -2.10059 -129.12 -10.5605 -187.51 -43.3506v-211.99c0.0800781 0.0302734 0.149414 0.0107422 0.219727 0.0507812c59.6504 30.0098 144.49 38.4893 189.76 40.8691c10.1104 0.530273 18.0303 8.51074 18.0303 18.1709zM256 256.01
c-53.0195 0 -96 42.9902 -96 96s42.9805 95.9902 96 95.9902s96 -42.9902 96 -96s-42.9805 -95.9902 -96 -95.9902zM256 416c-35.29 0 -64 -28.71 -64 -64s28.71 -64 64 -64s64 28.71 64 64s-28.71 64 -64 64z" />
    <glyph glyph-name="bus-school" unicode="&#xf5dd;" horiz-adv-x="512" 
d="M128 128c17.6699 0 32 -14.3301 32 -32s-14.3301 -32 -32 -32s-32 14.3301 -32 32s14.3301 32 32 32zM384 128c17.6699 0 32 -14.3301 32 -32s-14.3301 -32 -32 -32s-32 14.3301 -32 32s14.3301 32 32 32zM480 320c17.6699 0 32 -14.3301 32 -32v-96
c0 -17.6699 -14.3301 -32 -32 -32h-16.7002c10.2705 -13.3701 16.7002 -29.8203 16.7002 -48v-80c0 -17.6699 -14.3301 -32 -32 -32v-32c0 -17.6699 -14.3301 -32 -32 -32h-48c-17.6699 0 -32 14.3301 -32 32v32h-160v-32c0 -17.6699 -14.3301 -32 -32 -32h-48
c-17.6699 0 -32 14.3301 -32 32v32c-17.6699 0 -32 14.3301 -32 32v80c0 18.1797 6.42969 34.6299 16.7002 48h-16.7002c-17.6699 0 -32 14.3301 -32 32v96c0 17.6699 14.3301 32 32 32h32v54.1504c0 41.3594 85.0303 73.8496 192 73.8496s192 -32.4902 192 -73.8496
v-54.1504h32zM256 416c-102.96 0 -156.91 -30.5898 -160.04 -42.21v-21.79h96.04v8c0 13.2598 10.75 24 24 24h80c13.25 0 24 -10.7402 24 -24v-8h96v22.1504c-3.08984 11.2598 -57.04 41.8496 -160 41.8496zM416 320h-144v-128h128
c5.49902 0 10.8105 -0.554688 16 -1.61035v129.61zM240 320h-144v-129.61c5.16992 1.04004 10.5195 1.61035 16 1.61035h128v128zM32 192h32v96h-32v-96zM144 -32v32h-48v-32h48zM416 -32v32h-48v-32h48zM448 32v80c0 26.4697 -21.5303 48 -48 48h-288
c-26.4697 0 -48 -21.5303 -48 -48v-80h384zM480 192v96h-32v-96h32z" />
    <glyph glyph-name="car-battery" unicode="&#xf5df;" horiz-adv-x="512" 
d="M480 320c17.6699 0 32 -14.3301 32 -32v-256c0 -17.6699 -14.3301 -32 -32 -32h-448c-17.6699 0 -32 14.3301 -32 32v256c0 17.6699 14.3301 32 32 32h32v48c0 8.83984 7.16016 16 16 16h128c8.83984 0 16 -7.16016 16 -16v-48h64v48c0 8.83984 7.16016 16 16 16h128
c8.83984 0 16 -7.16016 16 -16v-48h32zM320 352v-32h96v32h-96zM96 352v-32h96v32h-96zM480 32v256h-448v-256h448zM424 192c4.41992 0 8 -3.58008 8 -8v-16c0 -4.41992 -3.58008 -8 -8 -8h-40v-40c0 -4.41992 -3.58008 -8 -8 -8h-16c-4.41992 0 -8 3.58008 -8 8v40h-40
c-4.41992 0 -8 3.58008 -8 8v16c0 4.41992 3.58008 8 8 8h40v40c0 4.41992 3.58008 8 8 8h16c4.41992 0 8 -3.58008 8 -8v-40h40zM200 192c4.41992 0 8 -3.58008 8 -8v-16c0 -4.41992 -3.58008 -8 -8 -8h-112c-4.41992 0 -8 3.58008 -8 8v16c0 4.41992 3.58008 8 8 8h112z
" />
    <glyph glyph-name="car-bump" unicode="&#xf5e0;" horiz-adv-x="576" 
d="M157.56 37.8496l13.6406 -28.3896c11.2803 -23.4795 0.780273 -51.4902 -23.4102 -62.4404l-14.6201 -6.61914c-24.1797 -10.9502 -53.0303 -0.75 -64.3096 22.7295l-61.3604 127.75c-15.3701 31.9902 -6.25977 68.6602 19.46 91.0898l-9.83984 78.25
c-4.23047 33.6602 14.3301 66.1299 45.9795 80.46l150.16 67.9805c31.6504 14.3301 69.2002 7.25977 93.04 -17.5205l55.4199 -57.6201c34.2207 4.71094 69.0107 -12.0791 84.3799 -44.0791l61.3604 -127.75c11.2803 -23.4805 0.780273 -51.4902 -23.4102 -62.4404
l-14.6201 -6.62012c-24.1797 -10.9502 -53.0293 -0.75 -64.3096 22.7305l-13.6299 28.3896zM478.23 148.46l-13.6309 28.3896l-43.8594 -19.8594l13.6299 -28.3906c3.75977 -7.83008 13.3896 -11.2197 21.4395 -7.56934l14.6201 6.62012
c8.05078 3.63965 11.5605 12.9795 7.80078 20.8096zM76.7305 312.29c-19.04 -8.62012 -30.1309 -28.0205 -27.5908 -48.2803l8.08008 -64.2197l270.99 122.68l-45.4902 47.29c-14.3398 14.9102 -36.7793 19.1299 -55.8193 10.5098zM134.16 -24.5898
c8.0498 3.63965 11.5596 12.9795 7.79004 20.8203l-13.6299 28.3896l-43.8604 -19.8604l13.6396 -28.3896c3.76074 -7.83984 13.3906 -11.2305 21.4404 -7.58008zM70.8301 33.1396l307.02 138.99l29.2402 13.2402l43.8604 19.8604l-13.6299 28.3896l-20.4502 42.5801
c-11.2705 23.4795 -40.1201 33.6797 -64.3105 22.7295l-292.409 -132.38c-24.1904 -10.9502 -34.6904 -38.96 -23.4102 -62.4395zM398.08 250.46c9.86035 -20.54 -0.19043 -43.2295 -23.9199 -53.9697l-9.21973 -4.28027
c-35.8301 -16.2197 -49.7402 -0.820312 -54.8408 9.80957c-10.5195 21.9004 8 55.3809 30.0205 65.3506c23.7197 10.7402 48.0898 3.62988 57.96 -16.9102zM363.94 217.78c11.3994 5.16016 16.2793 14.2695 12.1992 22.7598s-14.3994 10.7002 -25.7998 5.54004
c-11.3994 -5.16016 -22.3896 -25.6396 -18.3096 -34.1299c3.05957 -6.37012 13.0693 -2.81055 22.6895 1.5498c3.20996 1.4502 6.37012 2.99023 9.2207 4.28027zM93.04 155.51c22.0303 9.9707 60.3398 2.2207 70.8604 -19.6797
c5.09961 -10.6201 8.31934 -30.8701 -27.5107 -47.0898l-9.2998 -4.11035c-23.7197 -10.7402 -48.0898 -3.62988 -57.96 16.9102c-9.87012 20.5303 0.19043 43.2295 23.9102 53.9697zM126.17 110.03c9.62012 4.34961 18.8604 9.50977 15.8105 15.8701
c-4.08008 8.48926 -27.3008 13.4795 -38.7002 8.31934c-11.4004 -5.16016 -16.29 -14.2598 -12.21 -22.75c4.08008 -8.48926 14.3994 -10.71 25.7998 -5.5498c2.83984 1.2998 6.08984 2.66016 9.2998 4.11035zM575.66 -44.75
c1.80957 -8.66016 -3.75 -17.1299 -12.4004 -18.9199c-1.08984 -0.219727 -2.18945 -0.330078 -3.2793 -0.330078c-7.41016 0 -14.0703 5.2002 -15.6309 12.75c-7.68945 37.0596 -41.3398 63.9697 -80.0293 63.9697c-38.6904 0 -72.3105 -26.9102 -80 -63.9697
c-1.82031 -8.65039 -10.4102 -14.1504 -18.9102 -12.4199c-8.66016 1.7998 -14.2197 10.2598 -12.4102 18.9199c10.7197 51.8398 57.54 89.4697 111.32 89.4697c53.7793 0 100.62 -37.6299 111.34 -89.4697z" />
    <glyph glyph-name="car-crash" unicode="&#xf5e1;" 
d="M162.55 363.38l-24.6494 37.0801l-4.28027 -44.3398c-0.660156 -6.66016 -4.08984 -12.7998 -9.5 -16.7998c-5.41016 -4.02051 -12.4404 -5.52051 -18.8799 -4.25l-43.6904 8.7998l28.2803 -34.3799c3.39062 -4.09766 5.43652 -9.34473 5.43652 -15.0732
c0 -1.2334 -0.0947266 -2.44434 -0.276367 -3.62695c-1 -6.63965 -4.78027 -12.5996 -10.4102 -16.2998l-37.0605 -24.6406l44.3408 -4.2998c6.70996 -0.649414 12.8398 -4.12012 16.8398 -9.53027c4 -5.38965 5.53027 -12.2598 4.21973 -18.8398l-13.3398 -66.25
c-1.53027 -7.58984 -8.21973 -12.8398 -15.6602 -12.8398c-1.05957 0 -2.12988 0.0898438 -3.18945 0.310547c-8.65039 1.75 -14.2803 10.1797 -12.5303 18.8398l11.5596 57.3398l-58.2197 5.63965c-10.1797 1 -18.3398 8.03027 -20.8096 17.9404
c-2.4707 9.88965 1.40918 19.9297 9.90918 25.5898l48.7207 32.3896l-37.1602 45.1602c-6.5 7.86035 -7.31055 18.6104 -2.06055 27.3799c5.25 8.77051 15.04 13.2207 25.1299 11.1104l57.3203 -11.5498l5.66016 58.2197c0.969727 10.1201 8 18.2998 17.9102 20.7803
c10.0303 2.5293 20 -1.40039 25.6602 -9.91992l32.3799 -48.6904l45.1699 37.1797c6.75 5.62012 16.8701 4.6709 22.5 -2.18945c5.62012 -6.83008 4.64941 -16.9004 -2.19043 -22.5303l-52.1602 -42.9395c-5.25 -4.30078 -12.2197 -6.13086 -18.6592 -5.16016
c-6.65039 1 -12.5908 4.7998 -16.3105 10.3896zM281.08 230.96c23.2803 -6.24023 47.2998 -36.7402 40.9199 -60.5801c-3.09961 -11.5703 -13.96 -29.4697 -51.8301 -19.3203l-9.76953 2.7207c-25.0703 6.71973 -38.9199 27.8301 -32.9307 50.1895
c5.99023 22.3604 28.54 33.71 53.6104 26.9902zM276.37 174.24c10.1699 -2.7207 20.5801 -4.58008 22.4297 2.33984c2.48047 9.25 -11.8896 27.96 -23.9395 31.1895c-12.0605 3.23047 -21.7402 -0.779297 -24.2207 -10.0195
c-2.47949 -9.24023 3.91016 -17.5596 15.96 -20.79c3.02051 -0.80957 6.38086 -1.80957 9.77051 -2.71973zM602.11 198.97c29.0996 -18.1299 44.5 -53.46 35.1797 -88.29l-37.2705 -139.09c-6.84961 -25.5703 -33.2197 -40.79 -58.7891 -33.9395l-15.4609 4.13965
c-25.5693 6.84961 -40.7891 33.2197 -33.9395 58.79l8.28027 30.9102l-247.28 66.2598l-8.28027 -30.9102c-6.84961 -25.5596 -33.2197 -40.79 -58.79 -33.9395l-15.4502 4.13965c-25.5693 6.84961 -40.79 33.2197 -33.9395 58.79l37.2695 139.09
c9.33008 34.8398 40.3301 57.7197 74.6006 58.8799l43.9102 67.5098c18.8896 29.0303 54.3096 42.6104 87.7695 33.6504l158.74 -42.54c33.4502 -8.96973 57.3398 -38.4395 59.1797 -73.0303zM318.97 343.86l-36.04 -55.4102l286.46 -76.7598l-3.50977 66.0098
c-1.11035 20.8193 -15.3799 38.4297 -35.5098 43.8193l-158.74 42.5303c-20.1299 5.40039 -41.29 -2.71973 -52.6602 -20.1895zM213.64 75.1104l8.28027 30.9199l-46.3701 12.4199l-8.28027 -30.9102c-2.28906 -8.53027 2.80078 -17.3203 11.3105 -19.5996l15.46 -4.14062
c8.51953 -2.29004 17.3096 2.78027 19.5996 11.3105zM569.1 -20.1396l8.27051 30.9199l-46.3604 12.4199l-8.2793 -30.9102c-2.29004 -8.53027 2.7998 -17.3203 11.3096 -19.5996l15.46 -4.14062c8.51953 -2.28027 17.3096 2.78027 19.5996 11.3105zM606.37 118.96
c6.84961 25.5596 -8.37988 51.9404 -33.9297 58.7705l-309.101 82.8193c-25.5703 6.85059 -51.9395 -8.37988 -58.79 -33.9395l-20.71 -77.2705l324.55 -86.96l30.9102 -8.28027l46.3701 -12.4199l8.28027 30.9102zM542.26 160.98
c25.0703 -6.7207 38.9199 -27.8301 32.9307 -50.1904c-5.99023 -22.3604 -28.54 -33.71 -53.6104 -26.9902l-9.82031 2.53027c-37.8701 10.1396 -38.3193 31.0703 -35.2197 42.6396c6.38965 23.8506 42.4404 38.25 65.7197 32.0107zM552.01 117
c2.4707 9.25 -3.91016 17.5596 -15.96 20.7998c-12.0596 3.23047 -33.8496 -5.7998 -36.3301 -15.04c-1.85938 -6.92969 8.08008 -10.5293 18.25 -13.25c3.39062 -0.910156 6.81055 -1.71973 9.82031 -2.5293c12.0498 -3.23047 21.7402 0.779297 24.2197 10.0195z" />
    <glyph glyph-name="car-garage" unicode="&#xf5e2;" 
d="M635.88 288c3.87012 -2.15039 5.25977 -7.01953 3.11035 -10.8896l-7.79004 -13.9902c-2.14062 -3.86035 -7.00977 -5.24023 -10.8701 -3.10059l-300.33 153.681l-300.33 -156.69c-3.86035 -2.14941 -8.72949 -0.759766 -10.8799 3.10059l-7.78027 13.9893
c-2.14941 3.86035 -0.759766 8.73047 3.11035 10.8809l308.1 161c4.87012 2.68945 10.6807 2.68945 15.5605 0zM493.38 186.26c29.6104 -11.7295 50.6201 -40.4795 50.6201 -74.2598v-128c0 -26.4697 -21.5303 -48 -48 -48h-16c-26.4697 0 -48 21.5303 -48 48v16h-224v-16
c0 -26.4697 -21.5303 -48 -48 -48h-16c-26.4697 0 -48 21.5303 -48 48v128c0 33.7803 21.0098 62.5303 50.6104 74.2598l15.1494 46.5c10.7305 32.9307 41.4307 55.2207 76.0703 55.2207h164.33c34.6396 0 65.3398 -22.29 76.0703 -55.2207zM192.19 222.85
l-10.0508 -30.8496h275.721l-10.0508 30.8496c-6.45996 19.8105 -24.7998 33.1309 -45.6396 33.1309h-164.34c-0.0283203 0 -0.0429688 0.00488281 -0.0712891 0.00488281c-21.2832 0 -39.3428 -13.915 -45.5684 -33.1357zM176 -16v16h-48v-16
c0 -8.83008 7.19043 -16 16 -16h16c8.80957 0 16 7.16992 16 16zM512 -16v16h-48v-16c0 -8.83008 7.19043 -16 16 -16h16c8.80957 0 16 7.16992 16 16zM512 64v48c0 26.4697 -21.5303 48 -48 48h-288c-26.4697 0 -48 -21.5303 -48 -48v-80h384v32zM439.2 135.99
c25.96 0 44.7998 -16.7998 44.7998 -39.9502s-18.8398 -39.9502 -44.7998 -39.9502l-10.1406 -0.0996094c-39.21 0 -45.0596 20.0898 -45.0596 32.0693c0 24.6904 31.0996 47.9307 55.2002 47.9307zM439.2 80.0898c12.4697 0 20.7998 6.37988 20.7998 15.9502
s-8.32031 15.9502 -20.7998 15.9502c-12.4805 0 -31.2002 -14.3604 -31.2002 -23.9307c0 -7.16992 10.5303 -8.06934 21.0596 -8.06934c3.51074 0 7.02051 0.0996094 10.1406 0.0996094zM200.8 135.99c24.1006 0 55.2002 -23.2402 55.2002 -47.9307
c0 -11.9697 -5.84961 -32.0693 -45.0596 -32.0693l-10.1406 0.0996094c-25.96 0 -44.7998 16.7998 -44.7998 39.9502s18.8398 39.9502 44.7998 39.9502zM210.94 79.9902c10.5293 0 21.0596 0.899414 21.0596 8.06934c0 9.57031 -18.7197 23.9307 -31.2002 23.9307
c-12.4795 0 -20.7998 -6.37988 -20.7998 -15.9502s8.32031 -15.9502 20.7998 -15.9502c3.12012 0 6.62988 -0.0996094 10.1406 -0.0996094z" />
    <glyph glyph-name="car-mechanic" unicode="&#xf5e3;" horiz-adv-x="512" 
d="M510.15 394.72c3.15918 -8.87988 2.22949 -18.6396 -2.44043 -26.7197c2.71191 -4.70312 4.27441 -10.2021 4.27441 -16.0156c0 -3.75293 -0.646484 -7.35645 -1.83398 -10.7041c-11.3203 -31.8701 -41.5508 -53.2803 -75.21 -53.2803
c-26.0205 0 -48.9502 12.6797 -63.5703 31.9697h-230.74c-14.6201 -19.29 -37.5498 -31.9697 -63.5703 -31.9697c-33.6592 0 -63.8799 21.4102 -75.21 53.2803c-1.1875 3.34766 -1.82422 6.99512 -1.82422 10.748c0 5.81445 1.55273 11.2686 4.26465 15.9717
c-2.7168 4.69824 -4.28125 10.1963 -4.28125 16.0088c0 3.75586 0.648438 7.3623 1.84082 10.7109c11.3301 31.8701 41.5508 53.2803 75.21 53.2803c26.0303 0 48.9805 -12.6904 63.5908 -32h230.699c14.6201 19.3096 37.5605 32 63.5908 32
c33.6592 0 63.8799 -21.4102 75.21 -53.2803zM434.94 352l-16 16l16 16h45.0596c-6.61035 18.5996 -24.1904 32 -45.0596 32c-20.8809 0 -38.4707 -13.4102 -45.0801 -32.0303h-267.73c-6.59961 18.6201 -24.1895 32.0303 -45.0703 32.0303
c-20.8691 0 -38.4492 -13.4004 -45.0596 -32h45.0596l16 -16l-16 -16h-45.0596c6.61035 -18.5996 24.2002 -32 45.0703 -32s38.4492 13.4004 45.0596 32h267.75c6.61035 -18.5996 24.1904 -32 45.0605 -32c20.8691 0 38.4492 13.4004 45.0596 32h-45.0596zM429.38 186.26
c29.6104 -11.7295 50.6201 -40.4795 50.6201 -74.2598v-128c0 -26.4697 -21.5303 -48 -48 -48h-16c-26.4697 0 -48 21.5303 -48 48v16h-224v-16c0 -26.4697 -21.5303 -48 -48 -48h-16c-26.4697 0 -48 21.5303 -48 48v128c0 33.7803 21.0098 62.5303 50.6104 74.2598
l15.1494 46.5c10.7305 32.9307 41.4307 55.2207 76.0703 55.2207h164.33c34.6396 0 65.3398 -22.29 76.0703 -55.2207zM128.19 222.85l-10.0508 -30.8496h275.721l-10.0508 30.8496c-6.45996 19.8105 -24.7998 33.1309 -45.6396 33.1309h-164.34
c-0.0283203 0 -0.0429688 0.00488281 -0.0712891 0.00488281c-21.2832 0 -39.3428 -13.915 -45.5684 -33.1357zM112 -16v16h-48v-16c0 -8.83008 7.19043 -16 16 -16h16c8.80957 0 16 7.16992 16 16zM448 -16v16h-48v-16c0 -8.83008 7.19043 -16 16 -16h16
c8.80957 0 16 7.16992 16 16zM448 64v48c0 26.4697 -21.5303 48 -48 48h-288c-26.4697 0 -48 -21.5303 -48 -48v-80h384v32zM375.2 135.99c25.96 0 44.7998 -16.7998 44.7998 -39.9502s-18.8398 -39.9502 -44.7998 -39.9502l-10.1406 -0.0996094
c-39.21 0 -45.0596 20.0898 -45.0596 32.0693c0 24.6904 31.0996 47.9307 55.2002 47.9307zM375.2 80.0898c12.4795 0 20.7998 6.37988 20.7998 15.9502s-8.32031 15.9502 -20.7998 15.9502c-12.4805 0 -31.2002 -14.3604 -31.2002 -23.9307
c0 -7.16992 10.5303 -8.06934 21.0596 -8.06934c3.51074 0 7.02051 0.0996094 10.1406 0.0996094zM136.8 135.99c24.1006 0 55.2002 -23.2402 55.2002 -47.9307c0 -11.9697 -5.84961 -32.0693 -45.0596 -32.0693l-10.1406 0.0996094
c-25.96 0 -44.7998 16.7998 -44.7998 39.9502s18.8398 39.9502 44.7998 39.9502zM146.94 79.9902c10.5293 0 21.0596 0.899414 21.0596 8.06934c0 9.57031 -18.7197 23.9307 -31.2002 23.9307c-12.4795 0 -20.7998 -6.37988 -20.7998 -15.9502
s8.32031 -15.9502 20.7998 -15.9502c3.12012 0 6.62988 -0.0996094 10.1406 -0.0996094z" />
    <glyph glyph-name="car-side" unicode="&#xf5e4;" 
d="M544 256c53.0195 0 96 -42.9805 96 -96v-80c0 -8.83984 -7.16016 -16 -16 -16h-48c0 -53.0195 -42.9805 -96 -96 -96s-96 42.9805 -96 96h-128c0 -53.0195 -42.9805 -96 -96 -96s-96 42.9805 -96 96h-48c-8.83984 0 -16 7.16016 -16 16v112c0 35.3496 28.6504 64 64 64
l47.9102 119.77c9.71973 24.3008 33.25 40.2305 59.4199 40.2305h197.91c20.2207 0 38.2402 -9.35547 49.9697 -24.0195l108.79 -135.98h16zM288 384v-128h199.02l-92.7891 115.99c-6.11035 7.62988 -15.2207 12.0098 -24.9902 12.0098h-81.2402zM141.62 363.88
l-43.1602 -107.88h157.54v128h-84.6699c-13.1602 0 -24.8203 -7.88965 -29.71 -20.1201zM160 0c35.3496 0 64 28.6504 64 64s-28.6504 64 -64 64s-64 -28.6504 -64 -64s28.6504 -64 64 -64zM480 0c35.3496 0 64 28.6504 64 64s-28.6504 64 -64 64s-64 -28.6504 -64 -64
s28.6504 -64 64 -64zM608 96v64c0 35.29 -28.71 64 -64 64h-480c-17.6396 0 -32 -14.3604 -32 -32v-96h37.8799c13.2197 37.2002 48.3799 64 90.1201 64s76.9004 -26.7998 90.1201 -64h139.76c13.2197 37.2002 48.3799 64 90.1201 64s76.9004 -26.7998 90.1201 -64h37.8799z
" />
    <glyph glyph-name="car-tilt" unicode="&#xf5e5;" 
d="M179.55 142.06c16.9697 16.9707 55.2305 22.5 72.6104 5.12012c8.43945 -8.42969 18.4697 -26.6992 -9.14062 -54.3096l-7.20996 -7.07031c-18.2793 -18.2803 -43.3799 -19.71 -59.6797 -3.41016c-16.29 16.3008 -14.8604 41.3906 3.41992 59.6699zM226.12 109.77
c7.41016 7.41016 14.1895 15.4609 9.12988 20.5205c-6.74023 6.74023 -30.0195 3.66992 -38.8096 -5.12012c-8.78027 -8.79004 -10.1504 -19.1396 -3.41016 -25.8799c6.73926 -6.74023 17.0898 -5.37988 25.8799 3.41016c2.2002 2.2002 4.74023 4.59961 7.20996 7.06934z
M632 -32c4.41992 0 8 -3.58008 8 -8v-16c0 -4.41992 -3.58008 -8 -8 -8h-624c-4.41992 0 -8 3.58008 -8 8v16c0 4.41992 3.58008 8 8 8h198.02l-83.3799 83.3701c-25.3896 25.3896 -29.6895 63.5195 -13.6299 93.6494l-36.3594 71.4805
c-15.6309 30.75 -9.70996 68.0596 14.6797 92.4502l115.72 115.71c24.3906 24.3896 61.7002 30.3096 92.4404 14.6797l71.4902 -36.3594c30.1191 16.0693 68.25 11.7598 93.6494 -13.6309l101.41 -101.39c18.6396 -18.6396 18.6396 -48.96 0 -67.5996l-11.2705 -11.2705
c-18.6396 -18.6396 -48.96 -18.6396 -67.5996 0l-22.5303 22.5303l-180.26 -180.25l22.5303 -22.5303c16.6396 -16.6396 17.5703 -42.2002 4.47949 -60.8398h324.61zM539.49 265.43l-22.5303 22.5303l-33.7998 -33.7998l22.5303 -22.5303
c6.20996 -6.20996 16.3193 -6.20996 22.5293 0l11.2705 11.2705c6.20996 6.19922 6.21973 16.3096 0 22.5293zM101.06 230.95l29.8408 -58.6699l208.819 208.819l-58.6699 29.8408c-6.49609 3.31348 -13.9033 5.21875 -21.6904 5.21875
c-13.1904 0 -25.1387 -5.36523 -33.7793 -14.0293l-115.71 -115.71c-14.6797 -14.6797 -18.2197 -36.9697 -8.81055 -55.4697zM201.51 17.5703l236.59 236.59l22.5303 22.5303l33.7998 33.7998l-22.5293 22.5293l-33.8008 33.8008
c-18.6396 18.6396 -48.96 18.6396 -67.5996 0l-225.32 -225.32c-18.6396 -18.6396 -18.6396 -48.9697 0 -67.5996zM280.37 -16.2197c6.20996 6.2002 6.21973 16.3096 -0.00976562 22.5293l-22.5303 22.5303l-33.7998 -33.7998l22.5293 -22.5303
c2.91016 -2.91016 6.69043 -4.33008 10.5107 -4.50977h1.5293c3.82031 0.19043 7.60059 1.61035 10.5 4.50977zM429.61 335.87c16.2998 -16.3105 14.8701 -41.4004 -3.41016 -59.6699l-7.07031 -7.20996c-27.5996 -27.6006 -45.8701 -17.5801 -54.3096 -9.14062
c-17.3799 17.3809 -11.8506 55.6406 5.12012 72.6104c18.2793 18.2705 43.3691 19.71 59.6699 3.41016zM409.3 293.09c8.79004 8.79004 10.1602 19.1504 3.41992 25.8799c-6.73926 6.73047 -17.0898 5.37012 -25.8799 -3.41992
c-8.79004 -8.78027 -11.8594 -32.0693 -5.12012 -38.8096c5.0498 -5.06055 13.1006 1.72949 20.5107 9.13965c2.46973 2.46973 4.86914 5.00977 7.06934 7.20996z" />
    <glyph glyph-name="clipboard-prescription" unicode="&#xf5e8;" horiz-adv-x="384" 
d="M336 384c26.5 0 48 -21.5 48 -48v-352c0 -26.5 -21.5 -48 -48 -48h-288c-26.5 0 -48 21.5 -48 48v352c0 26.5 21.5 48 48 48h88.5996c-0.399414 2.59961 -0.599609 5.2998 -0.599609 8c0 30.9004 25.0996 56 56 56s56 -25.0996 56 -56
c0 -2.7002 -0.200195 -5.40039 -0.599609 -8h88.5996zM192 416c-13.2998 0 -24 -10.7002 -24 -24c0 -13.2002 10.7002 -24 24 -24s24 10.7998 24 24c0 13.2998 -10.7002 24 -24 24zM352 -16v352c0 8.7998 -7.2002 16 -16 16h-48v-20c0 -6.59961 -5.40039 -12 -12 -12h-168
c-6.59961 0 -12 5.40039 -12 12v20h-48c-8.7998 0 -16 -7.2002 -16 -16v-352c0 -8.7998 7.2002 -16 16 -16h288c8.7998 0 16 7.2002 16 16zM285.7 146.3c3.09961 -3.09961 3.09961 -8.09961 -0.100586 -11.2998l-39 -39l39 -39c3.10059 -3.09961 3.10059 -8.2002 0 -11.2998
l-11.2998 -11.2998c-3.09961 -3.10059 -8.2002 -3.10059 -11.2998 0l-39 39l-39 -39c-3.09961 -3.10059 -8.2002 -3.10059 -11.2998 0l-11.2998 11.2998c-3.10059 3.09961 -3.10059 8.2002 0 11.2998l39 39l-48 48h-25.4004v-40c0 -4.40039 -3.59961 -8 -8 -8h-16
c-4.40039 0 -8 3.59961 -8 8v144c0 4.40039 3.59961 8 8 8h64c30.9004 0 56 -25.0996 56 -56c0 -22 -12.7998 -40.9004 -31.2998 -50l31.3994 -31.4004l39 39c3.10059 3.10059 8.2002 3.10059 11.3008 0zM168 176c13.2002 0 24 10.7998 24 24s-10.7998 24 -24 24h-40v-48h40
z" />
    <glyph glyph-name="compass-slash" unicode="&#xf5e9;" 
d="M322 -26.0996c50.5 0 98 17.0996 135.7 48.5l25.5 -20c-46.1006 -40.5 -103.601 -60.5 -161.2 -60.5c-64.7998 0 -129.5 24.8994 -177.9 73.2998c-76.5996 76.5996 -92.7998 195.7 -45.3994 290l25.7998 -20.2998c-13.4004 -28.9004 -20.5996 -60.7002 -20.5 -93.9004
c0.299805 -58.5996 22.5 -113 62.7998 -153.2c40.6006 -40.5996 97.2002 -63.8994 155.2 -63.8994zM411.1 181.3l-26.5 20.9004l30.7002 85.0996l-95.2002 -34.2998l-29.5996 23.2998l126.2 45.5c2.2002 0.799805 4.39941 1.2002 6.7002 1.2002
c16.0996 0 32 -18.5996 26.3994 -34.2998zM317.3 408c-49.2998 0 -95.8994 -16.7002 -133.8 -47.4004l-25.5 20.1006c45.9004 39.5 102.5 59.2998 159.3 59.2998c64.1006 0 128.3 -24.9004 177.5 -74c77.6006 -77.5996 93.1006 -194 46.9004 -287.4l-25.7998 20.3008
c36.6992 80.2998 22.2998 178.399 -43.7002 244.399c-41.7002 41.7002 -96.7002 64.7002 -154.9 64.7002zM228.9 202.7l26.5 -20.9004l-30.7002 -85.0996l95.2002 34.2998l29.5996 -23.2998l-126.2 -45.5c-2.2002 -0.799805 -4.39941 -1.2002 -6.7002 -1.2002
c-16.0996 0 -32.0996 18.5996 -26.3994 34.2998zM637 -37.2002c3.5 -2.7998 4 -7.7998 1.2002 -11.2998l-10 -12.5c-2.7002 -3.40039 -7.7998 -4 -11.2002 -1.2002l-614 483.5c-3.40039 2.7002 -4 7.7002 -1.2002 11.2002l10 12.5c2.7002 3.5 7.7998 4 11.2002 1.2002z" />
    <glyph glyph-name="diploma" unicode="&#xf5ea;" 
d="M608.64 400.44c41.8105 -70.9404 41.8105 -217.95 0.0107422 -288.891c-5.63086 -9.54004 -17.0703 -15.5498 -29.3809 -15.5498c-2.5293 0 -5.09961 0.25 -7.65918 0.780273l-126.96 42.7793c-4.27051 1.44043 -8.68066 2.29004 -13 3.54004l56.2998 -94.7295
c2.8418 -4.7793 4.49414 -10.3945 4.49414 -16.3535c0 -17.6553 -14.3301 -31.9893 -31.9844 -31.9971l-20.3496 -0.00976562l-15.5205 -19.71c-5.8623 -7.44336 -14.9219 -12.2363 -25.1221 -12.2363c-11.9736 0 -22.4199 6.58984 -27.9082 16.3369l-51.5293 91.5
l-51.4707 -91.5703c-5.66992 -10.0801 -16.3398 -16.3203 -27.8994 -16.3203c-10.1934 0.00195312 -19.2676 4.75488 -25.1299 12.1904l-15.6104 19.8096h-20.2002c-11.915 0 -22.2998 6.49121 -27.8096 16.1602c-2.6543 4.66113 -4.1709 10.1221 -4.1709 15.8652
c0 5.94922 1.62695 11.5215 4.46094 16.2949l56.2295 94.79c-4.33984 -1.25977 -8.79004 -2.11035 -13.0801 -3.56055l-126.96 -42.7793c-2.55957 -0.530273 -5.12012 -0.780273 -7.64941 -0.780273c-12.3203 0 -23.75 6.00977 -29.3799 15.5498
c-41.8105 70.9404 -41.8105 217.95 0 288.891c5.62988 9.5498 17.0693 15.5596 29.3799 15.5596c2.51953 0 5.08984 -0.25 7.64941 -0.780273l126.96 -42.7793c40.1699 -13.54 82.2705 -20.4404 124.65 -20.4404c43.5488 0 85.5254 7.25293 124.65 20.4404l126.96 42.7793
c2.55957 0.530273 5.12988 0.780273 7.65918 0.780273c12.3105 0 23.75 -6.00977 29.3701 -15.5596zM185.13 169.89c15.2803 5.15039 30.8506 9.04004 46.5303 12.3799l8.34961 14.0703v131.62c-18.5293 3.57031 -36.8799 8.08984 -54.8701 14.1504l-124.02 41.79
c-1.9502 0 -2.66992 -0.390625 -2.82031 -0.510742c-35.3594 -60.25 -35.3896 -194.25 0.530273 -255.43c-0.0703125 0.150391 0 0.200195 0.160156 0.200195c0.299805 0 0.950195 -0.160156 1.75 -0.160156v-0.0302734zM424.56 32l35.8809 0.00976562l-92.4404 155.55
v135.5c-15.9102 -1.81934 -31.9004 -3.06934 -48 -3.06934s-32.0898 1.25 -48 3.06934v-135.5l-92.2803 -155.56h35.7207l25.2197 -32l79.3398 141.16l79.4404 -141.07zM581.7 128.61c35.3594 60.2393 35.3896 194.25 -0.520508 255.43
c0.0605469 -0.150391 0 -0.200195 -0.160156 -0.200195c-0.299805 0 -0.949219 0.160156 -1.75 0.160156h-0.0898438l-124.31 -41.9004c-17.9902 -6.05957 -36.3506 -10.5693 -54.8701 -14.1494v-131.601l8.37012 -14.0693c15.6699 -3.33984 31.2295 -7.24023 46.5 -12.3799
l124 -41.79c1.95996 0 2.67969 0.389648 2.83008 0.5z" />
    <glyph glyph-name="draw-circle" unicode="&#xf5ed;" horiz-adv-x="512" 
d="M512 192c0 -33.5098 -25.8398 -60.6904 -58.6299 -63.46c-20.4805 -63.5 -70.4102 -113.43 -133.91 -133.91c-2.76953 -32.79 -29.9502 -58.6299 -63.46 -58.6299s-60.6904 25.8398 -63.46 58.6299c-63.5 20.4805 -113.43 70.4102 -133.91 133.91
c-32.79 2.76953 -58.6299 29.9502 -58.6299 63.46s25.8398 60.6904 58.6299 63.46c20.4805 63.5 70.4102 113.43 133.91 133.91c2.76953 32.79 29.9502 58.6299 63.46 58.6299s60.6904 -25.8398 63.46 -58.6299c63.5 -20.4805 113.43 -70.4102 133.91 -133.91
c32.79 -2.76953 58.6299 -29.9502 58.6299 -63.46zM256 416c-17.6396 0 -32 -14.3604 -32 -32s14.3604 -32 32 -32s32 14.3604 32 32s-14.3604 32 -32 32zM32 192c0 -17.6396 14.3604 -32 32 -32s32 14.3604 32 32s-14.3604 32 -32 32s-32 -14.3604 -32 -32zM256 -32
c17.6396 0 32 14.3604 32 32s-14.3604 32 -32 32s-32 -14.3604 -32 -32s14.3604 -32 32 -32zM314.12 26.4697c50.1602 17.6699 89.7295 57.2402 107.41 107.41c-22.1006 10.0801 -37.5303 32.2402 -37.5303 58.1201s15.4297 48.04 37.5195 58.1299
c-17.6699 50.1602 -57.2393 89.7305 -107.399 107.4c-10.0801 -22.1006 -32.2402 -37.5303 -58.1201 -37.5303s-48.04 15.4297 -58.1299 37.5195c-50.1602 -17.6699 -89.7305 -57.2295 -107.4 -107.399c22.1006 -10.0801 37.5303 -32.2402 37.5303 -58.1201
s-15.4297 -48.04 -37.5195 -58.1299c17.6699 -50.1602 57.2393 -89.7305 107.399 -107.4c10.0801 22.1006 32.2402 37.5303 58.1201 37.5303s48.04 -15.4297 58.1201 -37.5303zM448 160c17.6396 0 32 14.3604 32 32s-14.3604 32 -32 32s-32 -14.3604 -32 -32
s14.3604 -32 32 -32z" />
    <glyph glyph-name="draw-polygon" unicode="&#xf5ee;" horiz-adv-x="448" 
d="M384 96c35.3496 0 64 -28.6504 64.0098 -64c0 -35.3496 -28.6494 -64 -64 -64c-29.79 0 -54.5996 20.4404 -61.7402 48h-196.529c-7.14062 -27.5596 -31.9502 -48 -61.7402 -48c-35.3496 0 -64 28.6504 -64 64c0 29.79 20.4404 54.5996 48 61.7305v196.529
c-27.5596 7.14062 -48 31.9502 -48 61.7402c0 35.3496 28.6504 64 64 64c29.79 0 54.5996 -20.4502 61.7402 -48h196.529c7.14062 27.5498 31.9502 48 61.7402 48c35.3506 0 64 -28.6504 64 -64s-28.6494 -64 -64 -64c-6.2998 0 -12.2598 1.19043 -18.0098 2.88965
l-32.4199 -54.0195c11.3701 -11.5605 18.4199 -27.3799 18.4199 -44.8701s-7.0498 -33.3096 -18.4297 -44.8701l32.4199 -54.0195c5.75 1.69922 11.71 2.88965 18.0098 2.88965zM80 93.7402c22.3311 -5.79492 39.9453 -23.4092 45.7402 -45.7402h196.529
c2.86035 11.04 8.40039 20.9902 16.1602 28.8701l-32.4199 54.0195c-5.75 -1.69922 -11.71 -2.88965 -18.0098 -2.88965c-35.3496 0 -64 28.6504 -64 64s28.6504 64 64 64c6.2998 0 12.2598 -1.19043 18.0098 -2.88965l32.4199 54.0195
c-7.75977 7.87988 -13.2998 17.8301 -16.1602 28.8701h-196.529c-5.81055 -22.4199 -23.3301 -39.9404 -45.7402 -45.7402v-196.52zM288 160c17.6396 0 32 14.3604 32 32s-14.3604 32 -32 32s-32 -14.3604 -32 -32s14.3604 -32 32 -32zM384 384
c-17.6396 0 -32 -14.3604 -32 -32s14.3604 -32 32 -32s32 14.3604 32 32s-14.3604 32 -32 32zM32 352c0 -17.6396 14.3604 -32 32 -32s32 14.3604 32 32s-14.3604 32 -32 32s-32 -14.3604 -32 -32zM64 0c17.6396 0 32 14.3604 32 32s-14.3604 32 -32 32
s-32 -14.3604 -32 -32s14.3604 -32 32 -32zM384 0c17.6396 0 32 14.3604 32 32s-14.3604 32 -32 32s-32 -14.3604 -32 -32s14.3604 -32 32 -32z" />
    <glyph glyph-name="draw-square" unicode="&#xf5ef;" horiz-adv-x="448" 
d="M400 93.7402c27.5596 -7.14062 48 -31.9502 48.0098 -61.7402c0 -35.3496 -28.6494 -64 -64 -64c-29.79 0 -54.5996 20.4404 -61.7402 48h-196.529c-7.14062 -27.5596 -31.9502 -48 -61.7402 -48c-35.3496 0 -64 28.6504 -64 64c0 29.79 20.4404 54.5996 48 61.7305
v196.529c-27.5596 7.14062 -48 31.9502 -48 61.7402c0 35.3496 28.6504 64 64 64c29.79 0 54.5996 -20.4502 61.7402 -48h196.52c7.14062 27.5498 31.9502 48 61.7402 48c35.3496 0 64 -28.6504 64 -64c0 -29.79 -20.4404 -54.5996 -48 -61.7402v-196.52zM322.26 48
c5.81055 22.4102 23.3301 39.9297 45.75 45.7305v196.529c-22.4199 5.81055 -39.9395 23.3301 -45.7402 45.7402h-196.529c-5.81055 -22.4199 -23.3301 -39.9404 -45.7402 -45.7402v-196.52c22.4199 -5.81055 39.9404 -23.3301 45.7402 -45.7402h196.52zM384 384
c-17.6396 0 -32 -14.3604 -32 -32s14.3604 -32 32 -32s32 14.3604 32 32s-14.3604 32 -32 32zM32 352c0 -17.6396 14.3604 -32 32 -32s32 14.3604 32 32s-14.3604 32 -32 32s-32 -14.3604 -32 -32zM64 0c17.6396 0 32 14.3604 32 32s-14.3604 32 -32 32
s-32 -14.3604 -32 -32s14.3604 -32 32 -32zM384 0c17.6396 0 32 14.3604 32 32s-14.3604 32 -32 32s-32 -14.3604 -32 -32s14.3604 -32 32 -32z" />
    <glyph glyph-name="ear" unicode="&#xf5f0;" horiz-adv-x="384" 
d="M192 352c52.9404 0 96 -43.0596 96 -96v-24c0 -4.41992 -3.58008 -8 -8 -8h-16c-4.41992 0 -8 3.58008 -8 8v24c0 35.2998 -28.7197 64 -64 64s-64 -28.7002 -64 -64c0 -17.6396 14.3398 -32 32 -32c35.2803 0 64 -28.7002 64 -64s-28.7197 -64 -64 -64h-24
c-4.41992 0 -8 3.58008 -8 8v16c0 4.41992 3.58008 8 8 8h24c17.6602 0 32 14.3604 32 32s-14.3398 32 -32 32c-35.2803 0 -64 28.7002 -64 64c0 52.9404 43.0596 96 96 96zM192 448c106.04 0 192 -85.96 192 -192c0 -71.0195 -38.6699 -132.89 -96 -166.1v-9.90039
c0 -79.5303 -64.4697 -144 -144 -144s-144 64.4697 -144 144v176c0 106.04 85.96 192 192 192zM271.96 117.59c49.3701 28.6006 80.04 81.6299 80.04 138.41c0 88.2197 -71.7803 160 -160 160s-160 -71.7803 -160 -160v-176c0 -61.7598 50.2402 -112 112 -112
s112 50.2402 112 112v28.3398z" />
    <glyph glyph-name="engine-warning" unicode="&#xf5f2;" 
d="M320 416c123.7 0 224 -100.3 224 -224c0 -123.76 -100.3 -224 -224 -224s-224 100.24 -224 224c0 123.7 100.3 224 224 224zM320 0c105.87 0 192 86.1299 192 192s-86.1299 192 -192 192s-192 -86.1299 -192 -192s86.1299 -192 192 -192zM338.64 320.02
c7.90039 0 14.0801 -6.8291 13.29 -14.6895l-10.6895 -149.29c-0.680664 -6.83008 -6.41992 -12.0303 -13.29 -12.0303h-15.9004c-6.85938 0 -12.6094 5.2002 -13.29 12.0303l-10.6895 149.29c-0.790039 7.87012 5.38965 14.6895 13.29 14.6895h37.2793zM320 120
c13.2598 0 24 -10.7402 24 -24c0 -13.25 -10.7402 -24 -24 -24s-24 10.75 -24 24c0 13.2598 10.7402 24 24 24zM90.6904 378.83c3.35938 -2.73047 3.83984 -7.58008 1.18945 -11.0098c-38.6797 -50.1699 -59.8799 -112.29 -59.8799 -175.82
c0 -63.54 21.2002 -125.66 59.8496 -175.78c2.65039 -3.42969 2.16992 -8.2793 -1.18945 -11.0098l-12.4004 -10.1104c-3.5 -2.84961 -8.75 -2.31934 -11.5098 1.25c-43.0996 55.7705 -66.75 124.91 -66.75 195.65c0 70.7197 23.6504 139.88 66.7803 195.69
c2.75977 3.55957 8.01953 4.09961 11.5098 1.25zM573.22 387.69c43.1299 -55.8105 66.7803 -124.971 66.7803 -195.69c0 -70.7402 -23.6504 -139.88 -66.75 -195.66c-2.75977 -3.55957 -8.01953 -4.09961 -11.5098 -1.25l-12.4004 10.1104
c-3.35938 2.74023 -3.83008 7.58008 -1.18945 11.0098c38.6494 50.1299 59.8496 112.25 59.8496 175.79c0 63.5303 -21.2002 125.65 -59.8799 175.82c-2.63965 3.42969 -2.16992 8.2793 1.18945 11.0098l12.4004 10.1104c3.5 2.84961 8.75 2.31934 11.5098 -1.25z" />
    <glyph glyph-name="gas-pump-slash" unicode="&#xf5f4;" 
d="M480 369.4l-29.5996 29.6992c-3.10059 3.10059 -3.10059 8.2002 0 11.3008l11.2998 11.2998c3.09961 3.09961 8.2002 3.09961 11.2998 0l93.5996 -93.7002c6 -6 9.40039 -14.0996 9.40039 -22.5996v-241.4c0 -4 -0.599609 -7.7002 -1.2998 -11.5l-30.7002 24.2002v163.3
h-16c-26.5 0 -48 21.5 -48 48v81.4004zM512 337.4v-49.4004c0 -8.7998 7.2002 -16 16 -16h16v33.4004zM637 -37.2002c3.5 -2.7998 4 -7.7998 1.2002 -11.2998l-10 -12.5c-2.7002 -3.40039 -7.7998 -4 -11.2002 -1.2002l-614 483.5
c-3.40039 2.7002 -4 7.7002 -1.2002 11.2002l10 12.5c2.7002 3.5 7.7998 4 11.2002 1.2002zM408 -32c4.40039 0 8 -3.59961 8 -8v-16c0 -4.40039 -3.59961 -8 -8 -8h-336c-4.40039 0 -8 3.59961 -8 8v16c0 4.40039 3.59961 8 8 8h24v339.3l32 -25.2002v-314.1h224v137.7
l32 -25.2002v-112.5h24zM160 416c-11.5996 0 -21.2998 -6.5 -26.9004 -15.7002l-25.5996 20.2002c11.5 16.5996 30.7002 27.5 52.5 27.5h160c35.4004 0 64 -28.7002 64 -64v-181.3l-32 25.2002v156.1c0 17.5996 -14.4004 32 -32 32h-160z" />
    <glyph glyph-name="glasses-alt" unicode="&#xf5f5;" horiz-adv-x="576" 
d="M572.39 145.37c2.28027 -10.9805 3.5 -22.1602 3.60059 -33.3701v-8c0 -75.1104 -60.8906 -136 -136 -136c-72.3701 0 -130.971 56.6904 -135.19 128h-33.6094c-4.2207 -71.3096 -62.8203 -128 -135.19 -128c-75.1104 0 -136 60.8896 -136 136v8
c0.118164 11.4551 1.3584 22.5518 3.61035 33.3701l43.6396 209.85c5.41016 21.7305 19.6602 40.2305 39.1201 50.9307c19.5 10.6992 42.7197 12.8096 63.8096 5.75l22.8506 -7.61035c4.18945 -1.40039 6.45996 -5.92969 5.05957 -10.1201l-5.05957 -15.1797
c-1.40039 -4.19043 -5.93066 -6.45996 -10.1201 -5.06055l-20.2803 6.77051c-13.1104 4.37012 -27.75 4.29004 -39.9902 -2.14062c-12.2998 -6.45996 -20.9297 -17.46 -24.29 -30.8994l-30.4492 -140.84c23.7793 20.3994 54.3096 33.1797 88.0996 33.1797
c66.8896 0 122.21 -48.3799 133.58 -112h36.8398c11.3701 63.6201 66.6904 112 133.58 112c33.79 0 64.3203 -12.7803 88.0996 -33.1904l-30.4492 140.841c-3.35059 13.4395 -11.9902 24.4395 -24.29 30.8994c-12.2402 6.43066 -26.8799 6.50977 -39.9902 2.14062
l-20.2803 -6.77051c-4.18945 -1.40039 -8.71973 0.870117 -10.1201 5.06055l-5.05957 15.1797c-1.40039 4.18945 0.870117 8.71973 5.05957 10.1201l22.8506 7.60938c21.0898 7.06055 44.3096 4.9502 63.8096 -5.75c19.46 -10.6895 33.71 -29.1895 39.1201 -50.9199zM136 0
c57.3496 0 104 46.6504 104 104s-46.6504 104 -104 104s-104 -46.6504 -104 -104s46.6504 -104 104 -104zM440 0c57.3496 0 104 46.6504 104 104s-46.6504 104 -104 104s-104 -46.6504 -104 -104s46.6504 -104 104 -104z" />
    <glyph glyph-name="heart-rate" unicode="&#xf5f8;" 
d="M480 224h152c4.41992 0 8 -3.58008 8 -8v-16c0 -4.41992 -3.58008 -8 -8 -8h-141.15l-60 -149.94c-2.55957 -6.43945 -8.31934 -10.3096 -15.9395 -10.0293c-6.91016 0.469727 -12.75 5.35938 -14.4404 12.0898l-78.7197 314.97l-82.0596 -410.229
c-1.4707 -7.33008 -7.81055 -12.6699 -15.3105 -12.8604h-0.379883c-7.30957 0 -13.75 4.98047 -15.5303 12.1201l-60.9697 243.88h-139.5c-4.41992 0 -8 3.58008 -8 8v16c0 4.41992 3.58008 8 8 8h152l0.00195312 -0.00683594c7.49121 0 13.7881 -5.1582 15.5283 -12.1133
l46.7197 -186.97l82.0596 410.229c1.4707 7.33008 7.81055 12.6699 15.3105 12.8604c8.07031 -0.169922 14.0996 -4.86035 15.9199 -12.1299l84 -335.98l45.6201 114.051c2.39941 6.0791 8.30957 10.0596 14.8398 10.0596z" />
    <glyph glyph-name="inhaler" unicode="&#xf5f9;" 
d="M24 184c13.25 0 24 -10.75 24 -24s-10.75 -24 -24 -24s-24 10.75 -24 24s10.75 24 24 24zM24 88c13.25 0 24 -10.75 24 -24s-10.75 -24 -24 -24s-24 10.75 -24 24s10.75 24 24 24zM24 -8c13.25 0 24 -10.75 24 -24s-10.75 -24 -24 -24s-24 10.75 -24 24s10.75 24 24 24z
M616.27 409.98c17.0801 -4.58008 27.2109 -22.1201 22.6309 -39.1904l-55.8408 -208.46l3.11035 -3.11035c8.04004 -8.04004 11.2002 -19.75 8.32031 -30.75l-37.96 -144.71c-7.37988 -28.1396 -32.8203 -47.7598 -61.9102 -47.7598h-270.62c-17.6699 0 -32 14.3301 -32 32
v192c0 17.6699 14.3301 32 32 32h122.49l35.9199 136.93c1.97949 7.56055 8.66992 11.9502 15.54 11.9502c3.99023 0 8.04004 -1.49023 11.25 -4.7002l5.10938 -5.10938l24.9707 93.21c3.83008 14.29 16.7598 23.7197 30.8896 23.7197
c2.74023 0 5.53027 -0.360352 8.2998 -1.09961zM525.57 -8.12012l37.96 144.71l-157.25 157.25l-28.8398 -109.96l-6.26074 -23.8799h-147.18v-192h270.62c14.5303 0 27.2598 9.82031 30.9502 23.8799zM556.92 188.46l51.0801 190.61l-137.78 36.9199l-29.7695 -111.061z
M120 136c13.25 0 24 -10.75 24 -24s-10.75 -24 -24 -24s-24 10.75 -24 24s10.75 24 24 24zM120 40c13.25 0 24 -10.75 24 -24s-10.75 -24 -24 -24s-24 10.75 -24 24s10.75 24 24 24z" />
    <glyph glyph-name="kidneys" unicode="&#xf5fb;" horiz-adv-x="608" 
d="M248.4 223.16c15.4395 -8.12988 25.1992 -24.75 25.1992 -42.9297v-236.23c0 -4.41992 -3.39941 -8 -7.59961 -8h-15.2002c-4.2002 0 -7.59961 3.58008 -7.59961 8v236.22c0 6.06055 -3.25 11.6006 -8.40039 14.3105l-51.8701 27.2998
c-0.959961 -13.4004 0.680664 -19.4697 5.01074 -35.7197c11.3994 -42.3408 -9.98047 -122.11 -87.8506 -122.11c-15.25 0 -69.9102 3.5498 -90.7598 81.21c-26.6504 99.2998 4.75 205.97 81.8496 278.4c17.4102 16.3496 39.1104 24.3896 60.7402 24.3896
c24.3701 0 48.6299 -10.21 66.5303 -30.25c34.4795 -38.6396 29.4199 -102.67 -7.33008 -138.91c-8.19043 -8.07031 -14.0898 -16.9697 -18.8398 -26.1396zM155.68 188.71c-10.8701 40.5 2.89062 83.7197 36.8008 115.55c12.1191 11.3799 19.2998 27.0498 20.2197 44.1104
c2 37.1699 -26.25 67.6299 -60.7803 67.6299c-14.9502 0 -29.3301 -5.78027 -40.5 -16.2695c-68.3701 -64.2305 -96.2803 -158.431 -72.8301 -245.83l3.03027 -11.2705c21.8799 -81.6104 138.939 -46.4795 117.08 34.7598zM516.82 423.61
c77.0996 -72.4199 108.5 -179.101 81.8496 -278.4c-20.8496 -77.6602 -75.5098 -81.21 -90.7598 -81.21c-77.8701 0 -99.25 79.7695 -87.8398 122.11c4.33008 16.25 5.96973 22.3193 5.00977 35.7197l-51.8604 -27.2998c-5.16016 -2.70996 -8.41016 -8.25 -8.41016 -14.3105
v-236.22c0 -4.41992 -3.39941 -8 -7.59961 -8h-15.2002c-4.2002 0 -7.59961 3.58008 -7.59961 8v236.23c0 18.1797 9.75 34.7998 25.2002 42.9297l56.1201 29.54c-4.74023 9.16016 -10.6406 18.0596 -18.8301 26.1396c-36.75 36.2402 -41.8105 100.271 -7.33008 138.91
c17.8799 20.04 42.1494 30.25 66.5098 30.25c21.6299 0 43.3301 -8.04004 60.7402 -24.3896zM569.42 153.91c23.4502 87.3994 -4.45996 181.59 -72.8398 245.83c-11.1699 10.4902 -25.5498 16.2695 -40.5 16.2695c-34.5303 0 -62.7803 -30.46 -60.7803 -67.6299
c0.919922 -17.0596 8.10059 -32.7295 20.2197 -44.1104c33.9209 -31.8398 47.6709 -75.0498 36.8105 -115.55l-3.02051 -11.3193c-21.8691 -81.25 95.1904 -116.37 117.08 -34.7607z" />
    <glyph glyph-name="laptop-code" unicode="&#xf5fc;" 
d="M266.34 170.35c-3.12012 -3.12988 -8.17969 -3.12988 -11.3096 -0.00976562l-64 64c-3.12012 3.12012 -3.12012 8.19043 0 11.3105l64 64c3.12012 3.11914 8.18945 3.11914 11.3096 0l11.3105 -11.3105c3.11914 -3.12012 3.11914 -8.18945 0 -11.3096l-47.0303 -47.0303
l47.0303 -47.0303c3.11914 -3.12012 3.11914 -8.18945 0 -11.3096zM362.34 181.66c-1.44531 1.44629 -2.33984 3.44629 -2.33984 5.65137c0 2.20898 0.898438 4.21094 2.34961 5.6582l47.0303 47.0303l-47.04 47.04c-3.12012 3.12012 -3.12012 8.19043 0 11.3096
l11.3105 11.3105c3.11914 3.12012 8.18945 3.12012 11.3096 0l64 -64c3.12012 -3.12012 3.12012 -8.19043 0 -11.3105l-64 -64c-3.12012 -3.11914 -8.19043 -3.11914 -11.3096 0zM624 80c8.83984 0 16 -7.16016 16 -16v-48c0 -44.1104 -35.8799 -80 -80 -80h-480
c-44.1201 0 -80 35.8896 -80 80v48c0 8.83984 7.16016 16 16 16h48v272c0 35.2998 28.7197 64 64 64h384c35.2803 0 64 -28.7002 64 -64v-272h48zM96 352v-272h152.87c4.05957 0 7.01953 -3.12988 7.91992 -7.08984c3.22949 -14.2598 15.9795 -24.9102 31.21 -24.9102h64
c15.2305 0 27.9805 10.6504 31.21 24.9102c0.900391 3.95996 3.86035 7.08984 7.91992 7.08984h152.87v272c0 17.6699 -14.3301 32 -32 32h-384c-17.6699 0 -32 -14.3301 -32 -32zM608 16v32h-194.75c-6.58984 -18.6201 -24.3701 -32 -45.25 -32h-96
c-20.8701 0 -38.6602 13.3799 -45.25 32h-194.75v-32c0 -26.4697 21.5303 -48 48 -48h480c26.4697 0 48 21.5303 48 48z" />
    <glyph glyph-name="layer-group" unicode="&#xf5fd;" horiz-adv-x="512" 
d="M512 191.99c0 -9.9707 -5.80957 -18.9199 -14.8096 -22.8105l-99.6904 -43.25l99.7197 -43.2598c8.95996 -3.87012 14.7705 -12.8301 14.7705 -22.8096c0 -9.9707 -5.81055 -18.9199 -14.8105 -22.8105l-225.29 -97.7402
c-5.05957 -2.20996 -10.4795 -3.30957 -15.8994 -3.30957c-5.6377 0.00683594 -11.0342 1.19922 -15.9004 3.30957l-225.32 97.7607c-8.95996 3.87012 -14.7695 12.8193 -14.7695 22.79c0 9.97949 5.80957 18.9297 14.7998 22.8301l99.6904 43.25l-99.7207 43.2598
c-8.95996 3.87012 -14.7695 12.8193 -14.7695 22.79c0 9.97949 5.80957 18.9297 14.7998 22.8096l99.7002 43.2598l-99.7305 43.2803c-8.95996 3.87012 -14.7695 12.8203 -14.7695 22.79s5.80957 18.9199 14.8096 22.8105l225.261 97.75
c10.1602 4.42969 21.7695 4.41992 31.8701 -0.0205078l225.29 -97.7402c8.95996 -3.87012 14.7695 -12.8193 14.7695 -22.79c0 -9.96973 -5.80957 -18.9199 -14.8096 -22.8096l-99.7002 -43.2598l99.7402 -43.2705c8.95996 -3.87012 14.7695 -12.8301 14.7695 -22.8096z
M45.2305 324.13l208.029 -90.2695c1.74023 -0.770508 3.66992 -0.770508 5.48047 0l208.029 90.2695l-208.029 90.2598c-1.7998 0.780273 -3.70996 0.730469 -5.4502 0.0205078l-0.0302734 -0.0205078zM466.77 59.8604l-110.76 48.0693l-84.1094 -36.4893
c-5.06055 -2.20996 -10.4805 -3.31055 -15.9004 -3.31055c-5.63672 0.00683594 -11.0342 1.19922 -15.9004 3.31055l-84.1094 36.4893l-110.76 -48.0596l208.029 -90.2705c1.74023 -0.769531 3.66992 -0.769531 5.48047 0zM258.74 101.73l208.029 90.25l-110.77 48.0693
l-84.0996 -36.4902c-5.06055 -2.20996 -10.4805 -3.30957 -15.9004 -3.30957c-5.63672 0.00683594 -11.0342 1.19922 -15.9004 3.30957l-84.0996 36.5l-110.77 -48.0596l208.029 -90.2695c1.74023 -0.770508 3.66992 -0.770508 5.48047 0z" />
    <glyph glyph-name="layer-minus" unicode="&#xf5fe;" horiz-adv-x="512" 
d="M512 194.79c0 -10.0703 -5.80957 -19.1201 -14.8096 -23.0303l-99.6904 -43.7295l99.7197 -43.75c8.95996 -3.91992 14.7705 -12.9707 14.7705 -23.0605c0 -10.0801 -5.81055 -19.1299 -14.8105 -23.0596l-225.29 -98.8105
c-5.05957 -2.22949 -10.4795 -3.33984 -15.8994 -3.33984s-10.8398 1.12012 -15.9004 3.33984l-225.32 98.8203c-8.95996 3.91016 -14.7695 12.96 -14.7695 23.04c0 10.0898 5.80957 19.1396 14.7998 23.0596l99.7002 43.7305l-99.7305 43.75
c-8.95996 3.91016 -14.7695 12.96 -14.7695 23.04s5.80957 19.1299 14.8096 23.0596l225.28 98.8203c10.0703 4.42969 21.75 4.42969 31.8105 0l225.33 -98.8398c8.95996 -3.91016 14.7695 -12.96 14.7695 -23.04zM466.81 61.2197l-110.79 48.5898l-84.1191 -36.8994
c-5.06055 -2.23047 -10.4805 -3.33984 -15.9004 -3.33984s-10.8398 1.12012 -15.9004 3.33984l-84.0996 36.8896l-110.77 -48.5801l208.039 -91.2598c1.74023 -0.780273 3.6709 -0.780273 5.48047 0zM258.74 103.53l208.029 91.2598l-208.029 91.2598
c-1.74023 0.780273 -3.66992 0.780273 -5.48047 0l-208.029 -91.2598l208.029 -91.2598c1.74023 -0.780273 3.66992 -0.780273 5.48047 0zM504 384c4.41992 0 8 -3.58008 8 -8v-16c0 -4.41992 -3.58008 -8 -8 -8h-208c-4.41992 0 -8 3.58008 -8 8v16
c0 4.41992 3.58008 8 8 8h208z" />
    <glyph glyph-name="layer-plus" unicode="&#xf5ff;" horiz-adv-x="512" 
d="M504 352c4.41992 0 8 -3.58008 8 -8v-16c0 -4.41992 -3.58008 -8 -8 -8h-88v-88c0 -4.41992 -3.58008 -8 -8 -8h-16c-4.41992 0 -8 3.58008 -8 8v88h-88c-4.41992 0 -8 3.58008 -8 8v16c0 4.41992 3.58008 8 8 8h88v88c0 4.41992 3.58008 8 8 8h16
c4.41992 0 8 -3.58008 8 -8v-88h88zM497.23 81.29c8.95996 -3.83984 14.7695 -12.71 14.7598 -22.5996c0 -9.87012 -5.81055 -18.7402 -14.8105 -22.5908l-225.29 -96.8301c-5.05957 -2.18945 -10.4795 -3.2793 -15.8994 -3.2793s-10.8398 1.10938 -15.9004 3.2793
l-225.32 96.8408c-8.95996 3.83984 -14.7695 12.71 -14.7695 22.5801c0 9.88965 5.80957 18.7598 14.7998 22.6094l99.7002 42.8506l-99.7305 42.8691c-8.95996 3.84082 -14.7695 12.7109 -14.7695 22.5801c0 9.88086 5.80957 18.7402 14.8096 22.5908l210.71 90.5693
c8.48047 3.65039 18.0908 -0.200195 21.7402 -8.47949c3.61035 -8.29004 -0.229492 -17.9307 -8.58008 -21.5205l-193.449 -83.1602l208.039 -89.4297c1.74023 -0.769531 3.6709 -0.769531 5.48047 0l225.32 96.8604c8.41992 3.64941 18.0898 -0.19043 21.7393 -8.48047
c3.61035 -8.29004 -0.229492 -17.9199 -8.5791 -21.5195l-99.7207 -42.8701zM258.74 -30.7197l208.06 89.4297l-110.78 47.6201l-84.1191 -36.1602c-5.06055 -2.18945 -10.4805 -3.28027 -15.9004 -3.28027s-10.8398 1.11035 -15.9004 3.28027l-84.0996 36.1504
l-110.77 -47.6104l208.029 -89.4297c1.74023 -0.770508 3.66992 -0.770508 5.48047 0z" />
    <glyph glyph-name="lips" unicode="&#xf600;" 
d="M545.25 229c6.12988 -2.62012 10.5303 -8.08984 11.7197 -14.6201c1.2207 -6.53027 -0.939453 -13.2197 -5.7793 -17.8896c-114.471 -111.91 -346.41 -113.38 -462.381 0c-4.83984 4.66992 -7 11.3594 -5.7793 17.8896c1.18945 6.53027 5.58984 12 11.7197 14.6201
c17.5596 7.55957 65.5596 25.3301 131.97 26.8896c28.6807 0.25 43.6406 -13.79 93.2803 -13.79c49.71 0 64.1904 14.0508 93.2803 13.79c66.4102 -1.55957 114.41 -19.3301 131.97 -26.8896zM320 144c100.16 0 164.34 38.8096 194.19 62.5498
c-91.6006 30.5801 -135.94 10.5205 -137.28 10.1904c-17.6006 -4.40039 -37.25 -6.61035 -56.9102 -6.61035s-39.3203 2.2002 -56.9102 6.61035c-1.33984 0.330078 -45.6797 20.3896 -137.28 -10.1904c29.8506 -23.7402 94.0303 -62.5498 194.19 -62.5498zM631.14 252.32
c10.3203 -17.1104 11.6299 -37.9902 3.89062 -56.3701c-27.9902 -66.46 -112.63 -227.95 -274.32 -227.95h-81.4297c-161.69 0 -246.33 161.49 -274.311 227.94c-7.73926 18.3896 -6.42969 39.2695 3.89062 56.3799c51.6699 85.6895 164.83 163.68 213.42 163.68
c0 0 32.5693 0 97.7197 -50c65.1504 50 97.7197 50 97.7197 50c48.5898 0 161.75 -77.9902 213.42 -163.68zM605.54 208.37c3.84961 9.13965 3.19043 19.1396 -1.82031 27.4297c-48.3994 80.2803 -151.22 146.83 -184.989 148.181
c-27.3203 -4.24023 -64.8203 -32.2705 -98.7402 -58.3105c-33.9199 26.0303 -71.4199 54.0605 -98.7402 58.3105c-33.7598 -1.35059 -136.59 -67.9004 -184.99 -148.181c-4.99023 -8.29004 -5.64941 -18.2803 -1.7998 -27.4297
c26.3799 -62.6504 103.05 -208.37 244.83 -208.37h81.4297c141.771 0 218.44 145.72 244.82 208.37z" />
    <glyph glyph-name="location-slash" unicode="&#xf603;" 
d="M284.5 281c11 4.40039 22.9004 7 35.5 6.7998c53 0 96 -43 96 -96c0 -4.59961 -0.799805 -9 -1.40039 -13.3994l-31.7998 25.0996c-5.5 29.7998 -31.5 52.4004 -62.7998 52.4004c-1.2002 0 -2.2002 -0.200195 -3.2998 -0.300781zM320 352
c-33.4004 0 -64.4004 -10.4004 -90.0996 -27.9004l-25.8008 20.3008c28.3008 21.5 62.4004 35.6992 99.9004 38.7998v56.7998c0 4.40039 3.59961 8 8 8h16c4.40039 0 8 -3.59961 8 -8v-56.7998c93.2002 -7.7002 167.5 -82 175.2 -175.2h56.7998c4.40039 0 8 -3.59961 8 -8
v-16c0 -4.40039 -3.59961 -8 -8 -8h-56.7998c-1.7998 -21.5996 -7.5 -42 -15.7998 -61l-26.2002 20.5996c6.7002 17.6006 10.7998 36.5 10.7998 56.4004c0 88.2002 -71.7998 160 -160 160zM320 32c33.4004 0 64.4004 10.4004 90.0996 28l25.8008 -20.2998
c-28.3008 -21.6006 -62.4004 -35.7998 -99.9004 -38.9004v-56.7998c0 -4.40039 -3.59961 -8 -8 -8h-16c-4.40039 0 -8 3.59961 -8 8v56.7998c-93.2002 7.7002 -167.5 82 -175.2 175.2h-56.7998c-4.40039 0 -8 3.59961 -8 8v16c0 4.40039 3.59961 8 8 8h56.7998
c1.7998 21.5996 7.5 42 15.7998 61l26.2002 -20.5996c-6.7002 -17.6006 -10.7998 -36.5 -10.7998 -56.4004c0 -88.2002 71.7998 -160 160 -160zM637 -37.2002c3.5 -2.7998 4 -7.7998 1.2002 -11.2998l-10 -12.5c-2.7002 -3.40039 -7.7998 -4 -11.2002 -1.2002l-614 483.5
c-3.40039 2.7002 -4 7.7002 -1.2002 11.2002l10 12.5c2.7002 3.5 7.7998 4 11.2002 1.2002zM355.5 103c-11 -4.40039 -22.9004 -7 -35.5 -6.7998c-53 0 -96 43 -96 96c0 4.59961 0.799805 9 1.40039 13.3994l31.7998 -25.0996c5.5 -29.7998 31.5 -52.4004 62.7998 -52.4004
c1.2002 0 2.2002 0.200195 3.2998 0.300781z" />
    <glyph glyph-name="lungs" unicode="&#xf604;" 
d="M636.11 57.8496c2.58984 -9.68945 3.88965 -19.6396 3.89941 -29.6396c0 -52.3203 -45.6602 -92.21 -98.1299 -92.21c-18.0996 0 -24.4697 2.87012 -86.7402 19.5498c-42.21 11.2998 -71.3096 47.46 -71.3096 88.6104v89.8701l32.0195 -21.3301v-68.5303
c0 -26.4697 19.5605 -50.2002 47.5703 -57.7002c64.4004 -17.25 66.0303 -18.46 78.4502 -18.46c36.4502 0 66.1104 27.0098 66.1104 60.21c-0.00585938 7.40332 -0.988281 14.5566 -2.81055 21.3906c-20.8496 78.1699 -53.8701 152.87 -98.1201 222.01
c-27.8193 43.9395 -32.1396 48.3799 -53.1299 48.3799c-21 0 -38.0801 -15.1201 -38.0801 -33.71v-96.6904l98.5098 -65.6299c2.15332 -1.43555 3.55957 -3.88867 3.55957 -6.66797c0 -1.63867 -0.493164 -3.16211 -1.33887 -4.43164l-8.87988 -13.3105
c-2.4502 -3.67969 -7.4209 -4.66992 -11.1006 -2.21973l-176.59 117.65l-176.59 -117.66c-3.67969 -2.4502 -8.65039 -1.45996 -11.1006 2.21973l-8.87988 13.3105c-2.44922 3.67969 -1.45996 8.64941 2.2207 11.0996l98.5098 65.6299v96.6904
c0 18.5898 -17.0801 33.71 -38.0801 33.71c-20.9902 0 -25.3105 -4.44043 -53.1299 -48.3799c-44.2598 -69.1406 -77.2705 -143.83 -98.1201 -222.011c-1.86035 -6.98926 -2.81055 -14.1895 -2.81055 -21.3896c0 -33.2002 29.6602 -60.21 66.1104 -60.21
c12.4199 0 14.0498 1.20996 78.46 18.46c28.0098 7.5 47.5703 31.2305 47.5703 57.7002v68.54l32.0195 21.3301v-89.8701c0 -41.1406 -29.0996 -77.3105 -71.3096 -88.6104c-62.2705 -16.6797 -68.6396 -19.5498 -86.7402 -19.5498
c-52.4697 0 -98.1299 39.8896 -98.1299 92.21c0 10 1.2998 19.9502 3.88965 29.6396c21.6807 81.3008 56.0801 159.15 102.08 231.021c22.1299 34.5703 36.0898 63.1299 80.1006 63.1299c38.7197 0 70.0996 -29.4199 70.0996 -65.71v-75.3604l47.8105 31.8506v197.22
c0 4.41992 3.58984 8 8.00977 8h16.0098c4.41992 0 8.00977 -3.58008 8.00977 -8v-197.22l47.8105 -31.8506v75.3604c0 36.29 31.3799 65.71 70.0996 65.71c44.0098 0 57.9697 -28.5596 80.1104 -63.1299c46 -71.8701 80.3994 -149.72 102.08 -231.021z" />
    <glyph glyph-name="map-marker-alt-slash" unicode="&#xf605;" 
d="M320 416c-51.7002 0 -97.2998 -25.0996 -126.5 -63.2998l-25.4004 20c35.2002 45.5996 90.2002 75.2998 151.9 75.2998c105.6 0 192 -86.4004 192 -192c0 -43.2002 -8.09961 -69.2002 -41.5 -121.4l-25.2998 19.9004c30.0996 47.4004 34.7998 66.7998 34.7998 101.5
c0 88.2002 -71.7998 160 -160 160zM394 194.9l-25.2002 19.7998c9.40039 11.0996 15.2002 25.2998 15.2002 41.2998c0 35.9004 -28.0996 64 -64 64c-21.5996 0 -40.2002 -10.2998 -51.7002 -26.2002l-25.0996 19.7998c17.2998 23.3008 44.8994 38.4004 76.7998 38.4004
c53.7998 0 96 -42.2002 96 -96c0 -23.5 -8.40039 -44.5996 -22 -61.0996zM372.5 48.7002c6.59961 9.2998 12.7002 18 18.5 26.2998l25.2002 -19.7998c-21 -29.9004 -46.2002 -65.5 -77 -109.601c-4.7998 -6.39941 -12 -9.59961 -19.2002 -9.59961
s-14.4004 3.2002 -19.2002 9.59961c-147.2 211.2 -172.8 233.601 -172.8 310.4c0 8.40039 0.700195 16.5996 1.7998 24.7002l30.2998 -23.9004c0 -0.299805 -0.0996094 -0.5 -0.0996094 -0.799805c0 -53.0996 10.5996 -70 107.5 -207.3
c15.4004 -21.7998 32.7998 -46.5 52.5 -74.7002c19.4004 27.7998 37 52.7002 52.5 74.7002zM637 -37.2002c3.5 -2.7998 4 -7.7998 1.2002 -11.2998l-10 -12.5c-2.7002 -3.40039 -7.7998 -4 -11.2002 -1.2002l-614 483.5c-3.40039 2.7002 -4 7.7002 -1.2002 11.2002l10 12.5
c2.7002 3.5 7.7998 4 11.2002 1.2002z" />
    <glyph glyph-name="map-marker-check" unicode="&#xf606;" horiz-adv-x="384" 
d="M192 448c105.6 0 192 -86.4004 192 -192c0 -76.7998 -25.5996 -99.2002 -172.8 -310.4c-4.7998 -6.39941 -12 -9.59961 -19.2002 -9.59961s-14.4004 3.2002 -19.2002 9.59961c-147.2 211.2 -172.8 233.601 -172.8 310.4c0 105.6 86.4004 192 192 192zM192.01 -26
c19.3799 27.7695 36.9502 52.6797 52.4707 74.6904c96.8799 137.34 107.52 154.199 107.52 207.31c0 88.2197 -71.7803 160 -160 160s-160 -71.7803 -160 -160c0 -53.1104 10.6396 -69.9697 107.52 -207.31c15.4004 -21.8408 32.8203 -46.5205 52.4902 -74.6904z
M281.34 313.54l11.2998 -11.3096c3.12012 -3.12012 3.12012 -8.19043 0 -11.3105l-124.449 -124.45c-1.56055 -1.55957 -3.60059 -2.33984 -5.65039 -2.33984s-4.09961 0.780273 -5.66016 2.33984l-65.54 65.54c-3.12012 3.12012 -3.12012 8.19043 0 11.3105
l11.3105 11.3096c1.55957 1.56055 3.60938 2.33984 5.65918 2.33984c0.00585938 0 0.0107422 0.000976562 0.015625 0.000976562c2.2041 0 4.2002 -0.894531 5.64453 -2.34082l48.5703 -48.5703l107.479 107.48c1.56055 1.55957 3.61035 2.33984 5.66016 2.33984
c0.00488281 0 0.0107422 0.000976562 0.015625 0.000976562c2.2041 0 4.2002 -0.894531 5.64453 -2.34082z" />
    <glyph glyph-name="map-marker-edit" unicode="&#xf607;" horiz-adv-x="384" 
d="M192 448c105.6 0 192 -86.4004 192 -192c0 -76.7998 -25.5996 -99.2002 -172.8 -310.4c-4.7998 -6.39941 -12 -9.59961 -19.2002 -9.59961s-14.4004 3.2002 -19.2002 9.59961c-147.2 211.2 -172.8 233.601 -172.8 310.4c0 105.6 86.4004 192 192 192zM192.01 -26
c19.3799 27.7695 36.9502 52.6797 52.4707 74.6904c96.8799 137.34 107.52 154.199 107.52 207.31c0 88.2197 -71.7803 160 -160 160s-160 -71.7803 -160 -160c0 -53.1104 10.6396 -69.9697 107.52 -207.31c15.4004 -21.8408 32.8203 -46.5205 52.4902 -74.6904z
M256.02 342.65l22.6201 -22.6309c12.4707 -12.4697 12.4707 -32.7793 0 -45.25l-94.0898 -94.0898c-2 -2.01953 -4.53027 -3.44922 -7.28027 -4.16992l-61.25 -16c-1.30957 -0.349609 -2.68945 -0.519531 -4.0293 -0.519531c-4.19043 0 -8.28027 1.63965 -11.3105 4.68945
c-4.04004 4.02051 -5.59961 9.86035 -4.16016 15.3604l16 61.25c0.720703 2.75977 2.16016 5.25 4.16016 7.26953l94.0898 94.0908c12.5 12.4697 32.75 12.4697 45.25 0zM165 206.39l91.0303 91.0205l-22.6201 22.6201l-91.0303 -91.0303l-8 -30.6104z" />
    <glyph glyph-name="map-marker-exclamation" unicode="&#xf608;" horiz-adv-x="384" 
d="M192 448c105.6 0 192 -86.4004 192 -192c0 -76.7998 -25.5996 -99.2002 -172.8 -310.4c-4.7998 -6.39941 -12 -9.59961 -19.2002 -9.59961s-14.4004 3.2002 -19.2002 9.59961c-147.2 211.2 -172.8 233.601 -172.8 310.4c0 105.6 86.4004 192 192 192zM192.01 -26
c19.3799 27.7695 36.9502 52.6797 52.4707 74.6904c96.8799 137.34 107.52 154.199 107.52 207.31c0 88.2197 -71.7803 160 -160 160s-160 -71.7803 -160 -160c0 -53.1104 10.6396 -69.9697 107.52 -207.31c15.4004 -21.8408 32.8203 -46.5205 52.4902 -74.6904zM183.52 208
c-4.22949 0 -7.72949 3.29004 -7.97949 7.5l-7 112c-0.290039 4.61035 3.37012 8.5 7.97949 8.5h30.9707c4.60938 0 8.26953 -3.88965 7.97949 -8.5l-7 -112c-0.261719 -4.17773 -3.73633 -7.49805 -7.97949 -7.5h-16.9707zM192 184c13.25 0 24 -10.7402 24 -24
c0 -13.25 -10.75 -24 -24 -24s-24 10.75 -24 24c0 13.2598 10.75 24 24 24z" />
    <glyph glyph-name="map-marker-minus" unicode="&#xf609;" horiz-adv-x="384" 
d="M192 448c105.6 0 192 -86.4004 192 -192c0 -76.7998 -25.5996 -99.2002 -172.8 -310.4c-4.7998 -6.39941 -12 -9.59961 -19.2002 -9.59961s-14.4004 3.2002 -19.2002 9.59961c-147.2 211.2 -172.8 233.601 -172.8 310.4c0 105.6 86.4004 192 192 192zM192.01 -26
c19.3799 27.7695 36.9502 52.6797 52.4707 74.6904c96.8799 137.34 107.52 154.199 107.52 207.31c0 88.2197 -71.7803 160 -160 160s-160 -71.7803 -160 -160c0 -53.1104 10.6396 -69.9697 107.52 -207.31c15.4004 -21.8408 32.8203 -46.5205 52.4902 -74.6904zM280 272
c4.41992 0 8 -3.58008 8 -8v-16c0 -4.41992 -3.58008 -8 -8 -8h-176c-4.41992 0 -8 3.58008 -8 8v16c0 4.41992 3.58008 8 8 8h176z" />
    <glyph glyph-name="map-marker-plus" unicode="&#xf60a;" horiz-adv-x="384" 
d="M192 448c105.6 0 192 -86.4004 192 -192c0 -76.7998 -25.5996 -99.2002 -172.8 -310.4c-4.7998 -6.39941 -12 -9.59961 -19.2002 -9.59961s-14.4004 3.2002 -19.2002 9.59961c-147.2 211.2 -172.8 233.601 -172.8 310.4c0 105.6 86.4004 192 192 192zM192.01 -26
c19.3799 27.7695 36.9502 52.6797 52.4707 74.6904c96.8799 137.34 107.52 154.199 107.52 207.31c0 88.2197 -71.7803 160 -160 160s-160 -71.7803 -160 -160c0 -53.1104 10.6396 -69.9697 107.52 -207.31c15.4004 -21.8408 32.8203 -46.5205 52.4902 -74.6904zM280 272
c4.41992 0 8 -3.58008 8 -8v-16c0 -4.41992 -3.58008 -8 -8 -8h-72v-72c0 -4.41992 -3.58008 -8 -8 -8h-16c-4.41992 0 -8 3.58008 -8 8v72h-72c-4.41992 0 -8 3.58008 -8 8v16c0 4.41992 3.58008 8 8 8h72v72c0 4.41992 3.58008 8 8 8h16c4.41992 0 8 -3.58008 8 -8v-72h72
z" />
    <glyph glyph-name="map-marker-question" unicode="&#xf60b;" horiz-adv-x="384" 
d="M192 448c105.6 0 192 -86.4004 192 -192c0 -76.7998 -25.5996 -99.2002 -172.8 -310.4c-4.7998 -6.39941 -12 -9.59961 -19.2002 -9.59961s-14.4004 3.2002 -19.2002 9.59961c-147.2 211.2 -172.8 233.601 -172.8 310.4c0 105.6 86.4004 192 192 192zM192.01 -26.0098
c19.3799 27.7793 36.9502 52.6895 52.4707 74.7002c96.8799 137.34 107.52 154.199 107.52 207.31c0 88.2197 -71.7803 160 -160 160s-160 -71.7803 -160 -160c0 -53.1104 10.6396 -69.9697 107.52 -207.32c15.4004 -21.8398 32.8203 -46.5195 52.4902 -74.6895zM192 152
c13.2598 0 24 -10.7402 24 -24c0 -13.25 -10.7402 -24 -24 -24s-24 10.75 -24 24c0 13.2598 10.7402 24 24 24zM192.68 352c50.0605 0 80 -40.6699 80 -80c0 -38.2998 -32.3398 -57.7695 -64 -73.8604v-14.1396c0 -4.41992 -3.58008 -8 -8 -8h-16
c-4.41992 0 -8 3.58008 -8 8v24l-0.015625 -0.00585938c0 6.26367 3.60742 11.6904 8.85547 14.3154c34.3203 17.1602 55.1602 29.0703 55.1602 49.6904c0 23.2695 -16.8096 48 -48 48c-24.1602 0 -44.21 -17.9297 -47.5195 -41.1904
c-0.560547 -3.90918 -3.90039 -6.80957 -7.85059 -6.80957h-16.1299c-4.7998 0 -8.54004 4.21973 -8 8.99023c4.48047 39.8896 38.4102 71.0098 79.5 71.0098z" />
    <glyph glyph-name="map-marker-slash" unicode="&#xf60c;" 
d="M320 416c-51.7002 0 -97.2998 -25.0996 -126.5 -63.2998l-25.4004 20c35.2002 45.5996 90.2002 75.2998 151.9 75.2998c105.6 0 192 -86.4004 192 -192c0 -43.2002 -8.09961 -69.2002 -41.5 -121.4l-25.2998 19.9004c30.0996 47.4004 34.7998 66.7998 34.7998 101.5
c0 88.2002 -71.7998 160 -160 160zM372.5 48.7002c6.59961 9.2998 12.7002 18 18.5 26.2998l25.2002 -19.7998c-21 -29.9004 -46.2002 -65.5 -77 -109.601c-4.7998 -6.39941 -12 -9.59961 -19.2002 -9.59961s-14.4004 3.2002 -19.2002 9.59961
c-147.2 211.2 -172.8 233.601 -172.8 310.4c0 8.40039 0.700195 16.5996 1.7998 24.7002l30.2998 -23.9004c0 -0.299805 -0.0996094 -0.5 -0.0996094 -0.799805c0 -53.0996 10.5996 -70 107.5 -207.3c15.4004 -21.7998 32.7998 -46.5 52.5 -74.7002
c19.4004 27.7998 37 52.7002 52.5 74.7002zM637 -37.2002c3.5 -2.7998 4 -7.7998 1.2002 -11.2998l-10 -12.5c-2.7002 -3.40039 -7.7998 -4 -11.2002 -1.2002l-614 483.5c-3.40039 2.7002 -4 7.7002 -1.2002 11.2002l10 12.5c2.7002 3.5 7.7998 4 11.2002 1.2002z" />
    <glyph glyph-name="map-marker-smile" unicode="&#xf60d;" horiz-adv-x="384" 
d="M192 448c105.6 0 192 -86.4004 192 -192c0 -76.7998 -25.5996 -99.2002 -172.8 -310.4c-4.7998 -6.39941 -12 -9.59961 -19.2002 -9.59961s-14.4004 3.2002 -19.2002 9.59961c-147.2 211.2 -172.8 233.601 -172.8 310.4c0 105.6 86.4004 192 192 192zM192.01 -26
c19.3799 27.7803 36.9502 52.6797 52.4707 74.6904c96.8799 137.34 107.52 154.199 107.52 207.31c0 88.2197 -71.7803 160 -160 160s-160 -71.7803 -160 -160c0 -53.1104 10.6396 -69.9697 107.52 -207.31c15.4004 -21.8408 32.8203 -46.5205 52.4902 -74.6904zM256 264
c-13.25 0 -24 10.75 -24 24c0 13.2598 10.75 24 24 24s24 -10.7402 24 -24c0 -13.25 -10.75 -24 -24 -24zM267.84 210.66c5.75 6.71973 15.8799 7.5 22.54 1.78027c6.71973 -5.73047 7.53027 -15.8408 1.78027 -22.5605
c-24.8799 -29.1602 -61.3799 -45.8799 -100.16 -45.8799s-75.2803 16.7197 -100.15 45.8604c-5.75 6.71973 -4.96973 16.8096 1.78027 22.5596c6.69043 5.66016 16.8105 4.9502 22.5303 -1.78027c18.8096 -22.0195 46.4297 -34.6396 75.8398 -34.6396
s57.0303 12.6201 75.8398 34.6602zM128 264c-13.25 0 -24 10.75 -24 24c0 13.2598 10.75 24 24 24s24 -10.7402 24 -24c0 -13.25 -10.75 -24 -24 -24z" />
    <glyph glyph-name="map-marker-times" unicode="&#xf60e;" horiz-adv-x="384" 
d="M192 448c105.6 0 192 -86.4004 192 -192c0 -76.7998 -25.5996 -99.2002 -172.8 -310.4c-4.7998 -6.39941 -12 -9.59961 -19.2002 -9.59961s-14.4004 3.2002 -19.2002 9.59961c-147.2 211.2 -172.8 233.601 -172.8 310.4c0 105.6 86.4004 192 192 192zM192.01 -26
c19.3799 27.7695 36.9502 52.6797 52.4707 74.6904c96.8799 137.34 107.52 154.199 107.52 207.31c0 88.2197 -71.7803 160 -160 160s-160 -71.7803 -160 -160c0 -53.1104 10.6396 -69.9697 107.52 -207.31c15.4004 -21.8408 32.8203 -46.5205 52.4902 -74.6904z
M265.54 318.23c1.44629 -1.4502 2.34082 -3.4541 2.34082 -5.66211c0 -2.20703 -0.894531 -4.20801 -2.34082 -5.6582l-50.9102 -50.9102l50.9102 -50.9199c3.12012 -3.12012 3.12012 -8.19043 0 -11.3105l-11.3096 -11.3096
c-1.57031 -1.55957 -3.61035 -2.33984 -5.66016 -2.33984c-2.05078 0 -4.10059 0.780273 -5.66016 2.33984l-50.9102 50.9102l-50.9102 -50.9004c-1.55957 -1.55957 -3.60938 -2.33984 -5.66016 -2.33984c-2.0498 0 -4.09961 0.780273 -5.66016 2.33984l-11.3096 11.3105
c-3.12012 3.12012 -3.12012 8.18945 0 11.3096l50.9102 50.9102l-50.9102 50.9199c-3.12012 3.12012 -3.12012 8.19043 0 11.3105l11.3096 11.3096c1.57031 1.55957 3.61035 2.33984 5.66016 2.33984c2.05078 0 4.10059 -0.780273 5.66016 -2.33984l50.9102 -50.9102
l50.9102 50.9102c1.55957 1.55957 3.60938 2.33984 5.66016 2.33984c2.0498 0 4.09961 -0.780273 5.66016 -2.33984z" />
    <glyph glyph-name="microscope" unicode="&#xf610;" horiz-adv-x="512" 
d="M456 32c30.8799 0 56 -25.1201 56 -56c0 -22.0596 -17.9404 -40 -40 -40h-432c-22.0596 0 -40 17.9404 -40 40c0 30.8799 25.1201 56 56 56h264c70.5898 0 128 57.4199 128 128s-57.4102 128 -128 128v-128c0 -17.6699 -14.3301 -32 -32 -32v-48
c0 -8.83984 -7.16016 -16 -16 -16h-96c-8.83984 0 -16 7.16016 -16 16v48c-17.6699 0 -32 14.3301 -32 32v224c0 17.6699 14.3301 32 32 32v16c0 8.83984 7.16016 16 16 16h96c8.83984 0 16 -7.16016 16 -16v-16c17.6699 0 32 -14.3301 32 -32v-64
c88.2197 0 160 -71.7803 160 -160c0 -52.5195 -25.7803 -98.8096 -64.9902 -128h40.9902zM256 96v32h-64v-32h64zM288 160v224h-32v32h-64v-32h-32v-224h128zM472 -32c4.41992 0 8 3.58008 8 8c0 13.2598 -10.75 24 -24 24h-400c-13.25 0 -24 -10.7402 -24 -24
c0 -4.41992 3.58008 -8 8 -8h432z" />
    <glyph glyph-name="oil-temp" unicode="&#xf614;" 
d="M8 64c-4.41992 0 -8 3.58008 -8 8v16c0 4.41992 3.58008 8 8 8h24c26.04 0 45.7998 8.41992 56.0801 17.9004c8.90039 8.20996 19.6602 14.0996 31.7695 14.0996h16.3008c12.1094 0 22.8691 -5.88965 31.7695 -14.0996
c8.90039 -8.2207 25.2305 -15.2803 46.2803 -17.1201c3.91016 -11.7402 9.55957 -22.5703 16.8994 -32.2207c-2.40918 -0.0996094 -4.64941 -0.55957 -7.09961 -0.55957c-38.6201 0 -72.7197 12.1797 -96 31.8398c-23.2803 -19.6494 -57.3799 -31.8398 -96 -31.8398h-24z
M632 96c4.41992 0 8 -3.58008 7.99023 -8v-16c0 -4.41992 -3.58008 -8 -8 -8h-24c-38.6201 0 -72.7207 12.1797 -96 31.8398c-23.2803 -19.6494 -57.3799 -31.8398 -96 -31.8398c-2.4502 0 -4.69043 0.459961 -7.10059 0.55957
c7.33008 9.65039 12.9902 20.4707 16.9004 32.2207c21.0498 1.83984 37.3799 8.91016 46.2803 17.1201c8.89941 8.20996 19.6602 14.0996 31.7695 14.0996h16.2998c12.1104 0 22.8701 -5.88965 31.7705 -14.0996c10.29 -9.48047 30.0498 -17.9004 56.0898 -17.9004h24z
M320 47.9805c-44.1201 0 -80 35.8994 -80 80.0195c0 38.6299 27.5195 70.9502 64 78.3799v217.62c0 13.2002 10.7998 24 24 24h80c4.41992 0 8 -3.58008 8 -8v-16c0 -4.41992 -3.58008 -8 -8 -8h-72v-32h72c4.41992 0 8 -3.58008 8 -8v-16c0 -4.41992 -3.58008 -8 -8 -8h-72
v-32h72c4.41992 0 8 -3.58008 8 -8v-16c0 -4.41992 -3.58008 -8 -8 -8h-72v-81.6201c36.4805 -7.42969 64 -39.75 64 -78.3799c0 -44.1299 -35.8799 -80.0195 -80 -80.0195zM320 176c-26.4697 0 -48 -21.5303 -48 -48s21.5303 -48.0195 48 -48.0195s48 21.5498 48 48.0195
s-21.5303 48 -48 48zM632 -32c4.41992 0 8 -3.58008 8 -8v-16c0 -4.41992 -3.58008 -8 -8 -8h-24c-38.6201 0 -72.7197 12.1797 -96 31.8398c-23.2803 -19.6494 -57.3799 -31.8398 -96 -31.8398s-72.7197 12.1797 -96 31.8398
c-23.2803 -19.6494 -57.3799 -31.8398 -96 -31.8398s-72.7197 12.1797 -96 31.8398c-23.2803 -19.6494 -57.3799 -31.8398 -96 -31.8398h-24c-4.41992 0 -8 3.58008 -8 8v16c0 4.41992 3.58008 8 8 8h24c26.04 0 45.7998 8.41992 56.0703 17.9004
c8.89941 8.20996 19.6602 14.0996 31.7695 14.0996h16.2998c12.1104 0 22.8701 -5.88965 31.7705 -14.0996c10.29 -9.48047 30.0498 -17.9004 56.0898 -17.9004s45.7998 8.41992 56.0703 17.9004c8.89941 8.20996 19.6602 14.0996 31.7695 14.0996h16.2998
c12.1104 0 22.8701 -5.88965 31.7705 -14.0996c10.29 -9.48047 30.0498 -17.9004 56.0898 -17.9004s45.7998 8.41992 56.0703 17.9004c8.89941 8.20996 19.6602 14.0996 31.7695 14.0996h16.2998c12.1104 0 22.8701 -5.88965 31.7705 -14.0996
c10.29 -9.48047 30.0498 -17.9004 56.0898 -17.9004h24z" />
    <glyph glyph-name="parking-slash" unicode="&#xf617;" 
d="M496 384h-342.2l-32.7998 25.7998c6.90039 3.7998 14.7002 6.2002 23.0996 6.2002h351.9c26.5 0 48 -21.5 48 -48v-291.3l-32 25.2002v266.1c0 8.7998 -7.2002 16 -16 16zM413.8 179.2l-25 19.5996c7 9.2998 11.2002 20.7002 11.2002 33.2002
c0 30.9004 -25.0996 56 -56 56h-68.5l-34.2998 27c1.2998 2.7998 3.5 5 6.7998 5h92.0996c46 0 87 -33.5 91.5 -79.2002c2.30078 -23.2998 -4.89941 -44.7002 -17.7998 -61.5996zM637 -37.2002c3.5 -2.7998 4 -7.7998 1.2002 -11.2998l-10 -12.5
c-2.7002 -3.40039 -7.7998 -4 -11.2002 -1.2002l-614 483.5c-3.40039 2.7002 -4 7.7002 -1.2002 11.2002l10 12.5c2.7002 3.5 7.7998 4 11.2002 1.2002zM264.1 64.0996h-16c-4.39941 0 -8 3.60059 -8 8v121.7l63.2002 -49.7002h-31.2002v-72c0 -4.39941 -3.59961 -8 -8 -8z
M144.1 0.0996094h342l32.9004 -25.8994c-6.90039 -3.7998 -14.5996 -6.10059 -23 -6.10059h-351.9c-26.5 0 -48 21.5 -48 48v291.101l32 -25.2002v-265.9c0 -8.7998 7.2002 -16 16 -16z" />
    <glyph glyph-name="pencil-paintbrush" unicode="&#xf618;" horiz-adv-x="512" 
d="M433.43 82.6504c2.65039 -6.99023 9 -11.2305 16.4199 -11.2305c12.4902 0 51.1406 31.1299 62.1504 38.6504c0 -92.6504 -42.6699 -174.07 -144 -174.07c-107.74 0 -135.9 67.9805 -141.91 112.89l-93.71 -93.7197l-107.439 -18.8398
c-13.3701 -2.33984 -27.3105 8.92969 -24.5908 24.5596l18.7402 107.45l114.17 114.15l-110.43 121.46c-58.2705 64.0303 5.88965 144.05 70.6504 144.05c23.3896 0 46.8594 -10.4404 64.6699 -35.8496l82.0693 -122.721l144.521 144.5
c9.37988 9.37988 21.6797 14.0703 33.9697 14.0703s24.5898 -4.69043 33.9697 -14.0596l45.25 -45.25c18.75 -18.7607 18.7607 -49.1709 0 -67.9307l-158.43 -158.45c38.9199 -5.8291 73.3701 -25.4697 93.9297 -79.6592zM407.36 411.3l-46.0205 -46l67.9404 -67.9395
l46.0293 46.0293c6.25 6.25 6.25 16.4199 0 22.6699l-45.25 45.2402c-4.08984 4.08984 -18.6094 4.08984 -22.6992 0zM46.5098 325.48l109.41 -120.341l61.2305 61.2207l-85.2002 127.42c-10.3301 14.75 -23.2705 22.2197 -38.4697 22.2197
c-22.9004 0 -47.5605 -16.71 -57.3604 -38.8799c-7.94043 -17.96 -4.4502 -35.3301 10.3896 -51.6396zM116.89 -15.0596l289.761 289.79l-67.9404 67.9395l-289.83 -289.8l-14.3799 -82.3701zM368 -32c62.0801 0 90.1504 37.4697 102.56 76.29
c-7.5498 -3.30957 -14.1494 -4.86035 -20.7197 -4.86035c-20.8096 0 -39 12.5205 -46.3301 31.8701c-6.85938 18.0898 -17.6201 56.6504 -89.3096 61.2598l-40.0303 -35.5898l-16.8701 -16.8701c-2.46973 -27.7998 4.53027 -59.9492 23.7402 -81.2793
c18.4199 -20.4502 47.6797 -30.8203 86.96 -30.8203z" />
    <glyph glyph-name="poop" unicode="&#xf619;" horiz-adv-x="512" 
d="M476.17 105.29c22.0605 -17.4297 35.8301 -44.3301 35.8301 -74.29c0 -52.3799 -42.6201 -95 -95 -95h-322c-52.3799 0 -95 42.6201 -95 95c0 29.96 13.7695 56.8604 35.8301 74.29c-5.12012 11.7197 -7.83008 24.4902 -7.83008 37.71
c0 39.1904 23.8604 72.9199 57.8096 87.4199c-1.18945 5.74023 -1.80957 11.6299 -1.80957 17.5801c0 48.5195 39.4805 88 88 88h14c20.9502 0 38 17.0498 38 38c0 9.87988 -3.91992 17.4199 -7.21973 22.0098c-3.76465 5.24805 -5.98438 11.7305 -5.98438 18.6758
c0 4.35938 0.873047 8.51562 2.4541 12.3047c4.20117 10.0684 13.418 17.5186 24.5098 19.2793c5.50977 0.880859 11.4502 1.73047 18.2402 1.73047c63.96 0 116 -52.04 116 -116c0 -0.669922 -0.00976562 -1.33984 -0.0195312 -2.00977
c32.7598 -12.8301 56.0195 -44.7402 56.0195 -81.9902c-0.00292969 -6.04492 -0.626953 -11.8828 -1.80957 -17.5801c33.9492 -14.5 57.8096 -48.2295 57.8096 -87.4199c0 -13.2197 -2.71973 -26 -7.83008 -37.71zM417 -32c34.79 0 63 28.21 63 63
c0 31.3896 -23.0195 57.21 -53.0596 62c15.1299 11.5098 25.0596 29.5195 25.0596 50c0 34.79 -28.21 63 -63 63h-12.3096c11.7393 10.2598 19.3096 25.1797 19.3096 42c0 30.9297 -25.0703 56 -56 56h-5.13965c3.12012 8.7998 5.13965 18.1299 5.13965 28
c0 46.3896 -37.6104 84 -84 84c-4.53027 0 -8.87988 -0.639648 -13.2197 -1.33008c8.23926 -11.4795 13.2197 -25.46 13.2197 -40.6699c0 -38.6602 -31.3398 -70 -70 -70h-14c-30.9297 0 -56 -25.0703 -56 -56c0 -16.8203 7.57031 -31.7402 19.3096 -42h-12.3096
c-34.79 0 -63 -28.21 -63 -63c0 -20.4805 9.92969 -38.4902 25.0596 -50c-30.04 -4.79004 -53.0596 -30.6104 -53.0596 -62c0 -34.79 28.21 -63 63 -63h322z" />
    <glyph glyph-name="ruler-triangle" unicode="&#xf61c;" horiz-adv-x="512" 
d="M501.65 -4.08008c22.1094 -22.1201 6.44922 -59.9199 -24.8203 -59.9199h-441.73c-19.3896 0 -35.0996 15.71 -35.0996 35.0996v441.73c0 21.1602 17.3096 35.1699 35.3496 35.1699c8.62012 0 17.4102 -3.2002 24.5605 -10.3496zM479.69 -30.0898
c0.799805 1.91016 -0.0908203 2.7998 -0.640625 3.41016l-73.79 73.79l-16.9697 -16.9707c-1.57031 -1.55957 -3.61035 -2.33984 -5.66016 -2.33984s-4.09961 0.780273 -5.66016 2.33984l-11.3096 11.3105c-3.12012 3.12012 -3.12012 8.18945 0 11.3096l16.9697 16.9707
l-45.25 45.25l-16.9697 -16.9707c-1.57031 -1.55957 -3.61035 -2.33984 -5.66016 -2.33984s-4.09961 0.780273 -5.66016 2.33984l-11.3096 11.3105c-3.12012 3.12012 -3.12012 8.18945 0 11.3096l16.9697 16.9697l-45.25 45.25l-16.9697 -16.9697
c-1.56055 -1.55957 -3.61035 -2.33984 -5.66016 -2.33984c-0.00488281 0 -0.0107422 -0.000976562 -0.015625 -0.000976562c-2.2041 0 -4.2002 0.894531 -5.64453 2.34082l-11.3096 11.3105c-3.12012 3.11914 -3.12012 8.18945 0 11.3096l16.9697 16.9697l-45.2598 45.2607
l-16.9707 -16.9707c-1.55957 -1.55957 -3.60938 -2.33984 -5.65918 -2.33984c-0.00585938 0 -0.0107422 -0.000976562 -0.0166016 -0.000976562c-2.20312 0 -4.19922 0.894531 -5.64355 2.34082l-11.3105 11.3105c-3.12012 3.12012 -3.12012 8.18945 0 11.3096
l16.9707 16.9697l-45.2607 45.2607l-16.9697 -16.9707c-1.57031 -1.55957 -3.61035 -2.33984 -5.66016 -2.33984c-0.00488281 0 -0.0107422 -0.000976562 -0.015625 -0.000976562c-2.20312 0 -4.19922 0.895508 -5.64453 2.34082l-11.3193 11.3105
c-3.12012 3.12012 -3.12012 8.18945 0 11.3096l16.9697 16.9707l-73.79 73.7891c-0.900391 0.900391 -1.4502 0.980469 -1.92969 0.980469c-0.150391 0 -3.36035 -0.0400391 -3.36035 -3.16992v-441.73c0 -1.70996 1.38965 -3.09961 3.09961 -3.09961h441.73
c0.820312 0 2.07031 0 2.86035 1.91016zM123.31 219.32l160 -159.99c2.89355 -2.90332 4.67285 -6.91992 4.67285 -11.3379c0 -2.15918 -0.426758 -4.2207 -1.20215 -6.10254c-2.4707 -5.98926 -8.31055 -9.87988 -14.7803 -9.87988h-160c-8.83984 0 -16 7.16016 -16 16v160
c0 6.66406 4.07227 12.376 9.87012 14.7803c5.93945 2.47949 12.8799 1.08984 17.4395 -3.46973zM128 64.0098l105.37 -0.00976562l-105.37 105.38v-105.37z" />
    <glyph glyph-name="scalpel" unicode="&#xf61d;" horiz-adv-x="544" 
d="M511.45 434.83c37.5098 -26.75 43.2197 -79.6504 13.9102 -113.88l-154.471 -180.49c-6.7793 -7.91992 -16.6699 -12.4697 -27.0801 -12.4697h-17.5693c-5.06055 -36.79 -21.8301 -71.8506 -52.2207 -96.75c-0.229492 -0.19043 -0.459961 -0.370117 -0.689453 -0.560547
c-74.5898 -60.5596 -171.59 -94.6797 -272.96 -94.6797h-0.370117l183.18 199.83c-4.39941 6.22949 -5.29004 14.7998 0.5 21.5703l223.891 261.63c15.8594 18.5293 39.0693 28.9697 62.1299 28.9697c14.6094 0 29.1699 -4.19043 41.75 -13.1699zM253.17 55.5303
c22.1201 18.1201 36.5098 43.6797 41.4502 72.4697h-75.21l-139.7 -152.4c64.2002 12.4102 123.97 39.7402 173.46 79.9307zM501.05 341.76c8.31055 9.7002 12.1699 22.6104 10.6104 35.4004c-1.57031 12.8701 -8.25 24.0996 -18.79 31.6201
c-6.62988 4.71973 -14.6299 7.21973 -23.1699 7.21973c-14.1602 0 -28.29 -6.63965 -37.8203 -17.7803l-203.86 -238.229h115.79c1.07031 0 2.08008 0.469727 2.77051 1.2793z" />
    <glyph glyph-name="scalpel-path" unicode="&#xf61e;" 
d="M344 -32c4.41992 0 8 -3.58008 8 -8v-16c0 -4.41992 -3.58008 -8 -8 -8h-80c-4.41992 0 -8 3.58008 -8 8v16c0 4.41992 3.58008 8 8 8h80zM488 -32c4.41992 0 8 -3.58008 8 -8v-16c0 -4.41992 -3.58008 -8 -8 -8h-80c-4.41992 0 -8 3.58008 -8 8v16
c0 4.41992 3.58008 8 8 8h80zM632 -32c4.41992 0 8 -3.58008 8 -8v-16c0 -4.41992 -3.58008 -8 -8 -8h-80c-4.41992 0 -8 3.58008 -8 8v16c0 4.41992 3.58008 8 8 8h80zM511.45 434.83c37.5098 -26.75 43.2197 -79.6504 13.9199 -113.88l-154.47 -180.49
c-6.78027 -7.91992 -16.6699 -12.4697 -27.0801 -12.4697h-17.5703c-5.05957 -36.79 -21.8301 -71.8506 -52.2197 -96.75c-0.230469 -0.19043 -0.459961 -0.370117 -0.69043 -0.560547c-74.5801 -60.5596 -171.59 -94.6797 -272.96 -94.6797h-0.379883l183.18 199.83
c-4.39941 6.22949 -5.29004 14.7998 0.5 21.5703l223.891 261.63c15.8594 18.5293 39.0693 28.9697 62.1299 28.9697c14.6094 0 29.1699 -4.19043 41.75 -13.1699zM253.17 55.5303c22.1201 18.1201 36.5098 43.6797 41.4502 72.4697h-75.21l-139.7 -152.4
c64.2002 12.4102 123.97 39.7402 173.46 79.9307zM501.05 341.76c8.31055 9.7002 12.1699 22.6104 10.6104 35.4004c-1.57031 12.8701 -8.25 24.0996 -18.79 31.6201c-6.62988 4.71973 -14.6299 7.21973 -23.1699 7.21973c-14.1602 0 -28.29 -6.63965 -37.8203 -17.7803
l-203.86 -238.229h115.79c1.07031 0 2.08008 0.469727 2.77051 1.2793z" />
    <glyph glyph-name="skeleton" unicode="&#xf620;" horiz-adv-x="512" 
d="M504 288c4.41992 0 8 -3.58008 8 -8v-16c0 -4.41992 -3.58008 -8 -8 -8h-232v-64h168c4.41992 0 8 -3.58008 8 -8v-16c0 -4.41992 -3.58008 -8 -8 -8h-168v-64h128c44.1797 0 80 -35.8203 80 -80s-35.8203 -80 -80 -80s-80 35.8203 -80 80
c0 18.0996 6.23047 34.5996 16.3604 48h-160.721c10.1299 -13.4004 16.3604 -29.9004 16.3604 -48c0 -44.1797 -35.8203 -80 -80 -80s-80 35.8203 -80 80s35.8203 80 80 80h128v64h-168c-4.41992 0 -8 3.58008 -8 8v16c0 4.41992 3.58008 8 8 8h168v64h-232
c-4.41992 0 -8 3.58008 -8 8v16c0 4.41992 3.58008 8 8 8h232v64h-168c-4.41992 0 -8 3.58008 -8 8v16c0 4.41992 3.58008 8 8 8h168v56c0 4.41992 3.58008 8 8 8h16c4.41992 0 8 -3.58008 8 -8v-56h168c4.41992 0 8 -3.58008 8 -8v-16c0 -4.41992 -3.58008 -8 -8 -8h-168
v-64h232zM160 16c0 26.4697 -21.5303 48 -48 48s-48 -21.5303 -48 -48s21.5303 -48 48 -48s48 21.5303 48 48zM448 16c0 26.4697 -21.5303 48 -48 48s-48 -21.5303 -48 -48s21.5303 -48 48 -48s48 21.5303 48 48z" />
    <glyph glyph-name="star-of-life" unicode="&#xf621;" horiz-adv-x="480" 
d="M271.74 416h-63.4805v-168.56l-47.5996 27.71l-97.1797 56.5693l-31.7402 -55.4297l97.1797 -56.5703l47.5996 -27.71l-47.5996 -27.71l-97.1797 -56.5693l31.7402 -55.4307l97.1797 56.5703l47.5996 27.71v-168.58h63.4707v168.57l47.5996 -27.71l97.1797 -56.5703
l31.7402 55.4297l-97.1797 56.5703l-47.6006 27.71l47.6104 27.7002l97.1797 56.5693l-31.7402 55.4307l-97.1797 -56.5703l-47.5996 -27.71v168.58zM271.74 448c17.5195 0 31.7295 -14.3301 31.7295 -32v-113.14l97.1807 56.5693c5 2.91016 10.46 4.29004 15.8398 4.29004
c11.79 -0.0078125 22.0625 -6.4375 27.5098 -16.0098l31.7402 -55.4297c8.75977 -15.2998 3.55957 -34.8701 -11.6201 -43.71l-97.1797 -56.5703l97.21 -56.5596c15.1797 -8.83008 20.3799 -28.4004 11.6191 -43.71l-31.7393 -55.4307
c-5.44922 -9.57422 -15.7256 -16.0049 -27.5205 -16.0098c-5.38965 0 -10.8398 1.37988 -15.8398 4.29004l-97.1797 56.5703v-113.15c0 -17.6699 -14.21 -32 -31.7402 -32h-63.4697c-17.5303 0 -31.7402 14.3301 -31.7402 32v113.14l-97.1797 -56.5693
c-5 -2.91016 -10.46 -4.29004 -15.8408 -4.29004c-11.7939 0.00488281 -22.0703 6.43457 -27.5195 16.0098l-31.7402 55.4297c-8.75977 15.2998 -3.55957 34.8701 11.6201 43.71l97.1797 56.5703l-97.1797 56.5801c-15.1797 8.83008 -20.3799 28.4102 -11.6201 43.71
l31.7402 55.4199c5.87988 10.2705 16.54 16.0098 27.5098 16.0098c5.37988 0 10.8398 -1.37988 15.8398 -4.29004l97.1807 -56.5801v113.15c0 17.6699 14.21 32 31.7393 32h63.4707z" />
    </font>
</defs>
</svg>
