<?xml version="1.0" standalone="no"?>
<!DOCTYPE svg PUBLIC "-//W3C//DTD SVG 1.1//EN" "http://www.w3.org/Graphics/SVG/1.1/DTD/svg11.dtd" >
<svg xmlns="http://www.w3.org/2000/svg" xmlns:xlink="http://www.w3.org/1999/xlink" version="1.1">
<metadata>
Created by FontForge 20200314 at Wed Jan 13 11:59:47 2021
 By Robert Madole
Copyright (c) Font Awesome
</metadata>
<!-- Font Awesome Pro 5.15.2 by @fontawesome - https://fontawesome.com License - https://fontawesome.com/license (Commercial License) --><defs>
<font id="FontAwesome5Pro-Solid" horiz-adv-x="640" >
  <font-face 
    font-family="Font Awesome 5 Pro Solid"
    font-weight="900"
    font-stretch="normal"
    units-per-em="512"
    panose-1="2 0 5 3 0 0 0 0 0 0"
    ascent="448"
    descent="-64"
    bbox="-0.0189394 -64.03 640.015 448.06"
    underline-thickness="25"
    underline-position="-50"
    unicode-range="U+0020-F8FF"
  />
    <missing-glyph />
    <glyph glyph-name="glass-martini" unicode="&#xf000;" horiz-adv-x="512" 
d="M502.05 390.4l-214.05 -214.04v-192.36h56c22.0898 0 40 -17.9102 40 -40c0 -4.41992 -3.58008 -8 -8 -8h-240c-4.41992 0 -8 3.58008 -8 8c0 22.0898 17.9102 40 40 40h56v192.36l-214.05 214.04c-21.25 21.2598 -6.2002 57.5996 23.8496 57.5996h444.4
c30.0498 0 45.0996 -36.3398 23.8496 -57.5996z" />
    <glyph glyph-name="signal" unicode="&#xf012;" 
d="M216 160c8.83984 0 16 -7.16016 16 -16v-192c0 -8.83984 -7.16016 -16 -16 -16h-48c-8.83984 0 -16 7.16016 -16 16v192c0 8.83984 7.16016 16 16 16h48zM88 64c8.83984 0 16 -7.16016 16 -16v-96c0 -8.83984 -7.16016 -16 -16 -16h-48c-8.83984 0 -16 7.16016 -16 16v96
c0 8.83984 7.16016 16 16 16h48zM344 256c8.83984 0 16 -7.16016 16 -16v-288c0 -8.83984 -7.16016 -16 -16 -16h-48c-8.83984 0 -16 7.16016 -16 16v288c0 8.83984 7.16016 16 16 16h48zM472 352c8.83984 0 16 -7.16016 16 -16v-384c0 -8.83984 -7.16016 -16 -16 -16h-48
c-8.83984 0 -16 7.16016 -16 16v384c0 8.83984 7.16016 16 16 16h48zM600 448c8.83984 0 16 -7.16016 16 -16v-480c0 -8.83984 -7.16016 -16 -16 -16h-48c-8.83984 0 -16 7.16016 -16 16v480c0 8.83984 7.16016 16 16 16h48z" />
    <glyph glyph-name="qrcode" unicode="&#xf029;" horiz-adv-x="448" 
d="M0 224v192h192v-192h-192zM64 352v-64h64v64h-64zM256 416h192v-192h-192v192zM384 288v64h-64v-64h64zM0 -32v192h192v-192h-192zM64 96v-64h64v64h-64zM416 160h32v-128h-96v32h-32v-96h-64v192h96v-32h64v32zM416 0h32v-32h-32v32zM352 0h32v-32h-32v32z" />
    <glyph glyph-name="image" unicode="&#xf03e;" horiz-adv-x="512" 
d="M464 0h-416c-26.5098 0 -48 21.4902 -48 48v288c0 26.5098 21.4902 48 48 48h416c26.5098 0 48 -21.4902 48 -48v-288c0 -26.5098 -21.4902 -48 -48 -48zM112 328c-30.9277 0 -56 -25.0723 -56 -56s25.0723 -56 56 -56s56 25.0723 56 56s-25.0723 56 -56 56zM64 64h384
v112l-87.5146 87.5146c-4.68652 4.68652 -12.2842 4.68652 -16.9717 0l-135.514 -135.515l-55.5146 55.5146c-4.68652 4.68652 -12.2842 4.68652 -16.9717 0l-71.5137 -71.5146v-48z" />
    <glyph glyph-name="fire" unicode="&#xf06d;" horiz-adv-x="384" 
d="M216 424.14c0 -103.14 168 -125.85 168 -296.14c0 -105.87 -86.1299 -192 -192 -192s-192 86.1299 -192 192c0 58.6699 27.7998 106.84 54.5703 134.96c14.96 15.7305 41.4297 5.2002 41.4297 -16.5v-85.5098c0 -35.1699 27.9805 -64.4902 63.1504 -64.9404
c35.7393 -0.469727 64.8496 28.3604 64.8496 63.9902c0 88 -176 96.1504 -52.1504 277.18c13.5 19.7305 44.1504 10.7607 44.1504 -13.04z" />
    <glyph glyph-name="comment" unicode="&#xf075;" horiz-adv-x="512" 
d="M256 416c141.4 0 256 -93.0996 256 -208s-114.6 -208 -256 -208c-38.4004 0 -74.7002 7.09961 -107.4 19.4004c-24.5996 -19.6006 -74.2998 -51.4004 -140.6 -51.4004c-3.2002 0 -6 1.7998 -7.2998 4.7998s-0.700195 6.40039 1.5 8.7002
c0.5 0.5 42.2998 45.4004 54.7998 95.7998c-35.5996 35.7002 -57 81.1006 -57 130.7c0 114.9 114.6 208 256 208z" />
    <glyph glyph-name="folder" unicode="&#xf07b;" horiz-adv-x="512" 
d="M464 320c26.5098 0 48 -21.4902 48 -48v-224c0 -26.5098 -21.4902 -48 -48 -48h-416c-26.5098 0 -48 21.4902 -48 48v288c0 26.5098 21.4902 48 48 48h160l64 -64h192z" />
    <glyph glyph-name="camera-retro" unicode="&#xf083;" horiz-adv-x="512" 
d="M48 416h416c26.5 0 48 -21.5 48 -48v-352c0 -26.5 -21.5 -48 -48 -48h-416c-26.5 0 -48 21.5 -48 48v352c0 26.5 21.5 48 48 48zM48 384c-8.7998 0 -16 -7.2002 -16 -16v-10c0 -3.2998 2.7002 -6 6 -6h116c3.2998 0 6 2.7002 6 6v20c0 3.2998 -2.7002 6 -6 6h-106z
M474 288c3.2998 0 6 2.7002 6 6v74c0 8.7998 -7.2002 16 -16 16h-252.8c-2 0 -3.90039 -1 -5 -2.7002l-30.2002 -45.2998h-138c-3.2998 0 -6 -2.7002 -6 -6v-36c0 -3.2998 2.7002 -6 6 -6h436zM256 24c66.2002 0 120 53.7998 120 120s-53.7998 120 -120 120
s-120 -53.7998 -120 -120s53.7998 -120 120 -120zM256 232c48.5 0 88 -39.5 88 -88s-39.5 -88 -88 -88s-88 39.5 -88 88s39.5 88 88 88zM208 128c8.7998 0 16 7.2002 16 16c0 17.5996 14.4004 32 32 32c8.7998 0 16 7.2002 16 16s-7.2002 16 -16 16
c-35.2998 0 -64 -28.7002 -64 -64c0 -8.7998 7.2002 -16 16 -16z" />
    <glyph glyph-name="key" unicode="&#xf084;" horiz-adv-x="512" 
d="M512 271.999c0 -97.2021 -78.7979 -175.999 -176 -175.999c-11.2197 0 -22.1904 1.06152 -32.8271 3.06934l-24.0117 -27.0146c-4.39746 -4.94727 -10.8047 -8.05469 -17.9385 -8.05469h-37.2227v-40c0 -13.2549 -10.7451 -24 -24 -24h-40v-40
c0 -13.2549 -10.7451 -24 -24 -24h-112c-13.2549 0 -24 10.7451 -24 24v78.0586c0 6.36523 2.5293 12.4707 7.0293 16.9717l161.802 161.802c-5.72266 17.3535 -8.83105 35.8965 -8.83105 55.168c0 97.2021 78.7969 175.999 175.999 176
c97.4893 0.000976562 176.001 -78.5107 176.001 -176.001zM336 320c0 -26.5098 21.4902 -48 48 -48s48 21.4902 48 48s-21.4902 48 -48 48s-48 -21.4902 -48 -48z" />
    <glyph glyph-name="hdd" unicode="&#xf0a0;" horiz-adv-x="576" 
d="M576 144v-96c0 -26.5098 -21.4902 -48 -48 -48h-480c-26.5098 0 -48 21.4902 -48 48v96c0 26.5098 21.4902 48 48 48h480c26.5098 0 48 -21.4902 48 -48zM528 224h-480c-0.0234375 0 -0.0996094 -0.0361328 -0.124023 -0.0361328
c-10.8613 0 -21.2168 -2.18066 -30.6533 -6.12891l96.5283 144.791c8.60742 12.9102 23.2725 21.374 39.9385 21.374h268.621c16.667 0 31.332 -8.46387 39.9395 -21.374l96.5273 -144.791c-9.43652 3.94824 -19.8447 6.16504 -30.7061 6.16504h-0.0712891zM480 128
c-17.6729 0 -32 -14.3271 -32 -32s14.3271 -32 32 -32s32 14.3271 32 32s-14.3271 32 -32 32zM384 128c-17.6729 0 -32 -14.3271 -32 -32s14.3271 -32 32 -32s32 14.3271 32 32s-14.3271 32 -32 32z" />
    <glyph glyph-name="flag-checkered" unicode="&#xf11e;" horiz-adv-x="512" 
d="M243.2 258.1c24.2002 -6.69922 47.5996 -16.3994 73.5996 -22.1992v-68.2002c-24.2998 6.7002 -47.5 16.3994 -73.5996 22.2998v68.0996zM466.5 381.1c21.2002 9.80078 45.5 -5.69922 45.4004 -29v-243.1c0 -10.5996 -5.10059 -20.4004 -13.8008 -26.4004
c-35.7998 -24.5996 -74.2998 -40.8994 -122.5 -40.8994c-67.3994 0 -111.6 34.7998 -165.199 34.7998c-50.8008 0 -86.1006 -10 -114.4 -22.0996v-94.4004c0 -13.2998 -10.7002 -24 -24 -24h-16c-13.2998 0 -24 10.7002 -24 24v386.1c-14.5 10.1006 -24 26.9004 -24 45.9004
c0 31.7002 26.2998 57.2998 58.2998 56c28.5 -1.2002 51.7998 -24 53.6006 -52.4004c0.5 -8.39941 -0.800781 -16.2998 -3.60059 -23.5996c20.7002 7.59961 43 12 68 12c67.4004 0 111.7 -34.7998 165.2 -34.7998c40.5 0 82.7002 16 117 31.8994zM169.6 122.5v71.2998
c-26.0996 -2.39941 -47.3994 -8.09961 -73.5996 -17.3994v-70.5c23.5996 8.39941 47.7998 13.8994 73.5996 16.5996zM464 257v70.5c-21.2998 -8.90039 -46.5996 -17.7002 -73.5996 -22.5v-71.9004c-26 -4.19922 -49.9004 -2.59961 -73.6006 2.7002v68.4004
c-26.3994 4.59961 -49.8994 13.8994 -73.5996 21.2998v-67.4004c-25.2002 7 -46.6006 9.40039 -73.6006 5.7002v71.6006c-23.5 -2.2002 -40.3994 -9.80078 -73.5996 -22v-70.5c29 10.6992 51.2002 17.7998 73.5996 20.8994v-70c32.8008 3 53.9004 0.600586 73.6006 -3.7998
v-68.5c26.2998 -4.59961 49.7002 -13.9004 73.5996 -21.2998v67.3994c25.7002 -7.09961 46.6006 -9.2998 73.6006 -5.59961v-71.5996c25.0996 2.39941 48.5 11 73.5996 27.0996v70.5c-22.2002 -14.2002 -48.7998 -22.5996 -73.5996 -26v71.0996
c27.2998 4.40039 50 14.1006 73.5996 23.9004z" />
    <glyph glyph-name="bullseye" unicode="&#xf140;" horiz-adv-x="496" 
d="M248 440c136.97 0 248 -111.03 248 -248s-111.03 -248 -248 -248s-248 111.03 -248 248s111.03 248 248 248zM248 8c101.71 0 184 82.3096 184 184c0 101.71 -82.3096 184 -184 184c-101.71 0 -184 -82.3096 -184 -184c0 -101.71 82.3096 -184 184 -184zM248 320
c70.6904 0 128 -57.3096 128 -128s-57.3096 -128 -128 -128s-128 57.3096 -128 128s57.3096 128 128 128zM248 128c35.29 0 64 28.71 64 64s-28.71 64 -64 64s-64 -28.71 -64 -64s28.71 -64 64 -64z" />
    <glyph glyph-name="graduation-cap" unicode="&#xf19d;" 
d="M622.34 294.8c23.5498 -7.24023 23.5498 -38.3594 0 -45.5996l-278.95 -85.7002c-20.3496 -6.25 -37.7295 -2.78027 -46.79 0l-195.569 60.0898c-12.25 -8.41992 -19.9307 -21.7002 -20.6904 -36.7197c9.19043 -5.62012 15.6602 -15.2998 15.6602 -26.8701
c0 -10.7803 -5.67969 -19.8496 -13.8604 -25.6504l25.5303 -114.88c2.21973 -9.98926 -5.37988 -19.4697 -15.6201 -19.4697h-56.1094c-10.2305 0 -17.8301 9.48047 -15.6104 19.4697l25.5303 114.88c-8.18066 5.80078 -13.8604 14.8701 -13.8604 25.6504
c0 11.8896 6.78027 21.8496 16.4102 27.3701c0.649414 17.6201 7.20996 33.71 17.8799 46.8994l-48.6299 14.9404c-23.54 7.23047 -23.54 38.3604 0 45.5898l278.95 85.7002c15.1895 4.66992 31.5898 4.66992 46.79 0zM352.79 132.91l145.03 44.5596l14.1797 -113.47
c0 -35.3496 -85.96 -64 -192 -64s-192 28.6504 -192 64l14.1797 113.46l145.021 -44.5498c12.75 -3.91992 37.0596 -8.75977 65.5898 0z" />
    <glyph glyph-name="closed-captioning" unicode="&#xf20a;" horiz-adv-x="512" 
d="M464 384c26.5 0 48 -21.5 48 -48v-288c0 -26.5 -21.5 -48 -48 -48h-416c-26.5 0 -48 21.5 -48 48v288c0 26.5 21.5 48 48 48h416zM218.1 160.3c-41.1992 -37.8994 -92.1992 -15.3994 -92.2998 32.6006c0 46.0996 53.7998 63.1992 94.6006 31.1992
c2.89941 -2.2998 7.19922 -1.39941 9.09961 1.7002l17.5 30.5c1.5 2.5 1.09961 3.7002 -1 5.7002c-50.7998 49.4004 -172.5 27.2002 -172.5 -70.0996c0 -100 119.2 -124.7 172.8 -67.9004c2 2.09961 2.2002 5.2998 0.5 7.7002l-19.5 27.7002
c-2.09961 3 -6.39941 3.39941 -9.2002 0.899414zM408.5 160.3c-41.2002 -37.8994 -92.2002 -15.3994 -92.2002 32.6006c0 46.0996 53.7998 63.1992 94.6006 31.1992c2.89941 -2.2998 7.19922 -1.39941 9.09961 1.7002l17.5 30.5c1.5 2.5 1.09961 3.7002 -1 5.7002
c-50.7998 49.4004 -172.5 27.2002 -172.5 -70.0996c0 -100 119.2 -124.801 172.7 -67.9004c2 2.09961 2.2002 5.2998 0.5 7.7002l-19.5 27.7002c-2.10059 3 -6.40039 3.39941 -9.2002 0.899414z" />
    <glyph glyph-name="object-group" unicode="&#xf247;" horiz-adv-x="512" 
d="M480 320v-288h20c6.62695 0 12 -5.37305 12 -12v-40c0 -6.62695 -5.37305 -12 -12 -12h-40c-6.62695 0 -12 5.37305 -12 12v20h-384v-20c0 -6.62695 -5.37305 -12 -12 -12h-40c-6.62695 0 -12 5.37305 -12 12v40c0 6.62695 5.37305 12 12 12h20v320h-20
c-6.62695 0 -12 5.37305 -12 12v40c0 6.62695 5.37305 12 12 12h40c6.62695 0 12 -5.37305 12 -12v-20h384v20c0 6.62695 5.37305 12 12 12h40c6.62695 0 12 -5.37305 12 -12v-40c0 -6.62695 -5.37305 -12 -12 -12h-20v-32zM96 172c0 -6.62695 5.37305 -12 12 -12h168
c6.62695 0 12 5.37305 12 12v136c0 6.62695 -5.37305 12 -12 12h-168c-6.62695 0 -12 -5.37305 -12 -12v-136zM416 76v136c0 6.62695 -5.37305 12 -12 12h-84v-72c0 -13.2549 -10.7451 -24 -24 -24h-72v-52c0 -6.62695 5.37305 -12 12 -12h168c6.62695 0 12 5.37305 12 12z
" />
    <glyph glyph-name="object-ungroup" unicode="&#xf248;" horiz-adv-x="576" 
d="M64 128v-26c0 -3.31152 -2.68848 -6 -6 -6h-52c-3.31152 0 -6 2.68848 -6 6v52c0 3.31152 2.68848 6 6 6h26v192h-26c-3.31152 0 -6 2.68848 -6 6v52c0 3.31152 2.68848 6 6 6h52c3.31152 0 6 -2.68848 6 -6v-26h288v26c0 3.31152 2.68848 6 6 6h52
c3.31152 0 6 -2.68848 6 -6v-52c0 -3.31152 -2.68848 -6 -6 -6h-26v-192h26c3.31152 0 6 -2.68848 6 -6v-52c0 -3.31152 -2.68848 -6 -6 -6h-52c-3.31152 0 -6 2.68848 -6 6v26h-288zM544 192v-160h26c3.31152 0 6 -2.68848 6 -6v-52c0 -3.31152 -2.68848 -6 -6 -6h-52
c-3.31152 0 -6 2.68848 -6 6v26h-288v-26c0 -3.31152 -2.68848 -6 -6 -6h-52c-3.31152 0 -6 2.68848 -6 6v52c0 3.31152 2.68848 6 6 6h26v72h136v-8c0 -13.2549 10.7451 -24 24 -24h64c13.2549 0 24 10.7451 24 24v64c0 13.2549 -10.7451 24 -24 24h-8v72h104v26
c0 3.31152 2.68848 6 6 6h52c3.31152 0 6 -2.68848 6 -6v-52c0 -3.31152 -2.68848 -6 -6 -6h-26v-32z" />
    <glyph glyph-name="hourglass-start" unicode="&#xf251;" horiz-adv-x="384" 
d="M360 448c13.2549 0 24 -10.7451 24 -24v-16c0 -13.2549 -10.7451 -24 -24 -24c0 -90.9648 -51.0156 -167.734 -120.842 -192c69.8262 -24.2656 120.842 -101.035 120.842 -192c13.2549 0 24 -10.7451 24 -24v-16c0 -13.2549 -10.7451 -24 -24 -24h-336
c-13.2549 0 -24 10.7451 -24 24v16c0 13.2549 10.7451 24 24 24c0 90.9648 51.0156 167.734 120.842 192c-69.8262 24.2656 -120.842 101.035 -120.842 192c-13.2549 0 -24 10.7451 -24 24v16c0 13.2549 10.7451 24 24 24h336zM296 0c0 77.4834 -46.2139 144 -104 144
c-57.7959 0 -104 -66.542 -104 -144h208z" />
    <glyph glyph-name="hourglass-half" unicode="&#xf252;" horiz-adv-x="384" 
d="M360 448c13.2549 0 24 -10.7451 24 -24v-16c0 -13.2549 -10.7451 -24 -24 -24c0 -90.9648 -51.0156 -167.734 -120.842 -192c69.8262 -24.2656 120.842 -101.035 120.842 -192c13.2549 0 24 -10.7451 24 -24v-16c0 -13.2549 -10.7451 -24 -24 -24h-336
c-13.2549 0 -24 10.7451 -24 24v16c0 13.2549 10.7451 24 24 24c0 90.9648 51.0156 167.734 120.842 192c-69.8262 24.2656 -120.842 101.035 -120.842 192c-13.2549 0 -24 10.7451 -24 24v16c0 13.2549 10.7451 24 24 24h336zM284.922 64
c-17.0596 46.8037 -52.1006 80 -92.9219 80c-40.8242 0 -75.8613 -33.2031 -92.9199 -80h185.842zM284.941 320c7.07129 19.4131 11.0586 41.1953 11.0586 64h-208c0 -22.748 3.98828 -44.5479 11.0781 -64h185.863z" />
    <glyph glyph-name="hourglass-end" unicode="&#xf253;" horiz-adv-x="384" 
d="M360 384c0 -90.9648 -51.0156 -167.734 -120.842 -192c69.8262 -24.2656 120.842 -101.035 120.842 -192c13.2549 0 24 -10.7451 24 -24v-16c0 -13.2549 -10.7451 -24 -24 -24h-336c-13.2549 0 -24 10.7451 -24 24v16c0 13.2549 10.7451 24 24 24
c0 90.9648 51.0156 167.734 120.842 192c-69.8262 24.2656 -120.842 101.035 -120.842 192c-13.2549 0 -24 10.7451 -24 24v16c0 13.2549 10.7451 24 24 24h336c13.2549 0 24 -10.7451 24 -24v-16c0 -13.2549 -10.7451 -24 -24 -24zM192 240c57.4902 0 104 66.0547 104 144
h-208c0 -77.4824 46.2129 -144 104 -144z" />
    <glyph glyph-name="hourglass" unicode="&#xf254;" horiz-adv-x="384" 
d="M360 384c0 -90.9648 -51.0156 -167.734 -120.842 -192c69.8262 -24.2656 120.842 -101.035 120.842 -192c13.2549 0 24 -10.7451 24 -24v-16c0 -13.2549 -10.7451 -24 -24 -24h-336c-13.2549 0 -24 10.7451 -24 24v16c0 13.2549 10.7451 24 24 24
c0 90.9648 51.0156 167.734 120.842 192c-69.8262 24.2656 -120.842 101.035 -120.842 192c-13.2549 0 -24 10.7451 -24 24v16c0 13.2549 10.7451 24 24 24h336c13.2549 0 24 -10.7451 24 -24v-16c0 -13.2549 -10.7451 -24 -24 -24z" />
    <glyph glyph-name="registered" unicode="&#xf25d;" horiz-adv-x="512" 
d="M285.363 240.525c0 -18.6006 -9.83105 -28.4316 -28.4316 -28.4316h-29.876v56.1406h23.3779c28.668 0 34.9297 -8.77344 34.9297 -27.709zM504 192c0 -136.967 -111.033 -248 -248 -248s-248 111.033 -248 248s111.033 248 248 248s248 -111.033 248 -248z
M363.411 87.5859c-46.7295 84.8252 -43.2988 78.6357 -44.7021 80.9805c23.4316 15.1719 37.9453 42.9785 37.9453 74.4854c0 54.2441 -31.5 89.252 -105.498 89.252h-70.667c-13.2549 0 -24 -10.7451 -24 -24v-232.304c0 -13.2549 10.7451 -24 24 -24h22.5664
c13.2549 0 24 10.7451 24 24v71.6631h25.5566l44.1289 -82.9375c4.03516 -7.58301 12.0049 -12.7266 21.1875 -12.7266h24.4639c18.2617 0.000976562 29.8291 19.5908 21.0186 35.5869z" />
    <glyph glyph-name="industry" unicode="&#xf275;" horiz-adv-x="512" 
d="M475.115 284.219c15.9541 10.1514 36.8848 -1.33105 36.8848 -20.248v-271.971c0 -13.2549 -10.7451 -24 -24 -24h-464c-13.2549 0 -24 10.7451 -24 24v400c0 13.2549 10.7451 24 24 24h112c13.2549 0 24 -10.7451 24 -24v-196.309l139.115 88.5273
c15.9541 10.1514 36.8848 -1.33203 36.8848 -20.248v-68.2793z" />
    <glyph glyph-name="comment-alt" unicode="&#xf27a;" horiz-adv-x="512" 
d="M448 448c35.2998 0 64 -28.7002 64 -64v-288c0 -35.2998 -28.7002 -64 -64 -64h-144l-124.9 -93.7002c-7.89941 -5.7998 -19.0996 -0.0996094 -19.0996 9.7002v84h-96c-35.2998 0 -64 28.7002 -64 64v288c0 35.2998 28.7002 64 64 64h384z" />
    <glyph glyph-name="id-card" unicode="&#xf2c2;" horiz-adv-x="576" 
d="M528 416c26.5 0 48 -21.5 48 -48v-16h-576v16c0 26.5 21.5 48 48 48h480zM0 16v304h576v-304c0 -26.5 -21.5 -48 -48 -48h-480c-26.5 0 -48 21.5 -48 48zM352 248v-16c0 -4.40039 3.59961 -8 8 -8h144c4.40039 0 8 3.59961 8 8v16c0 4.40039 -3.59961 8 -8 8h-144
c-4.40039 0 -8 -3.59961 -8 -8zM352 184v-16c0 -4.40039 3.59961 -8 8 -8h144c4.40039 0 8 3.59961 8 8v16c0 4.40039 -3.59961 8 -8 8h-144c-4.40039 0 -8 -3.59961 -8 -8zM352 120v-16c0 -4.40039 3.59961 -8 8 -8h144c4.40039 0 8 3.59961 8 8v16
c0 4.40039 -3.59961 8 -8 8h-144c-4.40039 0 -8 -3.59961 -8 -8zM176 256c-35.2998 0 -64 -28.7002 -64 -64s28.7002 -64 64 -64s64 28.7002 64 64s-28.7002 64 -64 64zM67.0996 51.7998c-3.19922 -9.7998 5.2002 -19.7998 15.6006 -19.7998h186.6
c10.4004 0 18.7998 9.90039 15.6006 19.7998c-8.40039 25.7002 -32.5 44.2002 -60.9004 44.2002h-8.2002c-12.2002 -5.09961 -25.7002 -8 -39.7998 -8s-27.5 2.90039 -39.7998 8h-8.2002c-28.4004 0 -52.5 -18.5 -60.9004 -44.2002z" />
    <glyph glyph-name="window-minimize" unicode="&#xf2d1;" horiz-adv-x="512" 
d="M464 96c26.5 0 48 -21.5 48 -48v-32c0 -26.5 -21.5 -48 -48 -48h-416c-26.5 0 -48 21.5 -48 48v32c0 26.5 21.5 48 48 48h416z" />
    <glyph glyph-name="images" unicode="&#xf302;" horiz-adv-x="576" 
d="M480 32v-16c0 -26.5098 -21.4902 -48 -48 -48h-384c-26.5098 0 -48 21.4902 -48 48v256c0 26.5098 21.4902 48 48 48h16v-208c0 -44.1123 35.8877 -80 80 -80h336zM576 112c0 -26.5098 -21.4902 -48 -48 -48h-384c-26.5098 0 -48 21.4902 -48 48v256
c0 26.5098 21.4902 48 48 48h384c26.5098 0 48 -21.4902 48 -48v-256zM256 320c0 26.5098 -21.4902 48 -48 48s-48 -21.4902 -48 -48s21.4902 -48 48 -48s48 21.4902 48 48zM160 176v-48h352v112l-87.5137 87.5146c-4.6875 4.68652 -12.2852 4.68652 -16.9717 0
l-135.515 -135.515l-39.5137 39.5146c-4.6875 4.68652 -12.2852 4.68652 -16.9717 0z" />
    <glyph glyph-name="inbox-in" unicode="&#xf310;" horiz-adv-x="576" 
d="M250.5 448h68.5996c9.5 0 17.1006 -7.7002 17.1006 -17.0996v-142.9h68.2998c17.7998 0 26.7002 -21.5 14.0996 -34.0996l-119.399 -120c-7.90039 -7.90039 -20.9004 -7.80078 -28.6006 0.299805l-113.6 120c-12.0996 12.7002 -3.09961 33.7998 14.5 33.7998h61.9004
v142.9c0 9.39941 7.69922 17.0996 17.0996 17.0996zM565.5 109.1c6.7998 -8.5 10.5 -19 10.5 -29.8994v-95.2002c0 -26.5 -21.5 -48 -48 -48h-480c-26.5 0 -48 21.5 -48 48v95.2002c0 10.8994 3.7002 21.3994 10.7002 30l94.3994 118c4.5 5.7002 13.1006 6 18.1006 0.700195
l27.5996 -29.5c4.10059 -4.30078 4.2998 -11 0.600586 -15.7002l-43.8008 -54.7002h92.4004l32 -64h112l32 64h92.2998l-44.2998 55.4004c-3.7002 4.7998 -3.40039 11.5996 0.799805 15.8994l28.1006 28.9004c5 5.09961 13.5 4.7002 18 -0.900391z" />
    <glyph glyph-name="inbox-out" unicode="&#xf311;" horiz-adv-x="576" 
d="M576 79.2002v-95.2002c0 -26.5 -21.5 -48 -48 -48h-480c-26.5 0 -48 21.5 -48 48v95.2002c0 10.8994 3.7002 21.5 10.5 30l94.4004 118c4.59961 5.7002 13.0996 6 18.0996 0.700195l27.5996 -29.5c4.10059 -4.40039 4.30078 -11 0.600586 -15.7002l-43.6006 -54.7002
h92.4004l32 -64h112l32 64h92.4004l-44.3008 55.4004c-3.7998 4.69922 -3.5 11.5 0.800781 15.8994l28.0996 28.9004c5 5.2002 13.5 4.7998 18 -0.900391l94.5996 -118.2c6.7002 -8.5 10.4004 -19 10.4004 -29.8994zM342.6 145.1
c0 -9.39941 -7.69922 -17.0996 -17.1992 -17.0996h-68.6006c-9.39941 0 -17.0996 7.59961 -17.0996 17.0996v142.9h-68.2998c-17.8008 0 -26.7002 21.5 -14.1006 34.0996l119.4 120c7.89941 8 20.8994 7.80078 28.5996 -0.299805l113.7 -120
c12.0996 -12.7002 3.09961 -33.7998 -14.5 -33.7998h-61.9004v-142.9z" />
    <glyph glyph-name="arrow-alt-to-top" unicode="&#xf34d;" horiz-adv-x="384" 
d="M24 416h336c13.2998 0 24 -10.7002 24 -24v-24c0 -13.2998 -10.7002 -24 -24 -24h-336c-13.2998 0 -24 10.7002 -24 24v24c0 13.2998 10.7002 24 24 24zM256 -8c0 -13.2998 -10.7002 -24 -24 -24h-80c-13.2998 0 -24 10.7002 -24 24v136h-87.7002
c-17.7998 0 -26.7998 21.5 -14.2002 34.0996l152.301 152.2c7.5 7.5 19.7998 7.5 27.2998 0l152.1 -152.2c12.6006 -12.5996 3.7002 -34.0996 -14.0996 -34.0996h-87.7002v-136z" />
    <glyph glyph-name="gem" unicode="&#xf3a5;" horiz-adv-x="576" 
d="M485.5 448l90.5 -160h-101.1l-69.2002 160h79.7998zM357.5 448l69.2002 -160h-277.4l69.2002 160h139zM90.5 448h79.7998l-69.2002 -160h-101.1zM0 256h100.7l123 -251.7c1.5 -3.09961 -2.7002 -5.89941 -5 -3.2998zM148.2 256h279.6l-137 -318.2
c-1 -2.39941 -4.5 -2.39941 -5.5 0zM352.3 4.2998l123 251.7h100.7l-218.7 -254.9c-2.2998 -2.69922 -6.5 0.100586 -5 3.2002z" />
    <glyph glyph-name="basketball-hoop" unicode="&#xf435;" 
d="M208 288h224v-48h-224v48zM639.9 111.1c0 -22.7998 -13.6006 -43.1992 -34.7002 -51.7998l-104.2 -42.8994l9 143.6h-30.5996l-18.2002 -224l-75.4004 71.5996l-65.7998 -71.5996l-65.7998 71.5996l-75.4004 -71.5996l-18.2002 224h-30.5996l9 -143.6l-104.3 42.7998
c-21.1006 8.7002 -34.7002 29 -34.7002 51.8994l1.2002 129.9c0.599609 2 67.5 199 318.8 199s318.1 -197 318.8 -199c1.60059 -10.2002 1.10059 8.5 1.10059 -129.9zM206.7 95.5996l46.7002 -43.5996l44 44l-42.1006 42.0996zM320 118.6l41.4004 41.4004h-82.8008z
M342.6 96l44 -44l46.7002 43.5996l-48.5996 42.5zM192.7 160l2.59961 -31.9004l36.5 31.9004h-39.0996zM230.8 29.4004l-29.8994 27.8994l4.2998 -53.5zM363.2 30.2002l-43.2002 43.2002l-43.2002 -43.2002l43.2002 -40.2998zM434.8 3.7998l4.2998 53.5l-29.8994 -27.8994z
M447.3 160h-39l36.5 -31.9004zM544 232c0 4.40039 -3.59961 8 -8 8h-72v80h-288v-80h-72c-4.40039 0 -8 -3.59961 -8 -8v-16c0 -4.40039 3.59961 -8 8 -8h432c4.40039 0 8 3.59961 8 8v16z" />
    <glyph glyph-name="hockey-sticks" unicode="&#xf454;" 
d="M0 80c0 8.7998 7.2002 16 16 16h48v-160h-48c-8.7998 0 -16 7.2002 -16 16v128zM484.6 417.7c7.90039 -4 11.1006 -13.6006 7.2002 -21.5l-212.5 -424.8c-10.7998 -21.7002 -33 -35.4004 -57.2002 -35.4004h-126.1v160h128.5c6.09961 0 11.5996 3.40039 14.2998 8.7998
l167.101 334.3c4 7.90039 13.5996 11.2002 21.5 7.2002zM239.5 213.7l-91.4004 182.6c-3.89941 7.90039 -0.699219 17.5 7.2002 21.5l57.2998 28.6006c7.90039 3.89941 17.5 0.699219 21.5 -7.2002l59.1006 -118.2zM624 96c8.7998 0 16 -7.2002 16 -16v-128
c0 -8.7998 -7.2002 -16 -16 -16h-48v160h48zM400.5 106.3c4.2998 -8.59961 10.5 -10.2998 15.0996 -10.2998h128.4v-160h-126.1c-45.7002 0 -58.5 37.7998 -71.1006 63z" />
    <glyph glyph-name="pennant" unicode="&#xf456;" horiz-adv-x="576" 
d="M571 219.5c-78.0996 -88.2002 -179.8 -108.8 -184.1 -109.6c-134.801 -26.1006 -153.301 -7.5 -237.101 -37.5c-10.5996 -3.80078 -21.7998 3.59961 -21.7998 14.7998v248.3c0 9 7.2998 16.4004 16.2998 16c43.2002 -2 95.2998 -13.2002 155.2 -42.4004
c140.6 -68.5 223.7 -62.8994 252.9 -57.1992c18 3.7998 31.2998 -18.1006 18.5996 -32.4004zM56 448c30.9004 0 56 -25.0996 56 -56c0 -22.2998 -13.2002 -41.4004 -32 -50.4004v-397.6c0 -4.40039 -3.59961 -8 -8 -8h-32c-4.40039 0 -8 3.59961 -8 8v397.6
c-18.7998 9 -32 28.1006 -32 50.4004c0 30.9004 25.0996 56 56 56z" />
    <glyph glyph-name="dolly-flatbed-empty" unicode="&#xf476;" 
d="M624 64c8.7998 0 16 -7.2002 16 -16v-32c0 -8.7998 -7.2002 -16 -16 -16h-82.7998c1.7002 -5 2.89941 -10.4004 2.89941 -16c0 -26.5 -21.5 -48 -48 -48s-48 21.5 -48 48c0 5.59961 1.10059 11 2.90039 16h-197.9c1.7002 -5 2.90039 -10.4004 2.90039 -16
c0 -26.5 -21.5 -48 -48 -48s-48 21.5 -48 48c0 5.59961 1.09961 11 2.90039 16h-82.9004c-8.7998 0 -16 7.2002 -16 16v368h-48c-8.7998 0 -16 7.2002 -16 16v32c0 8.7998 7.2002 16 16 16h96c8.7998 0 16 -7.2002 16 -16v-368h496z" />
    <glyph glyph-name="id-card-alt" unicode="&#xf47f;" horiz-adv-x="576" 
d="M528 384c26.5 0 48 -21.5 48 -48v-352c0 -26.5 -21.5 -48 -48 -48h-480c-26.5 0 -48 21.5 -48 48v352c0 26.5 21.5 48 48 48h144v-96h192v96h144zM288 224c-35.2998 0 -64 -28.7002 -64 -64s28.7002 -64 64 -64s64 28.7002 64 64s-28.7002 64 -64 64zM381.3 0
c10.4004 0 18.7998 10 15.6006 19.7998c-8.40039 25.7002 -32.5 44.2002 -60.9004 44.2002h-8.2002c-12.2002 -5.09961 -25.7002 -8 -39.7998 -8s-27.5 2.90039 -39.7998 8h-8.2002c-28.5 0 -52.5996 -18.5996 -60.9004 -44.2002
c-3.19922 -9.7998 5.2002 -19.7998 15.6006 -19.7998h186.6zM352 416v-96h-128v96c0 17.7002 14.2998 32 32 32h64c17.7002 0 32 -14.2998 32 -32z" />
    <glyph glyph-name="inventory" unicode="&#xf480;" 
d="M624 448c8.7998 0 16 -7.2002 16 -16v-496h-64v32h-512v-32h-64v496c0 8.7998 7.2002 16 16 16h32c8.7998 0 16 -7.2002 16 -16v-144h512v144c0 8.7998 7.2002 16 16 16h32zM576 32v192h-512v-192h512zM368 320c-8.7998 0 -16 7.2002 -16 16v96c0 8.7998 7.2002 16 16 16
h96c8.7998 0 16 -7.2002 16 -16v-96c0 -8.7998 -7.2002 -16 -16 -16h-96zM112 64c-8.7998 0 -16 7.2002 -16 16v96c0 8.7998 7.2002 16 16 16h96c8.7998 0 16 -7.2002 16 -16v-96c0 -8.7998 -7.2002 -16 -16 -16h-96zM272 64c-8.7998 0 -16 7.2002 -16 16v96
c0 8.7998 7.2002 16 16 16h96c8.7998 0 16 -7.2002 16 -16v-96c0 -8.7998 -7.2002 -16 -16 -16h-96z" />
    <glyph glyph-name="gas-pump" unicode="&#xf52f;" horiz-adv-x="512" 
d="M336 0c8.7998 0 16 -7.2002 16 -16v-32c0 -8.7998 -7.2002 -16 -16 -16h-320c-8.7998 0 -16 7.2002 -16 16v32c0 8.7998 7.2002 16 16 16h320zM493.2 340.7c12 -12 18.7998 -28.2998 18.7998 -45.2998v-223.4c0 -42.2002 -36.5 -76 -79.5 -71.7002
c-37.5 3.90039 -64.5 38.2002 -64.5 75.9004v27.7998c0 22.0996 -17.9004 40 -40 40h-8v-112h-288v352c0 35.2998 28.7002 64 64 64h160c35.2998 0 64 -28.7002 64 -64v-192h8c48.5996 0 88 -39.4004 88 -88v-32c0 -13.2002 10.7998 -24 24 -24s24 10.7998 24 24v160.8
c-27.0996 3.90039 -48 27.1006 -48 55.2002v62.0996l-37.7002 37.7002c-6.2002 6.2002 -6.2002 16.4004 0 22.6006l11.2998 11.2998c6.2002 6.2002 16.4004 6.2002 22.6006 0zM256 256v128h-160v-128h160z" />
    <glyph glyph-name="infinity" unicode="&#xf534;" 
d="M471.1 352c93.1006 0 168.9 -71.7998 168.9 -160s-75.7998 -160 -168.9 -160c-66.0996 0 -117.8 41.2998 -151.1 78.5996c-33.2998 -37.2998 -85 -78.5996 -151.1 -78.5996c-93.1006 0 -168.9 71.7998 -168.9 160s75.7998 160 168.9 160
c66.0996 0 117.8 -41.2998 151.1 -78.5996c33.2998 37.2998 85 78.5996 151.1 78.5996zM168.9 128c38.0996 0 73.5996 36.4004 94 64c-20.6006 27.9004 -55.8008 64 -94 64c-40.2002 0 -72.9004 -28.7002 -72.9004 -64s32.7002 -64 72.9004 -64zM471.1 128
c40.2002 0 72.9004 28.7002 72.9004 64s-32.7002 64 -72.9004 64c-38.0996 0 -73.5996 -36.4004 -94 -64c20.6006 -27.9004 55.8008 -64 94 -64z" />
    <glyph glyph-name="cocktail" unicode="&#xf561;" horiz-adv-x="576" 
d="M296 -16c22.0898 0 40 -17.9102 40 -40c0 -4.41992 -3.58008 -8 -8 -8h-240c-4.41992 0 -8 3.58008 -8 8c0 22.0898 17.9102 40 40 40h56v125.22l-168.74 168.73c-15.5195 15.5195 -4.5293 42.0498 17.4199 42.0498h366.641c21.9492 0 32.9395 -26.5303 17.4199 -42.0498
l-168.74 -168.73v-125.22h56zM432 448c79.5303 0 144 -64.4697 144 -144s-64.4697 -144 -144 -144c-27.4102 0 -52.7695 8.08008 -74.5801 21.3799l35.2598 35.2598c12.0303 -5.43945 25.2803 -8.63965 39.3203 -8.63965c52.9297 0 96 43.0596 96 96s-43.0703 96 -96 96
c-35.3701 0 -65.9902 -19.4502 -82.6396 -48h-52.54c19.8301 55.7998 72.5693 96 135.18 96z" />
    <glyph glyph-name="fish" unicode="&#xf578;" horiz-adv-x="576" 
d="M327.1 352c137.46 0 248.9 -128 248.9 -160s-111.44 -160 -248.9 -160c-89.9697 0 -168.55 54.7695 -212.279 101.62l-87.3301 -66.0498c-12.1299 -9.16992 -30.2402 0.599609 -27.1406 14.6602l24.1904 109.77l-24.1797 109.76
c-3.10059 14.0605 15.0098 23.8398 27.1396 14.6602l87.3301 -66.0498c43.7295 46.8604 122.3 101.63 212.27 101.63zM414.53 168c13.25 0 24 10.75 24 24c0 13.2598 -10.7402 24 -24 24c-13.25 0 -24 -10.7402 -24 -24c0 -13.25 10.75 -24 24 -24z" />
    <glyph glyph-name="highlighter" unicode="&#xf591;" horiz-adv-x="544" 
d="M0 -31.9805l68.3301 70.4707l67.04 -67.04l-35.4502 -35.4502zM124.61 208.03l41.5195 35.4395l173.34 -173.34l-35.5498 -41.6396c-9.5 -10.7705 -24.4199 -14.9805 -38.1504 -10.7803l-42.7393 13.0801l-50.8604 -50.8604l-96.2295 96.2305l50.9297 50.9395
l-13.0498 42.8301c-1.02832 3.37598 -1.60645 6.94922 -1.60645 10.6592c0 10.9229 4.79688 20.7344 12.3965 27.4414zM527.92 368.73c20.5 -20.5 21.5303 -53.3906 2.34961 -75.1309l-169.949 -199.06l-169.771 169.78l199.05 169.96
c21.7402 19.1699 54.6309 18.1396 75.1201 -2.35059z" />
    <glyph glyph-name="books" unicode="&#xf5db;" horiz-adv-x="576" 
d="M575.11 4.75c3.31934 -12.3604 -2.64062 -27.21 -18.0908 -31.3496l-15.46 -4.14062c-6.17969 -1.66016 -13.1895 -0.229492 -21.0293 4.2998c-15.8203 -1.01953 -54.0898 -11.3398 -68 -18.2197c-4.53027 -7.83984 -9.87988 -12.5801 -16.0605 -14.2402
l-15.4502 -4.13965c-15.46 -4.13965 -28.0498 5.74023 -31.3594 18.0996l-101.66 396.94h-128v64c0 17.6699 14.3301 32 32 32h64c17.6699 0 32 -14.3301 32 -32v-8.48047c1.9502 1.13086 3.73047 2.43066 6.15039 3.08008l15.46 4.14062
c6.17969 1.66016 13.1895 0.229492 21.0293 -4.2998c15.7002 1.00977 53.9707 11.2793 68 18.2197c4.53027 7.83984 9.87988 12.5801 16.0605 14.2402l15.4502 4.13965c15.46 4.13965 28.0498 -5.74023 31.3594 -18.0996zM440.71 11.8096l61.8203 16.5605l-92.0703 343.82
l-61.8203 -16.5605zM0 64v256h128v-256h-128zM96 448c17.6699 0 32 -14.3301 32 -32v-64h-128v64c0 17.6699 14.3301 32 32 32h64zM0 -32v64h128v-64c0 -17.6699 -14.3301 -32 -32 -32h-64c-17.6699 0 -32 14.3301 -32 32zM160 64v256h128v-256h-128zM160 -32v64h128v-64
c0 -17.6699 -14.3301 -32 -32 -32h-64c-17.6699 0 -32 14.3301 -32 32z" />
    <glyph glyph-name="charging-station" unicode="&#xf5e7;" horiz-adv-x="576" 
d="M336 0c8.83984 0 16 -7.16016 16 -16v-32c0 -8.83984 -7.16016 -16 -16 -16h-320c-8.83984 0 -16 7.16016 -16 16v32c0 8.83984 7.16016 16 16 16h320zM544 320h16c8.83984 0 16 -7.16016 16 -16v-32c0 -35.7598 -23.6201 -65.6904 -56 -75.9297v-120.07
c0 -44.4102 -38.29 -80.0498 -83.5898 -75.6201c-39.4902 3.85059 -68.4102 39.3398 -68.4102 79.0098v24.6104c0 22.0898 -17.9102 40 -40 40h-8v-112h-288v352c0 35.3496 28.6504 64 64 64h160c35.3496 0 64 -28.6504 64 -64v-192h8c48.5996 0 88 -39.4004 88 -88v-28
c0 -16.9902 15.2197 -30.5 32.7402 -27.6104c13.7598 2.27051 23.2598 15.2402 23.2598 29.1904v118.49c-32.3799 10.2393 -56 40.1699 -56 75.9297v32c0 8.83984 7.16016 16 16 16h16v48c0 8.83984 7.16016 16 16 16s16 -7.16016 16 -16v-48h32v48
c0 8.83984 7.16016 16 16 16s16 -7.16016 16 -16v-48zM260.09 272.24c4.62012 6.97949 -1.14941 15.7598 -10.3896 15.7598h-57.7002l11.5996 50.79c2.02051 6.66992 -3.71973 13.21 -11.5996 13.21h-68c-6.01953 0 -11.0996 -3.90039 -11.8896 -9.11035l-16 -107
c-0.959961 -6.2998 4.63965 -11.8896 11.8896 -11.8896h59.3496l-23.0195 -83.0801c-1.7998 -6.63965 4 -12.9199 11.6699 -12.9199c4.17969 0 8.19043 1.91016 10.3896 5.24023z" />
    <glyph glyph-name="globe-stand" unicode="&#xf5f6;" horiz-adv-x="448" 
d="M321.14 142.86c-62.4893 -62.4805 -163.79 -62.4805 -226.27 0c-62.4805 62.4795 -62.4805 163.79 0 226.27c62.4795 62.4805 163.79 62.4805 226.27 0c62.4805 -62.4795 62.4805 -163.79 0 -226.27zM348.12 -16c19.8896 0 36.0098 -16.1201 36.0098 -36
c0 -6.62988 -5.37012 -12 -12 -12h-296.1c-6.62988 0 -12 5.37012 -12 12c0 19.8799 16.1201 36 36.0098 36h92.0303v32.75c-44.8105 3.04004 -88.9404 18.5801 -126.721 46.6396l-26.71 -26.6992c-6.25977 -6.25 -16.3896 -6.25 -22.6396 0l-11.3096 11.2998
c-6.25 6.25 -6.25 16.3799 0 22.6299l59.5 59.5c2.81934 -3.23047 5 -6.81055 8.06934 -9.87988c36.2803 -36.2705 84.5098 -56.2402 135.811 -56.2402c51.2998 0 99.54 19.9697 135.81 56.2402c74.8896 74.8594 74.8896 196.67 0 271.529
c-3.01953 3.01074 -6.22949 5.74023 -9.41016 8.53027l43.0303 43.0098c6.25977 6.25 16.3896 6.25 22.6396 0l11.3105 -11.3096c6.25 -6.25 6.25 -16.3799 0 -22.6299l-10.7002 -10.7002c69.8203 -93.9395 62.3398 -227.16 -22.9102 -312.38
c-34.6094 -34.5996 -77.1494 -56.2998 -121.75 -65.3096v-36.9805h92.0303z" />
    <glyph glyph-name="monitor-heart-rate" unicode="&#xf611;" horiz-adv-x="576" 
d="M480 352v-320h-384v128h86.1104l27.5801 -55.1602c5.89941 -11.79 22.7197 -11.79 28.6191 0l49.6904 99.3799l22.1104 -44.2197h89.8896c8.83984 0 16 7.16016 16 16s-7.16016 16 -16 16h-70.1104l-27.5801 55.1602c-5.89941 11.79 -22.7197 11.79 -28.6191 0
l-49.6904 -99.3799l-19.9004 39.7998c-1.34961 2.70996 -4.11914 4.41992 -7.14941 4.41992h-100.95v160h384zM528 448c26.5098 0 48 -21.4902 48 -48v-416c0 -26.5098 -21.4902 -48 -48 -48h-480c-26.5098 0 -48 21.4902 -48 48v416c0 26.5098 21.4902 48 48 48h480zM512 0
v384h-448v-384h448z" />
    <glyph glyph-name="oil-can" unicode="&#xf613;" 
d="M629.8 287.69c5.11035 1.45996 10.2002 -2.38086 10.1904 -7.69043v-18.0801c0 -2.12012 -0.839844 -4.16016 -2.33984 -5.66016l-212.261 -214.75c-6.00977 -6.08984 -14.21 -9.50977 -22.7598 -9.50977h-274.63c-17.6699 0 -32 14.3301 -32 32v46.54l-69.7197 12.6904
c-15.2207 2.75977 -26.2803 16.0195 -26.2803 31.4795v94.9502c0 17.9795 14.6699 32.0098 31.9297 32.0098c1.9873 0 3.9043 -0.181641 5.79004 -0.530273l138.28 -25.1396h56v48h-56c-8.83984 0 -16 7.16016 -16 16v16c0 8.83984 7.16016 16 16 16h160
c8.83984 0 16 -7.16016 16 -16v-16c0 -8.83984 -7.16016 -16 -16 -16h-56v-48h56.8896c10.2598 -0.00390625 20.0205 -2.46191 28.6201 -6.75977l50.4902 -25.2402zM96 159.33v62.4297l-48 8.73047v-62.4307zM549.33 74.6699c0 23.5605 42.6699 85.3301 42.6699 85.3301
s42.6699 -61.7598 42.6699 -85.3301s-19.0996 -42.6699 -42.6699 -42.6699s-42.6699 19.1104 -42.6699 42.6699z" />
    <glyph glyph-name="cross" unicode="&#xf654;" horiz-adv-x="384" 
d="M352 320c17.6699 0 32 -14.3301 32 -32v-64c0 -17.6699 -14.3301 -32 -32 -32h-96v-224c0 -17.6699 -14.3301 -32 -32 -32h-64c-17.6699 0 -32 14.3301 -32 32v224h-96c-17.6699 0 -32 14.3301 -32 32v64c0 17.6699 14.3301 32 32 32h96v96c0 17.6699 14.3301 32 32 32
h64c17.6699 0 32 -14.3301 32 -32v-96h96z" />
    <glyph glyph-name="poll" unicode="&#xf681;" horiz-adv-x="448" 
d="M400 416c26.5 0 48 -21.5 48 -48v-352c0 -26.5 -21.5 -48 -48 -48h-352c-26.5 0 -48 21.5 -48 48v352c0 26.5 21.5 48 48 48h352zM160 80v128c0 8.83984 -7.16016 16 -16 16h-32c-8.83984 0 -16 -7.16016 -16 -16v-128c0 -8.83984 7.16016 -16 16 -16h32
c8.83984 0 16 7.16016 16 16zM256 80v224c0 8.83984 -7.16016 16 -16 16h-32c-8.83984 0 -16 -7.16016 -16 -16v-224c0 -8.83984 7.16016 -16 16 -16h32c8.83984 0 16 7.16016 16 16zM352 80v64c0 8.83984 -7.16016 16 -16 16h-32c-8.83984 0 -16 -7.16016 -16 -16v-64
c0 -8.83984 7.16016 -16 16 -16h32c8.83984 0 16 7.16016 16 16z" />
    <glyph glyph-name="poll-h" unicode="&#xf682;" horiz-adv-x="448" 
d="M448 16c0 -26.5 -21.5 -48 -48 -48h-352c-26.5 0 -48 21.5 -48 48v352c0 26.5 21.5 48 48 48h352c26.5 0 48 -21.5 48 -48v-352zM112 256h128c8.83984 0 16 7.16016 16 16v32c0 8.83984 -7.16016 16 -16 16h-128c-8.83984 0 -16 -7.16016 -16 -16v-32
c0 -8.83984 7.16016 -16 16 -16zM112 160h224c8.83984 0 16 7.16016 16 16v32c0 8.83984 -7.16016 16 -16 16h-224c-8.83984 0 -16 -7.16016 -16 -16v-32c0 -8.83984 7.16016 -16 16 -16zM112 64h64c8.83984 0 16 7.16016 16 16v32c0 8.83984 -7.16016 16 -16 16h-64
c-8.83984 0 -16 -7.16016 -16 -16v-32c0 -8.83984 7.16016 -16 16 -16z" />
    <glyph glyph-name="signal-1" unicode="&#xf68c;" 
d="M88 64c8.83984 0 16 -7.16016 16 -16v-96c0 -8.83984 -7.16016 -16 -16 -16h-48c-8.83984 0 -16 7.16016 -16 16v96c0 8.83984 7.16016 16 16 16h48z" />
    <glyph glyph-name="signal-2" unicode="&#xf68d;" 
d="M216 160c8.83984 0 16 -7.16016 16 -16v-192c0 -8.83984 -7.16016 -16 -16 -16h-48c-8.83984 0 -16 7.16016 -16 16v192c0 8.83984 7.16016 16 16 16h48zM88 64c8.83984 0 16 -7.16016 16 -16v-96c0 -8.83984 -7.16016 -16 -16 -16h-48c-8.83984 0 -16 7.16016 -16 16v96
c0 8.83984 7.16016 16 16 16h48z" />
    <glyph glyph-name="signal-3" unicode="&#xf68e;" 
d="M216 160c8.83984 0 16 -7.16016 16 -16v-192c0 -8.83984 -7.16016 -16 -16 -16h-48c-8.83984 0 -16 7.16016 -16 16v192c0 8.83984 7.16016 16 16 16h48zM88 64c8.83984 0 16 -7.16016 16 -16v-96c0 -8.83984 -7.16016 -16 -16 -16h-48c-8.83984 0 -16 7.16016 -16 16v96
c0 8.83984 7.16016 16 16 16h48zM344 256c8.83984 0 16 -7.16016 16 -16v-288c0 -8.83984 -7.16016 -16 -16 -16h-48c-8.83984 0 -16 7.16016 -16 16v288c0 8.83984 7.16016 16 16 16h48z" />
    <glyph glyph-name="signal-4" unicode="&#xf68f;" 
d="M216 160c8.83984 0 16 -7.16016 16 -16v-192c0 -8.83984 -7.16016 -16 -16 -16h-48c-8.83984 0 -16 7.16016 -16 16v192c0 8.83984 7.16016 16 16 16h48zM88 64c8.83984 0 16 -7.16016 16 -16v-96c0 -8.83984 -7.16016 -16 -16 -16h-48c-8.83984 0 -16 7.16016 -16 16v96
c0 8.83984 7.16016 16 16 16h48zM344 256c8.83984 0 16 -7.16016 16 -16v-288c0 -8.83984 -7.16016 -16 -16 -16h-48c-8.83984 0 -16 7.16016 -16 16v288c0 8.83984 7.16016 16 16 16h48zM472 352c8.83984 0 16 -7.16016 16 -16v-384c0 -8.83984 -7.16016 -16 -16 -16h-48
c-8.83984 0 -16 7.16016 -16 16v384c0 8.83984 7.16016 16 16 16h48z" />
    <glyph glyph-name="signal-alt" unicode="&#xf690;" 
d="M96 64c17.6699 0 32 -14.3301 32 -32v-64c0 -17.6699 -14.3301 -32 -32 -32h-32c-17.6699 0 -32 14.3301 -32 32v64c0 17.6699 14.3301 32 32 32h32zM256 192c17.6699 0 32 -14.3301 32 -32v-192c0 -17.6699 -14.3301 -32 -32 -32h-32c-17.6699 0 -32 14.3301 -32 32v192
c0 17.6699 14.3301 32 32 32h32zM416 320c17.6699 0 32 -14.3301 32 -32v-320c0 -17.6699 -14.3301 -32 -32 -32h-32c-17.6699 0 -32 14.3301 -32 32v320c0 17.6699 14.3301 32 32 32h32zM576 448c17.6699 0 32 -14.3301 32 -32v-448c0 -17.6699 -14.3301 -32 -32 -32h-32
c-17.6699 0 -32 14.3301 -32 32v448c0 17.6699 14.3301 32 32 32h32z" />
    <glyph glyph-name="signal-alt-1" unicode="&#xf691;" 
d="M96 64c17.6699 0 32 -14.3301 32 -32v-64c0 -17.6699 -14.3301 -32 -32 -32h-32c-17.6699 0 -32 14.3301 -32 32v64c0 17.6699 14.3301 32 32 32h32z" />
    <glyph glyph-name="signal-alt-2" unicode="&#xf692;" 
d="M96 64c17.6699 0 32 -14.3301 32 -32v-64c0 -17.6699 -14.3301 -32 -32 -32h-32c-17.6699 0 -32 14.3301 -32 32v64c0 17.6699 14.3301 32 32 32h32zM256 192c17.6699 0 32 -14.3301 32 -32v-192c0 -17.6699 -14.3301 -32 -32 -32h-32c-17.6699 0 -32 14.3301 -32 32v192
c0 17.6699 14.3301 32 32 32h32z" />
    <glyph glyph-name="signal-alt-3" unicode="&#xf693;" 
d="M96 64c17.6699 0 32 -14.3301 32 -32v-64c0 -17.6699 -14.3301 -32 -32 -32h-32c-17.6699 0 -32 14.3301 -32 32v64c0 17.6699 14.3301 32 32 32h32zM256 192c17.6699 0 32 -14.3301 32 -32v-192c0 -17.6699 -14.3301 -32 -32 -32h-32c-17.6699 0 -32 14.3301 -32 32v192
c0 17.6699 14.3301 32 32 32h32zM416 320c17.6699 0 32 -14.3301 32 -32v-320c0 -17.6699 -14.3301 -32 -32 -32h-32c-17.6699 0 -32 14.3301 -32 32v320c0 17.6699 14.3301 32 32 32h32z" />
    <glyph glyph-name="cat" unicode="&#xf6be;" horiz-adv-x="512" 
d="M290.59 256c11.8906 -58.3496 63.6006 -102.4 125.41 -102.4c11.1104 0 21.71 1.87012 32 4.54004v-206.14c0 -8.83984 -7.16016 -16 -16 -16h-32c-8.83984 0 -16 7.16016 -16 16v144l-128 -96h32c17.6699 0 32 -14.3301 32 -32v-16c0 -8.83984 -7.16016 -16 -16 -16
h-176c-35.2998 0 -64 28.7002 -64 64v256c0 17.6396 -14.3604 32 -32 32c-17.6699 0 -32 14.3301 -32 32s14.3301 32 32 32c52.9404 0 96 -43.0596 96 -96v-85.9502c55.7695 83.9697 142.41 85.9502 162.59 85.9502zM448 352l64 64v-134.4c0 -53.0195 -42.9805 -96 -96 -96
s-96 42.9805 -96 96v134.4l64 -64h64zM376 272c8.83984 0 16 7.16016 16 16s-7.16016 16 -16 16s-16 -7.16016 -16 -16s7.16016 -16 16 -16zM456 272c8.83984 0 16 7.16016 16 16s-7.16016 16 -16 16s-16 -7.16016 -16 -16s7.16016 -16 16 -16z" />
    <glyph glyph-name="elephant" unicode="&#xf6da;" 
d="M512 416c70.6904 0 128 -57.3096 128 -128v-203.27c0 -41.8408 -30.0195 -80.0508 -71.6396 -84.3008c-47.8408 -4.88965 -88.3604 32.7002 -88.3604 79.5703c0 8.83984 7.16016 16 16 16h32c8.83984 0 16 -7.16016 16 -16c0 -8.83008 7.16992 -16 16 -16
s16 7.16992 16 16v97.75c-18.8896 -10.9902 -40.5596 -17.75 -64 -17.75h-64v-208c0 -8.83984 -7.16016 -16 -16 -16h-64c-8.83984 0 -16 7.16016 -16 16v107.85c-32.3496 -17.5498 -70.7197 -27.8496 -112 -27.8496s-79.6504 10.2998 -112 27.8496v-107.85
c0 -8.83984 -7.16016 -16 -16 -16h-64c-8.83984 0 -16 7.16016 -16 16v144h-16c-8.83984 0 -16 7.16016 -16 16v112c0 106.04 85.96 192 192 192h133.9c-3.59082 -10.0596 -5.90039 -20.7197 -5.90039 -32c0 -27.2803 11.9199 -53.1699 32 -71.2002v-24.7998
c0 -35.29 28.71 -64 64 -64h8c4.41992 0 8 3.58008 8 8v16c0 4.41992 -3.58008 8 -8 8h-8c-17.6699 0 -32 14.3301 -32 32v40.8799c-19.0498 11.0801 -32 31.4902 -32 55.1201c0 35.3496 28.6504 64 64 64c26.2305 0 48.71 -15.8203 58.5996 -38.4004
c11.8809 3.74023 24.2402 6.40039 37.4004 6.40039zM528 288c8.83984 0 16 7.16016 16 16s-7.16016 16 -16 16s-16 -7.16016 -16 -16s7.16016 -16 16 -16z" />
    <glyph glyph-name="hammer-war" unicode="&#xf6e4;" horiz-adv-x="384" 
d="M346.74 415.56c19.5 3.25 37.2598 -11.79 37.2598 -31.5693v-191.99c0 -19.7695 -17.75 -34.8096 -37.2598 -31.5596l-154.74 25.79l-154.74 -25.7803c-19.5 -3.25 -37.2598 11.79 -37.2598 31.5596v191.98c0 19.7793 17.7598 34.8193 37.2598 31.5693l122.74 -20.46
v36.9004c0 8.83984 7.16016 16 16 16h32c8.83984 0 16 -7.16016 16 -16v-36.9004zM160 148.46l32 5.33008l32 -5.33008v-196.46c0 -8.83984 -7.16016 -16 -16 -16h-32c-8.83984 0 -16 7.16016 -16 16v196.46z" />
    <glyph glyph-name="hippo" unicode="&#xf6ed;" 
d="M581.12 351.8c34.0898 -0.189453 58.8799 -33.6895 58.8799 -67.7803v-92.0195c0 -17.6699 -14.3301 -32 -32 -32v-32c0 -8.83984 -7.16016 -16 -16 -16h-32c-8.83984 0 -16 7.16016 -16 16v32h-128v-176c0 -8.83984 -7.16016 -16 -16 -16h-64
c-8.83984 0 -16 7.16016 -16 16v70.79c-32.3496 -14.3604 -70.7197 -22.79 -112 -22.79s-79.6504 8.42969 -112 22.79v-70.79c0 -8.83984 -7.16016 -16 -16 -16h-64c-8.83984 0 -16 7.16016 -16 16v240c0 88.3604 85.96 160 192 160
c49.2402 0 94.0098 -15.5801 128 -40.9805v48.9805c0 13.2598 10.75 24 24 24h16c13.25 0 24 -10.7402 24 -24v-13.8799c10.0498 3.58008 20.7197 5.87988 32 5.87988c39.8301 0 73.9805 -24.2695 88.5195 -58.8203c24.1006 9.04004 48.9307 26.7705 76.6006 26.6201z
M448 272c8.83984 0 16 7.16016 16 16s-7.16016 16 -16 16s-16 -7.16016 -16 -16s7.16016 -16 16 -16z" />
    <glyph glyph-name="hood-cloak" unicode="&#xf6ef;" horiz-adv-x="576" 
d="M288.27 256c70.7002 0 128 -57.3096 128 -128v-192h-256v192c0 70.6904 57.3105 128 128 128zM569.64 -12.8398c4.4707 -5.95996 6.43066 -12.6406 6.36035 -19.1602c-0.19043 -16.5195 -13.46 -32 -32.3301 -32h-95.4004v192c0 88.2197 -71.7793 160 -160 160
c-88.2197 0 -160 -71.7803 -160 -160v-192h-95.9395c-18.8701 0 -32.1396 15.4805 -32.3301 32c-0.0703125 6.51953 1.88965 13.2002 6.36035 19.1602c57.6699 76.9697 57.6699 140.84 57.6699 140.84v64c0 146.55 127.97 256 223.569 256h149.11
c17.5098 0 26.2803 -21.1699 13.8896 -33.5498l-39.75 -39.75c54.8105 -59.6504 101.181 -98.6699 101.181 -182.7v-64h-0.0605469s0 -63.8701 57.6699 -140.84z" />
    <glyph glyph-name="horse" unicode="&#xf6f0;" horiz-adv-x="576" 
d="M575.92 371.4l0.0605469 -77.71c0 -0.0107422 0.0185547 -0.00683594 0.0185547 -0.0166016c0 -13.4707 -8.34277 -25.0088 -20.1387 -29.7236l-32.5508 -13.0205c-15.4395 -6.17969 -33.04 0.5 -40.4893 15.3701l-18.9004 37.7002l-16 7.11035v-102.471
c0.00976562 -0.219727 0.0800781 -0.419922 0.0800781 -0.639648c0 -30.4697 -12.2598 -58.0303 -32 -78.2197v-177.78c0 -8.83984 -7.16016 -16 -16 -16h-64c-8.83984 0 -16 7.16016 -16 16v150.4l-133.97 22.3301l-23.8398 -63.5908l26.3096 -105.26
c2.53027 -10.0996 -5.11035 -19.8799 -15.5195 -19.8799h-65.9609c-7.48633 0 -13.7783 5.16602 -15.5098 12.1201l-24.8496 99.4102c-1.24707 4.98047 -1.8916 10.1924 -1.8916 15.5576c0 7.8916 1.43262 15.4502 4.05176 22.4316l25.7197 68.6006
c-18.7002 17.5195 -30.54 42.2402 -30.54 69.8799c0 2.62988 0.570312 5.09961 0.780273 7.67969c-9.91016 -7.29004 -16.7803 -18.46 -16.7803 -31.6797v-56c0 -8.83984 -7.16016 -16 -16 -16h-16c-8.83984 0 -16 7.16016 -16 16v56c0 48.5303 39.4697 88 88 88v-1.11035
c17.5996 20.1299 43.1602 33.1104 72 33.1104h159.92c0 70.6904 57.3105 128 128 128h119.98c5.05957 0 8.94922 -4.67969 7.92969 -9.63965c-2.67969 -13.1699 -11.1201 -23.8203 -22.1797 -30.6602c5.10938 -5.37988 9.90918 -10.4697 13.6895 -14.5
c5.56055 -5.93066 8.57031 -13.6699 8.58008 -21.7998zM511.92 352c8.83984 0 16 7.16016 16 16s-7.16016 16 -16 16s-16 -7.16016 -16 -16s7.16016 -16 16 -16z" />
    <glyph glyph-name="kite" unicode="&#xf6f4;" 
d="M113.75 132.17c-5.07324 3.37988 -11.2295 5.35059 -17.7773 5.35059s-12.6396 -1.9707 -17.7129 -5.35059l-53.3799 -35.5801c-10.6396 -7.08984 -24.8799 0.530273 -24.8799 13.3105v68.21c0 12.7695 14.2402 20.3994 24.8799 13.3096l47.1201 -31.4199v64
c0 22.0898 -17.9102 40 -40 40h-16c-8.83984 0 -16 7.16016 -16 16v16c0 8.83984 7.16016 16 16 16h16c48.5996 0 88 -39.4004 88 -88v-64l47.1299 31.4199c10.6396 7.08984 24.8799 -0.530273 24.8799 -13.3096v-68.21c0 -12.7705 -14.25 -20.4004 -24.8799 -13.3105z
M615.8 446.43l-138.34 -138.35l-138.76 138.76c2.21973 0.490234 4.39941 1.16016 6.75977 1.16016h262.54c2.76953 0 5.24023 -0.910156 7.7998 -1.57031zM331.31 116.69l146.15 146.14l139.75 -139.71c-0.700195 -0.209961 -1.26953 -0.660156 -1.99023 -0.830078
l-341.31 -78.7598c-1.7002 -0.390625 -3.36035 -0.459961 -5.02051 -0.580078l-88.3096 -88.3105c-23.8896 -23.9199 -66.3896 -27.1895 -92.8701 4.34082c-10.6504 12.6699 -15.7002 29.1592 -15.7002 45.71v84.8594l24 16l24 -16v-89.9502
c0 -13.8994 16.7998 -20.8594 26.6299 -11.0293l88.3301 88.3301c0.110352 1.64941 0.160156 3.2998 0.549805 4.98926l78.7607 341.311c0.169922 0.719727 0.620117 1.28027 0.830078 1.97949l139.72 -139.729l-146.14 -146.141
c-3.12012 -3.11914 -3.12012 -8.18945 0 -11.3096l11.3096 -11.3096c3.12012 -3.12012 8.19043 -3.12012 11.3096 0zM638.43 423.8c0.660156 -2.55957 1.57031 -5.03027 1.57031 -7.7998v-262.55c0 -2.35059 -0.669922 -4.53027 -1.16016 -6.75l-138.76 138.76z" />
    <glyph glyph-name="mask" unicode="&#xf6fa;" 
d="M320.67 384c449.09 0 348.32 -384 158.46 -384c-39.8994 0 -77.4697 20.6904 -101.41 55.8604l-25.7295 37.79c-15.6602 22.9893 -46.9707 22.9893 -62.6299 0l-25.7305 -37.79c-23.9502 -35.1699 -61.5195 -55.8604 -101.42 -55.8604c-199.11 0 -284.14 384 158.46 384z
M184 139.64c41.0596 0 67.7598 25.6504 80.0801 41.0508c5.22949 6.54004 5.22949 16.0996 0 22.6299c-12.3203 15.3896 -39.0098 41.0498 -80.0801 41.0498s-67.7598 -25.6504 -80.0801 -41.0498c-5.22949 -6.54004 -5.22949 -16.1006 0 -22.6299
c12.3203 -15.3906 39.0205 -41.0508 80.0801 -41.0508zM456 139.64c41.0596 0 67.7598 25.6504 80.0801 41.0508c5.22949 6.54004 5.22949 16.0996 0 22.6299c-12.3203 15.3896 -39.0098 41.0498 -80.0801 41.0498s-67.7598 -25.6504 -80.0801 -41.0498
c-5.22949 -6.54004 -5.22949 -16.1006 0 -22.6299c12.3203 -15.3906 39.0205 -41.0508 80.0801 -41.0508z" />
    <glyph glyph-name="monkey" unicode="&#xf6fb;" 
d="M549.47 180.78l53.5898 -160.75c3.27051 -9.81055 4.94043 -20.0801 4.94043 -30.4199v-37.6104c0 -8.83984 -7.16016 -16 -16 -16h-32c-8.83984 0 -16 7.16016 -16 16v37.6602l-1.63965 10.1094l-34.6807 104.021l-155.68 -103.79h64c17.6699 0 32 -14.3301 32 -32v-16
c0 -8.83984 -7.16016 -16 -16 -16h-240c-52.9404 0 -96 43.0596 -96 96v240c0 8.83008 -7.16992 16 -16 16s-16 -7.16992 -16 -16v-48c0 -17.6699 -14.3301 -32 -32 -32s-32 14.3301 -32 32v48c0 44.1104 35.8896 80 80 80s80 -35.8896 80 -80v-240
c0 -17.6396 14.3604 -32 32 -32v32c0 103.95 70.9102 191.1 166.92 216.38c16.79 -51.1201 64.4102 -88.3799 121.08 -88.3799c25.6396 0 49.4297 7.75 69.4697 20.7803zM592 384c26.5098 0 48 -21.4902 48 -48s-21.4902 -48 -48 -48h-16c0 -53.0195 -42.9805 -96 -96 -96
s-96 42.9805 -96 96h-16c-26.5098 0 -48 21.4902 -48 48s21.4902 48 48 48h21.8799c13.2197 37.2002 48.3799 64 90.1201 64s76.9004 -26.7998 90.1201 -64h21.8799zM440 328c8.83984 0 16 7.16016 16 16s-7.16016 16 -16 16s-16 -7.16016 -16 -16s7.16016 -16 16 -16z
M520 328c8.83984 0 16 7.16016 16 16s-7.16016 16 -16 16s-16 -7.16016 -16 -16s7.16016 -16 16 -16z" />
    <glyph glyph-name="narwhal" unicode="&#xf6fe;" 
d="M600.83 236.95c23.6299 -17.5 39.1699 -45.3506 39.1699 -76.9502v-128c0 -35.3496 -28.6504 -64 -64 -64h-412.12c-55.0801 0 -99.8799 44.7998 -99.8799 99.8701v97.9902l-49.75 30.5195c-8.90039 5.92969 -14.25 15.9199 -14.25 26.6201v80.9697
c0 12.7803 14.2402 20.4004 24.8799 13.3203l71.1201 -47.4199l71.1201 47.4199c10.6396 7.08984 24.8799 -0.530273 24.8799 -13.3096v-80.9805c0 -11.1123 -5.64258 -20.8906 -14.25 -26.6299l-49.75 -30.5098v-97.9902c0 -19.7803 16.0996 -35.8701 35.8799 -35.8701
c64.0898 0 135.73 218.6 372.24 223.54c-0.709961 0.290039 -1.12012 0.459961 -1.12012 0.459961l85.3398 154.58c2.7998 5.07031 9.17969 6.91016 14.25 4.11035c4.2002 -2.32031 6.17969 -7.11035 5.14062 -11.5703zM432 96c8.83984 0 16 7.16016 16 16
s-7.16016 16 -16 16s-16 -7.16016 -16 -16s7.16016 -16 16 -16z" />
    <glyph glyph-name="whale" unicode="&#xf72c;" 
d="M544 288c52.9404 0 96 -43.0596 96 -96v-128c0 -35.3496 -28.6504 -64 -64 -64h-412.12c-55.0801 0 -99.8799 44.7998 -99.8799 99.8701v97.9902l-49.75 30.5195c-8.90039 5.92969 -14.25 15.9199 -14.25 26.6201v80.9697c0 12.7803 14.2402 20.4004 24.8799 13.3203
l71.1201 -47.4199l71.1201 47.4199c10.6396 7.08984 24.8799 -0.530273 24.8799 -13.3096v-80.9805c0 -11.1123 -5.64258 -20.8906 -14.25 -26.6299l-49.75 -30.5098v-97.9902c0 -19.7803 16.0996 -35.8701 35.8799 -35.8701c64.8301 0 137.07 224 380.12 224zM432 160
c-8.83984 0 -16 -7.16016 -16 -16s7.16016 -16 16 -16s16 7.16016 16 16s-7.16016 16 -16 16z" />
    <glyph glyph-name="hurricane" unicode="&#xf751;" horiz-adv-x="384" 
d="M176 352c114.9 0 208 -93.0996 208 -208c0 -106.4 -80 -195.6 -183.1 -207.9c-11.8008 -1.39941 -21.1006 9.90039 -17.4004 21.1006l24.5 74.7998c-114.9 0 -208 93.0996 -208 208c0 106.4 80 195.6 183.1 207.9c11.8008 1.39941 21.1006 -9.90039 17.4004 -21.1006z
M192 96c53 0 96 43 96 96s-43 96 -96 96s-96 -43 -96 -96s43 -96 96 -96zM192 224c17.7002 0 32 -14.2998 32 -32s-14.2998 -32 -32 -32s-32 14.2998 -32 32s14.2998 32 32 32z" />
    <glyph glyph-name="poll-people" unicode="&#xf759;" 
d="M80 352c-26.5 0 -48 21.5 -48 48s21.5 48 48 48s48 -21.5 48 -48s-21.5 -48 -48 -48zM128 112c0 -26.5 -21.5 -48 -48 -48s-48 21.5 -48 48s21.5 48 48 48s48 -21.5 48 -48zM96 32c35.2998 0 64 -28.7002 64 -64v-16c0 -8.7998 -7.2002 -16 -16 -16h-128
c-8.7998 0 -16 7.2002 -16 16v16c0 35.2998 28.7002 64 64 64h32zM616 416c13.2998 0 24 -10.7002 24 -24v-112c0 -13.2998 -10.7002 -24 -24 -24h-368c-13.2998 0 -24 10.7002 -24 24v112c0 13.2998 10.7002 24 24 24h368zM576 320v32h-64v-32h64zM96 320
c35.2998 0 64 -28.7002 64 -64v-16c0 -8.7998 -7.2002 -16 -16 -16h-128c-8.7998 0 -16 7.2002 -16 16v16c0 35.2998 28.7002 64 64 64h32zM616 128c13.2998 0 24 -10.7002 24 -24v-112c0 -13.2998 -10.7002 -24 -24 -24h-368c-13.2998 0 -24 10.7002 -24 24v112
c0 13.2998 10.7002 24 24 24h368zM576 32v32h-224v-32h224z" />
    <glyph glyph-name="rainbow" unicode="&#xf75b;" horiz-adv-x="576" 
d="M268.3 415.3c167.7 11.2998 307.7 -122 307.7 -287.3v-144c0 -8.7998 -7.2002 -16 -16 -16h-32c-8.7998 0 -16 7.2002 -16 16v136.2c0 113.8 -81.5996 215.399 -194.5 229.899c-136.6 17.6006 -253.5 -88.8994 -253.5 -222.1v-144c0 -8.7998 -7.2002 -16 -16 -16h-32
c-8.7998 0 -16 7.2002 -16 16v133.8c0 153.3 115.4 287.3 268.3 297.5zM262.7 318.4c117.1 15 217.3 -76.2002 217.3 -190.4v-144c0 -8.7998 -7.2002 -16 -16 -16h-32c-8.7998 0 -16 7.2002 -16 16v138.3c0 66.9004 -48.7002 126.601 -115.2 133.101
c-76.2998 7.39941 -140.8 -52.6006 -140.8 -127.4v-144c0 -8.7998 -7.2002 -16 -16 -16h-32c-8.7998 0 -16 7.2002 -16 16v137.3c0 97.6006 70 184.7 166.7 197.101zM268.9 222.1c61.2998 11.9004 115.1 -34.8994 115.1 -94.0996v-144c0 -8.7998 -7.2002 -16 -16 -16h-32
c-8.7998 0 -16 7.2002 -16 16v144c0 17.5996 -14.2998 32 -32 32s-32 -14.4004 -32 -32v-144c0 -8.7998 -7.2002 -16 -16 -16h-32c-8.7998 0 -16 7.2002 -16 16v140.2c0 46.3994 31.2998 89 76.9004 97.8994z" />
    <glyph glyph-name="angel" unicode="&#xf779;" horiz-adv-x="576" 
d="M208 304c0 44.2002 35.7998 80 80 80s80 -35.7998 80 -80s-35.7998 -80 -80 -80s-80 35.7998 -80 80zM184.5 346.6c-15.2002 10.5 -24.5 23.4004 -24.5 37.4004c0 35.2998 57.2998 64 128 64s128 -28.7002 128 -64c0 -14 -9.2998 -26.9004 -24.5 -37.4004
c-4.2002 9.90039 -10 18.8008 -16.5996 27.1006c5.7998 4.2002 9.09961 8 9.09961 10.2998c0 8 -34 32 -96 32s-96 -24 -96 -32c0 -2.40039 3.2998 -6.2002 9.09961 -10.2998c-6.69922 -8.2002 -12.5 -17.2002 -16.5996 -27.1006zM571.8 -5.09961
c6.2998 -12.8008 5.5 -27.8008 -2 -39.9004c-7.5 -11.9004 -20.2998 -19 -34.2002 -19h-495.1c-14 0 -26.7002 7.09961 -34.2002 19c-7.59961 12.0996 -8.39941 27 -2.09961 39.9004l38.2002 78.6992c6.59961 13.5 6.59961 29.6006 0 43.1006
c-4.80078 9.7998 -8.7002 16.5996 -11.9004 22.0996c-9.5 16.5 -14.5 26.4004 -14.5 53.2002c0 51.0996 47 96 100.5 96c24.7998 0 49 -10.2002 66.5 -28.2002l72.5996 -73.2998c10.4004 3.40039 21.2002 5.40039 32.5 5.40039c11.3008 0 22.2002 -2 32.5 -5.40039
l72.7002 73.4004c17.2998 17.7998 41.5 28.0996 66.2998 28.0996c53.5 0 100.4 -44.9004 100.4 -96c0 -26.7998 -5 -36.7002 -14.5 -53.2998c-3.2002 -5.40039 -7.09961 -12.2998 -11.9004 -22.1006c-6.59961 -13.5 -6.59961 -29.5996 0 -43.0996zM195.4 134.8
c4.7998 9.60059 11.0996 18.2002 18.2998 25.7002l-65.1006 65.5996c-8.69922 9 -20.0996 13.9004 -32.1992 13.9004c-26.9004 0 -52.4004 -23.2998 -52.4004 -48c0 -15.2002 0.900391 -16.7998 8.09961 -29.2002c3.60059 -6.2002 8.10059 -13.8994 13.5 -25.0996
c13 -26.6006 13 -58.5 0 -85.1006l-33.3994 -68.5996h67.7998zM456 -16h67.7998l-33.3994 68.5996c-13 26.6006 -13 58.5 0 85.1006c5.5 11.0996 9.89941 18.8994 13.5 25.0996c7.19922 12.4004 8.09961 14 8.09961 29.2002c0 24.7002 -25.4004 48 -52.4004 48
c-12.0996 0 -23.5 -4.90039 -32.0996 -13.7002l-65.2998 -65.7998c7.2998 -7.5 13.5996 -16.0996 18.3994 -25.7002z" />
    <glyph glyph-name="baby" unicode="&#xf77c;" horiz-adv-x="384" 
d="M192 288c-44.2002 0 -80 35.7998 -80 80s35.7998 80 80 80s80 -35.7998 80 -80s-35.7998 -80 -80 -80zM138.6 39.2002l29.4004 -39.2002c13.2002 -17.7002 9.7002 -42.7998 -8 -56c-7.2002 -5.40039 -15.7002 -8 -24 -8c-12.0996 0 -24.0996 5.5 -32 16l-48 64
c-10.9004 14.5996 -10.5996 34.7998 0.799805 49l45.9004 57.4004l61.5 -51.2002zM281.3 122.4l45.9004 -57.4004c11.3994 -14.2002 11.7002 -34.4004 0.799805 -49l-48 -64c-7.7998 -10.5 -19.7998 -16 -32 -16c-8.40039 0 -16.7998 2.59961 -24 8
c-17.7002 13.2002 -21.2002 38.2998 -8 56l29.4004 39.2002l-25.6006 32zM376.7 303c12.7002 -18.0996 8.39941 -43 -9.7002 -55.7998l-40.5996 -28.5c-17 -11.9004 -35.4004 -20.9004 -54.4004 -27.9004v-30.7998h-160v30.9004c-19 7 -37.4004 16 -54.4004 27.8994
l-40.5996 28.5c-18 12.7002 -22.4004 37.6006 -9.7002 55.7002c12.7002 18 37.6006 22.4004 55.7002 9.7002l40.5996 -28.4004c52.6006 -37 124.101 -37 176.801 0l40.5996 28.5c18.0996 12.6006 43 8.2998 55.7002 -9.7998z" />
    <glyph glyph-name="candy-cane" unicode="&#xf786;" horiz-adv-x="512" 
d="M497.5 356c35.7002 -75.5 2.7998 -166.1 -68.9004 -209l-347.3 -206.5c-5.2002 -3 -10.7998 -4.5 -16.3994 -4.5c-10.9004 0 -21.5 5.59961 -27.5 15.5996l-32.8008 54.9004c-9.09961 15.2002 -4.19922 34.7998 11 43.9004l353.601 210.1
c15.0996 9.09961 20.0996 28.7998 11 43.9004c-6 10 -16.6006 15.5996 -27.5 15.5996c-5.60059 0 -11.2998 -1.40039 -16.4004 -4.5l-27.5 -16.4004c-5.2002 -3 -10.7998 -4.5 -16.3994 -4.5c-10.9004 0 -21.5 5.60059 -27.5 15.6006l-32.8008 54.8994
c-9.09961 15.2002 -4.19922 34.8008 11 43.9004l27.5 16.4004c25.6006 15.2998 53.9004 22.5996 81.8008 22.5996c59.3994 0 117.199 -33.0996 145.1 -92zM319.8 343c8.5 5.09961 18.1006 7.59961 27.9004 8.40039l-20.6006 61.7998
c-10.5 -2.10059 -20.5996 -5.5 -30.2998 -10.2002l20.5 -61.5zM145.9 16.2002l30.7998 18.2998l-60.5 38.5l-30.7998 -18.2998zM253.4 80.0996l30.7998 18.3008l-60.5 38.5l-30.7998 -18.3008zM364.3 146l30.7998 18.2998l-60.5 38.5l-30.7998 -18.2998zM384.7 343.3
c9.2002 -5.39941 17.2002 -13 22.8994 -22.2998l45.7002 45.7002c-6.59961 8.5 -14.2002 16.0996 -22.5996 22.5996zM466.8 235.5c4.60059 9.7998 8 20 10.1006 30.4004l-60.4004 20.0996c-0.0996094 -4.5 -0.700195 -9.09961 -1.7998 -13.5996
c-1.60059 -6.2002 -4.2002 -11.8008 -7.40039 -17.1006z" />
    <glyph glyph-name="carrot" unicode="&#xf787;" horiz-adv-x="512" 
d="M298.2 291.4c61.7002 -30.1006 87.2998 -104.5 57.2002 -166.2c-12.6006 -25.7998 -33.1006 -45.4004 -57.1006 -57.1006l-102 -49.7998l-57 57c-6.2002 6.2002 -16.2998 6.2002 -22.5996 0s-6.2998 -16.3994 0 -22.5996l49.2002 -49.2002l-133.601 -65.2002
c-11.0996 -5.39941 -24.5996 -0.799805 -30 10.2998c-3.09961 6.40039 -2.89941 13.7002 0 19.7002l128.101 262.7l50.1992 -50.2002c3.10059 -3.09961 7.2002 -4.7002 11.3008 -4.7002c4.09961 0 8.19922 1.60059 11.2998 4.7002c6.2998 6.2002 6.2998 16.2998 0 22.6006
l-55.2002 55.1992c35.7002 43.3008 97.5 58.5 150.2 32.8008zM390.3 326.3c40.7002 19.5 88.7998 9.40039 121.7 -30.2998c-41.5996 -50.2998 -107.5 -52.5 -151.9 -7.90039l-8 8c-44.5996 44.4004 -42.3994 110.2 7.90039 151.9
c39.7002 -32.9004 49.7998 -81 30.2998 -121.7z" />
    <glyph glyph-name="horse-head" unicode="&#xf7ab;" horiz-adv-x="512" 
d="M509.8 115.5c4.60059 -11.7998 1.7998 -25.2998 -7.09961 -34.4004l-45.2998 -39.7998c-6 -6 -14.1006 -9.39941 -22.6006 -9.39941h-50.2998c-10.2998 0 -20 4.89941 -26 13.2998l-46 63.8994c-13.7998 -8.09961 -29.5996 -13.1992 -46.7998 -13.1992
c-39.2002 0 -72.6006 23.6992 -87.4004 57.3994c-2.2998 5.10059 -9 6.2998 -12.8994 2.40039l-12.1006 -12.1006c-2.5 -2.39941 -3.2002 -6.19922 -1.59961 -9.2998c19.7002 -38.8994 58.7002 -66.0996 104.3 -69.5996v-0.700195l40.7998 -81.7002
c10.7002 -21.2998 -4.7998 -46.2998 -28.5996 -46.2998h-236.2c-17.7002 0 -32 14.2998 -32 32v81.2002c0 159.899 35.9004 275.399 166.9 322.5l202.199 75.7002c4.90039 1.7998 10.7002 -1.10059 12 -6.10059c12.1006 -46.3994 -16.1992 -71.7002 -34.1992 -82.2998
c42.5996 -8.2002 78.0996 -38 93 -79.2002zM328 224c13.2998 0 24 10.7002 24 24s-10.7002 24 -24 24s-24 -10.7002 -24 -24s10.7002 -24 24 -24z" />
    <glyph glyph-name="lights-holiday" unicode="&#xf7b2;" 
d="M637.4 349.2c4.89941 -7.7998 2.69922 -18.2998 -4.80078 -22.9004c-38.0996 -22.3994 -81.0996 -40 -127 -53l20.1006 -55.2998c25.5 -1.09961 48.3994 -16.2998 61.2998 -51.5996c18.0996 -49.8008 -14.4004 -129.101 -27.9004 -134
c-13.5996 -4.90039 -89.3994 34.8994 -107.5 84.6992c-12.8994 35.4004 -5 61.7002 13.8008 79l-22.8008 62.6006c-29.3994 -5.2002 -59.5996 -8.40039 -90.3994 -9.7998v-63c23.5996 -9.80078 40 -31.9004 40 -69.5c0 -53.1006 -57.6006 -116.4 -72 -116.4
c-14.4004 0 -72 63.4004 -72 116.4c0 37.6992 16.3994 59.6992 40 69.5v63c-30.7998 1.39941 -61.1006 4.59961 -90.4004 9.7998l-22.7998 -62.6006c18.7998 -17.2998 26.7002 -43.6992 13.7998 -79c-18.2002 -49.7998 -94 -89.5996 -107.5 -84.6992
c-13.5996 5 -46 84.1992 -27.8994 134c12.7998 35.3994 35.7998 50.5 61.2998 51.5996l20.0996 55.2998c-45.8994 13 -88.8994 30.6006 -127 53c-7.89941 4.60059 -10.0996 15.1006 -5.2002 22.9004l17.5 27.3994c4.7002 7.40039 14.2002 9.5 21.8008 5.10059
c76.0996 -44.4004 174.1 -68.7002 278.1 -68.7002s202 24.2998 278.1 68.7002c7.60059 4.39941 17.1006 2.2998 21.8008 -5.10059zM145.6 139c4.10059 11.2998 -2.7998 24.2002 -15.1992 28.7002c-12.4004 4.5 -25.9004 -1 -30 -12.2998
c-4.7002 -13.2002 -3.60059 -45.4004 2.69922 -62.9004c16.1006 9.40039 37.7002 33.4004 42.5 46.5zM320 64c11.9004 14.2998 24 44.2002 24 58.2002c0 12 -10.7002 21.7998 -24 21.7998s-24 -9.7002 -24 -21.7998c0 -14 12.0996 -43.9004 24 -58.2002zM509.5 167.7
c-12.4004 -4.5 -19.2002 -17.4004 -15.2002 -28.7002c4.7998 -13.2002 26.4004 -37.2002 42.5 -46.5c6.40039 17.5 7.5 49.7998 2.7002 62.9004c-4.09961 11.2998 -17.5 16.7998 -30 12.2998z" />
    <glyph glyph-name="mug-marshmallows" unicode="&#xf7b7;" horiz-adv-x="512" 
d="M178.5 380.8c-16.5996 -16.5 -21.9004 -40 -16.4004 -61.0996h-130.1v63.8994c0 17.7002 14.2998 32 32 32h112.3c10.1006 0 18.7002 -5.09961 24.6006 -12.3994zM196.7 319.6c-7.2002 12.3008 -6.10059 28.1006 4.2998 38.6006l48.5 48.3994
c12.5 12.5 32.7998 12.5 45.2998 0l48.5 -48.3994c10.5 -10.5 11.6006 -26.2998 4.40039 -38.6006h-151zM400 287.7c61.7998 0 112 -50.2002 112 -111.9s-50.2002 -111.899 -112 -111.899h-16c0 -53 -43 -95.9004 -96 -95.9004h-192c-53 0 -96 42.9004 -96 95.9004v191.8
c0 17.7002 14.2998 32 32 32h64v-63.5c0 -17.7002 14.2998 -32 32 -32s32 14.2998 32 32v63.5h240zM400 127.8c26.5 0 48 21.6006 48 48c0 26.4004 -21.5 47.9004 -48 47.9004h-16v-95.9004h16z" />
    <glyph glyph-name="books-medical" unicode="&#xf7e8;" 
d="M128 320c70.6455 0 128 -57.3545 128 -128s-57.3545 -128 -128 -128s-128 57.3545 -128 128s57.3545 128 128 128zM192 176v32c0 2.94141 -2.38867 5.33008 -5.33008 5.33008h-37.3398v37.3398c0 2.94141 -2.38867 5.33008 -5.33008 5.33008h-32
c-2.94141 0 -5.33008 -2.38867 -5.33008 -5.33008v-37.3398h-37.3398c-2.94141 0 -5.33008 -2.38867 -5.33008 -5.33008v-32c0 -2.94141 2.38867 -5.33008 5.33008 -5.33008h37.3398v-37.3398c0 -2.94141 2.38867 -5.33008 5.33008 -5.33008h32
c2.94141 0 5.33008 2.38867 5.33008 5.33008v37.3398h37.3398c2.94141 0 5.33008 2.38867 5.33008 5.33008zM64 -32v64h128v-64c0 -17.6611 -14.3389 -32 -32 -32h-64c-17.6611 0 -32 14.3389 -32 32zM192 416v-64h-128v64c0 17.6611 14.3389 32 32 32h64
c17.6611 0 32 -14.3389 32 -32zM639.11 4.75c3.31934 -12.3604 -2.64062 -27.21 -18.1104 -31.3496l-15.4902 -4.10059c-6.16016 -1.66699 -13.1602 -0.233398 -21 4.2998c-15.8193 -1.01953 -54.0898 -11.3398 -68 -18.2197
c-4.52637 -7.83301 -9.87988 -12.5801 -16.0596 -14.2402l-15.4502 -4.13965c-15.4404 -4.17969 -28 5.7002 -31.3398 18.0596l-101.66 396.94h-128v64c0 17.6611 14.3389 32 32 32h64c17.6611 0 32 -14.3389 32 -32v-8.48047
c1.9502 1.08008 3.73047 2.43066 6.15039 3.08008l15.4893 4.14062c6.16016 1.66699 13.1602 0.233398 21 -4.2998c15.7002 1.00977 54 11.2793 68 18.2197c4.52637 7.83301 9.87988 12.5801 16.0605 14.2402l15.4502 4.09961
c15.46 4.17969 28.0498 -5.7002 31.3594 -18.0596zM504.71 11.8096l61.8203 16.5605l-92.0703 343.82l-61.8203 -16.5605zM224 319.19v0.80957h128v-256h-128v0.80957c38.6201 29.1904 64 75.1201 64 127.19s-25.3799 97.9502 -64 127.19zM224 -32v64h128v-64
c0 -17.6611 -14.3389 -32 -32 -32h-64c-17.6611 0 -32 14.3389 -32 32z" />
    <glyph glyph-name="mailbox" unicode="&#xf813;" horiz-adv-x="576" 
d="M144 384c79.4756 0 144 -64.5244 144 -144v-240h-256c-17.6611 0 -32 14.3389 -32 32v208c0 79.4756 64.5244 144 144 144zM224 208v32c0 8.83105 -7.16895 16 -16 16h-128c-8.83105 0 -16 -7.16895 -16 -16v-32c0 -8.83105 7.16895 -16 16 -16h128
c8.83105 0 16 7.16895 16 16zM432 384c79.4756 0 144 -64.5244 144 -144v-208c0 -17.6611 -14.3389 -32 -32 -32h-224v240c0 59.5195 -29.7695 112.13 -75.1299 144h187.13zM512 176v64c0 8.83105 -7.16895 16 -16 16h-104c-4.41504 0 -8 -3.58496 -8 -8v-16
c0 -4.41504 3.58496 -8 8 -8h56v-48c0 -8.83105 7.16895 -16 16 -16h32c8.83105 0 16 7.16895 16 16z" />
    <glyph glyph-name="drone" unicode="&#xf85f;" horiz-adv-x="512" 
d="M112 224c-61.8145 0 -112 50.1855 -112 112s50.1855 112 112 112s112 -50.1855 112 -112c-0.146484 -5.54785 -0.702148 -10.9443 -1.63965 -16.2598l-49.7705 35.9297c-8.24316 25.707 -32.3467 44.3467 -60.7764 44.3467
c-35.2236 0 -63.8203 -28.5967 -63.8203 -63.8203c0 -28.4297 18.6299 -52.543 44.3369 -60.7861l35.9297 -49.7705c-5.31543 -0.9375 -10.7119 -1.49316 -16.2598 -1.63965zM339.41 355.67l-49.7705 -35.9297c-0.9375 5.31543 -1.49316 10.7119 -1.63965 16.2598
c0 61.8145 50.1855 112 112 112s112 -50.1855 112 -112s-50.1855 -112 -112 -112c-5.54785 0.146484 -10.9443 0.702148 -16.2598 1.63965l35.9297 49.7705c25.707 8.24316 44.3467 32.3467 44.3467 60.7764c0 35.2236 -28.5967 63.8203 -63.8203 63.8203
c-28.4297 0 -52.543 -18.6299 -60.7861 -44.3369zM172.59 28.3301l49.7705 35.9297c0.9375 -5.31543 1.49316 -10.7119 1.63965 -16.2598c0 -61.8145 -50.1855 -112 -112 -112s-112 50.1855 -112 112s50.1855 112 112 112
c5.54785 -0.146484 10.9443 -0.702148 16.2598 -1.63965l-35.9297 -49.7705c-25.707 -8.24316 -44.3467 -32.3467 -44.3467 -60.7764c0 -35.2236 28.5967 -63.8203 63.8203 -63.8203c28.4297 0 52.543 18.6299 60.7861 44.3369zM400 160c61.8145 0 112 -50.1855 112 -112
s-50.1855 -112 -112 -112s-112 50.1855 -112 112c0.146484 5.54785 0.702148 10.9443 1.63965 16.2598l49.7705 -35.9199c8.24023 -25.7129 32.3467 -44.3574 60.7803 -44.3574c35.2227 0 63.8193 28.5967 63.8193 63.8203c0 28.4307 -18.6309 52.5449 -44.3398 60.7871
l-35.9297 49.7705c5.31543 0.9375 10.7119 1.49316 16.2598 1.63965zM401 304.2l-49 -67.8604v-88.6797l49 -67.8604c17.1875 -0.486328 31.0068 -14.5771 31.0068 -31.8818c0 -17.6113 -14.2979 -31.9102 -31.9102 -31.9102c-17.3047 0 -31.4102 13.8047 -31.8965 30.9922
l-67.8604 49h-88.6797l-67.8604 -49c-0.486328 -17.1875 -14.5771 -31.0068 -31.8818 -31.0068c-17.6113 0 -31.9102 14.2979 -31.9102 31.9102c0 17.3047 13.8047 31.4102 30.9922 31.8965l49 67.8604v88.6797l-49 67.8604
c-17.1875 0.486328 -31.0068 14.5771 -31.0068 31.8818c0 17.6113 14.2979 31.9102 31.9102 31.9102c17.3047 0 31.4102 -13.8047 31.8965 -30.9922l67.8604 -49h88.6797l67.8604 49c0.486328 17.1875 14.5771 31.0068 31.8818 31.0068
c17.6113 0 31.9102 -14.2979 31.9102 -31.9102c0 -17.3047 -13.8047 -31.4102 -30.9922 -31.8965z" />
    <glyph glyph-name="fan" unicode="&#xf863;" horiz-adv-x="512" 
d="M352.57 320c81.79 0 149.3 -61.6299 159.3 -141.33c1.30957 -10.4795 -7.17969 -19.6396 -17.6201 -18.5898l-123.11 12.4102c8.34082 -22.9707 12.8604 -48.9707 12.8604 -77.0605c0 -81.79 -61.6299 -149.3 -141.33 -159.3
c-10.4795 -1.30957 -19.6396 7.19043 -18.5898 17.6201l12.4102 123.11c-22.9707 -8.34082 -48.9707 -12.8604 -77.0605 -12.8604c-81.79 0 -149.3 61.6299 -159.3 141.33c-1.30957 10.4795 7.17969 19.6699 17.6201 18.5898l123.11 -12.4102
c-8.34082 22.9707 -12.8604 48.9707 -12.8604 77.0605c0 81.79 61.6299 149.3 141.33 159.3c10.4795 1.30957 19.6699 -7.17969 18.5898 -17.6201l-12.4102 -123.11c22.9707 8.34082 48.9707 12.8604 77.0605 12.8604zM256 160c17.6611 0 32 14.3389 32 32
s-14.3389 32 -32 32s-32 -14.3389 -32 -32s14.3389 -32 32 -32z" />
    <glyph glyph-name="phone-square-alt" unicode="&#xf87b;" horiz-adv-x="448" 
d="M400 416c26.4922 0 48 -21.5078 48 -48v-352c0 -26.4922 -21.5078 -48 -48 -48h-352c-26.4922 0 -48 21.5078 -48 48v352c0 26.4922 21.5078 48 48 48h352zM383.61 108.63c0.235352 1.09082 0.369141 2.21387 0.389648 3.37012
c-0.301758 6.06445 -3.91992 11.2607 -9.08984 13.79l-70 30c-1.83594 0.71582 -3.83789 1.14355 -5.91016 1.20996c-4.58496 -0.251953 -8.69922 -2.31836 -11.6104 -5.5l-31 -37.8896c-48.7002 22.9775 -87.8018 62.0791 -110.779 110.779l37.8896 31
c3.18164 2.91113 5.24805 7.02539 5.5 11.6104c-0.0673828 2.07129 -0.495117 4.07324 -1.20996 5.91016l-30 70c-2.53223 5.16797 -7.72754 8.78418 -13.79 9.08984c-1.15527 -0.0253906 -2.27734 -0.15918 -3.37012 -0.389648l-65 -15
c-6.52246 -1.74707 -11.3818 -7.59961 -11.6299 -14.6104c0 -160.29 130 -290 290 -290c7.11426 0.00292969 13.0762 4.97852 14.6104 11.6299z" />
    <glyph glyph-name="border-center-h" unicode="&#xf89c;" horiz-adv-x="448" 
d="M208 -32c-8.83105 0 -16 7.16895 -16 16v32c0 8.83105 7.16895 16 16 16h32c8.83105 0 16 -7.16895 16 -16v-32c0 -8.83105 -7.16895 -16 -16 -16h-32zM304 -32c-8.83105 0 -16 7.16895 -16 16v32c0 8.83105 7.16895 16 16 16h32c8.83105 0 16 -7.16895 16 -16v-32
c0 -8.83105 -7.16895 -16 -16 -16h-32zM432 32c8.83105 0 16 -7.16895 16 -16v-32c0 -8.83105 -7.16895 -16 -16 -16h-32c-8.83105 0 -16 7.16895 -16 16v32c0 8.83105 7.16895 16 16 16h32zM112 -32c-8.83105 0 -16 7.16895 -16 16v32c0 8.83105 7.16895 16 16 16h32
c8.83105 0 16 -7.16895 16 -16v-32c0 -8.83105 -7.16895 -16 -16 -16h-32zM432 128c8.83105 0 16 -7.16895 16 -16v-32c0 -8.83105 -7.16895 -16 -16 -16h-32c-8.83105 0 -16 7.16895 -16 16v32c0 8.83105 7.16895 16 16 16h32zM432 320c8.83105 0 16 -7.16895 16 -16v-32
c0 -8.83105 -7.16895 -16 -16 -16h-32c-8.83105 0 -16 7.16895 -16 16v32c0 8.83105 7.16895 16 16 16h32zM208 64c-8.83105 0 -16 7.16895 -16 16v32c0 8.83105 7.16895 16 16 16h32c8.83105 0 16 -7.16895 16 -16v-32c0 -8.83105 -7.16895 -16 -16 -16h-32zM208 256
c-8.83105 0 -16 7.16895 -16 16v32c0 8.83105 7.16895 16 16 16h32c8.83105 0 16 -7.16895 16 -16v-32c0 -8.83105 -7.16895 -16 -16 -16h-32zM208 352c-8.83105 0 -16 7.16895 -16 16v32c0 8.83105 7.16895 16 16 16h32c8.83105 0 16 -7.16895 16 -16v-32
c0 -8.83105 -7.16895 -16 -16 -16h-32zM304 352c-8.83105 0 -16 7.16895 -16 16v32c0 8.83105 7.16895 16 16 16h32c8.83105 0 16 -7.16895 16 -16v-32c0 -8.83105 -7.16895 -16 -16 -16h-32zM432 416c8.83105 0 16 -7.16895 16 -16v-32c0 -8.83105 -7.16895 -16 -16 -16
h-32c-8.83105 0 -16 7.16895 -16 16v32c0 8.83105 7.16895 16 16 16h32zM16 -32c-8.83105 0 -16 7.16895 -16 16v32c0 8.83105 7.16895 16 16 16h32c8.83105 0 16 -7.16895 16 -16v-32c0 -8.83105 -7.16895 -16 -16 -16h-32zM16 64c-8.83105 0 -16 7.16895 -16 16v32
c0 8.83105 7.16895 16 16 16h32c8.83105 0 16 -7.16895 16 -16v-32c0 -8.83105 -7.16895 -16 -16 -16h-32zM16 256c-8.83105 0 -16 7.16895 -16 16v32c0 8.83105 7.16895 16 16 16h32c8.83105 0 16 -7.16895 16 -16v-32c0 -8.83105 -7.16895 -16 -16 -16h-32zM16 352
c-8.83105 0 -16 7.16895 -16 16v32c0 8.83105 7.16895 16 16 16h32c8.83105 0 16 -7.16895 16 -16v-32c0 -8.83105 -7.16895 -16 -16 -16h-32zM112 352c-8.83105 0 -16 7.16895 -16 16v32c0 8.83105 7.16895 16 16 16h32c8.83105 0 16 -7.16895 16 -16v-32
c0 -8.83105 -7.16895 -16 -16 -16h-32zM432 224c8.83105 0 16 -7.16895 16 -16v-32c0 -8.83105 -7.16895 -16 -16 -16h-416c-8.83105 0 -16 7.16895 -16 16v32c0 8.83105 7.16895 16 16 16h416z" />
    <glyph glyph-name="border-center-v" unicode="&#xf89d;" horiz-adv-x="448" 
d="M448 176c0 -8.83105 -7.16895 -16 -16 -16h-32c-8.83105 0 -16 7.16895 -16 16v32c0 8.83105 7.16895 16 16 16h32c8.83105 0 16 -7.16895 16 -16v-32zM448 272c0 -8.83105 -7.16895 -16 -16 -16h-32c-8.83105 0 -16 7.16895 -16 16v32c0 8.83105 7.16895 16 16 16h32
c8.83105 0 16 -7.16895 16 -16v-32zM384 400c0 8.83105 7.16895 16 16 16h32c8.83105 0 16 -7.16895 16 -16v-32c0 -8.83105 -7.16895 -16 -16 -16h-32c-8.83105 0 -16 7.16895 -16 16v32zM448 80c0 -8.83105 -7.16895 -16 -16 -16h-32c-8.83105 0 -16 7.16895 -16 16v32
c0 8.83105 7.16895 16 16 16h32c8.83105 0 16 -7.16895 16 -16v-32zM288 400c0 8.83105 7.16895 16 16 16h32c8.83105 0 16 -7.16895 16 -16v-32c0 -8.83105 -7.16895 -16 -16 -16h-32c-8.83105 0 -16 7.16895 -16 16v32zM96 400c0 8.83105 7.16895 16 16 16h32
c8.83105 0 16 -7.16895 16 -16v-32c0 -8.83105 -7.16895 -16 -16 -16h-32c-8.83105 0 -16 7.16895 -16 16v32zM352 176c0 -8.83105 -7.16895 -16 -16 -16h-32c-8.83105 0 -16 7.16895 -16 16v32c0 8.83105 7.16895 16 16 16h32c8.83105 0 16 -7.16895 16 -16v-32zM160 176
c0 -8.83105 -7.16895 -16 -16 -16h-32c-8.83105 0 -16 7.16895 -16 16v32c0 8.83105 7.16895 16 16 16h32c8.83105 0 16 -7.16895 16 -16v-32zM64 176c0 -8.83105 -7.16895 -16 -16 -16h-32c-8.83105 0 -16 7.16895 -16 16v32c0 8.83105 7.16895 16 16 16h32
c8.83105 0 16 -7.16895 16 -16v-32zM64 272c0 -8.83105 -7.16895 -16 -16 -16h-32c-8.83105 0 -16 7.16895 -16 16v32c0 8.83105 7.16895 16 16 16h32c8.83105 0 16 -7.16895 16 -16v-32zM0 400c0 8.83105 7.16895 16 16 16h32c8.83105 0 16 -7.16895 16 -16v-32
c0 -8.83105 -7.16895 -16 -16 -16h-32c-8.83105 0 -16 7.16895 -16 16v32zM448 -16c0 -8.83105 -7.16895 -16 -16 -16h-32c-8.83105 0 -16 7.16895 -16 16v32c0 8.83105 7.16895 16 16 16h32c8.83105 0 16 -7.16895 16 -16v-32zM352 -16c0 -8.83105 -7.16895 -16 -16 -16
h-32c-8.83105 0 -16 7.16895 -16 16v32c0 8.83105 7.16895 16 16 16h32c8.83105 0 16 -7.16895 16 -16v-32zM160 -16c0 -8.83105 -7.16895 -16 -16 -16h-32c-8.83105 0 -16 7.16895 -16 16v32c0 8.83105 7.16895 16 16 16h32c8.83105 0 16 -7.16895 16 -16v-32zM64 -16
c0 -8.83105 -7.16895 -16 -16 -16h-32c-8.83105 0 -16 7.16895 -16 16v32c0 8.83105 7.16895 16 16 16h32c8.83105 0 16 -7.16895 16 -16v-32zM64 80c0 -8.83105 -7.16895 -16 -16 -16h-32c-8.83105 0 -16 7.16895 -16 16v32c0 8.83105 7.16895 16 16 16h32
c8.83105 0 16 -7.16895 16 -16v-32zM192 400c0 8.83105 7.16895 16 16 16h32c8.83105 0 16 -7.16895 16 -16v-416c0 -8.83105 -7.16895 -16 -16 -16h-32c-8.83105 0 -16 7.16895 -16 16v416z" />
  </font>
</defs>
</svg>
