<?xml version="1.0" standalone="no"?>
<!DOCTYPE svg PUBLIC "-//W3C//DTD SVG 1.1//EN" "http://www.w3.org/Graphics/SVG/1.1/DTD/svg11.dtd" >
<svg xmlns="http://www.w3.org/2000/svg" xmlns:xlink="http://www.w3.org/1999/xlink" version="1.1">
<metadata>
Created by FontForge 20200314 at Wed Jan 13 11:59:58 2021
 By Robert Madole
Copyright (c) Font Awesome
</metadata>
<!-- Font Awesome Pro 5.15.2 by @fontawesome - https://fontawesome.com License - https://fontawesome.com/license (Commercial License) --><defs>
<font id="FontAwesome5Duotone-Solid" horiz-adv-x="512" >
  <font-face 
    font-family="Font Awesome 5 Duotone Solid"
    font-weight="900"
    font-stretch="normal"
    units-per-em="512"
    panose-1="2 0 5 3 0 0 0 0 0 0"
    ascent="448"
    descent="-64"
    bbox="-1.40625 -67 672 449"
    underline-thickness="25"
    underline-position="-50"
    unicode-range="U+0020-10F8FF"
  />
    <missing-glyph />
    <glyph glyph-name="music-primary" unicode="&#xf001;" 
d="M128 321.49c0.00878906 14.3125 9.43359 26.4336 22.4102 30.5098l41.5898 12.2803v-364.28c0 -35.3398 -43 -64 -96 -64s-96 28.6602 -96 64s43 64 96 64c11.0352 -0.0625 21.7139 -1.42285 32 -3.91992v261.41zM470.38 446.49
c3.03613 0.957031 6.26953 1.47949 9.62012 1.47949c17.6514 0 31.9834 -14.3223 32 -31.9697v-352c0 -35.3496 -43 -64 -96 -64s-96 28.6602 -96 64s43 64 96 64c11.0361 -0.0605469 21.7158 -1.4248 32 -3.92969v315.81z" />
    <glyph glyph-name="print-primary" unicode="&#xf02f;" 
d="M368 352c-8.83105 0 -16 7.16895 -16 16v80h4.57031c0.0146484 0 0.03125 0.00195312 0.046875 0.00195312c4.95508 0 9.44629 -2.00684 12.7031 -5.25195l73.4297 -73.5c3.24414 -3.24316 5.24902 -7.72559 5.25 -12.6699v-4.58008h-80zM448 256
c35.3223 0 64 -28.6777 64 -64v-112c0 -8.83105 -7.16895 -16 -16 -16h-480c-8.83105 0 -16 7.16895 -16 16v112c0 35.3223 28.6777 64 64 64v-32h384v32zM432 120c13.2461 0 24 10.7539 24 24s-10.7539 24 -24 24s-24 -10.7539 -24 -24s10.7539 -24 24 -24z" />
    <glyph glyph-name="adjust-primary" unicode="&#xf042;" 
d="M256 440v-496c-137 0 -248 111 -248 248s111 248 248 248z" />
    <glyph glyph-name="external-link-primary" unicode="&#xf08e;" 
d="M484 224h-17.8799c-15.4541 0 -28 12.5459 -28 28v0.780273l1.87988 67.2197l-247.09 -248.91c-4.34668 -4.36133 -10.3594 -7.0625 -16.9971 -7.0625c-6.5918 0 -12.5742 2.66406 -16.9131 6.97266l-0.0595703 0.0595703l-23.9404 23.8506
c-4.34375 4.34375 -7.03223 10.3438 -7.03223 16.9668c0 6.62207 2.68848 12.6289 7.03223 16.9727l0.0595703 0.0605469l248.94 247.09l-67.21 -1.90039c-0.270508 -0.0078125 -0.541992 -0.0117188 -0.813477 -0.0117188c-15.1924 0 -27.5625 12.1396 -27.9766 27.2324
v18.6797c0 15.4541 12.5459 28 28 28h158.67c20.6035 0 37.3301 -16.7266 37.3301 -37.3301v-158.67c0 -15.4541 -12.5459 -28 -28 -28z" />
    <glyph glyph-name="trophy-primary" unicode="&#xf091;" horiz-adv-x="576" 
d="M552 384h0.120117c13.1846 -0.0332031 23.8799 -10.7461 23.8799 -23.9385v-0.0615234v-56c0 -35.7002 -22.5996 -72.4004 -61.9004 -100.7c-31.3994 -22.7002 -69.6992 -37.0996 -110 -41.7002c-31.3994 -52.0996 -68.0996 -73.5996 -68.0996 -73.5996v-72h-96v72
s-36.7002 21.5 -68.0996 73.5996c-40.2002 4.60059 -78.5 19 -110 41.7002c-39.4004 28.2998 -61.9004 65 -61.9004 100.7v56.1201c0.0332031 13.1846 10.7461 23.8799 23.9385 23.8799h0.0615234h104v40.1201c0.0332031 13.1846 10.7461 23.8799 23.9385 23.8799h0.0615234
h272.12c13.1846 -0.0332031 23.8799 -10.7461 23.8799 -23.9385v-0.0615234v-40h104zM99.2998 255.2c12.6279 -9.02148 26.7266 -16.3047 41.7002 -21.4004c-7.59277 27.5322 -12.0342 56.4512 -12.7998 86.2002h-64.2002v-16c0 -11.5996 10.9004 -31.2002 35.2998 -48.7998
zM512 304v16h-64.2998c-0.766602 -29.749 -5.20801 -58.668 -12.7998 -86.2002c15.0029 5.09668 29.1357 12.3799 41.7998 21.4004c17.5996 12.7002 35.2998 32.7002 35.2998 48.7998z" />
    <glyph glyph-name="bell-primary" unicode="&#xf0f3;" horiz-adv-x="448" 
d="M160 0h128c0 -35.3223 -28.6777 -64 -64 -64s-64 28.6777 -64 64z" />
    <glyph glyph-name="angle-left-primary" unicode="&#xf104;" horiz-adv-x="256" 
d="M167.81 345.13c4.29395 4.23535 10.2256 6.87402 16.7275 6.87402c6.62012 0 12.6113 -2.71191 16.9229 -7.08398l22.54 -22.7402c4.33301 -4.33008 7.01562 -10.3193 7.01562 -16.9229c0 -6.60449 -2.68262 -12.5869 -7.01562 -16.917l-152.61 -152.85l-39.3896 39.5098
l-0.0595703 0.0703125c-4.29102 4.33691 -6.94336 10.3057 -6.94336 16.8828c0 6.66309 2.72168 12.6963 7.11328 17.0469l135.529 135.95z" />
    <glyph glyph-name="angle-right-primary" unicode="&#xf105;" horiz-adv-x="256" 
d="M54.5801 344.93c4.3125 4.36719 10.3076 7.10352 16.9238 7.10352c6.50391 0 12.4014 -2.61621 16.6963 -6.85352l0.169922 -0.179688l135.53 -136c4.39062 -4.35059 7.11133 -10.3906 7.11133 -17.0537c0 -6.58203 -2.65527 -12.5488 -6.95215 -16.8867
l-0.0595703 -0.0595703l-39.3896 -39.5l-152.61 152.85c-4.33301 4.33105 -7.01562 10.3193 -7.01562 16.9238c0 6.60352 2.68262 12.5859 7.01562 16.917z" />
    <glyph glyph-name="gamepad-primary" unicode="&#xf11b;" horiz-adv-x="640" 
d="M248 180c0 -6.62305 -5.37695 -12 -12 -12h-52v-52c0 -6.62305 -5.37695 -12 -12 -12h-24c-6.62305 0 -12 5.37695 -12 12v52h-52c-6.62305 0 -12 5.37695 -12 12v24c0 6.62305 5.37695 12 12 12h52v52c0 6.62305 5.37695 12 12 12h24c6.62305 0 12 -5.37695 12 -12v-52
h52c6.62305 0 12 -5.37695 12 -12v-24z" />
    <glyph glyph-name="anchor-primary" unicode="&#xf13d;" horiz-adv-x="576" 
d="M564 96h-32.5098c-21.8604 -102.62 -136.88 -160 -243.49 -160c-106.41 0 -221.58 57.2695 -243.46 160h-32.54h-0.0302734c-6.62305 0 -12 5.37695 -12 12c0 3.31348 1.3457 6.31738 3.52051 8.49023l67.2598 67c2.18164 2.16406 5.18457 3.50195 8.49805 3.50195
s6.32031 -1.33789 8.50195 -3.50195l67.2598 -67c2.1748 -2.17285 3.52148 -5.1748 3.52148 -8.48828c0 -6.61621 -5.36816 -11.9902 -11.9814 -12.002h-35.2598c20.3701 -54.3398 85.4697 -86.6201 144.61 -94v158h64.2197v-158c59.3604 7.42969 124.26 39.7002 144.62 94
h-35.2598c-6.62305 0 -12 5.37695 -12 12c0 3.31348 1.34473 6.31738 3.51953 8.49023l67.2598 67c2.18262 2.16406 5.18555 3.50195 8.49805 3.50195c3.31348 0 6.32031 -1.33789 8.50195 -3.50195l67.2598 -67c2.17578 -2.17285 3.52148 -5.1748 3.52148 -8.48828
c0 -6.62305 -5.37695 -12 -12 -12c-0.0136719 0 -0.0273438 -0.00195312 -0.0410156 -0.00195312z" />
    <glyph glyph-name="level-down-primary" unicode="&#xf149;" horiz-adv-x="352" 
d="M345 80.7197l-135.91 -137.59l-0.0898438 -0.129883c-4.35449 -4.32812 -10.3525 -7.00391 -16.9717 -7.00391c-6.61816 0 -12.624 2.67578 -16.9785 7.00391l-0.139648 0.139648l-135.91 137.58c-4.30957 4.37402 -6.9707 10.377 -6.9707 16.9961
s2.66113 12.6309 6.9707 17.0039l22 22.1699c4.33203 4.35938 10.332 7.06055 16.957 7.06055c6.56934 0 12.5293 -2.65625 16.8525 -6.9502l0.130859 -0.129883c0.209961 -0.209961 0.419922 -0.429688 0.619141 -0.650391l96.4404 -104.14l96.4502 104.21
c0.200195 0.219727 0.410156 0.44043 0.620117 0.650391c4.33398 4.36523 10.3398 7.07031 16.9717 7.07031c6.56543 0 12.5234 -2.65137 16.8477 -6.94043l0.120117 -0.129883l22 -22.1709c4.31055 -4.37305 6.97168 -10.376 6.97168 -16.9951
s-2.66113 -12.6309 -6.97168 -17.0049z" />
    <glyph glyph-name="fax-primary" unicode="&#xf1ac;" 
d="M64 320c17.6611 0 32 -14.3389 32 -32v-320c0 -17.6611 -14.3389 -32 -32 -32h-32c-17.6611 0 -32 14.3389 -32 32v320c0 17.6611 14.3389 32 32 32h32zM480 256c17.6611 0 32 -14.3389 32 -32v-256c0 -17.6611 -14.3389 -32 -32 -32h-320c-17.6611 0 -32 14.3389 -32 32
v288h352zM288 16v32c0 8.83105 -7.16895 16 -16 16h-32c-8.83105 0 -16 -7.16895 -16 -16v-32c0 -8.83105 7.16895 -16 16 -16h32c8.83105 0 16 7.16895 16 16zM288 144v32c0 8.83105 -7.16895 16 -16 16h-32c-8.83105 0 -16 -7.16895 -16 -16v-32
c0 -8.83105 7.16895 -16 16 -16h32c8.83105 0 16 7.16895 16 16zM416 16v32c0 8.83105 -7.16895 16 -16 16h-32c-8.83105 0 -16 -7.16895 -16 -16v-32c0 -8.83105 7.16895 -16 16 -16h32c8.83105 0 16 7.16895 16 16zM416 144v32c0 8.83105 -7.16895 16 -16 16h-32
c-8.83105 0 -16 -7.16895 -16 -16v-32c0 -8.83105 7.16895 -16 16 -16h32c8.83105 0 16 7.16895 16 16zM400 352c-8.83105 0 -16 7.16895 -16 16v80h4.57031c0.0146484 0 0.03125 0.00195312 0.046875 0.00195312c4.95508 0 9.44629 -2.00684 12.7031 -5.25195
l73.4297 -73.5c3.24414 -3.24316 5.24902 -7.72559 5.25 -12.6699v-4.58008h-80z" />
    <glyph glyph-name="calculator-primary" unicode="&#xf1ec;" horiz-adv-x="448" 
d="M400 448c25.5996 0 48 -22.4004 48 -48v-416c0 -25.5996 -22.4004 -48 -48 -48h-352c-25.5996 0 -48 22.4004 -48 48v416c0 25.5996 22.4004 48 48 48h352zM128 12.7998v38.4004c0 6.39941 -6.40039 12.7998 -12.7998 12.7998h-38.4004
c-6.39941 0 -12.7998 -6.40039 -12.7998 -12.7998v-38.4004c0 -6.39941 6.40039 -12.7998 12.7998 -12.7998h38.4004c6.39941 0 12.7998 6.40039 12.7998 12.7998zM128 140.8v38.4004c0 6.39941 -6.40039 12.7998 -12.7998 12.7998h-38.4004
c-6.39941 0 -12.7998 -6.40039 -12.7998 -12.7998v-38.4004c0 -6.39941 6.40039 -12.7998 12.7998 -12.7998h38.4004c6.39941 0 12.7998 6.40039 12.7998 12.7998zM256 12.7998v38.4004c0 6.39941 -6.40039 12.7998 -12.7998 12.7998h-38.4004
c-6.39941 0 -12.7998 -6.40039 -12.7998 -12.7998v-38.4004c0 -6.39941 6.40039 -12.7998 12.7998 -12.7998h38.4004c6.39941 0 12.7998 6.40039 12.7998 12.7998zM256 140.8v38.4004c0 6.39941 -6.40039 12.7998 -12.7998 12.7998h-38.4004
c-6.39941 0 -12.7998 -6.40039 -12.7998 -12.7998v-38.4004c0 -6.39941 6.40039 -12.7998 12.7998 -12.7998h38.4004c6.39941 0 12.7998 6.40039 12.7998 12.7998zM384 12.7998v166.4c0 6.39941 -6.40039 12.7998 -12.7998 12.7998h-38.4004
c-6.39941 0 -12.7998 -6.40039 -12.7998 -12.7998v-166.4c0 -6.39941 6.40039 -12.7998 12.7998 -12.7998h38.4004c6.39941 0 12.7998 6.40039 12.7998 12.7998zM384 268.8v102.4c0 6.39941 -6.40039 12.7998 -12.7998 12.7998h-294.4
c-6.39941 0 -12.7998 -6.40039 -12.7998 -12.7998v-102.4c0 -6.39941 6.40039 -12.7998 12.7998 -12.7998h294.4c6.39941 0 12.7998 6.40039 12.7998 12.7998z" />
    <glyph glyph-name="mercury-primary" unicode="&#xf223;" horiz-adv-x="288" 
d="M287 240c0 -68.4482 -47.9463 -125.801 -112 -140.4v-51.5996h36c6.62305 0 12 -5.37695 12 -12v-40c0 -6.62305 -5.37695 -12 -12 -12h-36v-36c0 -6.62305 -5.37695 -12 -12 -12h-40c-6.62305 0 -12 5.37695 -12 12v36h-36c-6.62305 0 -12 5.37695 -12 12v40
c0 6.62305 5.37695 12 12 12h36v51.5996c-64.0557 14.5547 -112.101 71.8496 -112.101 140.284c0 44.166 19.9395 83.7109 51.3008 110.116c-2.5 1.90039 -4.90039 3.7998 -7.2002 5.7998c-24.7695 21.2002 -39.7695 48.7998 -43.1797 78.9004
c-0.0605469 0.506836 -0.0898438 1.00879 -0.0898438 1.53125v0.00878906c0.0644531 6.50098 5.36035 11.7607 11.877 11.7607c0.0410156 0 0.0820312 -0.000976562 0.123047 -0.000976562h40.5c5.81055 -0.0615234 10.6387 -4.27148 11.6699 -9.7998
c2.5 -12.5 9.59961 -24.2998 20.6992 -33.7998c15.4004 -13.2002 36.0801 -20.4004 58.4004 -20.4004s43 7.2002 58.3096 20.4004c11.0908 9.5 18.29 21.2998 20.6904 33.7998c1.03809 5.56836 5.92871 9.7998 11.7959 9.7998h0.0136719h40.5
c0.0302734 0 0.0458984 0.000976562 0.0761719 0.000976562c0.488281 0 0.969727 -0.0273438 1.44434 -0.0810547c5.88086 -0.714844 10.4551 -5.71875 10.4551 -11.791c0 -0.483398 -0.0292969 -0.959961 -0.0849609 -1.42871
c-3.40039 -30 -18.5 -57.6006 -43.2002 -78.7998c-2.2998 -2 -4.7002 -4 -7.2002 -5.80078c31.3486 -26.3574 51.2002 -65.8164 51.2002 -109.938v-0.161133zM143 160c44.1533 0 80 35.8467 80 80s-35.8467 80 -80 80s-80 -35.8467 -80 -80s35.8467 -80 80 -80z" />
    <glyph glyph-name="transgender-alt-primary" unicode="&#xf225;" horiz-adv-x="480" 
d="M467 449c6.62305 0 12 -5.37695 12 -12v-79c0 -0.00976562 -0.00195312 -0.0214844 -0.00195312 -0.03125c0 -6.62305 -5.37695 -12 -12 -12c-3.31836 0 -6.3252 1.35059 -8.49805 3.53125l-16.9004 16.9004l-80.6992 -80.7002
c13.957 -22.1797 22.0371 -48.5713 22.0371 -76.6895c0 -68.4561 -47.8721 -125.82 -111.938 -140.411v-27.5996h36c6.62305 0 12 -5.37695 12 -12v-40c0 -6.62305 -5.37695 -12 -12 -12h-36v-28c0 -6.62305 -5.37695 -12 -12 -12h-40c-6.62305 0 -12 5.37695 -12 12v28h-36
c-6.62305 0 -12 5.37695 -12 12v40c0 6.62305 5.37695 12 12 12h36v27.5996c-64.0537 14.5996 -112 71.9521 -112 140.4c0 0.123047 0.0878906 0.388672 0.0878906 0.511719c0 27.9844 8.1123 54.0889 22.1123 76.0879l-16.5 16.5l-19.7998 -19.7998
c-2.17383 -2.18066 -5.18262 -3.53125 -8.50195 -3.53125s-6.3252 1.35059 -8.49805 3.53125l-28.3008 28.2998c-2.18066 2.17383 -3.53125 5.18262 -3.53125 8.50195s1.35059 6.3252 3.53125 8.49805l19.8008 19.8008l-19 19l-16.9004 -16.9004
c-2.17285 -2.18066 -5.18066 -3.53027 -8.5 -3.53027c-6.62305 0 -12 5.37695 -12 12v0.0302734v79c0 6.62305 5.37695 12 12 12h79c10.7002 0 16.0996 -12.9004 8.40039 -20.4004l-16.9004 -16.8994l19 -19l19.7998 19.7998
c2.17383 2.18066 5.18262 3.53125 8.50195 3.53125c3.31836 0 6.3252 -1.35059 8.49805 -3.53125l28.2998 -28.2998c2.18164 -2.17383 3.53125 -5.18262 3.53125 -8.50195c0 -3.31836 -1.34961 -6.3252 -3.53125 -8.49805l-19.7998 -19.7998l16.5 -16.5
c22.1865 13.9443 48.7363 22.0127 76.8525 22.0127c28.1152 0 54.3613 -8.06836 76.5479 -22.0127l80.7002 80.6992l-16.9004 16.9004c-2.18066 2.17285 -3.53027 5.18066 -3.53027 8.5c0 6.62305 5.37695 12 12 12h0.0302734h79zM239 129c44.1533 0 80 35.8467 80 80
s-35.8467 80 -80 80s-80 -35.8467 -80 -80s35.8467 -80 80 -80z" />
    <glyph glyph-name="mars-stroke-v-primary" unicode="&#xf22a;" horiz-adv-x="288" 
d="M284.38 128.55c17.6201 -77.79 -30.7998 -155.22 -108.38 -172.92s-154.76 31.0098 -172.38 108.811c-17.6201 77.7998 30.8994 155.22 108.479 172.979v25.4502h-20c-6.62305 0 -12 5.37695 -12 12v40.1299c0 6.62305 5.37695 12 12 12h20v24.7998h-24
c-0.0371094 0 -0.0751953 0.000976562 -0.113281 0.000976562c-6.62305 0 -12 5.37695 -12 12c0 3.36523 1.38867 6.40918 3.62402 8.58887l56 56.0908c2.17285 2.18066 5.18262 3.53125 8.50098 3.53125c3.31934 0 6.3252 -1.35059 8.49902 -3.53125l55.8896 -56
c2.22266 -2.17871 3.60254 -5.21582 3.60254 -8.57129c0 -6.62305 -5.37695 -12 -12 -12c-0.0341797 0 -0.0683594 0.000976562 -0.102539 0.000976562h-24v-24.9102h20c6.62305 0 12 -5.37695 12 -12v-40.1797c0 -6.62305 -5.37695 -12 -12 -12h-20v-25.4502
c26.9062 -6.11914 51.041 -19.8057 69.8203 -38.7402c18.8369 -18.9229 32.4521 -43.1328 38.5596 -70.0801zM200.58 39.7305c14.4668 14.5488 23.4121 34.6191 23.4121 56.7373s-8.94531 42.1631 -23.4121 56.7119l-0.0498047 0.0507812
c-14.4932 14.4297 -34.4727 23.334 -56.5205 23.334c-44.2188 0 -80.1201 -35.9004 -80.1201 -80.1201s35.9014 -80.1201 80.1201 -80.1201c22.0732 0 42.0732 8.94531 56.5703 23.4062z" />
    <glyph glyph-name="mars-stroke-h-primary" unicode="&#xf22b;" horiz-adv-x="480" 
d="M476.41 200.56c2.19434 -2.19336 3.55078 -5.22754 3.55078 -8.57227c0 -3.29883 -1.32031 -6.29102 -3.46094 -8.47754l-55.9502 -55.9297c-2.1748 -2.19336 -5.19043 -3.55078 -8.51953 -3.55078c-6.62305 0 -12 5.37695 -12 12v0.0605469v23.9102h-23.9307v-20
c0 -6.62305 -5.37695 -12 -12 -12h-40c-6.62305 0 -12 5.37695 -12 12v20h-27.6299c-14.5986 -64.0537 -71.957 -112.086 -140.405 -112.086c-79.4766 0 -144 64.5244 -144 144s64.5234 144 144 144c68.4482 0 125.807 -47.8604 140.405 -111.914h27.6904v20
c0 6.62305 5.37695 12 12 12h40c6.62305 0 12 -5.37695 12 -12v-20h23.7402v24c0 0.00976562 0.000976562 0.0214844 0.000976562 0.03125c0 6.62305 5.37695 12 12 12c3.32422 0 6.33496 -1.35449 8.50879 -3.54102zM200.54 135.42
c14.4785 14.4951 23.4365 34.5264 23.4365 56.6113s-8.95801 42.0938 -23.4365 56.5889c-14.4922 14.498 -34.5117 23.4482 -56.6113 23.4482c-44.1855 0 -80.0596 -35.873 -80.0596 -80.0596s35.874 -80.0596 80.0596 -80.0596c22.0996 0 42.1191 8.97266 56.6113 23.4707z
" />
    <glyph glyph-name="neuter-primary" unicode="&#xf22c;" horiz-adv-x="288" 
d="M284.37 304c2.35449 -10.3242 3.51855 -20.9766 3.51855 -32.0098c0 -68.4395 -47.8486 -125.792 -111.889 -140.4v-151.59c0 -6.62305 -5.37695 -12 -12 -12h-40c-6.62305 0 -12 5.37695 -12 12v151.59c-64.0674 14.5889 -112.035 71.8613 -112.035 140.32
c0 79.4756 64.5244 144 144 144c68.4473 0 125.805 -47.8594 140.405 -111.91zM144 192c44.1533 0 80 35.8467 80 80s-35.8467 80 -80 80s-80 -35.8467 -80 -80s35.8467 -80 80 -80z" />
    <glyph glyph-name="clone-primary" unicode="&#xf24d;" 
d="M512 400v-288c0 -26.4922 -21.5078 -48 -48 -48h-288c-26.4922 0 -48 21.5078 -48 48v288c0 26.4922 21.5078 48 48 48h288c26.4922 0 48 -21.5078 48 -48z" />
    <glyph glyph-name="tv-primary" unicode="&#xf26c;" horiz-adv-x="640" 
d="M576 96h-512v288h512v-288z" />
    <glyph glyph-name="blind-primary" unicode="&#xf29d;" horiz-adv-x="384" 
d="M142.8 133.66l62.8203 -153.54c1.52637 -3.73242 2.39551 -7.85645 2.39551 -12.1348c0 -17.6631 -14.3398 -32.002 -32.002 -32.002c-13.3838 0 -24.8594 8.2334 -29.6338 19.9062l-36.1201 88.29zM96 360c-24.2842 0 -44 19.7158 -44 44s19.7158 44 44 44
s44 -19.7158 44 -44s-19.7158 -44 -44 -44zM250.84 190.87c3.21875 -4.08496 5.19824 -9.24707 5.19824 -14.8457c0 -7.64941 -3.58594 -14.4688 -9.16797 -18.8643c-9.33984 -7.33984 -24.5605 -7.58984 -33.71 4l-102.3 129.22
c-0.735352 0.921875 -1.86426 1.50684 -3.13379 1.50684c-2.21289 0 -4.00977 -1.79688 -4.00977 -4.00977c0 -0.943359 0.327148 -1.81152 0.873047 -2.49707l31.4102 -39.8203v-107.199l-65.9297 -181.29c-0.0703125 -0.209961 -0.150391 -0.419922 -0.230469 -0.629883
c-4.5918 -12.0498 -16.2373 -20.5908 -29.8906 -20.5908c-17.6611 0 -32 14.3389 -32 32c0 3.90234 0.700195 7.6416 1.98047 11.1006l54.0703 148.689v140.7l-16 -20.5703v-79.7695l-0.0078125 -0.00488281c0 -13.0889 -10.502 -23.7451 -23.5322 -23.9951
c-13.46 -0.25 -24.46 11.0801 -24.46 24.54v95.6904l61.0596 78.5293c4.37402 5.63184 11.1992 9.24023 18.875 9.24023h0.0654297h32c0.015625 0 0.0205078 0.0175781 0.0361328 0.0175781c7.62695 0 14.4248 -3.5791 18.8037 -9.14746z" />
    <glyph glyph-name="trophy-alt-primary" unicode="&#xf2eb;" horiz-adv-x="576" 
d="M552.12 384c13.1846 -0.0332031 23.8799 -10.7461 23.8799 -23.9385v-0.0615234v-56c0 -66.2998 -77.5996 -131.6 -171.9 -142.4c-31.3994 -52.0996 -68.0996 -73.5996 -68.0996 -73.5996v-72h-96v72s-36.7002 21.5 -68.0996 73.5996
c-94 10.7002 -171.9 75.9004 -171.9 142.4v56.1201c0.0332031 13.1846 10.7461 23.8799 23.9385 23.8799h0.0615234h104v40.1201c0.0332031 13.1846 10.7461 23.8799 23.9385 23.8799h0.0615234h272.12c13.1846 -0.0332031 23.8799 -10.7461 23.8799 -23.9385v-0.0615234
v-40h104.12zM64 304c0 -20.2998 29.5 -53.7998 77 -70.2002c-7.59277 27.5322 -12.0342 56.4512 -12.7998 86.2002h-64.2002v-16zM384.7 299.3c7.09961 6.90039 3.2002 19 -6.40039 20.5l-54.7998 8l-24.5 49.6006c-1.96289 3.95605 -6.03027 6.67871 -10.7432 6.67871
s-8.79395 -2.72266 -10.7568 -6.67871l-24.5 -49.6006l-54.7998 -8c-5.83594 -0.811523 -10.3486 -5.82812 -10.3486 -11.8857c0 -3.37793 1.39844 -6.43262 3.64844 -8.61426l39.5996 -38.5996l-9.39941 -54.6006
c-0.107422 -0.643555 -0.150391 -1.28516 -0.150391 -1.95898c0 -6.62305 5.37695 -12 12 -12c2.00195 0 3.88965 0.491211 5.5498 1.35938l49 25.7998l49 -25.7998c1.66016 -0.868164 3.56152 -1.37793 5.5625 -1.37793c6.62305 0 12 5.37695 12 12
c0 0.673828 -0.0546875 1.33398 -0.162109 1.97754l-9.40039 54.6006zM512 304v16h-64.2002c-0.765625 -29.749 -5.20703 -58.668 -12.7998 -86.2002c47.5996 16.4004 77 50 77 70.2002z" />
    <glyph glyph-name="times-hexagon-primary" unicode="&#xf2ee;" horiz-adv-x="576" 
d="M409.6 127c2.18164 -2.17285 3.53125 -5.17969 3.53125 -8.49805c0 -3.31934 -1.34961 -6.3291 -3.53125 -8.50195l-39.3799 -39.7998c-2.17285 -2.18066 -5.17871 -3.53125 -8.49805 -3.53125s-6.32812 1.35059 -8.50195 3.53125l-65.0996 65.0996l-65.1201 -65.0996
c-2.17285 -2.18066 -5.17969 -3.53125 -8.49805 -3.53125c-3.31934 0 -6.3291 1.35059 -8.50195 3.53125l-39.5996 39.5996c-2.18164 2.17383 -3.53125 5.17969 -3.53125 8.49902c0 3.31836 1.34961 6.32812 3.53125 8.50098l65.0898 65.1006l-65.0498 65.0996
c-2.18164 2.17285 -3.53125 5.17969 -3.53125 8.49805c0 3.31934 1.34961 6.3291 3.53125 8.50195l39.5 39.7002c2.17285 2.18066 5.17871 3.53125 8.49805 3.53125s6.32812 -1.35059 8.50195 -3.53125l65.0596 -65.1006l65 65
c2.17285 2.18164 5.17969 3.53125 8.49805 3.53125c3.31934 0 6.3291 -1.34961 8.50195 -3.53125l39.6904 -39.5c2.18066 -2.17285 3.53125 -5.17871 3.53125 -8.49805s-1.35059 -6.32812 -3.53125 -8.50195l-65.0801 -65.0996z" />
    <glyph glyph-name="star-exclamation-primary" unicode="&#xf2f3;" horiz-adv-x="576" 
d="M288 136h0.0703125c22.0762 0 40 -17.9238 40 -40s-17.9219 -40 -39.999 -40c-22.0762 0 -40 17.9238 -40 40c0 22.0527 17.8848 39.9609 39.9287 40zM320.16 288l0.540039 -0.0400391c4.1377 -0.304688 7.41309 -3.75586 7.41309 -7.9707
c0 -0.205078 -0.0078125 -0.408203 -0.0234375 -0.609375l-8 -112c-0.310547 -4.13184 -3.76562 -7.40039 -7.97656 -7.40039c-0.0078125 0 -0.015625 0 -0.0234375 0.000976562h-48.0898c-0.0078125 -0.000976562 -0.0146484 0.00683594 -0.0224609 0.00683594
c-4.21094 0 -7.66699 3.26074 -7.97754 7.39258l-8 112v0.620117c0 4.41504 3.58496 8 8 8h64.1602z" />
    <glyph glyph-name="plus-hexagon-primary" unicode="&#xf300;" horiz-adv-x="576" 
d="M432 164c0 -6.62305 -5.37695 -12 -12 -12h-92v-92c0 -6.62305 -5.37695 -12 -12 -12h-56c-6.62305 0 -12 5.37695 -12 12v92h-92c-6.62305 0 -12 5.37695 -12 12v56c0 6.62305 5.37695 12 12 12h92v92c0 6.62305 5.37695 12 12 12h56c6.62305 0 12 -5.37695 12 -12v-92
h92c6.62305 0 12 -5.37695 12 -12v-56z" />
    <glyph glyph-name="minus-hexagon-primary" unicode="&#xf307;" horiz-adv-x="576" 
d="M432 220v-56c0 -6.62305 -5.37695 -12 -12 -12h-264c-6.62305 0 -12 5.37695 -12 12v56c0 6.62305 5.37695 12 12 12h264c6.62305 0 12 -5.37695 12 -12z" />
    <glyph glyph-name="chevron-double-left-primary" unicode="&#xf323;" 
d="M35 209l194 194c4.31934 4.34961 10.3037 7.04395 16.9121 7.04395c6.55664 0 12.5059 -2.65332 16.8184 -6.94434l0.0996094 -0.0996094l22.6104 -22.7002c4.34766 -4.32422 7.04102 -10.3105 7.04102 -16.9219c0 -6.55957 -2.65234 -12.5117 -6.94141 -16.8281
l-0.0996094 -0.0996094l-153.681 -154.45l153.681 -154.45c4.30273 -4.34766 6.96191 -10.3262 6.96191 -16.9209s-2.65918 -12.5811 -6.96191 -16.9287l-22.6504 -22.7002c-4.32031 -4.34961 -10.3037 -7.04395 -16.9121 -7.04395
c-6.55762 0 -12.5059 2.65332 -16.8184 6.94434l-0.0996094 0.0996094l-193.96 194c-4.32129 4.36719 -6.99121 10.3721 -6.99121 16.9961c0 6.62305 2.66992 12.6367 6.99121 17.0039z" />
    <glyph glyph-name="chevron-double-right-primary" unicode="&#xf324;" 
d="M478 175l-194.81 -194c-4.3457 -4.35254 -10.3516 -7.04785 -16.9824 -7.04785c-6.5791 0 -12.5508 2.6543 -16.8877 6.94824l-0.100586 0.0996094l-22.75 22.7002c-4.3623 4.31641 -7.06641 10.3057 -7.06641 16.9219c0 6.56543 2.66309 12.5186 6.9668 16.8281
l0.0996094 0.0996094l154.33 154.45l-154.33 154.45c-4.31738 4.34082 -6.98633 10.3213 -6.98633 16.9209s2.66895 12.5879 6.98633 16.9287l22.75 22.7002c4.3457 4.35254 10.3516 7.04785 16.9824 7.04785c6.5791 0 12.5508 -2.6543 16.8877 -6.94824
c0.0361328 -0.0302734 0.0693359 -0.0634766 0.100586 -0.0996094l194.81 -194c4.34082 -4.35742 7.02441 -10.3662 7.02441 -16.9961c0 -6.63086 -2.68359 -12.6465 -7.02441 -17.0039z" />
    <glyph glyph-name="arrows-alt-v-primary" unicode="&#xf338;" horiz-adv-x="256" 
d="M42 313.92c-21.3203 0 -32 25.8398 -17 40.9902l86.1104 86.0898c4.3418 4.3291 10.3379 7.00684 16.9482 7.00684c6.60938 0 12.5996 -2.67773 16.9414 -7.00684l85.9404 -86.0801c15.0898 -15.1299 4.39941 -41 -17 -41h-171.94zM213.94 70
c21.3896 0 32.0596 -25.7695 16.9893 -41l-85.9297 -86c-4.34082 -4.32031 -10.3311 -6.99219 -16.9336 -6.99219s-12.585 2.67188 -16.9268 6.99219l-86 86c-15.0898 15.1201 -4.39941 41 17 41h171.801z" />
    <glyph glyph-name="arrow-to-bottom-primary" unicode="&#xf33d;" horiz-adv-x="384" 
d="M327.87 257.48l17.0596 -17c4.36914 -4.32617 7.07617 -10.3252 7.07617 -16.9531c0 -6.54004 -2.6377 -12.4756 -6.90625 -16.7871l-0.169922 -0.169922l-135.93 -135.57c-4.34668 -4.36133 -10.3584 -7.0625 -16.9971 -7.0625
c-6.60742 0 -12.6016 2.67676 -16.9434 7.00293l-0.0595703 0.0595703l-135.93 135.57c-4.36914 4.3252 -7.07617 10.3252 -7.07617 16.9521c0 6.54004 2.6377 12.4756 6.90625 16.7871l0.169922 0.170898l17.0596 17c4.34668 4.36133 10.3594 7.06152 16.9971 7.06152
c6.60742 0 12.6016 -2.67578 16.9434 -7.00195l0.0595703 -0.0595703l65.8105 -65.6104v200.13c0 13.2461 10.7539 24 24 24h24.1396h0.0712891c13.2227 0 23.96 -10.7168 23.999 -23.9297v-200.2l65.8496 65.6104c4.33008 4.34375 10.3193 7.03418 16.9316 7.03418
c6.57715 0 12.5439 -2.66113 16.8682 -6.96484z" />
    <glyph glyph-name="external-link-alt-primary" unicode="&#xf35d;" 
d="M512 424v-128c0 -21.4697 -26 -32 -41 -17l-35.71 35.71l-243.49 -243.479c-4.34375 -4.34473 -10.3438 -7.03223 -16.9668 -7.03223c-6.62207 0 -12.6289 2.6875 -16.9727 7.03223l-22.6299 22.6299c-4.34473 4.34375 -7.03223 10.3438 -7.03223 16.9668
c0 6.62207 2.6875 12.6289 7.03223 16.9727l243.529 243.521l-35.71 35.6797c-15.0498 15.0996 -4.38965 41 16.9502 41h128c13.2461 0 24 -10.7539 24 -24z" />
    <glyph glyph-name="scanner-touchscreen-primary" unicode="&#xf48a;" horiz-adv-x="576" 
d="M312 448c4.41504 0 8 -3.58496 8 -8v-56h-32v56c0 4.41504 3.58496 8 8 8h16zM256 440v-56h-64v56c0 4.41504 3.58496 8 8 8h48c4.41504 0 8 -3.58496 8 -8zM408 448c4.41504 0 8 -3.58496 8 -8v-56h-64v56c0 4.41504 3.58496 8 8 8h48zM568 448
c4.41504 0 8 -3.58496 8 -8v-272c0 -4.41504 -3.58496 -8 -8 -8h-48c-4.41504 0 -8 3.58496 -8 8v272c0 4.41504 3.58496 8 8 8h48zM472 448c4.41504 0 8 -3.58496 8 -8v-272c0 -4.41504 -3.58496 -8 -8 -8h-16c-4.41504 0 -8 3.58496 -8 8v272c0 4.41504 3.58496 8 8 8h16z
M304 288c8.83105 0 16 -7.16895 16 -16v-256c0 -8.83105 -7.16895 -16 -16 -16h-192c-8.83105 0 -16 7.16895 -16 16v256c0 8.83105 7.16895 16 16 16h192z" />
    <glyph glyph-name="hand-holding-usd-primary" unicode="&#xf4c0;" horiz-adv-x="576" 
d="M329.28 225.6v-17.5996c0 -8.7998 -7.77051 -16 -17.2607 -16h-17.25c-9.47949 0 -17.25 7.2002 -17.25 16v17.7002c-12.3809 1.28613 -24.1279 5.36133 -34.2793 11.5c-3.31055 2.00977 -5.52441 5.65039 -5.52441 9.80273c0 2.1709 0.624023 4.20605 1.67383 5.9375
c0.611328 1 1.35645 1.8877 2.23047 2.65918l18.8701 17.5c4 3.7002 10 4.2002 15.2002 2c3.42383 -1.39844 7.1875 -2.1875 11.1094 -2.19922h35.3604c5 0 9.05957 3.7998 9.05957 8.39941c-0.112305 3.93652 -2.88574 7.2168 -6.58008 8.10059l-53.9092 14.2998
c-23.9307 6.39941 -43.1309 24.7002 -46.25 47.7002c-4.31055 32 20.4795 59.3994 53.1494 63v17.5996c0 8.7998 7.75977 16 17.25 16h17.25c9.49023 0 17.25 -7.2002 17.25 -16v-17.7002c12.3828 -1.28906 24.1328 -5.36426 34.29 -11.5
c3.30273 -2.0166 5.50977 -5.65527 5.50977 -9.80469c0 -3.4248 -1.50879 -6.49121 -3.88965 -8.59473l-18.8701 -17.5c-4 -3.7002 -10 -4.2002 -15.2002 -2c-3.42383 1.39844 -7.1875 2.1875 -11.1094 2.19922h-35.3604c-5 0 -9.05957 -3.7998 -9.05957 -8.39941
c0.111328 -3.93652 2.88574 -7.2168 6.5791 -8.10059l53.9102 -14.2998c23.9307 -6.39941 43.1104 -24.7002 46.2402 -47.7002c4.31055 -32 -20.4297 -59.3994 -53.1396 -63z" />
    <glyph glyph-name="drum-primary" unicode="&#xf569;" 
d="M512 240v-160c0 -30.2305 -27.5 -57.6104 -72 -77.7598v101.76c0 13.2461 -10.7539 24 -24 24s-24 -10.7539 -24 -24v-118.77c-33.0498 -9.10059 -71.0703 -15 -112 -16.7002v103.47c0 13.2461 -10.7539 24 -24 24s-24 -10.7539 -24 -24v-103.47
c-40.9297 1.66992 -78.9502 7.59961 -112 16.7002v118.77c0 13.2461 -10.7539 24 -24 24s-24 -10.7539 -24 -24v-101.76c-44.5 20.1494 -72 47.5293 -72 77.7598v160c-0.00195312 0.15918 -0.00292969 0.319336 -0.00292969 0.479492
c0 3.43262 0.466797 6.74023 1.33301 9.90039c13.7598 96.2998 213.4 101.62 254.67 101.62c17.5801 0 63.9004 -1 112.32 -9.58008l-62.5508 -40.3398c-16 1.20996 -32.5791 1.91992 -49.7695 1.91992c-114.87 0 -208 -28.6504 -208 -64s93.1299 -64 208 -64
s208 28.6504 208 64c0 21.2695 -33.8701 40.0703 -85.7695 51.7002l53.2295 34.2998c40.8604 -15 73.9102 -38.5 79.21 -75.6504c0.865234 -3.15918 1.32812 -6.48438 1.32812 -9.91797c0 -0.149414 0.00390625 -0.282227 0.00195312 -0.431641z" />
    <glyph glyph-name="brain-primary" unicode="&#xf5dc;" horiz-adv-x="576" 
d="M304 8.07031c0 -4.41602 -3.58496 -8 -8 -8h-16c-4.41504 0 -8 3.58398 -8 8v367.93c0 4.41504 3.58496 8 8 8h16c4.41504 0 8 -3.58496 8 -8v-367.93z" />
    <glyph glyph-name="directions-primary" unicode="&#xf5eb;" 
d="M401.63 202.12l-84.21 -77.7305c-1.42578 -1.3125 -3.32812 -2.11523 -5.41699 -2.11523c-4.41406 0 -8.00098 3.58203 -8.00293 7.99512v53.7305h-96v-64c0 -4.41504 -3.58496 -8 -8 -8h-32c-4.41504 0 -8 3.58496 -8 8v80c0 17.6611 14.3389 32 32 32h112v53.7305
v0.00488281c0 4.41504 3.58496 8 8 8c2.09375 0 4.00391 -0.806641 5.42969 -2.125l84.21 -77.7305c1.5791 -1.46191 2.56836 -3.55176 2.56836 -5.87012c0 -2.09375 -0.80957 -4.00293 -2.12793 -5.42969c-0.139648 -0.160156 -0.290039 -0.310547 -0.450195 -0.459961z
" />
    <glyph glyph-name="location-primary" unicode="&#xf601;" 
d="M496 224c8.83105 0 16 -7.16895 16 -16v-32c0 -8.83105 -7.16895 -16 -16 -16h-50.8799c-13.5684 -80.0938 -77.0264 -143.552 -157.12 -157.12v-50.8799c0 -8.83105 -7.16895 -16 -16 -16h-32c-8.83105 0 -16 7.16895 -16 16v50.8799
c-80.0938 13.5684 -143.552 77.0264 -157.12 157.12h-50.8799c-8.83105 0 -16 7.16895 -16 16v32c0 8.83105 7.16895 16 16 16h50.8799c13.5684 80.0938 77.0264 143.552 157.12 157.12v50.8799c0 8.83105 7.16895 16 16 16h32c8.83105 0 16 -7.16895 16 -16v-50.8799
c80.0938 -13.5684 143.552 -77.0264 157.12 -157.12h50.8799zM256 64c70.6455 0 128 57.3545 128 128s-57.3545 128 -128 128s-128 -57.3545 -128 -128s57.3545 -128 128 -128z" />
    <glyph glyph-name="route-interstate-primary" unicode="&#xf61b;" horiz-adv-x="480" 
d="M1.09961 256c-3.80957 51.7305 2.64062 99.7998 14.0801 136.87c3.61035 11.6895 15 19.0996 26.1807 16c18.4756 -5.19238 37.957 -7.96973 58.083 -7.96973c0.0205078 0 -0.00488281 -0.0302734 0.0166016 -0.0302734c49.1201 0 93.6104 16.0703 126.17 42.0996
c3.93652 3.15137 8.92871 5.03711 14.3584 5.03711c5.43066 0 10.4551 -1.88574 14.3916 -5.03711c32.5605 -26 77.0498 -42.0996 126.17 -42.0996h0.0644531c20.125 0 39.5605 2.80762 58.0361 8c11.2598 3.14941 22.5801 -4.29004 26.1797 -16
c11.4297 -37.0898 17.8799 -85.1602 14.0703 -136.87h-477.801z" />
    <glyph glyph-name="calculator-alt-primary" unicode="&#xf64c;" 
d="M162.91 87.6104c1.44727 -1.44824 2.3418 -3.4502 2.3418 -5.65625c0 -2.20703 -0.894531 -4.20605 -2.3418 -5.6543l-28.2803 -28.2998l28.2803 -28.29c1.44727 -1.44824 2.3418 -3.44922 2.3418 -5.65625s-0.894531 -4.20605 -2.3418 -5.65332l-11.3105 -11.3105
c-1.44727 -1.44727 -3.44922 -2.3418 -5.65527 -2.3418c-2.20703 0 -4.20605 0.894531 -5.6543 2.3418l-28.29 28.2803l-28.29 -28.29c-1.44824 -1.44727 -3.44922 -2.34277 -5.65625 -2.34277s-4.20605 0.895508 -5.65332 2.34277l-11.3105 11.3203
c-1.44727 1.44727 -2.3418 3.44922 -2.3418 5.65527c0 2.20703 0.894531 4.20605 2.3418 5.6543l28.2803 28.29l-28.29 28.29c-1.44727 1.44824 -2.34277 3.44922 -2.34277 5.65625s0.895508 4.20605 2.34277 5.65332l11.3096 11.3105
c1.44824 1.44727 3.4502 2.3418 5.65625 2.3418c2.20703 0 4.20605 -0.894531 5.6543 -2.3418l28.2998 -28.2803l28.29 28.29c1.44824 1.44727 3.44922 2.34277 5.65625 2.34277s4.20605 -0.895508 5.65332 -2.34277zM344 320c-4.41504 0 -8 3.58496 -8 8v16
c0 4.41504 3.58496 8 8 8h40v40c0 4.41504 3.58496 8 8 8h16c4.41504 0 8 -3.58496 8 -8v-40h40c4.41504 0 8 -3.58496 8 -8v-16c0 -4.41504 -3.58496 -8 -8 -8h-40v-40c0 -4.41504 -3.58496 -8 -8 -8h-16c-4.41504 0 -8 3.58496 -8 8v40h-40zM168 352
c4.41504 0 8 -3.58496 8 -8v-16c0 -4.41504 -3.58496 -8 -8 -8h-112c-4.41504 0 -8 3.58496 -8 8v16c0 4.41504 3.58496 8 8 8h112zM480 160c17.6611 0 32 -14.3389 32 -32v-160c0 -17.6611 -14.3389 -32 -32 -32h-160c-17.6611 0 -32 14.3389 -32 32v160
c0 17.6611 14.3389 32 32 32h160zM464 8v16c0 4.41504 -3.58496 8 -8 8h-112c-4.41504 0 -8 -3.58496 -8 -8v-16c0 -4.41504 3.58496 -8 8 -8h112c4.41504 0 8 3.58496 8 8zM464 72v16c0 4.41504 -3.58496 8 -8 8h-112c-4.41504 0 -8 -3.58496 -8 -8v-16
c0 -4.41504 3.58496 -8 8 -8h112c4.41504 0 8 3.58496 8 8z" />
    <glyph glyph-name="gopuram-primary" unicode="&#xf664;" 
d="M496 96c8.83105 0 16 -7.16895 16 -16v-128c0 -8.83105 -7.16895 -16 -16 -16h-80v160h-32v128h-32v96h-32v-96h32v-128h32v-160h-80v80c0 8.83105 -7.16895 16 -16 16h-64c-8.83105 0 -16 -7.16895 -16 -16v-80h-80v160h32v128h32v96h-32v-96h-32v-128h-32v-160h-80
c-8.83105 0 -16 7.16895 -16 16v128c0 8.83105 7.16895 16 16 16h16v112c0 8.83105 7.16895 16 16 16h16v80c0 8.83105 7.16895 16 16 16h16v112c0 8.83105 7.16895 16 16 16s16 -7.16895 16 -16v-16h64v16c0 8.83105 7.16895 16 16 16s16 -7.16895 16 -16v-16h64v16
c0 8.83105 7.16895 16 16 16s16 -7.16895 16 -16v-16h64v16c0 8.83105 7.16895 16 16 16s16 -7.16895 16 -16v-112h16c8.83105 0 16 -7.16895 16 -16v-80h16c8.83105 0 16 -7.16895 16 -16v-112h16zM232 272v-48h48v48c0 8.83105 -7.16895 16 -16 16h-16
c-8.83105 0 -16 -7.16895 -16 -16zM288 96v64c0 8.83105 -7.16895 16 -16 16h-32c-8.83105 0 -16 -7.16895 -16 -16v-64h64z" />
    <glyph glyph-name="journal-whills-primary" unicode="&#xf66a;" horiz-adv-x="448" 
d="M96 64c-16 0 -32 -12.7998 -32 -32s12.7998 -32 32 -32h328c13.2461 0 24 -10.7539 24 -24v-16c0 -13.2461 -10.7539 -24 -24 -24h-328c-52.9834 0 -96 43.0166 -96 96v320c0 52.9834 43.0166 96 96 96h320c17.6611 0 32 -14.3389 32 -32v-328
c0 -13.2461 -10.7539 -24 -24 -24h-328zM133.08 303.61c-2.98047 -10.0908 -5.08105 -20.6104 -5.06152 -31.6299c0 -0.510742 0.150391 -0.990234 0.150391 -1.51074l37.1104 -32.4697c0.24707 -0.200195 0.487305 -0.410156 0.720703 -0.629883
c1.46094 -1.4502 2.36328 -3.46191 2.36328 -5.68066c0 -4.41797 -3.58691 -8.00488 -8.00488 -8.00488c-2.19336 0 -4.18164 0.883789 -5.62793 2.31543l-23.5908 20.6396c11.4248 -49.5557 55.8457 -86.5508 108.85 -86.5508c53.0049 0 97.4365 36.9951 108.86 86.5508
l-23.5898 -20.6396c-1.4502 -1.46973 -3.47363 -2.38379 -5.7002 -2.38379c-4.41504 0 -8 3.58496 -8 8c0 2.60645 1.24902 4.92285 3.18066 6.38379l37.1094 32.4902c0.0107422 0.509766 0.150391 0.990234 0.150391 1.50977
c-0.150391 10.9834 -1.93066 21.6123 -5.07031 31.5996l-21.2598 -21.2598v0c-1.44824 -1.44922 -3.45215 -2.34473 -5.66113 -2.34473c-4.41602 0 -8.00098 3.58496 -8.00098 8.00098c0 2.20703 0.895508 4.20605 2.3418 5.6543l26.4199 26.4199
c-10.0391 20.8916 -26.1982 38.0195 -46.3691 49.2598c6.04199 -9.66895 9.61914 -21.1338 9.61914 -33.3652c0 -19.916 -9.26172 -37.6865 -23.71 -49.2344c9.69727 -10.0469 15.623 -23.7275 15.623 -38.7793c0 -26.875 -19.0264 -49.3408 -44.333 -54.6514
l-1.42969 34.2803l12.6797 -8.62012c0.633789 -0.420898 1.39453 -0.664062 2.21094 -0.664062c2.20801 0 4 1.79297 4 4c0 0.717773 -0.189453 1.3916 -0.520508 1.97363l-8.54004 14.3105l17.9102 3.71973c1.8252 0.371094 3.20117 1.98633 3.20117 3.91992
c0 1.93457 -1.37598 3.5498 -3.20117 3.91992l-17.9102 3.7207l8.57031 14.2598c0.366211 0.604492 0.582031 1.31738 0.582031 2.0752c0 1.1543 -0.490234 2.19434 -1.27246 2.9248c-0.725586 0.669922 -1.70117 1.07812 -2.76562 1.07812
c-0.825195 0 -1.59277 -0.246094 -2.23438 -0.667969l-14.2002 -9.65039l-4.67969 112.29c0 2.20801 -1.79199 4 -4 4s-4 -1.79199 -4 -4l-4.67969 -110.81l-12 8.15918c-0.642578 0.441406 -1.42188 0.697266 -2.25977 0.697266c-2.20703 0 -4 -1.79297 -4 -4
c0 -0.751953 0.208008 -1.45605 0.569336 -2.05664l8.54004 -14.3105l-17.9102 -3.71973c-1.8252 -0.370117 -3.20117 -1.98535 -3.20117 -3.91992c0 -1.93359 1.37598 -3.54883 3.20117 -3.91992l17.9102 -3.71973l-8.54004 -14.3105
c-0.338867 -0.586914 -0.535156 -1.27344 -0.535156 -2c0 -2.19922 1.7793 -3.98633 3.97559 -4c0.828125 0.0107422 1.60352 0.264648 2.25 0.69043l10.3701 7l-1.36035 -32.71c-25.3096 5.31543 -44.3799 27.7998 -44.3799 54.6797
c0 15.0518 5.96582 28.7207 15.6602 38.7705c-14.4258 11.5488 -23.5869 29.3477 -23.5869 49.2461c0 12.2656 3.5127 23.7178 9.58691 33.4033c-20.1709 -11.2402 -36.3301 -28.3682 -46.3701 -49.2598l26.4199 -26.4199v0
c1.44629 -1.44824 2.33984 -3.44922 2.33984 -5.65625c0 -4.41602 -3.58496 -8.00098 -8.00098 -8.00098c-2.20898 0 -4.21094 0.897461 -5.65918 2.34668z" />
    <glyph glyph-name="shredder-primary" unicode="&#xf68a;" 
d="M368 352c-8.83105 0 -16 7.16895 -16 16v80h4.57031c0.0146484 0 0.03125 0.00195312 0.046875 0.00195312c4.95508 0 9.44629 -2.00684 12.7031 -5.25195l73.4297 -73.5c3.24414 -3.24316 5.24902 -7.72559 5.25 -12.6699v-4.58008h-80zM448 256
c35.3223 0 64 -28.6777 64 -64v-112c0 -8.83105 -7.16895 -16 -16 -16h-480c-8.83105 0 -16 7.16895 -16 16v112c0 35.3223 28.6777 64 64 64v-32h384v32zM432 120c13.2461 0 24 10.7539 24 24s-10.7539 24 -24 24s-24 -10.7539 -24 -24s10.7539 -24 24 -24z" />
    <glyph glyph-name="chair-primary" unicode="&#xf6c0;" horiz-adv-x="448" 
d="M416.05 64v-112c0 -8.83105 -7.16895 -16 -16 -16h-32c-8.83008 0 -16 7.16895 -16 16v112h-256.05v-112c0 -8.83105 -7.16895 -16 -16 -16h-32c-8.83105 0 -16 7.16895 -16 16v112c-17.6709 0.0341797 -32.0078 14.3906 -32.0078 32.0703
c0 3.5 0.569336 6.875 1.60742 10.0293l10.7002 32c4.23145 12.7217 16.2383 21.9053 30.373 21.9053c0.015625 0 0.0214844 -0.00488281 0.0371094 -0.00488281h362.54h0.0361328c14.1348 0 26.1328 -9.17871 30.3643 -21.9004l10.71 -32
c1.05566 -3.17383 1.62695 -6.56738 1.62695 -10.0947c0 -17.6426 -14.3018 -31.9746 -31.9375 -32.0049z" />
    <glyph glyph-name="chair-office-primary" unicode="&#xf6c1;" horiz-adv-x="448" 
d="M64 224c0 -17.6611 -14.3389 -32 -32 -32s-32 14.3389 -32 32v64c0 17.6611 14.3389 32 32 32s32 -14.3389 32 -32v-64zM416 320c17.6611 0 32 -14.3389 32 -32v-64c0 -17.6611 -14.3389 -32 -32 -32s-32 14.3389 -32 32v64c0 17.6611 14.3389 32 32 32zM403.67 138.12
l10.6904 -32c1.05957 -3.17969 1.63965 -6.58594 1.63965 -10.1201c0 -17.6611 -14.3389 -32 -32 -32h-128v-67.3604c28.2598 -6.00977 51 -19.6895 61.8301 -37.21c6.43945 -10.3398 -2.38965 -23.4297 -15 -23.4297h-157.68c-12.5908 0 -21.4102 13.0898 -15 23.4297
c10.8496 17.5205 33.5801 31.21 61.8496 37.21v67.3604h-128c-17.6533 0.00976562 -31.9736 14.3496 -31.9736 32.0049c0 3.53418 0.573242 6.93555 1.63379 10.1152l10.6699 32c4.2373 12.7109 16.2324 21.8799 30.3604 21.8799h298.619
c14.1279 0 26.123 -9.16895 30.3604 -21.8799z" />
    <glyph glyph-name="flame-primary" unicode="&#xf6df;" horiz-adv-x="384" 
d="M252.09 235.08c33.3799 -28.54 67.9004 -58 67.9004 -117.21c0 -65 -57.4102 -117.87 -128 -117.87s-127.99 52.8896 -127.99 117.89c0 44.1104 25.8398 71.5107 34.3398 79.7607c1.44824 1.44922 3.4502 2.34668 5.65918 2.34668
c4.41406 0 7.99902 -3.58301 8.00098 -7.99707v-40c0 -30.9072 25.0928 -56 56 -56s56 25.0928 56 56c0 72 -112.64 64.7695 -39.4297 164.33c1.71191 2.25488 4.41992 3.71094 7.4668 3.71094c1.0918 0 2.13867 -0.197266 3.11328 -0.541016
c1.61914 -0.530273 5.37988 -2.24023 5.37988 -6.78027c0 -33.5596 25 -55 51.5596 -77.6396z" />
    <glyph glyph-name="flask-poison-primary" unicode="&#xf6e0;" horiz-adv-x="416" 
d="M96 384c-8.83105 0 -16 7.16895 -16 16v32c0 8.83105 7.16895 16 16 16h224c8.83105 0 16 -7.16895 16 -16v-32c0 -8.83105 -7.16895 -16 -16 -16h-224zM304 278.95c67.2002 -36.1299 113.71 -107.67 112 -187.62c-1.10352 -51.6162 -21.1514 -98.7715 -53.4297 -134.48
c-11.708 -12.8242 -28.5459 -20.8506 -47.2607 -20.8506c-0.103516 0 -0.207031 0.000976562 -0.30957 0.000976562h-214.07c-0.164062 -0.000976562 -0.31543 -0.0234375 -0.480469 -0.0234375c-18.3711 0 -34.9297 7.82617 -46.5195 20.3232
c-33.4854 36.8037 -53.9297 85.7744 -53.9297 139.403v0.296875c0 80.1201 45.6104 149.15 112 183.88v72.1201h192v-73.0498zM272 63.9502c29 15.9102 48 42.1797 48 72.0498c0 48.5996 -50.1299 88 -112 88s-112 -39.4004 -112 -88c0 -29.8701 19 -56.1699 48 -72.0801
v-31.9199c0 -8.83105 7.16895 -16 16 -16h96c8.83105 0 16 7.16895 16 16v31.9502z" />
    <glyph glyph-name="flask-potion-primary" unicode="&#xf6e1;" horiz-adv-x="416" 
d="M304 278.95c67.2002 -36.1299 113.71 -107.67 112 -187.62c-1.10352 -51.6162 -21.1514 -98.7715 -53.4297 -134.48c-11.708 -12.8242 -28.5459 -20.8506 -47.2607 -20.8506c-0.103516 0 -0.207031 0.000976562 -0.30957 0.000976562h-214.07
c-0.164062 -0.000976562 -0.31543 -0.0234375 -0.480469 -0.0234375c-18.3711 0 -34.9297 7.82617 -46.5195 20.3232c-33.4854 36.8037 -53.9297 85.7744 -53.9297 139.403v0.296875c0 80.1201 45.6104 149.15 112 183.88v72.1201h64v-110.87
c-23.6904 -12.3896 -112 -45.6201 -112 -145.13c0 -0.0439453 0.0195312 -0.146484 0.0195312 -0.19043c0 -36.8008 13.873 -70.3877 36.6709 -95.8096h214.6c22.1338 24.6816 35.8896 57.166 36.71 92.7002c2.09961 98.1299 -87.4902 134.819 -112 148v111.3h64v-73.0498z
M96 384c-8.83105 0 -16 7.16895 -16 16v32c0 8.83105 7.16895 16 16 16h224c8.83105 0 16 -7.16895 16 -16v-32c0 -8.83105 -7.16895 -16 -16 -16h-224z" />
    <glyph glyph-name="hat-wizard-primary" unicode="&#xf6e8;" 
d="M240 32l16 32l64 32l-64 32l-32 64l-32 -64l-64 -32l64 -32l16 -32h-144l111 249.66c11.1123 25.0205 29.8135 45.6445 53.4199 59.1494l187.58 107.19l-56.2998 -168.92c-2.12012 -6.35938 -3.25488 -13.2178 -3.25488 -20.2861
c0 -8.93164 1.83398 -17.4385 5.14453 -25.1641l86.4102 -201.63h-208zM288 256l32 16l-32 16l-16 32l-16 -32l-32 -16l32 -16l16 -32z" />
    <glyph glyph-name="mandolin-primary" unicode="&#xf6f9;" 
d="M509.56 377.52l-40.0693 -64c-4.28809 -6.84766 -11.0869 -11.9238 -19.1104 -14l-56.0996 -14.5195l-115.65 -115.63l-45.25 45.25l115.62 115.64l14.5098 56.1201c2.0752 8.02344 7.15137 14.8223 14 19.1104l64 40.0693
c2.45801 1.54004 5.36426 2.43066 8.47559 2.43066c4.41797 0 8.43848 -1.78223 11.335 -4.68066l46 -46c2.88965 -2.89453 4.67773 -6.89062 4.67773 -11.3008c0 -3.10938 -0.900391 -6.03223 -2.43848 -8.48926z" />
    <glyph glyph-name="running-primary" unicode="&#xf70c;" horiz-adv-x="416" 
d="M384 224.19c0.425781 0.0166016 0.854492 0.0244141 1.28418 0.0244141c17.6611 0 32 -14.3389 32 -32s-14.3389 -32 -32 -32c-0.429688 0 -0.858398 0.00878906 -1.28418 0.0253906h-54c-18.9131 0.0888672 -35.25 11.0225 -43.0996 26.9395l-20.2705 41.3906
l-31.3096 -78.21l61.2393 -36.1104c14.0635 -8.41113 23.4287 -23.75 23.4287 -41.3135c0 -4.5166 -0.623047 -8.88965 -1.78809 -13.0361l-31.6006 -101c-0.0898438 -0.300781 -0.179688 -0.600586 -0.279297 -0.900391
c-4.30762 -12.5869 -16.2314 -21.6377 -30.2695 -21.6377c-17.6611 0 -32 14.3379 -32 32c0 3.35742 0.518555 6.5957 1.47949 9.6377l27.4697 87.6396l-85 50.1299c-18.8506 11.1641 -31.4033 31.7139 -31.4033 55.1914c0 8.88281 1.81055 17.3457 5.08301 25.0391
l37.46 87.29l-14.6992 4.36035c-7.83008 1.86914 -17.6006 -0.25 -25.2705 -6.13086l-39.6895 -30.3896l-0.180664 -0.129883c-5.46387 -4.3457 -12.4307 -6.97168 -19.9473 -6.97168c-17.6611 0 -32 14.3389 -32 32c0 10.6328 5.19727 20.0615 13.1875 25.8818
l39.6699 30.3896c16.1299 12.3994 36.3477 19.8096 58.2451 19.8096c7.7832 0 15.3496 -0.931641 22.5947 -2.68945l71.1104 -21.1299c26.3301 -6.7002 49.2803 -25.3701 61.7803 -50.9004l26.0596 -53.1992h44zM113.69 130.79
c8.05957 -17.8398 21.2959 -32.6221 37.9893 -42.5801l10.6699 -6.2998l-8.79004 -20.5c-7.30859 -17.0996 -24.2646 -29.0605 -44.0244 -29.0605h-0.0849609h-77.4502c-0.46582 -0.0195312 -0.935547 -0.0292969 -1.40625 -0.0292969c-17.6611 0 -32 14.3389 -32 32
s14.3389 32 32 32c0.470703 0 0.94043 -0.00976562 1.40625 -0.0302734h66.8896z" />
    <glyph glyph-name="guitar-primary" unicode="&#xf7a6;" 
d="M502.63 363.78l-46.3203 -46.3203c-3.8291 -3.83398 -8.53418 -6.77734 -13.79 -8.53027l-36.4697 -12.1602l-150.33 -150.35c-1.23438 24.3916 -20.8379 44.0176 -45.2197 45.29l150.29 150.29l12.21 36.5098c1.75293 5.25586 4.69629 9.96094 8.53027 13.79
l46.2598 46.3301c5.79297 5.79395 13.7939 9.37988 22.626 9.37988c8.83105 0 16.8418 -3.58594 22.6338 -9.37988l29.5801 -29.6299c5.78223 -5.79102 9.35938 -13.7842 9.35938 -22.6055s-3.57715 -16.8232 -9.35938 -22.6143z" />
    <glyph glyph-name="print-search-primary" unicode="&#xf81a;" horiz-adv-x="672" 
d="M368 352c-8.83105 0 -16 7.16895 -16 16v80h4.57031c0.0146484 0 0.03125 0.00195312 0.046875 0.00195312c4.95508 0 9.44629 -2.00684 12.7031 -5.25195l73.4297 -73.5c3.24414 -3.24316 5.24902 -7.72559 5.25 -12.6699v-4.58008h-80zM352 224
c-20.0635 -26.7236 -31.96 -60.1709 -31.96 -96.1289c0 -22.041 4.46973 -43.0479 12.5498 -62.1611c0.240234 -0.570312 0.5 -1.13965 0.740234 -1.70996h-317.33c-8.83105 0 -16 7.16895 -16 16v112c0 35.3223 28.6777 64 64 64v-32h288zM667.31 -14.0596
c2.89746 -2.89648 4.69043 -6.90137 4.69043 -11.3174s-1.79297 -8.41699 -4.69043 -11.3135l-22.6191 -22.6191c-2.89648 -2.89746 -6.90137 -4.69043 -11.3174 -4.69043s-8.41699 1.79297 -11.3135 4.69043l-77.4092 77.4199
c-19.04 -11.2305 -40.9502 -18.1104 -64.6504 -18.1104c-70.6455 0 -128 57.3545 -128 128s57.3545 128 128 128s128 -57.3545 128 -128c-0.111328 -23.5732 -6.75781 -45.7812 -18.0996 -64.6504zM480 64c35.3223 0 64 28.6777 64 64s-28.6777 64 -64 64
s-64 -28.6777 -64 -64s28.6777 -64 64 -64z" />
    <glyph glyph-name="album-primary" unicode="&#xf89f;" horiz-adv-x="448" 
d="M224 352c88.3066 0 160 -71.6934 160 -160s-71.6934 -160 -160 -160s-160 71.6934 -160 160s71.6934 160 160 160zM224 160c17.6611 0 32 14.3389 32 32s-14.3389 32 -32 32s-32 -14.3389 -32 -32s14.3389 -32 32 -32z" />
    <glyph glyph-name="album-collection-primary" unicode="&#xf8a0;" 
d="M480 424v-24h-448v24c0 13.2461 10.7539 24 24 24h400c13.2461 0 24 -10.7539 24 -24zM472 368c13.2461 0 24 -10.7539 24 -24v-24h-480v24c0 13.2461 10.7539 24 24 24h432zM256 238.6c104.18 0 184.29 -63.6992 179.2 -138.34
c-4.81055 -70.6299 -84.9307 -125.149 -179.19 -125.149s-174.39 54.5293 -179.2 125.149c-5.09961 74.6406 75.0107 138.34 179.19 138.34zM256 78.54c16.3604 0 29.7402 9.55957 29.8701 21.7197s-13.2402 22.0898 -29.8701 22.0898s-29.9902 -10.0498 -29.8604 -22.0898
s13.5 -21.7197 29.8604 -21.7197z" />
    <glyph glyph-name="amp-guitar-primary" unicode="&#xf8a1;" 
d="M465 365c26.4922 0 48 -21.5078 48 -48v-336c0 -26.4922 -21.5078 -48 -48 -48h-416c-26.4922 0 -48 21.5078 -48 48v336c0 26.4922 21.5078 48 48 48h416zM345 301c-13.2461 0 -24 -10.7539 -24 -24s10.7539 -24 24 -24s24 10.7539 24 24s-10.7539 24 -24 24zM169 301
c-13.2461 0 -24 -10.7539 -24 -24s10.7539 -24 24 -24s24 10.7539 24 24s-10.7539 24 -24 24zM89 301c-13.2461 0 -24 -10.7539 -24 -24s10.7539 -24 24 -24s24 10.7539 24 24s-10.7539 24 -24 24zM449 -3v192h-384v-192h384zM425 253c13.2461 0 24 10.7539 24 24
s-10.7539 24 -24 24s-24 -10.7539 -24 -24s10.7539 -24 24 -24z" />
    <glyph glyph-name="badge-sheriff-primary" unicode="&#xf8a2;" 
d="M428.79 125.74c-16.5098 -4.91992 -28.79 -19.6201 -28.8203 -37.7402c0 -2.83984 1.0498 -5.33008 1.62012 -8h-79l-43.1494 -72.4502c-6.66016 4.95996 -14.4404 8.4502 -23.4404 8.4502s-16.9004 -3.53027 -23.5898 -8.5498l-43.1504 72.5498h-78.8799
c0.620117 2.66992 1.62012 5.16016 1.62012 8c0 18.1104 -12.2598 32.7998 -28.7598 37.7305l39.46 66.21l-39.46 66.3193c16.5098 4.91992 28.79 19.6201 28.79 37.7402c0 2.83984 -1.0498 5.33008 -1.62012 8h79l43.1494 72.4502
c6.66016 -4.95996 14.4404 -8.4502 23.4404 -8.4502s16.9004 3.53027 23.5898 8.5498l43.1504 -72.5498h78.8799c-0.570312 -2.66992 -1.62012 -5.16016 -1.62012 -8c0 -18.1104 12.2598 -32.7998 28.7598 -37.7305l-39.4297 -66.21zM256 128c35.3223 0 64 28.6777 64 64
s-28.6777 64 -64 64s-64 -28.6777 -64 -64s28.6777 -64 64 -64z" />
    <glyph glyph-name="banjo-primary" unicode="&#xf8a3;" 
d="M194.34 66.3398c-1.44922 -1.45605 -3.45605 -2.35742 -5.6709 -2.35742c-2.21387 0 -4.21973 0.901367 -5.66895 2.35742l-52.6299 52.6904c-1.44727 1.44727 -2.34277 3.44922 -2.34277 5.65625c0 2.20605 0.895508 4.20508 2.34277 5.65332l11.3096 11.3105
c1.44824 1.44922 3.45215 2.34668 5.66113 2.34668c2.20996 0 4.21094 -0.897461 5.65918 -2.34668l52.6504 -52.6807c1.44922 -1.44824 2.34668 -3.45117 2.34668 -5.66113c0 -2.20898 -0.897461 -4.20996 -2.34668 -5.6582zM502.63 409
c5.76758 -5.78906 9.33496 -13.7812 9.33496 -22.5898s-3.56738 -16.791 -9.33496 -22.5801l-46.3203 -46.3105c-3.82617 -3.83301 -8.5332 -6.77441 -13.79 -8.51953l-36.3496 -12.1201l-74.8799 -74.8799c-12.1377 17.9102 -27.3574 33.1035 -45.29 45.21l74.8096 74.7197
l12.1904 36.5898c1.73828 5.25098 4.66504 9.95703 8.48047 13.79l46.3096 46.3203c5.79297 5.79395 13.8027 9.37988 22.6348 9.37988s16.833 -3.58594 22.625 -9.37988zM56.4805 226.52l-0.230469 0.230469c-4.34961 4.6748 -7.00293 10.9482 -7.00293 17.8311
c0 14.4492 11.7305 26.1797 26.1797 26.1797c6.88281 0 13.1484 -2.66113 17.8232 -7.01074l0.230469 -0.230469c-14.2695 -10.3906 -26.6094 -22.7305 -37 -37zM56.4805 29.5195c10.3887 -14.2559 22.7295 -26.6191 37 -36.9893l-0.230469 -0.230469
c-4.78125 -5.13965 -11.6104 -8.34863 -19.1768 -8.34863c-14.4492 0 -26.1797 11.7305 -26.1797 26.1797c0 7.56641 3.2168 14.3877 8.35645 19.1689zM26.1797 154.22l0.459961 -0.0400391c-1.34961 -8.58984 -2.63965 -17.1797 -2.63965 -26.1797
s1.29004 -17.5898 2.63965 -26.1396h-0.459961c-14.4492 0 -26.1797 11.7305 -26.1797 26.1797s11.7305 26.1797 26.1797 26.1797zM327.52 29.5195l0.230469 -0.229492c5.13965 -4.78125 8.34961 -11.6104 8.34961 -19.1768c0 -14.4492 -11.7314 -26.1797 -26.1807 -26.1797
c-7.56641 0 -14.3877 3.2168 -19.1689 8.35645l-0.230469 0.229492c14.2734 10.3857 26.6152 22.7275 37 37zM357.82 154.22c14.4492 0 26.1797 -11.7705 26.1797 -26.2197s-11.7305 -26.1797 -26.1797 -26.1797h-0.459961c1.34961 8.58984 2.63965 17.1797 2.63965 26.1797
s-1.29004 17.5898 -2.63965 26.2197h0.459961zM165.82 -37.3203c8.58984 -1.34961 17.1797 -2.67969 26.1797 -2.67969s17.5898 1.29004 26.1797 2.67969v-0.459961c0 -14.4492 -11.7305 -26.1797 -26.1797 -26.1797s-26.1797 11.7305 -26.1797 26.1797v0.459961zM192 320
c14.4463 -0.00585938 26.1748 -11.7334 26.1797 -26.1797v-0.459961c-8.58984 1.34961 -17.1797 2.63965 -26.1797 2.63965s-17.5898 -1.29004 -26.1797 -2.63965v0.459961c0 14.4492 11.7305 26.1797 26.1797 26.1797z" />
    <glyph glyph-name="betamax-primary" unicode="&#xf8a4;" 
d="M496 384c8.83105 0 16 -7.16895 16 -16v-80h-512v80c0 8.83105 7.16895 16 16 16h480zM144 224c44.1533 0 80 -35.8467 80 -80s-35.8467 -80 -80 -80s-80 35.8467 -80 80s35.8467 80 80 80zM144 112c17.6611 0 32 14.3389 32 32s-14.3389 32 -32 32s-32 -14.3389 -32 -32
s14.3389 -32 32 -32z" />
    <glyph glyph-name="boombox-primary" unicode="&#xf8a5;" horiz-adv-x="640" 
d="M552 448c30.8916 -0.0332031 55.9668 -25.1084 56 -56v-106.94c-4.98535 1.8418 -10.3906 2.88672 -16 2.94043h-32v104c0 4.41504 -3.58496 8 -8 8h-464c-4.41504 0 -8 -3.58496 -8 -8v-104h-32c-5.60938 -0.0537109 -11.0146 -1.09863 -16 -2.94043v106.94
c0.0380859 30.8896 25.1104 55.9619 56 56h464zM256 304v-16h-64v16c0 8.83105 7.16895 16 16 16h32c8.83105 0 16 -7.16895 16 -16zM448 304v-16h-64v16c0 8.83105 7.16895 16 16 16h32c8.83105 0 16 -7.16895 16 -16zM352 304v-16h-64v16c0 8.83105 7.16895 16 16 16h32
c8.83105 0 16 -7.16895 16 -16zM464 224c61.7842 -0.0664062 111.934 -50.2158 112 -112c0 -61.8145 -50.1855 -112 -112 -112s-112 50.1855 -112 112s50.1855 112 112 112zM464 48c35.3047 0.0380859 63.9619 28.6953 64 64c0 35.3223 -28.6777 64 -64 64
s-64 -28.6777 -64 -64s28.6777 -64 64 -64zM176 224c61.7842 -0.0664062 111.934 -50.2158 112 -112c0 -61.8145 -50.1855 -112 -112 -112s-112 50.1855 -112 112s50.1855 112 112 112zM176 48c35.3047 0.0380859 63.9619 28.6953 64 64c0 35.3223 -28.6777 64 -64 64
s-64 -28.6777 -64 -64s28.6777 -64 64 -64z" />
    <glyph glyph-name="cactus-primary" unicode="&#xf8a7;" 
d="M352 352v-416h-192v416c0 52.9834 43.0166 96 96 96s96 -43.0166 96 -96zM224 272c8.83105 0 16 7.16895 16 16s-7.16895 16 -16 16s-16 -7.16895 -16 -16s7.16895 -16 16 -16zM288 48c8.83105 0 16 7.16895 16 16s-7.16895 16 -16 16s-16 -7.16895 -16 -16
s7.16895 -16 16 -16z" />
    <glyph glyph-name="camcorder-primary" unicode="&#xf8a8;" horiz-adv-x="576" 
d="M525.59 282.3c21.3203 14.6104 50.4102 -0.389648 50.4102 -25.7998v-256.91c0 -25.5 -29.2002 -40.3896 -50.4102 -25.79l-109.59 75.5v157.4zM313.6 224c3.53027 -0.00585938 6.39453 -2.87012 6.40039 -6.40039v-19.1992
c-0.00585938 -3.53027 -2.87012 -6.39453 -6.40039 -6.40039h-243.199c-3.53027 0.00585938 -6.39453 2.87012 -6.40039 6.40039v19.1992c0.00585938 3.53027 2.87012 6.39453 6.40039 6.40039h243.199z" />
    <glyph glyph-name="camera-movie-primary" unicode="&#xf8a9;" horiz-adv-x="576" 
d="M535.68 187.41c17.0508 11.6895 40.3203 -0.310547 40.3203 -20.6406v-205.529c0 -20.4102 -23.3203 -32.3203 -40.3203 -20.6406l-87.6797 60.4004v125.93zM352 448c70.6455 0 128 -57.3545 128 -128s-57.3545 -128 -128 -128h-224c-70.6455 0 -128 57.3545 -128 128
s57.3545 128 128 128c48.5703 0 90.3096 -27.3701 112 -67.2402c21.6904 39.8701 63.4297 67.2402 112 67.2402zM128 256c35.3047 0.0380859 63.9619 28.6953 64 64c0 35.3223 -28.6777 64 -64 64s-64 -28.6777 -64 -64s28.6777 -64 64 -64zM352 256
c35.3047 0.0380859 63.9619 28.6953 64 64c0 35.3223 -28.6777 64 -64 64s-64 -28.6777 -64 -64s28.6777 -64 64 -64z" />
    <glyph glyph-name="camera-polaroid-primary" unicode="&#xf8aa;" horiz-adv-x="576" 
d="M574.43 96c0.99707 -3.05078 1.55176 -6.3125 1.57031 -9.69043v-86.3096c0 -17.6611 -14.3389 -32 -32 -32h-512c-17.6611 0 -32 14.3389 -32 32v86.3096c0.0185547 3.37793 0.573242 6.63965 1.57031 9.69043h572.859zM480 40v16c0 4.41504 -3.58496 8 -8 8h-368
c-4.41504 0 -8 -3.58496 -8 -8v-16c0 -4.41504 3.58496 -8 8 -8h368c4.41504 0 8 3.58496 8 8zM288 192c-35.2969 0.0546875 -63.9453 28.7031 -64 64c0 35.3223 28.6777 64 64 64s64 -28.6777 64 -64s-28.6777 -64 -64 -64z" />
    <glyph glyph-name="cassette-tape-primary" unicode="&#xf8ab;" 
d="M368 288c35.3223 0 64 -28.6777 64 -64s-28.6777 -64 -64 -64h-224c-35.3223 0 -64 28.6777 -64 64s28.6777 64 64 64h224zM144 208c8.83105 0 16 7.16895 16 16s-7.16895 16 -16 16s-16 -7.16895 -16 -16s7.16895 -16 16 -16zM205.73 208h100.539
c-1.47168 5.08301 -2.26074 10.4375 -2.26074 15.9912c0 5.55469 0.789062 10.9258 2.26074 16.0088h-100.539c1.47168 -5.08301 2.26074 -10.4375 2.26074 -15.9912c0 -5.55469 -0.789062 -10.9258 -2.26074 -16.0088zM368 208c8.83105 0 16 7.16895 16 16
s-7.16895 16 -16 16s-16 -7.16895 -16 -16s7.16895 -16 16 -16z" />
    <glyph glyph-name="cctv-primary" unicode="&#xf8ac;" horiz-adv-x="576" 
d="M4.23047 265l95.3398 166.87c5.5127 9.65137 15.9053 16.1621 27.8066 16.1621c4.19141 0 8.19336 -0.854492 11.8633 -2.32227l378.2 -166.29c24.3291 -9.72949 27.29 -43 5.0791 -56.8496l-189.289 -118.301c-4.91211 -3.06934 -10.7139 -4.84375 -16.9268 -4.84375
c-3.83398 0 -7.55566 0.666016 -10.9639 1.9043l-284.26 117.74c-12.2852 4.4707 -21.0684 16.2578 -21.0684 30.0811c0 5.75488 1.55469 11.1807 4.21875 15.8486z" />
    <glyph glyph-name="clarinet-primary" unicode="&#xf8ad;" horiz-adv-x="640" 
d="M368 216c13.2461 0 24 -10.7539 24 -24s-10.7539 -24 -24 -24s-24 10.7539 -24 24s10.7539 24 24 24zM272 216c13.2461 0 24 -10.7539 24 -24s-10.7539 -24 -24 -24s-24 10.7539 -24 24s10.7539 24 24 24zM504 336c4.41504 0 8 -3.58496 8 -8v-16
c0 -4.41504 -3.58496 -8 -8 -8h-24v-32h-32v32h-64v-32h-32v32h-64v-32h-32v32h-24c-4.41504 0 -8 3.58496 -8 8v16c0 4.41504 3.58496 8 8 8h272zM464 216c13.2461 0 24 -10.7539 24 -24s-10.7539 -24 -24 -24s-24 10.7539 -24 24s10.7539 24 24 24z" />
    <glyph glyph-name="cloud-music-primary" unicode="&#xf8ae;" horiz-adv-x="640" 
d="M208 96c5.51562 -0.0478516 10.8584 -0.741211 16 -2v114.75c0.00488281 7.15039 4.70898 13.207 11.1904 15.25l128 47.25c1.51758 0.478516 3.13379 0.736328 4.80859 0.736328c8.82812 0 15.9951 -7.16016 16.001 -15.9863v-160c0 -17.6699 -21.5 -32 -48 -32
s-48 14.3301 -48 32s21.5 32 48 32c5.51562 -0.0478516 10.8584 -0.741211 16 -2v76.3604l-96 -37.5205v-100.84c0 -17.6699 -21.5 -32 -48 -32s-48 14.3301 -48 32s21.5 32 48 32z" />
    <glyph glyph-name="comment-alt-music-primary" unicode="&#xf8af;" 
d="M176 192c5.51562 -0.0478516 10.8584 -0.741211 16 -2v114.75c0.00488281 7.15039 4.70898 13.207 11.1904 15.25l128 47.25c1.51758 0.478516 3.13379 0.736328 4.80859 0.736328c8.82812 0 15.9951 -7.16016 16.001 -15.9863v-160c0 -17.6699 -21.5 -32 -48 -32
s-48 14.3301 -48 32s21.5 32 48 32c5.51562 -0.0478516 10.8584 -0.741211 16 -2v76.3604l-96 -37.5205v-100.84c0 -17.6699 -21.5 -32 -48 -32s-48 14.3301 -48 32s21.5 32 48 32z" />
    <glyph glyph-name="comment-music-primary" unicode="&#xf8b0;" 
d="M176 160c5.51562 -0.0478516 10.8584 -0.741211 16 -2v114.75c0.00488281 7.15039 4.70898 13.207 11.1904 15.25l128 47.25c1.51758 0.478516 3.13379 0.736328 4.80859 0.736328c8.82812 0 15.9951 -7.16016 16.001 -15.9863v-160c0 -17.6699 -21.5 -32 -48 -32
s-48 14.3301 -48 32s21.5 32 48 32c5.51562 -0.0478516 10.8584 -0.741211 16 -2v76.3604l-96 -37.5205v-100.84c0 -17.6699 -21.5 -32 -48 -32s-48 14.3301 -48 32s21.5 32 48 32z" />
    <glyph glyph-name="computer-classic-primary" unicode="&#xf8b1;" horiz-adv-x="448" 
d="M384 224c0 -17.6611 -14.3389 -32 -32 -32h-256c-17.6611 0 -32 14.3389 -32 32v128c0 17.6611 14.3389 32 32 32h256c17.6611 0 32 -14.3389 32 -32v-128z" />
    <glyph glyph-name="computer-speaker-primary" unicode="&#xf8b2;" horiz-adv-x="640" 
d="M288 32v-16c0.0644531 -18.0264 6.19629 -34.71 16.4102 -48h-176.41c-17.6611 0 -32 14.3389 -32 32s14.3389 32 32 32h160zM0 368c0 26.4922 21.5078 48 48 48h256.41c-10.2139 -13.29 -16.3457 -29.9736 -16.4102 -48v-16h-224v-224h224v-64h-240
c-26.4922 0 -48 21.5078 -48 48v256zM480 288c-17.6611 0 -32 14.3389 -32 32s14.3389 32 32 32s32 -14.3389 32 -32s-14.3389 -32 -32 -32zM480 224c52.9834 0 96 -43.0166 96 -96s-43.0166 -96 -96 -96s-96 43.0166 -96 96s43.0166 96 96 96zM480 80
c26.4922 0 48 21.5078 48 48s-21.5078 48 -48 48s-48 -21.5078 -48 -48s21.5078 -48 48 -48z" />
    <glyph glyph-name="cowbell-primary" unicode="&#xf8b3;" horiz-adv-x="448" 
d="M447.49 -26.3496c0.330078 -1.84375 0.50293 -3.74121 0.50293 -5.67871c0 -17.6611 -14.3389 -32 -32 -32c-0.0214844 0 -0.0419922 0.0283203 -0.0634766 0.0283203h-383.859h-0.0644531c-17.6611 0 -32 14.3389 -32 32c0 1.9375 0.173828 3.80664 0.503906 5.65039
l63.29 352c2.70801 14.96 15.8115 26.3213 31.5469 26.3213c0.00488281 0 0.00878906 0.0283203 0.0136719 0.0283203h257.279h0.0126953c15.7363 0 28.8398 -11.3896 31.5479 -26.3496z" />
    <glyph glyph-name="cowbell-more-primary" unicode="&#xf8b4;" horiz-adv-x="640" 
d="M552 112c4.41504 0 8 -3.58496 8 -8v-16c0 -4.41504 -3.58496 -8 -8 -8h-56v-56c0 -4.41504 -3.58496 -8 -8 -8h-16c-4.41504 0 -8 3.58496 -8 8v56h-56c-4.41504 0 -8 3.58496 -8 8v16c0 4.41504 3.58496 8 8 8h56v56c0 4.41504 3.58496 8 8 8h16
c4.41504 0 8 -3.58496 8 -8v-56h56zM394.7 267.76c-63.2598 -31.4902 -106.92 -96.5498 -106.9 -171.76c0 -66.7402 34.3398 -125.58 86.2705 -160h-342c-0.0214844 0 -0.0419922 -0.0283203 -0.0634766 -0.0283203c-17.6611 0 -32 14.3389 -32 32
c0 1.9375 0.172852 3.83496 0.50293 5.67871l63.3105 352c2.68262 14.9561 15.7725 26.3496 31.4961 26.3496h0.0634766h257.351c0.00390625 0 0.0078125 -0.0283203 0.0126953 -0.0283203c15.7354 0 28.8389 -11.3613 31.5469 -26.3213z" />
    <glyph glyph-name="disc-drive-primary" unicode="&#xf8b5;" 
d="M496 32c8.83105 0 16 -7.16895 16 -16v-32c0 -8.83105 -7.16895 -16 -16 -16h-480c-8.83105 0 -16 7.16895 -16 16v32c0 8.83105 7.16895 16 16 16h16v320c0 35.3223 28.6777 64 64 64h320c35.3223 0 64 -28.6777 64 -64v-320h16zM256 32c88.3066 0 160 71.6934 160 160
s-71.6934 160 -160 160s-160 -71.6934 -160 -160s71.6934 -160 160 -160z" />
    <glyph glyph-name="file-music-primary" unicode="&#xf8b6;" horiz-adv-x="384" 
d="M288 224v-160c0 -17.6699 -21.5 -32 -48 -32s-48 14.3301 -48 32s21.5 32 48 32c5.51562 -0.0478516 10.8584 -0.741211 16 -2v76.3604l-96 -37.5205v-100.84c0 -17.6699 -21.5 -32 -48 -32s-48 14.3301 -48 32s21.5 32 48 32
c5.51562 -0.0478516 10.8584 -0.741211 16 -2v114.75c0.00488281 7.15039 4.70898 13.207 11.1904 15.25l128 47.25c1.51758 0.478516 3.13379 0.736328 4.80859 0.736328c8.82812 0 15.9951 -7.16016 16.001 -15.9863z" />
    <glyph glyph-name="flashlight-primary" unicode="&#xf8b8;" horiz-adv-x="640" 
d="M608 352c17.6611 0 32 -14.3389 32 -32v-256c0 -17.6611 -14.3389 -32 -32 -32h-32v320h32zM288 224c17.6611 0 32 -14.3389 32 -32s-14.3389 -32 -32 -32h-32c-17.6611 0 -32 14.3389 -32 32s14.3389 32 32 32h32z" />
    <glyph glyph-name="flute-primary" unicode="&#xf8b9;" horiz-adv-x="640" 
d="M320 216c13.2461 0 24 -10.7539 24 -24s-10.7539 -24 -24 -24s-24 10.7539 -24 24s10.7539 24 24 24zM0 240c0 17.6611 14.3389 32 32 32h64v-160h-64c-17.6611 0 -32 14.3389 -32 32v96zM416 216c13.2461 0 24 -10.7539 24 -24s-10.7539 -24 -24 -24s-24 10.7539 -24 24
s10.7539 24 24 24zM512 216c13.2461 0 24 -10.7539 24 -24s-10.7539 -24 -24 -24s-24 10.7539 -24 24s10.7539 24 24 24z" />
    <glyph glyph-name="game-console-handheld-primary" unicode="&#xf8bb;" horiz-adv-x="384" 
d="M112 224c-8.83105 0 -16 7.16895 -16 16v128c0 8.83105 7.16895 16 16 16h160c8.83105 0 16 -7.16895 16 -16v-112c0 -17.6611 -14.3389 -32 -32 -32h-144z" />
    <glyph glyph-name="gamepad-alt-primary" unicode="&#xf8bc;" horiz-adv-x="640" 
d="M280 212c0 -6.62305 -5.37695 -12 -12 -12h-52v-52c0 -6.62305 -5.37695 -12 -12 -12h-24c-6.62305 0 -12 5.37695 -12 12v52h-52c-6.62305 0 -12 5.37695 -12 12v24c0 6.62305 5.37695 12 12 12h52v52c0 6.62305 5.37695 12 12 12h24c6.62305 0 12 -5.37695 12 -12v-52
h52c6.62305 0 12 -5.37695 12 -12v-24z" />
    <glyph glyph-name="gramophone-primary" unicode="&#xf8bd;" horiz-adv-x="384" 
d="M368 0c8.83105 0 16 -7.16895 16 -16v-32c0 -8.83105 -7.16895 -16 -16 -16h-352c-8.83105 0 -16 7.16895 -16 16v32c0 8.83105 7.16895 16 16 16h16v32c0 17.6611 14.3389 32 32 32h256c17.6611 0 32 -14.3389 32 -32v-32h16z" />
    <glyph glyph-name="guitar-electric-primary" unicode="&#xf8be;" 
d="M511.21 408.43c0.538086 -2.875 0.818359 -5.7998 0.818359 -8.83008c0 -26.4844 -21.4961 -47.9883 -47.9785 -48c-0.830078 0 -1.58008 0.290039 -2.39941 0.350586l-173 -172.931l-0.0908203 0.0507812l-44.75 45.5996l108.19 108.18v33.2705
c0.0273438 11.3115 5.87598 21.2402 14.7402 26.9502c83.9199 54.1396 83.7402 57.9297 106.68 53.6201c19.1094 -3.84766 34.1729 -19.0693 37.79 -38.2607zM129 117.63l52.6299 -52.6797c1.44727 -1.44824 2.34277 -3.44922 2.34277 -5.65625
s-0.895508 -4.20605 -2.34277 -5.6543l-11.3096 -11.3096c-1.44824 -1.4502 -3.45215 -2.34766 -5.66113 -2.34766c-2.20996 0 -4.21094 0.897461 -5.65918 2.34766l-52.6299 52.6797c-1.44727 1.44824 -2.34277 3.44922 -2.34277 5.65625s0.895508 4.20605 2.34277 5.6543
l11.3203 11.3096c1.44727 1.44727 3.44922 2.34277 5.65527 2.34277c2.20703 0 4.20605 -0.895508 5.6543 -2.34277zM193 181.63l52.6299 -52.6895c1.44727 -1.44824 2.34277 -3.4502 2.34277 -5.65625c0 -2.20703 -0.895508 -4.20605 -2.34277 -5.6543l-11.3096 -11.3096
c-1.44824 -1.4502 -3.45215 -2.34766 -5.66113 -2.34766c-2.20996 0 -4.21094 0.897461 -5.65918 2.34766l-52.6201 52.6895c-1.44727 1.44824 -2.3418 3.44922 -2.3418 5.65625s0.894531 4.20605 2.3418 5.6543l11.3105 11.3096
c1.44727 1.44727 3.44922 2.34277 5.65527 2.34277c2.20703 0 4.20605 -0.895508 5.6543 -2.34277z" />
    <glyph glyph-name="guitars-primary" unicode="&#xf8bf;" 
d="M505.48 47.1797c22.5195 -52.5898 -16.0801 -111.12 -73.3105 -111.18h-96.4102c-57.2197 0 -95.7598 58.4697 -73.1494 111.06l27 73.4805c2.84961 7.74805 4.39062 16.2129 4.39062 24.9443c0 11.0303 -2.4834 21.4854 -6.9209 30.8359
c-4.45508 9.35547 -6.99219 19.8867 -7 30.9297v50.3301l-0.00585938 0.00976562c0 9.65332 7.83691 17.4902 17.4902 17.4902c7.54883 0 13.9883 -4.79297 16.4355 -11.5l13 -35.7598c4.16016 -11.3701 13.7002 -19.2607 25 -22.3701l8 -0.110352v91.6602l-22.8701 22.9297
c-4.91016 4.9375 -7.94141 11.7256 -7.94141 19.2324c0 1.97852 0.210938 3.9082 0.611328 5.76758c17.8506 82.8906 15.4697 85.0898 31.8506 96.2402c6.46094 4.30371 14.2656 6.83105 22.6045 6.83105c22.502 0 40.7695 -18.2686 40.7695 -40.7695
c0 -11.2451 -4.56152 -21.4326 -11.9346 -28.8115c-1.57812 -1.42383 -3.2666 -2.68652 -5.08984 -3.7998v-169.92l8 -0.100586c11.2695 2 21.2598 8.63086 26.6201 19l10.6201 20.5508c3.07031 5.94434 9.26367 9.99316 16.4102 9.99316
c10.1914 0 18.4658 -8.27246 18.4697 -18.4639v-28.3193c-0.00878906 -11.0459 -2.5459 -21.5811 -7 -30.9404c-4.44922 -9.36621 -6.9541 -19.9336 -6.9541 -30.9844c0 -8.71387 1.54785 -17.0693 4.38379 -24.8057zM432 56v16c0 4.41504 -3.58496 8 -8 8h-80
c-4.41504 0 -8 -3.58496 -8 -8v-16c0 -4.41504 3.58496 -8 8 -8h80c4.41504 0 8 3.58496 8 8zM432 120.12v16c0 4.41504 -3.58496 8 -8 8h-80c-4.41504 0 -8 -3.58496 -8 -8v-16c0 -4.41504 3.58496 -8 8 -8h80c4.41504 0 8 3.58496 8 8z" />
    <glyph glyph-name="hat-cowboy-primary" unicode="&#xf8c0;" horiz-adv-x="640" 
d="M499 189.3c-39.1299 -15.5898 -96.79 -29.2998 -179 -29.2998s-139.84 13.7197 -178.94 29.3203c17.04 82.8594 48.3301 194.68 97.6104 194.68c15.7598 0 29.8105 -6.7002 41.6299 -15.7002c11.0068 -8.39355 24.8555 -13.3809 39.7529 -13.3809
s28.6406 4.9873 39.6475 13.3809c11.8193 9.03027 25.8799 15.7002 41.6299 15.7002c49.29 0 80.5898 -111.83 97.6699 -194.7zM633 188.3l-0.0898438 -0.0195312c4.27637 -2.87402 7.07031 -7.75195 7.07031 -13.2871c0 -1.94043 -0.34668 -3.80078 -0.980469 -5.52344
c-0.730469 -2.01953 -77.3203 -201.47 -319 -201.47s-318.27 199.45 -319 201.47c-0.666016 1.75977 -1.03125 3.67285 -1.03125 5.66406c0 8.83008 7.16992 16 16 16c4.20117 0 8.02539 -1.62207 10.8809 -4.27344c1.02051 -0.900391 102.42 -90.8408 293.24 -90.8408
c191.891 0 292.16 89.8809 293.16 90.7803c2.84961 2.61914 6.67188 4.20996 10.8428 4.20996c3.2959 0 6.36035 -0.999023 8.90723 -2.70996z" />
    <glyph glyph-name="hat-cowboy-side-primary" unicode="&#xf8c1;" horiz-adv-x="640" 
d="M354.93 72.46c16.4902 -15.7998 31.6807 -29.9199 46.46 -42.2998c48.3008 -40.4297 92.29 -62.1602 163.41 -62.1602h-491.52c-12.6406 0 -24.4199 7.53027 -32.25 20.6396c-8.08984 13.4707 -10.9004 30.7002 -7.70996 47.3008
c18.04 93.3398 76.9893 156.06 146.68 156.06c31 0 61 -12.1201 86.7197 -35.0596zM495.55 172.87c91.8398 -16.79 112.45 -103.061 112.45 -124.87c0 -26.4697 -19.3799 -48 -43.2002 -48c-79.6201 0 -118.35 29.1201 -187.7 95.5703l-88.21 84.4795
c-32.5801 29.0303 -69.9395 43.9502 -108.89 43.9502c-0.0390625 0 -0.0214844 -0.0146484 -0.0605469 -0.0146484c-12.7822 0 -25.1846 -1.6377 -37.0098 -4.71582l7.57031 74.5303c2.94043 25.4102 23.2598 46.1807 50.3496 51.4805l191.181 37.3799
c35.5498 6.95996 70.2197 -14.79 76.3594 -47.79z" />
    <glyph glyph-name="head-side-headphones-primary" unicode="&#xf8c2;" 
d="M256 340.81c37.75 -18.0098 64 -56.1992 64 -100.81c0 -61.8145 -50.1855 -112 -112 -112s-112 50.1855 -112 112c0 44.5996 26.2695 82.7998 64 100.8v104.32c10.4512 1.83398 21.042 2.81641 32 2.87988h64v-107.19zM208 176c35.3223 0 64 28.6777 64 64
s-28.6777 64 -64 64s-64 -28.6777 -64 -64s28.6777 -64 64 -64zM208 272c17.6611 0 32 -14.3389 32 -32s-14.3389 -32 -32 -32s-32 14.3389 -32 32s14.3389 32 32 32z" />
    <glyph glyph-name="horse-saddle-primary" unicode="&#xf8c3;" horiz-adv-x="576" 
d="M0 200c0 48.5684 39.4316 88 88 88h0.450195c-13.4707 -15.0234 -22.2783 -34.459 -24.0898 -55.7402c-9.93652 -7.26562 -16.3604 -18.9893 -16.3604 -32.2305v-0.0292969v-56c0 -8.83105 -7.16895 -16 -16 -16h-16c-8.83105 0 -16 7.16895 -16 16v56zM160 320h159.91
c0 0.320312 0.0898438 0.610352 0.0898438 0.929688v-32.9297c-0.0615234 -47.4111 -34.7158 -86.8057 -80 -94.3896v-77.8701l-32 5.33008v72.54c-45.2842 7.58398 -79.9385 46.9785 -80 94.3896v25.8301c10 3.66992 20.6504 6.16992 32 6.16992zM511.93 384
c8.83105 0 16 -7.16895 16 -16s-7.16895 -16 -16 -16c-8.83008 0 -16 7.16895 -16 16s7.16992 16 16 16z" />
    <glyph glyph-name="image-polaroid-primary" unicode="&#xf8c4;" horiz-adv-x="448" 
d="M64 352h320v-256h-320v256zM128 320c-17.6611 0 -32 -14.3389 -32 -32s14.3389 -32 32 -32s32 14.3389 32 32s-14.3389 32 -32 32zM96 128h256l-83.2002 110.9c-2.91992 3.89258 -7.55664 6.41309 -12.792 6.41309c-5.23633 0 -9.8877 -2.52051 -12.8076 -6.41309
l-49.3203 -65.75l-20.5703 30.8496c-2.86914 4.30078 -7.74609 7.13672 -13.2998 7.13672s-10.4502 -2.83594 -13.3193 -7.13672z" />
    <glyph glyph-name="joystick-primary" unicode="&#xf8c5;" horiz-adv-x="448" 
d="M416 96c17.6611 0 32 -14.3389 32 -32v-96c0 -17.6611 -14.3389 -32 -32 -32h-384c-17.6611 0 -32 14.3389 -32 32v96c0 17.6611 14.3389 32 32 32h384zM224 224c-61.8145 0 -112 50.1855 -112 112s50.1855 112 112 112s112 -50.1855 112 -112s-50.1855 -112 -112 -112z
M200 400c-13.2461 0 -24 -10.7539 -24 -24s10.7539 -24 24 -24s24 10.7539 24 24s-10.7539 24 -24 24z" />
    <glyph glyph-name="jug-primary" unicode="&#xf8c6;" horiz-adv-x="448" 
d="M448 280c-0.0185547 -29.4639 -17.7178 -54.7764 -43.0996 -65.9004c6.95605 -15.5645 10.9492 -32.8965 11.0996 -51v-3.09961h-383.95v3.05957c0 0.0341797 0.0478516 0.157227 0.0478516 0.191406c0 30.1709 10.4619 57.9189 27.9521 79.8086l76.9502 96.1602
c4.37305 5.47266 7 12.4316 7 19.9746v0.0253906v24.7803h160v-24.7695c0 -0.00878906 0.0117188 -0.0400391 0.0117188 -0.0478516c0 -7.54297 2.61523 -14.4805 6.98828 -19.9521l10.3203 -12.8809c13.1602 15.6982 32.8926 25.6484 54.96 25.6484
c39.584 0 71.7207 -32.1367 71.7207 -71.7197c0 -0.0927734 -0.000976562 -0.185547 -0.000976562 -0.27832zM377.38 256.28c12.5293 0.725586 22.498 11.1299 22.498 23.8398c0 13.1787 -10.6992 23.8789 -23.8779 23.8799c-11 0 -19.8604 -7.54004 -22.71 -17.6201zM32 0
v32h384v-32c0 -35.3223 -28.6777 -64 -64 -64h-256c-35.3223 0 -64 28.6777 -64 64z" />
    <glyph glyph-name="kazoo-primary" unicode="&#xf8c7;" horiz-adv-x="640" 
d="M448 336c79.4756 0 144 -64.5244 144 -144s-64.5244 -144 -144 -144s-144 64.5244 -144 144s64.5244 144 144 144zM448 96c52.9834 0 96 43.0166 96 96s-43.0166 96 -96 96s-96 -43.0166 -96 -96s43.0166 -96 96 -96z" />
    <glyph glyph-name="lasso-primary" unicode="&#xf8c8;" horiz-adv-x="576" 
d="M256 127.38c0 -35.21 -35.8203 -63.7598 -80 -63.7598s-80 28.5498 -80 63.7598s35.8203 63.7598 80 63.7598s80 -28.5498 80 -63.7598z" />
    <glyph glyph-name="list-music-primary" unicode="&#xf8c9;" 
d="M192 16c0 44.1797 50.1396 80 112 80c16.7803 -0.0146484 32.9502 -2.85449 48 -8v299.66c0.0126953 14.3086 9.43652 26.4248 22.4102 30.5l96.5303 28.5098c2.87402 0.848633 5.91211 1.30859 9.05957 1.30859c17.6543 0 31.9883 -14.3271 32 -31.9785v-64.0498
c0 -14.5361 -9.7168 -26.8174 -23 -30.71l-73 -21.3906v-283.85c0 -44.1797 -50.1396 -80 -112 -80s-112 35.8203 -112 80z" />
    <glyph glyph-name="microphone-stand-primary" unicode="&#xf8cb;" 
d="M289.54 387.47l2.17969 2.19043l161.94 -161.92l-2.19043 -2.18066c-23.8398 -23.8594 -55.5596 -34.5791 -86.7695 -33l-108.16 108.141c-1.55957 31.2197 9.16016 62.9297 33 86.7695zM478.46 414.47c20.7285 -20.7246 33.5576 -49.3916 33.5576 -80.9902
s-12.8291 -60.2246 -33.5576 -80.9492l-2.17969 -2.18066l-161.94 161.94l2.19043 2.17969c20.7246 20.7295 49.3818 33.5576 80.9805 33.5576s60.2246 -12.8281 80.9492 -33.5576zM224 -64v126.07l64 56.4893v-182.56h-64z" />
    <glyph glyph-name="mouse-primary" unicode="&#xf8cc;" horiz-adv-x="384" 
d="M384 256v-32h-384v32h176v192h32v-192h176z" />
    <glyph glyph-name="mouse-alt-primary" unicode="&#xf8cd;" horiz-adv-x="384" 
d="M224 288c0 -17.6611 -14.3389 -32 -32 -32s-32 14.3389 -32 32v32c0 17.6611 14.3389 32 32 32s32 -14.3389 32 -32v-32z" />
    <glyph glyph-name="mp3-player-primary" unicode="&#xf8ce;" horiz-adv-x="384" 
d="M64 384h256v-128h-256v128zM192 192c52.9834 0 96 -43.0166 96 -96s-43.0166 -96 -96 -96s-96 43.0166 -96 96s43.0166 96 96 96zM192 64c17.6611 0 32 14.3389 32 32s-14.3389 32 -32 32s-32 -14.3389 -32 -32s14.3389 -32 32 -32z" />
    <glyph glyph-name="music-alt-primary" unicode="&#xf8cf;" horiz-adv-x="384" 
d="M256 16c0 -44.1797 -50.1396 -80 -112 -80s-112 35.8203 -112 80s50.1396 80 112 80c16.7803 -0.0146484 32.9502 -2.85449 48 -8v299.66c0.0126953 14.3086 9.43652 26.4248 22.4102 30.5l41.5898 12.2803v-414.44z" />
    <glyph glyph-name="music-alt-slash-primary" unicode="&#xf8d0;" horiz-adv-x="640" 
d="M633.82 -10.0996c3.76562 -2.92871 6.1709 -7.50781 6.1709 -12.6426c0 -3.69434 -1.25488 -7.09863 -3.36133 -9.80762l-19.6299 -25.2705c-2.92773 -3.77051 -7.51074 -6.18066 -12.6504 -6.18066c-3.69922 0 -7.1084 1.25879 -9.81934 3.37109l-588.351 454.71
c-3.76562 2.92871 -6.1709 7.50781 -6.1709 12.6426c0 3.69434 1.25488 7.09766 3.36133 9.80762l19.6299 25.2695c2.92773 3.77148 7.51074 6.18066 12.6504 6.18066c3.69922 0 7.1084 -1.25879 9.81934 -3.37012z" />
    <glyph glyph-name="music-slash-primary" unicode="&#xf8d1;" horiz-adv-x="640" 
d="M633.82 -10.0996c3.76562 -2.92871 6.1709 -7.50781 6.1709 -12.6426c0 -3.69434 -1.25488 -7.09863 -3.36133 -9.80762l-19.6299 -25.2705c-2.92773 -3.77051 -7.51074 -6.18066 -12.6504 -6.18066c-3.69922 0 -7.1084 1.25879 -9.81934 3.37109l-588.351 454.71
c-3.76562 2.92871 -6.1709 7.50781 -6.1709 12.6426c0 3.69434 1.25488 7.09766 3.36133 9.80762l19.6299 25.2695c2.92773 3.77148 7.51074 6.18066 12.6504 6.18066c3.69922 0 7.1084 -1.25879 9.81934 -3.37012z" />
    <glyph glyph-name="phone-rotary-primary" unicode="&#xf8d3;" 
d="M475.78 71.3799c2.6709 -4.67285 4.21875 -10.1162 4.21973 -15.8799v-55.5c0 -17.6611 -14.3389 -32 -32 -32h-384c-17.6611 0 -32 14.3389 -32 32v55.5c0.000976562 5.76367 1.54883 11.207 4.21973 15.8799l105.351 184.37
c11.0264 19.2988 31.7695 32.25 55.5693 32.25h117.721c23.7998 0 44.543 -12.9512 55.5693 -32.25zM256 64c39.7383 0 72 32.2617 72 72s-32.2617 72 -72 72s-72 -32.2617 -72 -72s32.2617 -72 72 -72z" />
    <glyph glyph-name="piano-keyboard-primary" unicode="&#xf8d5;" horiz-adv-x="576" 
d="M576 352v-128h-112v-80c0 -8.83105 -7.16895 -16 -16 -16h-32c-8.83105 0 -16 7.16895 -16 16v80h-80v-80c0 -8.83105 -7.16895 -16 -16 -16h-32c-8.83105 0 -16 7.16895 -16 16v80h-80v-80c0 -8.83105 -7.16895 -16 -16 -16h-32c-8.83105 0 -16 7.16895 -16 16v80h-112
v128c0 17.6611 14.3389 32 32 32h512c17.6611 0 32 -14.3389 32 -32z" />
    <glyph glyph-name="projector-primary" unicode="&#xf8d6;" horiz-adv-x="640" 
d="M96 160c17.6611 0 32 -14.3389 32 -32s-14.3389 -32 -32 -32s-32 14.3389 -32 32s14.3389 32 32 32zM432 272c79.4756 0 144 -64.5244 144 -144s-64.5244 -144 -144 -144s-144 64.5244 -144 144s64.5244 144 144 144zM432 32c52.9482 0.0771484 95.9229 43.0518 96 96
c0 52.9834 -43.0166 96 -96 96s-96 -43.0166 -96 -96s43.0166 -96 96 -96z" />
    <glyph glyph-name="radio-primary" unicode="&#xf8d7;" 
d="M511.4 420.95c0.388672 -1.38086 0.595703 -2.83105 0.595703 -4.33496c0 -7.3291 -4.93848 -13.5137 -11.666 -15.4053l-288.83 -81.21h-147.5l423.33 127.4c1.38086 0.388672 2.83105 0.595703 4.33496 0.595703c7.3291 0 13.5137 -4.93848 15.4053 -11.666zM352 224
c52.9834 0 96 -43.0166 96 -96s-43.0166 -96 -96 -96s-96 43.0166 -96 96s43.0166 96 96 96zM352 80c26.4795 0.0273438 47.9727 21.5205 48 48c0 26.4922 -21.5078 48 -48 48s-48 -21.5078 -48 -48s21.5078 -48 48 -48z" />
    <glyph glyph-name="radio-alt-primary" unicode="&#xf8d8;" 
d="M511.4 420.95c0.388672 -1.38086 0.595703 -2.83105 0.595703 -4.33496c0 -7.3291 -4.93848 -13.5137 -11.666 -15.4053l-288.83 -81.21h-147.5l423.33 127.4c1.38086 0.388672 2.83105 0.595703 4.33496 0.595703c7.3291 0 13.5137 -4.93848 15.4053 -11.666zM64 192v64
h384v-64h-384zM368 144c44.1533 0 80 -35.8467 80 -80s-35.8467 -80 -80 -80s-80 35.8467 -80 80s35.8467 80 80 80zM368 32c17.6611 0 32 14.3389 32 32s-14.3389 32 -32 32s-32 -14.3389 -32 -32s14.3389 -32 32 -32z" />
    <glyph glyph-name="record-vinyl-primary" unicode="&#xf8d9;" 
d="M256 440c137 0 248 -111 248 -248s-111 -248 -248 -248s-248 111 -248 248s111 248 248 248zM256 64c70.6455 0 128 57.3545 128 128s-57.3545 128 -128 128s-128 -57.3545 -128 -128s57.3545 -128 128 -128z" />
    <glyph glyph-name="router-primary" unicode="&#xf8da;" horiz-adv-x="576" 
d="M528 128c26.4922 0 48 -21.5078 48 -48v-96c0 -26.4922 -21.5078 -48 -48 -48h-480c-26.4922 0 -48 21.5078 -48 48v96c0 26.4922 21.5078 48 48 48h280v80c0 8.83105 7.16895 16 16 16h16c8.83105 0 16 -7.16895 16 -16v-80h152zM96 0c17.6611 0 32 14.3389 32 32
s-14.3389 32 -32 32s-32 -14.3389 -32 -32s14.3389 -32 32 -32zM192 0c17.6611 0 32 14.3389 32 32s-14.3389 32 -32 32s-32 -14.3389 -32 -32s14.3389 -32 32 -32z" />
    <glyph glyph-name="sax-hot-primary" unicode="&#xf8db;" horiz-adv-x="640" 
d="M320 235.31c2.89844 2.91211 6.91309 4.71484 11.3418 4.71484c4.41406 0 8.41211 -1.79004 11.3086 -4.68457l10.3496 -10.3398l-34 -34l-10.3096 10.3701c-2.89746 2.89648 -4.69043 6.90137 -4.69043 11.3174s1.79297 8.41602 4.69043 11.3125zM177.77 422.4
c36.2305 -33.6309 62.2305 -88.5703 62.2305 -115.2c-0.155273 -12.2637 -2.23145 -24.1191 -5.88965 -35.2002h-61.3408c7.03809 9.92969 11.21 22.1143 11.2109 35.2002c-0.380859 4.37988 -3.85059 14.5195 -9.9209 26.6201l-27.0596 -33.0801l-42.6504 58.7793
c-1.25977 1.74023 -2.55664 3.48047 -3.88965 5.2207c-19.7998 -27.2402 -28.46 -49.9199 -28.46 -57.54c0.00683594 -13.0879 4.18555 -25.2725 11.2305 -35.2002h-61.3408c-3.6582 11.0811 -5.73438 22.9365 -5.88965 35.2002c0 35.7998 34.8799 95.2197 84 140.8
c18.4053 -16.9844 34.8301 -35.3633 49.6699 -55.5996c8.73926 10.7051 17.9961 20.5879 28.0996 30zM368 283.31c2.89844 2.91211 6.91309 4.71484 11.3418 4.71484c4.41406 0 8.41211 -1.79004 11.3086 -4.68457l10.3496 -10.3398l-34 -34l-10.3096 10.3701
c-2.89746 2.89648 -4.69043 6.90137 -4.69043 11.3174s1.79297 8.41602 4.69043 11.3125zM438.62 331.31l10.3799 -10.3096l-34 -34l-10.3096 10.3701c-2.89746 2.89648 -4.69043 6.90137 -4.69043 11.3174s1.79297 8.41602 4.69043 11.3125l11.3096 11.3096
c2.89551 2.89453 6.89844 4.68555 11.3125 4.68555c4.41309 0 8.41211 -1.79102 11.3076 -4.68555z" />
    <glyph glyph-name="saxophone-primary" unicode="&#xf8dc;" horiz-adv-x="640" 
d="M320 267.31c2.89844 2.91504 6.91602 4.7207 11.3467 4.7207c4.41602 0 8.41699 -1.79297 11.3135 -4.69043l10.3398 -10.3398l-34 -34l-10.3096 10.3701c-2.89746 2.89648 -4.69043 6.90137 -4.69043 11.3174s1.79297 8.41602 4.69043 11.3125zM438.63 363.31
l10.3701 -10.3096l-34 -34l-10.3096 10.3701c-2.89746 2.89648 -4.69043 6.90137 -4.69043 11.3174s1.79297 8.41602 4.69043 11.3125l11.3096 11.3096c2.89648 2.89746 6.90137 4.69043 11.3174 4.69043s8.41602 -1.79297 11.3125 -4.69043zM368 315.31
c2.89844 2.91504 6.91602 4.7207 11.3467 4.7207c4.41602 0 8.41699 -1.79297 11.3135 -4.69043l10.3398 -10.3398l-34 -34l-10.3096 10.3701c-2.89746 2.89648 -4.69043 6.90137 -4.69043 11.3174s1.79297 8.41602 4.69043 11.3125zM96 152c13.2461 0 24 -10.7539 24 -24
s-10.7539 -24 -24 -24s-24 10.7539 -24 24s10.7539 24 24 24zM128 248c13.2461 0 24 -10.7539 24 -24s-10.7539 -24 -24 -24s-24 10.7539 -24 24s10.7539 24 24 24z" />
    <glyph glyph-name="signal-stream-primary" unicode="&#xf8dd;" horiz-adv-x="576" 
d="M288 248c30.9072 0 56 -25.0928 56 -56s-25.0928 -56 -56 -56s-56 25.0928 -56 56s25.0928 56 56 56zM64 192c0 -0.101562 0.0244141 -0.283203 0.0244141 -0.384766c0 -55.2803 20.9756 -105.699 55.3955 -143.726c5.58984 -6.21973 4.91992 -15.7393 -1.08008 -21.5898
l-22.3398 -21.8193c-2.94238 -2.79297 -6.9209 -4.51465 -11.293 -4.51465c-4.87695 0 -9.25977 2.13184 -12.2666 5.51465c-46.8506 51.5195 -72.4404 117.079 -72.4404 186.52s25.5898 135 72.4404 186.47c3.00684 3.38281 7.3916 5.50684 12.2686 5.50684
c4.37305 0 8.34863 -1.71387 11.291 -4.50684l22.3398 -21.8193c5.99023 -5.85059 6.66992 -15.3701 1.08008 -21.5908c-34.4199 -38.0264 -55.4199 -88.5264 -55.4199 -143.806v-0.253906zM503.56 378.52c46.8506 -51.5195 72.4404 -117.079 72.4404 -186.52
s-25.5898 -135 -72.4404 -186.47c-3.00684 -3.38281 -7.3916 -5.50684 -12.2686 -5.50684c-4.37305 0 -8.34863 1.71387 -11.291 4.50684l-22.3398 21.8193c-5.99023 5.85059 -6.66992 15.3701 -1.08008 21.5908c34.4229 38.1191 55.3926 88.792 55.3926 144.147
s-20.9697 105.853 -55.3926 143.972c-5.58984 6.2207 -4.91992 15.7402 1.08008 21.5908l22.3398 21.8691c2.94238 2.79297 6.9209 4.51465 11.293 4.51465c4.87695 0 9.25977 -2.13184 12.2666 -5.51465z" />
    <glyph glyph-name="speaker-primary" unicode="&#xf8df;" horiz-adv-x="384" 
d="M192 224c61.8145 0 112 -50.1855 112 -112s-50.1855 -112 -112 -112s-112 50.1855 -112 112s50.1855 112 112 112zM192 48c35.3223 0 64 28.6777 64 64s-28.6777 64 -64 64s-64 -28.6777 -64 -64s28.6777 -64 64 -64zM192 288c-26.4922 0 -48 21.5078 -48 48
s21.5078 48 48 48s48 -21.5078 48 -48s-21.5078 -48 -48 -48z" />
    <glyph glyph-name="speakers-primary" unicode="&#xf8e0;" horiz-adv-x="640" 
d="M64 112c0 0.0361328 0.0078125 0.0927734 0.0078125 0.128906c0 61.7539 50.1367 111.891 111.891 111.891c31.3877 0 59.7744 -12.9521 80.1016 -33.7998v-156.439c-20.3271 -20.8477 -48.7217 -33.7783 -80.1104 -33.7783c-61.7539 0 -111.89 50.1357 -111.89 111.89
v0.108398zM240 112c0 35.3223 -28.6777 64 -64 64s-64 -28.6777 -64 -64s28.6777 -64 64 -64s64 28.6777 64 64zM464 224c61.8145 0 112 -50.1855 112 -112s-50.1855 -112 -112 -112s-112 50.1855 -112 112s50.1855 112 112 112zM464 48c35.3223 0 64 28.6777 64 64
s-28.6777 64 -64 64s-64 -28.6777 -64 -64s28.6777 -64 64 -64zM464 288c-26.4922 0 -48 21.5078 -48 48s21.5078 48 48 48s48 -21.5078 48 -48s-21.5078 -48 -48 -48zM176 288c-26.4922 0 -48 21.5078 -48 48s21.5078 48 48 48s48 -21.5078 48 -48s-21.5078 -48 -48 -48z
" />
    <glyph glyph-name="triangle-music-primary" unicode="&#xf8e2;" 
d="M500 -14.9199c-16.4766 -29.3408 -47.8965 -49.1826 -83.9131 -49.1826c-0.0947266 0 -0.123047 0.102539 -0.216797 0.102539h-319.74h-0.283203c-36.0166 0 -67.3701 19.7393 -83.8467 49.0801c-7.61816 13.4395 -11.9697 28.9697 -11.9697 45.5088
c0 18.0439 5.17871 35.084 14.1299 49.3213l159.859 258.7c11.7207 19 29.5508 32.2197 50 39.3398v54.0498c0 8.82422 7.15918 15.9893 15.9805 16h32c8.83105 0 16 -7.16895 16 -16v-54.0498c20.4102 -7.12012 38.2402 -20.3701 50 -39.3398l36.1602 -58.5303
l-46.4805 -46.5l-44.1094 71.3701c-8.40039 13.5801 -22 15.0498 -27.5205 15.0498c-5.51953 0 -19.1201 -1.46973 -27.5195 -15.0498l-159.92 -258.7c-2.86035 -4.49316 -4.5166 -9.82422 -4.5166 -15.54c0 -5.23926 1.39258 -10.2168 3.82617 -14.46
c5.42676 -9.71387 15.8115 -16.2881 27.7197 -16.2881c0.173828 0 0.317383 0.0351562 0.490234 0.0380859h319.74c0.176758 -0.00292969 0.353516 -0.00390625 0.530273 -0.00390625c11.9004 0 22.25 6.53125 27.6797 16.2344
c2.43359 4.24316 3.82617 9.15918 3.82617 14.3975c0 5.71582 -1.65625 11.1094 -4.5166 15.6025l-89.8398 145.409l46.4502 46.4902l97.7695 -158.22c8.97461 -14.25 14.167 -31.1152 14.167 -49.1846c0 -16.5146 -4.33887 -32.2197 -11.9365 -45.6455z" />
    <glyph glyph-name="trumpet-primary" unicode="&#xf8e3;" horiz-adv-x="640" 
d="M640 368v-288c0 -12 -10.8096 -16 -16 -16c-5.34375 0.0361328 -10.0703 2.64746 -13 6.66992c-20.0654 25.9795 -41.9199 49.6406 -66.1904 71.6797c-15.3799 13 -32.9297 25.6602 -52.54 36c-5.5498 2.93066 -25.75 13.6006 -60 13.6309h-384.27
c0 -8.83105 -7.16895 -16 -16 -16h-16c-8.83105 0 -16 7.16895 -16 16v0.0195312v64c0 8.83105 7.16895 16 16 16h16c8.83105 0 16 -7.16895 16 -16h384.27c34.25 0 54.4502 10.6904 60 13.6299c19.6104 10.3506 37.1602 23.0498 52.54 36
c24.2715 22.0449 46.126 45.7139 66.1904 71.7002c2.93457 4.0166 7.65918 6.625 13 6.66992c5.19043 0 16 -4 16 -16z" />
    <glyph glyph-name="turntable-primary" unicode="&#xf8e4;" horiz-adv-x="576" 
d="M504 352c4.41504 0 8 -3.58496 8 -8v-163.82c0 -0.00390625 -0.0371094 -0.0693359 -0.0371094 -0.0732422c0 -10.2637 -2.4209 -19.9658 -6.72266 -28.5664l-18.9307 -37.8604c5.25195 -2.625 8.83691 -8.06055 8.83691 -14.3262
c0 -2.5625 -0.603516 -4.98535 -1.67676 -7.13379l-25.6895 -51.3799c-2.625 -5.25391 -8.06152 -8.83984 -14.3291 -8.83984c-2.56543 0 -4.99121 0.604492 -7.1416 1.67969l-28.6191 14.3203c-5.25195 2.625 -8.83691 8.06055 -8.83691 14.3271
c0 2.5625 0.603516 4.98438 1.67676 7.13281l25.6895 51.3799c2.625 5.25391 8.06152 8.84082 14.3291 8.84082c2.56543 0 4.99121 -0.605469 7.1416 -1.68066l18.9297 37.8799c2.15039 4.29883 3.37891 9.17969 3.37988 14.3105v163.81c0 4.41504 3.58496 8 8 8h16z
M224 352c88.3066 0 160 -71.6934 160 -160s-71.6934 -160 -160 -160s-160 71.6934 -160 160s71.6934 160 160 160zM224 160c17.6611 0 32 14.3389 32 32s-14.3389 32 -32 32s-32 -14.3389 -32 -32s14.3389 -32 32 -32z" />
    <glyph glyph-name="tv-alt-primary" unicode="&#xf8e5;" horiz-adv-x="640" 
d="M576 96h-512v288h512v-288z" />
    <glyph glyph-name="tv-music-primary" unicode="&#xf8e6;" horiz-adv-x="640" 
d="M512 0c17.6611 0 32 -14.3389 32 -32s-14.3389 -32 -32 -32h-384c-17.6611 0 -32 14.3389 -32 32s14.3389 32 32 32h384zM592 448c26.4922 0 48 -21.5078 48 -48v-320c0 -26.4922 -21.5078 -48 -48 -48h-544c-26.4922 0 -48 21.5078 -48 48v320
c0 26.4922 21.5078 48 48 48h544zM576 96v288h-512v-288h512zM240 128c-26.5 0 -48 14.3301 -48 32s21.5 32 48 32c5.51562 -0.0478516 10.8584 -0.741211 16 -2v98.75c0.00488281 7.15039 4.70898 13.207 11.1904 15.25l128 47.25
c1.51758 0.478516 3.13379 0.740234 4.80957 0.740234c8.82715 0 15.9941 -7.16406 16 -15.9902v-144c0 -17.6699 -21.5 -32 -48 -32s-48 14.3301 -48 32s21.5 32 48 32c5.51562 -0.0478516 10.8584 -0.741211 16 -2v60.3604l-96 -37.5205v-84.8398
c0 -17.6699 -21.5 -32 -48 -32z" />
    <glyph glyph-name="typewriter-primary" unicode="&#xf8e7;" 
d="M368 352c-8.83105 0 -16 7.16895 -16 16v80h4.57031c0.0146484 0 0.03125 0.00195312 0.046875 0.00195312c4.95508 0 9.44629 -2.00684 12.7031 -5.25195l73.4297 -73.5c3.24414 -3.24316 5.24902 -7.72559 5.25 -12.6699v-4.58008h-80zM480 256
c17.6611 0 32 -14.3389 32 -32v-32c0 -17.6611 -14.3389 -32 -32 -32v-160c0 -35.3223 -28.6777 -64 -64 -64h-320c-35.3223 0 -64 28.6777 -64 64v160c-17.6611 0 -32 14.3389 -32 32v32c0 17.6611 14.3389 32 32 32h114.75
c8.82715 -0.000976562 16.8291 -3.58008 22.6201 -9.37012l13.2598 -13.2598c5.79102 -5.79004 13.793 -9.36914 22.6201 -9.37012h101.5c8.82715 0.000976562 16.8291 3.58008 22.6201 9.37012l13.2598 13.2598c5.79102 5.79004 13.793 9.36914 22.6201 9.37012h114.75z
M336 152v-16c0 -4.41504 3.58496 -8 8 -8h16c4.41504 0 8 3.58496 8 8v16c0 4.41504 -3.58496 8 -8 8h-16c-4.41504 0 -8 -3.58496 -8 -8zM312 96c-4.41504 0 -8 -3.58496 -8 -8v-16c0 -4.41504 3.58496 -8 8 -8h16c4.41504 0 8 3.58496 8 8v16c0 4.41504 -3.58496 8 -8 8
h-16zM272 152v-16c0 -4.41504 3.58496 -8 8 -8h16c4.41504 0 8 3.58496 8 8v16c0 4.41504 -3.58496 8 -8 8h-16c-4.41504 0 -8 -3.58496 -8 -8zM248 96c-4.41504 0 -8 -3.58496 -8 -8v-16c0 -4.41504 3.58496 -8 8 -8h16c4.41504 0 8 3.58496 8 8v16
c0 4.41504 -3.58496 8 -8 8h-16zM208 152v-16c0 -4.41504 3.58496 -8 8 -8h16c4.41504 0 8 3.58496 8 8v16c0 4.41504 -3.58496 8 -8 8h-16c-4.41504 0 -8 -3.58496 -8 -8zM184 96c-4.41504 0 -8 -3.58496 -8 -8v-16c0 -4.41504 3.58496 -8 8 -8h16c4.41504 0 8 3.58496 8 8
v16c0 4.41504 -3.58496 8 -8 8h-16zM144 152v-16c0 -4.41504 3.58496 -8 8 -8h16c4.41504 0 8 3.58496 8 8v16c0 4.41504 -3.58496 8 -8 8h-16c-4.41504 0 -8 -3.58496 -8 -8zM104 128c4.41504 0 8 3.58496 8 8v16c0 4.41504 -3.58496 8 -8 8h-16
c-4.41504 0 -8 -3.58496 -8 -8v-16c0 -4.41504 3.58496 -8 8 -8h16zM136 64c4.41504 0 8 3.58496 8 8v16c0 4.41504 -3.58496 8 -8 8h-16c-4.41504 0 -8 -3.58496 -8 -8v-16c0 -4.41504 3.58496 -8 8 -8h16zM368 8v16c0 4.41504 -3.58496 8 -8 8h-208
c-4.41504 0 -8 -3.58496 -8 -8v-16c0 -4.41504 3.58496 -8 8 -8h208c4.41504 0 8 3.58496 8 8zM400 72v16c0 4.41504 -3.58496 8 -8 8h-16c-4.41504 0 -8 -3.58496 -8 -8v-16c0 -4.41504 3.58496 -8 8 -8h16c4.41504 0 8 3.58496 8 8zM432 136v16c0 4.41504 -3.58496 8 -8 8
h-16c-4.41504 0 -8 -3.58496 -8 -8v-16c0 -4.41504 3.58496 -8 8 -8h16c4.41504 0 8 3.58496 8 8z" />
    <glyph glyph-name="usb-drive-primary" unicode="&#xf8e9;" horiz-adv-x="640" 
d="M448 336v-288c0 -8.83105 -7.16895 -16 -16 -16h-368c-35.3223 0 -64 28.6777 -64 64v192c0 35.3223 28.6777 64 64 64h368c8.83105 0 16 -7.16895 16 -16z" />
    <glyph glyph-name="user-cowboy-primary" unicode="&#xf8ea;" horiz-adv-x="448" 
d="M313.59 64c56.9619 0 105.611 -35.6006 124.91 -85.7998c7.88965 -20.3906 -8.53027 -42.2002 -30.4004 -42.2002h-368.1c-21.9199 0 -38.3398 21.8096 -30.4502 42.2002c19.2939 50.1855 67.9189 85.7793 124.86 85.7998h16.6797
c22.1455 -10.2109 47.0908 -15.9082 73.0596 -15.9082c25.9678 0 50.6152 5.69727 72.7607 15.9082h16.6797zM342.5 334.44c-26.1396 -10.1709 -64.3203 -19.0107 -118.5 -19.0107c-53.25 0 -91 8.57031 -117.08 18.4805c11.0205 49.5996 31.6299 114.09 64.5098 114.09
c10.3301 0 19.5703 -4.4502 27.3008 -10.4697c7.18262 -5.58594 16.2715 -8.91406 26.0674 -8.91406c9.79492 0 18.8193 3.32812 26.002 8.91406c7.75 6.01953 16.9697 10.4697 27.2998 10.4697c32.7705 0 53.3408 -64 64.4004 -113.56zM438.5 350.2
c7.62988 -3.58008 11.3203 -11.7305 8.62988 -19.2705c-0.519531 -1.38965 -51.8799 -138.93 -223.13 -138.93s-222.6 137.54 -223.12 138.93c-2.71973 7.60059 1.03027 15.9102 8.79004 19.4404c2.28711 1.05273 4.83887 1.66309 7.51953 1.66309
c5.80859 0 10.9785 -2.75684 14.2705 -7.0332c0.94043 -1.20996 45.6602 -61.5703 192.54 -61.5898c147.74 0 192.12 61.0195 192.55 61.5898c3.33496 4.21094 8.50098 6.89062 14.2842 6.89062c2.73828 0 5.33594 -0.605469 7.66602 -1.69043z" />
    <glyph glyph-name="user-music-primary" unicode="&#xf8eb;" horiz-adv-x="640" 
d="M598.94 350.67c2.87402 0.848633 5.91211 1.30859 9.05957 1.30859c17.6543 0 31.9883 -14.3271 32 -31.9785v-64.0498c0 -14.5361 -9.7168 -26.8174 -23 -30.71l-73 -21.3906v-187.85c0 -44.1797 -50.1396 -80 -112 -80s-112 35.8203 -112 80s50.1396 80 112 80
c16.7803 -0.0146484 32.9502 -2.85449 48 -8v203.66c0.0126953 14.3086 9.43652 26.4248 22.4102 30.5z" />
    <glyph glyph-name="vhs-primary" unicode="&#xf8ec;" 
d="M496 384c8.83105 0 16 -7.16895 16 -16v-80h-512v80c0 8.83105 7.16895 16 16 16h480zM384 224h48.8604c19.1396 -21.2598 31.1396 -49.1299 31.1396 -80s-12 -58.7305 -31.1396 -80h-48.8604v34.9404c18.626 6.50586 32.0029 24.2119 32.0029 45.0459
c0 20.833 -13.377 38.5674 -32.0029 45.0732v34.9404zM48 144c0 30.8701 12 58.7305 31.1396 80h48.8604v-34.9404c-18.626 -6.50586 -32.0029 -24.2119 -32.0029 -45.0459c0 -20.833 13.377 -38.5674 32.0029 -45.0732v-34.9404h-48.8604
c-19.1396 21.2598 -31.1396 49.1201 -31.1396 80z" />
    <glyph glyph-name="violin-primary" unicode="&#xf8ed;" horiz-adv-x="640" 
d="M224.16 45.6104l13.4502 -13.4199c2.89648 -2.89648 4.67773 -6.91504 4.67773 -11.3311c0 -3.27539 -0.986328 -6.32227 -2.67773 -8.85938l-45.9004 -68.8701c-2.86914 -4.30176 -7.75879 -7.12402 -13.3135 -7.12402c-4.41211 0 -8.41113 1.79102 -11.3066 4.68457
l-36.3994 36.3994c-2.89355 2.89551 -4.69824 6.88672 -4.69824 11.2998c0 5.55371 2.83594 10.4512 7.1377 13.3203l68.8398 45.9004c2.53711 1.69141 5.60254 2.68945 8.87793 2.68945c4.41602 0 8.41602 -1.79297 11.3125 -4.68945zM336 443.31l11.3096 -11.3096
c2.89453 -2.89551 4.68555 -6.89844 4.68555 -11.3125c0 -4.41309 -1.79102 -8.41211 -4.68555 -11.3076l-308.689 -308.689c-2.89551 -2.89453 -6.89941 -4.68555 -11.3125 -4.68555s-8.41211 1.79102 -11.3076 4.68555l-11.3096 11.3096
c-2.89453 2.89551 -4.68555 6.89844 -4.68555 11.3125c0 4.41309 1.79102 8.41211 4.68555 11.3076l308.689 308.689c2.89551 2.89453 6.89941 4.68555 11.3125 4.68555s8.41211 -1.79102 11.3076 -4.68555zM635.31 420.69
c2.89746 -2.89648 4.69043 -6.90137 4.69043 -11.3174s-1.79297 -8.41699 -4.69043 -11.3135l-217.369 -217.369c-2.89648 -2.89746 -6.90137 -4.69043 -11.3174 -4.69043s-8.41699 1.79297 -11.3135 4.69043l-22.6191 22.6191
c-2.89746 2.89648 -4.69043 6.90137 -4.69043 11.3174s1.79297 8.41699 4.69043 11.3135l217.369 217.369c2.89648 2.89746 6.90137 4.69043 11.3174 4.69043s8.41699 -1.79297 11.3135 -4.69043z" />
    <glyph glyph-name="walkie-talkie-primary" unicode="&#xf8ef;" horiz-adv-x="384" 
d="M112 432v-80h-48v80c0 8.83105 7.16895 16 16 16h16c8.83105 0 16 -7.16895 16 -16zM280 160c4.41504 0 8 -3.58496 8 -8v-16c0 -4.41504 -3.58496 -8 -8 -8h-176c-4.41504 0 -8 3.58496 -8 8v16c0 4.41504 3.58496 8 8 8h176zM280 224c4.41504 0 8 -3.58496 8 -8v-16
c0 -4.41504 -3.58496 -8 -8 -8h-176c-4.41504 0 -8 3.58496 -8 8v16c0 4.41504 3.58496 8 8 8h176zM280 288c4.41504 0 8 -3.58496 8 -8v-16c0 -4.41504 -3.58496 -8 -8 -8h-176c-4.41504 0 -8 3.58496 -8 8v16c0 4.41504 3.58496 8 8 8h176z" />
    <glyph glyph-name="watch-calculator-primary" unicode="&#xf8f0;" horiz-adv-x="384" 
d="M64 -32v48h256v-48c0 -17.6611 -14.3389 -32 -32 -32h-192c-17.6611 0 -32 14.3389 -32 32zM288 448c17.6611 0 32 -14.3389 32 -32v-48h-256v48c0 17.6611 14.3389 32 32 32h192zM72 80v32c0 4.41504 3.58496 8 8 8h32c4.41504 0 8 -3.58496 8 -8v-32
c0 -4.41504 -3.58496 -8 -8 -8h-32c-4.41504 0 -8 3.58496 -8 8zM80 168c-4.41504 0 -8 3.58496 -8 8v32c0 4.41504 3.58496 8 8 8h32c4.41504 0 8 -3.58496 8 -8v-32c0 -4.41504 -3.58496 -8 -8 -8h-32zM168 80v32c0 4.41504 3.58496 8 8 8h32c4.41504 0 8 -3.58496 8 -8
v-32c0 -4.41504 -3.58496 -8 -8 -8h-32c-4.41504 0 -8 3.58496 -8 8zM176 168c-4.41504 0 -8 3.58496 -8 8v32c0 4.41504 3.58496 8 8 8h32c4.41504 0 8 -3.58496 8 -8v-32c0 -4.41504 -3.58496 -8 -8 -8h-32zM264 80v32c0 4.41504 3.58496 8 8 8h32
c4.41504 0 8 -3.58496 8 -8v-32c0 -4.41504 -3.58496 -8 -8 -8h-32c-4.41504 0 -8 3.58496 -8 8zM272 168c-4.41504 0 -8 3.58496 -8 8v32c0 4.41504 3.58496 8 8 8h32c4.41504 0 8 -3.58496 8 -8v-32c0 -4.41504 -3.58496 -8 -8 -8h-32z" />
    <glyph glyph-name="waveform-primary" unicode="&#xf8f1;" horiz-adv-x="640" 
d="M44 224c8.83105 0 16 -7.16895 16 -16v-32c0 -8.83105 -7.16895 -16 -16 -16h-24c-8.83105 0 -16 7.16895 -16 16v32c0 8.83105 7.16895 16 16 16h24zM236 352c8.83105 0 16 -7.16895 16 -16v-288c0 -8.83105 -7.16895 -16 -16 -16h-24c-8.83105 0 -16 7.16895 -16 16
v288c0 8.83105 7.16895 16 16 16h24zM620 224c8.83105 0 16 -7.16895 16 -16v-32c0 -8.83105 -7.16895 -16 -16 -16h-24c-8.83105 0 -16 7.16895 -16 16v32c0 8.83105 7.16895 16 16 16h24zM428 320c8.83105 0 16 -7.16895 16 -16v-224c0 -8.83105 -7.16895 -16 -16 -16h-24
c-8.83105 0 -16 7.16895 -16 16v224c0 8.83105 7.16895 16 16 16h24z" />
    <glyph glyph-name="waveform-path-primary" unicode="&#xf8f2;" horiz-adv-x="640" 
d="M119.31 269.22c0.0507812 -0.219727 0.180664 -0.319336 0.25 -0.519531l48 -240c0.304688 -1.52637 0.446289 -3.08496 0.446289 -4.7002c0 -11.6221 -8.27832 -21.3252 -19.2559 -23.5303c-1.51367 -0.307617 -3.06055 -0.469727 -4.66406 -0.469727h-0.0859375
c-11.6289 0.00292969 -21.3359 8.31152 -23.5303 19.2998l-24.5596 122.82c4.08691 3.60645 6.9248 8.60352 7.80957 14.2295l16 104c0.158203 1.10547 0.238281 2.19922 0.238281 3.34863c0 1.90039 -0.224609 3.75 -0.648438 5.52148zM215.31 364.9
c0.0800781 -0.400391 0.320312 -0.700195 0.410156 -1.10059l64 -400c0.200195 -1.24512 0.280273 -2.5 0.280273 -3.80078c0 -11.9502 -8.75195 -21.8711 -20.1904 -23.6992c-1.22754 -0.197266 -2.46289 -0.299805 -3.74707 -0.299805h-0.0625
c-11.9277 0.0185547 -21.8291 8.78027 -23.6602 20.2002l-39 243.56l22.4404 156.851c0.112305 0.93457 0.167969 1.84961 0.167969 2.81445c0 1.88379 -0.220703 3.71777 -0.638672 5.47559zM624 184c8.83105 0 16 -7.16895 16 -16v-16c0 -8.83105 -7.16895 -16 -16 -16
h-64c-6.10449 0.015625 -11.6855 2.33008 -15.9004 6.12012l23.4199 117.18c0.276367 1.44922 0.420898 2.90625 0.420898 4.43555s-0.144531 3.02539 -0.420898 4.47461c0.0302734 -0.200195 0.200195 -0.349609 0.200195 -0.549805l12.8701 -83.6602h43.4102z
M343.28 428.71c0.109375 -0.509766 0.429688 -0.910156 0.529297 -1.42969l64 -464c0.149414 -1.08203 0.202148 -2.16309 0.202148 -3.28516c0 -12.127 -9.01465 -22.166 -20.7021 -23.7754c-1.0918 -0.140625 -2.17969 -0.214844 -3.30957 -0.219727
l-0.00585938 0.0244141c-12.125 0 -22.1621 9.01074 -23.7744 20.6953l-40.2197 291.58l23.7803 172.41c0.0908203 0.84375 0.135742 1.66504 0.135742 2.5332c0 1.88086 -0.219727 3.71191 -0.635742 5.4668zM471.35 364.52
c0.0800781 -0.399414 0.34082 -0.719727 0.430664 -1.12988l48 -336c0.160156 -1.11914 0.217773 -2.24121 0.217773 -3.40527c0 -12.0771 -8.94043 -22.083 -20.5576 -23.7539c-1.13574 -0.149414 -2.26562 -0.227539 -3.44043 -0.230469
c-12.0693 0.0195312 -22.0625 8.99121 -23.7197 20.6104l-25.5898 179.149l25 156.44c0.142578 1.05469 0.214844 2.09082 0.214844 3.18457c0 1.7627 -0.192383 3.48145 -0.555664 5.13477z" />
    <glyph glyph-name="music-secondary" unicode="&#x10f001;" 
d="M192 233.68v130.601l256 75.5996v-131.18z" />
    <glyph glyph-name="print-secondary" unicode="&#x10f02f;" 
d="M64 -32v96h384v-96c0 -17.6611 -14.3389 -32 -32 -32h-320c-17.6611 0 -32 14.3389 -32 32zM368 352h80v-128h-384v192c0 17.6611 14.3389 32 32 32h256v-80c0 -8.83105 7.16895 -16 16 -16z" />
    <glyph glyph-name="adjust-secondary" unicode="&#x10f042;" 
d="M504 192c0 -137 -111 -248 -248 -248v496c137 0 248 -111 248 -248z" />
    <glyph glyph-name="external-link-secondary" unicode="&#x10f08e;" 
d="M400 128h32c8.83105 0 16 -7.16895 16 -16v-128c0 -26.4922 -21.5078 -48 -48 -48h-352c-26.4922 0 -48 21.5078 -48 48v352c0 26.4922 21.5078 48 48 48h160c8.83105 0 16 -7.16895 16 -16v-32c0 -8.83105 -7.16895 -16 -16 -16h-144v-320h320v112
c0 8.83105 7.16895 16 16 16z" />
    <glyph glyph-name="trophy-secondary" unicode="&#x10f091;" horiz-adv-x="576" 
d="M192 16h192c35.2998 0 64 -20.7002 64 -56v-12c0 -6.62305 -5.37695 -12 -12 -12h-296c-6.62305 0 -12 5.37695 -12 12v12c0 35.2998 28.7002 56 64 56z" />
    <glyph glyph-name="bell-secondary" unicode="&#x10f0f3;" horiz-adv-x="448" 
d="M448 64c-0.0996094 -16.4004 -13 -32 -32.0996 -32h-383.82c-19.0801 0 -31.9902 15.5996 -32.0801 32v0.171875c0 8.34277 3.27539 15.9316 8.61035 21.5381c19.3193 20.7598 55.4697 52 55.4697 154.29c0 77.7002 54.4795 139.9 127.939 155.16v20.8398
c0 17.6611 14.3389 32 32 32c17.6621 0 32 -14.3389 32 -32v-20.8398c73.4004 -15.2598 127.881 -77.46 127.881 -155.16c0 -102.3 36.1494 -133.53 55.4697 -154.29c5.34668 -5.61133 8.63086 -13.2061 8.63086 -21.5615
c0 -0.0478516 -0.000976562 -0.100586 -0.000976562 -0.148438z" />
    <glyph glyph-name="angle-left-secondary" unicode="&#x10f104;" horiz-adv-x="256" 
d="M223.83 95.5596c4.32031 -4.34082 6.99219 -10.3232 6.99219 -16.9258s-2.67188 -12.5928 -6.99219 -16.9336l-22.5098 -22.7002l-0.180664 -0.179688c-4.29297 -4.24805 -10.1953 -6.87207 -16.7061 -6.87207c-6.60254 0 -12.5859 2.69824 -16.8936 7.05176
l-96.1504 96.5l56.4707 56.5z" />
    <glyph glyph-name="angle-right-secondary" unicode="&#x10f105;" horiz-adv-x="256" 
d="M128.14 192l56.4707 -56.4902l-96.1504 -96.5098c-4.30762 -4.35352 -10.2852 -7.05273 -16.8877 -7.05273c-6.50977 0 -12.4189 2.625 -16.7119 6.87305l-0.180664 0.179688l-22.5098 22.6797c-4.33301 4.33008 -7.01562 10.3135 -7.01562 16.917
c0 6.60449 2.68262 12.5928 7.01562 16.9229z" />
    <glyph glyph-name="gamepad-secondary" unicode="&#x10f11b;" horiz-adv-x="640" 
d="M480.07 352c88.2842 -0.0263672 159.938 -71.7402 159.938 -160.03c0 -88.3066 -71.6934 -160 -160 -160c-44.7324 0 -85.2021 18.3965 -114.249 48.0303h-91.5195c-29.0469 -29.6338 -69.5078 -48 -114.24 -48c-88.3066 0 -160 71.6934 -160 160s71.6934 160 160 160
h320.07zM248 180v24c0 6.62305 -5.37695 12 -12 12h-52v52c0 6.62305 -5.37695 12 -12 12h-24c-6.62305 0 -12 -5.37695 -12 -12v-52h-52c-6.62305 0 -12 -5.37695 -12 -12v-24c0 -6.62305 5.37695 -12 12 -12h52v-52c0 -6.62305 5.37695 -12 12 -12h24
c6.62305 0 12 5.37695 12 12v52h52c6.62305 0 12 5.37695 12 12zM464 104c22.0762 0 40 17.9238 40 40s-17.9238 40 -40 40s-40 -17.9238 -40 -40s17.9238 -40 40 -40zM528 200c22.0762 0 40 17.9238 40 40s-17.9238 40 -40 40s-40 -17.9238 -40 -40s17.9238 -40 40 -40z
" />
    <glyph glyph-name="anchor-secondary" unicode="&#x10f13d;" horiz-adv-x="576" 
d="M372 256c6.62305 0 12 -5.37695 12 -12v-40c0 -6.62305 -5.37695 -12 -12 -12h-168c-6.62305 0 -12 5.37695 -12 12v40c0 6.62305 5.37695 12 12 12h52v5.45996c-37.3486 13.1484 -64.1484 48.7314 -64.1484 90.5527c0 52.9834 43.0156 96 96 96
c0.523438 0 1.04688 -0.00390625 1.56836 -0.0126953c52.2197 -0.75 94.5801 -43.7803 94.5801 -96c0 -0.00683594 0.0292969 0.015625 0.0292969 0.00878906c0 -41.7764 -26.7432 -77.3564 -64.0293 -90.5391v-5.46973h52zM288 384c-17.6611 0 -32 -14.3389 -32 -32
s14.3389 -32 32 -32s32 14.3389 32 32s-14.3389 32 -32 32z" />
    <glyph glyph-name="level-down-secondary" unicode="&#x10f149;" horiz-adv-x="352" 
d="M59.5098 371.52l-56 56c-2.16895 2.17188 -3.51074 5.16992 -3.51074 8.47852c0 6.62305 5.37793 12.002 12.001 12.002h196c13.2461 0 24 -10.7539 24 -24v-348.71l-40 -43.21l-40 43.2295v292.69h-84c-3.31445 0 -6.31738 1.34473 -8.49023 3.51953z" />
    <glyph glyph-name="fax-secondary" unicode="&#x10f1ac;" 
d="M480 352v-96h-352v160c0 17.6611 14.3389 32 32 32h224v-80c0 -8.83105 7.16895 -16 16 -16h80z" />
    <glyph glyph-name="calculator-secondary" unicode="&#x10f1ec;" horiz-adv-x="448" 
d="M115.2 64c6.39941 0 12.7998 -6.40039 12.7998 -12.7998v-38.4004c0 -6.39941 -6.40039 -12.7998 -12.7998 -12.7998h-38.4004c-6.39941 0 -12.7998 6.40039 -12.7998 12.7998v38.4004c0 6.39941 6.40039 12.7998 12.7998 12.7998h38.4004zM115.2 192
c6.39941 0 12.7998 -6.40039 12.7998 -12.7998v-38.4004c0 -6.39941 -6.40039 -12.7998 -12.7998 -12.7998h-38.4004c-6.39941 0 -12.7998 6.40039 -12.7998 12.7998v38.4004c0 6.39941 6.40039 12.7998 12.7998 12.7998h38.4004zM243.2 64
c6.39941 0 12.7998 -6.40039 12.7998 -12.7998v-38.4004c0 -6.39941 -6.40039 -12.7998 -12.7998 -12.7998h-38.4004c-6.39941 0 -12.7998 6.40039 -12.7998 12.7998v38.4004c0 6.39941 6.40039 12.7998 12.7998 12.7998h38.4004zM243.2 192
c6.39941 0 12.7998 -6.40039 12.7998 -12.7998v-38.4004c0 -6.39941 -6.40039 -12.7998 -12.7998 -12.7998h-38.4004c-6.39941 0 -12.7998 6.40039 -12.7998 12.7998v38.4004c0 6.39941 6.40039 12.7998 12.7998 12.7998h38.4004zM371.2 192
c6.39941 0 12.7998 -6.40039 12.7998 -12.7998v-166.4c0 -6.39941 -6.40039 -12.7998 -12.7998 -12.7998h-38.4004c-6.39941 0 -12.7998 6.40039 -12.7998 12.7998v166.4c0 6.39941 6.40039 12.7998 12.7998 12.7998h38.4004z" />
    <glyph glyph-name="mercury-secondary" unicode="&#x10f223;" horiz-adv-x="288" 
d="M143 160c-44.1533 0 -80 35.8467 -80 80s35.8467 80 80 80s80 -35.8467 80 -80s-35.8467 -80 -80 -80z" />
    <glyph glyph-name="transgender-alt-secondary" unicode="&#x10f225;" horiz-adv-x="480" 
d="M319 209c0 -44.1533 -35.8467 -80 -80 -80s-80 35.8467 -80 80s35.8467 80 80 80s80 -35.8467 80 -80z" />
    <glyph glyph-name="mars-stroke-v-secondary" unicode="&#x10f22a;" horiz-adv-x="288" 
d="M200.58 39.7305c-14.4971 -14.4609 -34.4971 -23.4062 -56.5703 -23.4062c-44.2188 0 -80.1201 35.9004 -80.1201 80.1201s35.9014 80.1201 80.1201 80.1201c22.0479 0 42.0273 -8.9043 56.5205 -23.334l0.0498047 -0.0507812
c14.4668 -14.5488 23.4121 -34.5938 23.4121 -56.7119s-8.94531 -42.1885 -23.4121 -56.7373z" />
    <glyph glyph-name="mars-stroke-h-secondary" unicode="&#x10f22b;" horiz-adv-x="480" 
d="M200.54 135.42c-14.4922 -14.498 -34.5117 -23.4707 -56.6113 -23.4707c-44.1855 0 -80.0596 35.873 -80.0596 80.0596s35.874 80.0596 80.0596 80.0596c22.0996 0 42.1191 -8.9502 56.6113 -23.4482c14.4785 -14.4951 23.4365 -34.5039 23.4365 -56.5889
s-8.95801 -42.1162 -23.4365 -56.6113z" />
    <glyph glyph-name="neuter-secondary" unicode="&#x10f22c;" horiz-adv-x="288" 
d="M144 192c-44.1533 0 -80 35.8467 -80 80s35.8467 80 80 80s80 -35.8467 80 -80s-35.8467 -80 -80 -80z" />
    <glyph glyph-name="clone-secondary" unicode="&#x10f24d;" 
d="M48 -64c-26.4922 0 -48 21.5078 -48 48v288c0 26.4922 21.5078 48 48 48h48v-208c0.0498047 -44.1299 35.8701 -79.9502 80 -80h208v-48c0 -26.4922 -21.5078 -48 -48 -48h-288z" />
    </font>
</defs>
</svg>
