<?xml version="1.0" standalone="no"?>
<!DOCTYPE svg PUBLIC "-//W3C//DTD SVG 1.1//EN" "http://www.w3.org/Graphics/SVG/1.1/DTD/svg11.dtd" >
<svg xmlns="http://www.w3.org/2000/svg" xmlns:xlink="http://www.w3.org/1999/xlink" version="1.1">
<metadata>
Created by FontForge 20200314 at Wed Jan 13 11:59:40 2021
 By Robert Madole
Copyright (c) Font Awesome
</metadata>
<!-- Font Awesome Pro 5.15.2 by @fontawesome - https://fontawesome.com License - https://fontawesome.com/license (Commercial License) --><defs>
<font id="FontAwesome5Pro-Light" horiz-adv-x="512" >
  <font-face 
    font-family="Font Awesome 5 Pro Light"
    font-weight="300"
    font-stretch="normal"
    units-per-em="512"
    panose-1="2 0 3 3 0 0 0 0 0 0"
    ascent="448"
    descent="-64"
    bbox="-0.00520537 -64.0098 640.027 448.035"
    underline-thickness="25"
    underline-position="-50"
    unicode-range="U+0020-F8FF"
  />
    <missing-glyph />
    <glyph glyph-name="volume-down" unicode="&#xf027;" horiz-adv-x="384" 
d="M342.91 253.43c25.3398 -12.1396 41.0898 -36.0693 41.0898 -62.4297s-15.75 -50.2803 -41.0898 -62.4199c-7.7998 -3.79004 -17.4805 -0.549805 -21.3398 7.5c-3.81055 7.95996 -0.44043 17.5303 7.5293 21.3398c14.1201 6.78027 22.9004 19.6396 22.9004 33.5801
s-8.78027 26.7998 -22.9004 33.5898c-7.96973 3.81055 -11.3398 13.3701 -7.5293 21.3398c3.83984 7.98047 13.5293 11.3008 21.3398 7.5zM231.81 383c12.3203 0 24.1904 -9.50977 24.1904 -24.0195v-335.961c0 -14.5 -11.8604 -24.0195 -24.1904 -24.0195
c-5.89941 0 -11.9092 2.17969 -16.7793 7.0498l-88.9707 88.9502h-102.06c-13.2598 0 -24 10.75 -24 24v144c0 13.2598 10.7402 24 24 24h102.06l88.9707 88.9502c4.85938 4.87012 10.8701 7.0498 16.7793 7.0498zM224 42.3301v297.34l-84.6904 -84.6699h-107.31v-128
h107.31z" />
    <glyph glyph-name="volume-up" unicode="&#xf028;" horiz-adv-x="576" 
d="M342.91 254.43c25.3398 -12.1396 41.0898 -36.0693 41.0898 -62.4297s-15.75 -50.2803 -41.0898 -62.4199c-7.7998 -3.79004 -17.4805 -0.549805 -21.3398 7.5c-3.81055 7.95996 -0.44043 17.5303 7.5293 21.3398c14.1201 6.78027 22.9004 19.6396 22.9004 33.5801
s-8.78027 26.7998 -22.9004 33.5898c-7.96973 3.81055 -11.3398 13.3701 -7.5293 21.3398c3.83984 7.98047 13.5293 11.3008 21.3398 7.5zM231.81 384c12.3203 0 24.1904 -9.50977 24.1904 -24.0195v-335.961c0 -14.5 -11.8604 -24.0195 -24.1904 -24.0195
c-5.89941 0 -11.9092 2.17969 -16.7793 7.0498l-88.9707 88.9502h-102.06c-13.2598 0 -24 10.75 -24 24v144c0 13.2598 10.7402 24 24 24h102.06l88.9707 88.9502c4.85938 4.87012 10.8701 7.0498 16.7793 7.0498zM224 43.3301v297.34l-84.6904 -84.6699h-107.31v-128
h107.31zM421.51 446.17c95.2705 -50.0996 154.49 -147.49 154.49 -254.16c0 -106.68 -59.2197 -204.069 -154.49 -254.16c-7.97949 -4.13965 -17.5596 -1.0498 -21.6602 6.7002c-4.12988 7.81055 -1.11914 17.5 6.7002 21.6104c84.7598 44.5498 137.4 131.1 137.4 225.85
s-52.6406 181.3 -137.4 225.851c-7.83008 4.10938 -10.8301 13.7998 -6.7002 21.6094c4.13086 7.82031 13.7705 10.7803 21.6602 6.7002zM480 192.01c0 -66.1299 -34.0195 -126.63 -88.8096 -157.87c-7.98047 -4.5498 -17.7402 -1.48926 -22.04 5.89062
c-4.44043 7.66016 -1.76074 17.4395 5.95996 21.8594c44.7695 25.54 72.6094 75.4004 72.6094 130.12c0 54.7207 -27.8398 104.57 -72.6094 130.12c-7.73047 4.41992 -10.4102 14.2002 -5.95996 21.8604c4.44922 7.66992 14.3496 10.2695 22.04 5.88965
c54.79 -31.25 88.8096 -91.75 88.8096 -157.87z" />
    <glyph glyph-name="chart-bar" unicode="&#xf080;" 
d="M424 96c-4.40039 0 -8 3.59961 -8 8v240c0 4.40039 3.59961 8 8 8h16c4.40039 0 8 -3.59961 8 -8v-240c0 -4.40039 -3.59961 -8 -8 -8h-16zM328 96c-4.40039 0 -8 3.59961 -8 8v144c0 4.40039 3.59961 8 8 8h16c4.40039 0 8 -3.59961 8 -8v-144
c0 -4.40039 -3.59961 -8 -8 -8h-16zM136 96c-4.40039 0 -8 3.59961 -8 8v80c0 4.40039 3.59961 8 8 8h16c4.40039 0 8 -3.59961 8 -8v-80c0 -4.40039 -3.59961 -8 -8 -8h-16zM232 96c-4.40039 0 -8 3.59961 -8 8v208c0 4.40039 3.59961 8 8 8h16c4.40039 0 8 -3.59961 8 -8
v-208c0 -4.40039 -3.59961 -8 -8 -8h-16zM504 32c4.41992 0 8 -3.58008 8 -8v-16c0 -4.41992 -3.58008 -8 -8 -8h-488c-8.83984 0 -16 7.16016 -16 16v360c0 4.41992 3.58008 8 8 8h16c4.41992 0 8 -3.58008 8 -8v-344h472z" />
    <glyph glyph-name="bullhorn" unicode="&#xf0a1;" horiz-adv-x="576" 
d="M544 263.12c19.0498 -11.0898 32 -31.4902 31.9902 -55.1201c0 -23.6299 -12.9502 -44.0303 -32 -55.1201v-152.88c0 -9.21973 -7.08008 -32 -32 -32c-7.5459 0.00683594 -14.5078 2.64062 -19.9805 7.01953l-85.0293 68.0303
c-42.7002 34.1406 -96.3203 52.9502 -150.98 52.9502h-28.0801c-2.79004 -10.21 -4.41016 -20.8896 -4.41016 -32c0 -29.0801 9.75 -55.9199 26.1504 -77.4404c15.79 -20.7197 0.149414 -50.5596 -25.9004 -50.5596h-106.279c-11.8809 0 -23.2109 6.37012 -28.4004 17.0596
c-16.2998 33.5908 -25.5605 71.1709 -25.5605 110.94l0.480469 32c-35.3496 0 -64 28.6504 -64 64v96c0 35.3496 28.6504 64 64 64h192c54.6602 0 108.28 18.8096 150.99 52.9502l85.0293 68.0303c5.79004 4.63965 12.8604 7.01953 19.9805 7.01953h0.00976562
c25.0098 0 31.9902 -23.2598 31.9902 -32v-152.88zM223.76 -32c-20.9395 27.2197 -32.2402 60.71 -32.2402 96c0 10.5703 1.5 21.2998 3.81055 32h-99.3301l-0.00976562 -0.480469l-0.480469 -32c0.00976562 -33.2998 7.53027 -64.9297 22.3604 -95.4893zM64 128h192v160
h-192c-17.6396 0 -32 -14.3604 -32 -32v-96c0 -17.6396 14.3604 -32 32 -32zM512.05 1.07031l-0.0498047 414.92c-0.00976562 -0.120117 -0.0302734 -0.169922 -0.0703125 -0.169922c-0.0195312 0 -0.0498047 0.0195312 -0.0800781 0.0498047l-84.8691 -67.9004
c-39.9902 -31.9697 -88.4404 -51.8301 -138.98 -57.8398v-164.26c50.54 -6.00977 98.9902 -25.8701 138.97 -57.8301l84.8301 -67.8701c0.120117 0.320312 0.209961 0.650391 0.25 0.900391z" />
    <glyph glyph-name="briefcase" unicode="&#xf0b1;" 
d="M464 320c26.5098 0 48 -21.4902 48 -48v-256c0 -26.5098 -21.4902 -48 -48 -48h-416c-26.5098 0 -48 21.4902 -48 48v256c0 26.5098 21.4902 48 48 48h112v72c0 13.2598 10.7402 24 24 24h144c13.2598 0 24 -10.7402 24 -24v-72h112zM192 384v-64h128v64h-128zM480 16
v144h-160v-40c0 -13.25 -10.75 -24 -24 -24h-80c-13.25 0 -24 10.75 -24 24v40h-160v-144c0 -8.82031 7.17969 -16 16 -16h416c8.82031 0 16 7.17969 16 16zM224 128h64v32h-64v-32zM480 192v80c0 8.82031 -7.17969 16 -16 16h-416c-8.82031 0 -16 -7.17969 -16 -16v-80h448
z" />
    <glyph glyph-name="lightbulb" unicode="&#xf0eb;" horiz-adv-x="352" 
d="M176 448c97.2002 0 176 -78.7998 176 -176c0 -44.3701 -16.4502 -84.8496 -43.5596 -115.78c-25.4502 -29.0293 -50.1807 -76.5 -52.4404 -92.2197l-0.0703125 -75.1797c-0.00976562 -3.14062 -0.939453 -6.2207 -2.67969 -8.83984l-24.5098 -36.8408
c-2.95996 -4.45996 -7.95996 -7.13965 -13.3203 -7.13965h-78.8496c-5.35059 0 -10.3506 2.67969 -13.3203 7.13965l-24.5098 36.8408c-1.74023 2.61914 -2.68066 5.68945 -2.68066 8.83984l-0.0595703 75.1797c-2.15039 15.3203 -26.79 62.9697 -52.4404 92.2197
c-27.0596 30.8701 -43.5 71.2607 -43.5596 115.54c-0.120117 92.7002 73.0498 176.24 176 176.24zM223.94 -6.30957v6.30957h-95.9004l0.00976562 -6.30957l17.0898 -25.6904h61.71zM223.98 32l0.0390625 32h-96.0791l0.0693359 -32h95.9707zM284.38 177.32
c22.9697 26.1992 35.6201 59.8301 35.6201 94.6797c0 79.4004 -64.5996 144 -144 144c-83.5703 0 -144.13 -67.0098 -143.95 -144c0.0800781 -34.8496 12.4502 -68.2998 35.5801 -94.6797c13.9902 -15.96 36.3203 -48.0898 50.5801 -81.3105h115.59
c14.25 33.21 36.5898 65.3506 50.5801 81.3105zM176 384c8.83984 0 16 -7.16016 16 -16s-7.16016 -16 -16 -16c-44.1201 0 -80 -35.8896 -80 -80c0 -8.83984 -7.16016 -16 -16 -16s-16 7.16016 -16 16c0 61.75 50.25 112 112 112z" />
    <glyph glyph-name="chart-pie" unicode="&#xf200;" horiz-adv-x="544" 
d="M527.79 160c9.5498 0 17.4004 -8.38965 16.0596 -17.8496c-7.80957 -55.25 -34.4297 -104.4 -73.1299 -140.86c-2.9502 -2.78027 -6.75 -4.12988 -10.5693 -4.12988c-4.53223 0.0078125 -8.64062 1.84277 -11.6201 4.80957l-158.03 158.03h237.29zM459.88 35.8799
c23.7998 26.1201 40.6396 57.96 48.7598 92.1201h-140.88zM224 160l155.87 -155.87c6.84961 -6.84961 6.33008 -18.4795 -1.57031 -24.0801c-38.29 -27.1602 -84.8594 -43.3994 -135.26 -44.0303c-0.980469 -0.00976562 -1.92969 -0.0195312 -2.91016 -0.0195312
c-126.95 0 -235.66 104.47 -239.99 231.63c-4.23926 124.771 86.8506 228.88 206.011 245.72c0.709961 0.100586 1.41992 0.150391 2.10938 0.150391c8.56055 0 15.7402 -7.37988 15.7402 -16.21v-237.29zM242.63 -31.9805c35.6201 0.44043 70.0205 9.90039 100.58 27.5205
l-141.84 141.84l-9.37012 9.37012v231.42c-95.6699 -22.4199 -163.28 -109.32 -159.88 -209.45c3.7002 -108.8 98.96 -200.72 208 -200.72zM511.96 224.8c0.629883 -9.12012 -7.0498 -16.7998 -16.1904 -16.7998h-223.77v223.77c0 8.78027 7.09961 16.2305 15.7598 16.2305
c0.339844 0 0.69043 -0.00976562 1.04004 -0.0400391c119.46 -8.24023 214.92 -103.7 223.16 -223.16zM304 240h174.1c-13.8193 89.25 -84.8496 160.29 -174.1 174.1v-174.1z" />
    <glyph glyph-name="chart-line" unicode="&#xf201;" 
d="M504 32c4.41992 0 8 -3.58008 8 -8v-16c0 -4.41992 -3.58008 -8 -8 -8h-488c-8.83984 0 -16 7.16016 -16 16v360c0 4.41992 3.58008 8 8 8h16c4.41992 0 8 -3.58008 8 -8v-344h472zM98.3398 184.97l84.1201 83.3203c6.25 6.2002 16.3398 6.17969 22.5703 -0.0498047
l84.6299 -84.6299l82.2197 82.2197l-44.71 44.71c-15.2998 15.2998 -4.46973 41.46 17.1699 41.46h119.47c8.94043 0 16.1904 -7.25 16.1904 -16.1904v-119.47c0 -14.6396 -11.9805 -24.3398 -24.46 -24.3398c-5.96973 0 -12.0498 2.20996 -17 7.16016l-44.04 44.04
l-93.5303 -93.5303c-6.25 -6.25 -16.3799 -6.25 -22.6299 0l-84.6895 84.6904l-72.6904 -72.0107c-3.12012 -3.11914 -8.19043 -3.11914 -11.3096 0l-11.3105 11.3105c-3.12012 3.12012 -3.12012 8.18945 0 11.3096zM362.96 320l85.04 -85.04v85.04h-85.04z" />
    <glyph glyph-name="volume-slash" unicode="&#xf2e2;" horiz-adv-x="640" 
d="M256 340.7l-20.7998 -20.7002l-25.2998 19.9004l37.0996 37.0996c4.90039 4.7998 10.9004 7 16.7998 7c12.2998 0 24.2002 -9.5 24.2002 -24v-81.7002l-32 25.2002v37.2002zM408 322.1c-7.59961 4.40039 -10.2998 14.2002 -5.7998 21.9004
c4.39941 7.7002 14.2002 10.2998 21.7998 5.90039c54.2998 -31.3008 88 -91.8008 88 -157.9c0 -27.2002 -6 -53.4004 -16.5996 -77l-25.9004 20.4004c6.7998 17.5996 10.5 36.7998 10.5 56.5996c0 54.7002 -27.5996 104.6 -72 130.1zM438.8 417.8
c-7.7998 4.2002 -10.7998 13.7998 -6.59961 21.7002c4.09961 7.7998 13.7002 10.7998 21.5996 6.7002c95.1006 -50.1006 154.2 -147.5 154.2 -254.2c0 -49.0996 -13 -96 -35.9004 -137.4l-25.5 20.1006c18.7002 35.5996 29.4004 75.5 29.4004 117.3
c0 94.7998 -52.5996 181.3 -137.2 225.8zM361.1 225.6c-8 3.80078 -11.2998 13.4004 -7.5 21.4004c3.80078 8 13.5 11.2998 21.3008 7.5c25.2998 -12.0996 41.0996 -36 41.0996 -62.4004c0 -4.5 -1 -8.69922 -1.90039 -13l-33.0996 26
c-3.59961 8.5 -10.4004 16 -19.9004 20.5zM637 -37.2002c3.5 -2.7998 4 -7.7998 1.2002 -11.2998l-10 -12.5c-2.7002 -3.40039 -7.7998 -4 -11.2002 -1.2002l-614 483.5c-3.40039 2.7002 -4 7.7002 -1.2002 11.2002l10 12.5c2.7002 3.5 7.7998 4 11.2002 1.2002z
M438.8 -33.7998c17.6006 9.2002 33.4004 20.7002 48.1006 33.2998l25.6992 -20.2002c-17.5996 -15.8994 -37.0996 -30 -58.7998 -41.3994c-2.39941 -1.2002 -5 -1.80078 -7.5 -1.80078c-6 -0.0996094 -11.3994 3.2002 -14.2002 8.5
c-4.09961 7.80078 -1.09961 17.5 6.7002 21.6006zM256 43.2998h0.0996094v138l32 -25.2002v-132.1c0 -14.5 -11.8994 -24 -24.1992 -24c-5.90039 0 -11.9004 2.09961 -16.8008 7l-89 89h-102.1c-13.2998 0 -24 10.7998 -24 24v144c0 13.2998 10.7002 24 24 24h64.5
l40.5996 -32h-97.0996v-128h107.3z" />
    <glyph glyph-name="route-highway" unicode="&#xf61a;" horiz-adv-x="448" 
d="M428.4 178.79c37.9395 -56.5205 18.5596 -139.43 -38.8105 -166.03l-165.62 -76.7598l-165.56 76.75c-57.3604 26.5996 -76.75 109.51 -38.8105 166.03c30.4707 45.4297 11.8008 104.479 -13 155.399c-3.95996 8.14062 -3.33984 17.75 1.87012 25.1299l41.1807 58.3701
c4.55957 6.45996 11.7998 10.1299 19.2793 10.1299c2.88867 0 5.66406 -0.542969 8.20996 -1.51953c15.3604 -5.87988 32.6602 -8.88965 50.25 -8.88965c29.5107 0 59.8203 8.46973 83.1699 26.1094c3.95996 2.99023 8.7002 4.49023 13.4404 4.49023
s9.48047 -1.5 13.4502 -4.48047c23.3496 -17.6396 53.6494 -26.1094 83.1602 -26.1094c17.5898 0 34.8896 3.00977 50.2598 8.88965c2.68945 1.03027 5.46973 1.52051 8.20996 1.52051c7.47949 0 14.7197 -3.66992 19.2803 -10.1406l41.1699 -58.3594
c5.20996 -7.37988 5.83008 -17 1.87012 -25.1299c-24.8008 -50.9307 -43.4805 -109.98 -13 -155.4zM72.1699 394.09l-35 -49.6201c8.03027 -16.7793 16 -36.0996 21.8604 -56.4795h329.95c5.84961 20.3896 13.8291 39.7002 21.8594 56.4795l-35 49.6201
c-17.1699 -5.7002 -36.1201 -8.68945 -55.2295 -8.68945c-35.6406 0 -69.6406 10.0293 -96.6104 28.3799c-26.9697 -18.3398 -60.9805 -28.3799 -96.6104 -28.3799c-19.0996 0 -38.0498 2.98926 -55.2197 8.68945zM412.61 88.0596
c7.01953 25.1201 3 52.3701 -10.7705 72.8809c-20.25 30.1895 -24.0801 63.2393 -19.8701 95.0498h-315.92c4.2002 -31.8105 0.379883 -64.8604 -19.8701 -95.04c-13.7793 -20.5205 -17.8096 -47.7705 -10.7793 -72.8906c6 -21.4395 19.29 -38.2998 36.4795 -46.2695
l152.101 -70.5205l152.159 70.5205c17.1807 7.96973 30.4707 24.8301 36.4707 46.2695z" />
    <glyph glyph-name="abacus" unicode="&#xf640;" horiz-adv-x="576" 
d="M560 448c8.83984 0 16 -7.16016 16 -16v-488c0 -4.41992 -3.58008 -8 -8 -8h-16c-4.41992 0 -8 3.58008 -8 8v72h-64v-16c0 -17.6699 -14.3301 -32 -32 -32h-32c-17.6699 0 -32 14.3301 -32 32v16h-96v-16c0 -17.6699 -14.3301 -32 -32 -32h-32
c-17.6699 0 -32 14.3301 -32 32v16h-32v-16c0 -17.6699 -14.3301 -32 -32 -32h-32c-17.6699 0 -32 14.3301 -32 32v16h-32v-72c0 -4.41992 -3.58008 -8 -8 -8h-16c-4.41992 0 -8 3.58008 -8 8v488c0 8.83984 7.16016 16 16 16s16 -7.16016 16 -16v-64h32v16
c0 17.6699 14.3301 32 32 32h32c17.6699 0 32 -14.3301 32 -32v-16h32v16c0 17.6699 14.3301 32 32 32h32c17.6699 0 32 -14.3301 32 -32v-16h96v16c0 17.6699 14.3301 32 32 32h32c17.6699 0 32 -14.3301 32 -32v-16h64v64c0 8.83984 7.16016 16 16 16zM416 384v-64h32v64
h-32zM224 384v-64h32v64h-32zM96 384v-64h32v64h-32zM128 0v64h-32v-64h32zM256 0v64h-32v-64h32zM448 0v64h-32v-64h32zM544 48v128h-128v-16c0 -17.6699 -14.3301 -32 -32 -32h-32c-17.6699 0 -32 14.3301 -32 32v16h-32v-16c0 -17.6699 -14.3301 -32 -32 -32h-32
c-17.6699 0 -32 14.3301 -32 32v16h-32v-16c0 -17.6699 -14.3301 -32 -32 -32h-32c-17.6699 0 -32 14.3301 -32 32v16h-32v-128h32v16c0 17.6699 14.3301 32 32 32h32c17.6699 0 32 -14.3301 32 -32v-16h32v16c0 17.6699 14.3301 32 32 32h32c17.6699 0 32 -14.3301 32 -32
v-16h96v16c0 17.6699 14.3301 32 32 32h32c17.6699 0 32 -14.3301 32 -32v-16h64zM96 160h32v64h-32v-64zM224 160h32v64h-32v-64zM352 160h32v64h-32v-64zM544 208v128h-64v-16c0 -17.6699 -14.3301 -32 -32 -32h-32c-17.6699 0 -32 14.3301 -32 32v16h-96v-16
c0 -17.6699 -14.3301 -32 -32 -32h-32c-17.6699 0 -32 14.3301 -32 32v16h-32v-16c0 -17.6699 -14.3301 -32 -32 -32h-32c-17.6699 0 -32 14.3301 -32 32v16h-32v-128h32v16c0 17.6699 14.3301 32 32 32h32c17.6699 0 32 -14.3301 32 -32v-16h32v16
c0 17.6699 14.3301 32 32 32h32c17.6699 0 32 -14.3301 32 -32v-16h32v16c0 17.6699 14.3301 32 32 32h32c17.6699 0 32 -14.3301 32 -32v-16h128z" />
    <glyph glyph-name="analytics" unicode="&#xf643;" horiz-adv-x="576" 
d="M80 96c8.83984 0 16 -7.16016 16 -16v-128c0 -8.83984 -7.16016 -16 -16 -16h-64c-8.83984 0 -16 7.16016 -16 16v128c0 8.83984 7.16016 16 16 16h64zM64 -32v96h-32v-96h32zM560 256c8.83984 0 16 -7.16016 16 -16v-288c0 -8.83984 -7.16016 -16 -16 -16h-64
c-8.83984 0 -16 7.16016 -16 16v288c0 8.83984 7.16016 16 16 16h64zM544 -32v256h-32v-256h32zM502.77 359.32l-89.5996 -71.6699c1.70996 -4.93066 2.83008 -10.1406 2.83008 -15.6504c0 -26.5098 -21.4902 -48 -48 -48s-48 21.4902 -48 48
c0 5.50977 1.12012 10.7197 2.83008 15.6504l-89.5996 71.6797c-7.35059 -4.57031 -15.9404 -7.33008 -25.2305 -7.33008c-7.40039 0 -14.3203 1.80957 -20.5801 4.7998l-96.2197 -96.2197c2.99023 -6.25977 4.7998 -13.1797 4.7998 -20.5801
c0 -26.5098 -21.4902 -48 -48 -48s-48 21.4902 -48 48s21.4902 48 48 48c7.40039 0 14.3203 -1.80957 20.5801 -4.7998l96.2197 96.2197c-2.99023 6.25977 -4.7998 13.1797 -4.7998 20.5801c0 26.5098 21.4902 48 48 48s48 -21.4902 48 -48
c0 -5.50977 -1.12012 -10.7197 -2.83008 -15.6396l89.5996 -71.6807c7.35059 4.57031 15.9404 7.33008 25.2305 7.33008s17.8799 -2.75977 25.2305 -7.33008l89.5996 71.6807c-1.70996 4.92969 -2.83008 10.1299 -2.83008 15.6396c0 26.5098 21.4902 48 48 48
s48 -21.4902 48 -48s-21.4902 -48 -48 -48c-9.29004 0 -17.8799 2.75977 -25.2305 7.32031zM528 416c-8.82031 0 -16 -7.17969 -16 -16s7.17969 -16 16 -16s16 7.17969 16 16s-7.17969 16 -16 16zM48 224c8.82031 0 16 7.17969 16 16s-7.17969 16 -16 16
s-16 -7.17969 -16 -16s7.17969 -16 16 -16zM208 384c8.82031 0 16 7.17969 16 16s-7.17969 16 -16 16s-16 -7.17969 -16 -16s7.17969 -16 16 -16zM368 256c8.82031 0 16 7.17969 16 16s-7.17969 16 -16 16s-16 -7.17969 -16 -16s7.17969 -16 16 -16zM240 256
c8.83984 0 16 -7.16016 16 -16v-288c0 -8.83984 -7.16016 -16 -16 -16h-64c-8.83984 0 -16 7.16016 -16 16v288c0 8.83984 7.16016 16 16 16h64zM224 -32v256h-32v-256h32zM400 128c8.83984 0 16 -7.16016 16 -16v-160c0 -8.83984 -7.16016 -16 -16 -16h-64
c-8.83984 0 -16 7.16016 -16 16v160c0 8.83984 7.16016 16 16 16h64zM384 -32v128h-32v-128h32z" />
    <glyph glyph-name="ankh" unicode="&#xf644;" horiz-adv-x="320" 
d="M312 160c4.41992 0 8 -3.58008 8 -8v-16c0 -4.41992 -3.58008 -8 -8 -8h-136v-184c0 -4.41992 -3.58008 -8 -8 -8h-16c-4.41992 0 -8 3.58008 -8 8v184h-136c-4.41992 0 -8 3.58008 -8 8v16c0 4.41992 3.58008 8 8 8h96.5801
c-36.7998 35.9502 -72.5801 96.3701 -72.5801 150.86c0 84.1592 57.3096 137.14 128 137.14s128 -52.9805 128 -137.14c0 -54.4902 -35.7803 -114.92 -72.5801 -150.86h96.5801zM64 310.86c0 -71.79 75.25 -149.021 96.1797 -150.86h0.0302734
c20.54 1.83984 95.79 79.0801 95.79 150.86c0 61.8994 -39.4805 105.14 -96 105.14s-96 -43.2402 -96 -105.14z" />
    <glyph glyph-name="badge-dollar" unicode="&#xf645;" 
d="M289.94 198.95c27.8594 -7.98047 45.29 -38.1299 35.1396 -67.7803c-7.38965 -21.5801 -28.9102 -35.1699 -51.7197 -35.1699h-1.36035v-24c0 -4.41992 -3.58008 -8 -8 -8h-16c-4.41992 0 -8 3.58008 -8 8v24h-1.37988c-15.7197 0 -30.6396 5.09961 -42.9004 14.5098
c-3.92969 3.02051 -4.48926 8.73047 -0.989258 12.2305l11.4199 11.4199c2.61914 2.62012 6.84961 3.33008 9.83984 1.16016c6.5498 -4.76074 14.3896 -7.32031 22.6299 -7.32031h36.9102c11.2793 0 20.4697 9.17969 20.4697 20.4805
c0 9.08984 -6.12988 17.1797 -14.8799 19.6992l-56.4404 16.1104c-21.3896 6.09961 -38.3896 24.0596 -40.4492 46.2197c-2.89062 31.1807 21.6494 57.4805 52.2393 57.4805h3.53027v24c0 4.41992 3.58008 8 8 8h16c4.41992 0 8 -3.58008 8 -8v-24h1.37988
c15.7197 0 30.6396 -5.10059 42.9004 -14.5098c3.92969 -3.01074 4.48926 -8.73047 0.989258 -12.2305l-11.4199 -11.4199c-2.61914 -2.62012 -6.84961 -3.33008 -9.83984 -1.16016c-6.5498 4.75977 -14.3896 7.32031 -22.6299 7.32031h-36.9102
c-11.2793 0 -20.4697 -9.18066 -20.4697 -20.4805c0 -9.08984 6.12988 -17.1797 14.8799 -19.7002zM512 192c0 -35.5 -19.4004 -68.2002 -49.5996 -85.5c9.09961 -33.5996 -0.300781 -70.4004 -25.4004 -95.5c-26.0996 -26.0996 -62.7998 -34.2998 -95.5 -25.4004
c-17.4004 -30.1992 -50 -49.5996 -85.5 -49.5996s-68.0996 19.4004 -85.5 49.5996c-32.0996 -8.69922 -69 -1.09961 -95.5 25.4004c-25.0996 25.0996 -34.5 61.9004 -25.4004 95.5c-30.1992 17.2998 -49.5996 50 -49.5996 85.5s19.4004 68.2002 49.5996 85.5
c-9.09961 33.5996 0.300781 70.4004 25.4004 95.5s61.9004 34.5 95.5 25.4004c17.2998 30.1992 50 49.5996 85.5 49.5996s68.2002 -19.4004 85.5 -49.5996c33.5996 9.09961 70.4004 -0.300781 95.5 -25.4004s34.5 -61.9004 25.4004 -95.5
c30.1992 -17.2998 49.5996 -50 49.5996 -85.5zM420.9 123.7c9.59961 3.59961 59.0996 16.2002 59.0996 68.2998c0 51 -47 63.7002 -59.0996 68.2998c4.39941 9.60059 30.2998 53.4004 -6.5 90.1006c-36 36 -78.3008 11.7998 -90.1006 6.5
c-3.59961 9.59961 -16.2002 59.0996 -68.2998 59.0996c-51 0 -63.7002 -47 -68.2998 -59.0996c-9.2998 4.19922 -53.2998 30.3994 -90.1006 -6.5c-36 -36 -11.7998 -78.3008 -6.5 -90.1006c-9.59961 -3.59961 -59.0996 -16.2002 -59.0996 -68.2998
c0 -51 47 -63.7002 59.0996 -68.2998c-4.39941 -9.60059 -30.2998 -53.4004 6.5 -90.1006c28.8008 -28.6992 57.5 -21.2998 90.1006 -6.5c3.59961 -9.59961 16.2002 -59.0996 68.2998 -59.0996c51 0 63.7002 47 68.2998 59.0996
c32.6006 -14.7998 61.2002 -22.3994 90.1006 6.5c36 36 11.7998 78.3008 6.5 90.1006z" />
    <glyph glyph-name="badge-percent" unicode="&#xf646;" 
d="M349.66 274.35c3.12012 -3.12988 3.12012 -8.18945 -0.00976562 -11.3096l-164.69 -164.69c-3.12012 -3.11914 -8.19043 -3.11914 -11.3096 0l-11.3105 11.3105c-3.12012 3.12012 -3.12012 8.18945 0 11.3096l164.7 164.69c3.12012 3.12012 8.19043 3.12012 11.3096 0z
M240 256c0 -26.4697 -21.5303 -48 -48 -48s-48 21.5303 -48 48s21.5303 48 48 48s48 -21.5303 48 -48zM176 256c0 -8.83008 7.19043 -16 16 -16s16 7.16992 16 16s-7.19043 16 -16 16s-16 -7.16992 -16 -16zM320 176c26.4697 0 48 -21.5303 48 -48s-21.5303 -48 -48 -48
s-48 21.5303 -48 48s21.5303 48 48 48zM320 112c8.80957 0 16 7.16992 16 16s-7.19043 16 -16 16s-16 -7.16992 -16 -16s7.19043 -16 16 -16zM512 192c0 -35.5 -19.4004 -68.2002 -49.5996 -85.5c9.09961 -33.5996 -0.300781 -70.4004 -25.4004 -95.5
c-26.0996 -26.0996 -62.7998 -34.2998 -95.5 -25.4004c-17.4004 -30.1992 -50 -49.5996 -85.5 -49.5996s-68.0996 19.4004 -85.5 49.5996c-32.0996 -8.69922 -69 -1.09961 -95.5 25.4004c-25.0996 25.0996 -34.5 61.9004 -25.4004 95.5
c-30.1992 17.2998 -49.5996 50 -49.5996 85.5s19.4004 68.2002 49.5996 85.5c-9.09961 33.5996 0.300781 70.4004 25.4004 95.5s61.9004 34.5 95.5 25.4004c17.2998 30.1992 50 49.5996 85.5 49.5996s68.2002 -19.4004 85.5 -49.5996
c33.5996 9.09961 70.4004 -0.300781 95.5 -25.4004s34.5 -61.9004 25.4004 -95.5c30.1992 -17.2998 49.5996 -50 49.5996 -85.5zM420.9 123.7c9.59961 3.59961 59.0996 16.2002 59.0996 68.2998c0 51 -47 63.7002 -59.0996 68.2998
c4.39941 9.60059 30.2998 53.4004 -6.5 90.1006c-36 36 -78.3008 11.7998 -90.1006 6.5c-3.59961 9.59961 -16.2002 59.0996 -68.2998 59.0996c-51 0 -63.7002 -47 -68.2998 -59.0996c-9.2998 4.19922 -53.2998 30.3994 -90.1006 -6.5
c-36 -36 -11.7998 -78.3008 -6.5 -90.1006c-9.59961 -3.59961 -59.0996 -16.2002 -59.0996 -68.2998c0 -51 47 -63.7002 59.0996 -68.2998c-4.39941 -9.60059 -30.2998 -53.4004 6.5 -90.1006c28.8008 -28.6992 57.5 -21.2998 90.1006 -6.5
c3.59961 -9.59961 16.2002 -59.0996 68.2998 -59.0996c51 0 63.7002 47 68.2998 59.0996c32.6006 -14.7998 61.2002 -22.3994 90.1006 6.5c36 36 11.7998 78.3008 6.5 90.1006z" />
    <glyph glyph-name="bible" unicode="&#xf647;" horiz-adv-x="448" 
d="M448 56c0 -10 -6.2002 -18.5996 -14.9004 -22.2002c-3.59961 -16.0996 -4.39941 -45.5996 -0.399414 -65.7998h3.2998c6.59961 0 12 -5.40039 12 -12v-8c0 -6.59961 -5.40039 -12 -12 -12h-372c-35.3496 0 -64 28.6504 -64 64v368c0 44.2002 35.7998 80 80 80h344
c13.2998 0 24 -10.7002 24 -24v-368zM404.3 -32c-3.09961 20.4004 -2.89941 45.2002 0 64h-340.3c-17.6699 0 -32 -14.3301 -32 -32s14.3301 -32 32 -32h340.3zM416 64v352h-336c-26.5 0 -48 -21.5 -48 -48v-312.88c9.4502 5.5 20.2803 8.87988 32 8.87988h352zM152 224
c-13.2197 0 -24 10.7695 -24 24v48c0 13.2305 10.7803 24 24 24h40v40c0 13.2305 10.7803 24 24 24h48c13.2197 0 24 -10.7695 24 -24v-40h40c13.2197 0 24 -10.7695 24 -24v-48c0 -13.2305 -10.7803 -24 -24 -24h-40v-104c0 -13.2305 -10.7803 -24 -24 -24h-48
c-13.2197 0 -24 10.7695 -24 24v104h-40zM160 288v-32h64v-128h32v128h64v32h-64v64h-32v-64h-64z" />
    <glyph glyph-name="business-time" unicode="&#xf64a;" horiz-adv-x="640" 
d="M48 32h278.8c3.13574 -11.083 7.41699 -21.9287 12.5703 -32h-291.37c-26.5098 0 -48 21.4902 -48 48v256c0 26.5098 21.4902 48 48 48h112v72c0 13.2598 10.7402 24 24 24h144c13.2598 0 24 -10.7402 24 -24v-72h112c26.5098 0 48 -21.4902 48 -48v-48.8096
c-5.28027 0.479492 -10.5996 0.80957 -16 0.80957s-10.7197 -0.330078 -16 -0.80957v48.8096c0 8.82031 -7.17969 16 -16 16h-416c-8.82031 0 -16 -7.17969 -16 -16v-80h363c-12.96 -9.09961 -24.71 -19.8096 -34.7695 -32h-40.2305v-40c0 -13.25 -10.75 -24 -24 -24h-80
c-13.25 0 -24 10.75 -24 24v40h-160v-144c0 -8.82031 7.17969 -16 16 -16zM224 192v-32h64v32h-64zM192 416v-64h128v64h-128zM550.29 96c5.33984 0 9.70996 -4.37012 9.70996 -9.70996v-12.5703c0 -5.33984 -4.37012 -9.70996 -9.70996 -9.70996h-60.5703
c-5.33984 0 -9.70996 4.37012 -9.70996 9.70996v76.5703c0 5.33984 4.37012 9.70996 9.70996 9.70996h12.5703c5.33984 0 9.70996 -4.37012 9.70996 -9.70996v-54.29h38.29zM496 224c79.5898 0 144 -64.4102 144 -144s-64.4102 -144 -144 -144s-144 64.4102 -144 144
s64.4102 144 144 144zM496 -32c61.7598 0 112 50.2402 112 112s-50.2402 112 -112 112s-112 -50.2402 -112 -112s50.2402 -112 112 -112z" />
    <glyph glyph-name="cabinet-filing" unicode="&#xf64b;" 
d="M464 448c26.5098 0 48 -21.4902 48 -48v-416c0 -26.5098 -21.4902 -48 -48 -48h-416c-26.5098 0 -48 21.4902 -48 48v416c0 26.5098 21.4902 48 48 48h416zM480 -16v192h-448v-192c0 -8.82031 7.17969 -16 16 -16h416c8.82031 0 16 7.17969 16 16zM480 208v192
c0 8.82031 -7.17969 16 -16 16h-416c-8.82031 0 -16 -7.17969 -16 -16v-192h448zM336 352c8.83984 0 16 -7.16016 16 -16v-40c0 -4.41992 -3.58008 -8 -8 -8h-16c-4.41992 0 -8 3.58008 -8 8v24h-128v-24c0 -4.41992 -3.58008 -8 -8 -8h-16c-4.41992 0 -8 3.58008 -8 8v40
c0 8.83984 7.16016 16 16 16h160zM168 32c-4.41992 0 -8 3.58008 -8 8v40c0 8.83984 7.16016 16 16 16h160c8.83984 0 16 -7.16016 16 -16v-40c0 -4.41992 -3.58008 -8 -8 -8h-16c-4.41992 0 -8 3.58008 -8 8v24h-128v-24c0 -4.41992 -3.58008 -8 -8 -8h-16z" />
    <glyph glyph-name="chart-line-down" unicode="&#xf64d;" 
d="M504 32c4.41992 0 8 -3.58008 8 -8v-16c0 -4.41992 -3.58008 -8 -8 -8h-488c-8.83984 0 -16 7.16016 -16 16v360c0 4.41992 3.58008 8 8 8h16c4.41992 0 8 -3.58008 8 -8v-344h472zM182.45 211.71l-84.1104 83.3203c-3.12012 3.12012 -3.12012 8.18945 0 11.3096
l11.3105 11.3105c3.11914 3.11914 8.18945 3.11914 11.3096 0l72.6904 -72.0107l84.6895 84.6904c6.25 6.25 16.3799 6.25 22.6299 0l93.5303 -93.5303l44.0303 44.04c4.9502 4.9502 11.0293 7.16016 17 7.16016c12.4795 0 24.46 -9.7002 24.46 -24.3398v-119.47
c0 -8.94043 -7.25 -16.1904 -16.1904 -16.1904h-119.47c-21.6299 0 -32.4697 26.1602 -17.1699 41.46l44.71 44.71l-82.2197 82.2197l-84.6309 -84.6299c-6.21973 -6.22949 -16.3096 -6.25 -22.5693 -0.0498047zM448 245.04l-85.04 -85.04h85.04v85.04z" />
    <glyph glyph-name="chart-pie-alt" unicode="&#xf64e;" 
d="M461.29 160c9.54004 0 17.3896 -8.38965 16.0596 -17.8398c-16.46 -116.5 -116.31 -206.16 -237.35 -206.16c-2.67969 0 -5.37988 0.0400391 -8.07031 0.129883c-124.02 4.07031 -227.729 107.771 -231.8 231.8c-4.08984 124.641 86.9502 228.601 206.021 245.42
c0.709961 0.100586 1.41992 0.150391 2.10938 0.150391c8.56055 0 15.7402 -7.37988 15.7402 -16.21v-237.29h237.29zM240 -32c96.4902 0 180.27 67.5703 202.15 160h-250.15v250.17c-95.5498 -22.4004 -163.16 -109.189 -159.89 -209.18
c3.51953 -107.24 93.6299 -197.351 200.87 -200.87c2.33984 -0.0800781 4.68945 -0.120117 7.01953 -0.120117zM288.8 447.96c119.46 -8.24023 214.92 -103.7 223.17 -223.16c0.620117 -9.10938 -7.05957 -16.7998 -16.2002 -16.7998h-223.77v223.77
c0 8.79004 7.09961 16.2305 15.7598 16.2305c0.339844 0 0.69043 -0.00976562 1.04004 -0.0400391zM304 240h174.1c-13.8193 89.25 -84.8496 160.29 -174.1 174.1v-174.1z" />
    <glyph glyph-name="city" unicode="&#xf64f;" horiz-adv-x="640" 
d="M132 80c6.62012 0 12 -5.37012 12 -12v-40c0 -6.62988 -5.37988 -12 -12 -12h-40c-6.62012 0 -12 5.37012 -12 12v40c0 6.62988 5.37988 12 12 12h40zM132 176c6.62012 0 12 -5.37012 12 -12v-40c0 -6.62988 -5.37988 -12 -12 -12h-40c-6.62012 0 -12 5.37012 -12 12v40
c0 6.62988 5.37988 12 12 12h40zM132 272c6.62012 0 12 -5.37012 12 -12v-40c0 -6.62988 -5.37988 -12 -12 -12h-40c-6.62012 0 -12 5.37012 -12 12v40c0 6.62988 5.37988 12 12 12h40zM228 80c6.62012 0 12 -5.37012 12 -12v-40c0 -6.62988 -5.37988 -12 -12 -12h-40
c-6.62012 0 -12 5.37012 -12 12v40c0 6.62988 5.37988 12 12 12h40zM228 176c6.62012 0 12 -5.37012 12 -12v-40c0 -6.62988 -5.37988 -12 -12 -12h-40c-6.62012 0 -12 5.37012 -12 12v40c0 6.62988 5.37988 12 12 12h40zM228 272c6.62012 0 12 -5.37012 12 -12v-40
c0 -6.62988 -5.37988 -12 -12 -12h-40c-6.62012 0 -12 5.37012 -12 12v40c0 6.62988 5.37988 12 12 12h40zM420 176c6.62012 0 12 -5.37012 12 -12v-40c0 -6.62988 -5.37988 -12 -12 -12h-40c-6.62012 0 -12 5.37012 -12 12v40c0 6.62988 5.37988 12 12 12h40zM420 272
c6.62012 0 12 -5.37012 12 -12v-40c0 -6.62988 -5.37988 -12 -12 -12h-40c-6.62012 0 -12 5.37012 -12 12v40c0 6.62988 5.37988 12 12 12h40zM420 368c6.62012 0 12 -5.37012 12 -12v-40c0 -6.62988 -5.37988 -12 -12 -12h-40c-6.62012 0 -12 5.37012 -12 12v40
c0 6.62988 5.37988 12 12 12h40zM548 80c6.62012 0 12 -5.37012 12 -12v-40c0 -6.62988 -5.37988 -12 -12 -12h-40c-6.62012 0 -12 5.37012 -12 12v40c0 6.62988 5.37988 12 12 12h40zM548 176c6.62012 0 12 -5.37012 12 -12v-40c0 -6.62988 -5.37988 -12 -12 -12h-40
c-6.62012 0 -12 5.37012 -12 12v40c0 6.62988 5.37988 12 12 12h40zM616 256c13.25 0 24 -10.7402 24 -24v-288c0 -4.41992 -3.58008 -8 -8 -8h-16c-4.41992 0 -8 3.58008 -8 8v280h-128v192h-160v-96h-288v-376c0 -4.41992 -3.58008 -8 -8 -8h-16
c-4.41992 0 -8 3.58008 -8 8v384c0 13.2598 10.75 24 24 24h72v88c0 4.41992 3.58008 8 8 8h16c4.41992 0 8 -3.58008 8 -8v-88h64v88c0 4.41992 3.58008 8 8 8h16c4.41992 0 8 -3.58008 8 -8v-88h64v72c0 13.2598 10.75 24 24 24h176c13.25 0 24 -10.7402 24 -24v-168h104z
" />
    <glyph glyph-name="comment-alt-dollar" unicode="&#xf650;" 
d="M448 448c35.3496 0 64 -28.6504 64 -64v-288c0 -35.3496 -28.6504 -64 -64 -64h-144l-124.87 -93.6299c-2.20996 -1.62988 -4.66992 -2.37012 -7.08008 -2.37012c-6.21973 0 -12.0498 4.91992 -12.0498 12.0195v83.9805h-96c-35.3496 0 -64 28.6504 -64 64v288
c0 35.3496 28.6504 64 64 64h384zM480 96v288c0 17.6396 -14.3604 32 -32 32h-384c-17.6396 0 -32 -14.3604 -32 -32v-288c0 -17.6396 14.3604 -32 32 -32h128v-75.9805l92.8096 69.5801l8.53027 6.40039h154.66c17.6396 0 32 14.3604 32 32zM289.94 246.95
c27.8594 -7.98047 45.29 -38.1299 35.1396 -67.7705c-7.38965 -21.5801 -28.9102 -35.1699 -51.7197 -35.1699h-1.36035v-24c0 -4.41992 -3.58008 -8 -8 -8h-16c-4.41992 0 -8 3.58008 -8 8v24h-1.37988c-15.7197 0 -30.6396 5.10059 -42.9004 14.5098
c-3.92969 3.02051 -4.48926 8.73047 -0.989258 12.2305l11.4199 11.4199c2.61914 2.62012 6.84961 3.33008 9.83984 1.16016c6.5498 -4.75977 14.3896 -7.32031 22.6299 -7.32031h36.9102c11.2793 0 20.4697 9.18066 20.4697 20.4805
c0 9.08984 -6.12988 17.1797 -14.8799 19.7002l-56.4404 16.1094c-21.3896 6.10059 -38.3896 24.0605 -40.4492 46.2197c-2.89062 31.1807 21.6494 57.4805 52.2393 57.4805h3.53027v24c0 4.41992 3.58008 8 8 8h16c4.41992 0 8 -3.58008 8 -8v-24.0098h1.37988
c15.7197 0 30.6396 -5.10059 42.9004 -14.5098c3.92969 -3.01074 4.48926 -8.73047 0.989258 -12.2305l-11.4199 -11.4199c-2.61914 -2.62012 -6.84961 -3.33008 -9.83984 -1.16016c-6.5498 4.75977 -14.3896 7.32031 -22.6299 7.32031h-36.9102
c-11.2793 0 -20.4697 -9.18066 -20.4697 -20.4805c0 -9.08984 6.12988 -17.1797 14.8799 -19.7002z" />
    <glyph glyph-name="comment-dollar" unicode="&#xf651;" 
d="M256 416c141.38 0 256 -93.1201 256 -208s-114.62 -208 -256 -208c-32.7998 0 -64.0498 5.2002 -92.8701 14.3301c-29.1299 -20.6104 -77.6396 -46.3301 -139.149 -46.3301c-9.59082 0 -18.2402 5.73047 -22.0303 14.5195
c-3.79004 8.79004 -1.96973 19.0303 4.58984 25.9805c0.429688 0.44043 31.46 33.7803 46.3604 73.2305c-33.04 35.0391 -52.9004 78.7197 -52.9004 126.27c0 114.88 114.62 208 256 208zM256 32c123.51 0 224 78.9502 224 176s-100.49 176 -224 176
s-224 -78.9502 -224 -176c0 -37.5996 15.2803 -73.6699 44.1797 -104.33l13.7207 -14.5498l-7.07031 -18.71c-10.9902 -29.1104 -28.8203 -54.46 -40.8105 -69.5498c44.0908 4.25 79.6006 23.2998 102.62 39.5898l12.9902 9.18945l15.1602 -4.7998
c26.8896 -8.51953 54.8799 -12.8398 83.21 -12.8398zM289.94 214.95c27.8594 -7.98047 45.29 -38.1299 35.1396 -67.7803c-7.38965 -21.5801 -28.9102 -35.1699 -51.7197 -35.1699h-1.36035v-24c0 -4.41992 -3.58008 -8 -8 -8h-16c-4.41992 0 -8 3.58008 -8 8v24h-1.37988
c-15.7197 0 -30.6396 5.09961 -42.9004 14.5098c-3.92969 3.02051 -4.48926 8.73047 -0.989258 12.2305l11.4199 11.4199c2.61914 2.62012 6.84961 3.33008 9.83984 1.16016c6.5498 -4.76074 14.3896 -7.32031 22.6299 -7.32031h36.9102
c11.2793 0 20.4697 9.17969 20.4697 20.4805c0 9.08984 -6.12988 17.1797 -14.8799 19.6992l-56.4404 16.1104c-21.3896 6.09961 -38.3896 24.0596 -40.4492 46.2197c-2.89062 31.1807 21.6494 57.4805 52.2393 57.4805h3.53027v24c0 4.41992 3.58008 8 8 8h16
c4.41992 0 8 -3.58008 8 -8v-24h1.37988c15.7197 0 30.6396 -5.10059 42.9004 -14.5098c3.92969 -3.01074 4.48926 -8.73047 0.989258 -12.2305l-11.4199 -11.4199c-2.61914 -2.62012 -6.84961 -3.33008 -9.83984 -1.16016
c-6.5498 4.75977 -14.3896 7.32031 -22.6299 7.32031h-36.9102c-11.2793 0 -20.4697 -9.18066 -20.4697 -20.4805c0 -9.08984 6.12988 -17.1797 14.8799 -19.7002z" />
    <glyph glyph-name="comments-alt-dollar" unicode="&#xf652;" horiz-adv-x="576" 
d="M224 213.4v-13.4004c0 -4.41992 -3.58008 -8 -8 -8h-16c-4.41992 0 -8 3.58008 -8 8v13.3203c-10.1104 0.739258 -19.9004 4.29004 -28.0801 10.3193c-3.91992 2.89062 -4.07031 8.75 -0.540039 12.1104l11.4404 10.8701c2.68945 2.5498 6.83008 3.33984 10 1.39941
c3.30957 -2.01953 7.05957 -3.09961 10.96 -3.09961h25.9395c5.32031 0 9.66016 4.91016 9.66016 10.9404c0 4.95996 -2.96973 9.30957 -7.18945 10.5801l-41.5605 12.4697c-17.6602 5.29004 -30 22.25 -30 41.2295c0 22.8408 17.5303 41.1699 39.3799 42.46v13.4004
c0 4.41992 3.58008 8 8 8h16c4.41992 0 8 -3.58008 8 -8v-13.3203c10.1104 -0.739258 19.9004 -4.29004 28.0801 -10.3193c3.91992 -2.89062 4.07031 -8.75 0.540039 -12.1104l-11.4395 -10.8701c-2.69043 -2.5498 -6.83008 -3.33008 -10 -1.39941
c-3.31055 2.01953 -7.06055 3.09961 -10.96 3.09961h-25.9404c-5.32031 0 -9.66016 -4.91016 -9.66016 -10.9404c0 -4.95996 2.96973 -9.30957 7.19043 -10.5801l41.5596 -12.4697c17.6602 -5.29004 30 -22.25 30 -41.2295c0 -22.8408 -17.5303 -41.1699 -39.3799 -42.46z
M512 288c35.3496 0 64 -28.6504 64 -64v-160c0 -35.3496 -28.6504 -64 -64 -64h-32v-51.9805c0 -7.09961 -5.83008 -12.0195 -12.0498 -12.0195c-2.40039 0 -4.87012 0.740234 -7.08008 2.37012l-108.87 61.6299h-96c-35.3496 0 -64 28.6504 -64 64v45.8799
l-76.8701 -43.5098c-2.20996 -1.62988 -4.66992 -2.37012 -7.08008 -2.37012c-6.21973 0 -12.0498 4.91992 -12.0498 12.0195v51.9805h-32c-35.3496 0 -64 28.6504 -64 64v192c0 35.3496 28.6504 64 64 64h288c35.3496 0 64 -28.6504 64 -64v-96h96zM128 110.43
l87.5703 49.5703h136.43c17.6396 0 32 14.3604 32 32v192c0 17.6396 -14.3604 32 -32 32h-288c-17.6396 0 -32 -14.3604 -32 -32v-192c0 -17.6396 14.3604 -32 32 -32h64v-49.5703zM544 64v160c0 17.6396 -14.3604 32 -32 32h-96v-64c0 -35.3496 -28.6504 -64 -64 -64h-128
v-64c0 -17.6396 14.3604 -32 32 -32h104.43l87.5703 -49.5703v49.5703h64c17.6396 0 32 14.3604 32 32z" />
    <glyph glyph-name="comments-dollar" unicode="&#xf653;" horiz-adv-x="576" 
d="M532.01 61.8301c15.2998 -30.7402 37.3398 -54.5205 37.6904 -54.8799c6.30957 -6.69043 8.05957 -16.5303 4.41992 -24.9902c-3.62988 -8.45996 -11.96 -13.96 -21.1797 -13.96c-53.54 0 -96.6709 20.2402 -125.171 38.7803
c-18.9395 -4.37012 -38.9795 -6.78027 -59.7695 -6.78027c-86.2695 0 -160.26 40.4102 -191.77 97.96c-9.55078 1.13965 -18.9209 2.73047 -28 4.82031c-28.5 -18.54 -71.6309 -38.7803 -125.171 -38.7803c-9.49805 0.00488281 -17.6523 5.74121 -21.1895 13.9502
c-3.62988 8.45996 -1.88965 18.2998 4.41992 24.9902c0.360352 0.359375 22.4004 24.1494 37.7002 54.8896c-27.4707 27.1201 -43.9902 61.1299 -43.9902 98.1699c0 88.3701 93.1201 160 208 160c86.3398 0 160.37 -40.4697 191.83 -98.0898
c0 0.00976562 -0.00976562 0.0195312 -0.00976562 0.0302734c99.7295 -11.8105 176.18 -77.9209 176.18 -157.94c0 -37.04 -16.5195 -71.0498 -43.9902 -98.1699zM155.42 133.96c17.1602 -3.9502 34.8496 -5.95996 52.5801 -5.95996c97.0498 0 176 57.4199 176 128
s-78.9502 128 -176 128s-176 -57.4199 -176 -128c0 -34.1904 18.75 -59.8701 34.4805 -75.4004l16.4893 -16.2793l-10.3193 -20.75c-9.37012 -18.8301 -20.7705 -35.1406 -29.54 -46.4404c37.1895 4.21973 67.6094 19.4102 87.6797 32.4697l11.3896 7.41016zM445.22 33.6104
c20.0703 -13.0605 50.4805 -28.25 87.6699 -32.4707c-8.71973 11.25 -20.1494 27.5801 -29.5293 46.4404l-10.3203 20.75l16.4902 16.2803c15.7197 15.5195 34.4697 41.1992 34.4697 75.3896c0 59.3301 -55.8799 109.22 -131.32 123.66
c2.05078 -9 3.32031 -18.21 3.32031 -27.6602c0 -86.4004 -89.0898 -156.62 -200.43 -159.71c30.4297 -38.3496 87.29 -64.29 152.43 -64.29c18.1152 0 35.6514 2.07129 52.5898 5.96973l13.2402 3.0498zM233.38 265.09c17.6504 -5.29004 30 -22.25 30 -41.2295
c0 -22.8408 -17.5303 -41.1699 -39.3799 -42.46v-13.4004c0 -4.41992 -3.58008 -8 -8 -8h-16c-4.41992 0 -8 3.58008 -8 8v13.3203c-10.1104 0.739258 -19.9004 4.29004 -28.0801 10.3193c-3.91992 2.89062 -4.07031 8.75 -0.540039 12.1104l11.4404 10.8701
c2.68945 2.5498 6.83008 3.33984 10 1.39941c3.30957 -2.01953 7.05957 -3.09961 10.96 -3.09961h25.9395c5.32031 0 9.66016 4.91016 9.66016 10.9404c0 4.95996 -2.96973 9.30957 -7.18945 10.5801l-41.5605 12.4697c-17.6602 5.29004 -30 22.25 -30 41.2295
c0 22.8408 17.5303 41.1699 39.3799 42.46v13.4004c0 4.41992 3.58008 8 8 8h16c4.41992 0 8 -3.58008 8 -8v-13.3203c10.1104 -0.739258 19.9004 -4.29004 28.0801 -10.3193c3.91992 -2.89062 4.07031 -8.75 0.540039 -12.1104l-11.4395 -10.8701
c-2.69043 -2.5498 -6.83008 -3.33008 -10 -1.39941c-3.31055 2.01953 -7.06055 3.09961 -10.96 3.09961h-25.9404c-5.32031 0 -9.66016 -4.91016 -9.66016 -10.9404c0 -4.95996 2.96973 -9.30957 7.19043 -10.5801z" />
    <glyph glyph-name="dharmachakra" unicode="&#xf655;" 
d="M503.67 215.65c4.54004 0.189453 8.33008 -3.44043 8.32031 -7.99023v-31.3203c0 -4.5498 -3.78027 -8.17969 -8.33008 -7.99023l-24.8105 1.03027c-4.5 -44.8896 -22.2695 -85.8398 -49.3096 -118.939l18.3096 -16.8408
c1.59082 -1.46094 2.58691 -3.55762 2.58691 -5.88574c0 -2.20703 -0.897461 -4.20703 -2.34668 -5.6543l-22.1494 -22.1494c-3.20996 -3.21973 -8.45996 -3.11035 -11.54 0.240234l-16.8408 18.3096c-33.0996 -27.0303 -74.0498 -44.8096 -118.939 -49.3096
l1.03027 -24.8105c0.189453 -4.54004 -3.44043 -8.33008 -7.99023 -8.33008h-31.3203c-4.41309 0 -7.99707 3.57812 -7.99707 7.99219c0 0.113281 0.00292969 0.225586 0.00683594 0.337891l1.03027 24.8105c-44.8896 4.5 -85.8398 22.2695 -118.939 49.3096
l-16.8408 -18.3096c-3.08008 -3.35059 -8.33008 -3.45996 -11.54 -0.240234l-22.1494 22.1494c-3.21973 3.20996 -3.11035 8.45996 0.240234 11.54l18.2998 16.8408c-27.0303 33.0996 -44.8105 74.0498 -49.3105 118.939l-24.8096 -1.03027
c-4.54004 -0.189453 -8.33008 3.44043 -8.33008 7.99023v31.3203c0 4.5498 3.79004 8.17969 8.33984 8l24.8105 -1.03027c4.5 44.8896 22.2695 85.8398 49.3096 118.94l-18.3096 16.8398c-1.59082 1.46094 -2.58691 3.55762 -2.58691 5.88574
c0 2.20801 0.897461 4.20703 2.34668 5.6543l22.1494 22.1396c3.20996 3.21973 8.45996 3.11035 11.54 -0.240234l16.8506 -18.3096c33.0996 27.0303 74.0596 44.8096 118.939 49.3096l-1.0293 24.8105c-0.19043 4.54004 3.43945 8.33008 7.98926 8.33008h31.3203
c4.41406 0 7.99707 -3.57812 7.99707 -7.99219c0 -0.113281 -0.00195312 -0.225586 -0.00683594 -0.337891l-1.03027 -24.8105c44.8896 -4.5 85.8398 -22.2793 118.94 -49.3096l16.8398 18.3096c3.08008 3.35059 8.33008 3.4502 11.54 0.240234l22.1494 -22.1494
c3.2207 -3.20996 3.11035 -8.45996 -0.239258 -11.54l-18.3105 -16.8408c27.0303 -33.0996 44.8105 -74.0498 49.3105 -118.939zM446.75 213.28c-4.09961 37.0098 -18.79 70.8193 -40.9199 98.46l-70.9102 -65.2402c7.59961 -10.9697 12.8604 -23.5996 15.3398 -37.2402z
M256 128c35.29 0 64 28.71 64 64s-28.71 64 -64 64s-64 -28.71 -64 -64s28.71 -64 64 -64zM375.74 341.83c-27.6406 22.1299 -61.4502 36.8203 -98.46 40.9199l-4.02051 -96.4902c13.6406 -2.47949 26.2705 -7.74023 37.2402 -15.3398zM234.72 382.75
c-37.0098 -4.09961 -70.8193 -18.79 -98.46 -40.9199l65.2402 -70.9102c10.9697 7.59961 23.5996 12.8604 37.2402 15.3398zM106.17 311.74c-22.1299 -27.6406 -36.8203 -61.4502 -40.9199 -98.46l96.4902 -4.02051c2.47949 13.6406 7.74023 26.2705 15.3398 37.2402z
M65.25 170.72c4.09961 -37.0098 18.79 -70.8193 40.9199 -98.46l70.9102 65.2402c-7.59961 10.9697 -12.8604 23.5996 -15.3398 37.2402zM136.26 42.1699c27.6406 -22.1299 61.4502 -36.8203 98.46 -40.9199l4.02051 96.4902
c-13.6406 2.47949 -26.2705 7.74023 -37.2402 15.3398zM277.28 1.25c37.0098 4.09961 70.8193 18.79 98.46 40.9199l-65.2402 70.9102c-10.9697 -7.59961 -23.5996 -12.8604 -37.2402 -15.3398zM405.83 72.2598c22.1299 27.6406 36.8203 61.4502 40.9199 98.46
l-96.4902 4.02051c-2.47949 -13.6406 -7.74023 -26.2705 -15.3398 -37.2402z" />
    <glyph glyph-name="empty-set" unicode="&#xf656;" horiz-adv-x="448" 
d="M445.66 402.35c1.44629 -1.4502 2.34082 -3.45312 2.34082 -5.66113s-0.894531 -4.20801 -2.34082 -5.6582l-75.1201 -75.1201c28.3096 -33.4502 45.46 -76.6504 45.46 -123.91c0 -106.04 -85.96 -192 -192 -192c-47.2598 0 -90.46 17.1504 -123.92 45.4697
l-75.1201 -75.1201c-3.12012 -3.11914 -8.19043 -3.11914 -11.3096 0l-11.3105 11.3105c-3.12012 3.12012 -3.12012 8.18945 0 11.3096l75.1201 75.1201c-28.3096 33.4502 -45.46 76.6504 -45.46 123.91c0 106.04 85.96 192 192 192c47.2598 0 90.46 -17.1504 123.92 -45.46
l75.1201 75.1201c3.12012 3.12012 8.19043 3.12012 11.3096 0zM64 192c0 -38.3398 14.1104 -73.0996 36.6904 -100.69l224 224c-27.5908 22.5703 -62.3506 36.6904 -100.69 36.6904c-88.2197 0 -160 -71.7803 -160 -160zM384 192
c0 38.3398 -14.1104 73.0996 -36.6904 100.69l-224 -224c27.5908 -22.5703 62.3506 -36.6904 100.69 -36.6904c88.2197 0 160 71.7803 160 160z" />
    <glyph glyph-name="folder-minus" unicode="&#xf65d;" 
d="M344 176c4.41992 0 8 -3.58008 8 -8v-16c0 -4.41992 -3.58008 -8 -8 -8h-176c-4.41992 0 -8 3.58008 -8 8v16c0 4.41992 3.58008 8 8 8h176zM194.74 352h-146.74c-8.83984 0 -16 -7.16016 -16 -16v-288c0 -8.83984 7.16016 -16 16 -16h416c8.83984 0 16 7.16016 16 16
v224c0 8.83984 -7.16016 16 -16 16h-192c-8.49023 0 -16.6299 3.37012 -22.6299 9.37012zM48 384h146.74c8.49023 0 16.6299 -3.37012 22.6299 -9.37012l54.6299 -54.6299h192c26.5098 0 48 -21.4902 48 -48v-224c0 -26.5098 -21.4902 -48 -48 -48h-416
c-26.5098 0 -48 21.4902 -48 48v288c0 26.5098 21.4902 48 48 48z" />
    <glyph glyph-name="folder-times" unicode="&#xf65f;" 
d="M329.54 222.23c1.44629 -1.4502 2.34082 -3.4541 2.34082 -5.66211c0 -2.20703 -0.894531 -4.20801 -2.34082 -5.6582l-50.9102 -50.9102l50.9004 -50.9199c3.12012 -3.12012 3.12012 -8.19043 0 -11.3105l-11.3105 -11.3096
c-3.12012 -3.12012 -8.18945 -3.12012 -11.3096 0l-50.9102 50.9102l-50.9199 -50.9004c-3.12012 -3.12012 -8.19043 -3.12012 -11.3105 0l-11.3096 11.3105c-3.12012 3.12012 -3.12012 8.18945 0 11.3096l50.9102 50.9102l-50.9004 50.9199
c-3.12012 3.12012 -3.12012 8.19043 0 11.3105l11.3105 11.3096c3.12012 3.12012 8.18945 3.12012 11.3096 0l50.9102 -50.9102l50.9199 50.9102c3.12012 3.12012 8.19043 3.12012 11.3105 0zM194.74 352h-146.74c-8.83984 0 -16 -7.16016 -16 -16v-288
c0 -8.83984 7.16016 -16 16 -16h416c8.83984 0 16 7.16016 16 16v224c0 8.83984 -7.16016 16 -16 16h-192c-8.49023 0 -16.6299 3.37012 -22.6299 9.37012zM48 384h146.74c8.49023 0 16.6299 -3.37012 22.6299 -9.37012l54.6299 -54.6299h192c26.5098 0 48 -21.4902 48 -48
v-224c0 -26.5098 -21.4902 -48 -48 -48h-416c-26.5098 0 -48 21.4902 -48 48v288c0 26.5098 21.4902 48 48 48z" />
    <glyph glyph-name="folders" unicode="&#xf660;" horiz-adv-x="640" 
d="M592 384c26.5098 0 48 -21.4902 48 -48v-224c0 -26.5098 -21.4902 -48 -48 -48h-80v-80c0 -26.5098 -21.4902 -48 -48 -48h-416c-26.5098 0 -48 21.4902 -48 48v288c0 26.5098 21.4902 48 48 48h80v80c0 26.5098 21.4902 48 48 48h146.74
c8.49023 0 16.6299 -3.37012 22.6299 -9.37012l54.6299 -54.6299h192zM480 -16v80h-304c-26.5098 0 -48 21.4902 -48 48v176h-80c-8.83984 0 -16 -7.16016 -16 -16v-288c0 -8.83984 7.16016 -16 16 -16h416c8.83984 0 16 7.16016 16 16zM608 112v224
c0 8.83984 -7.16016 16 -16 16h-192c-8.49023 0 -16.6299 3.37012 -22.6299 9.37012l-54.6299 54.6299h-146.74c-8.83984 0 -16 -7.16016 -16 -16v-288c0 -8.83984 7.16016 -16 16 -16h416c8.83984 0 16 7.16016 16 16z" />
    <glyph glyph-name="function" unicode="&#xf661;" horiz-adv-x="640" 
d="M308.8 341.4c3.5 -2.5 4.2002 -7.2002 1.7002 -10.6006c-36.0996 -51.7002 -55.2002 -110.5 -55.2002 -170.8s19 -119.2 55.2002 -170.8c2.5 -3.40039 1.7002 -8.10059 -1.7002 -10.6006l-12.7002 -9.09961c-3.59961 -2.59961 -8.69922 -1.7998 -11.1992 1.7998
c-39.9004 56.9004 -61 122 -61 188.7s21.0996 131.8 61 188.7c2.59961 3.59961 7.59961 4.39941 11.1992 1.7998zM224 408v-16c0 -4.40039 -3.59961 -8 -8 -8h-56c-26.5 0 -48 -21.5 -48 -48v-80h72c4.40039 0 8 -3.59961 8 -8v-16c0 -4.40039 -3.59961 -8 -8 -8h-72v-144
c0 -44.2002 -35.7998 -80 -80 -80h-24c-4.40039 0 -8 3.59961 -8 8v16c0 4.40039 3.59961 8 8 8h24c26.5 0 48 21.5 48 48v144h-72c-4.40039 0 -8 3.59961 -8 8v16c0 4.40039 3.59961 8 8 8h72v80c0 44.2002 35.7998 80 80 80h56c4.40039 0 8 -3.59961 8 -8zM579 348.7
c39.9004 -56.9004 61 -122 61 -188.7s-21.0996 -131.8 -61 -188.7c-2.5 -3.59961 -7.59961 -4.39941 -11.2002 -1.7998l-12.7002 9.09961c-3.39941 2.40039 -4.09961 7.10059 -1.69922 10.6006c36.0996 51.7002 55.1992 110.5 55.1992 170.8s-19 119.2 -55.1992 170.8
c-2.5 3.40039 -1.7002 8.10059 1.69922 10.6006l12.7002 9.09961c3.60059 2.59961 8.7002 1.7998 11.2002 -1.7998zM509.7 226.4c3.09961 -3.2002 3.09961 -8.2002 0 -11.3008l-55 -55l55 -55c3.09961 -3.09961 3.09961 -8.19922 0 -11.2998l-11.2998 -11.2998
c-3.10059 -3.09961 -8.2002 -3.09961 -11.3008 0l-55 55l-55 -55c-3.09961 -3.09961 -8.19922 -3.09961 -11.2998 0l-11.2998 11.2998c-3.09961 3.10059 -3.09961 8.2002 0 11.2998l55 55l-55 55c-3.09961 3.10059 -3.09961 8.2002 0 11.3008l11.2998 11.2998
c3.10059 3.09961 8.2002 3.09961 11.2998 0l55 -55l55 55c3.10059 3.09961 8.2002 3.09961 11.3008 0z" />
    <glyph glyph-name="funnel-dollar" unicode="&#xf662;" horiz-adv-x="640" 
d="M464.02 288c97.2002 0 175.98 -78.6396 175.98 -175.99c0 -97.2002 -78.6396 -175.979 -175.98 -175.979c-42.5596 0 -81.5898 15.0898 -112.02 40.21v-13.2207c0 -15.9893 -13.1299 -27.0195 -27.1201 -27.0195c-5.20996 0 -10.54 1.53027 -15.3604 4.90039l-74 46.9795
c-7.21973 5.0498 -11.5195 13.3105 -11.5195 22.1201v182l-216.06 209.91c-16.9902 16.9902 -4.89062 46.0898 19.0898 46.0898h521.939c24.04 0 36.0498 -29.1299 19.0898 -46.0898l-117.97 -114.61c4.61035 0.360352 9.23047 0.700195 13.9297 0.700195zM320 -26v37.0195
c-20.0801 28.5908 -31.96 63.3604 -31.96 101.011c0 69.1396 39.8896 128.779 97.9004 157.56l150.699 146.41h-497.29l216.65 -210.47v-193.061l0.259766 -0.219727zM464.02 -31.96c79.3906 0 143.98 64.5898 143.98 143.979c0 79.3906 -64.5898 143.98 -143.98 143.98
c-79.3896 0 -143.979 -64.5898 -143.979 -143.98c0 -79.3896 64.5898 -143.979 143.979 -143.979zM491.13 120.58c18.6006 -5.58008 31.5801 -23.4199 31.5801 -43.3896c0 -24.5303 -19.0498 -44.4404 -42.6699 -45.0703v-16.1201c0 -4.41992 -3.58008 -8 -8 -8h-16
c-4.41992 0 -8 3.58008 -8 8v16.29c-11.29 0.580078 -22.2705 4.51953 -31.3701 11.3496c-3.90039 2.93066 -4.09961 8.77051 -0.570312 12.1406l11.75 11.21c2.77051 2.63965 6.89062 2.75977 10.1309 0.729492c3.85938 -2.42969 8.25977 -3.71973 12.8193 -3.71973
h28.1104c6.5 0 11.7998 5.91992 11.7998 13.1904c0 5.94922 -3.61035 11.1797 -8.76953 12.7295l-45 13.5c-18.6006 5.58008 -31.5801 23.4199 -31.5801 43.3896c0 24.5205 19.0498 44.4404 42.6699 45.0703v16.1201c0 4.41992 3.58008 8 8 8h16c4.41992 0 8 -3.58008 8 -8
v-16.29c11.29 -0.580078 22.2695 -4.51953 31.3701 -11.3496c3.89941 -2.93066 4.09961 -8.77051 0.569336 -12.1406l-11.75 -11.21c-2.76953 -2.63965 -6.88965 -2.75977 -10.1299 -0.729492c-3.85938 2.42969 -8.25977 3.71973 -12.8203 3.71973h-28.1094
c-6.5 0 -11.7998 -5.91992 -11.7998 -13.1904c0 -5.94922 3.60938 -11.1797 8.76953 -12.7295z" />
    <glyph glyph-name="gift-card" unicode="&#xf663;" horiz-adv-x="576" 
d="M528 320c26.5098 0 48 -21.4902 48 -48v-288c0 -26.5098 -21.4902 -48 -48 -48h-480c-26.5098 0 -48 21.4902 -48 48v288c0 26.5098 21.4902 48 48 48h71.2998c-9.5 13.4004 -15.2998 29.9004 -15.2998 48c0 44.0996 33.4004 80 74.5 80
c42.2998 0 66.7998 -25.4004 109.5 -95.7998c42.7002 70.3994 67.2002 95.7998 109.5 95.7998c41.0996 0 74.5 -35.9004 74.5 -80c0 -18.0996 -5.7998 -34.5996 -15.2998 -48h71.2998zM308.2 323.6l-2.2002 -3.59961h91.5c23.4004 0 42.5 21.5 42.5 48s-19.0996 48 -42.5 48
c-23.2998 0 -39.7998 -9.09961 -89.2998 -92.4004zM178.5 416c-23.4004 0 -42.5 -21.5 -42.5996 -48c0 -26.5 19.0996 -48 42.5 -48h91.5l-2.10059 3.59961c-49.5 83.3008 -65.8994 92.4004 -89.2998 92.4004zM544 -16v32h-512v-32c0 -8.82031 7.17969 -16 16 -16h480
c8.82031 0 16 7.17969 16 16zM544 48v64h-512v-64h512zM544 144v128c0 8.83984 -7.16016 16 -16 16h-201.38l79.0303 -79.0303c3.11914 -3.12012 3.11914 -8.18945 0 -11.3096l-11.3105 -11.3105c-3.12012 -3.11914 -8.18945 -3.11914 -11.3096 0l-95.0303 95.0303
l-95.0303 -95.0303c-3.12012 -3.11914 -8.18945 -3.11914 -11.3096 0l-11.3105 11.3105c-3.11914 3.12012 -3.11914 8.18945 0 11.3096l79.0303 79.0303h-201.38c-8.83984 0 -16 -7.16016 -16 -16v-128h512z" />
    <glyph glyph-name="hamsa" unicode="&#xf665;" 
d="M256 120c13.25 0 24 -10.7402 24 -24s-10.75 -24 -24 -24s-24 10.7402 -24 24s10.75 24 24 24zM451.95 224c40.7402 0 60 -37.2402 60.0498 -64c0.0195312 -15.1904 -5.0498 -30.1299 -14.79 -42.0703l-89.7998 -110.04
c-37.3203 -45.6797 -92.5098 -71.8896 -151.4 -71.8896c-58.8896 0 -114.08 26.2002 -151.41 71.9004l-89.8096 110.04c-9.75 11.9395 -14.8203 26.8799 -14.79 42.0596c0.0498047 26.6904 18.96 64 60.0596 64h35.9404v128c0 35.29 28.71 64 64 64
c0.0283203 0 0.119141 -0.0371094 0.147461 -0.0371094c13.1211 0 25.3203 -3.98242 35.4521 -10.8027c8.75 24.9297 32.5205 42.8398 60.4004 42.8398s51.6504 -17.9102 60.4004 -42.8398c10.1895 6.84961 22.4395 10.8398 35.5996 10.8398c35.29 0 64 -28.71 64 -64v-128
h35.9502zM472.43 138.17c7.60059 9.31055 9.65039 22.8896 5.19043 34.5801c-4.41992 11.6904 -14.5098 19.25 -25.6699 19.25h-67.9502v160c0 19.3896 -17.4805 34.9004 -37.4697 31.54c-15.7305 -2.65039 -26.5303 -17.5303 -26.5303 -33.4902v-118.05
c0 -4.41992 -3.58008 -8 -8 -8h-16c-4.41992 0 -8 3.58008 -8 8v152c0 19.3896 -17.4805 34.9004 -37.4697 31.54c-15.7305 -2.65039 -26.5303 -17.5303 -26.5303 -33.4902v-150.05c0 -4.41992 -3.58008 -8 -8 -8h-16c-4.41992 0 -8 3.58008 -8 8v120
c0 19.3896 -17.4805 34.9004 -37.4697 31.54c-15.7305 -2.65039 -26.5303 -17.5303 -26.5303 -33.4902v-158.05h-67.9404c-11.1592 0 -21.25 -7.55957 -25.6592 -19.25c-4.45996 -11.6904 -2.41016 -25.2695 5.18945 -34.5801l89.7998 -110.03
c37.9102 -46.3994 97.79 -68.7793 158.591 -57.0693c38.3994 7.38965 72.3291 29.7393 97.0693 60.0293zM256 176c18.7598 0 57.9297 -1.78027 112.12 -69.8604c4.58984 -5.75977 4.58984 -14.5 0 -20.2695c-54.1602 -68.0498 -93.3301 -69.8701 -112.12 -69.8701
c-18.7598 0 -57.9297 1.78027 -112.12 69.8701c-4.58984 5.75977 -4.58984 14.5 0 20.2695c54.1602 68.04 93.3301 69.8604 112.12 69.8604zM256 48c44.1797 0 80 48 80 48s-35.8203 48 -80 48s-80 -48 -80 -48s35.8203 -48 80 -48z" />
    <glyph glyph-name="integral" unicode="&#xf667;" horiz-adv-x="366" 
d="M88.46 -31.8398c-19.2998 1.2998 -36.7998 11.9102 -48.8799 27.0195l-37.8301 47.2803c-1.09473 1.36914 -1.75 3.10547 -1.75 4.99414c0 2.52832 1.16699 4.78809 3 6.25586l12.5 10c1.36621 1.09473 3.09961 1.75 4.98535 1.75c2.52539 0 4.78125 -1.16699 6.24512 -3
l39.7197 -49.6504c7.68945 -9.63965 19.9297 -14.4092 32.4199 -12.3291c14.0596 2.33984 24.7197 14.0996 27.9297 27.9893l76.8506 333.311c6.42969 27.8994 28.8994 50.5098 57.3193 53.7695c23.0498 2.64062 45.1201 -6.58984 59.3799 -24.3799l43.9004 -54.9199
c1.09473 -1.36816 1.75 -3.10254 1.75 -4.98926c0 -2.52734 -1.16699 -4.78516 -3 -6.25098l-12.5 -10c-3.4502 -2.75977 -8.48047 -2.2002 -11.2305 1.25l-43.8994 54.9199c-7.7002 9.62012 -19.8301 14.3906 -32.29 12.3701
c-14.0898 -2.29004 -24.8301 -14.0195 -28.04 -27.9502l-77.5498 -336.31c-7.31055 -31.6904 -36.1006 -53.3496 -69.0303 -51.1299z" />
    <glyph glyph-name="intersection" unicode="&#xf668;" horiz-adv-x="320" 
d="M149.35 383.65c93.1904 6.04004 170.65 -67.7607 170.65 -159.65v-216c0 -4.41992 -3.58008 -8 -8 -8h-16c-4.41992 0 -8 3.58008 -8 8v216c0 73.4805 -62.2402 132.7 -136.76 127.7c-67.96 -4.5498 -119.24 -64.1104 -119.24 -132.22v-211.48
c0 -4.41992 -3.58008 -8 -8 -8h-16c-4.41992 0 -8 3.58008 -8 8v210.52c0 85.2207 64.3096 159.631 149.35 165.131z" />
    <glyph glyph-name="jedi" unicode="&#xf669;" horiz-adv-x="576" 
d="M560 206.766c0 -149.297 -122.029 -270.766 -271.996 -270.766c-146.435 0 -265.214 117.234 -271.714 258.047c-4.25 92.5469 38.4678 179.844 114.311 233.5c3.87402 2.76172 8.63477 4.40137 13.75 4.40625c13.2529 -0.0400391 24.001 -10.8125 24.001 -24.0752
c0 -3.12305 -0.604492 -6.12207 -1.68945 -8.8623c-5.74805 -14.4131 -8.96289 -30.2051 -8.96875 -46.6562c0 -41.1094 19.1875 -78.9062 52.625 -103.672c5.97754 -4.38477 9.8623 -11.459 9.8623 -19.4346c0 -7.13184 -3.11719 -13.5283 -8.0498 -17.9404
c-22.8662 -20.4502 -37.2676 -50.1729 -37.2676 -83.2334c0 -0.0273438 0.0488281 -0.0361328 0.0488281 -0.0634766c0 -56.5625 42.3428 -102.422 97.0928 -110.219v71.5781l-20.6875 -20.6875c-2.89648 -2.89941 -6.89844 -4.69434 -11.3174 -4.69434
c-8.8291 0 -15.998 7.16797 -15.998 15.998c0 4.41797 1.79102 8.4248 4.69043 11.3213l20.6875 20.6875h-25.375c-8.83008 0 -16 7.16895 -16 16s7.16992 16 16 16h25.375l-20.6875 20.6875c-2.89941 2.89648 -4.69434 6.89844 -4.69434 11.3174
c0 8.8291 7.16797 15.998 15.998 15.998c4.41797 0 8.4248 -1.79102 11.3213 -4.69043l20.6875 -20.6875v265.375c0 8.83008 7.16895 16 15.999 16c8.83105 0 16 -7.16992 16 -16v-265.375l20.6875 20.6875c2.89551 2.8916 6.8916 4.68066 11.3027 4.68066
c8.83008 0 15.998 -7.16797 15.998 -15.998c0 -4.41113 -1.78418 -8.41211 -4.67676 -11.3076l-20.6865 -20.6875h25.374c8.83105 0 16 -7.16895 16 -16s-7.16895 -16 -16 -16h-25.374l20.6865 -20.7031c2.8877 -2.89355 4.6748 -6.88672 4.6748 -11.2939
c0 -8.82617 -7.16602 -15.9932 -15.9932 -15.9932c-4.41113 0 -8.41113 1.78516 -11.3057 4.67773l-20.7188 20.6875v-71.6719c83.499 11.3125 96.9678 88.1406 97.0303 110.297v0.253906c0 32.9893 -14.3154 62.6289 -37.125 83.043
c-4.95117 4.40625 -8.07129 10.8252 -8.07129 17.9678c0 7.9834 3.8877 15.0479 9.88379 19.4229c33.4062 24.7656 52.5928 62.5469 52.5928 103.656c-0.00195312 16.4766 -3.22949 32.291 -9 46.7188c-1.08398 2.74023 -1.68066 5.72559 -1.68066 8.84961
c0 13.2627 10.7393 24.0479 23.9932 24.0879c5.10449 -0.0078125 9.85449 -1.64648 13.7188 -4.40625c69.3672 -48.9854 114.497 -129.574 114.686 -220.828zM526.251 179.203l-35.75 -31.2656c-2.8125 -2.45215 -6.48926 -3.93848 -10.5107 -3.93848
c-8.83398 0 -16.0068 7.17285 -16.0068 16.0068c0 4.80176 2.10254 9.10645 5.45508 12.041l57.6875 50.4688c-0.773438 12.5479 -2.53711 24.8799 -5.1875 36.8281l-30.6562 -30.6562c-2.89453 -2.89258 -6.89062 -4.68164 -11.3018 -4.68164
c-8.82617 0 -15.9922 7.16602 -15.9922 15.9922c0 4.40723 1.78223 8.40527 4.66895 11.2988l42.4062 42.4062c-13.9902 35.7158 -36.1113 67.0957 -64.374 92.0781c2.33008 -10.7793 3.55762 -21.9678 3.55762 -33.4404
c0 -0.0351562 0.00488281 0.0380859 0.00488281 0.00292969v-0.459961c0 -49.6553 -22.6455 -93.9785 -58.2803 -123.228c25.3779 -25.792 41.0449 -61.1689 41.0449 -100.177c0 -0.15918 -0.0136719 -0.335938 -0.0146484 -0.495117
c-0.1875 -87.8906 -72.8428 -143.828 -145.029 -143.828c-79.998 0 -145.06 64.8125 -145.06 144.469c0.154297 38.9121 15.7969 74.2344 41.0928 100.031c-35.6523 29.2363 -58.416 73.6211 -58.416 123.281c0 0.155273 0.103516 0.25 0.104492 0.40625v0.09375
c0.214844 11.4277 1.44238 22.5244 3.59375 33.375c-28.3555 -24.8906 -50.5391 -56.2441 -64.5303 -91.9688l42.5303 -42.5312c2.89258 -2.89551 4.68164 -6.89258 4.68164 -11.3037c0 -8.8291 -7.16895 -15.998 -15.998 -15.998
c-4.41113 0 -8.41309 1.78516 -11.3076 4.67676l-30.5 30.5c-2.7793 -11.7852 -4.69238 -23.999 -5.625 -36.3906l57.9678 -50.75c3.34277 -2.93359 5.45508 -7.2373 5.45508 -12.0293c0 -8.83203 -7.16992 -16.001 -16.001 -16.001
c-4.0166 0 -7.70508 1.48828 -10.5156 3.93652l-35.625 31.2031c10.9688 -93.5 92.9678 -211.156 238.184 -211.156c122.936 0 224.466 92.5156 238.247 211.203z" />
    <glyph glyph-name="kaaba" unicode="&#xf66b;" horiz-adv-x="576" 
d="M261.89 281.46c5.09082 1.38965 10.1104 -2.44043 10.1104 -7.72949v-16.5703c0 -0.00195312 -0.00195312 -0.00292969 -0.00195312 -0.00488281c0 -3.68359 -2.49609 -6.78906 -5.8877 -7.71484l-96 -26.1807c-5.09082 -1.38965 -10.1104 2.44043 -10.1104 7.7207
v16.5791c0 0.00195312 0.00195312 0.00292969 0.00195312 0.00488281c0 3.68359 2.49609 6.78906 5.8877 7.71582zM309.89 249.45c-3.3916 0.926758 -5.88965 4.03223 -5.88965 7.71582v0.0136719v16.5703c0 5.28027 5.01953 9.11035 10.1104 7.71973l96 -26.1797
c3.47949 -0.950195 5.88965 -4.11035 5.88965 -7.71973v-16.5801c0 -5.28027 -5.01953 -9.11035 -10.1104 -7.7207zM554.12 364.49c13.0703 -4.36035 21.8799 -16.5898 21.8994 -30.3604v-310.8c0 -15 -10.4199 -27.9902 -25.0596 -31.2402l-242.12 -53.7998
c-6.85938 -1.53027 -13.8398 -2.29004 -20.8301 -2.29004s-13.9697 0.759766 -20.8301 2.29004l-242.12 53.7998c-14.6396 3.25977 -25.0596 16.2402 -25.0596 31.2402v310.8c0.000976562 14.1279 9.16992 26.1211 21.8799 30.3604l235.76 78.5801
c9.85059 3.29004 20.1104 4.92969 30.3604 4.92969s20.5098 -1.63965 30.3604 -4.92969zM544 218.7v42.6094l-242.22 72.6504c-9.06055 2.71973 -18.5303 2.70996 -27.5303 0.0205078l-242.25 -72.6807v-42.4395l85.8896 23.3398
c5.09082 1.38965 10.1104 -2.44043 10.1104 -7.71973v-16.5801c0 -0.00195312 -0.00195312 -0.00292969 -0.00195312 -0.00488281c0 -3.68359 -2.49609 -6.78906 -5.8877 -7.71582l-90.1104 -24.4795v-162.37l242.11 -53.7998
c4.4834 -0.99707 9.0625 -1.52246 13.8438 -1.52246c4.78223 0 9.44238 0.525391 13.9258 1.52246l242.12 53.7998v162.59l-90.1104 24.25c-3.47949 0.950195 -5.88965 4.11035 -5.88965 7.71973v16.5801c0 5.28027 5.01953 9.11035 10.1104 7.7207zM544 294.72v39.4102
l-235.76 78.5801c-17.7705 5.91992 -32.9102 2.53027 -40.4805 0l-235.76 -78.5898v-39.4102l233.03 69.9199c14.9697 4.53027 30.8799 4.54004 45.9697 -0.0195312z" />
    <glyph glyph-name="keynote" unicode="&#xf66c;" 
d="M505.24 173.51c4.4502 -8.87988 6.75977 -18.6797 6.75977 -28.6201v-48.8896c0 -17.6699 -14.3301 -32 -32 -32h-160v-96h56c4.41992 0 8 -3.58008 8 -8v-16c0 -4.41992 -3.58008 -8 -8 -8h-240c-4.41992 0 -8 3.58008 -8 8v16c0 4.41992 3.58008 8 8 8h56v96h-160
c-17.6699 0 -32 14.3301 -32 32v48.8896c0 0.0078125 0.0371094 0.0761719 0.0371094 0.0839844c0 10.2539 2.42188 19.9463 6.72266 28.5361l48.4004 96.7998c5.25 10.502 16.0898 17.6895 28.6201 17.6904h12.2197v16c0 57.1299 43.1699 103.88 98.5195 110.64
c6.21094 19.3008 24.1104 33.3604 45.4805 33.3604h64c26.5098 0 48 -21.4902 48 -48s-21.4902 -48 -48 -48h-64c-20.4004 0 -37.71 12.7803 -44.6602 30.7197c-38.0898 -6.12012 -67.3398 -38.9502 -67.3398 -78.7197v-16h300.22
c12.5303 -0.000976562 23.3701 -7.18848 28.6201 -17.6904zM240 416c-8.82031 0 -16 -7.17969 -16 -16s7.17969 -16 16 -16h64c8.82031 0 16 7.17969 16 16s-7.17969 16 -16 16h-64zM83.7803 256l-48 -96h440.45l-48 96h-344.45zM288 -32v96h-64v-96h64zM480 96v32h-448v-32
h448z" />
    <glyph glyph-name="khanda" unicode="&#xf66d;" 
d="M415.81 382c73.71 -40.2402 111.78 -123.85 90.1602 -207.51c-7.25 -28.0898 -22.3799 -53.5703 -41.25 -75.5898l-52.5098 -61.3105c-3.12012 -3.64941 -7.59961 -5.58984 -12.1504 -5.58984c-2.5498 0 -5.11914 0.620117 -7.5 1.87988l-79.3496 42.2305
l-29.21 -20.3408l47.0801 -32.7793c1.66992 0.370117 3.22949 1.00977 5.00977 1.00977c13.25 0 23.9902 -10.7402 23.9902 -24c0 -13.25 -10.7402 -24 -23.9902 -24c-12.0898 0 -21.6797 9.11035 -23.3301 20.7598l-40.9102 28.4805v-30.1504
c9.38086 -5.58008 15.9902 -15.3896 15.9902 -27.0996c0 -17.6699 -14.3203 -32 -31.9795 -32c-17.6602 0 -31.9805 14.3301 -31.9805 32c0 11.7197 6.60059 21.5293 15.9902 27.0996v29.9502l-40.6299 -28.2803c-1.64062 -11.6494 -11.2305 -20.7598 -23.3301 -20.7598
c-13.25 0 -23.9902 10.75 -23.9902 24c0 13.2598 10.7402 24 23.9902 24c1.78027 0 3.33984 -0.639648 5.00977 -1.00977l47.0801 32.7793l-29.21 20.3408l-79.3496 -42.2305c-2.37012 -1.26953 -4.9502 -1.87988 -7.5 -1.87988
c-4.55078 0 -9.03027 1.94043 -12.1504 5.58984l-55.9697 65.3604c-12.5703 14.6797 -23.3906 31.0693 -30.46 49.0596c-35.6602 90.6904 2.95996 186.391 81.4893 229.24c2.53027 1.40039 5.44043 2.09961 8.33008 2.09961c4.35059 0 8.69043 -1.58984 11.6904 -4.7998
c4.99023 -5.30957 6.45996 -12.9199 2.58984 -19.0801c-16.4902 -26.1602 -25.2002 -56.3896 -25.2002 -87.4697c0.180664 -53.1904 26.7598 -102.62 71.0303 -132.18l76.5898 -53.3301v19.8994l-44.0498 36.0908c-3.91016 4.20996 -5 10.0996 -2.81055 15.2793
l7.85059 17.2402c-33.8506 19.2598 -56.9404 55.2402 -56.9404 96.9902c0 40.79 22.0205 76.1396 54.5898 95.7197l-5.21973 11.4404c-2.2002 5.22949 -1.17969 11.5996 3.57031 16.04l58.9902 52.8096l58.9893 -52.8203c4.81055 -4.5 5.74023 -10.8994 3.57031 -16.04
l-5.21973 -11.4395c32.5693 -19.5801 54.5898 -54.9199 54.5898 -95.71c0 -41.7402 -23.0996 -77.7305 -56.9404 -96.9902l7.85059 -17.2402c2.18945 -5.18945 1.10938 -11.0801 -2.81055 -15.2793l-44.0498 -36.0908v-20.0996l76.6299 53.3496
c44.5 29.7207 71.0801 79.1602 71.2705 132.41c0 31.0205 -8.70996 61.25 -25.2002 87.4102c-1.55762 2.46582 -2.46973 5.40723 -2.46973 8.53613c0 4.25293 1.66602 8.12012 4.37988 10.9844c3.08984 3.2998 7.31934 5.00977 11.5996 5.00977
c0.00292969 0 0.0224609 -0.0107422 0.0244141 -0.0107422c2.80371 0 5.43945 -0.717773 7.73535 -1.97949zM115.73 68.1504l53.5596 28.5098l-24.2803 16.9102c-52.6396 35.1299 -84.5098 94.4492 -84.7295 158.319
c0 0.0341797 0.00878906 -0.0498047 0.00878906 -0.015625c0 15.1279 1.70801 29.8613 4.94141 44.0156c-33.5205 -41.2393 -43.2002 -98.5293 -22.1104 -152.159c5.2002 -13.2305 13.5996 -26.6709 24.9795 -39.9609zM299.94 338.63l-14.6201 -32.0498
c-8.75 -24.5205 -8.75 -51.04 0 -75.5605l12.2695 -26.9297c22.8301 14.1006 38.21 39.1504 38.21 67.9102c0 27.7998 -14.2803 52.29 -35.8594 66.6299zM255.86 405.06l-27.8799 -24.9492l27.4893 -60.2607l0.379883 -0.830078l0.380859 0.830078l27.4795 60.2803z
M214.11 204.09l12.2598 26.9199c8.75 24.5303 8.75 51.04 0 75.5605l-14.6104 32.0596c-21.5693 -14.3398 -35.8594 -38.8203 -35.8594 -66.6299c0 -28.7598 15.3799 -53.8096 38.21 -67.9102zM255.86 134.66l27.8301 22.8096l-27.4707 60.2803l-0.370117 0.820312
l-0.369141 -0.820312l-27.4609 -60.2803zM475.02 182.5c12.4609 48.25 1.30078 96.6797 -28.1396 133c3.20996 -14.1699 4.85059 -28.7305 4.85059 -43.4297c-0.230469 -64.0107 -32.1904 -123.42 -85.5 -159.021l-23.5205 -16.3799l53.5703 -28.5098l44.1699 51.5703
c17.4395 20.3594 29.0693 41.4795 34.5693 62.7695z" />
    <glyph glyph-name="lambda" unicode="&#xf66e;" horiz-adv-x="448" 
d="M440 0c4.41992 0 8 -3.58008 8 -8v-16c0 -4.41992 -3.58008 -8 -8 -8h-77.7803c-12.8828 0.00195312 -23.9805 7.60547 -29.0498 18.5898l-155.25 336.38l-145.17 -350.05c-1.20312 -2.89062 -4.05273 -4.91992 -7.37695 -4.91992h-0.00292969h-17.3604
c-5.70996 0 -9.58008 5.80957 -7.38965 11.0801l159.06 383.39l-7.79004 16.8799c-1.2998 2.84082 -4.13965 4.65039 -7.25977 4.65039h-136.63c-4.41992 0 -8 3.58008 -8 8v16c0 4.41992 3.58008 8 8 8h141.78c12.8828 -0.00195312 23.9805 -7.60547 29.0498 -18.5898
l181.28 -392.76c1.2998 -2.84082 4.13965 -4.65039 7.25977 -4.65039h72.6299z" />
    <glyph glyph-name="landmark" unicode="&#xf66f;" horiz-adv-x="576" 
d="M565.62 355.89c6.24023 -2.33984 10.3799 -8.30957 10.3799 -14.9795v-36.9102c0 -8.83984 -7.16016 -16 -16 -16h-544c-8.83984 0 -16 7.16016 -16 16v36.9102c0.000976562 6.85547 4.31445 12.7041 10.3799 14.9795l266.38 90.0703
c3.62012 1.36035 7.43066 2.04004 11.2402 2.04004s7.62012 -0.679688 11.2402 -2.04004zM544 320v9.44043l-256 86.5596l-256 -86.5801v-9.41992h512zM568 -32c4.41992 0 8 -3.58008 8 -8v-16c0 -4.41992 -3.58008 -8 -8 -8h-560c-4.41992 0 -8 3.58008 -8 8v16
c0 4.41992 3.58008 8 8 8h24v64c0 17.6699 16.3701 32 36.5703 32h11.4297v192h32v-192h96v192h32v-192h96v192h32v-192h96v192h32v-192h11.4297c20.2002 0 36.5703 -14.3301 36.5703 -32v-64h24zM512 -32v62.7197c-0.700195 0.520508 -2.2002 1.28027 -4.57031 1.28027
h-438.859c-2.36035 0 -3.87012 -0.759766 -4.57031 -1.28027v-62.7197h448z" />
    <glyph glyph-name="lightbulb-dollar" unicode="&#xf670;" horiz-adv-x="352" 
d="M203.09 264.58c18.6006 -5.58008 31.5801 -23.4199 31.5801 -43.3896c0 -24.5303 -19.0498 -44.4404 -42.6699 -45.0703v-16.1201c0 -4.41992 -3.58008 -8 -8 -8h-16c-4.41992 0 -8 3.58008 -8 8v16.29c-11.29 0.580078 -22.2695 4.51953 -31.3701 11.3496
c-3.89941 2.93066 -4.09961 8.77051 -0.570312 12.1406l11.75 11.21c2.77051 2.63965 6.89062 2.75977 10.1309 0.729492c3.85938 -2.42969 8.25977 -3.71973 12.8193 -3.71973h28.1104c6.5 0 11.7998 5.91992 11.7998 13.1904c0 5.94922 -3.61035 11.1797 -8.76953 12.7295
l-45 13.5c-18.6006 5.58008 -31.5801 23.4199 -31.5801 43.3896c0 24.5205 19.0498 44.4404 42.6699 45.0703v16.1201c0 4.41992 3.58008 8 8 8h16c4.41992 0 8 -3.58008 8 -8v-16.29c11.29 -0.580078 22.2695 -4.51953 31.3701 -11.3496
c3.89941 -2.93066 4.09961 -8.77051 0.569336 -12.1406l-11.75 -11.21c-2.76953 -2.63965 -6.88965 -2.75977 -10.1299 -0.729492c-3.85938 2.42969 -8.25977 3.71973 -12.8193 3.71973h-28.1104c-6.5 0 -11.7998 -5.91992 -11.7998 -13.1904
c0 -5.94922 3.60938 -11.1797 8.76953 -12.7295zM176 448c97.2002 0 176 -78.7998 176 -176c0 -44.3701 -16.4502 -84.8496 -43.5596 -115.78c-25.4502 -29.0293 -50.1807 -76.5 -52.4404 -92.2197l-0.0703125 -75.1797
c-0.00976562 -3.14062 -0.939453 -6.2207 -2.67969 -8.83984l-24.5098 -36.8408c-2.95996 -4.45996 -7.95996 -7.13965 -13.3203 -7.13965h-78.8496c-5.35059 0 -10.3506 2.67969 -13.3203 7.13965l-24.5098 36.8408c-1.74023 2.61914 -2.68066 5.68945 -2.68066 8.83984
l-0.0595703 75.1797c-2.15039 15.3203 -26.79 62.9697 -52.4404 92.2197c-27.0596 30.8701 -43.5 71.2607 -43.5596 115.54c-0.120117 92.7002 73.0498 176.24 176 176.24zM223.94 -6.30957v6.30957h-95.9004l0.00976562 -6.30957l17.0898 -25.6904h61.71zM223.98 32
l0.0390625 32h-96.0791l0.0693359 -32h95.9707zM284.38 177.32c22.9697 26.1992 35.6201 59.8301 35.6201 94.6797c0 79.4004 -64.5996 144 -144 144c-83.5703 0 -144.13 -67.0098 -143.95 -144c0.0800781 -34.8496 12.4502 -68.2998 35.5801 -94.6797
c13.9902 -15.96 36.3203 -48.0898 50.5801 -81.3105h115.59c14.25 33.21 36.5898 65.3506 50.5801 81.3105z" />
    <glyph glyph-name="lightbulb-exclamation" unicode="&#xf671;" horiz-adv-x="352" 
d="M176 200c13.25 0 24 -10.7402 24 -24c0 -13.25 -10.75 -24 -24 -24s-24 10.75 -24 24c0 13.2598 10.75 24 24 24zM159.53 231.5l-7 112c-0.290039 4.61035 3.37012 8.5 7.97949 8.5h30.9707c4.60938 0 8.26953 -3.88965 7.97949 -8.5l-7 -112
c-0.261719 -4.17773 -3.7373 -7.49805 -7.97949 -7.5h-16.9707c-4.21973 0 -7.71973 3.28027 -7.97949 7.5zM176 448c97.2002 0 176 -78.7998 176 -176c0 -44.3701 -16.4502 -84.8496 -43.5596 -115.78c-25.4502 -29.0293 -50.1807 -76.5 -52.4404 -92.2197
l-0.0703125 -75.1797c-0.00976562 -3.14062 -0.939453 -6.2207 -2.67969 -8.83984l-24.5098 -36.8408c-2.95996 -4.45996 -7.95996 -7.13965 -13.3203 -7.13965h-78.8496c-5.35059 0 -10.3506 2.67969 -13.3203 7.13965l-24.5098 36.8408
c-1.74023 2.61914 -2.68066 5.68945 -2.68066 8.83984l-0.0595703 75.1797c-2.15039 15.3203 -26.79 62.9697 -52.4404 92.2197c-27.0596 30.8701 -43.5 71.2607 -43.5596 115.54c-0.120117 92.7002 73.0498 176.24 176 176.24zM223.94 -6.30957v6.30957h-95.9004
l0.00976562 -6.30957l17.0898 -25.6904h61.71zM223.98 32l0.0390625 32h-96.0791l0.0693359 -32h95.9707zM284.38 177.32c22.9697 26.1992 35.6201 59.8301 35.6201 94.6797c0 79.4004 -64.5996 144 -144 144c-83.5703 0 -144.13 -67.0098 -143.95 -144
c0.0800781 -34.8496 12.4502 -68.2998 35.5801 -94.6797c13.9902 -15.96 36.3203 -48.0898 50.5801 -81.3105h115.59c14.25 33.21 36.5898 65.3506 50.5801 81.3105z" />
    <glyph glyph-name="lightbulb-slash" unicode="&#xf673;" horiz-adv-x="640" 
d="M224 328.7c19.5 32.8994 55 55.2998 96 55.2998c8.7998 0 16 -7.2002 16 -16s-7.2002 -16 -16 -16c-30.7998 0 -57.2998 -17.7002 -70.5996 -43.2998zM320 416c-62.9004 0 -102.5 -36.7002 -121.7 -67l-25.2002 19.7998c23.7002 35.7998 71.8008 79.2002 146.9 79.2002
c97.2002 0 176 -78.7998 176 -175.9c0 -73.1992 -44.4004 -116.8 -47.2998 -120.3l-25 19.7002c5 6.09961 40.2998 41.4004 40.2998 100.5c0 79.4004 -64.5996 144 -144 144zM637 -37.2002c3.5 -2.7998 4 -7.7998 1.2002 -11.2998l-10 -12.5
c-2.7002 -3.40039 -7.7998 -4 -11.2002 -1.2002l-614 483.5c-3.40039 2.7002 -4 7.7002 -1.2002 11.2002l10 12.5c2.7002 3.5 7.7998 4 11.2002 1.2002zM262.2 96h102.1l36.7002 -28.9004c-0.0996094 -0.5 -0.900391 -2.69922 -1 -3.09961l-0.0996094 -75.2002
c0 -3.09961 -1 -6.2002 -2.7002 -8.7998l-24.5 -36.7998c-2.90039 -4.40039 -7.90039 -7.10059 -13.2998 -7.10059h-78.9004c-5.2998 0 -10.2998 2.60059 -13.2998 7.10059l-24.5 36.7998c-1.7998 2.59961 -2.7002 5.7002 -2.7002 8.7998l-0.0996094 75.2002
c-2.10059 15.2998 -26.7002 62.9004 -52.4004 92.2002c-26.5 30.2998 -42.5996 69.7998 -43.2998 113.1l35.2998 -27.7998c5.09961 -23.5996 15.9004 -45.7002 32.0996 -64.2002c14 -15.8994 36.3008 -48.0996 50.6006 -81.2998zM367.9 -6.2998h0.0996094v6.2998h-95.9004
v-6.2998l17.1006 -25.7002h61.7002zM368 32v32h-96.0996l0.0996094 -32h96z" />
    <glyph glyph-name="mail-bulk" unicode="&#xf674;" horiz-adv-x="640" 
d="M592 352c26.4697 0 48 -21.5303 48 -48v-224c0 -26.4697 -21.5303 -48 -48 -48h-176v32h176c8.83984 0 16 7.16016 16 16v224c0 8.83984 -7.16016 16 -16 16h-352c-8.83984 0 -16 -7.16016 -16 -16v-16h-32v16c0 26.4697 21.5303 48 48 48h352zM96 400v-112h-32v112
c0 26.4697 21.5303 48 48 48h288c26.4697 0 48 -21.5303 48 -48v-16h-32v16c0 8.83984 -7.16016 16 -16 16h-288c-8.83984 0 -16 -7.16016 -16 -16zM560 192h-64c-8.83984 0 -16 7.16016 -16 16v64c0 8.83984 7.16016 16 16 16h64c8.83984 0 16 -7.16016 16 -16v-64
c0 -8.83984 -7.16016 -16 -16 -16zM512 256v-32h32v32h-32zM336 256c26.4697 0 48 -21.5303 48 -48v-224c0 -26.4697 -21.5303 -48 -48 -48h-288c-26.4697 0 -48 21.5303 -48 48v224c0 26.4697 21.5303 48 48 48h288zM352 -16v150.4
c-12.7998 -9.60059 -32 -25.6006 -96 -70.4004c-12.7998 -9.59961 -38.4004 -32 -64 -32s-51.2002 22.4004 -64 32c-64 44.7998 -83.2002 60.7998 -96 70.4004v-150.4c0 -8.83984 7.16016 -16 16 -16h288c8.83984 0 16 7.16016 16 16zM352 172.8v35.2002
c0 8.83984 -7.16016 16 -16 16h-288c-8.83984 0 -16 -7.16016 -16 -16v-32c25.5996 -19.2002 22.4004 -19.2002 115.2 -86.4004c9.59961 -6.39941 28.7998 -25.5996 44.7998 -25.5996s35.2002 19.2002 44.7998 22.4004c92.7998 67.1992 89.6006 67.1992 115.2 86.3994z" />
    <glyph glyph-name="megaphone" unicode="&#xf675;" horiz-adv-x="576" 
d="M568 416c4.41992 0 8 -3.58008 8 -8v-432c0 -4.41992 -3.58008 -8 -8 -8h-16c-4.41992 0 -8 3.58008 -8 8v19.3301l-195.36 45.9697c-10.1895 -41.9902 -47.5098 -73.29 -92.6396 -73.29c-53.0195 0 -96 42.9805 -96 96c0 7.27051 1.01953 14.2705 2.58008 21.0703
l-130.58 30.7197v-11.7998c0 -4.41992 -3.58008 -8 -8 -8h-16c-4.41992 0 -8 3.58008 -8 8v176c0 4.41992 3.58008 8 8 8h16c4.41992 0 8 -3.58008 8 -8v-11.7998l512 120.47v19.3301c0 4.41992 3.58008 8 8 8h16zM256 0c29.9297 0 54.9199 20.7305 61.8896 48.5303
l-124.13 29.21c-1.04004 -4.43066 -1.75977 -8.99023 -1.75977 -13.7402c0 -35.29 28.71 -64 64 -64zM32 148.67l512 -120.47v327.6l-512 -120.47v-86.6602z" />
    <glyph glyph-name="mosque" unicode="&#xf678;" horiz-adv-x="640" 
d="M240 64c26.4697 0 48 -21.5303 48 -48v-72c0 -4.41992 -3.58008 -8 -8 -8h-16c-4.41992 0 -8 3.58008 -8 8v72c0 8.83008 -7.19043 16 -16 16s-16 -7.16992 -16 -16v-72c0 -4.41992 -3.58008 -8 -8 -8h-16c-4.41992 0 -8 3.58008 -8 8v70.1104
c0 24.8301 18.4697 49.8896 48 49.8896zM592 192c26.5098 0 48 -21.4902 48 -48v-200c0 -4.41992 -3.58008 -8 -8 -8h-16c-4.41992 0 -8 3.58008 -8 8v200c0 8.83984 -7.16016 16 -16 16h-416c-8.83984 0 -16 -7.16016 -16 -16v-200c0 -4.41992 -3.58008 -8 -8 -8h-16
c-4.41992 0 -8 3.58008 -8 8v312h-96v-320h-32v392c0 80 80 120 80 120s80 -40 80 -120v-138.95c5.03027 1.7998 10.3604 2.9502 16 2.9502h6.16992c-3.76953 8.63965 -6.16992 17.5898 -6.16992 26.9102c0 53.9297 43.5195 95.46 90.7402 124.66
c42.6494 26.3799 75.0098 52.5801 117.26 104.43c42.3896 -52.0098 75.4805 -78.5898 117.26 -104.43c47.2207 -29.2002 90.7402 -70.7305 90.7402 -124.66c0 -9.32031 -2.40039 -18.2705 -6.16992 -26.9102h6.16992zM128 288v40c0 40.5996 -29.5498 68.6201 -48 82.1504
c-18.4502 -13.5303 -48 -41.5508 -48 -82.1504v-40h96zM549.07 192c7.25977 9.21973 10.9297 18.2402 10.9297 26.9102c0 33.0303 -24.5596 65.2803 -73 95.8398c-40.9805 25.8604 -74.8896 53.4502 -103 83.8604c-28.1104 -30.4102 -62.0098 -58 -103 -83.8604
c-48.4404 -30.5703 -73 -62.8096 -73 -95.8398c0 -8.66992 3.66992 -17.6904 10.9297 -26.9102h330.141zM384 128c61.0195 -30.5098 64 -76.1797 64 -89.8896v-94.1104c0 -4.41992 -3.58008 -8 -8 -8h-16c-4.41992 0 -8 3.58008 -8 8v94.1104
c0 27.1895 -20.6904 45.3301 -32 53.2197c-11.3096 -7.88965 -32 -26.0303 -32 -53.2197v-94.1104c0 -4.41992 -3.58008 -8 -8 -8h-16c-4.41992 0 -8 3.58008 -8 8v94.1104c0 13.6895 2.98047 59.3799 64 89.8896zM528 64c26.4697 0 48 -21.5303 48 -48v-72
c0 -4.41992 -3.58008 -8 -8 -8h-16c-4.41992 0 -8 3.58008 -8 8v72c0 8.83008 -7.19043 16 -16 16s-16 -7.16992 -16 -16v-72c0 -4.41992 -3.58008 -8 -8 -8h-16c-4.41992 0 -8 3.58008 -8 8v70.1104c0 24.8301 18.4697 49.8896 48 49.8896z" />
    <glyph glyph-name="om" unicode="&#xf679;" horiz-adv-x="448" 
d="M296.62 355.06l-21.5605 21.5605c-1.89062 1.88867 -3.06055 4.50098 -3.06055 7.38086c0 2.88086 1.16992 5.49023 3.06055 7.37891l21.5605 21.5605c1.88867 1.89062 4.50098 3.06055 7.38086 3.06055c2.88086 0 5.49023 -1.16992 7.37891 -3.06055l21.5605 -21.5605
c1.89062 -1.88867 3.06055 -4.50098 3.06055 -7.38086c0 -2.88086 -1.16992 -5.49023 -3.06055 -7.37891l-21.5605 -21.5605c-4.08008 -4.06934 -10.6797 -4.06934 -14.7598 0zM310.56 288c-56.0293 0 -84.0693 41.7803 -85.2393 43.5596
c-4.91992 7.5 4.23926 16.1201 11.2295 10.8701c0.299805 -0.229492 30.2002 -22.3701 69.8906 -22.3701c23.1191 0 45.0098 7.54004 65.0596 22.4004c5.15039 3.83008 12.5 0.120117 12.5 -6.45996v-25.9697c0 -0.00195312 -0.00390625 -0.0107422 -0.00390625 -0.0126953
c0 -1.75586 -0.5625 -3.38184 -1.51562 -4.70801c-2.08008 -2.88965 -15.3301 -17.3096 -71.9209 -17.3096zM355.1 239.53c50.2803 5.2793 92.9004 -34.1807 92.8906 -83.4199v-84.1201c0 -39.7598 -32.2305 -72 -72 -72h-24c-50.4004 0 -48 32.6201 -48 32.6201v19.2998
c0 3.84961 4.9502 5.5498 7.4502 2.55957c7.94922 -9.5 19.8691 -22.4697 40.5498 -22.4697h24c22.0898 0 40 17.9102 40 40v84.1299c0 32.3398 -29.7402 57.8506 -63.2803 50.6504c-10.0703 -2.16016 -19.0996 -7.78027 -26.3799 -15.0605l-23.1396 -23.1494
c-15.7305 -15.7305 -37.0703 -24.5703 -59.3203 -24.5703h-49.1299c17.6396 -18.3096 28.7695 -42.9502 29.2402 -70.21c1 -58.1904 -50.3408 -105.79 -108.54 -105.79c-88.0801 0 -115.48 61.9502 -115.44 80.3496c0.00976562 4.69043 6.16016 6.80078 8.87012 2.78027
c13.6699 -20.25 45.5498 -51.1299 103.13 -51.1299h8c42.0596 0 75.8301 36.2695 71.6504 79.1699c-3.64062 37.4102 -37.2705 64.8203 -74.8604 64.8203l-37.2998 -0.169922c-2.79004 0.229492 -5.32031 1.75 -6.58984 4.2793l-8.04004 16.0908
c-2.66016 5.3291 1.18945 11.6094 7.14941 11.6396l31.9902 0.169922c35.29 0 63.0596 32.8203 54.3896 69.54c-5.01953 21.2803 -23.1094 38.0898 -44.6797 41.6699c-18.8604 3.12988 -36.9902 -2.95996 -49.6602 -15.9102
c-2.9502 -3.01953 -7.49023 -3.71973 -10.8594 -1.18945l-12.8604 9.66992c-3.65039 2.75 -4.42969 8.14941 -1.36035 11.5293c20.21 22.2705 50.2002 32.7803 81.3906 27.25c32.7393 -5.80957 59.8701 -31.0195 68.4893 -63.1299
c8.20996 -30.5498 -0.299805 -58.7393 -17.5293 -79.4199h72.5596c14.3223 0.00195312 27.3037 5.80762 36.7002 15.2002l22.0303 22.0303c14.1992 14.2002 32.5195 24.1895 52.4893 26.29z" />
    <glyph glyph-name="omega" unicode="&#xf67a;" horiz-adv-x="448" 
d="M448 192c0 -81.6299 -43.8096 -152.85 -109.06 -192h101.06c4.41992 0 8 -3.58008 8 -8v-16c0 -4.41992 -3.58008 -8 -8 -8h-144c-4.41992 0 -8 3.58008 -8 8v24.3096c0 6.57031 4.09961 12.2803 10.1602 14.8301c69.1094 29.0703 117.84 97.3008 117.84 176.86
c0 108.52 -90.4902 196.3 -199.98 191.84c-97.4092 -3.96973 -178.319 -83.6299 -183.72 -180.97c-4.66992 -84.1699 45.2998 -157.34 117.54 -187.73c6.06055 -2.54004 10.1602 -8.25977 10.1602 -14.8301v-24.3096c0 -4.41992 -3.58008 -8 -8 -8h-144
c-4.41992 0 -8 3.58008 -8 8v16c0 4.41992 3.58008 8 8 8h101.06c-72.6396 43.5898 -118.71 126.92 -107.34 220.12c12.3799 101.43 94.9199 183.09 196.48 194.43c135.26 15.1201 249.8 -90.3398 249.8 -222.55z" />
    <glyph glyph-name="pastafarianism" unicode="&#xf67b;" horiz-adv-x="640" 
d="M629.28 92.8604c8.60938 -3.14062 12.8994 -12.3906 9.62012 -20.6504c-3.25 -8.26953 -12.8701 -12.4102 -21.4502 -9.25c-13.1006 4.83008 -23.3398 -1.16992 -40.2998 -12.2002c-13.6904 -8.89941 -29.9004 -19.4502 -49.8604 -19.4502
c-6.53027 0 -13.5205 1.14062 -20.9004 3.84082c-29.9297 10.9697 -36.6592 36.4492 -42.0498 56.9199c-2.51953 9.56934 -4.66016 17.0996 -7.82031 22.8496c-19.3896 -17.3701 -44.71 -33.1504 -76.6299 -42.4102c12.4502 -50.0293 36.4102 -102.85 68.1104 -102.85
c8.83984 0 16 -7.53027 16 -16.8301s-7.16016 -16.8301 -16 -16.8301c-60.4404 0 -89.3096 88.0596 -99.6299 129.86c-9.04004 -1.12988 -18.4297 -1.86035 -28.3701 -1.86035s-19.3301 0.719727 -28.3701 1.86035c-10.3203 -41.8008 -39.1895 -129.86 -99.6299 -129.86
c-8.83984 0 -16 7.53027 -16 16.8301s7.16016 16.8301 16 16.8301c31.7002 0 55.6602 52.8203 68.1104 102.84c-31.9199 9.25977 -57.2402 25.0498 -76.6299 42.4102c-3.1709 -5.74023 -5.31055 -13.2803 -7.82031 -22.8506
c-5.39062 -20.4697 -12.1201 -45.9492 -42.0498 -56.9199c-7.37988 -2.69922 -14.3701 -3.83984 -20.9004 -3.83984c-19.96 0 -36.1797 10.54 -49.8604 19.4502c-16.96 11.0303 -27.1992 17.0303 -40.2998 12.2002c-8.58008 -3.16016 -18.2002 0.979492 -21.4502 9.25
c-3.2793 8.26953 1.01074 17.5195 9.62012 20.6602c29.9307 10.9697 52.5801 -3.78027 70.75 -15.6104c16.9707 -11 27.2002 -16.9502 40.2998 -12.2002c13.0908 4.7998 16.6006 15.8301 21.6104 34.8906c3.35059 12.71 7.23047 27.3496 16.8506 39.25
c-7.51074 9.16992 -13.4707 17.8994 -18.2109 25.6494c-9.73926 -11.2598 -22.7598 -20.8398 -42.1797 -20.8398c-30.0303 0 -44.8799 22.8398 -55.71 39.5195c-11.0801 17.0303 -16.9902 24.4805 -27.4902 24.4805c-9.19922 0 -16.6396 7.16016 -16.6396 16
s7.44043 16 16.6396 16c30.0303 0 44.8799 -22.8398 55.71 -39.5195c11.0801 -17.0303 16.9902 -24.4805 27.4902 -24.4805c46.0801 0 20.6797 62.8799 119.11 118.33l-21.1299 42.2598c-1.94043 -0.209961 -3.83008 -0.589844 -5.82031 -0.589844
c-30.9297 0 -56 25.0703 -56 56s25.0703 56 56 56s56 -25.0703 56 -56c0 -17.4199 -8.12012 -32.7803 -20.5898 -43.0498l20.5596 -41.1104c20.7705 7.5 44.6504 12.1602 72.0303 12.1602s51.2598 -4.66016 72.0195 -12.1602l20.5605 41.1104
c-12.46 10.2695 -20.5801 25.6299 -20.5801 43.0498c0 30.9297 25.0703 56 56 56s56 -25.0703 56 -56s-25.0703 -56 -56 -56c-2 0 -3.87988 0.389648 -5.82031 0.589844l-21.1299 -42.2598c98.4307 -55.4502 73.0303 -118.33 119.11 -118.33
c10.4902 0 16.4102 7.4502 27.4902 24.4805c10.8301 16.6797 25.6797 39.5195 55.71 39.5195c9.19922 0 16.6396 -7.16016 16.6396 -16s-7.44043 -16 -16.6396 -16c-10.4902 0 -16.4102 -7.4502 -27.4902 -24.4805c-10.8301 -16.6797 -25.6797 -39.5195 -55.71 -39.5195
c-19.4199 0 -32.4404 9.58008 -42.1797 20.8398c-4.74023 -7.75 -10.7002 -16.4795 -18.2109 -25.6494c9.62012 -11.9004 13.5 -26.54 16.8506 -39.25c5 -19.0605 8.50977 -30.0908 21.6104 -34.8906c13.0996 -4.75 23.3291 1.2002 40.2998 12.2002
c18.1602 11.8301 40.8193 26.5801 70.75 15.6104zM448 416c-13.2305 0 -24 -10.7695 -24 -24s10.7695 -24 24 -24s24 10.7695 24 24s-10.7695 24 -24 24zM192 368c13.2305 0 24 10.7695 24 24s-10.7695 24 -24 24s-24 -10.7695 -24 -24s10.7695 -24 24 -24zM320 96
c97.04 0 142.39 68.2598 156.81 96.0098c-14.3594 27.6299 -59.6895 95.9902 -156.81 95.9902s-142.45 -68.3604 -156.81 -95.9902c14.4199 -27.75 59.7695 -96.0098 156.81 -96.0098z" />
    <glyph glyph-name="phone-office" unicode="&#xf67d;" horiz-adv-x="576" 
d="M352 128c17.6602 0 32 -14.3604 32 -32v-32c0 -17.6396 -14.3398 -32 -32 -32h-32c-17.6602 0 -32 14.3604 -32 32v32c0 17.6396 14.3398 32 32 32h32zM352 64v32h-32v-32h32zM352 256c17.6602 0 32 -14.3604 32 -32v-32c0 -17.6396 -14.3398 -32 -32 -32h-32
c-17.6602 0 -32 14.3604 -32 32v32c0 17.6396 14.3398 32 32 32h32zM352 192v32h-32v-32h32zM480 128c17.6602 0 32 -14.3604 32 -32v-32c0 -17.6396 -14.3398 -32 -32 -32h-32c-17.6602 0 -32 14.3604 -32 32v32c0 17.6396 14.3398 32 32 32h32zM480 64v32h-32v-32h32z
M480 256c17.6602 0 32 -14.3604 32 -32v-32c0 -17.6396 -14.3398 -32 -32 -32h-32c-17.6602 0 -32 14.3604 -32 32v32c0 17.6396 14.3398 32 32 32h32zM480 192v32h-32v-32h32zM512 416c35.3496 0 64 -28.6504 64 -64v-352c0 -35.3496 -28.6504 -64 -64 -64h-448
c-35.3496 0 -64 28.6504 -64 64v352c0 35.3496 28.6504 64 64 64h18.9404c6.60938 18.5996 24.1895 32 45.0596 32h64c20.8701 0 38.4502 -13.4004 45.0596 -32h274.94zM320 384v-64h160v64h-160zM112 400v-336c0 -8.82031 7.17969 -16 16 -16h64
c8.82031 0 16 7.17969 16 16v336c0 8.82031 -7.17969 16 -16 16h-64c-8.82031 0 -16 -7.17969 -16 -16zM544 0v352c0 17.6396 -14.3604 32 -32 32v-64c0 -17.6396 -14.3398 -32 -32 -32h-160c-17.6602 0 -32 14.3604 -32 32v64h-48v-320c0 -26.5098 -21.4902 -48 -48 -48
h-64c-26.5098 0 -48 21.4902 -48 48v320h-16c-17.6396 0 -32 -14.3604 -32 -32v-352c0 -17.6396 14.3604 -32 32 -32h448c17.6396 0 32 14.3604 32 32z" />
    <glyph glyph-name="pi" unicode="&#xf67e;" horiz-adv-x="448" 
d="M444.79 62.4004c3.54004 -2.65039 4.25977 -7.66016 1.62012 -11.21l-20.7803 -27.7305c-17.46 -23.2002 -51.04 -31.6201 -78.6104 -14.1201c-17.4199 11.0605 -27.0195 31.1602 -27.0195 51.79v258.87h-160v-131.47
c-0.000976562 -40.3662 -11.6592 -78.2822 -31.5996 -110.19l-46.6006 -74.5703c-1.41504 -2.26074 -3.93164 -3.75195 -6.79395 -3.75195c-1.55469 0 -3.00684 0.444336 -4.23633 1.21289l-13.5596 8.47949c-2.25977 1.41406 -3.75 3.92969 -3.75 6.79004
c0 1.55273 0.443359 3.00293 1.20996 4.23047l46.5801 74.5293c17.4805 27.9707 26.75 60.29 26.75 93.2803v131.46h-119.98c-7.12988 0 -10.6992 8.62012 -5.65918 13.6602l13.6592 13.6494c3 3 7.07031 4.69043 11.3105 4.69043h412.67c4.41992 0 8 -3.58008 8 -8v-16
c0 -4.41992 -3.58008 -8 -8 -8h-88v-261.33c0 -14.7002 11.9697 -26.6699 26.6602 -26.6699c8.33984 0 16.3398 3.98047 21.3594 10.6699l20.75 27.7197c1.45898 1.95117 3.79004 3.2041 6.41113 3.2041c1.7959 0 3.4541 -0.592773 4.78906 -1.59375z" />
    <glyph glyph-name="place-of-worship" unicode="&#xf67f;" horiz-adv-x="576" 
d="M558.57 92.0098c10.4697 -5 17.4297 -17.8994 17.4297 -32.3301v-115.68c0 -4.41992 -3.58008 -8 -8 -8h-16c-4.41992 0 -8 3.58008 -8 8c0 0 0.349609 119.22 0 120l-96 45.29v-165.29c0 -4.41992 -3.58008 -8 -8 -8h-16c-4.41992 0 -8 3.58008 -8 8v229.88l-64 38.4004
v133.09l-64 64l-64 -64v-133.09l-64 -38.4004v-229.88c0 -4.41992 -3.58008 -8 -8 -8h-16c-4.41992 0 -8 3.58008 -8 8v165.29l-96 -45.29c-0.349609 -0.780273 0 -120 0 -120c0 -4.41992 -3.58008 -8 -8 -8h-16c-4.41992 0 -8 3.58008 -8 8v115.68
c0 14.4307 6.95996 27.3301 17.4297 32.3301l110.57 52.7207v29.1494c0 0.00390625 -0.0341797 -0.0126953 -0.0341797 -0.00976562c0 11.6523 6.24316 21.8574 15.5645 27.4502l48.4697 29.0801v114.979c0 8.48047 3.37012 16.6201 9.37012 22.6201l75.3203 75.3096
c3.11914 3.13086 7.21973 4.69043 11.3096 4.69043s8.19043 -1.55957 11.3096 -4.69043l75.3105 -75.3096c6.00977 -6 9.37988 -14.1396 9.37988 -22.6299v-114.97l48.4697 -29.0801c9.62988 -5.79004 15.5303 -16.2002 15.5303 -27.4404v-29.1396zM281.71 127.7
c38.1699 3.63965 70.29 -26.2803 70.29 -63.7002v-120c0 -4.41992 -3.58008 -8 -8 -8h-16c-4.41992 0 -8 3.58008 -8 8v120c0 19.4199 -17.3896 34.8496 -37.4102 31.5596c-15.7295 -2.59961 -26.5898 -17.4092 -26.5898 -33.3594v-118.2c0 -4.41992 -3.58008 -8 -8 -8h-16
c-4.41992 0 -8 3.58008 -8 8v117.25c0 33.4297 24.4297 63.2803 57.71 66.4502z" />
    <glyph glyph-name="podium" unicode="&#xf680;" horiz-adv-x="448" 
d="M440 288c4.41992 0 8 -3.58008 8 -8v-16c0 -4.41992 -3.58008 -8 -8 -8h-56l-31.9004 -288h55.9004c4.41992 0 8 -3.58008 8 -8v-16c0 -4.41992 -3.58008 -8 -8 -8h-368c-4.41992 0 -8 3.58008 -8 8v16c0 4.41992 3.58008 8 8 8h56l-31.9004 286.23l-0.00976562 1.76953
h-56.0898c-4.41992 0 -8 3.58008 -8 8v16c0 4.41992 3.58008 8 8 8h56v16c0 57.1299 43.1699 103.88 98.5195 110.64c6.21094 19.3008 24.1104 33.3604 45.4805 33.3604h64c26.5098 0 48 -21.4902 48 -48s-21.4902 -48 -48 -48h-64
c-20.4004 0 -37.71 12.7803 -44.6602 30.7197c-38.0898 -6.12012 -67.3398 -38.9502 -67.3398 -78.7197v-16h344zM208 416c-8.82031 0 -16 -7.17969 -16 -16s7.17969 -16 16 -16h64c8.82031 0 16 7.17969 16 16s-7.17969 16 -16 16h-64zM320 -32l31.9004 288h-255.9
l31.9004 -286.23l0.00976562 -1.76953h192.09z" />
    <glyph glyph-name="pray" unicode="&#xf683;" horiz-adv-x="384" 
d="M240 304c-39.7002 0 -72 32.2998 -72 72s32.2998 72 72 72s72 -32.2998 72 -72s-32.2998 -72 -72 -72zM240 416c-22.0498 0 -40 -17.9502 -40 -40s17.9502 -40 40 -40s40 17.9502 40 40s-17.9502 40 -40 40zM219.25 121.11l-16.5596 19.7197l-24.4902 -45.6201
l102.75 -74.9502c15.6895 -12.0801 21.6494 -32.1699 15.1797 -51.1895c-6.72949 -19.7803 -25.2598 -33.0703 -46.0996 -33.0703h-202.03c-26.4697 0 -48 21.5303 -48 48s21.5303 48 48 48h18.9404c-35.1406 30.2305 -44.4404 79.5 -21.4307 122.43l49.3799 92.04
c9.32031 17.29 32.6406 41.5303 71.1699 41.5303c24.4004 0 47.1406 -10.4297 62.3809 -28.5898l31.3096 -35.1602l42.3096 49.6904c18.7402 18.75 49.1309 18.75 67.8809 0c18.7393 -18.7402 18.7393 -49.1309 0 -67.8809l-80.1309 -88
c-15.5098 -17.0791 -50.0693 -21.3594 -70.5596 3.05078zM136.81 85.7803l59.9902 111.76l46.9404 -55.8398c4.76953 -5.66992 14.7197 -8.45996 22.3799 -2.12012l81.1895 89.1104c6.25 6.25 6.25 16.3799 0 22.6299s-16.3799 6.25 -22.6299 0l-66.3994 -77.1602
l-54.3398 64.6699c-24.3301 28.9902 -67.1709 17.8799 -80.8809 -7.5498l-49.3398 -91.9805c-17.2197 -32.1094 -9.5 -68.8398 22.5 -89.2803l90.0303 -50.0195h-138.25c-8.80957 0 -16 -7.16992 -16 -16s7.19043 -16 16 -16h202.02c14.7002 0 22.5 18.3604 11.4004 26.9004
z" />
    <glyph glyph-name="praying-hands" unicode="&#xf684;" horiz-adv-x="640" 
d="M502.58 107.77c-13.4199 4.14062 -22.5801 16.54 -22.5703 30.5801v66.5107c0 17.2861 -4.63965 33.6133 -12.6494 47.6299l-86.5107 151.399c-6.87988 12.0801 -21.7793 15.2002 -32.75 8.94043c-11.5 -6.58008 -15.5 -21.25 -8.93945 -32.75l64.1895 -112.33
c8.29004 -14.5 12.6504 -30.9199 12.6504 -47.6299v-84.1299c0 -4.41992 -3.58008 -8 -8 -8h-16c-4.41992 0 -8 3.58008 -8 8v64c0 13.25 -10.75 24 -24 24s-24 -10.75 -24 -24v-86.0801c0 -35.8604 23.8604 -67.3398 58.3896 -77.0303l239.771 -68.5596
c3.4502 -0.970703 5.83984 -4.11035 5.83984 -7.7002v-16.6201c0 -5.2998 -5.05957 -9.12988 -10.1602 -7.7002l-244.09 69.7705c-28.4102 7.96973 -51.4004 26.6396 -65.75 50.7295c-14.3496 -24.0996 -37.3398 -42.7598 -65.75 -50.7295l-244.09 -69.7705
c-5.10059 -1.42969 -10.1602 2.40039 -10.1602 7.7002v16.6201c0.00390625 3.66406 2.47559 6.75391 5.83984 7.7002l239.771 68.5596c34.5195 9.69043 58.3896 41.1699 58.3896 77.0303v86.0801c0 13.25 -10.75 24 -24 24s-24 -10.75 -24 -24v-64
c0 -4.41992 -3.58008 -8 -8 -8h-16c-4.41992 0 -8 3.58008 -8 8v84.1299c0.000976562 17.2852 4.64062 33.6133 12.6504 47.6299l64.1895 112.33c6.56055 11.5 2.56055 26.1699 -8.93945 32.75c-10.9102 6.21973 -25.8203 3.21973 -32.75 -8.94043l-86.5107 -151.399
c-8.29004 -14.5 -12.6494 -30.9199 -12.6494 -47.6299v-66.5107c0 -14.04 -9.16016 -26.4492 -22.5801 -30.5801l-127.061 -39.9893c-5.13965 -1.58008 -10.3496 2.26953 -10.3496 7.64941v16.7402c0.00195312 3.59766 2.38086 6.6416 5.65039 7.65039l122.35 38.5293
v66.5107c0 23.0449 6.18359 44.8223 16.8604 63.5098l86.4893 151.37c9.94043 17.4297 28.5801 28.2598 48.6602 28.2598c14.79 0 29.2598 -6.00977 39.9902 -16.9404c10.7305 10.9307 25.2002 16.9404 39.9902 16.9404c20.0801 0 38.7197 -10.8301 48.6602 -28.2598
l86.4795 -151.36c11.0605 -19.3398 16.8701 -41.2295 16.8701 -63.5098v-66.5098l122.34 -38.54c3.36035 -1.04004 5.65039 -4.14062 5.65039 -7.65039v-16.7402c0 -5.38965 -5.20996 -9.22949 -10.3506 -7.64941zM374.27 254.15l-54.2695 94.96l-54.2695 -94.96
c6.35938 1.67969 13.1494 2.25977 20.1592 1.54004c13.6602 -1.40039 25.3799 -8.2207 34.1104 -17.9502c8.74023 9.72949 20.4502 16.5498 34.1104 17.9502c7.01953 0.719727 13.8096 0.139648 20.1592 -1.54004z" />
    <glyph glyph-name="presentation" unicode="&#xf685;" horiz-adv-x="576" 
d="M568 448c4.41992 0 8 -3.58984 8 -8.01953v-16.0508c0 -4.42969 -3.58008 -8.01953 -8 -8.01953h-24v-287.771c0 -17.6895 -14.3398 -32.0898 -32 -32.0898h-208v-49.1299l85.6504 -85.8896c3.11914 -3.12988 3.11914 -8.20996 0 -11.3398l-11.3105 -11.3408
c-1.44629 -1.4502 -3.44824 -2.34863 -5.65625 -2.34863s-4.20801 0.898438 -5.65332 2.34863l-79.0303 79.2402l-79.04 -79.2402c-1.44629 -1.4502 -3.44824 -2.34863 -5.65625 -2.34863s-4.20801 0.898438 -5.65332 2.34863l-11.3105 11.3408
c-3.12012 3.12988 -3.12012 8.20996 0 11.3398l85.6602 85.8896v49.1299h-208c-17.6602 0 -32 14.4004 -32 32.0898v287.78h-24c-4.41992 0 -8 3.58984 -8 8.02051v16.04c0 4.42969 3.58008 8.01953 8 8.01953h560zM512 128v288h-448v-288h448z" />
    <glyph glyph-name="print-slash" unicode="&#xf686;" horiz-adv-x="640" 
d="M637 -37.2002c3.5 -2.7998 4 -7.7998 1.2002 -11.2998l-10 -12.5c-2.7002 -3.40039 -7.7998 -4 -11.2002 -1.2002l-614 483.5c-3.40039 2.7002 -4 7.7002 -1.2002 11.2002l10 12.5c2.7002 3.5 7.7998 4 11.2002 1.2002zM192.1 416v-62.2002l-32.0996 25.2998v36.9004
c0 17.7002 13.5996 32 30.5 32h180.3c8.5 0 16.6006 -3.40039 22.6006 -9.40039l77.0996 -77.1992c6 -6 9.40039 -14.1006 9.40039 -22.6006v-82.7998h16c44.1992 0 80 -35.7998 80 -80v-96c0 -8.7998 -7.10059 -15.9004 -15.9004 -16l-40.5996 32h24.5v80
c0 26.5 -21.5 48 -48 48h-139l-40.6006 32h131.7v64h-64c-17.7002 0 -32 14.2998 -32 32v64h-159.9zM384 402.8v-50.7998h50.7998zM448 -32v62.0996l32 -25.1992v-52.9004c0 -8.7998 -7.2002 -16 -16 -16h-288c-8.7998 0 -16 7.2002 -16 16v112h-80
c-8.7998 0 -16 7.2002 -16 16v96c0 44.2002 35.7998 80 80 80h16v0.900391l41.7998 -32.9004h-57.7998c-26.5 0 -48 -21.5 -48 -48v-80h268.4l40.5996 -32h-213v-96h256zM440 160c0 13.2998 10.7002 24 23.9004 24c13.1992 0 24 -10.7002 24 -24
c0 -11.9004 -8.80078 -21.2998 -20.2002 -23.2002l-27.4004 21.6006c0 0.5 -0.299805 1 -0.299805 1.59961z" />
    <glyph glyph-name="quran" unicode="&#xf687;" horiz-adv-x="448" 
d="M246.25 109.62c-70.1299 0 -127.18 57.0703 -127.18 127.2s57.0693 127.189 127.189 127.189c15.0898 0 30.0898 -2.75 44.5898 -8.18945c8.66016 -3.2002 13.6201 -12.1602 11.7803 -21.2803c-1.71973 -8.71973 -9.43945 -15.0596 -18.3799 -15.0596l-4.16016 0.199219
c-45.6494 0 -82.8398 -37.1699 -82.8398 -82.8594c0 -45.6904 37.1904 -82.8604 82.8799 -82.8604l4.12012 0.200195c10.3701 0 18.8096 -8.42969 18.8096 -18.7705c0 -0.00878906 0.00390625 -0.0117188 0.00390625 -0.0205078
c0 -8.2627 -5.35645 -15.2842 -12.7832 -17.7793c-14.0605 -5.25 -29 -7.96973 -44.0303 -7.96973zM246.25 340c-56.9102 0 -103.19 -46.2998 -103.19 -103.19c0 -58.7295 49.9707 -106.689 108.69 -103.029c-45.2197 12.4502 -78.5 53.9199 -78.5 103.029
c0 49.0908 33.3096 90.5801 78.5 103.03c-1.83984 0.110352 -3.66016 0.160156 -5.5 0.160156zM448 56c0 -10 -6.2002 -18.5996 -14.9004 -22.2002c-3.59961 -16.0996 -4.39941 -45.5996 -0.399414 -65.7998h3.2998c6.59961 0 12 -5.40039 12 -12v-8
c0 -6.59961 -5.40039 -12 -12 -12h-372c-35.3496 0 -64 28.6504 -64 64v368c0 44.2002 35.7998 80 80 80h344c13.2998 0 24 -10.7002 24 -24v-368zM404.3 -32c-3.09961 20.4004 -2.89941 45.2002 0 64h-340.3c-17.6699 0 -32 -14.3301 -32 -32s14.3301 -32 32 -32h340.3z
M416 64v352h-336c-26.5 0 -48 -21.5 -48 -48v-312.88c9.4502 5.5 20.2803 8.87988 32 8.87988h352zM292.72 292.73c5.37012 10.9395 23.3105 10.9395 28.6807 0.00976562l10.1592 -20.5801l22.7207 -3.2998c6.0293 -0.860352 11.0596 -5.09082 12.9395 -10.8906
s0.320312 -12.1602 -4.05957 -16.4102l-16.4697 -16.0293l3.90918 -22.6201c1.03027 -6 -1.43945 -12.0703 -6.37988 -15.6602c-2.64258 -1.91406 -5.92188 -3.04102 -9.43164 -3.04102c-2.6875 0 -5.22168 0.662109 -7.44824 1.83105l-20.2803 10.6904l-20.2793 -10.6904
c-5.37988 -2.84961 -11.9404 -2.37988 -16.8799 1.2002c-4.94043 3.59961 -7.41016 9.66016 -6.38086 15.6602l3.91016 22.6191l-16.4697 16.0303c-4.37012 4.25 -5.94043 10.6104 -4.05957 16.4102c1.87988 5.7998 6.90918 10.0303 12.9395 10.8896l22.7197 3.30078z
M316.94 253.32l-9.88086 20.0293l-9.87988 -20.0293l-22.1201 -3.2002l16.0303 -15.6006l-3.78027 -22.0195l19.75 10.4102l19.75 -10.4102l-3.7793 22.0195l16.0293 15.6006z" />
    <glyph glyph-name="search-dollar" unicode="&#xf688;" 
d="M235.09 248.58c18.6006 -5.58008 31.5801 -23.4199 31.5801 -43.3896c0 -24.5303 -19.0498 -44.4404 -42.6699 -45.0703v-16.1201c0 -4.41992 -3.58008 -8 -8 -8h-16c-4.41992 0 -8 3.58008 -8 8v16.29c-11.29 0.580078 -22.2695 4.51953 -31.3701 11.3496
c-3.89941 2.93066 -4.09961 8.77051 -0.570312 12.1406l11.75 11.21c2.77051 2.63965 6.89062 2.75977 10.1309 0.729492c3.85938 -2.42969 8.25977 -3.71973 12.8193 -3.71973h28.1104c6.5 0 11.7998 5.91992 11.7998 13.1904c0 5.94922 -3.61035 11.1797 -8.76953 12.7295
l-45 13.5c-18.6006 5.58008 -31.5801 23.4199 -31.5801 43.3896c0 24.5205 19.0498 44.4404 42.6699 45.0703v16.1201c0 4.41992 3.58008 8 8 8h16c4.41992 0 8 -3.58008 8 -8v-16.29c11.29 -0.580078 22.2695 -4.51953 31.3701 -11.3496
c3.89941 -2.93066 4.09961 -8.77051 0.569336 -12.1406l-11.75 -11.21c-2.76953 -2.63965 -6.88965 -2.75977 -10.1299 -0.729492c-3.85938 2.42969 -8.25977 3.71973 -12.8193 3.71973h-28.1104c-6.5 0 -11.7998 -5.91992 -11.7998 -13.1904
c0 -5.94922 3.60938 -11.1797 8.76953 -12.7295zM508.47 -33.5801c4.70996 -4.7002 4.70996 -12.2998 0 -16.9902l-9.89941 -9.89941c-4.7002 -4.7002 -12.3008 -4.7002 -17 0l-128.99 128.989c-2.2002 2.30078 -3.5 5.30078 -3.5 8.5v10.2002
c-37.0996 -34.2002 -86.5898 -55.2002 -141.09 -55.2002c-114.891 0 -207.99 93.1006 -207.99 207.99c0 114.891 93.0996 207.99 207.99 207.99c114.89 0 207.99 -93.0996 207.99 -207.99c0 -54.4902 -21 -103.99 -55.3008 -141.09h10.3008
c3.19922 0 6.19922 -1.2002 8.5 -3.5zM207.99 64.0195c97.2998 0 175.99 78.6904 175.99 175.99c0 97.29 -78.7002 175.99 -175.99 175.99s-175.99 -78.6904 -175.99 -175.99s78.7002 -175.99 175.99 -175.99z" />
    <glyph glyph-name="search-location" unicode="&#xf689;" 
d="M208 352c49.5303 0 89.8096 -40.2998 89.8096 -89.8301c0 -34.6504 -38.3398 -87.2002 -70.5 -125.2c-4.83984 -5.7002 -11.8691 -8.96973 -19.3096 -8.96973s-14.4697 3.26953 -19.2803 8.96973c-32.1895 38 -70.5293 90.54 -70.5293 125.2
c0 49.5303 40.2793 89.8301 89.8096 89.8301zM208 163.77c35.3096 42.7002 57.8096 80.8906 57.8096 98.4102c0 31.8906 -25.9395 57.8301 -57.8096 57.8301s-57.8096 -25.9395 -57.8096 -57.8301c0 -17.5195 22.5 -55.71 57.8096 -98.4102zM208 288
c13.25 0 24 -10.7402 24 -24c0 -13.25 -10.75 -24 -24 -24s-24 10.75 -24 24c0 13.2598 10.75 24 24 24zM508.47 -33.5801c4.70996 -4.7002 4.70996 -12.2998 0 -16.9902l-9.89941 -9.89941c-4.7002 -4.7002 -12.3008 -4.7002 -17 0l-128.99 128.989
c-2.2002 2.30078 -3.5 5.30078 -3.5 8.5v10.2002c-37.0996 -34.2002 -86.5898 -55.2002 -141.09 -55.2002c-114.891 0 -207.99 93.1006 -207.99 207.99c0 114.891 93.0996 207.99 207.99 207.99c114.89 0 207.99 -93.0996 207.99 -207.99
c0 -54.4902 -21 -103.99 -55.3008 -141.09h10.3008c3.19922 0 6.19922 -1.2002 8.5 -3.5zM207.99 64.0195c97.2998 0 175.99 78.6904 175.99 175.99c0 97.29 -78.7002 175.99 -175.99 175.99s-175.99 -78.6904 -175.99 -175.99s78.7002 -175.99 175.99 -175.99z" />
    <glyph glyph-name="sigma" unicode="&#xf68b;" horiz-adv-x="320" 
d="M296 288c-4.41016 0 -7.99023 3.58008 -7.99023 8v56h-255.96l129.4 -138.12c11.5 -12.2695 11.5 -31.4902 -0.0302734 -43.7695l-130.07 -138.92l256.65 0.80957v56c0 4.41992 3.58008 8 8 8h16c4.41992 0 8 -3.58008 8 -8v-56c0 -17.6699 -14.3203 -32 -31.9902 -32
h-254.399c-11.2305 0 -22.3105 5.04004 -28.3799 14.4902c-7.75 12.0898 -6.74023 27.0098 2.06934 37.7793l130.79 139.73l-130.1 138.94c-9.56055 11.6299 -10.4902 26.4199 -2.7998 38.5c6.00977 9.43945 17.0098 14.5596 28.1992 14.5596h254.62
c17.6699 0 31.9902 -14.3301 31.9902 -32v-56c0 -4.41992 -3.58008 -8 -8 -8h-16z" />
    <glyph glyph-name="signal-alt-slash" unicode="&#xf694;" horiz-adv-x="640" 
d="M384 288v-85.2998l-32 25.2002v60.0996c0 17.7002 14.2998 32 32 32h32c17.7002 0 32 -14.2998 32 -32v-135.7l-32 25.2002v110.5h-32zM544 416v-339.3l-32 25.2002v314.1c0 17.7002 14.2998 32 32 32h32c17.7002 0 32 -14.2998 32 -32v-389.7l-32 25.2002v364.5h-32z
M637 -37.2002c3.5 -2.7998 4 -7.7998 1.2002 -11.2998l-10 -12.5c-2.7002 -3.40039 -7.7998 -4 -11.2002 -1.2002l-614 483.5c-3.40039 2.7002 -4 7.7002 -1.2002 11.2002l10 12.5c2.7002 3.5 7.7998 4 11.2002 1.2002zM224 192h18.4004l45.5996 -35.9004v-188.1
c0 -17.7002 -14.2998 -32 -32 -32h-32c-17.7002 0 -32 14.2998 -32 32v192c0 17.7002 14.2998 32 32 32zM256 -32v192h-32v-192h32zM416 -32v87.2998l32 -25.2002v-62.0996c0 -17.7002 -14.2998 -32 -32 -32h-32c-17.7002 0 -32 14.2998 -32 32v137.7l32 -25.2002v-112.5h32
zM96 64c17.7002 0 32 -14.2998 32 -32v-64c0 -17.7002 -14.2998 -32 -32 -32h-32c-17.7002 0 -32 14.2998 -32 32v64c0 17.7002 14.2998 32 32 32h32zM96 -32v64h-32v-64h32z" />
    <glyph glyph-name="signal-slash" unicode="&#xf695;" horiz-adv-x="640" 
d="M80 64c4.40039 0 8 -3.59961 8 -8v-112c0 -4.40039 -3.59961 -8 -8 -8h-32c-4.40039 0 -8 3.59961 -8 8v112c0 4.40039 3.59961 8 8 8h32zM472 344v-210.6l-48 37.7998v172.8c0 4.40039 3.59961 8 8 8h32c4.40039 0 8 -3.59961 8 -8zM600 440v-407.4l-48 37.8008v369.6
c0 4.40039 3.59961 8 8 8h32c4.40039 0 8 -3.59961 8 -8zM424 -56v105l48 -37.7998v-67.2002c0 -4.40039 -3.59961 -8 -8 -8h-32c-4.40039 0 -8 3.59961 -8 8zM208 160c4.40039 0 8 -3.59961 8 -8v-208c0 -4.40039 -3.59961 -8 -8 -8h-32c-4.40039 0 -8 3.59961 -8 8v208
c0 4.40039 3.59961 8 8 8h32zM637 -37.2002c3.5 -2.7998 4 -7.7998 1.2002 -11.2998l-10 -12.5c-2.7002 -3.40039 -7.7998 -4 -11.2002 -1.2002l-614 483.5c-3.40039 2.7002 -4 7.7002 -1.2002 11.2002l10 12.5c2.7002 3.5 7.7998 4 11.2002 1.2002zM296 -56v205.8
l48 -37.7998v-168c0 -4.40039 -3.59961 -8 -8 -8h-32c-4.40039 0 -8 3.59961 -8 8z" />
    <glyph glyph-name="square-root" unicode="&#xf697;" 
d="M160.13 -29.29c-9.50977 3.62012 -16.8799 11.4297 -21.1494 20.6602l-80.9209 175.33c-2.61914 5.66992 -8.29004 9.2998 -14.5293 9.2998h-35.5303c-4.41992 0 -8 3.58008 -8 8v16c0 4.41992 3.58008 8 8 8h35.5303c18.6201 0 35.75 -10.9404 43.5898 -27.8799
l81.3096 -176.2c2.31055 -5.16016 11.1201 -4.38965 12.6602 1.08984l101.101 375.46c5.58984 20.9199 24.6494 35.5303 46.3398 35.5303h175.47c4.41992 0 8 -3.58008 8 -8v-16c0 -4.41992 -3.58008 -8 -8 -8h-175.47c-7.2207 0 -13.5898 -4.86035 -15.4404 -11.8301
l-101.12 -375.479c-5.7998 -21.4707 -29.0293 -34.6807 -51.8398 -25.9805z" />
    <glyph glyph-name="square-root-alt" unicode="&#xf698;" 
d="M509.16 199.03l-55.04 -55.0303l55.0303 -55.0303c3.11914 -3.12012 3.11914 -8.18945 0 -11.3096l-11.3105 -11.3105c-3.12012 -3.11914 -8.18945 -3.11914 -11.3096 0l-55.0303 55.0303l-55.0303 -55.0303c-3.12012 -3.11914 -8.18945 -3.11914 -11.3096 0
l-11.3105 11.3105c-3.11914 3.12012 -3.11914 8.18945 0 11.3096l55.0303 55.0303l-55.0303 55.0303c-3.11914 3.12012 -3.11914 8.18945 0 11.3096l11.3105 11.3105c3.12012 3.11914 8.18945 3.11914 11.3096 0l55.0303 -55.0303l55.0303 55.0303
c3.12012 3.11914 8.18945 3.11914 11.3096 0l11.3105 -11.3105c3.12988 -3.12012 3.12988 -8.17969 0.00976562 -11.3096zM211.97 -3.30957c-5.7998 -21.4707 -29.0293 -34.6807 -51.8398 -25.9805c-9.50977 3.62012 -16.8896 11.4199 -21.1494 20.6602l-80.9209 175.33
c-2.60938 5.66992 -8.29004 9.2998 -14.5293 9.2998h-35.5303c-4.41992 0 -8 3.58008 -8 8v16c0 4.41992 3.58008 8 8 8h35.5303c18.6299 0 35.75 -10.9404 43.5898 -27.8701l81.3096 -176.2c2.32031 -5.16016 11.1299 -4.38965 12.6602 1.08984l101.101 375.45
c5.58984 20.9199 24.6494 35.5303 46.3398 35.5303h175.47c4.41992 0 8 -3.58008 8 -8v-16c0 -4.41992 -3.58008 -8 -8 -8h-175.47c-7.2207 0 -13.6006 -4.86035 -15.4404 -11.8301z" />
    <glyph glyph-name="star-and-crescent" unicode="&#xf699;" 
d="M340.47 -18.3604c8.74023 0 15.1299 -6.96973 15.1299 -15.0596c0 -6.62012 -4.31934 -12.2402 -10.2793 -14.2598c-29.04 -10.8301 -59.0898 -16.3203 -89.3203 -16.3203c-141.16 0 -256 114.84 -256 256s114.84 256 256 256c30.3896 0 60.5801 -5.54004 89.75 -16.4805
c6.91992 -2.59961 10.9297 -9.83984 9.46973 -17.0898c-1.41992 -7.04004 -7.62012 -12.0693 -14.75 -12.0693c-1.47949 0 -6.85938 0.459961 -9.17969 0.459961c-116.25 0 -210.82 -94.5703 -210.82 -210.82s94.5703 -210.82 210.82 -210.82
c2.29004 0 7.72949 0.459961 9.17969 0.459961zM32 192c0 -116.55 89.4697 -212.59 203.34 -223.05c-86.3203 37.2695 -146.87 123.22 -146.87 223.05s60.5498 185.78 146.86 223.05c-113.87 -10.46 -203.33 -106.5 -203.33 -223.05zM503.46 234.14
c8.16992 -1.17969 11.4297 -11.2197 5.52051 -16.9893l-55.2705 -53.8701l13.0498 -76.0703c1.11035 -6.42969 -4.00977 -11.6602 -9.80957 -11.6602c-1.53027 0 -3.11035 0.370117 -4.64062 1.16992l-68.3096 35.9102l-68.3301 -35.9102
c-1.53027 -0.80957 -3.11035 -1.16992 -4.63965 -1.16992c-5.7998 0 -10.9199 5.21973 -9.81055 11.6602l13.0498 76.0703l-55.2695 53.8701c-5.91016 5.76953 -2.65039 15.8096 5.51953 16.9893l76.3809 11.1006l34.1592 69.21
c1.83008 3.7002 5.38086 5.5498 8.93066 5.5498s7.09961 -1.84961 8.92969 -5.5498l34.1602 -69.21zM431.38 186.2l23.29 22.6895l-32.1797 4.68066l-16.6504 2.41992l-7.4502 15.0898l-14.3896 29.1602l-14.3799 -29.1504l-7.4502 -15.0898l-16.6504 -2.41992
l-32.1797 -4.67969l23.2803 -22.7002l12.0498 -11.7402l-2.83984 -16.5801l-5.5 -32.0498l28.7803 15.1299l14.8896 7.83008l14.8896 -7.83008l28.7803 -15.1299l-5.5 32.0498l-2.83984 16.5801z" />
    </font>
</defs>
</svg>
