<?xml version="1.0" standalone="no"?>
<!DOCTYPE svg PUBLIC "-//W3C//DTD SVG 1.1//EN" "http://www.w3.org/Graphics/SVG/1.1/DTD/svg11.dtd" >
<svg xmlns="http://www.w3.org/2000/svg" xmlns:xlink="http://www.w3.org/1999/xlink" version="1.1">
<metadata>
Created by FontForge 20200314 at Wed Jan 13 11:59:33 2021
 By Robert Madole
Copyright (c) Font Awesome
</metadata>
<!-- Font Awesome Pro 5.15.2 by @fontawesome - https://fontawesome.com License - https://fontawesome.com/license (Commercial License) --><defs>
<font id="FontAwesome5Pro-Regular" horiz-adv-x="512" >
  <font-face 
    font-family="Font Awesome 5 Pro Regular"
    font-weight="400"
    font-stretch="normal"
    units-per-em="512"
    panose-1="2 0 5 3 0 0 0 0 0 0"
    ascent="448"
    descent="-64"
    bbox="-0.0663408 -64.0996 640.1 448.112"
    underline-thickness="25"
    underline-position="-50"
    unicode-range="U+0020-F8FF"
  />
    <missing-glyph />
    <glyph glyph-name="video" unicode="&#xf03d;" horiz-adv-x="576" 
d="M543.9 352c16.5996 0 32.0996 -13 32.0996 -31.5v-256.9c0 -18.5 -15.5 -31.5 -32.0996 -31.5c-6.10059 0 -12.5 1.7002 -18.2002 5.7002l-109.7 68.2998v-58.2998c0 -26.3994 -23.2002 -47.7998 -51.7998 -47.7998h-312.4c-28.5996 0 -51.7998 21.4004 -51.7998 47.7998
v288.4c0 26.3994 23.2002 47.7998 51.7998 47.7998h312.4c28.5996 0 51.7998 -21.4004 51.7998 -47.7998v-58.2998l109.7 68.3994c5.7002 3.90039 12 5.7002 18.2002 5.7002zM368 248v86.9004c-0.599609 0.5 -1.7998 1.09961 -3.7998 1.09961h-312.4
c-2 0 -3.2002 -0.700195 -3.7998 -1.09961v-285.801c0.599609 -0.5 1.7998 -1.09961 3.7998 -1.09961h312.4c2 0 3.2002 0.700195 3.7998 1.09961v198.9zM528 92.7998v198.3l-112 -69.7998v-58.7002z" />
    <glyph glyph-name="leaf" unicode="&#xf06c;" horiz-adv-x="576" 
d="M546.2 438.3c19 -42.3994 29.7998 -94.3994 29.7998 -144.6c0 -172.4 -110.5 -313.2 -267.6 -324.601c-76.9004 -8.09961 -147.9 29.9004 -185.5 93.1006c-55.3008 -52.6006 -75.9004 -109 -76.3008 -110.101c-3.7998 -11 -16.5 -19.5996 -30.5 -14.7998
c-12.5 4.2998 -19.0996 18 -14.7998 30.5c0.5 1.40039 27.7002 76.5 101.8 141c-4.5 16.2998 -7.09961 33.4004 -7.09961 51.2002c0 106 86 192 192 192h80c63.4004 0 118.9 33.5996 149.9 87.5c3.2998 5.7002 8.69922 8.5 14 8.5
c5.69922 0 11.3994 -3.2002 14.2998 -9.7002zM303.4 16.7998c130.8 9.5 224.6 125.9 224.699 276.9c0 23.7002 -2.7998 48 -8 71.2002c-40.3994 -38.9004 -94.0996 -60.9004 -152 -60.9004h-80c-79.3994 0 -144 -64.5996 -144 -144c0 -6.59961 1.10059 -13 2 -19.4004
c52.9004 33.9004 122.7 59.4004 214 59.4004c13.2002 0 24 -10.7998 24 -24s-10.7998 -24 -24 -24c-86.8994 0 -151.5 -25.7998 -198.899 -58.7002c11.5996 -22 56.0996 -85.5996 142.2 -76.5z" />
    <glyph glyph-name="comments" unicode="&#xf086;" horiz-adv-x="576" 
d="M532 61.7998c15.2998 -30.7002 37.4004 -54.5 37.7998 -54.7998c6.2998 -6.7002 8 -16.5 4.40039 -25c-3.7002 -8.5 -12 -14 -21.2002 -14c-53.5996 0 -96.7002 20.2998 -125.2 38.7998c-19 -4.39941 -39 -6.7998 -59.7998 -6.7998
c-86.2002 0 -159.9 40.4004 -191.3 97.7998c-9.7002 1.2002 -19.2002 2.7998 -28.4004 4.90039c-28.5 -18.6006 -71.7002 -38.7998 -125.2 -38.7998c-9.19922 0 -17.5996 5.5 -21.1992 14c-3.7002 8.5 -1.90039 18.2998 4.39941 25
c0.400391 0.399414 22.4004 24.1992 37.7002 54.8994c-27.5 27.2002 -44 61.2002 -44 98.2002c0 88.4004 93.0996 160 208 160c86.2998 0 160.3 -40.5 191.8 -98.0996c99.7002 -11.8008 176.2 -77.9004 176.2 -157.9c0 -37.0996 -16.5 -71.0996 -44 -98.2002zM139.2 154.1
l19.7998 -4.5c16 -3.69922 32.5 -5.59961 49 -5.59961c86.7002 0 160 51.2998 160 112s-73.2998 112 -160 112s-160 -51.2998 -160 -112c0 -28.7002 16.2002 -50.5996 29.7002 -64l24.7998 -24.5l-15.5 -31.0996c-2.59961 -5.10059 -5.2998 -10.1006 -8 -14.8008
c14.5996 5.10059 29 12.3008 43.0996 21.4004zM498.3 96c13.5 13.4004 29.7002 35.2998 29.7002 64c0 49.2002 -48.2998 91.5 -112.7 106c0.299805 -3.2998 0.700195 -6.59961 0.700195 -10c0 -80.9004 -78 -147.5 -179.3 -158.3
c29.0996 -29.6006 77.2998 -49.7002 131.3 -49.7002c16.5 0 33 1.90039 49 5.59961l19.9004 4.60059l17.0996 -11.1006c14.0996 -9.09961 28.5 -16.2998 43.0996 -21.3994c-2.69922 4.7002 -5.39941 9.7002 -8 14.7998l-15.5 31.0996z" />
    <glyph glyph-name="suitcase" unicode="&#xf0f2;" 
d="M464 320c26.5 0 48 -21.5 48 -48v-256c0 -26.5 -21.5 -48 -48 -48h-416c-26.5 0 -48 21.5 -48 48v256c0 26.5 21.5 48 48 48h80v48c0 26.5 21.5 48 48 48h160c26.5 0 48 -21.5 48 -48v-48h80zM176 368v-48h160v48h-160zM48 16h80v256h-80v-256zM176 16h160v256h-160v-256
zM464 16v256h-80v-256h80z" />
    <glyph glyph-name="quote-left" unicode="&#xf10d;" horiz-adv-x="576" 
d="M504 224c39.7002 0 72 -32.2998 72 -72v-112c0 -39.7002 -32.2998 -72 -72 -72h-128c-39.7002 0 -72 32.2998 -72 72v192c0 101.5 82.5 184 184 184h8c26.5 0 48 -21.5 48 -48v-48c0 -26.5 -21.5 -48 -48 -48h-8c-22.0996 0 -40 -17.9004 -40 -40v-8h56zM528 40v112
c0 13.2002 -10.7998 24 -24 24h-104v56c0 48.5 39.5 88 88 88h8v48h-8c-75 0 -136 -61 -136 -136v-192c0 -13.2002 10.7998 -24 24 -24h128c13.2002 0 24 10.7998 24 24zM200 224c39.7002 0 72 -32.2998 72 -72v-112c0 -39.7002 -32.2998 -72 -72 -72h-128
c-39.7002 0 -72 32.2998 -72 72v192c0 101.5 82.5 184 184 184h8c26.5 0 48 -21.5 48 -48v-48c0 -26.5 -21.5 -48 -48 -48h-8c-22.0996 0 -40 -17.9004 -40 -40v-8h56zM224 40v112c0 13.2002 -10.7998 24 -24 24h-104v56c0 48.5 39.5 88 88 88h8v48h-8
c-75 0 -136 -61 -136 -136v-192c0 -13.2002 10.7998 -24 24 -24h128c13.2002 0 24 10.7998 24 24z" />
    <glyph glyph-name="quote-right" unicode="&#xf10e;" horiz-adv-x="576" 
d="M200 416c39.7002 0 72 -32.2998 72 -72v-192c0 -101.5 -82.5 -184 -184 -184h-8c-26.5 0 -48 21.5 -48 48v48c0 26.5 21.5 48 48 48h8c22.0996 0 40 17.9004 40 40v8h-56c-39.7002 0 -72 32.2998 -72 72v112c0 39.7002 32.2998 72 72 72h128zM224 152v192
c0 13.2002 -10.7998 24 -24 24h-128c-13.2002 0 -24 -10.7998 -24 -24v-112c0 -13.2002 10.7998 -24 24 -24h104v-56c0 -48.5 -39.5 -88 -88 -88h-8v-48h8c75 0 136 61 136 136zM504 416c39.7002 0 72 -32.2998 72 -72v-192c0 -101.5 -82.5 -184 -184 -184h-8
c-26.5 0 -48 21.5 -48 48v48c0 26.5 21.5 48 48 48h8c22.0996 0 40 17.9004 40 40v8h-56c-39.7002 0 -72 32.2998 -72 72v112c0 39.7002 32.2998 72 72 72h128zM528 152v192c0 13.2002 -10.7998 24 -24 24h-128c-13.2002 0 -24 -10.7998 -24 -24v-112
c0 -13.2002 10.7998 -24 24 -24h104v-56c0 -48.5 -39.5 -88 -88 -88h-8v-48h8c75 0 136 61 136 136z" />
    <glyph glyph-name="archive" unicode="&#xf187;" 
d="M464 416c26.5 0 48 -21.5 48 -48v-80c0 -8.7998 -7.2002 -16 -16 -16h-16v-272c0 -17.7002 -14.2998 -32 -32 -32h-384c-17.7002 0 -32 14.2998 -32 32v272h-16c-8.7998 0 -16 7.2002 -16 16v80c0 26.5 21.5 48 48 48h416zM432 16v256h-352v-256h352zM464 320v48h-416
v-48h416zM204 176c-6.59961 0 -12 5.40039 -12 12v24c0 6.59961 5.40039 12 12 12h104c6.59961 0 12 -5.40039 12 -12v-24c0 -6.59961 -5.40039 -12 -12 -12h-104z" />
    <glyph glyph-name="handshake" unicode="&#xf2b5;" horiz-adv-x="640" 
d="M519.2 320.1h120.8v-255.699h-64c-17.5 0 -31.7998 14.1992 -31.9004 31.6992h-57.8994c-1.7998 -8.19922 -5.2998 -16.0996 -10.9004 -23l-26.2002 -32.2998c-15.7998 -19.3994 -41.8994 -25.5 -64 -16.7998c-13.5 -16.5996 -30.5996 -24 -48.7998 -24
c-15.0996 0 -28.5996 5.09961 -41.0996 15.9004c-31.7998 -21.9004 -74.7002 -21.3008 -105.601 3.7998l-84.5996 76.3994h-9.09961c-0.100586 -17.5 -14.3008 -31.6992 -31.9004 -31.6992h-64v255.699h118l47.5996 47.6006c10.5 10.3994 24.8008 16.2998 39.6006 16.2998
h226.8c15.4326 0 29.4326 -6.22168 39.5996 -16.2998zM48 96.4004c8.7998 0 16 7.09961 16 16c0 8.7998 -7.2002 16 -16 16s-16 -7.2002 -16 -16c0 -8.80078 7.2002 -16 16 -16zM438 103.3c2.7002 3.40039 2.2002 8.5 -1.2002 11.2998l-108.2 87.8008l-8.19922 -7.5
c-40.3008 -36.8008 -86.7002 -11.8008 -101.5 4.39941c-26.7002 29 -25 74.4004 4.39941 101.3l38.7002 35.5h-56.7002c-2 -0.799805 -3.7002 -1.5 -5.7002 -2.2998l-61.6992 -61.5996h-41.9004v-128.101h27.7002l97.2998 -88
c16.0996 -13.0996 41.4004 -10.5 55.2998 6.60059l15.6006 19.2002l36.7998 -31.5c3 -2.40039 12 -4.90039 18 2.39941l30 36.5l23.8994 -19.3994c3.5 -2.80078 8.5 -2.2002 11.3008 1.19922zM544 144.1v128h-44.7002l-61.7002 61.6006
c-1.39941 1.5 -3.39941 2.2998 -5.5 2.2998l-83.6992 -0.200195c-10 0 -19.6006 -3.7002 -27 -10.5l-65.6006 -60.0996c-9.7002 -8.7998 -10.5 -24 -1.2002 -33.9004c8.90039 -9.39941 25.1006 -8.7002 34.6006 0l55.2002 50.6006c6.5 5.89941 16.5996 5.5 22.5996 -1
l10.9004 -11.7002c6 -6.5 5.5 -16.6006 -1 -22.6006l-12.5 -11.3994l102.699 -83.4004c2.80078 -2.2998 5.40039 -4.89941 7.7002 -7.7002h69.2002zM592 96.4004c8.7998 0 16 7.09961 16 16c0 8.7998 -7.2002 16 -16 16s-16 -7.2002 -16 -16c0 -8.80078 7.2002 -16 16 -16z
" />
    <glyph glyph-name="usd-square" unicode="&#xf2e9;" horiz-adv-x="448" 
d="M261.8 205.7c26.4004 -7.90039 44.9004 -33.2002 44.9004 -61.5c0 -34.1006 -26.1006 -61.9004 -58.7002 -63.7998v-24.4004c0 -4.40039 -3.59961 -8 -8 -8h-32c-4.40039 0 -8 3.59961 -8 8v24.5996c-16.7998 1.2002 -33 7.7002 -45.9004 18.6006
c-3.5 2.89941 -3.2998 8.39941 0 11.5996l23.4004 22.2998c2.59961 2.60059 6.7998 3.10059 9.7998 0.900391c5.40039 -4 11.7998 -6.09961 18.4004 -6.09961h38.5996c7.7998 0 14.2002 7.19922 14.2002 16.0996c0 7.2998 -4.40039 13.7002 -10.5996 15.5996
l-61.9004 18.6006c-26.4004 7.89941 -44.7998 33.2998 -44.7998 61.5996c0 34.1006 26.0996 61.9004 58.7002 63.7998v24.4004c0 4.40039 3.59961 8 8 8h32c4.39941 0 8 -3.59961 8 -8v-24.7002c16.7998 -1.2002 33 -7.7002 45.8994 -18.5996
c3.5 -2.90039 3.2998 -8.40039 0 -11.6006l-23.3994 -22.2998c-2.60059 -2.59961 -6.80078 -3.09961 -9.80078 -0.899414c-5.39941 4 -11.7998 6.09961 -18.3994 6.09961h-38.6006c-7.7998 0 -14.1992 -7.2002 -14.1992 -16.0996
c0 -7.30078 4.39941 -13.7002 10.5996 -15.6006zM392 416c30.9004 0 56 -25.0996 56 -56v-336c0 -30.9004 -25.0996 -56 -56 -56h-336c-30.9004 0 -56 25.0996 -56 56v336c0 30.9004 25.0996 56 56 56h336zM400 24v336c0 4.40039 -3.59961 8 -8 8h-336
c-4.40039 0 -8 -3.59961 -8 -8v-336c0 -4.40039 3.59961 -8 8 -8h336c4.40039 0 8 3.59961 8 8z" />
    <glyph glyph-name="poo" unicode="&#xf2fe;" 
d="M343.7 96c5.7998 0 9.7998 -5.7002 7.7998 -11c-10.5 -27.9004 -58.4004 -53 -95.5 -53s-85 25.0996 -95.5 53c-2 5.2998 2 11 7.7998 11h175.4zM192 128c-17.7002 0 -32 14.2998 -32 32s14.2998 32 32 32s32 -14.2998 32 -32s-14.2998 -32 -32 -32zM320 192
c17.7002 0 32 -14.2998 32 -32s-14.2998 -32 -32 -32s-32 14.2998 -32 32s14.2998 32 32 32zM481.8 116.9c18.7998 -19.3008 30.2002 -45.6006 30.2002 -74.4004c0 -58.7002 -47.7998 -106.5 -106.5 -106.5h-299c-58.7002 0 -106.5 47.7998 -106.5 106.5
c0 28.7998 11.4004 55.0996 30.2002 74.4004c-2.7998 9.39941 -4.2002 19.3994 -4.2002 29.5996c0 38.9004 21 73 52.2002 91.5996c-0.100586 1.90039 -0.200195 3.90039 -0.200195 5.90039c0 55.0996 44.9004 100 100 100h13c9.40039 0 17 7.59961 17 17
c0 3.5 -1.09961 6.7998 -3.2998 9.7998c-9.7002 13.5 -11.7002 31.1006 -5.2998 46.5c6.39941 15.2998 20.3994 26.2998 36.7998 28.9004c5.59961 0.899414 12.2002 1.7998 19.7998 1.7998c66.0996 0 120.5 -51.2002 125.6 -116.1
c31.2002 -16.9004 52.4004 -50 52.4004 -87.9004c0 -2 -0.0996094 -3.90039 -0.200195 -5.90039c31.2002 -18.5996 52.2002 -52.6992 52.2002 -91.5996c0 -10.0996 -1.40039 -20.0996 -4.2002 -29.5996zM405.5 -16c32.2998 0 58.5 26.2002 58.5 58.5
c0 29.2002 -21.4004 53.0996 -49.2998 57.5996c14.0996 10.7002 23.2998 27.4004 23.2998 46.4004c0 32.2998 -26.2002 58.5 -58.5 58.5h-11.4004c10.9004 9.5 17.9004 23.4004 17.9004 39c0 28.7002 -23.2998 52 -52 52h-4.7998c2.89941 8.2002 4.7998 16.7998 4.7998 26
c0 43.0996 -34.9004 78 -78 78c-4.2002 0 -8.2998 -0.599609 -12.2998 -1.2002c7.7002 -10.7002 12.2998 -23.7002 12.2998 -37.7998c0 -35.9004 -29.0996 -65 -65 -65h-13c-28.7002 0 -52 -23.2998 -52 -52c0 -15.5996 7 -29.5 17.9004 -39h-11.4004
c-32.2998 0 -58.5 -26.2002 -58.5 -58.5c0 -19 9.2002 -35.7002 23.2998 -46.4004c-27.8994 -4.5 -49.2998 -28.5 -49.2998 -57.5996c0 -32.2998 26.2002 -58.5 58.5 -58.5h299z" />
    <glyph glyph-name="phone-slash" unicode="&#xf3dd;" horiz-adv-x="640" 
d="M634 -23c6.90039 -5.5 8 -15.5996 2.5 -22.5l-10 -12.5c-5.5 -6.90039 -15.5996 -8 -22.5 -2.5l-598 467.5c-6.90039 5.5 -8 15.5996 -2.5 22.5l10 12.5c5.5 6.90039 15.5996 8 22.5 2.5zM403.5 232.6l-39.9004 32.7002
c-15.6992 12.7998 -21.0996 34.7998 -13.0996 53.4004l43.5 101.5c8.7002 20.3994 30.7002 31.5996 52.2998 26.5996l94.1006 -21.7002c20.8994 -4.7998 35.5 -23.1992 35.5 -44.5996c0 -89.0996 -26.5 -171.8 -71.5 -241.3l-38 29.7002
c38.5 60.7998 61.2998 132.6 61.5996 209.8l-90.7002 20.8994l-42.0996 -98.1992l68.0996 -55.7002c-9 -19.2998 -18.3994 -36.2998 -28.2002 -52.2998l-37.7998 29.5c2 3.2998 4.40039 6.2998 6.2002 9.69922zM133.3 -16c88.2002 0.400391 169.3 29.9004 234.9 79
l39.0996 -30.5996c-76 -60.2002 -171.7 -96.3008 -275.899 -96.3008c-21.4004 0 -39.8008 14.6006 -44.6006 35.5l-21.7002 94.2002c-4.89941 21.6006 6.2002 43.6006 26.6006 52.2998l101.6 43.5c18.6006 8 40.6006 2.60059 53.4004 -13.0996l32.7002 -40
c5.89941 3.2002 11.1992 7.2002 16.7998 10.7998l40 -31.2998c-20.5 -14 -43.4004 -26.9004 -69.9004 -39.2998l-55.7002 68.0996l-98.1992 -42.0996z" />
    <glyph glyph-name="hand-holding-box" unicode="&#xf47b;" horiz-adv-x="576" 
d="M551.9 136c15.8994 -13.5 24.6992 -33.0996 24 -53.5996c-0.600586 -20.5 -10.5 -39.5 -27.1006 -52l-100.8 -75.9004c-15.9004 -12 -35.2998 -18.5 -55.2002 -18.5h-376.8c-8.7998 0 -16 7.2002 -16 16v16c0 8.7998 7.2002 16 16 16h376.5
c9.7002 0 19.0996 3.2002 26.9004 9l100.6 75.5c10.2002 7.59961 11 22.2002 0.900391 30.7002c-7.90039 6.7002 -20.1006 6.2002 -28.4004 0l-61.2998 -46.1006c-7.7002 -5.7998 -17.2002 -9 -26.9004 -9h-134.5c-7.59961 0 -13.7998 6.2002 -13.7998 13.8008v0.0996094
c0 7.59961 6.2002 13.7998 13.7998 13.7998h59.7998c30.2002 0 29 40.2002 1.10059 40.2002h-144c-18 0 -35.4004 -5.7998 -49.4004 -16.5l-41.2998 -31.5h-80c-8.7998 0 -16 7.2002 -16 16v16c0 8.7998 7.2002 16 16 16h63.7998l28.2998 21.7998
c22.2002 16.9004 50.1006 26.2998 78.5 26.2998h144c38.7002 0 69 -29.7998 69.2002 -67.7998h3.2998l60.4004 45.5c19.0996 14.2998 57.2998 24.6006 88.4004 -1.7998zM112.5 192c-8.7998 0 -16 7.2002 -16 16v224c0 8.7998 7.2002 16 16 16h352
c8.7998 0 16 -7.2002 16 -16v-224c0 -8.7998 -7.2002 -16 -16 -16h-352zM144.5 400v-160h288v160h-80v-112l-64 32l-64 -32v112h-80z" />
    <glyph glyph-name="hand-receiving" unicode="&#xf47c;" horiz-adv-x="640" 
d="M297.6 201.3l-96.3994 96.2998c-12.4004 12.3008 -12.4004 32.4004 0 44.7002l96.3994 96.4004c6.2002 6.2002 14.3008 9.2998 22.4004 9.2998s16.2002 -3.09961 22.4004 -9.2998l96.3994 -96.2998c12.4004 -12.3008 12.4004 -32.4004 0 -44.7002l-96.3994 -96.4004
c-6.2002 -6.2002 -14.3008 -9.2998 -22.4004 -9.2998s-16.2002 3.09961 -22.4004 9.2998zM320 394l-74 -74l74 -74l74 74zM572.9 351.8c38.2998 -2.5 67.0996 -36 67.0996 -74.2998v-191.4c0 -25.3994 -8.7002 -50.1992 -24.5 -70l-58.7002 -74
c-3 -3.89941 -7.59961 -6.09961 -12.5 -6.09961h-16.2998c-8.7998 0 -16 7.2002 -16 16v11.5996l66 82.5c9.09961 11.3008 14 25.4004 14 39.9004v193.1c0 11.6006 -7.7998 22.2002 -19.2002 24.4004c-15.3994 3 -28.7998 -8.7002 -28.7998 -23.5
c0 0 -0.200195 -101 -0.0996094 -132.7c-0.100586 -7.59961 -2.80078 -14.7998 -7.80078 -20.5996l-76.5 -92.6006c-4.39941 -5.2998 -10.6992 -8 -17 -8c-5.89941 0 -11.6992 2.30078 -16.0996 7c-7.40039 7.90039 -7.2998 20.4004 -0.799805 29.2002l49.5 67
c8.09961 10.6006 6.09961 25.6006 -4.40039 33.7002c-4.39941 3.40039 -9.5 5 -14.5996 5c-7.2002 0 -14.4004 -3.2998 -19.1006 -9.40039l-71.6992 -93.1992c-8.60059 -11.2002 -13.3008 -24.9004 -13.3008 -39v-74.4004c0 -8.7998 -7.19922 -16 -16 -16h-32
c-8.7998 0 -16 7.2002 -16 16v74.5c0 14.0996 -4.69922 27.7998 -13.2998 39l-71.7002 93.2002c-4.7998 6.2002 -11.8994 9.39941 -19.0996 9.39941c-5.09961 0 -10.2002 -1.59961 -14.5996 -5c-10.5 -8.09961 -12.5 -23.1992 -4.40039 -33.6992l49.5 -67
c6.5 -8.80078 6.7002 -21.3008 -0.799805 -29.2002c-4.40039 -4.7002 -10.2998 -7 -16.1006 -7c-6.2998 0 -12.5996 2.7002 -17 8l-76.5 92.5996c-5 5.7998 -7.7998 13 -7.7998 20.6006c-0.0996094 31.5996 -0.299805 132.6 -0.299805 132.6
c0 14.7998 -13.5 26.5 -28.7998 23.5c-11.4004 -2.09961 -19.2002 -12.7998 -19.2002 -24.4004v-193.1c0 -14.5996 4.90039 -28.7002 14 -40l66 -82.5v-11.5996c0 -8.80078 -7.2002 -16 -16 -16h-16.2998c-4.7998 0 -9.5 2.2998 -12.5 6.09961l-58.7002 74
c-15.7998 19.7998 -24.5 44.7002 -24.5 70v191.5c0 38.2998 28.7998 71.7998 67.0996 74.2998c41.9004 2.7998 76.9004 -30.5 76.9004 -71.7998c0 0 0.0996094 -38.9004 0.200195 -76c11.7002 7.7002 25.7002 12 39.7998 12c22.4004 0 43.2002 -10.2002 57 -28
l71.7998 -93.2998c2.7002 -3.5 4.90039 -7.40039 7.2002 -11.2002c2.2002 3.7998 4.5 7.7002 7.2002 11.2002l71.7998 93.2998c13.7002 17.7998 34.5 28 57 28c14.0996 0 28.0996 -4.2002 39.7998 -12c0.100586 37 0.200195 76 0.200195 76
c0 41.2998 35 74.5996 76.9004 71.7998z" />
    <glyph glyph-name="blanket" unicode="&#xf498;" 
d="M440 80c13.2002 0 24 10.7998 24 24s-10.7998 24 -24 24h-315.7c-37.7002 0 -72.0996 -27 -75.8994 -64.5c-4.40039 -43 29.3994 -79.5 71.5996 -79.5h376c8.7998 0 16 -7.2002 16 -16v-16c0 -8.7998 -7.2002 -16 -16 -16h-372.6
c-57.2002 0 -109.301 38.7002 -120.801 94.7998c-1.7998 8.7002 -2.2998 17.2998 -2.2998 25.7002l-0.299805 -0.5v304c0 48.5 39.5 88 88 88h336c48.5 0 88 -39.5 88 -88v-256l-0.400391 0.400391c0.100586 -39.9004 -31.7998 -72.4004 -71.5996 -72.4004h-328
c-8.7998 0 -16 7.2002 -16 16v16c0 8.7998 7.2002 16 16 16h328zM435.7 176c9.89941 0 19.3994 -1.90039 28.2998 -5.2998v189.3c0 22.0996 -17.9004 40 -40 40h-336c-22.0996 0 -40 -17.9004 -40 -40v-208.3c20.0996 15.0996 45 24.2998 72 24.2998h315.7z" />
    <glyph glyph-name="box-alt" unicode="&#xf49a;" horiz-adv-x="448" 
d="M447.9 272c0 -60.5996 0.0996094 -272 0.0996094 -272c0 -17.7002 -14.2998 -32 -32 -32h-384c-17.7002 0 -32 14.2998 -32 32c0 0 0.0996094 211.4 0 271.9c0 10.5996 2.59961 21 7.59961 30.2998l49.1006 91.8994c4.39941 13.1006 16.5996 21.9004 30.3994 21.9004
h273.801c13.7998 0 26 -8.7998 30.2998 -21.7998l49.0996 -91.9004c5 -9.2998 7.60059 -19.7002 7.60059 -30.2998zM350.8 368h-96.3994l24 -80h115.199zM97.2002 368l-42.7998 -80h115.199l24 80h-96.3994zM48 16h352c-0.0996094 42.2002 -0.0996094 157.9 -0.0996094 224
h-111.9v-64c0 -8.7998 -7.2002 -16 -16 -16h-96c-8.7998 0 -16 7.2002 -16 16v64h-111.9c0 -66.0996 -0.0996094 -181.7 -0.0996094 -224z" />
    <glyph glyph-name="box-fragile" unicode="&#xf49b;" 
d="M448 448c35.2998 0 64 -28.7002 64 -64v-384c0 -35.2998 -28.7002 -64 -64 -64h-384c-35.2998 0 -64 28.7002 -64 64v384c0 35.2998 28.7002 64 64 64h384zM464 0v384c0 8.7998 -7.2002 16 -16 16h-384c-8.7998 0 -16 -7.2002 -16 -16v-384c0 -8.7998 7.2002 -16 16 -16
h384c8.7998 0 16 7.2002 16 16zM336 352c8.7998 0 16 -7.2002 16 -16v-97.5996c0 -44.7002 -30.7002 -81.6006 -72 -92.3008v-66.0996h24c8.7998 0 16 -7.2002 16 -16v-16c0 -8.7998 -7.2002 -16 -16 -16h-96c-8.7998 0 -16 7.2002 -16 16v16c0 8.7998 7.2002 16 16 16h24
v66.0996c-41.2998 10.7002 -72 47.6006 -72 92.3008v97.5996c0 8.7998 7.2002 16 16 16h60.4004l24.5996 -27.5996l-64 -32l91 -68.4004l-37 59.5996l64 32l-22.9004 36.4004h43.9004z" />
    <glyph glyph-name="box-heart" unicode="&#xf49d;" horiz-adv-x="448" 
d="M301.3 205c23.6006 -19.0996 24.7998 -53.5 3.7002 -74.2002l-72.5996 -71.2998c-4.7002 -4.59961 -12.3008 -4.59961 -17 0l-72.6006 71.2998c-21.0996 20.7002 -19.8994 55.1006 3.7002 74.2002c23.7998 19.2998 54.7002 10.2998 70 -4.7998l7.40039 -7.2998
l7.39941 7.2998c15.7002 15.3994 46.5 23.8994 70 4.7998zM447.9 272c0 -60.5996 0.0996094 -272 0.0996094 -272c0 -17.7002 -14.2998 -32 -32 -32h-384c-17.7002 0 -32 14.2998 -32 32c0 0 0.0996094 211.4 0 271.9c0 10.5996 2.59961 21 7.59961 30.2998l49.1006 91.8994
c4.39941 13.1006 16.5996 21.9004 30.3994 21.9004h273.801c13.7998 0 26 -8.7998 30.2998 -21.7998l49.0996 -91.9004c5 -9.2998 7.60059 -19.7002 7.60059 -30.2998zM248 368v-64h137l-34.2002 64h-102.8zM97.2002 368l-34.2002 -64h137v64h-102.8zM48 16h352
c0 36.5 -0.0996094 163.5 -0.0996094 240h-351.801c0 -76.5 -0.0996094 -203.5 -0.0996094 -240z" />
    <glyph glyph-name="box-up" unicode="&#xf49f;" 
d="M400 80c8.7998 0 16 -7.2002 16 -16v-16c0 -8.7998 -7.2002 -16 -16 -16h-288c-8.7998 0 -16 7.2002 -16 16v16c0 8.7998 7.2002 16 16 16h288zM448 448c35.2998 0 64 -28.7002 64 -64v-384c0 -35.2998 -28.7002 -64 -64 -64h-384c-35.2998 0 -64 28.7002 -64 64v384
c0 35.2998 28.7002 64 64 64h384zM464 0v384c0 8.7998 -7.2002 16 -16 16h-384c-8.7998 0 -16 -7.2002 -16 -16v-384c0 -8.7998 7.2002 -16 16 -16h384c8.7998 0 16 7.2002 16 16zM358.2 349l63.8994 -80c4.2002 -5.2998 0.5 -13 -6.19922 -13h-32v-112
c0 -8.7998 -7.2002 -16 -16 -16h-32c-8.80078 0 -16 7.2002 -16 16v112h-32c-6.60059 0 -10.4004 7.7002 -6.2002 13l64 80c3.09961 3.7998 9.39941 3.7998 12.5 0zM128 256h-32.0996c-6.60059 0 -10.4004 7.7002 -6.2002 13l64 80c3.09961 3.7998 9.39941 3.7998 12.5 0
l64 -80c4.2002 -5.2998 0.5 -13 -6.2002 -13h-32v-112c0 -8.7998 -7.2002 -16 -16 -16h-32c-8.7998 0 -16 7.2002 -16 16v112z" />
    <glyph glyph-name="box-usd" unicode="&#xf4a0;" horiz-adv-x="448" 
d="M447.9 272c0 -60.5996 0.0996094 -272 0.0996094 -272c0 -17.7002 -14.2998 -32 -32 -32h-384c-17.7002 0 -32 14.2998 -32 32c0 0 0.0996094 211.4 0 271.9c0 10.5996 2.59961 21 7.59961 30.2998l49.1006 91.8994c4.39941 13.1006 16.5996 21.9004 30.3994 21.9004
h273.801c13.7998 0 26 -8.7998 30.2998 -21.7998l49.0996 -91.9004c5 -9.2998 7.60059 -19.7002 7.60059 -30.2998zM248 368v-64h137l-34.2002 64h-102.8zM97.2002 368l-34.2002 -64h137v64h-102.8zM48 16h352c0 36.5 -0.0996094 163.5 -0.0996094 240h-351.801
c0 -76.5 -0.0996094 -203.5 -0.0996094 -240zM249.3 145.7c18.1006 -4.90039 30.7002 -21 30.7002 -39.2002c0 -21.7002 -17.7998 -39.2002 -40 -40.2998v-10.2002c0 -4.40039 -3.59961 -8 -8 -8h-16c-4.40039 0 -8 3.59961 -8 8v10.2998
c-10.2002 0.600586 -20 3.7998 -28.2998 9.5c-3.7002 2.60059 -4.2002 7.90039 -1.10059 11.2002l12.1006 12.7002c2.39941 2.59961 6.09961 2.89941 9.2002 1.2002c3.59961 -2 7.69922 -3 11.7998 -3h26.2998c5.59961 0 10.0996 3.89941 10.0996 8.69922
c0 3.80078 -2.89941 7.2002 -7.09961 8.30078l-42.2002 11.3994c-18.0996 4.90039 -30.7002 21 -30.7002 39.2002c0 21.7002 17.8008 39.2002 40 40.2998v10.2002c0 4.40039 3.60059 8 8 8h16c4.40039 0 8 -3.59961 8 -8v-10.2998
c10.2002 -0.600586 20 -3.7998 28.3008 -9.5c3.69922 -2.60059 4.19922 -7.90039 1.09961 -11.2002l-12.0996 -12.7002c-2.40039 -2.59961 -6.10059 -2.89941 -9.2002 -1.2002c-3.60059 2 -7.7002 3 -11.7998 3h-26.3008c-5.59961 0 -10.0996 -3.89941 -10.0996 -8.69922
c0 -3.80078 2.90039 -7.2002 7.09961 -8.30078z" />
    <glyph glyph-name="boxes-alt" unicode="&#xf4a1;" horiz-adv-x="640" 
d="M592 224c26.5 0 48 -21.5 48 -48v-192c0 -26.5 -21.5 -48 -48 -48h-544c-26.5 0 -48 21.5 -48 48v192c0 26.5 21.5 48 48 48h112v176c0 26.5 21.5 48 48 48h224c26.5 0 48 -21.5 48 -48v-176h112zM208 400v-176h224v176h-80v-72c0 -4.40039 -3.59961 -8 -8 -8h-48
c-4.40039 0 -8 3.59961 -8 8v72h-80zM296 -16v192h-88v-72c0 -4.40039 -3.59961 -8 -8 -8h-48c-4.40039 0 -8 3.59961 -8 8v72h-96v-192h248zM592 -16v192h-96v-72c0 -4.40039 -3.59961 -8 -8 -8h-48c-4.40039 0 -8 3.59961 -8 8v72h-88v-192h248z" />
    <glyph glyph-name="comment-alt-check" unicode="&#xf4a2;" 
d="M448 448c35.2998 0 64 -28.7002 64 -64v-288c0 -35.2998 -28.7002 -64 -64 -64h-144l-124.9 -93.5996c-2.19922 -1.7002 -4.69922 -2.40039 -7.09961 -2.40039c-6.2002 0 -12 4.90039 -12 12v84h-96c-35.2998 0 -64 28.7002 -64 64v288c0 35.2998 28.7002 64 64 64h384z
M464 96v288c0 8.7998 -7.2002 16 -16 16h-384c-8.7998 0 -16 -7.2002 -16 -16v-288c0 -8.7998 7.2002 -16 16 -16h144v-60l67.2002 50.4004l12.7998 9.59961h160c8.7998 0 16 7.2002 16 16zM332.7 317.6l23.2998 -23.3994c3.7998 -3.90039 3.7998 -10.2002 -0.0996094 -14
l-117.801 -116.8c-3.89941 -3.80078 -10.1992 -3.80078 -14 0.0996094l-68.0996 68.5996c-3.7998 3.90039 -3.7998 10.2002 0.0996094 14l23.4004 23.2002c3.90039 3.7998 10.2002 3.7998 14 -0.0996094l37.9004 -38.2002l87.2998 86.7002
c3.89941 3.7998 10.2002 3.7998 14 -0.100586z" />
    <glyph glyph-name="comment-alt-dots" unicode="&#xf4a3;" 
d="M448 448c35.2998 0 64 -28.7002 64 -64v-288c0 -35.2998 -28.7002 -64 -64 -64h-144l-124.9 -93.5996c-2.19922 -1.7002 -4.69922 -2.40039 -7.09961 -2.40039c-6.2002 0 -12 4.90039 -12 12v84h-96c-35.2998 0 -64 28.7002 -64 64v288c0 35.2998 28.7002 64 64 64h384z
M464 96v288c0 8.7998 -7.2002 16 -16 16h-384c-8.7998 0 -16 -7.2002 -16 -16v-288c0 -8.7998 7.2002 -16 16 -16h144v-60l67.2002 50.4004l12.7998 9.59961h160c8.7998 0 16 7.2002 16 16zM128 272c17.7002 0 32 -14.2998 32 -32s-14.2998 -32 -32 -32s-32 14.2998 -32 32
s14.2998 32 32 32zM256 272c17.7002 0 32 -14.2998 32 -32s-14.2998 -32 -32 -32s-32 14.2998 -32 32s14.2998 32 32 32zM384 272c17.7002 0 32 -14.2998 32 -32s-14.2998 -32 -32 -32s-32 14.2998 -32 32s14.2998 32 32 32z" />
    <glyph glyph-name="comment-alt-edit" unicode="&#xf4a4;" 
d="M448 448c35.2998 0 64 -28.7002 64 -64v-288c0 -35.2998 -28.7002 -64 -64 -64h-144l-124.9 -93.5996c-2.19922 -1.7002 -4.69922 -2.40039 -7.09961 -2.40039c-6.2002 0 -12 4.90039 -12 12v84h-96c-35.2998 0 -64 28.7002 -64 64v288c0 35.2998 28.7002 64 64 64h384z
M464 96v288c0 8.7998 -7.2002 16 -16 16h-384c-8.7998 0 -16 -7.2002 -16 -16v-288c0 -8.7998 7.2002 -16 16 -16h144v-60l67.2002 50.4004l12.7998 9.59961h160c8.7998 0 16 7.2002 16 16zM164.9 204.8l85.5 85.5l48 -48l-85.5 -85.5l-42.8008 -4.7998
c-5.7998 -0.599609 -10.5996 4.2998 -10 10zM324.2 338.7l22.5996 -22.6006c7 -7 7 -18.3994 0 -25.3994l-28.2998 -28.2998l-48 48l28.2998 28.2998c7 7 18.4004 7 25.4004 0z" />
    <glyph glyph-name="comment-alt-exclamation" unicode="&#xf4a5;" 
d="M256 192c17.7002 0 32 -14.2998 32 -32s-14.2998 -32 -32 -32s-32 14.2998 -32 32s14.2998 32 32 32zM448 448c35.2998 0 64 -28.7002 64 -64v-288c0 -35.2998 -28.7002 -64 -64 -64h-144l-124.9 -93.5996c-2.19922 -1.7002 -4.69922 -2.40039 -7.09961 -2.40039
c-6.2002 0 -12 4.90039 -12 12v84h-96c-35.2998 0 -64 28.7002 -64 64v288c0 35.2998 28.7002 64 64 64h384zM464 96v288c0 8.7998 -7.2002 16 -16 16h-384c-8.7998 0 -16 -7.2002 -16 -16v-288c0 -8.7998 7.2002 -16 16 -16h144v-60l67.2002 50.4004l12.7998 9.59961h160
c8.7998 0 16 7.2002 16 16zM284.7 352c10 0 17.5996 -9.09961 15.7002 -18.9004l-18 -96c-1.40039 -7.59961 -8 -13.0996 -15.7002 -13.0996h-21.4004c-7.7002 0 -14.2998 5.5 -15.7002 13.0996l-18 96c-1.89941 9.80078 5.7002 18.9004 15.7002 18.9004h57.4004z" />
    <glyph glyph-name="comment-alt-lines" unicode="&#xf4a6;" 
d="M448 448c35.2998 0 64 -28.7002 64 -64v-288c0 -35.2998 -28.7002 -64 -64 -64h-144l-124.9 -93.5996c-2.19922 -1.7002 -4.69922 -2.40039 -7.09961 -2.40039c-6.2002 0 -12 4.90039 -12 12v84h-96c-35.2998 0 -64 28.7002 -64 64v288c0 35.2998 28.7002 64 64 64h384z
M464 96v288c0 8.7998 -7.2002 16 -16 16h-384c-8.7998 0 -16 -7.2002 -16 -16v-288c0 -8.7998 7.2002 -16 16 -16h144v-60l67.2002 50.4004l12.7998 9.59961h160c8.7998 0 16 7.2002 16 16zM368 312c8.7998 0 16 -7.2002 16 -16v-16c0 -8.7998 -7.2002 -16 -16 -16h-224
c-8.7998 0 -16 7.2002 -16 16v16c0 8.7998 7.2002 16 16 16h224zM272 216c8.7998 0 16 -7.2002 16 -16v-16c0 -8.7998 -7.2002 -16 -16 -16h-128c-8.7998 0 -16 7.2002 -16 16v16c0 8.7998 7.2002 16 16 16h128z" />
    <glyph glyph-name="comment-alt-minus" unicode="&#xf4a7;" 
d="M448 448c35.2998 0 64 -28.7002 64 -64v-288c0 -35.2998 -28.7002 -64 -64 -64h-144l-124.9 -93.5996c-2.19922 -1.7002 -4.69922 -2.40039 -7.09961 -2.40039c-6.2002 0 -12 4.90039 -12 12v84h-96c-35.2998 0 -64 28.7002 -64 64v288c0 35.2998 28.7002 64 64 64h384z
M464 96v288c0 8.7998 -7.2002 16 -16 16h-384c-8.7998 0 -16 -7.2002 -16 -16v-288c0 -8.7998 7.2002 -16 16 -16h144v-60l67.2002 50.4004l12.7998 9.59961h160c8.7998 0 16 7.2002 16 16zM336 264c8.7998 0 16 -7.2002 16 -16v-16c0 -8.7998 -7.2002 -16 -16 -16h-160
c-8.7998 0 -16 7.2002 -16 16v16c0 8.7998 7.2002 16 16 16h160z" />
    <glyph glyph-name="comment-alt-plus" unicode="&#xf4a8;" 
d="M448 448c35.2998 0 64 -28.7002 64 -64v-288c0 -35.2998 -28.7002 -64 -64 -64h-144l-124.9 -93.5996c-2.19922 -1.7002 -4.69922 -2.40039 -7.09961 -2.40039c-6.2002 0 -12 4.90039 -12 12v84h-96c-35.2998 0 -64 28.7002 -64 64v288c0 35.2998 28.7002 64 64 64h384z
M464 96v288c0 8.7998 -7.2002 16 -16 16h-384c-8.7998 0 -16 -7.2002 -16 -16v-288c0 -8.7998 7.2002 -16 16 -16h144v-60l67.2002 50.4004l12.7998 9.59961h160c8.7998 0 16 7.2002 16 16zM336 264c8.7998 0 16 -7.2002 16 -16v-16c0 -8.7998 -7.2002 -16 -16 -16h-56v-56
c0 -8.7998 -7.2002 -16 -16 -16h-16c-8.7998 0 -16 7.2002 -16 16v56h-56c-8.7998 0 -16 7.2002 -16 16v16c0 8.7998 7.2002 16 16 16h56v56c0 8.7998 7.2002 16 16 16h16c8.7998 0 16 -7.2002 16 -16v-56h56z" />
    <glyph glyph-name="comment-alt-slash" unicode="&#xf4a9;" horiz-adv-x="640" 
d="M634 -23c6.90039 -5.5 8 -15.5996 2.5 -22.5l-10 -12.5c-5.5 -6.90039 -15.5996 -8 -22.5 -2.5l-498.4 389.7l-41.5996 32.5l-58 45.2998c-6.90039 5.5 -8 15.5996 -2.5 22.5l10 12.5c5.5 6.90039 15.5996 8 22.5 2.5zM512 400h-341.2l-58.5996 45.7998
c5.09961 1.2998 10.2998 2.2002 15.7998 2.2002h384c35.2998 0 64 -28.7002 64 -64v-288c0 -4 -0.5 -8 -1.2002 -11.7998l-46.7998 36.5996v263.2c0 8.7998 -7.2002 16 -16 16zM339.2 70.4004l10 7.39941l58.5996 -45.7998h-39.7998l-124.9 -93.5996
c-2.19922 -1.7002 -4.69922 -2.40039 -7.09961 -2.40039c-6.2002 0 -12 4.90039 -12 12v84h-96c-35.2998 0 -64 28.7002 -64 64v204.7l48 -37.5v-167.2c0 -8.7998 7.2002 -16 16 -16h144v-60z" />
    <glyph glyph-name="comment-alt-smile" unicode="&#xf4aa;" 
d="M448 448c35.2998 0 64 -28.7002 64 -64v-288c0 -35.2998 -28.7002 -64 -64 -64h-144l-124.9 -93.5996c-2.19922 -1.7002 -4.69922 -2.40039 -7.09961 -2.40039c-6.2002 0 -12 4.90039 -12 12v84h-96c-35.2998 0 -64 28.7002 -64 64v288c0 35.2998 28.7002 64 64 64h384z
M464 96v288c0 8.7998 -7.2002 16 -16 16h-384c-8.7998 0 -16 -7.2002 -16 -16v-288c0 -8.7998 7.2002 -16 16 -16h144v-60l67.2002 50.4004l12.7998 9.59961h160c8.7998 0 16 7.2002 16 16zM325.8 207.8c8.60059 10.1006 23.7002 11.2998 33.7002 2.7002
c10.0996 -8.59961 11.2998 -23.7002 2.7002 -33.7998c-26.4004 -30.9004 -65.1006 -48.7002 -106.2 -48.7002s-79.7998 17.7002 -106.3 48.7002c-8.5 10 -7.2998 25.2002 2.7002 33.7998s25.1992 7.40039 33.7998 -2.7002
c17.2998 -20.2002 42.7002 -31.7998 69.7998 -31.7998s52.5 11.5996 69.7998 31.7998zM192 256c-17.7002 0 -32 14.2998 -32 32s14.2998 32 32 32s32 -14.2998 32 -32s-14.2998 -32 -32 -32zM320 256c-17.7002 0 -32 14.2998 -32 32s14.2998 32 32 32s32 -14.2998 32 -32
s-14.2998 -32 -32 -32z" />
    <glyph glyph-name="comment-alt-times" unicode="&#xf4ab;" 
d="M448 448c35.2998 0 64 -28.7002 64 -64v-288c0 -35.2998 -28.7002 -64 -64 -64h-144l-124.9 -93.5996c-2.19922 -1.7002 -4.69922 -2.40039 -7.09961 -2.40039c-6.2002 0 -12 4.90039 -12 12v84h-96c-35.2998 0 -64 28.7002 -64 64v288c0 35.2998 28.7002 64 64 64h384z
M464 96v288c0 8.7998 -7.2002 16 -16 16h-384c-8.7998 0 -16 -7.2002 -16 -16v-288c0 -8.7998 7.2002 -16 16 -16h144v-60l67.2002 50.4004l12.7998 9.59961h160c8.7998 0 16 7.2002 16 16zM329.5 302.2c6.2998 -6.2002 6.2998 -16.4004 0 -22.6006l-39.5996 -39.5996
l39.5996 -39.5996c6.2002 -6.2002 6.2002 -16.4004 0 -22.6006l-11.2998 -11.2998c-6.2002 -6.2002 -16.4004 -6.2002 -22.6006 0l-39.5996 39.5996l-39.5996 -39.5996c-6.2002 -6.2002 -16.4004 -6.2002 -22.6006 0l-11.2998 11.2998
c-6.2002 6.2002 -6.2002 16.4004 0 22.6006l39.5996 39.5996l-39.5996 39.5996c-6.2002 6.2002 -6.2002 16.4004 0 22.6006l11.2998 11.2998c6.2002 6.2002 16.4004 6.2002 22.6006 0l39.5996 -39.5996l39.5996 39.5996c6.2002 6.2002 16.4004 6.2002 22.6006 0z" />
    <glyph glyph-name="comment-check" unicode="&#xf4ac;" 
d="M332.7 285.6l23.2998 -23.3994c3.7998 -3.90039 3.7998 -10.2002 -0.0996094 -14l-117.801 -116.8c-3.89941 -3.80078 -10.1992 -3.80078 -14 0.0996094l-68.0996 68.5996c-3.7998 3.90039 -3.7998 10.2002 0.0996094 14l23.4004 23.2002
c3.90039 3.7998 10.2002 3.7998 14 -0.0996094l37.9004 -38.2002l87.2998 86.7002c3.89941 3.7998 10.2002 3.7998 14 -0.100586zM256 416c141.4 0 256 -93.0996 256 -208s-114.6 -208 -256 -208c-32.7998 0 -64 5.2002 -92.9004 14.2998
c-29.0996 -20.5996 -77.5996 -46.2998 -139.1 -46.2998c-9.59961 0 -18.2998 5.7002 -22.0996 14.5c-3.80078 8.7998 -2 19 4.59961 26c0.5 0.400391 31.5 33.7998 46.4004 73.2002c-33 35.0996 -52.9004 78.7002 -52.9004 126.3c0 114.9 114.6 208 256 208zM256 48
c114.7 0 208 71.7998 208 160s-93.2998 160 -208 160s-208 -71.7998 -208 -160c0 -42.2002 21.7002 -74.0996 39.7998 -93.4004l20.6006 -21.7998l-10.6006 -28.0996c-5.5 -14.5 -12.5996 -28.1006 -19.8994 -40.2002c23.5996 7.59961 43.1992 18.9004 57.5 29l19.5 13.7998
l22.6992 -7.2002c25.3008 -8 51.7002 -12.0996 78.4004 -12.0996z" />
    <glyph glyph-name="comment-dots" unicode="&#xf4ad;" 
d="M144 240c17.7002 0 32 -14.2998 32 -32s-14.2998 -32 -32 -32s-32 14.2998 -32 32s14.2998 32 32 32zM256 240c17.7002 0 32 -14.2998 32 -32s-14.2998 -32 -32 -32s-32 14.2998 -32 32s14.2998 32 32 32zM368 240c17.7002 0 32 -14.2998 32 -32s-14.2998 -32 -32 -32
s-32 14.2998 -32 32s14.2998 32 32 32zM256 416c141.4 0 256 -93.0996 256 -208s-114.6 -208 -256 -208c-32.7998 0 -64 5.2002 -92.9004 14.2998c-29.0996 -20.5996 -77.5996 -46.2998 -139.1 -46.2998c-9.59961 0 -18.2998 5.7002 -22.0996 14.5
c-3.80078 8.7998 -2 19 4.59961 26c0.5 0.400391 31.5 33.7998 46.4004 73.2002c-33 35.0996 -52.9004 78.7002 -52.9004 126.3c0 114.9 114.6 208 256 208zM256 48c114.7 0 208 71.7998 208 160s-93.2998 160 -208 160s-208 -71.7998 -208 -160
c0 -42.2002 21.7002 -74.0996 39.7998 -93.4004l20.6006 -21.7998l-10.6006 -28.0996c-5.5 -14.5 -12.5996 -28.1006 -19.8994 -40.2002c23.5996 7.59961 43.1992 18.9004 57.5 29l19.5 13.7998l22.6992 -7.2002c25.3008 -8 51.7002 -12.0996 78.4004 -12.0996z" />
    <glyph glyph-name="comment-edit" unicode="&#xf4ae;" 
d="M164.9 172.8l85.5 85.5l48 -48l-85.5 -85.5l-42.8008 -4.7998c-5.7998 -0.599609 -10.5996 4.2998 -10 10zM324.2 306.7l22.5996 -22.6006c7 -7 7 -18.3994 0 -25.3994l-28.2998 -28.2998l-48 48l28.2998 28.2998c7 7 18.4004 7 25.4004 0zM256 416
c141.4 0 256 -93.0996 256 -208s-114.6 -208 -256 -208c-32.7998 0 -64 5.2002 -92.9004 14.2998c-29.0996 -20.5996 -77.5996 -46.2998 -139.1 -46.2998c-9.59961 0 -18.2998 5.7002 -22.0996 14.5c-3.80078 8.7998 -2 19 4.59961 26
c0.5 0.400391 31.5 33.7998 46.4004 73.2002c-33 35.0996 -52.9004 78.7002 -52.9004 126.3c0 114.9 114.6 208 256 208zM256 48c114.7 0 208 71.7998 208 160s-93.2998 160 -208 160s-208 -71.7998 -208 -160c0 -42.2002 21.7002 -74.0996 39.7998 -93.4004
l20.6006 -21.7998l-10.6006 -28.0996c-5.5 -14.5 -12.5996 -28.1006 -19.8994 -40.2002c23.5996 7.59961 43.1992 18.9004 57.5 29l19.5 13.7998l22.6992 -7.2002c25.3008 -8 51.7002 -12.0996 78.4004 -12.0996z" />
    <glyph glyph-name="comment-exclamation" unicode="&#xf4af;" 
d="M256 160c17.7002 0 32 -14.2998 32 -32s-14.2998 -32 -32 -32s-32 14.2998 -32 32s14.2998 32 32 32zM284.7 320c10 0 17.5996 -9.09961 15.7002 -18.9004l-18 -96c-1.40039 -7.59961 -8 -13.0996 -15.7002 -13.0996h-21.4004c-7.7002 0 -14.2998 5.5 -15.7002 13.0996
l-18 96c-1.89941 9.80078 5.7002 18.9004 15.7002 18.9004h57.4004zM256 416c141.4 0 256 -93.0996 256 -208s-114.6 -208 -256 -208c-32.7998 0 -64 5.2002 -92.9004 14.2998c-29.0996 -20.5996 -77.5996 -46.2998 -139.1 -46.2998
c-9.59961 0 -18.2998 5.7002 -22.0996 14.5c-3.80078 8.7998 -2 19 4.59961 26c0.5 0.400391 31.5 33.7998 46.4004 73.2002c-33 35.0996 -52.9004 78.7002 -52.9004 126.3c0 114.9 114.6 208 256 208zM256 48c114.7 0 208 71.7998 208 160s-93.2998 160 -208 160
s-208 -71.7998 -208 -160c0 -42.2002 21.7002 -74.0996 39.7998 -93.4004l20.6006 -21.7998l-10.6006 -28.0996c-5.5 -14.5 -12.5996 -28.1006 -19.8994 -40.2002c23.5996 7.59961 43.1992 18.9004 57.5 29l19.5 13.7998l22.6992 -7.2002
c25.3008 -8 51.7002 -12.0996 78.4004 -12.0996z" />
    <glyph glyph-name="comment-lines" unicode="&#xf4b0;" 
d="M368 280c8.7998 0 16 -7.2002 16 -16v-16c0 -8.7998 -7.2002 -16 -16 -16h-224c-8.7998 0 -16 7.2002 -16 16v16c0 8.7998 7.2002 16 16 16h224zM272 184c8.7998 0 16 -7.2002 16 -16v-16c0 -8.7998 -7.2002 -16 -16 -16h-128c-8.7998 0 -16 7.2002 -16 16v16
c0 8.7998 7.2002 16 16 16h128zM256 416c141.4 0 256 -93.0996 256 -208s-114.6 -208 -256 -208c-32.7998 0 -64 5.2002 -92.9004 14.2998c-29.0996 -20.5996 -77.5996 -46.2998 -139.1 -46.2998c-9.59961 0 -18.2998 5.7002 -22.0996 14.5
c-3.80078 8.7998 -2 19 4.59961 26c0.5 0.400391 31.5 33.7998 46.4004 73.2002c-33 35.0996 -52.9004 78.7002 -52.9004 126.3c0 114.9 114.6 208 256 208zM256 48c114.7 0 208 71.7998 208 160s-93.2998 160 -208 160s-208 -71.7998 -208 -160
c0 -42.2002 21.7002 -74.0996 39.7998 -93.4004l20.6006 -21.7998l-10.6006 -28.0996c-5.5 -14.5 -12.5996 -28.1006 -19.8994 -40.2002c23.5996 7.59961 43.1992 18.9004 57.5 29l19.5 13.7998l22.6992 -7.2002c25.3008 -8 51.7002 -12.0996 78.4004 -12.0996z" />
    <glyph glyph-name="comment-minus" unicode="&#xf4b1;" 
d="M336 232c8.7998 0 16 -7.2002 16 -16v-16c0 -8.7998 -7.2002 -16 -16 -16h-160c-8.7998 0 -16 7.2002 -16 16v16c0 8.7998 7.2002 16 16 16h160zM256 416c141.4 0 256 -93.0996 256 -208s-114.6 -208 -256 -208c-32.7998 0 -64 5.2002 -92.9004 14.2998
c-29.0996 -20.5996 -77.5996 -46.2998 -139.1 -46.2998c-9.59961 0 -18.2998 5.7002 -22.0996 14.5c-3.80078 8.7998 -2 19 4.59961 26c0.5 0.400391 31.5 33.7998 46.4004 73.2002c-33 35.0996 -52.9004 78.7002 -52.9004 126.3c0 114.9 114.6 208 256 208zM256 48
c114.7 0 208 71.7998 208 160s-93.2998 160 -208 160s-208 -71.7998 -208 -160c0 -42.2002 21.7002 -74.0996 39.7998 -93.4004l20.6006 -21.7998l-10.6006 -28.0996c-5.5 -14.5 -12.5996 -28.1006 -19.8994 -40.2002c23.5996 7.59961 43.1992 18.9004 57.5 29l19.5 13.7998
l22.6992 -7.2002c25.3008 -8 51.7002 -12.0996 78.4004 -12.0996z" />
    <glyph glyph-name="comment-plus" unicode="&#xf4b2;" 
d="M336 232c8.7998 0 16 -7.2002 16 -16v-16c0 -8.7998 -7.2002 -16 -16 -16h-56v-56c0 -8.7998 -7.2002 -16 -16 -16h-16c-8.7998 0 -16 7.2002 -16 16v56h-56c-8.7998 0 -16 7.2002 -16 16v16c0 8.7998 7.2002 16 16 16h56v56c0 8.7998 7.2002 16 16 16h16
c8.7998 0 16 -7.2002 16 -16v-56h56zM256 416c141.4 0 256 -93.0996 256 -208s-114.6 -208 -256 -208c-32.7998 0 -64 5.2002 -92.9004 14.2998c-29.0996 -20.5996 -77.5996 -46.2998 -139.1 -46.2998c-9.59961 0 -18.2998 5.7002 -22.0996 14.5
c-3.80078 8.7998 -2 19 4.59961 26c0.5 0.400391 31.5 33.7998 46.4004 73.2002c-33 35.0996 -52.9004 78.7002 -52.9004 126.3c0 114.9 114.6 208 256 208zM256 48c114.7 0 208 71.7998 208 160s-93.2998 160 -208 160s-208 -71.7998 -208 -160
c0 -42.2002 21.7002 -74.0996 39.7998 -93.4004l20.6006 -21.7998l-10.6006 -28.0996c-5.5 -14.5 -12.5996 -28.1006 -19.8994 -40.2002c23.5996 7.59961 43.1992 18.9004 57.5 29l19.5 13.7998l22.6992 -7.2002c25.3008 -8 51.7002 -12.0996 78.4004 -12.0996z" />
    <glyph glyph-name="comment-slash" unicode="&#xf4b3;" horiz-adv-x="640" 
d="M320 368c-31.7002 0 -61.5996 -5.59961 -88.5 -15.4004l-43 33.6006c38.5 18.7998 83.2998 29.7998 131.5 29.7998c141.4 0 256 -93.0996 256 -208c0 -36.2998 -11.5 -70.4004 -31.5996 -100l-37.9004 29.5996c13.5996 21.3008 21.5 45.1006 21.5 70.4004
c0 88.2002 -93.2998 160 -208 160zM320 48c20.4004 0 40.2002 2.40039 58.9004 6.7002l46.1992 -36.2002c-32.0996 -11.7998 -67.5996 -18.5 -105.1 -18.5c-32.7998 0 -64 5.2002 -92.9004 14.2998c-29.0996 -20.5996 -77.5996 -46.2998 -139.1 -46.2998
c-9.59961 0 -18.2998 5.7002 -22.0996 14.5c-3.80078 8.7998 -2 19 4.59961 26c0.5 0.400391 31.5 33.7998 46.4004 73.2002c-33 35.0996 -52.9004 78.7002 -52.9004 126.3c0 27.5996 6.7998 53.9004 18.7998 78l38.7002 -30.2002
c-6.2002 -15.0996 -9.5 -31.2002 -9.5 -47.7998c0 -42.2002 21.7002 -74.0996 39.7998 -93.4004l20.6006 -21.7998l-10.6006 -28.0996c-5.5 -14.5 -12.5996 -28.1006 -19.8994 -40.2002c23.5996 7.59961 43.1992 18.9004 57.5 29l19.5 13.7998l22.6992 -7.2002
c25.3008 -8 51.7002 -12.0996 78.4004 -12.0996zM634 -23c6.90039 -5.5 8 -15.5996 2.5 -22.5l-10 -12.5c-5.5 -6.90039 -15.5996 -8 -22.5 -2.5l-598 467.5c-6.90039 5.5 -8 15.5996 -2.5 22.5l10 12.5c5.5 6.90039 15.5996 8 22.5 2.5l438.8 -343l6.7998 -5.2998z" />
    <glyph glyph-name="comment-smile" unicode="&#xf4b4;" 
d="M325.8 175.8c8.60059 10.1006 23.7002 11.2998 33.7002 2.7002c10.0996 -8.59961 11.2998 -23.7002 2.7002 -33.7998c-26.4004 -30.9004 -65.1006 -48.7002 -106.2 -48.7002s-79.7998 17.7002 -106.3 48.7002c-8.5 10 -7.40039 25.2002 2.7002 33.7998
c10 8.5 25.1992 7.40039 33.7998 -2.7002c17.2998 -20.2002 42.7002 -31.7998 69.7998 -31.7998s52.5 11.5996 69.7998 31.7998zM192 224c-17.7002 0 -32 14.2998 -32 32s14.2998 32 32 32s32 -14.2998 32 -32s-14.2998 -32 -32 -32zM320 224c-17.7002 0 -32 14.2998 -32 32
s14.2998 32 32 32s32 -14.2998 32 -32s-14.2998 -32 -32 -32zM256 416c141.4 0 256 -93.0996 256 -208s-114.6 -208 -256 -208c-32.7998 0 -64 5.2002 -92.9004 14.2998c-29.0996 -20.5996 -77.5996 -46.2998 -139.1 -46.2998c-9.59961 0 -18.2998 5.7002 -22.0996 14.5
c-3.80078 8.7998 -2 19 4.59961 26c0.5 0.400391 31.5 33.7998 46.4004 73.2002c-33 35.0996 -52.9004 78.7002 -52.9004 126.3c0 114.9 114.6 208 256 208zM256 48c114.7 0 208 71.7998 208 160s-93.2998 160 -208 160s-208 -71.7998 -208 -160
c0 -42.2002 21.7002 -74.0996 39.7998 -93.4004l20.6006 -21.7998l-10.6006 -28.0996c-5.5 -14.5 -12.5996 -28.1006 -19.8994 -40.2002c23.5996 7.59961 43.1992 18.9004 57.5 29l19.5 13.7998l22.6992 -7.2002c25.3008 -8 51.7002 -12.0996 78.4004 -12.0996z" />
    <glyph glyph-name="comment-times" unicode="&#xf4b5;" 
d="M329.5 270.2c6.2998 -6.2002 6.2998 -16.4004 0 -22.6006l-39.5996 -39.5996l39.5996 -39.5996c6.2002 -6.2002 6.2002 -16.4004 0 -22.6006l-11.2998 -11.2998c-6.2002 -6.2002 -16.4004 -6.2002 -22.6006 0l-39.5996 39.5996l-39.5996 -39.5996
c-6.2002 -6.2002 -16.4004 -6.2002 -22.6006 0l-11.2998 11.2998c-6.2002 6.2002 -6.2002 16.4004 0 22.6006l39.5996 39.5996l-39.5996 39.5996c-6.2002 6.2002 -6.2002 16.4004 0 22.6006l11.2998 11.2998c6.2002 6.2002 16.4004 6.2002 22.6006 0l39.5996 -39.5996
l39.5996 39.5996c6.2002 6.2002 16.4004 6.2002 22.6006 0zM256 416c141.4 0 256 -93.0996 256 -208s-114.6 -208 -256 -208c-32.7998 0 -64 5.2002 -92.9004 14.2998c-29.0996 -20.5996 -77.5996 -46.2998 -139.1 -46.2998c-9.59961 0 -18.2998 5.7002 -22.0996 14.5
c-3.80078 8.7998 -2 19 4.59961 26c0.5 0.400391 31.5 33.7998 46.4004 73.2002c-33 35.0996 -52.9004 78.7002 -52.9004 126.3c0 114.9 114.6 208 256 208zM256 48c114.7 0 208 71.7998 208 160s-93.2998 160 -208 160s-208 -71.7998 -208 -160
c0 -42.2002 21.7002 -74.0996 39.7998 -93.4004l20.6006 -21.7998l-10.6006 -28.0996c-5.5 -14.5 -12.5996 -28.1006 -19.8994 -40.2002c23.5996 7.59961 43.1992 18.9004 57.5 29l19.5 13.7998l22.6992 -7.2002c25.3008 -8 51.7002 -12.0996 78.4004 -12.0996z" />
    <glyph glyph-name="comments-alt" unicode="&#xf4b6;" horiz-adv-x="576" 
d="M512 288c35.2998 0 64 -28.7002 64 -64v-160c0 -35.2998 -28.7002 -64 -64 -64h-32v-52c0 -7.09961 -5.7998 -12 -12 -12c-2.40039 0 -4.90039 0.799805 -7.09961 2.40039l-108.9 61.5996h-96c-35.2998 0 -64 28.7002 -64 64v77.9004l-76.9004 -43.5
c-2.19922 -1.7002 -4.69922 -2.40039 -7.09961 -2.40039c-6.2002 0 -12 4.90039 -12 12v52h-32c-35.2998 0 -64 28.7002 -64 64v160c0 35.2998 28.7002 64 64 64h288c35.2998 0 64 -28.7002 64 -64v-96h96zM96 208h48v-38.0996l56.4004 31.8994l11 6.2002h140.6
c8.7998 0 16 7.2002 16 16v160c0 8.7998 -7.2002 16 -16 16h-288c-8.7998 0 -16 -7.2002 -16 -16v-160c0 -8.7998 7.2002 -16 16 -16h32zM528 64v160c0 8.7998 -7.2002 16 -16 16h-96v-16c0 -35.2998 -28.7002 -64 -64 -64h-112v-96c0 -8.7998 7.2002 -16 16 -16h108.6
l11 -6.2002l56.4004 -31.8994v38.0996h80c8.7998 0 16 7.2002 16 16z" />
    <glyph glyph-name="container-storage" unicode="&#xf4b7;" horiz-adv-x="640" 
d="M640 384c0 -8.7998 -7.2002 -16 -16 -16v-352c8.7998 0 16 -7.2002 16 -16v-16c0 -8.7998 -7.2002 -16 -16 -16h-608c-8.7998 0 -16 7.2002 -16 16v16c0 8.7998 7.2002 16 16 16v352c-8.7998 0 -16 7.2002 -16 16v16c0 8.7998 7.2002 16 16 16h608
c8.7998 0 16 -7.2002 16 -16v-16zM576 16v352h-512v-352h512zM136 64c-4.40039 0 -8 3.59961 -8 8v240c0 4.40039 3.59961 8 8 8h32c4.40039 0 8 -3.59961 8 -8v-240c0 -4.40039 -3.59961 -8 -8 -8h-32zM360 64c-4.40039 0 -8 3.59961 -8 8v240c0 4.40039 3.59961 8 8 8h32
c4.40039 0 8 -3.59961 8 -8v-240c0 -4.40039 -3.59961 -8 -8 -8h-32zM472 64c-4.40039 0 -8 3.59961 -8 8v240c0 4.40039 3.59961 8 8 8h32c4.40039 0 8 -3.59961 8 -8v-240c0 -4.40039 -3.59961 -8 -8 -8h-32zM248 64c-4.40039 0 -8 3.59961 -8 8v240
c0 4.40039 3.59961 8 8 8h32c4.40039 0 8 -3.59961 8 -8v-240c0 -4.40039 -3.59961 -8 -8 -8h-32z" />
    <glyph glyph-name="couch" unicode="&#xf4b8;" horiz-adv-x="640" 
d="M576 251.4c34.5996 -10.7002 60.9004 -40.3008 63.7002 -76.4004c2.2998 -29.0996 -9.7002 -56.5 -31.7002 -74.5996v-92.4004c0 -22.0996 -17.9004 -40 -40 -40h-88c-3.90039 0 -30.5 1.2002 -31.9004 32h-256.199c-1.7002 -31.0996 -27.9004 -32 -31.9004 -32h-88
c-22.0996 0 -40 17.9004 -40 40v92.4004c-22.0996 18.0996 -34 45.5996 -31.7002 74.5996c2.7998 36.0996 29.1006 65.7002 63.7002 76.4004v68.5996c0 53 43 96 96 96h320c53 0 96 -43 96 -96v-68.5996zM144 16v152c0 22.0996 -17.9004 40 -40 40h-12
c-22.5996 0 -42.2998 -16.5 -43.7998 -36.7002c-1.2002 -15.2998 6.39941 -29.7998 19.8994 -37.5996l11.9004 -7v-110.7h64zM448 144h-256v-96h256v96zM451.7 192c9.7998 34.2998 39.7002 59.7998 76.2998 63.2002v64.7998c0 26.5 -21.5 48 -48 48h-320
c-26.5 0 -48 -21.5 -48 -48v-64.7998c36.5 -3.40039 66.4004 -28.9004 76.2002 -63.2002h263.5zM571.9 133.6c13.5 7.90039 21.0996 22.3008 20 37.6006c-1.60059 20.2998 -21.3008 36.7998 -43.9004 36.7998h-12c-22.0996 0 -40 -17.9004 -40 -40v-152h64v110.6z" />
    <glyph glyph-name="donate" unicode="&#xf4b9;" 
d="M225.6 215.7c-22.2998 6.39941 -40 24.7002 -42.8994 47.7002c-4.10059 32 19 59.3994 49.2998 63v17.5996c0 8.7998 7.2002 16 16 16h16c8.7998 0 16 -7.2002 16 -16v-17.7002c11.4004 -1.39941 22.2998 -5.2002 31.7998 -11.5
c6.2002 -4.09961 6.7998 -13.0996 1.5 -18.3994l-17.5 -17.5c-3.7002 -3.7002 -9.2998 -4.2002 -14.0996 -2c-3.2002 1.39941 -6.7002 2.19922 -10.2998 2.19922h-32.8008c-4.59961 0 -8.39941 -3.7998 -8.39941 -8.39941c0 -3.7002 2.5 -7.10059 6.09961 -8.10059
l50.1006 -14.2998c22.1992 -6.39941 40 -24.7002 42.8994 -47.7002c4.10059 -32 -19 -59.3994 -49.2998 -63v-17.5996c0 -8.7998 -7.2002 -16 -16 -16h-16c-8.7998 0 -16 7.2002 -16 16v17.7002c-11.4004 1.39941 -22.2998 5.2002 -31.7998 11.5
c-6.2002 4.09961 -6.7998 13.0996 -1.5 18.3994l17.5 17.5c3.7002 3.7002 9.2998 4.2002 14.0996 2c3.2002 -1.39941 6.7002 -2.19922 10.2998 -2.19922h32.8008c4.59961 0 8.39941 3.7998 8.39941 8.39941c0 3.7002 -2.5 7.10059 -6.09961 8.10059zM480 128
c17.7002 0 32 -17.2002 32 -38.4004v-115.199c0 -21.2002 -14.2998 -38.4004 -32 -38.4004h-448c-17.7002 0 -32 17.2002 -32 38.4004v115.199c0 21.2002 14.2998 38.4004 32 38.4004h34.7002c-17 30.9004 -26.7002 66.2998 -26.7002 104c0 119.3 96.7002 216 216 216
s216 -96.7002 216 -216c0 -37.7002 -9.7002 -73.0996 -26.7002 -104h34.7002zM256 400c-92.5996 0 -168 -75.4004 -168 -168s75.4004 -168 168 -168s168 75.4004 168 168s-75.4004 168 -168 168zM464 -16v96h-54.5996c-12.2002 -12.2998 -25.9004 -22.9004 -40.7002 -32
h39.2998c4.40039 0 8 -3.59961 8 -8v-16c0 -4.40039 -3.59961 -8 -8 -8h-304c-4.40039 0 -8 3.59961 -8 8v16c0 4.40039 3.59961 8 8 8h39.2998c-14.7998 9.09961 -28.5 19.7002 -40.7002 32h-54.5996v-96h416z" />
    <glyph glyph-name="fragile" unicode="&#xf4bb;" horiz-adv-x="288" 
d="M200 -16c37.0996 0 50 -48 31.9004 -48h-175.801c-18 0 -5.19922 48 32 48h31.9004v114.6c-72.7002 12.4004 -126.3 79.5 -119.4 156.7l16 178.101c0.700195 8.2998 7.5 14.5996 15.7002 14.5996h223.4c8.2002 0 15 -6.2998 15.7002 -14.5996l16 -178.101
c6.89941 -77.2002 -46.7002 -144.3 -119.4 -156.7v-114.6h32zM72.5996 176c18.5 -20.7002 43.9004 -32 71.4004 -32s52.9004 11.4004 71.4004 32s27.3994 47.2002 24.8994 75l-13.2998 149h-43.7998l24.7998 -50l-69.4004 -44l40.1006 -82l-98.7002 94l69.4004 44
l-26.6006 38h-61.7002l-13.3994 -149c-2.5 -27.7002 6.39941 -54.4004 24.8994 -75z" />
    <glyph glyph-name="hand-heart" unicode="&#xf4bc;" horiz-adv-x="480" 
d="M408 336c39.7002 0 72 -32.2998 71.9004 -72v-88.2998c0 -24.2002 -2.40039 -48.5 -7.10059 -72.2002l-20.5996 -103.2c-7.5 -37.2998 -40.5 -64.2998 -78.5 -64.2998h-180.601c-26.7998 0 -51.6992 13.2998 -66.5996 35.7002l-113.5 171
c-22.7998 32.5 -14.7998 77.5 17.7002 100.3c27.2002 19.0996 54.7998 12.5996 65.2998 8.90039v92.0996c0 39.7002 32.2998 72 72 72c6.40039 0 12.7002 -0.799805 18.5996 -2.40039c12.7002 20.6006 35.5 34.4004 61.4004 34.4004s48.7002 -13.7998 61.4004 -34.4004
c5.89941 1.60059 12.1992 2.40039 18.5996 2.40039c39.7002 0 72 -32.2998 72 -72v-8.40039c2.59961 0.200195 5.2998 0.400391 8 0.400391zM432 175.7v88.2998c0 31.7002 -48 31.7998 -48 0v-64c0 -4.40039 -3.59961 -8 -8 -8h-16c-4.40039 0 -8 3.59961 -8 8v144
c0 31.7002 -48 31.7998 -48 0v-144c0 -4.40039 -3.59961 -8 -8 -8h-16c-4.40039 0 -8 3.59961 -8 8v176c0 31.7002 -48 31.7998 -48 0v-176c0 -4.40039 -3.59961 -8 -8 -8h-16c-4.40039 0 -8 3.59961 -8 8v144c0 31.7002 -48 31.7998 -48 0v-196.1
c0 -7.80078 -10.0996 -11.1006 -14.5996 -4.60059l-37.8008 54.4004c-18.5996 26.5996 -57.2998 -1.7998 -39.2998 -27.5l114.101 -171.9c6 -8.89941 16 -14.2998 26.6992 -14.2998h180.7c15.2998 0 28.4004 10.7002 31.4004 25.7002l20.5996 103.2
c4.10059 20.6992 6.2002 41.6992 6.2002 62.7998zM336.5 151.2c19.5996 -15.2998 20.5996 -42.7998 3 -59.4004l-60.5 -57.0996c-3.90039 -3.7002 -10.2002 -3.7002 -14.0996 0l-60.5 57.0996c-17.6006 16.6006 -16.5 44.1006 3.09961 59.4004
c19.7998 15.3994 45.5 8.09961 58.2998 -3.90039l6.2002 -5.7998l6.2002 5.7998c13.0996 12.4004 38.7002 19.2002 58.2998 3.90039z" />
    <glyph glyph-name="hand-holding" unicode="&#xf4bd;" horiz-adv-x="576" 
d="M551.9 136c15.8994 -13.5 24.6992 -33.0996 24 -53.5996c-0.600586 -20.5 -10.5 -39.5 -27.1006 -52l-100.8 -75.9004c-15.9004 -12 -35.2998 -18.5 -55.2002 -18.5h-376.8c-8.7998 0 -16 7.2002 -16 16v16c0 8.7998 7.2002 16 16 16h376.5
c9.7002 0 19.0996 3.2002 26.9004 9l100.6 75.5c10.2002 7.59961 11 22.2002 0.900391 30.7002c-7.90039 6.7002 -20.1006 6.2002 -28.4004 0l-61.2998 -46.1006c-7.7002 -5.7998 -17.2002 -9 -26.9004 -9h-134.5c-7.59961 0 -13.7998 6.2002 -13.7998 13.8008v0.0996094
c0 7.59961 6.2002 13.7998 13.7998 13.7998h59.7998c30.2002 0 29 40.2002 1.10059 40.2002h-144c-18 0 -35.4004 -5.7998 -49.4004 -16.5l-41.2998 -31.5h-80c-8.7998 0 -16 7.2002 -16 16v16c0 8.7998 7.2002 16 16 16h63.7998l28.2998 21.7998
c22.2002 16.9004 50.1006 26.2998 78.5 26.2998h144c38.7002 0 69 -29.7998 69.2002 -67.7998h3.2998l60.4004 45.5c19.0996 14.2998 57.2998 24.6006 88.4004 -1.7998z" />
    <glyph glyph-name="hand-holding-heart" unicode="&#xf4be;" horiz-adv-x="576" 
d="M266.8 200.9l-98.5996 102c-30.1006 31.0996 -36.4004 90.0996 6 126.3c38.2998 32.7998 89 17.7998 113.8 -7.7998c24.7998 25.5996 75.5 40.5996 113.9 7.7998c42.3994 -36.2002 36.0996 -95.2002 6 -126.3l-98.7002 -102
c-9.90039 -10.2002 -29.4004 -13.4004 -42.4004 0zM204.5 392.4c-18.7998 -16.1006 -15.7002 -42.4004 -2.59961 -55.8008l86.0996 -89.0996l86.0996 89.0996c13 13.5 16.2002 39.8008 -2.69922 55.9004c-14 12 -36.1006 9 -49.3008 -4.7002l-34.0996 -35.3994
l-34.2002 35.2998c-13.2002 13.7002 -35.2002 16.7002 -49.2998 4.7002zM551.9 136c15.8994 -13.5 24.6992 -33.0996 24 -53.5996c-0.600586 -20.5 -10.5 -39.5 -27.1006 -52l-100.8 -75.9004c-15.9004 -12 -35.2998 -18.5 -55.2002 -18.5h-376.8
c-8.7998 0 -16 7.2002 -16 16v16c0 8.7998 7.2002 16 16 16h376.5c9.7002 0 19.0996 3.2002 26.9004 9l100.6 75.5c10.2002 7.59961 11 22.2002 0.900391 30.7002c-7.90039 6.7002 -20.1006 6.2002 -28.4004 0l-61.2998 -46.1006c-7.7002 -5.7998 -17.2002 -9 -26.9004 -9
h-134.5c-7.59961 0 -13.7998 6.2002 -13.7998 13.8008v0.0996094c0 7.59961 6.2002 13.7998 13.7998 13.7998h59.7998c30.2002 0 29 40.2002 1.10059 40.2002h-144c-18 0 -35.4004 -5.7998 -49.4004 -16.5l-41.2998 -31.5h-80c-8.7998 0 -16 7.2002 -16 16v16
c0 8.7998 7.2002 16 16 16h63.7998l28.2998 21.7998c22.2002 16.9004 50.1006 26.2998 78.5 26.2998h144c38.7002 0 69 -29.7998 69.2002 -67.7998h3.2998l60.4004 45.5c19.0996 14.2998 57.2998 24.6006 88.4004 -1.7998z" />
    <glyph glyph-name="hand-holding-seedling" unicode="&#xf4bf;" horiz-adv-x="576" 
d="M250.7 256c-85.2998 0 -154.7 75.4004 -154.7 168v24h61.2998c55.2002 0 103.3 -31.7002 130.7 -79c27.4004 47.2998 75.5 79 130.7 79h61.2998v-24c0 -92.5996 -69.4004 -168 -154.7 -168h-13.2998v-48c0 -8.7998 -7.2002 -16 -16 -16h-16c-8.7998 0 -16 7.2002 -16 16
v48h-13.2998zM418.7 400c-51.5 0 -94.6006 -41.2998 -104.5 -96h11.2002c51.5 0 94.5996 41.2998 104.5 96h-11.2002zM157.3 400h-11.2002c9.90039 -54.7002 53 -96 104.5 -96h11.2002c-9.89941 54.7002 -53 96 -104.5 96zM551.9 136
c15.8994 -13.5 24.6992 -33.0996 24 -53.5996c-0.600586 -20.5 -10.5 -39.5 -27.1006 -52l-100.8 -75.9004c-15.9004 -12 -35.2998 -18.5 -55.2002 -18.5h-376.8c-8.7998 0 -16 7.2002 -16 16v16c0 8.7998 7.2002 16 16 16h376.5c9.7002 0 19.0996 3.2002 26.9004 9
l100.6 75.5c10.2002 7.59961 11 22.2002 0.900391 30.7002c-7.90039 6.7002 -20.1006 6.2002 -28.4004 0l-61.2998 -46.1006c-7.7002 -5.7998 -17.2002 -9 -26.9004 -9h-134.5c-7.59961 0 -13.7998 6.2002 -13.7998 13.8008v0.0996094
c0 7.59961 6.2002 13.7998 13.7998 13.7998h59.7998c30.2002 0 29 40.2002 1.10059 40.2002h-144c-18 0 -35.4004 -5.7998 -49.4004 -16.5l-41.2998 -31.5h-80c-8.7998 0 -16 7.2002 -16 16v16c0 8.7998 7.2002 16 16 16h63.7998l28.2998 21.7998
c22.2002 16.9004 50.1006 26.2998 78.5 26.2998h144c38.7002 0 69 -29.7998 69.2002 -67.7998h3.2998l60.4004 45.5c19.0996 14.2998 57.2998 24.6006 88.4004 -1.7998z" />
    <glyph glyph-name="hands" unicode="&#xf4c2;" horiz-adv-x="640" 
d="M572.9 351.8c38.2998 -2.5 67.0996 -36 67.0996 -74.2998v-191.4c0 -25.3994 -8.7002 -50.1992 -24.5 -70l-58.7002 -74c-3 -3.89941 -7.59961 -6.09961 -12.5 -6.09961h-16.2998c-8.7998 0 -16 7.2002 -16 16v11.5996l66 82.5c9.09961 11.3008 14 25.4004 14 39.9004
v193.1c0 11.6006 -7.7998 22.2002 -19.2002 24.4004c-15.3994 3 -28.7998 -8.7002 -28.7998 -23.5c0 0 -0.200195 -101 -0.0996094 -132.7c-0.100586 -7.59961 -2.80078 -14.7998 -7.80078 -20.5996l-76.5 -92.6006c-4.39941 -5.2998 -10.6992 -8 -17 -8
c-5.89941 0 -11.6992 2.30078 -16.0996 7c-7.40039 7.90039 -7.2998 20.4004 -0.799805 29.2002l49.5 67c8.09961 10.6006 6.09961 25.6006 -4.40039 33.7002c-4.39941 3.40039 -9.5 5 -14.5996 5c-7.2002 0 -14.4004 -3.2998 -19.1006 -9.40039l-71.6992 -93.1992
c-8.60059 -11.2002 -13.3008 -24.9004 -13.3008 -39v-74.4004c0 -8.7998 -7.19922 -16 -16 -16h-32c-8.7998 0 -16 7.2002 -16 16v74.5c0 14.0996 -4.69922 27.7998 -13.2998 39l-71.7002 93.2002c-4.7998 6.2002 -11.8994 9.39941 -19.0996 9.39941
c-5.09961 0 -10.2002 -1.59961 -14.5996 -5c-10.5 -8.09961 -12.5 -23.1992 -4.40039 -33.6992l49.5 -67c6.5 -8.80078 6.7002 -21.3008 -0.799805 -29.2002c-4.40039 -4.7002 -10.2998 -7 -16.1006 -7c-6.2998 0 -12.5996 2.7002 -17 8l-76.5 92.5996
c-5 5.7998 -7.7998 13 -7.7998 20.6006c-0.0996094 31.5996 -0.299805 132.6 -0.299805 132.6c0 14.7998 -13.5 26.5 -28.7998 23.5c-11.4004 -2.09961 -19.2002 -12.7998 -19.2002 -24.4004v-193.1c0 -14.5996 4.90039 -28.7002 14 -40l66 -82.5v-11.5996
c0 -8.80078 -7.2002 -16 -16 -16h-16.2998c-4.7998 0 -9.5 2.2998 -12.5 6.09961l-58.7002 74c-15.7998 19.7998 -24.5 44.7002 -24.5 70v191.5c0 38.2998 28.7998 71.7998 67.0996 74.2998c41.9004 2.7998 76.9004 -30.5 76.9004 -71.7998
c0 0 0.0996094 -38.9004 0.200195 -76c11.7002 7.7002 25.7002 12 39.7998 12c22.4004 0 43.2002 -10.2002 57 -28l71.7998 -93.2998c2.7002 -3.5 4.90039 -7.40039 7.2002 -11.2002c2.2002 3.7998 4.5 7.7002 7.2002 11.2002l71.7998 93.2998
c13.7002 17.7998 34.5 28 57 28c14.0996 0 28.0996 -4.2002 39.7998 -12c0.100586 37 0.200195 76 0.200195 76c0 41.2998 35 74.5996 76.9004 71.7998z" />
    <glyph glyph-name="hands-heart" unicode="&#xf4c3;" horiz-adv-x="640" 
d="M298.8 200.9l-98.5996 102c-30.1006 31.0996 -36.4004 90.0996 6 126.3c38.2998 32.7998 89 17.7998 113.8 -7.7998c24.7998 25.5996 75.5 40.5996 113.9 7.7998c42.3994 -36.2002 36.0996 -95.2002 6 -126.3l-98.7002 -102c-6.2998 -6.5 -13.9004 -9 -21.2002 -8.90039
c-7.40039 0 -14.9004 2.40039 -21.2002 8.90039zM236.5 392.4c-18.7998 -16.1006 -15.7002 -42.4004 -2.59961 -55.8008l86.0996 -89.0996l86.0996 89.0996c13 13.5 16.2002 39.8008 -2.69922 55.9004c-14 12 -36.1006 9 -49.3008 -4.7002l-34.0996 -35.3994
l-34.2002 35.2998c-13.2002 13.7002 -35.2002 16.7002 -49.2998 4.7002zM572.9 351.8c38.2998 -2.5 67.0996 -36 67.1992 -74.2998v-191.3c0 -25.4004 -8.69922 -50.2002 -24.5 -70l-58.6992 -74c-3 -3.90039 -7.60059 -6.10059 -12.5 -6.10059h-16.3008
c-8.7998 0 -16 7.2002 -16 16c0 7.5 2.5 14.7002 7.2002 20.6006l58.7002 73.3994c9.09961 11.3008 14 25.4004 14 39.9004v193.1c0 11.6006 -7.7998 22.2002 -19.2002 24.4004c-15.3994 3 -28.7998 -8.7002 -28.7998 -23.5c0 0 -0.200195 -101 -0.0996094 -132.7
c-0.100586 -7.59961 -2.80078 -14.7998 -7.80078 -20.5996l-76.5 -92.6006c-17.6992 -21.3994 -52.2998 3.30078 -33.8994 28.2002l49.5 67c8.09961 10.6006 6.09961 25.6006 -4.40039 33.7002c-10.7998 8.2998 -25.7998 5.7998 -33.7002 -4.40039l-71.6992 -93.1992
c-8.60059 -11.2002 -13.3008 -24.9004 -13.3008 -39v-74.4004c0 -8.7998 -7.19922 -16 -16 -16h-32c-8.7998 0 -16 7.2002 -16 16v74.5c0 14.0996 -4.69922 27.7998 -13.2998 39l-71.7002 93.2002c-7.89941 10.2002 -22.8994 12.7998 -33.6992 4.39941
c-10.5 -8.09961 -12.5 -23.1992 -4.40039 -33.6992l49.5 -67c18.2998 -24.9004 -16.2002 -49.6006 -33.9004 -28.2002l-76.5 92.5996c-5 5.7998 -7.7998 13 -7.7998 20.6006c-0.0996094 31.5996 -0.299805 132.6 -0.299805 132.6c0 14.7998 -13.5 26.5 -28.7998 23.5
c-11.4004 -2.09961 -19.2002 -12.7998 -19.2002 -24.4004v-193.1c0 -14.5996 4.90039 -28.7002 14 -40l58.7998 -73.5c4.60059 -5.7998 7.2002 -13.0996 7.2002 -20.5996c0 -8.80078 -7.2002 -16 -16 -16h-16.2998c-4.7998 0 -9.5 2.2998 -12.5 6.09961l-58.7002 74
c-15.7998 19.7998 -24.5 44.7002 -24.5 70v191.5c0 38.2998 28.7998 71.7998 67.0996 74.2998c41.9004 2.7998 76.9004 -30.5 76.9004 -71.7998c0 0 0.0996094 -38.9004 0.200195 -76c29.3994 19.5 72.2002 15.9004 96.7998 -16l71.7998 -93.2998
c2.7002 -3.5 4.90039 -7.40039 7.2002 -11.2002c2.2002 3.7998 4.5 7.7002 7.2002 11.2002l71.7998 93.2998c24.2998 31.5 67 35.7998 96.7998 16c0.100586 37 0.200195 76 0.200195 76c0 41.2998 35 74.5996 76.9004 71.7998z" />
    <glyph glyph-name="hands-helping" unicode="&#xf4c4;" horiz-adv-x="640" 
d="M637.9 244.1c4.39941 -7.69922 1.7998 -17.3994 -5.90039 -21.8994l-122.9 -71.5c-5.59961 -17.4004 -19.5 -31.1006 -37.0996 -36.4004v-14.2998c0 -34.4004 -23.2002 -63.5996 -54.7002 -72.7998c-9.2998 -34.1006 -40.5 -59.2002 -77.3994 -59.2002h-115.801
l-51.5996 -29.9004c-7.7002 -4.39941 -17.5 -1.7998 -21.9004 5.90039l-8 13.9004c-4.39941 7.69922 -1.7998 17.5 5.90039 21.8994l62.7998 36.2998h128.601c17.7998 0 32.1992 14.4004 32.1992 32.2002v24h24.1006c15.2998 0 27.7998 12.4004 27.7998 27.7998v60h32
c4.40039 0 8 3.60059 8 8v32c0 4.40039 -3.59961 8 -8 8h-104v-16c0 -46.8994 -40.4004 -84.5 -88.2998 -79.5996c-41.7002 4.2002 -71.7002 42.5 -71.7002 84.2998v42.2002l-32.4004 -19.5996c-9.69922 -5.80078 -15.5996 -16.3008 -15.5996 -27.6006v-61.7998
l-112 -64.7002c-7.7002 -4.39941 -17.5 -1.7998 -21.9004 5.90039l-8 13.8994c-4.39941 7.7002 -1.7998 17.5 5.90039 21.9004l88 50.7998v34.1006c0 28.1992 14.7998 54.2998 38.9004 68.7998l59.3994 35.5996c4.60059 20.4004 16.9004 38.4004 35.2002 49.7998
l33.5 20.9004c17.7998 11.0996 38.2998 17 59.2998 17h92.7002l108.7 62c7.7002 4.40039 17.3994 1.7002 21.7998 -6l7.90039 -13.9004c4.39941 -7.69922 1.69922 -17.3994 -6 -21.7998l-119.801 -68.2002h-105.3c-12 0 -23.7002 -3.2998 -33.8994 -9.69922
l-33.4004 -20.9004c-9.2998 -5.7998 -15 -16.0996 -15 -27.0996v-86.3008c0 -17.5996 14.2998 -32 32 -32s32 14.4004 32 32v64h152c28.4004 0 51.5996 -21.1992 55.2998 -48.5996l96.7002 56.4004c7.7002 4.39941 17.5 1.7998 21.9004 -5.90039z" />
    <glyph glyph-name="hands-usd" unicode="&#xf4c5;" horiz-adv-x="640" 
d="M289.6 303.7c-22.2998 6.39941 -40 24.7002 -42.8994 47.7002c-4.10059 32 19 59.3994 49.2998 63v17.5996c0 8.7998 7.2002 16 16 16h16c8.7998 0 16 -7.2002 16 -16v-17.7002c11.4004 -1.39941 22.2998 -5.2002 31.7998 -11.5
c6.2002 -4.09961 6.7998 -13.0996 1.5 -18.3994l-17.5 -17.5c-3.7002 -3.7002 -9.2998 -4.2002 -14.0996 -2c-3.2002 1.39941 -6.7002 2.19922 -10.2998 2.19922h-32.8008c-4.59961 0 -8.39941 -3.7998 -8.39941 -8.39941c0 -3.7002 2.5 -7.10059 6.09961 -8.10059
l50.1006 -14.2998c22.1992 -6.39941 40 -24.7002 42.8994 -47.7002c4.10059 -32 -19 -59.3994 -49.2998 -63v-17.5996c0 -8.7998 -7.2002 -16 -16 -16h-16c-8.7998 0 -16 7.2002 -16 16v17.7002c-11.4004 1.39941 -22.2998 5.2002 -31.7998 11.5
c-6.2002 4.09961 -6.7998 13.0996 -1.5 18.3994l17.5 17.5c3.7002 3.7002 9.2998 4.2002 14.0996 2c3.2002 -1.39941 6.7002 -2.19922 10.2998 -2.19922h32.8008c4.59961 0 8.39941 3.7998 8.39941 8.39941c0 3.7002 -2.5 7.10059 -6.09961 8.10059zM572.9 351.8
c38.2998 -2.5 67.0996 -36 67.1992 -74.2998v-191.3c0 -25.4004 -8.69922 -50.2002 -24.5 -70l-58.6992 -74c-3 -3.90039 -7.60059 -6.10059 -12.5 -6.10059h-16.3008c-8.7998 0 -16 7.2002 -16 16c0 7.5 2.5 14.7002 7.2002 20.6006l58.7002 73.3994
c9.09961 11.3008 14 25.4004 14 39.9004v193.1c0 11.6006 -7.7998 22.2002 -19.2002 24.4004c-15.3994 3 -28.7998 -8.7002 -28.7998 -23.5c0 0 -0.200195 -101 -0.0996094 -132.7c-0.100586 -7.59961 -2.80078 -14.7998 -7.80078 -20.5996l-76.5 -92.6006
c-7.39941 -8.89941 -22.8994 -11.8994 -33.0996 -1c-7.40039 7.90039 -7.2998 20.4004 -0.799805 29.2002l49.5 67c8.09961 10.6006 6.09961 25.6006 -4.40039 33.7002c-4.39941 3.40039 -9.5 5 -14.5996 5c-7.2002 0 -14.4004 -3.2998 -19.1006 -9.40039l-71.6992 -93.1992
c-8.60059 -11.2002 -13.3008 -24.9004 -13.3008 -39v-74.4004c0 -8.7998 -7.19922 -16 -16 -16h-32c-8.7998 0 -16 7.2002 -16 16v74.5c0 14.0996 -4.69922 27.7998 -13.2998 39l-71.7002 93.2002c-4.7998 6.2002 -11.8994 9.39941 -19.0996 9.39941
c-5.09961 0 -10.2002 -1.59961 -14.5996 -5c-10.5 -8.09961 -12.5 -23.1992 -4.40039 -33.6992l49.5 -67c6.5 -8.80078 6.7002 -21.3008 -0.799805 -29.2002c-9.5 -10.1006 -25 -8.7998 -33.1006 1l-76.5 92.5996c-5 5.7998 -7.7998 13 -7.7998 20.6006
c-0.0996094 31.5996 -0.299805 132.6 -0.299805 132.6c0 14.7998 -13.5 26.5 -28.7998 23.5c-11.4004 -2.09961 -19.2002 -12.7998 -19.2002 -24.4004v-193.1c0 -14.5996 4.90039 -28.7002 14 -40l58.7998 -73.5c4.60059 -5.7998 7.2002 -13.0996 7.2002 -20.5996
c0 -8.80078 -7.2002 -16 -16 -16h-16.2998c-4.7998 0 -9.5 2.2998 -12.5 6.09961l-58.7002 74c-15.7998 19.7998 -24.5 44.7002 -24.5 70v191.5c0 38.2998 28.7998 71.7998 67.0996 74.2998c41.9004 2.7998 76.9004 -30.5 76.9004 -71.7998
c0 0 0.0996094 -38.9004 0.200195 -76c11.7002 7.7002 25.7002 12 39.7998 12c22.4004 0 43.2002 -10.2002 57 -28l71.7998 -93.2998c2.7002 -3.5 4.90039 -7.40039 7.2002 -11.2002c2.2002 3.7998 4.5 7.7002 7.2002 11.2002l71.7998 93.2998
c13.7002 17.7998 34.5 28 57 28c14.0996 0 28.0996 -4.2002 39.7998 -12c0.100586 37 0.200195 76 0.200195 76c0 41.2998 35 74.5996 76.9004 71.7998z" />
    <glyph glyph-name="handshake-alt" unicode="&#xf4c6;" horiz-adv-x="640" 
d="M255.7 265.3c-9.60059 -8.7998 -10.5 -24.0996 -1.10059 -34c8.90039 -9.39941 25.1006 -8.7002 34.6006 0l55.2002 50.6006c6.5 5.89941 16.5996 5.5 22.5996 -1l10.9004 -11.8008c6 -6.5 5.5 -16.5996 -1 -22.5996l-12.5 -11.4004l102.699 -83.3994
c2.80078 -2.2998 5.40039 -4.90039 7.7002 -7.7002h149.2c8.7998 0 16 -7.2002 16 -16v-16c0 -8.7998 -7.2002 -16 -16 -16h-137.8c-1.7998 -8.2002 -5.2998 -16.0996 -10.9004 -23l-26.2002 -32.2998c-15.7998 -19.4004 -41.8994 -25.5 -64 -16.7998
c-13.5 -16.6006 -30.5996 -24 -48.7998 -24c-15.0996 0 -28.5996 5.09961 -41.0996 15.8994c-31.7998 -21.8994 -74.7002 -21.2998 -105.601 3.7998l-84.5996 76.4004h-89c-8.7998 0 -16 7.2002 -16 16v16c0 8.7998 7.2002 16 16 16h107.7l97.2998 -88
c16.0996 -13.0996 41.4004 -10.5 55.2998 6.59961l15.6006 19.2002l36.7998 -31.5c2.09961 -1.7002 5.59961 -2.7998 9.09961 -2.39941c3.5 0.399414 6.7002 2.09961 8.90039 4.7998l30 36.5l23.8994 -19.4004c3.5 -2.7998 8.5 -2.2002 11.3008 1.2002l26.0996 32.2002
c2.7998 3.5 2.2002 8.5 -1.2002 11.2998l-108.2 87.7998l-8.19922 -7.5c-40.3008 -36.7998 -86.7002 -11.7998 -101.5 4.40039c-26.7002 29 -25 74.3994 4.39941 101.3l38.7002 35.5h-56.7002c-2 -0.799805 -3.7002 -1.5 -5.7002 -2.2998l-61.6992 -61.6006h-121.9
c-8.7998 0 -16 7.2002 -16 16v16c0 8.80078 7.2002 16 16 16h102l47.5996 47.6006c10.5 10.3994 24.8008 16.2998 39.6006 16.2998h226.8c14.9004 0 29.0996 -5.90039 39.5996 -16.2002l47.6006 -47.5996h104.8c8.7998 0 16 -7.2002 16 -16v-16
c0 -8.7998 -7.2002 -16 -16 -16h-124.8l-61.7002 61.5996c-1.40039 1.5 -3.40039 2.2998 -5.5 2.2998l-83.7002 -0.199219c-10 0 -19.5996 -3.7002 -27 -10.5z" />
    <glyph glyph-name="heart-square" unicode="&#xf4c8;" horiz-adv-x="448" 
d="M325.2 287.6c37.5996 -31.6992 32 -83.2998 5.2998 -110.5l-87.7002 -89.2998c-5.5 -5.59961 -12.0996 -7.7998 -18.5 -7.7998h-0.599609c-6.40039 0 -13 2.2002 -18.5 7.7998l-87.7002 89.2998c-26.7998 27.2002 -32.2998 78.8008 5.2998 110.5
c13.9004 11.7002 29.6006 16.4004 44.9004 16.4004c22.0996 0 43.2998 -10 56.2998 -23.2998c13 13.2998 34.2002 23.2998 56.2998 23.2998c15.2998 0 31 -4.7002 44.9004 -16.4004zM296.3 210.7c3.90039 4 16.2998 24.7002 -2 40.2002
c-13.7002 11.5 -31.3994 1.09961 -36.0996 -3.7002l-34.2002 -34.7998l-34.2002 34.7998c-4.7998 4.7998 -22.5 15.0996 -36.0996 3.7002c-18.4004 -15.5 -6 -36.1006 -2 -40.2002l72.2998 -73.6006zM392 416c30.9004 0 56 -25.0996 56 -56v-336
c0 -30.9004 -25.0996 -56 -56 -56h-336c-30.9004 0 -56 25.0996 -56 56v336c0 30.9004 25.0996 56 56 56h336zM400 24v336c0 4.40039 -3.59961 8 -8 8h-336c-4.40039 0 -8 -3.59961 -8 -8v-336c0 -4.40039 3.59961 -8 8 -8h336c4.40039 0 8 3.59961 8 8z" />
    <glyph glyph-name="leaf-heart" unicode="&#xf4cb;" horiz-adv-x="576" 
d="M397.4 229c23.5 -19.0996 24.6992 -53.5 3.69922 -74.2002l-72.5996 -71.2998c-4.7002 -4.59961 -12.2998 -4.59961 -17 0l-72.5996 71.2998c-21.1006 20.7002 -19.9004 55.1006 3.69922 74.2002c23.8008 19.2998 54.7002 10.2998 70 -4.7998l7.40039 -7.2998
l7.40039 7.2998c15.6992 15.3994 46.5 23.8994 70 4.7998zM546.2 438.3c19 -42.3994 29.7998 -94.3994 29.7998 -144.6c0 -172.5 -110.5 -313.3 -267.6 -324.601c-76.9004 -8.09961 -148.101 29.9004 -185.601 93.4004c-55 -52.5996 -75.8994 -109.8 -76.0996 -110.4
c-3.5 -9.89941 -12.7998 -16.0996 -22.7002 -16.0996c-2.7002 0 -5.2998 0.400391 -7.90039 1.2998c-12.5 4.40039 -19.0996 18 -14.7998 30.5c1.2002 3.2998 27.7002 77.7002 101.601 141.7c-4.40039 16.0996 -6.90039 33 -6.90039 50.5c0 106 86 192 192 192h80
c63.4004 0 118.9 33.5996 149.9 87.5c3.2998 5.7002 8.69922 8.5 14 8.5c5.69922 0 11.3994 -3.2002 14.2998 -9.7002zM303.4 16.7998c130.8 9.5 224.6 125.9 224.6 276.9c0 23.7002 -2.7998 48 -8 71.2002c-40.4004 -38.9004 -94.0996 -60.9004 -152 -60.9004h-80
c-79.4004 0 -144 -64.5996 -144 -144c0 -82.7998 71.4004 -152.5 159.4 -143.2z" />
    <glyph glyph-name="loveseat" unicode="&#xf4cc;" 
d="M448 251.4c34.5996 -10.7002 60.9004 -40.3008 63.7998 -76.4004c2.2998 -29.0996 -9.7002 -56.5 -31.7002 -74.5996v-92.4004c0 -22.0996 -17.8994 -40 -40 -40h-88c-3.89941 0 -30.5 1.2002 -31.8994 32h-128.3c-1.7002 -31.0996 -27.9004 -32 -31.9004 -32h-88
c-22.0996 0 -40 17.9004 -40 40v92.4004c-22.0996 18.0996 -34 45.5996 -31.7002 74.5996c2.7998 36.0996 29.1006 65.7002 63.7002 76.4004v68.5996c0 53 43 96 96 96h192c53 0 96 -43 96 -96v-68.5996zM144 16v152c0 22.0996 -17.9004 40 -40 40h-12
c-22.5996 0 -42.2998 -16.5 -43.7998 -36.7002c-1.2002 -15.2998 6.39941 -29.7998 19.8994 -37.5996l11.9004 -7v-110.7h64zM320 144h-128v-96h128v96zM323.7 192c9.7998 34.2998 39.7002 59.7998 76.2998 63.2002v64.7998c0 26.5 -21.5 48 -48 48h-192
c-26.5 0 -48 -21.5 -48 -48v-64.7998c36.5 -3.40039 66.4004 -28.9004 76.2002 -63.2002h135.5zM443.9 133.6c13.5 7.90039 21.0996 22.3008 20 37.6006c-1.60059 20.2998 -21.3008 36.7998 -43.9004 36.7998h-12c-22.0996 0 -40 -17.9004 -40 -40v-152h64v110.6z" />
    <glyph glyph-name="parachute-box" unicode="&#xf4cd;" 
d="M511.9 273c1.09961 -9.2002 -6.80078 -17 -16 -17h-19.5l-124.7 -158.5c0 -0.5 0.299805 -1 0.299805 -1.5v-128c0 -17.7002 -14.2998 -32 -32 -32h-128c-17.7002 0 -32 14.2998 -32 32v128c0 0.5 0.299805 1 0.299805 1.5l-124.7 158.5h-19.5
c-9.19922 0 -17.0996 7.90039 -16 17c9.10059 75.5 78.4004 132.3 158.301 158.7c-36.3008 -39.2002 -62.2002 -100.101 -62.4004 -174.8l101.4 -128.9h34.5996v128h-104c0 115.2 68.9004 192 128 192s128 -76.7998 128 -192h-104v-128h34.5996l101.4 128.9
c-0.200195 74.6992 -26.0996 135.6 -62.4004 174.8c79.9004 -26.2998 149.2 -83.1006 158.301 -158.7zM304 -8v80c0 4.40039 -3.59961 8 -8 8h-80c-4.40039 0 -8 -3.59961 -8 -8v-80c0 -4.40039 3.59961 -8 8 -8h80c4.40039 0 8 3.59961 8 8z" />
    <glyph glyph-name="people-carry" unicode="&#xf4ce;" horiz-adv-x="640" 
d="M128 352c-26.5 0 -48 21.5 -48 48s21.5 48 48 48s48 -21.5 48 -48s-21.5 -48 -48 -48zM512 352c-26.5 0 -48 21.5 -48 48s21.5 48 48 48s48 -21.5 48 -48s-21.5 -48 -48 -48zM600 197.4c5 -21.1006 -2 -43.3008 -18.2998 -57.6006l-68.7002 -59.8994
c-6.2998 -5.40039 -10.2002 -13.2002 -10.9004 -21.5l-8 -100.2c-0.699219 -9.2998 -8.89941 -23.2998 -25.7998 -22c-13.2002 1 -23 12.5996 -22 25.7998l8.7998 109.1c1.2002 15.1006 8.30078 29.1006 19.7002 39.1006l52.2002 45.5996l-24.7998 92.1006
c-2.7002 -5.2002 -19.6006 -51.8008 -19.6006 -51.8008c-3.89941 -11.1992 -11.1992 -20.6992 -23 -28.8994l-36.8994 -19.4004c-4.60059 -2.39941 -9.7002 -3.7002 -14.9004 -3.7002h-175.5c-5.2002 0 -10.2998 1.30078 -14.8994 3.7002l-36.9004 19.4004
c-11.7998 8.2002 -19.0996 17.7002 -23 28.8994c0 0 -16.9004 46.5 -19.5996 51.8008l-24.8008 -92.1006l52.2002 -45.5996c11.4004 -10 18.5 -24 19.7002 -39.1006l8.7002 -109.199c1.09961 -13.2002 -8.7998 -24.7002 -22 -25.8008
c-16.9004 -1.2998 -25 12.9004 -25.7998 22l-8 100.2c-0.700195 8.2998 -4.60059 16 -10.9004 21.5l-68.7002 60c-16.2998 14.2998 -23.3994 36.4004 -18.2998 57.5l18.9004 78.5c4.2998 17.2998 16.7998 32 33.5 39.2998c16.8994 7.40039 35.6992 6.5 51.3994 -2.2998
c25.6006 -14.3994 40.2998 -47.5996 46.7998 -66.2002l12.2002 -34.6992c0.600586 -1.7002 1.7998 -3.2002 3.40039 -4.30078l17.7998 -10.0996v122.5c0 8.7998 7.2002 16 16 16h160c8.7998 0 16 -7.2002 16 -16v-122.5l17.7002 10.0996
c1.7002 1.10059 2.7998 2.60059 3.39941 4.30078l12.2002 34.6992c6.5 18.6006 21.2002 51.8008 46.7998 66.2002c15.7002 8.7998 34.5 9.7002 51.4004 2.2998c16.7998 -7.2998 29.2998 -22 33.5 -39.2998zM368 192v96h-96v-96h96zM638.2 -30.9004
c5 -12.2998 -0.799805 -26.2998 -13.2002 -31.2998s-26.2998 0.900391 -31.2998 13.1006l-47.4004 115.6l38.2002 33.4004zM1.7998 -30.9004l53.6006 130.801l38.1992 -33.4004l-47.3994 -115.6c-5 -12.2002 -18.9004 -18.1006 -31.2998 -13.1006
c-12.3008 5 -18.1006 19 -13.1006 31.2998z" />
    <glyph glyph-name="person-carry" unicode="&#xf4cf;" horiz-adv-x="384" 
d="M80 352c-26.5 0 -48 21.5 -48 48s21.5 48 48 48s48 -21.5 48 -48s-21.5 -48 -48 -48zM368 352c8.7998 0 16 -7.2002 16 -16v-160c0 -8.7998 -7.2002 -16 -16 -16h-220.2c-13 0 -24.5996 7.7998 -29.5996 19.7998l-22.2002 53.5v-113.399l38.0996 -30.1006
c10 -7.89941 17 -19 19.9004 -31.3994l21.4004 -93c3 -12.9004 -5.10059 -25.8008 -18 -28.8008c-14.4004 -3.19922 -26.2002 6.5 -28.8008 18l-19.5996 84.8008c-1.59961 7.09961 -5.59961 13.3994 -11.2998 17.8994l-76.4004 60.4004
c-18.2998 14.5 -21.2998 36.2998 -21.2998 44v102.3c0 30.9004 25.0996 56 56 56h18.5996c22.7002 0 43 -13.5996 51.7002 -34.5l32.1006 -77.5h33.5996v128c0 8.7998 7.2002 16 16 16h160zM336 208v96h-96v-96h96zM0 -40v134.1c0.5 -0.399414 36 -28.6992 48 -38.1992
v-95.9004c0 -13.2998 -10.7998 -24 -24 -24s-24 10.7998 -24 24z" />
    <glyph glyph-name="person-dolly" unicode="&#xf4d0;" 
d="M80 352c-26.5 0 -48 21.5 -48 48s21.5 48 48 48s48 -21.5 48 -48s-21.5 -48 -48 -48zM503.4 71.5996l8.39941 -30.8994c1.10059 -4.2998 -1.39941 -8.7002 -5.7002 -9.7998l-155.199 -41.6006c-5.10059 -30.2002 -31.2002 -53.2998 -62.9004 -53.2998
c-35.2998 0 -64 28.7002 -64 64c0 21.5996 10.7998 40.7002 27.2998 52.2998l-28.8994 107.7h-74.6006c-13 0 -24.5996 7.7998 -29.5996 19.7998l-22.2002 53.5v-113.399l38.0996 -30c10 -7.90039 17 -19 19.9004 -31.4004l21.4004 -93
c3 -12.9004 -5.10059 -25.7998 -18 -28.7998c-14.4004 -3.2002 -26.2002 6.5 -28.8008 18l-19.5996 84.7998c-1.59961 7.09961 -5.59961 13.4004 -11.2998 17.9004l-76.4004 60.3994c-18.2998 14.5 -21.2998 36.2998 -21.2998 44v102.3c0 30.9004 25.0996 56 56 56h18.5
c22.7002 0 43 -13.5996 51.7002 -34.5l32.0996 -77.5h51.1006l-16.5 61.6006c-1.10059 4.2998 1.39941 8.7002 5.69922 9.7998l30.9004 8.2998c4.2998 1.10059 8.7002 -1.39941 9.7998 -5.7002l22.7998 -85.0996l150.301 40.2998c9.2998 2.5 17.5 -3.5 19.5996 -11.2998
l41.2998 -154.1l20.2998 5.39941c4.30078 1.10059 8.7002 -1.39941 9.80078 -5.7002zM288 -16c8.7998 0 16 7.2002 16 16s-7.2002 16 -16 16s-16 -7.2002 -16 -16s7.2002 -16 16 -16zM340.9 36l86.0996 23.2998l-33 123.2l-119.4 -31.7002l23.5 -87.7998
c17.7002 -2.90039 33.1006 -12.7998 42.8008 -27zM0 -40v134.1c0.5 -0.399414 36 -28.6992 48 -38.1992v-95.9004c0 -13.2998 -10.7998 -24 -24 -24s-24 10.7998 -24 24z" />
    <glyph glyph-name="person-dolly-empty" unicode="&#xf4d1;" 
d="M32 400c0 26.5 21.5 48 48 48s48 -21.5 48 -48s-21.5 -48 -48 -48s-48 21.5 -48 48zM0 -40v134.1c0.5 -0.399414 36 -28.6992 48 -38.1992v-95.9004c0 -13.2998 -10.7998 -24 -24 -24s-24 10.7998 -24 24zM503.4 71.5996l8.2998 -30.8994
c1.09961 -4.2998 -1.40039 -8.7002 -5.7002 -9.7998l-155.2 -41.6006c-5.09961 -30.2002 -31.2002 -53.2998 -62.8994 -53.2998c-35.3008 0 -64 28.7002 -64 64c0 21.5996 10.7998 40.7002 27.1992 52.2998l-28.6992 107.7h-74.6006
c-12.8994 0 -24.5996 7.7998 -29.5996 19.7998l-22.2002 53.5v-113.399l38.0996 -30.1006c10 -7.89941 17 -19 19.9004 -31.3994l21.4004 -93c3 -12.9004 -5.10059 -25.8008 -18 -28.8008c-14.4004 -3.19922 -26.1006 6.5 -28.8008 18l-19.5996 84.8008
c-1.59961 7.09961 -5.59961 13.3994 -11.2998 17.8994l-76.4004 60.4004c-18.2998 14.5 -21.2998 36.2998 -21.2998 44v102.3c0 30.9004 25.0996 56 56 56h18.7002c22.5996 0 43 -13.5996 51.7002 -34.5l32.0996 -77.5h51.0996l-16.5996 61.5996
c-1.09961 4.30078 1.40039 8.7002 5.7002 9.80078l30.8994 8.2998c4.30078 1.09961 8.7002 -1.40039 9.80078 -5.7002l58.6992 -219c17.7002 -2.7998 33.1006 -12.7002 42.8008 -27l152.8 41.2002c4.2002 1.2002 8.59961 -1.40039 9.7002 -5.60059zM304 0
c0 8.7998 -7.2002 16 -16 16s-16 -7.2002 -16 -16s7.2002 -16 16 -16s16 7.2002 16 16z" />
    <glyph glyph-name="phone-plus" unicode="&#xf4d2;" 
d="M476.5 425.1c20.9004 -4.7998 35.5 -23.1992 35.5 -44.5996c0 -246.2 -199.7 -444.5 -444.6 -444.4c-21.4004 0 -39.8008 14.6006 -44.6006 35.5l-21.7002 94.2002c-4.89941 21.6006 6.2002 43.6006 26.6006 52.2998l101.6 43.4004
c5.7998 2.5 11.9004 3.7002 17.9004 3.7002c13.3994 0 26.5996 -5.90039 35.5 -16.7002l32.7002 -40c52.3994 28.5 95.5996 71.7002 124.199 124.2l-40 32.7002c-15.6992 12.7998 -21.0996 34.7998 -13.0996 53.3994l43.5 101.5c7.2998 17.1006 24 27.7002 42 27.7002
c3.40039 0 6.7998 -0.400391 10.2998 -1.2002zM69.2998 -16c217.601 1 393.7 177.1 394.7 394.7l-90.7002 20.8994l-42.0996 -98.1992l68.0996 -55.7002c-46.3994 -99 -98.2002 -150.601 -197 -197l-55.7002 68.0996l-98.1992 -42.0996zM88 240v72h-72
c-8.7998 0 -16 7.2002 -16 16v16c0 8.7998 7.2002 16 16 16h72v72c0 8.7998 7.2002 16 16 16h16c8.7998 0 16 -7.2002 16 -16v-72h72c8.7998 0 16 -7.2002 16 -16v-16c0 -8.7998 -7.2002 -16 -16 -16h-72v-72c0 -8.7998 -7.2002 -16 -16 -16h-16
c-8.7998 0 -16 7.2002 -16 16z" />
    <glyph glyph-name="ramp-loading" unicode="&#xf4d4;" horiz-adv-x="384" 
d="M384 96c0 -17.7002 -14.2998 -32 -32 -32h-6.90039l35.8008 -83.4004c9.09961 -21.0996 -6.40039 -44.5996 -29.4004 -44.5996h-318.9c-23 0 -38.5 23.5 -29.3994 44.5996l35.7002 83.4004h-6.90039c-17.7002 0 -32 14.2998 -32 32v320c0 17.7002 14.2998 32 32 32h320
c17.7002 0 32 -14.2998 32 -32v-320zM56.7998 -16h270.4l-54.9004 128h-160.6zM312.3 140.6l12.2002 -28.5996h11.5v288h-288v-288h11.5l12.2002 28.5996c5 11.8008 16.5996 19.4004 29.3994 19.4004h181.801c12.7998 0 24.3994 -7.59961 29.3994 -19.4004z" />
    <glyph glyph-name="ribbon" unicode="&#xf4d6;" horiz-adv-x="448" 
d="M437.7 43.4004c16.5 -18 12.5996 -46.2002 -7.5 -59.3008l-63.2998 -41.2998c-23.8008 -15.5996 -45.6006 0 -51.4004 6.2998l-91.4004 98.4004l-91.5 -98.5c-5.89941 -6.2998 -27.3994 -21.9004 -51.3994 -6.2002l-63.2998 41.2998
c-20.3008 13.3008 -24 41.3008 -7.5 59.2002l108.3 117.7l-37.5 40.4004c-33.7002 36.1992 -39.2002 91 -13.2998 133.199l33.2998 54.3008c14.8994 24.5 37.0996 42.3994 62.3994 50.5c35.9004 11.5 85 11.5 121 0c25.2002 -8.10059 47.4004 -26 62.4004 -50.5
l30.7998 -50.3008c28.2002 -46 24 -99.8994 -10.7998 -137.3l-37.5 -40.2998zM328.2 327.8c-6.2002 -13.0996 -14.4004 -26.5996 -26.1006 -38l-45.5 -49.5l40.3008 -43.7998l34.8994 37.5996c20 21.5 22 52 5.10059 79.5zM178.2 393.7
c-9.10059 -2.90039 -17.6006 -8.2998 -24.7998 -15.6006c2.59961 -12.7998 9.59961 -37.7998 26.1992 -54.0996l44.4004 -48.2998l43.7002 47.3994c17.2002 16.9004 24.2998 41.9004 27 54.8008c-7.2998 7.2998 -15.7002 12.8994 -24.7998 15.7998
c-26.5 8.5 -65.2002 8.5 -91.7002 0zM101.9 -13.5l89.3994 96.2998l-40 43l-98.5 -107.2zM346.2 -13.5l49.0996 32l-250.2 272.1c-11.1992 11 -19.3994 24 -25.3994 36.8008l-10.9004 -17.9004c-14.7002 -23.9004 -11.5996 -54.9004 7.5 -75.5z" />
    <glyph glyph-name="seedling" unicode="&#xf4d8;" 
d="M436.4 416h75.5996v-24c0 -127.9 -91.7002 -232 -204.4 -232h-27.5996v-176c0 -8.7998 -7.2002 -16 -16 -16h-16c-8.7998 0 -16 7.2002 -16 16v112h-27.5996c-112.7 0 -204.4 104.1 -204.4 232v24h75.5996c68.4004 0 129 -38.5996 166.101 -97.4004
c26.3994 93.5 103.7 161.4 194.7 161.4zM204.4 144h26.1992c-10 90.2002 -75.7998 160 -155.1 160h-26.2002c10 -90.2002 75.7998 -160 155.101 -160zM307.6 208c79.3008 0 145.101 69.7998 155.101 160h-26.2002c-79.2998 0 -145.1 -69.7998 -155.1 -160h26.1992z" />
    <glyph glyph-name="sign" unicode="&#xf4d9;" 
d="M496 384c8.7998 0 16 -7.2002 16 -16v-16c0 -8.7998 -7.2002 -16 -16 -16h-48v-48c17.7002 0 32 -14.2998 32 -32v-160c0 -17.7002 -14.2998 -32 -32 -32h-256c-17.7002 0 -32 14.2998 -32 32v160c0 17.7002 14.2998 32 32 32v48h-80v-384c0 -8.7998 -7.2002 -16 -16 -16
h-16c-8.7998 0 -16 7.2002 -16 16v384h-48c-8.7998 0 -16 7.2002 -16 16v16c0 8.7998 7.2002 16 16 16h48v48c0 8.7998 7.2002 16 16 16h16c8.7998 0 16 -7.2002 16 -16v-48h384zM432 112v128h-224v-128h224zM416 288v48h-192v-48h192z" />
    <glyph glyph-name="tape" unicode="&#xf4db;" horiz-adv-x="640" 
d="M624 16c8.7998 0 16 -7.2002 16 -16v-16c0 -8.7998 -7.2002 -16 -16 -16h-400c-123.7 0 -224 100.3 -224 224s100.3 224 224 224s224 -100.3 224 -224c0 -71.5 -33.5996 -135 -85.7002 -176h261.7zM224 16c97 0 176 79 176 176s-79 176 -176 176s-176 -79 -176 -176
s79 -176 176 -176zM224 288c53 0 96 -43 96 -96s-43 -96 -96 -96s-96 43 -96 96s43 96 96 96zM224 144c26.5 0 48 21.5 48 48s-21.5 48 -48 48s-48 -21.5 -48 -48s21.5 -48 48 -48z" />
    <glyph glyph-name="truck-container" unicode="&#xf4dc;" horiz-adv-x="640" 
d="M32 144c-17.7002 0 -32 14.2998 -32 32v208c0 17.7002 14.2998 32 32 32h336c17.7002 0 32 -14.2998 32 -32v-208c0 -17.7002 -14.2998 -32 -32 -32h-336zM48 368v-176h304v176h-304zM621.3 242.7c12 -12 18.7002 -28.2002 18.7002 -45.2002v-117.6
c0 -8.80078 -7.2002 -16 -16 -16h-17.5c1 -5.2002 1.59961 -10.5 1.59961 -16c0 -50.7002 -47.1992 -90.4004 -100 -77.6006c-25.6992 6.2002 -47.1992 26 -55.5996 51.1006c-5 14.7998 -5.5 29.1992 -2.7998 42.3994h-163.2
c2.59961 -13.2002 2.09961 -27.5996 -2.7998 -42.3994c-8.2998 -24.6006 -29.2002 -44.3008 -54.4004 -50.8008c-34.8994 -9 -66.8994 5 -85.2998 29.7002c-16.5996 -22.2002 -44.2002 -35.7998 -74.9004 -31.7002c-40.3994 5.40039 -69.0996 42.7002 -69.0996 83.5v27.8008
c0 17.6992 14.2998 32 32 32h400v176c0 17.6992 14.2998 32 32 32h53.5c17 0 33.2998 -6.7002 45.2998 -18.7002zM80 16c17.5996 0 32 14.4004 32 32s-14.4004 32 -32 32s-32 -14.4004 -32 -32s14.4004 -32 32 -32zM208 16c17.5996 0 32 14.4004 32 32s-14.4004 32 -32 32
s-32 -14.4004 -32 -32s14.4004 -32 32 -32zM480 272v-48h92.0996l-43.2998 43.2998c-3 3 -7 4.7002 -11.2998 4.7002h-37.5zM528 16c17.5996 0 32 14.4004 32 32s-14.4004 32 -32 32s-32 -14.4004 -32 -32s14.4004 -32 32 -32zM592 112v80h-112v-80h0.400391
c13.3994 9.90039 29.6992 16 47.5996 16s34.2998 -6.09961 47.5996 -16h16.4004zM136 336c4.40039 0 8 -3.59961 8 -8v-96c0 -4.40039 -3.59961 -8 -8 -8h-32c-4.40039 0 -8 3.59961 -8 8v96c0 4.40039 3.59961 8 8 8h32zM296 336c4.40039 0 8 -3.59961 8 -8v-96
c0 -4.40039 -3.59961 -8 -8 -8h-32c-4.40039 0 -8 3.59961 -8 8v96c0 4.40039 3.59961 8 8 8h32zM216 336c4.40039 0 8 -3.59961 8 -8v-96c0 -4.40039 -3.59961 -8 -8 -8h-32c-4.40039 0 -8 3.59961 -8 8v96c0 4.40039 3.59961 8 8 8h32z" />
    <glyph glyph-name="truck-couch" unicode="&#xf4dd;" horiz-adv-x="640" 
d="M13.7998 210.1l-0.200195 0.700195c-9.09961 34.2002 11.2002 69.2998 45.3008 78.4004l154.399 41.5c34.2002 9.09961 69.2998 -11.2002 78.4004 -45.2998l0.299805 -1c-2.7002 -0.400391 -5.40039 -0.400391 -8 -1.10059
c-18.5996 -4.89941 -34.0996 -16.7998 -43.7002 -33.5c-8.2002 -14.2998 -11 -30.5996 -8.5 -46.7002l-125 -33.5c-10.7002 27.3008 -37 45.8008 -66.7998 45.8008c-6.2998 0 -12.5996 -0.900391 -18.7002 -2.5c-2.59961 -0.700195 -5 -1.80078 -7.5 -2.80078z
M7.59961 109.8l-6.2998 23.2002c-5.7002 21.2998 7 43.2998 28.2998 49c21.3008 5.7002 43.3008 -7 49 -28.2998l6.2002 -23.2002l30.9004 8.2998l11.3994 3l143.2 38.4004l-6.2002 23.2002c-5.69922 21.2998 7 43.2998 28.3008 49
c9.59961 2.5 19.2998 0.899414 27.5996 -3.10059v-122l-18.2998 -4.89941l-14.7998 -4l-185.5 -49.7002l-77.3008 -20.7002zM640 400h-240v-304h27.2002c18 37.7002 56.2002 64 100.8 64c61.9004 0 112 -50.0996 112 -112s-50.0996 -112 -112 -112
c-60.0996 0 -108.8 47.5 -111.5 107l-398.2 -106.8c-4.2998 -1.10059 -8.7002 1.39941 -9.7998 5.7002l-8.2998 30.8994c-1.10059 4.2998 1.39941 8.7002 5.7002 9.7998l346.1 92.8008v340.6c0 17.7002 14.2998 32 32 32h256v-48zM528 112c-35.2998 0 -64 -28.7002 -64 -64
s28.7002 -64 64 -64s64 28.7002 64 64s-28.7002 64 -64 64z" />
    <glyph glyph-name="truck-loading" unicode="&#xf4de;" horiz-adv-x="640" 
d="M640 400h-240v-304h27.2002c18 37.7002 56.2002 64 100.8 64c61.9004 0 112 -50.0996 112 -112s-50.0996 -112 -112 -112c-60.0996 0 -108.8 47.5 -111.5 107l-398.2 -106.8c-4.2998 -1.10059 -8.7002 1.39941 -9.7998 5.7002l-8.2998 30.8994
c-1.10059 4.2998 1.39941 8.7002 5.7002 9.7998l346.1 92.8008v340.6c0 17.7002 14.2998 32 32 32h256v-48zM528 112c-35.2998 0 -64 -28.7002 -64 -64s28.7002 -64 64 -64s64 28.7002 64 64s-28.7002 64 -64 64zM50.2002 72.4004l-49.6006 185.5
c-2.2998 8.5 2.80078 17.2998 11.3008 19.5996l77.2998 20.7002l24.7998 -92.7002l61.7998 16.5l-24.7998 92.7002l77.2002 20.7998c8.5 2.2998 17.2998 -2.7998 19.5996 -11.2998l49.7002 -185.5c2.2998 -8.5 -2.7998 -17.2998 -11.2998 -19.6006l-216.4 -58
c-8.5 -2.2998 -17.2998 2.80078 -19.5996 11.3008z" />
    <glyph glyph-name="truck-moving" unicode="&#xf4df;" horiz-adv-x="640" 
d="M621.3 242.7c12 -12 18.7002 -28.2002 18.7002 -45.2002v-117.5c0 -8.7998 -7.2002 -16 -16 -16h-17.5996c1 -5.2002 1.59961 -10.5 1.59961 -16c0 -44.2002 -35.7998 -80 -80 -80s-80 35.7998 -80 80c0 5.5 0.5 10.7998 1.59961 16h-163.199
c1 -5.2002 1.59961 -10.5 1.59961 -16c0 -44.2002 -35.7998 -80 -80 -80c-26.2998 0 -49.4004 12.7998 -64 32.4004c-14.5996 -19.5 -37.7002 -32.4004 -64 -32.4004c-44.2002 0 -80 35.7998 -80 80v336c0 17.7002 14.2998 32 32 32h416c17.7002 0 32 -14.2998 32 -32
v-64.0996h37.5c17 0 33.2998 -6.7002 45.2998 -18.7002zM80 16c17.5996 0 32 14.4004 32 32s-14.4004 32 -32 32s-32 -14.4004 -32 -32s14.4004 -32 32 -32zM208 16c17.5996 0 32 14.4004 32 32s-14.4004 32 -32 32s-32 -14.4004 -32 -32s14.4004 -32 32 -32zM255.6 112
h176.301v256h-384v-246.8c9.7998 4.2998 20.5996 6.7998 32 6.7998c17.8994 0 34.2998 -6.09961 47.5996 -16h32.9004c13.3994 9.90039 29.6992 16 47.5996 16s34.2998 -6.09961 47.5996 -16zM480 272v-48h92.0996l-43.2998 43.2998c-3 3 -7 4.7002 -11.2998 4.7002h-37.5z
M528 16c17.5996 0 32 14.4004 32 32s-14.4004 32 -32 32s-32 -14.4004 -32 -32s14.4004 -32 32 -32zM592 112v80h-112v-80h0.400391c13.3994 9.90039 29.6992 16 47.5996 16s34.2002 -6.09961 47.5996 -16h16.4004z" />
    <glyph glyph-name="truck-ramp" unicode="&#xf4e0;" horiz-adv-x="640" 
d="M544 400h-144v-304h27.2002c18 37.7002 56.2002 64 100.8 64c61.9004 0 112 -50.0996 112 -112s-50.0996 -112 -112 -112c-60.0996 0 -108.8 47.5 -111.5 107l-398.2 -106.8c-4.2998 -1.10059 -8.7002 1.39941 -9.7998 5.7002l-8.2998 30.8994
c-1.10059 4.2998 1.39941 8.7002 5.7002 9.7998l346.1 92.8008v340.6c0 17.7002 14.2998 32 32 32h256v-48h-96zM528 112c-35.2998 0 -64 -28.7002 -64 -64s28.7002 -64 64 -64s64 28.7002 64 64s-28.7002 64 -64 64z" />
    <glyph glyph-name="video-plus" unicode="&#xf4e1;" horiz-adv-x="576" 
d="M543.9 352c16.5996 0 32.0996 -13 32.0996 -31.5v-256.9c0 -18.5 -15.5 -31.5 -32.0996 -31.5c-6.10059 0 -12.5 1.7002 -18.2002 5.7002l-109.7 68.2998v-58.2998c0 -26.3994 -23.2002 -47.7998 -51.7998 -47.7998h-312.4c-28.5996 0 -51.7998 21.4004 -51.7998 47.7998
v288.4c0 26.3994 23.2002 47.7998 51.7998 47.7998h312.4c28.5996 0 51.7998 -21.4004 51.7998 -47.7998v-58.2998l109.7 68.3994c5.7002 3.90039 12 5.7002 18.2002 5.7002zM368 49.0996v285.801c-0.599609 0.5 -1.7998 1.09961 -3.7998 1.09961h-312.4
c-2 0 -3.2002 -0.700195 -3.7998 -1.09961v-285.801c0.599609 -0.5 1.7998 -1.09961 3.7998 -1.09961h312.4c2 0 3.2002 0.700195 3.7998 1.09961zM528 92.7998v198.3l-112 -69.7998v-58.7002zM288 216c8.7998 0 16 -7.2002 16 -16v-16c0 -8.7998 -7.2002 -16 -16 -16h-56
v-56c0 -8.7998 -7.2002 -16 -16 -16h-16c-8.7998 0 -16 7.2002 -16 16v56h-56c-8.7998 0 -16 7.2002 -16 16v16c0 8.7998 7.2002 16 16 16h56v56c0 8.7998 7.2002 16 16 16h16c8.7998 0 16 -7.2002 16 -16v-56h56z" />
    <glyph glyph-name="video-slash" unicode="&#xf4e2;" horiz-adv-x="640" 
d="M396.2 336h-143.5l-61.4004 48h204.9c28.5996 0 51.7998 -21.4004 51.7998 -47.7998v-58.2998l109.7 68.3994c5.7002 3.90039 12 5.7002 18.2002 5.7002c16.5996 0 32.0996 -13 32.0996 -31.5v-257c0 -1.7002 -0.799805 -3 -1 -4.59961l-47 36.7998v195.399
l-112 -69.7998v-38l-48 37.5v114.101c-0.599609 0.5 -1.7998 1.09961 -3.7998 1.09961zM634 -23c6.90039 -5.5 8 -15.5996 2.5 -22.5l-10 -12.5c-5.5 -6.90039 -15.5996 -8 -22.5 -2.5l-514.7 402.4l-39 30.5l-44.2998 34.5996c-6.90039 5.5 -8 15.5996 -2.5 22.5l10 12.5
c5.5 6.90039 15.5996 8 22.5 2.5l77.4004 -60.5l2.19922 -1.7002l284.4 -222.399l79.5 -62.1006zM83.7998 48h303.5l44.5 -34.7998c-9.2998 -8.10059 -21.7998 -13.2002 -35.5996 -13.2002h-312.4c-28.5996 0 -51.7998 21.4004 -51.7998 47.7998v277.9l48 -37.5v-239.101
c0.599609 -0.5 1.7998 -1.09961 3.7998 -1.09961z" />
  </font>
</defs>
</svg>
