<?xml version="1.0" standalone="no"?>
<!DOCTYPE svg PUBLIC "-//W3C//DTD SVG 1.1//EN" "http://www.w3.org/Graphics/SVG/1.1/DTD/svg11.dtd" >
<svg xmlns="http://www.w3.org/2000/svg" xmlns:xlink="http://www.w3.org/1999/xlink" version="1.1">
<metadata>
Created by FontForge 20200314 at Wed Jan 13 11:59:34 2021
 By Robert Madole
Copyright (c) Font Awesome
</metadata>
<!-- Font Awesome Pro 5.15.2 by @fontawesome - https://fontawesome.com License - https://fontawesome.com/license (Commercial License) --><defs>
<font id="FontAwesome5Pro-Light" horiz-adv-x="512" >
  <font-face 
    font-family="Font Awesome 5 Pro Light"
    font-weight="300"
    font-stretch="normal"
    units-per-em="512"
    panose-1="2 0 3 3 0 0 0 0 0 0"
    ascent="448"
    descent="-64"
    bbox="-0.0663408 -64.0996 640.1 448.046"
    underline-thickness="25"
    underline-position="-50"
    unicode-range="U+0020-F8FF"
  />
    <missing-glyph />
    <glyph glyph-name="video" unicode="&#xf03d;" horiz-adv-x="576" 
d="M543.9 352c16.5996 0 32.0996 -13 32 -31.5v-257c0 -18.5 -15.5 -31.5 -32.1006 -31.5c-6.09961 0 -12.5 1.7002 -18.2002 5.7002l-109.6 69.8994v-59.7998c0 -26.3994 -23.2002 -47.7998 -51.7998 -47.7998h-312.4c-28.5996 0 -51.7998 21.4004 -51.7998 47.7998v288.4
c0 26.3994 23.2002 47.7998 51.7998 47.7998h312.4c28.5996 0 51.7998 -21.4004 51.7998 -47.7998v-59.7998l109.7 69.8994c5.7002 3.90039 12 5.7002 18.2002 5.7002zM384 47.7998v288.4c0 8.59961 -9.09961 15.7998 -19.7998 15.7998h-312.4
c-10.7002 0 -19.7998 -7.2002 -19.7998 -15.7998v-288.4c0 -8.59961 9.09961 -15.7998 19.7998 -15.7998h312.4c10.7002 0 19.7998 7.2002 19.7998 15.7998zM544 63.5v256.5l-128 -81.5v-92.9004l126.8 -80.7998z" />
    <glyph glyph-name="leaf" unicode="&#xf06c;" horiz-adv-x="576" 
d="M546.2 438.3c19 -42.3994 29.7998 -94.3994 29.7998 -144.6c0 -172.5 -110.5 -313.2 -267.6 -324.601c-6.7002 -0.699219 -13.5 -1.09961 -20.4004 -1.09961c-73.2998 0 -136.9 41.0996 -169.3 101.4c-63.7002 -57.6006 -87.2002 -121.5 -87.6006 -122.7
c-3 -8.7002 -12.5 -12.6006 -20.3994 -9.7998c-8.2998 2.89941 -12.7002 12.0996 -9.7998 20.3994c0.5 1.2998 28.3994 77.7002 104.699 143c-6.19922 18.7998 -9.59961 38.7998 -9.59961 59.7002c0 106 86 192 192 192h80c63.4004 0 118.9 33.5996 149.9 87.5
c3.2998 5.7002 8.69922 8.5 14 8.5c5.69922 0 11.3994 -3.2002 14.2998 -9.7002zM305 0.900391c138.9 10.0996 239 133.199 239 292.8c0 34.7998 -5.7998 71.2002 -16.2998 103.5c-38.7002 -48.7998 -96.4004 -77.2002 -159.7 -77.2002h-80
c-88.2002 0 -160 -71.7998 -160 -160c0 -13.2998 2.09961 -26 5.2002 -38.4004c55.7998 39.4004 132 70.4004 234.8 70.4004c8.7998 0 16 -7.2002 16 -16s-7.2002 -16 -16 -16c-99.4004 0 -171.7 -31 -223.5 -69.4004c25.9004 -53.3994 80.2002 -90.5996 143.5 -90.5996
c5.40039 0 11.0996 0.299805 17 0.900391z" />
    <glyph glyph-name="comments" unicode="&#xf086;" horiz-adv-x="576" 
d="M569.9 6.90039c6.2998 -6.7002 8 -16.5 4.39941 -25c-3.7002 -8.5 -12 -14 -21.2002 -14c-53.5996 0 -96.6992 20.2998 -125.199 38.7998c-19 -4.40039 -39 -6.7998 -59.8008 -6.7998c-86.2998 0 -160.3 40.5 -191.8 98c-9.59961 1.09961 -18.8994 2.69922 -28 4.7998
c-28.5 -18.6006 -71.7002 -38.7998 -125.2 -38.7998c-9.19922 0 -17.5996 5.5 -21.1992 14c-3.7002 8.5 -1.90039 18.2998 4.39941 25c0.400391 0.399414 22.4004 24.1992 37.7002 54.8994c-27.5 27.2002 -44 61.2002 -44 98.2002c0 88.4004 93.0996 160 208 160
c86.2998 0 160.4 -40.5 191.8 -98.0996c99.7002 -11.8008 176.2 -77.9004 176.2 -157.9c0 -37.0996 -16.5 -71.0996 -44 -98.2002c15.2998 -30.7002 37.4004 -54.5 37.9004 -54.8994zM155.4 134c17.1992 -4 34.8994 -6 52.5996 -6c97 0 176 57.4004 176 128
s-79 128 -176 128s-176 -57.4004 -176 -128c0 -34.2002 18.7002 -59.9004 34.5 -75.4004l16.5 -16.2998l-10.4004 -20.7998c-9.2998 -18.7998 -20.6992 -35.0996 -29.5 -46.4004c37.2002 4.30078 67.6006 19.4004 87.7002 32.5l11.4004 7.40039zM445.2 33.5996
c20.0996 -13 50.5 -28.1992 87.5996 -32.3994c-8.7002 11.2002 -20.0996 27.5 -29.5 46.3994l-10.2998 20.7002l16.5 16.2998c15.7998 15.5 34.5 41.2002 34.5 75.4004c0 59.2998 -55.9004 109.2 -131.3 123.7c2 -9 3.2998 -18.2002 3.2998 -27.7002
c0 -86.4004 -89.0996 -156.6 -200.4 -159.8c30.4004 -38.4004 87.3008 -64.2998 152.4 -64.2998c17.7002 0 35.4004 2 52.5996 6l13.2002 3.09961z" />
    <glyph glyph-name="suitcase" unicode="&#xf0f2;" 
d="M464 320c26.5 0 48 -21.5 48 -48v-256c0 -26.5 -21.5 -48 -48 -48h-416c-26.5 0 -48 21.5 -48 48v256c0 26.5 21.5 48 48 48h112v48c0 26.4697 21.5303 48 48 48h96c26.4697 0 48 -21.5303 48 -48v-48h112zM192 368v-48h128v48c0 8.83008 -7.19043 16 -16 16h-96
c-8.80957 0 -16 -7.16992 -16 -16zM96 0v288h-48c-8.7998 0 -16 -7.2002 -16 -16v-256c0 -8.7998 7.2002 -16 16 -16h48zM384 0v288h-256v-288h256zM480 16v256c0 8.7998 -7.2002 16 -16 16h-48v-288h48c8.7998 0 16 7.2002 16 16z" />
    <glyph glyph-name="quote-left" unicode="&#xf10d;" 
d="M448 224c35.2998 0 64 -28.7002 64 -64v-128c0 -35.2998 -28.7002 -64 -64 -64h-112c-35.2998 0 -64 28.7002 -64 64v216c0 92.5996 75.4004 168 168 168h16c22.0996 0 40 -17.9004 40 -40v-32c0 -22.0996 -17.9004 -40 -40 -40h-16c-30.9004 0 -56 -25.0996 -56 -56v-24
h64zM480 32v128c0 17.7002 -14.2998 32 -32 32h-96v56c0 48.5996 39.4004 88 88 88h16c4.40039 0 8 3.59961 8 8v32c0 4.40039 -3.59961 8 -8 8h-16c-75.0996 0 -136 -60.9004 -136 -136v-216c0 -17.7002 14.2998 -32 32 -32h112c17.7002 0 32 14.2998 32 32zM176 224
c35.2998 0 64 -28.7002 64 -64v-128c0 -35.2998 -28.7002 -64 -64 -64h-112c-35.2998 0 -64 28.7002 -64 64v216c0 92.5996 75.4004 168 168 168h16c22.0996 0 40 -17.9004 40 -40v-32c0 -22.0996 -17.9004 -40 -40 -40h-16c-30.9004 0 -56 -25.0996 -56 -56v-24h64zM208 32
v128c0 17.7002 -14.2998 32 -32 32h-96v56c0 48.5996 39.4004 88 88 88h16c4.40039 0 8 3.59961 8 8v32c0 4.40039 -3.59961 8 -8 8h-16c-75.0996 0 -136 -60.9004 -136 -136v-216c0 -17.7002 14.2998 -32 32 -32h112c17.7002 0 32 14.2998 32 32z" />
    <glyph glyph-name="quote-right" unicode="&#xf10e;" 
d="M176 416c35.2998 0 64 -28.7002 64 -64v-216c0 -92.5996 -75.4004 -168 -168 -168h-16c-22.0996 0 -40 17.9004 -40 40v32c0 22.0996 17.9004 40 40 40h16c30.9004 0 56 25.0996 56 56v24h-64c-35.2998 0 -64 28.7002 -64 64v128c0 35.2998 28.7002 64 64 64h112z
M208 136v216c0 17.7002 -14.2998 32 -32 32h-112c-17.7002 0 -32 -14.2998 -32 -32v-128c0 -17.7002 14.2998 -32 32 -32h96v-56c0 -48.5996 -39.4004 -88 -88 -88h-16c-4.40039 0 -8 -3.59961 -8 -8v-32c0 -4.40039 3.59961 -8 8 -8h16c75.0996 0 136 60.9004 136 136z
M448 416c35.2998 0 64 -28.7002 64 -64v-216c0 -92.5996 -75.4004 -168 -168 -168h-16c-22.0996 0 -40 17.9004 -40 40v32c0 22.0996 17.9004 40 40 40h16c30.9004 0 56 25.0996 56 56v24h-64c-35.2998 0 -64 28.7002 -64 64v128c0 35.2998 28.7002 64 64 64h112zM480 136
v216c0 17.7002 -14.2998 32 -32 32h-112c-17.7002 0 -32 -14.2998 -32 -32v-128c0 -17.7002 14.2998 -32 32 -32h96v-56c0 -48.5996 -39.4004 -88 -88 -88h-16c-4.40039 0 -8 -3.59961 -8 -8v-32c0 -4.40039 3.59961 -8 8 -8h16c75.0996 0 136 60.9004 136 136z" />
    <glyph glyph-name="archive" unicode="&#xf187;" 
d="M464 416c26.5 0 48 -21.5 48 -48v-64c0 -8.7998 -7.2002 -16 -16 -16h-16v-272c0 -26.5 -21.5 -48 -48 -48h-352c-26.5 0 -48 21.5 -48 48v272h-16c-8.7998 0 -16 7.2002 -16 16v64c0 26.5 21.5 48 48 48h416zM448 16v272h-384v-272c0 -8.7998 7.2002 -16 16 -16h352
c8.7998 0 16 7.2002 16 16zM480 320v48c0 8.7998 -7.2002 16 -16 16h-416c-8.7998 0 -16 -7.2002 -16 -16v-48h448zM204 192c-6.59961 0 -12 5.40039 -12 12v8c0 6.59961 5.40039 12 12 12h104c6.59961 0 12 -5.40039 12 -12v-8c0 -6.59961 -5.40039 -12 -12 -12h-104z" />
    <glyph glyph-name="handshake" unicode="&#xf2b5;" horiz-adv-x="640" 
d="M16 128.2c-8.7998 0 -16 7.09961 -16 16c0 8.7998 7.2002 16 16 16s16 -7.2002 16 -16s-7.2002 -16 -16 -16zM632 320c4.40039 0 8 -3.5 8.09961 -8v-16c0 -4.40039 -3.59961 -8 -8 -8l-56 -0.200195v-191.7h56c4.40039 0 8 -3.59961 8 -8v-16
c0 -4.39941 -3.59961 -8 -8 -8h-56c-17.5 0 -31.7998 14.2002 -31.8994 31.7002h-48.6006c-0.899414 -9.09961 -4.2998 -18.0996 -10.5 -25.7002l-9.5 -11.6992c-17.0996 -21 -43.5996 -20.9004 -60 -12l-21.8994 -26.9004
c-10.2998 -12.5996 -25.4004 -19.5996 -41.4004 -19.5996c-12.2002 0 -23.8994 4.09961 -33.5 11.8994l-7.2002 6.2002c-29.1992 -23.5996 -71.1992 -24.2998 -101 -0.200195l-81.5 78h-33.1992c-0.100586 -17.5 -14.3008 -31.7002 -31.9004 -31.7002h-56
c-4.40039 0 -8 3.60059 -8 8v16c0 4.40039 3.59961 8 8 8h56v191.9h-56c-4.40039 0 -8 3.59961 -8 8v16c0 4.40039 3.59961 8 8 8h113.4l50 50c9 9 21.1992 14.0996 33.8994 14.0996h69.5c10.6006 0 20.9004 -3.7998 29.2998 -10.2998c8.2002 6.10059 17.9004 10 28.3008 10
h101c12.7998 0 24.7998 -5 33.8994 -14.0996l51.2002 -49.9004zM460.2 90.4004c5.5 6.7998 4.5 16.8994 -2.2998 22.5l-125.601 101.899l-22.7998 -20.8994c-38.2998 -35.1006 -82.5996 -11.4004 -96.9004 4.19922c-25.3994 27.7002 -24 71 4.2002 96.9004l59 54.2002
c-0.799805 2.2002 -0.200195 0.700195 -1.09961 2.89941h-69.5c-4.2002 0 -8.2998 -1.69922 -11.2998 -4.69922l-59.3008 -59.3008h-38.5996v-160.199h46l89.9004 -86.1006c19.5996 -15.7998 49.8994 -12.5996 66.5996 7.90039l10.4004 12.7998l30.5996 -26.0996
c8.40039 -6.80078 21.9004 -5.90039 29.4004 3.39941l41.5 51l17.7998 -14.3994c7.09961 -5.80078 17.0996 -4.30078 22.5 2.2998zM544 127.9v160.1h-38.7002l-60.7002 59.0996c-3.09961 3.10059 -7.09961 4.80078 -11.3994 4.80078h-101
c-4 0 -7.7998 -1.5 -10.7998 -4.2002l-83.1006 -76.2002c-14.8994 -13.7002 -15.7998 -36.9004 -2.2002 -51.7002c13.1006 -14.2002 37.3008 -15.2998 51.7002 -2.2002l75.1006 68.8008c6.5 5.89941 16.5996 5.5 22.5996 -1s5.5 -16.6006 -1 -22.6006l-28.4004 -26.0996
l121.9 -99c3.5 -2.90039 6.2998 -6.2998 8.7998 -9.7998h57.2002zM624 160.1c8.7998 0 16 -7.09961 16 -16c0 -8.7998 -7.2002 -16 -16 -16s-16 7.2002 -16 16c0 8.80078 7.2002 16 16 16z" />
    <glyph glyph-name="usd-square" unicode="&#xf2e9;" horiz-adv-x="448" 
d="M264.3 197.3c25.9004 -7.2998 43.9004 -30.8994 44 -57.5c0 -33 -27.2002 -59.7998 -60.5 -59.7998h-7.7998v-40c0 -4.40039 -3.59961 -8 -8 -8h-16c-4.40039 0 -8 3.59961 -8 8v40h-5.2002c-19 0 -37 6.2998 -51.5996 17.9004c-3.7998 3 -4.2002 8.59961 -0.799805 12
l11.2998 11.5c2.7998 2.7998 7.2002 3.19922 10.3994 0.799805c8.7002 -6.5 19.4004 -10.1006 30.6006 -10.1006h45c15.7002 0 28.5 12.5 28.5 27.8008c0 12.2998 -8.5 23.2998 -20.6006 26.6992l-72 20.2002c-25.7998 7.2998 -43.8994 30.9004 -43.8994 57.5
c0 33 27.2002 59.7998 60.5 59.7998h7.7998v40c0 4.40039 3.59961 8 8 8h16c4.40039 0 8 -3.59961 8 -8v-40h5.09961c19 0 37 -6.2998 51.6006 -17.8994c3.7998 -3 4.2002 -8.60059 0.799805 -12l-11.2998 -11.5c-2.7998 -2.7998 -7.2002 -3.2002 -10.4004 -0.799805
c-8.7002 6.5 -19.3994 10.0996 -30.5996 10.0996h-45c-15.7002 0 -28.5 -12.5 -28.5 -27.7998c0 -12.2998 8.5 -23.2998 20.5996 -26.7002zM400 416c26.5 0 48 -21.5 48 -48v-352c0 -26.5 -21.5 -48 -48 -48h-352c-26.5 0 -48 21.5 -48 48v352c0 26.5 21.5 48 48 48h352z
M416 16v352c0 8.7998 -7.2002 16 -16 16h-352c-8.7998 0 -16 -7.2002 -16 -16v-352c0 -8.7998 7.2002 -16 16 -16h352c8.7998 0 16 7.2002 16 16z" />
    <glyph glyph-name="poo" unicode="&#xf2fe;" 
d="M343.7 80c5.7998 0 9.7998 -5.7002 7.7998 -11c-10.5 -27.9004 -58.4004 -53 -95.5 -53s-85 25.0996 -95.5 53c-2 5.2998 2 11 7.7998 11h175.4zM192 128c-17.7002 0 -32 14.2998 -32 32s14.2998 32 32 32s32 -14.2998 32 -32s-14.2998 -32 -32 -32zM320 192
c17.7002 0 32 -14.2998 32 -32s-14.2998 -32 -32 -32s-32 14.2998 -32 32s14.2998 32 32 32zM476.2 105.3c22 -17.3994 35.7998 -44.2998 35.7998 -74.2998c0 -52.4004 -42.5996 -95 -95 -95h-322c-52.4004 0 -95 42.5996 -95 95c0 30 13.7998 56.9004 35.7998 74.2998
c-5.09961 11.7002 -7.7998 24.5 -7.7998 37.7002c0 39.2002 23.9004 72.9004 57.7998 87.4004c-1.2002 5.7998 -1.7998 11.6992 -1.7998 17.5996c0 48.5 39.5 88 88 88h14c21 0 38 17 38 38c0 9.90039 -3.90039 17.4004 -7.2002 22c-6.39941 9 -7.7998 20.7998 -3.5 31
c4.2998 10.2998 13.5 17.5996 24.5 19.2998c5.5 0.799805 11.4004 1.7002 18.2002 1.7002c64 0 116 -52 116 -116v-2c32.7002 -12.7998 56 -44.7998 56 -82c0 -6 -0.599609 -11.9004 -1.7998 -17.5996c33.8994 -14.5 57.7998 -48.2002 57.7998 -87.4004
c0 -13.2002 -2.7002 -26 -7.7998 -37.7002zM417 -32c34.7998 0 63 28.2002 63 63c0 31.4004 -23.0996 57.2002 -53.0996 62c15.1992 11.5 25.0996 29.5 25.0996 50c0 34.7998 -28.2002 63 -63 63h-12.2998c11.7002 10.2998 19.2998 25.2002 19.2998 42
c0 30.9004 -25.0996 56 -56 56h-5.09961c3.09961 8.7998 5.09961 18.0996 5.09961 28c0 46.4004 -37.5996 84 -84 84c-4.5 0 -8.90039 -0.599609 -13.2002 -1.2998c8.2002 -11.5 13.2002 -25.5 13.2002 -40.7002c0 -38.7002 -31.2998 -70 -70 -70h-14
c-30.9004 0 -56 -25.0996 -56 -56c0 -16.7998 7.59961 -31.7002 19.2998 -42h-12.2998c-34.7998 0 -63 -28.2002 -63 -63c0 -20.5 9.90039 -38.5 25.0996 -50c-30.0996 -4.7998 -53.0996 -30.5996 -53.0996 -62c0 -34.7998 28.2002 -63 63 -63h322z" />
    <glyph glyph-name="phone-slash" unicode="&#xf3dd;" horiz-adv-x="640" 
d="M637 -37.2002c3.40039 -2.7998 4 -7.7998 1.2002 -11.3994l-10 -12.5c-2.7002 -3.40039 -7.7998 -4 -11.2002 -1.2002l-172 135.5l-6.40039 5l-69 54.2998l-10.8994 8.59961l-355.7 280.101c-3.40039 2.7998 -4 7.7998 -1.2002 11.2998l10 12.5
c2.7002 3.40039 7.7998 4 11.2002 1.2002l365.6 -287.9l17.4004 -13.7002l35.4004 -27.7998l21.1992 -16.7002zM431.6 240l-54 44.0996c-10.6992 8.80078 -14.3994 23.8008 -8.89941 36.5l46.5 108.5c6 13.9004 21.0996 21.5 35.7998 18.1006l100.8 -23.2998
c14.2002 -3.2002 24.2002 -15.8008 24.2002 -30.4004c0 -101.9 -33.5996 -195.4 -89.7002 -271.5l-25.0996 19.7998c51.7002 70.4004 82.7002 157 82.7998 251l-99.5996 23l-46 -107.399l72.7998 -59.5c-14.2002 -30.1006 -29.2002 -55.9004 -45.6006 -79l-24.5996 19.3994
c11.5996 16 21.7998 32.9004 30.5996 50.7002zM119.1 -32c105.801 0.0996094 202.4 39.0996 276.601 103.2l25.5 -20c-80.7998 -71.4004 -186.7 -115.101 -302.8 -115.101c-14.6006 0 -27.1006 9.90039 -30.4004 24.2002l-23.2002 100.7
c-3.39941 14.7002 4.2002 29.7002 18.1006 35.7002l108.5 46.5996c12.6992 5.5 27.6992 1.7998 36.5 -8.89941l44.0996 -53.9004c22.0996 10.9004 42.7998 24.2998 62 39.4004l25.7998 -20.4004c-27.2002 -21.9004 -58.7002 -40.7998 -96.7998 -58.7002l-59.5 72.7998
l-107.4 -46z" />
    <glyph glyph-name="hand-holding-box" unicode="&#xf47b;" horiz-adv-x="576" 
d="M112 192c-8.7998 0 -16 7.2002 -16 16v224c0 8.7998 7.2002 16 16 16h352c8.7998 0 16 -7.2002 16 -16v-224c0 -8.7998 -7.2002 -16 -16 -16h-352zM256 416v-76.2002l32 16l32 -16v76.2002h-64zM128 416v-192h320v192h-96v-128l-64 32l-64 -32v128h-96zM558.3 114.4
c11.7002 -10.6006 18.2002 -25.8008 17.7002 -41.4004s-7.7998 -30.2002 -20 -40l-100.9 -80.7002c-13.1992 -10.5996 -29.5996 -16.3994 -46.5996 -16.3994h-400.5c-4.40039 0 -8 3.59961 -8 8v16c0 4.39941 3.59961 8 8 8h400.5c9.7002 0 19.0996 3.19922 26.7002 9.2998
l100.8 80.7002c10.2002 8.09961 11 23.5 0.900391 32.5996c-3.90039 3.5 -8.80078 5.2002 -13.8008 5.2002c-5.09961 0 -10.3994 -1.7998 -14.5996 -5.2002l-61.5996 -49.2002c-7.60059 -6 -17 -9.2998 -26.7002 -9.2998h-180.2c-8.7998 0 -16 7.2002 -16 16
s7.2002 16 16 16h88c13.2998 0 24 10.7002 24 24s-10.7002 24 -24 24h-146.7c-13.7998 0 -27.2998 -4.5 -38.3994 -12.7998l-46.9004 -35.2002h-88c-4.40039 0 -8 3.59961 -8 8v16c0 4.40039 3.59961 8 8 8h77.2998l38.4004 28.7998
c16.5996 12.5 36.7998 19.2002 57.5996 19.2002h144.3c28.2002 0 53.8008 -19.7998 57.8008 -47.7002c1.69922 -11.5996 -0.200195 -22.7002 -4.80078 -32.2998h41.6006c2.5 0 4.7998 0.799805 6.7002 2.2998l61.5996 49.2998
c9.7998 7.90039 22.0996 12.2002 34.5996 12.2002c13.1006 0 25.6006 -4.7998 35.2002 -13.3994z" />
    <glyph glyph-name="hand-receiving" unicode="&#xf47c;" horiz-adv-x="640" 
d="M439.2 342.4c12.3994 -12.4004 12.3994 -32.4004 0.0996094 -44.8008l-96.3994 -96.3994c-6.2002 -6.2002 -14.3008 -9.2998 -22.4004 -9.2998s-16.2002 3.09961 -22.4004 9.2998l-96.3994 96.3994c-12.2998 12.3008 -12.2998 32.4004 0 44.7002l96.3994 96.4004
c6.2002 6.2002 14.3008 9.2998 22.4004 9.2998s16.2002 -3.09961 22.4004 -9.2998zM320.5 223.6l96.2998 96.4004l-96.3994 96.4004l-96.3008 -96.4004zM220 199.2l42.5 -58.5c16.5996 -22.2002 25.5996 -49.1006 25.5996 -76.7998v-120c0 -4.40039 -3.59961 -8 -8 -8h-16
c-4.39941 0 -8 3.59961 -8 8v120c0 20.5996 -6.7998 41.0996 -19.5 58l-42.3994 58.3994c-5.2998 7.2998 -15.4004 8.60059 -22.4004 3.5c-7.7002 -5.59961 -8.2002 -15.7998 -3.5 -22.2998l30.6006 -42.2002c0.0996094 -0.299805 0.299805 -0.5 0.5 -0.799805
c26 -39.7002 -33.9004 -86.5996 -70.8008 -42.4004l-64.5996 77.5v149.7c0 22.2998 -32 21.7002 -32 0.700195v-170.4c0 -3.59961 1.2002 -7.19922 3.5 -10l107 -133.699c9.59961 -11.9004 15.5 -29.2002 17.0996 -45.2002c0.5 -4.7998 -3.19922 -8.7002 -8 -8.7002h-16
c-4 0 -7.5 2.90039 -8 6.90039c-1.19922 9.5 -4.69922 20.1992 -10.0996 27l-107 133.699c-6.7998 8.5 -10.5 19.1006 -10.5 30v170.4c0 26.7998 21.9004 48.4004 48.7998 47.9004c26 -0.400391 47.2002 -23.7002 47.2002 -49.7002v-137.101l62 -73.2998
c7.09961 -8.39941 20.0996 1.7998 13.5996 10.7002l-28.5996 39.2998c-13.4004 18.5 -13.0996 44.5 2.5 61.2998c25.4004 27.5 60.5 15.3008 74.5 -3.89941zM640 304l0.0996094 -170.3c0 -10.9004 -3.69922 -21.5 -10.5 -30l-107 -133.7
c-5.5 -6.7998 -8.89941 -17.4004 -10.0996 -27c-0.5 -4 -4 -6.90039 -8 -6.90039h-16c-4.7998 0 -8.5 3.90039 -8 8.7002c1.59961 16 7.59961 33.2998 17.0996 45.2002l107 133.7c2.30078 2.7998 3.5 6.39941 3.5 10v170.399c0 21 -32 21.6006 -32 -0.699219v-149.7
l-64.5996 -77.5c-36.9004 -44.2998 -96.9004 2.7002 -70.7998 42.3994c0.0996094 0.300781 0.299805 0.5 0.5 0.800781l30.5996 42.1992c4.7998 6.5 4.2998 16.7002 -3.5 22.3008c-7.09961 5.19922 -17.0996 3.7998 -22.3994 -3.5l-42.4004 -58.4004
c-12.7002 -16.9004 -19.5 -37.4004 -19.5 -58v-120c0 -4.40039 -3.59961 -8 -8 -8h-16c-4.40039 0 -8 3.59961 -8 8v120c0 27.7002 9 54.7002 25.5996 76.9004l42.4004 58.3994c13.9004 19.2002 49 31.2998 74.5 3.90039c15.5996 -16.7002 15.9004 -42.7998 2.5 -61.2998
l-28.5996 -39.3008c-6.5 -9 6.5 -19.0996 13.5996 -10.6992l62 73.2998v137.1c0 26 21.2002 49.2998 47.2002 49.7002c26.8994 0.400391 48.7998 -21.2002 48.7998 -48z" />
    <glyph glyph-name="blanket" unicode="&#xf498;" 
d="M446.2 64c15.8994 0 30.7998 10.9004 33.3994 26.5996c3.30078 20 -12.1992 37.4004 -31.5996 37.4004h-336c-46.7998 0 -84.2998 -40.2998 -79.5996 -88c4.09961 -41.5996 41.3994 -72 83.1992 -72h388.4c4.40039 0 8 -3.59961 8 -8v-16c0 -4.40039 -3.59961 -8 -8 -8
h-392c-61.9004 0 -112 50.0996 -112 112v320c0 44.2002 35.7998 80 80 80h352c44.2002 0 80 -35.7998 80 -80v-272c0 -35.2998 -28.7002 -64 -64 -64h-344c-4.40039 0 -8 3.59961 -8 8v16c0 4.40039 3.59961 8 8 8h342.2zM448 160c11.7002 0 22.5 -3.40039 32 -8.90039
v216.9c0 26.5 -21.5 48 -48 48h-352c-26.5 0 -48 -21.5 -48 -48v-241.9c20.4004 20.9004 48.5996 33.9004 80 33.9004h336z" />
    <glyph glyph-name="box-alt" unicode="&#xf49a;" horiz-adv-x="448" 
d="M447.9 272c0 -60.5996 0.0996094 -272 0.0996094 -272c0 -17.7002 -14.2998 -32 -32 -32h-384c-17.7002 0 -32 14.2998 -32 32c0 0 0.0996094 211.4 0 271.9c0 10.5996 2.59961 21 7.59961 30.2998l49.1006 91.8994c4.39941 13.1006 16.5996 21.9004 30.3994 21.9004
h273.801c13.7998 0 26 -8.7998 30.2998 -21.7998l49.0996 -91.9004c5 -9.2998 7.60059 -19.7002 7.60059 -30.2998zM360.9 384h-86.8008l12 -96h125.601zM192 256v-64h64v64h-64zM241.9 384h-35.8008l-12 -96h59.8008zM87.0996 384l-50.7998 -96h125.601l12 96h-86.8008z
M32 0h384s-0.0996094 181.1 -0.0996094 256h-127.9v-64c0 -17.7002 -14.2998 -32 -32 -32h-64c-17.7002 0 -32 14.2998 -32 32v64h-127.9c0 -74.9004 -0.0996094 -256 -0.0996094 -256z" />
    <glyph glyph-name="box-fragile" unicode="&#xf49b;" horiz-adv-x="448" 
d="M392 416c30.9004 0 56 -25.0996 56 -56v-336c0 -30.9004 -25.0996 -56 -56 -56h-336c-30.9004 0 -56 25.0996 -56 56v336c0 30.9004 25.0996 56 56 56h336zM416 24v336c0 13.2002 -10.7998 24 -24 24h-336c-13.2002 0 -24 -10.7998 -24 -24v-336
c0 -13.2002 10.7998 -24 24 -24h336c13.2002 0 24 10.7998 24 24zM304 352c17.7002 0 32 -14.2998 32 -32v-80c0 -56.4004 -41.7998 -102.6 -96 -110.4v-65.5996h40c4.40039 0 8 -3.59961 8 -8v-16c0 -4.40039 -3.59961 -8 -8 -8h-112c-4.40039 0 -8 3.59961 -8 8v16
c0 4.40039 3.59961 8 8 8h40v65.5996c-54.2002 7.80078 -96 54 -96 110.4v80c0 17.7002 14.2998 32 32 32h160zM304 240v80h-55.5996c2.5 -5.90039 11.5996 -28 11.5996 -28l-28.5996 -28.2998s20.8994 -21.2002 29.7998 -33.7002
c2.59961 -3.7002 1.7002 -8.7998 -2 -11.4004c-2.5 -1.69922 -5.60059 -1.89941 -8.2002 -0.699219c-19.5996 9 -67.2002 43.7998 -67.2002 43.7998s28.4004 30.2998 36.2998 38.3994c-2.5 6.60059 -5 13.2002 -7.2998 19.9004h-68.7998v-80c0 -44.0996 35.9004 -80 80 -80
s80 35.9004 80 80z" />
    <glyph glyph-name="box-heart" unicode="&#xf49d;" horiz-adv-x="448" 
d="M447.9 272c0 -60.5996 0.0996094 -272 0.0996094 -272c0 -17.7002 -14.2998 -32 -32 -32h-384c-17.7002 0 -32 14.2998 -32 32c0 0 0.0996094 211.4 0 271.9c0 10.5996 2.59961 21 7.59961 30.2998l49.1006 91.8994c4.39941 13.1006 16.5996 21.9004 30.3994 21.9004
h273.801c13.7998 0 26 -8.7998 30.2998 -21.7998l49.0996 -91.9004c5 -9.2998 7.60059 -19.7002 7.60059 -30.2998zM240 384v-96h171.7l-50.7998 96h-120.9zM87.0996 384l-50.7998 -96h171.7v96h-120.9zM224 0h192.1s-0.0996094 181.1 -0.0996094 256h-383.9
c0 -74.9004 -0.0996094 -256 -0.0996094 -256h192zM314.2 210.8c27.5 -23 29 -64.2002 4.5 -89.0996l-84.7002 -85.6006c-5.5 -5.5 -14.2998 -5.5 -19.7998 0l-84.7002 85.6006c-24.5996 24.8994 -23.2002 66.0996 4.2998 89.0996
c13.7998 11.6006 47.6006 28.5 90.2002 -14.5c42.5 43 76.2998 26.1006 90.2002 14.5zM295.8 144.3c10.2998 10.2998 12.2998 29.9004 -1.89941 41.9004c-13.8008 11.5 -31.3008 3.5 -38.4004 -3.7002l-31.4004 -31.7002l-31.3994 31.7002
c-7.2002 7.09961 -24.7002 15.2002 -38.4004 3.7002c-14.3994 -12 -12.2998 -31.7002 -2.09961 -42l71.7998 -72.6006z" />
    <glyph glyph-name="box-up" unicode="&#xf49f;" 
d="M408 64c4.40039 0 8 -3.59961 8 -8v-16c0 -4.40039 -3.59961 -8 -8 -8h-304c-4.40039 0 -8 3.59961 -8 8v16c0 4.40039 3.59961 8 8 8h304zM448 448c35.2998 0 64 -28.7002 64 -64v-384c0 -35.2998 -28.7002 -64 -64 -64h-384c-35.2998 0 -64 28.7002 -64 64v384
c0 35.2998 28.7002 64 64 64h384zM480 0v384c0 17.5996 -14.4004 32 -32 32h-384c-17.5996 0 -32 -14.4004 -32 -32v-384c0 -17.5996 14.4004 -32 32 -32h384c17.5996 0 32 14.4004 32 32zM108.5 246c-5.5 -6.90039 -15.5996 -8 -22.5 -2.5s-8 15.5996 -2.5 22.5l64 80
c6.09961 7.59961 18.9004 7.59961 25 0l64 -80c5.5 -6.90039 4.40039 -17 -2.5 -22.5c-8 -6.2998 -17.9004 -3.2998 -22.5 2.5l-35.5 44.4004v-154.4c0 -4.40039 -3.59961 -8 -8 -8h-16c-4.40039 0 -8 3.59961 -8 8v154.4zM364.5 346l64 -80
c5.5 -6.90039 4.40039 -17 -2.5 -22.5c-8 -6.2998 -17.9004 -3.2998 -22.5 2.5l-35.5 44.4004v-154.4c0 -4.40039 -3.59961 -8 -8 -8h-16c-4.40039 0 -8 3.59961 -8 8v154.4l-35.5 -44.4004c-5.5 -6.90039 -15.5996 -8 -22.5 -2.5s-8 15.5996 -2.5 22.5l64 80
c6.09961 7.59961 18.9004 7.59961 25 0z" />
    <glyph glyph-name="box-usd" unicode="&#xf4a0;" horiz-adv-x="448" 
d="M249.4 137.1c17.5996 -5.2998 30 -22.2998 30 -41.1992c0 -22.9004 -17.5 -41.2002 -39.4004 -42.5v-13.4004c0 -4.40039 -3.59961 -8 -8 -8h-16c-4.40039 0 -8 3.59961 -8 8v13.2998c-10.0996 0.700195 -19.9004 4.2998 -28.0996 10.2998
c-3.90039 2.90039 -4 8.7002 -0.5 12.1006l11.3994 10.8994c2.7002 2.60059 6.7998 3.30078 10 1.40039c3.2998 -2 7.10059 -3.09961 11 -3.09961h25.9004c5.39941 0 9.7002 4.89941 9.7002 10.8994c0 5 -3 9.2998 -7.2002 10.6006l-41.6006 12.5
c-17.6992 5.2998 -30 22.1992 -30 41.1992c0 22.9004 17.5 41.2002 39.4004 42.5v13.4004c0 4.40039 3.59961 8 8 8h16c4.40039 0 8 -3.59961 8 -8v-13.2998c10.0996 -0.700195 19.9004 -4.2998 28.0996 -10.2998c3.90039 -2.90039 4 -8.7002 0.5 -12.1006
l-11.3994 -10.8994c-2.7002 -2.60059 -6.7998 -3.30078 -10 -1.40039c-3.2998 2 -7.10059 3.09961 -11 3.09961h-25.9004c-5.39941 0 -9.7002 -4.89941 -9.7002 -10.8994c0 -5 3 -9.2998 7.2002 -10.6006zM447.9 272c0 -60.5996 0.0996094 -272 0.0996094 -272
c0 -17.7002 -14.2998 -32 -32 -32h-384c-17.7002 0 -32 14.2998 -32 32c0 0 0.0996094 211.4 0 271.9c0 10.5996 2.59961 21 7.59961 30.2998l49.1006 91.8994c4.39941 13.1006 16.5996 21.9004 30.3994 21.9004h273.801c13.7998 0 26 -8.7998 30.2998 -21.7998
l49.0996 -91.9004c5 -9.2998 7.60059 -19.7002 7.60059 -30.2998zM240 384v-96h171.7l-50.7998 96h-120.9zM87.0996 384l-50.7998 -96h171.7v96h-120.9zM32 0h384.1s-0.0996094 181.1 -0.0996094 256h-383.9c0 -74.9004 -0.0996094 -256 -0.0996094 -256z" />
    <glyph glyph-name="boxes-alt" unicode="&#xf4a1;" horiz-adv-x="640" 
d="M624 224c8.7998 0 16 -7.2002 16 -16v-256c0 -8.7998 -7.2002 -16 -16 -16h-608c-8.7998 0 -16 7.2002 -16 16v256c0 8.7998 7.2002 16 16 16h144v208c0 8.7998 7.2002 16 16 16h288c8.7998 0 16 -7.2002 16 -16v-208h144zM512 192h-64v-64h64v64zM288 416v-64h64v64h-64
zM192 416v-192h256v192h-64v-64c0 -17.7002 -14.2998 -32 -32 -32h-64c-17.7002 0 -32 14.2998 -32 32v64h-64zM128 192v-64h64v64h-64zM304 -32v224h-80v-64c0 -17.7002 -14.2998 -32 -32 -32h-64c-17.7002 0 -32 14.2998 -32 32v64h-64v-224h272zM608 -32v224h-64v-64
c0 -17.7002 -14.2998 -32 -32 -32h-64c-17.7002 0 -32 14.2998 -32 32v64h-80v-224h272z" />
    <glyph glyph-name="comment-alt-check" unicode="&#xf4a2;" 
d="M448 448c35.2998 0 64 -28.7002 64 -64v-288c0 -35.2998 -28.7002 -64 -64 -64h-144l-124.9 -93.5996c-2.19922 -1.7002 -4.69922 -2.40039 -7.09961 -2.40039c-6.2002 0 -12 4.90039 -12 12v84h-96c-35.2998 0 -64 28.7002 -64 64v288c0 35.2998 28.7002 64 64 64h384z
M480 96v288c0 17.5996 -14.4004 32 -32 32h-384c-17.5996 0 -32 -14.4004 -32 -32v-288c0 -17.5996 14.4004 -32 32 -32h128v-76l92.7998 69.5996l8.5 6.40039h154.7c17.5996 0 32 14.4004 32 32zM345.3 313.5l11.4004 -11.2002
c3.09961 -3.09961 3.09961 -8.2002 0 -11.2998l-124.5 -124.5c-1.60059 -1.5 -3.60059 -2.2998 -5.7002 -2.2998s-4.09961 0.700195 -5.7002 2.2998l-65.5 65.5c-3.09961 3.09961 -3.09961 8.2002 0 11.2998l11.2998 11.2998c1.60059 1.5 3.7002 2.30078 5.7002 2.30078
c2.10059 0 4.10059 -0.700195 5.7002 -2.30078l48.5 -48.5l107.4 107.4c1.59961 1.5 3.69922 2.2998 5.69922 2.2998c2.10059 0 4.10059 -0.700195 5.7002 -2.2998z" />
    <glyph glyph-name="comment-alt-dots" unicode="&#xf4a3;" 
d="M448 448c35.2998 0 64 -28.7002 64 -64v-288c0 -35.2998 -28.7002 -64 -64 -64h-144l-124.9 -93.5996c-2.19922 -1.7002 -4.69922 -2.40039 -7.09961 -2.40039c-6.2002 0 -12 4.90039 -12 12v84h-96c-35.2998 0 -64 28.7002 -64 64v288c0 35.2998 28.7002 64 64 64h384z
M480 96v288c0 17.5996 -14.4004 32 -32 32h-384c-17.5996 0 -32 -14.4004 -32 -32v-288c0 -17.5996 14.4004 -32 32 -32h128v-76l92.7998 69.5996l8.5 6.40039h154.7c17.5996 0 32 14.4004 32 32zM128 264c13.2998 0 24 -10.7002 24 -24s-10.7002 -24 -24 -24
s-24 10.7002 -24 24s10.7002 24 24 24zM256 264c13.2998 0 24 -10.7002 24 -24s-10.7002 -24 -24 -24s-24 10.7002 -24 24s10.7002 24 24 24zM384 264c13.2998 0 24 -10.7002 24 -24s-10.7002 -24 -24 -24s-24 10.7002 -24 24s10.7002 24 24 24z" />
    <glyph glyph-name="comment-alt-edit" unicode="&#xf4a4;" 
d="M448 448c35.2998 0 64 -28.7002 64 -64v-288c0 -35.2998 -28.7002 -64 -64 -64h-144l-124.9 -93.5996c-2.19922 -1.7002 -4.69922 -2.40039 -7.09961 -2.40039c-6.2002 0 -12 4.90039 -12 12v84h-96c-35.2998 0 -64 28.7002 -64 64v288c0 35.2998 28.7002 64 64 64h384z
M480 96v288c0 17.5996 -14.4004 32 -32 32h-384c-17.5996 0 -32 -14.4004 -32 -32v-288c0 -17.5996 14.4004 -32 32 -32h128v-76l92.7998 69.5996l8.5 6.40039h154.7c17.5996 0 32 14.4004 32 32zM336 342.6l22.5996 -22.5996c12.5 -12.4004 12.5 -32.7002 0 -45.2002
l-126.1 -126.1c-2 -2 -4.5 -3.5 -7.2998 -4.2002l-61.2002 -16c-1.2998 -0.299805 -2.7002 -0.5 -4 -0.5c-4.2002 0 -8.2998 1.7002 -11.2998 4.7002c-4.10059 4.09961 -5.60059 9.89941 -4.2002 15.3994l16 61.2002c0.799805 2.7998 2.2002 5.2998 4.2002 7.2998l126.1 126
c12.4004 12.5 32.7002 12.5 45.2002 0zM213 174.4l75 75l-22.5996 22.5996l-75 -75l-8 -30.5996zM310.6 272l25.4004 25.4004l-22.5996 22.5996l-25.4004 -25.4004z" />
    <glyph glyph-name="comment-alt-exclamation" unicode="&#xf4a5;" 
d="M448 448c35.2998 0 64 -28.7002 64 -64v-288c0 -35.2998 -28.7002 -64 -64 -64h-144l-124.9 -93.5996c-2.19922 -1.7002 -4.69922 -2.40039 -7.09961 -2.40039c-6.2002 0 -12 4.90039 -12 12v84h-96c-35.2998 0 -64 28.7002 -64 64v288c0 35.2998 28.7002 64 64 64h384z
M480 96v288c0 17.5996 -14.4004 32 -32 32h-384c-17.5996 0 -32 -14.4004 -32 -32v-288c0 -17.5996 14.4004 -32 32 -32h128v-76l92.7998 69.5996l8.5 6.40039h154.7c17.5996 0 32 14.4004 32 32zM256 184c13.2998 0 24 -10.7002 24 -24s-10.7002 -24 -24 -24
s-24 10.7002 -24 24s10.7002 24 24 24zM247.5 208c-4.2002 0 -7.7002 3.2998 -8 7.5l-7 112c-0.299805 4.59961 3.40039 8.5 8 8.5h31c4.59961 0 8.2998 -3.90039 8 -8.5l-7 -112c-0.299805 -4.2002 -3.7998 -7.5 -8 -7.5h-17z" />
    <glyph glyph-name="comment-alt-lines" unicode="&#xf4a6;" 
d="M448 448c35.2998 0 64 -28.7002 64 -64v-288c0 -35.2998 -28.7002 -64 -64 -64h-144l-124.9 -93.5996c-2.19922 -1.7002 -4.69922 -2.40039 -7.09961 -2.40039c-6.2002 0 -12 4.90039 -12 12v84h-96c-35.2998 0 -64 28.7002 -64 64v288c0 35.2998 28.7002 64 64 64h384z
M480 96v288c0 17.5996 -14.4004 32 -32 32h-384c-17.5996 0 -32 -14.4004 -32 -32v-288c0 -17.5996 14.4004 -32 32 -32h128v-76l92.7998 69.5996l8.5 6.40039h154.7c17.5996 0 32 14.4004 32 32zM280 208c4.40039 0 8 -3.59961 8 -8v-16c0 -4.40039 -3.59961 -8 -8 -8h-144
c-4.40039 0 -8 3.59961 -8 8v16c0 4.40039 3.59961 8 8 8h144zM376 304c4.40039 0 8 -3.59961 8 -8v-16c0 -4.40039 -3.59961 -8 -8 -8h-240c-4.40039 0 -8 3.59961 -8 8v16c0 4.40039 3.59961 8 8 8h240z" />
    <glyph glyph-name="comment-alt-minus" unicode="&#xf4a7;" 
d="M448 448c35.2998 0 64 -28.7002 64 -64v-288c0 -35.2998 -28.7002 -64 -64 -64h-144l-124.9 -93.5996c-2.19922 -1.7002 -4.69922 -2.40039 -7.09961 -2.40039c-6.2002 0 -12 4.90039 -12 12v84h-96c-35.2998 0 -64 28.7002 -64 64v288c0 35.2998 28.7002 64 64 64h384z
M480 96v288c0 17.5996 -14.4004 32 -32 32h-384c-17.5996 0 -32 -14.4004 -32 -32v-288c0 -17.5996 14.4004 -32 32 -32h128v-76l92.7998 69.5996l8.5 6.40039h154.7c17.5996 0 32 14.4004 32 32zM344 256c4.40039 0 8 -3.59961 8 -8v-16c0 -4.40039 -3.59961 -8 -8 -8h-176
c-4.40039 0 -8 3.59961 -8 8v16c0 4.40039 3.59961 8 8 8h176z" />
    <glyph glyph-name="comment-alt-plus" unicode="&#xf4a8;" 
d="M448 448c35.2998 0 64 -28.7002 64 -64v-288c0 -35.2998 -28.7002 -64 -64 -64h-144l-124.9 -93.5996c-2.19922 -1.7002 -4.69922 -2.40039 -7.09961 -2.40039c-6.2002 0 -12 4.90039 -12 12v84h-96c-35.2998 0 -64 28.7002 -64 64v288c0 35.2998 28.7002 64 64 64h384z
M480 96v288c0 17.5996 -14.4004 32 -32 32h-384c-17.5996 0 -32 -14.4004 -32 -32v-288c0 -17.5996 14.4004 -32 32 -32h128v-76l92.7998 69.5996l8.5 6.40039h154.7c17.5996 0 32 14.4004 32 32zM344 256c4.40039 0 8 -3.59961 8 -8v-16c0 -4.40039 -3.59961 -8 -8 -8h-72
v-72c0 -4.40039 -3.59961 -8 -8 -8h-16c-4.40039 0 -8 3.59961 -8 8v72h-72c-4.40039 0 -8 3.59961 -8 8v16c0 4.40039 3.59961 8 8 8h72v72c0 4.40039 3.59961 8 8 8h16c4.40039 0 8 -3.59961 8 -8v-72h72z" />
    <glyph glyph-name="comment-alt-slash" unicode="&#xf4a9;" horiz-adv-x="640" 
d="M637 -37.2002c3.40039 -2.7998 4 -7.7998 1.2002 -11.2998l-10 -12.5c-2.7002 -3.40039 -7.7998 -4 -11.2002 -1.2002l-144.4 113.7l-15.8994 12.5l-360.7 284l-32 25.2002l-61 48c-3.40039 2.7998 -4 7.7998 -1.2002 11.2998l10 12.5
c2.7002 3.40039 7.7998 4 11.2002 1.2002l46.4004 -36.5l5.19922 -4.10059l443.2 -349l22.5 -17.6992zM368 64h11.0996l40.6006 -32h-51.7002l-124.9 -93.5996c-2.19922 -1.7002 -4.69922 -2.40039 -7.09961 -2.40039c-6.2002 0 -12 4.90039 -12 12v84h-96
c-35.2998 0 -64 28.7002 -64 64v216.1l32 -25.1992v-190.9c0 -17.5996 14.4004 -32 32 -32h128v-76l92.7998 69.5996l8.5 6.40039h10.7002zM512 416h-373l-34.7002 27.2998c7.2998 3 15.2998 4.7002 23.7002 4.7002h384c35.2998 0 64 -28.7002 64 -64v-288
c0 -7.40039 -1.5 -14.5 -3.7998 -21.0996l-28.2002 22.1992v286.9c0 17.5996 -14.4004 32 -32 32z" />
    <glyph glyph-name="comment-alt-smile" unicode="&#xf4aa;" 
d="M448 448c35.2998 0 64 -28.7002 64 -64v-288c0 -35.2998 -28.7002 -64 -64 -64h-144l-124.9 -93.5996c-2.19922 -1.7002 -4.69922 -2.40039 -7.09961 -2.40039c-6.2002 0 -12 4.90039 -12 12v84h-96c-35.2998 0 -64 28.7002 -64 64v288c0 35.2998 28.7002 64 64 64h384z
M480 96v288c0 17.5996 -14.4004 32 -32 32h-384c-17.5996 0 -32 -14.4004 -32 -32v-288c0 -17.5996 14.4004 -32 32 -32h128v-76l92.7998 69.5996l8.5 6.40039h154.7c17.5996 0 32 14.4004 32 32zM331.8 210.7c5.7998 6.7002 15.9004 7.5 22.6006 1.7998
c6.69922 -5.7998 7.59961 -15.9004 1.7998 -22.5996c-24.9004 -29.2002 -61.4004 -45.9004 -100.2 -45.9004s-75.2998 16.7002 -100.1 45.7998c-5.7002 6.7998 -5 16.7998 1.7998 22.6006c6.7002 5.59961 16.7998 4.89941 22.5 -1.80078
c18.7998 -22 46.3994 -34.5996 75.7998 -34.5996s57 12.5996 75.7998 34.7002zM192 264c-13.2998 0 -24 10.7002 -24 24s10.7002 24 24 24s24 -10.7002 24 -24s-10.7002 -24 -24 -24zM320 264c-13.2998 0 -24 10.7002 -24 24s10.7002 24 24 24s24 -10.7002 24 -24
s-10.7002 -24 -24 -24z" />
    <glyph glyph-name="comment-alt-times" unicode="&#xf4ab;" 
d="M448 448c35.2998 0 64 -28.7002 64 -64v-288c0 -35.2998 -28.7002 -64 -64 -64h-144l-124.9 -93.5996c-2.19922 -1.7002 -4.69922 -2.40039 -7.09961 -2.40039c-6.2002 0 -12 4.90039 -12 12v84h-96c-35.2998 0 -64 28.7002 -64 64v288c0 35.2998 28.7002 64 64 64h384z
M480 96v288c0 17.5996 -14.4004 32 -32 32h-384c-17.5996 0 -32 -14.4004 -32 -32v-288c0 -17.5996 14.4004 -32 32 -32h128v-76l92.7998 69.5996l8.5 6.40039h154.7c17.5996 0 32 14.4004 32 32zM329.5 302.2c3.2002 -3.10059 3.2002 -8.2002 0 -11.2998l-50.9004 -50.9004
l51 -50.9004c3.10059 -3.09961 3.10059 -8.19922 0 -11.2998l-11.2998 -11.2998c-1.59961 -1.5 -3.59961 -2.2998 -5.7002 -2.2998c-2.09961 0 -4.09961 0.700195 -5.69922 2.2998l-50.9004 50.9004l-50.9004 -50.9004c-1.59961 -1.5 -3.59961 -2.2998 -5.69922 -2.2998
c-2.10059 0 -4.10059 0.700195 -5.7002 2.2998l-11.2998 11.2998c-3.10059 3.10059 -3.10059 8.2002 0 11.2998l50.8994 50.9004l-50.8994 50.9004c-3.10059 3.09961 -3.10059 8.19922 0 11.2998l11.2998 11.2998c1.59961 1.5 3.59961 2.2998 5.7002 2.2998
c2.09961 0 4.09961 -0.700195 5.69922 -2.2998l50.9004 -50.9004l50.7998 50.9004c1.60059 1.5 3.60059 2.2998 5.7002 2.2998s4.09961 -0.700195 5.7002 -2.2998z" />
    <glyph glyph-name="comment-check" unicode="&#xf4ac;" 
d="M345.3 281.5l11.4004 -11.2002c3.09961 -3.09961 3.09961 -8.2002 0 -11.2998l-124.5 -124.5c-1.60059 -1.5 -3.60059 -2.2998 -5.7002 -2.2998s-4.09961 0.700195 -5.7002 2.2998l-65.5 65.5c-3.09961 3.09961 -3.09961 8.2002 0 11.2998l11.2998 11.2998
c1.60059 1.5 3.7002 2.30078 5.7002 2.30078c2.10059 0 4.10059 -0.700195 5.7002 -2.30078l48.5 -48.5l107.4 107.4c1.59961 1.5 3.69922 2.2998 5.69922 2.2998c2.10059 0 4.10059 -0.700195 5.7002 -2.2998zM256 416c141.4 0 256 -93.0996 256 -208
s-114.6 -208 -256 -208c-32.7998 0 -64 5.2002 -92.9004 14.2998c-29.0996 -20.5996 -77.5996 -46.2998 -139.1 -46.2998c-9.59961 0 -18.2998 5.7002 -22.0996 14.5c-3.80078 8.7998 -2 19 4.59961 26c0.5 0.400391 31.5 33.7998 46.4004 73.2002
c-33 35.0996 -52.9004 78.7002 -52.9004 126.3c0 114.9 114.6 208 256 208zM256 32c123.5 0 224 79 224 176s-100.5 176 -224 176s-224 -79 -224 -176c0 -37.5996 15.2998 -73.7002 44.2002 -104.3l13.7002 -14.6006l-7.10059 -18.6992
c-11 -29.2002 -28.7998 -54.5 -40.7998 -69.6006c44.0996 4.2998 79.5996 23.2998 102.6 39.6006l13 9.19922l15.2002 -4.7998c26.9004 -8.5 54.9004 -12.7998 83.2002 -12.7998z" />
    <glyph glyph-name="comment-dots" unicode="&#xf4ad;" 
d="M128 232c13.2998 0 24 -10.7002 24 -24s-10.7002 -24 -24 -24s-24 10.7002 -24 24s10.7002 24 24 24zM256 232c13.2998 0 24 -10.7002 24 -24s-10.7002 -24 -24 -24s-24 10.7002 -24 24s10.7002 24 24 24zM384 232c13.2998 0 24 -10.7002 24 -24s-10.7002 -24 -24 -24
s-24 10.7002 -24 24s10.7002 24 24 24zM256 416c141.4 0 256 -93.0996 256 -208s-114.6 -208 -256 -208c-32.7998 0 -64 5.2002 -92.9004 14.2998c-29.0996 -20.5996 -77.5996 -46.2998 -139.1 -46.2998c-9.59961 0 -18.2998 5.7002 -22.0996 14.5
c-3.80078 8.7998 -2 19 4.59961 26c0.5 0.400391 31.5 33.7998 46.4004 73.2002c-33 35.0996 -52.9004 78.7002 -52.9004 126.3c0 114.9 114.6 208 256 208zM256 32c123.5 0 224 79 224 176s-100.5 176 -224 176s-224 -79 -224 -176
c0 -37.5996 15.2998 -73.7002 44.2002 -104.3l13.7002 -14.6006l-7.10059 -18.6992c-11 -29.2002 -28.7998 -54.5 -40.7998 -69.6006c44.0996 4.2998 79.5996 23.2998 102.6 39.6006l13 9.19922l15.2002 -4.7998c26.9004 -8.5 54.9004 -12.7998 83.2002 -12.7998z" />
    <glyph glyph-name="comment-edit" unicode="&#xf4ae;" 
d="M336 310.6l22.5996 -22.5996c12.5 -12.4004 12.5 -32.7002 0 -45.2002l-126.1 -126.1c-2 -2 -4.5 -3.5 -7.2998 -4.2002l-61.2002 -16c-1.2998 -0.299805 -2.7002 -0.5 -4 -0.5c-4.2002 0 -8.2998 1.7002 -11.2998 4.7002
c-4.10059 4.09961 -5.60059 9.89941 -4.2002 15.3994l16 61.2002c0.799805 2.7998 2.2002 5.2998 4.2002 7.2998l126.1 126c12.4004 12.5 32.7002 12.5 45.2002 0zM213 142.4l75 75l-22.5996 22.5996l-75 -75l-8 -30.5996zM310.6 240l25.4004 25.4004l-22.5996 22.5996
l-25.4004 -25.4004zM256 416c141.4 0 256 -93.0996 256 -208s-114.6 -208 -256 -208c-32.7998 0 -64 5.2002 -92.9004 14.2998c-29.0996 -20.5996 -77.5996 -46.2998 -139.1 -46.2998c-9.59961 0 -18.2998 5.7002 -22.0996 14.5c-3.80078 8.7998 -2 19 4.59961 26
c0.5 0.400391 31.5 33.7998 46.4004 73.2002c-33 35.0996 -52.9004 78.7002 -52.9004 126.3c0 114.9 114.6 208 256 208zM256 32c123.5 0 224 79 224 176s-100.5 176 -224 176s-224 -79 -224 -176c0 -37.5996 15.2998 -73.7002 44.2002 -104.3l13.7002 -14.6006
l-7.10059 -18.6992c-11 -29.2002 -28.7998 -54.5 -40.7998 -69.6006c44.0996 4.2998 79.5996 23.2998 102.6 39.6006l13 9.19922l15.2002 -4.7998c26.9004 -8.5 54.9004 -12.7998 83.2002 -12.7998z" />
    <glyph glyph-name="comment-exclamation" unicode="&#xf4af;" 
d="M256 152c13.2998 0 24 -10.7002 24 -24s-10.7002 -24 -24 -24s-24 10.7002 -24 24s10.7002 24 24 24zM247.5 176c-4.2002 0 -7.7002 3.2998 -8 7.5l-7 112c-0.299805 4.59961 3.40039 8.5 8 8.5h31c4.59961 0 8.2998 -3.90039 8 -8.5l-7 -112
c-0.299805 -4.2002 -3.7998 -7.5 -8 -7.5h-17zM256 416c141.4 0 256 -93.0996 256 -208s-114.6 -208 -256 -208c-32.7998 0 -64 5.2002 -92.9004 14.2998c-29.0996 -20.5996 -77.5996 -46.2998 -139.1 -46.2998c-9.59961 0 -18.2998 5.7002 -22.0996 14.5
c-3.80078 8.7998 -2 19 4.59961 26c0.5 0.400391 31.5 33.7998 46.4004 73.2002c-33 35.0996 -52.9004 78.7002 -52.9004 126.3c0 114.9 114.6 208 256 208zM256 32c123.5 0 224 79 224 176s-100.5 176 -224 176s-224 -79 -224 -176
c0 -37.5996 15.2998 -73.7002 44.2002 -104.3l13.7002 -14.6006l-7.10059 -18.6992c-11 -29.2002 -28.7998 -54.5 -40.7998 -69.6006c44.0996 4.2998 79.5996 23.2998 102.6 39.6006l13 9.19922l15.2002 -4.7998c26.9004 -8.5 54.9004 -12.7998 83.2002 -12.7998z" />
    <glyph glyph-name="comment-lines" unicode="&#xf4b0;" 
d="M280 176c4.40039 0 8 -3.59961 8 -8v-16c0 -4.40039 -3.59961 -8 -8 -8h-144c-4.40039 0 -8 3.59961 -8 8v16c0 4.40039 3.59961 8 8 8h144zM376 272c4.40039 0 8 -3.59961 8 -8v-16c0 -4.40039 -3.59961 -8 -8 -8h-240c-4.40039 0 -8 3.59961 -8 8v16
c0 4.40039 3.59961 8 8 8h240zM256 416c141.4 0 256 -93.0996 256 -208s-114.6 -208 -256 -208c-32.7998 0 -64 5.2002 -92.9004 14.2998c-29.0996 -20.5996 -77.5996 -46.2998 -139.1 -46.2998c-9.59961 0 -18.2998 5.7002 -22.0996 14.5c-3.80078 8.7998 -2 19 4.59961 26
c0.5 0.400391 31.5 33.7998 46.4004 73.2002c-33 35.0996 -52.9004 78.7002 -52.9004 126.3c0 114.9 114.6 208 256 208zM256 32c123.5 0 224 79 224 176s-100.5 176 -224 176s-224 -79 -224 -176c0 -37.5996 15.2998 -73.7002 44.2002 -104.3l13.7002 -14.6006
l-7.10059 -18.6992c-11 -29.2002 -28.7998 -54.5 -40.7998 -69.6006c44.0996 4.2998 79.5996 23.2998 102.6 39.6006l13 9.19922l15.2002 -4.7998c26.9004 -8.5 54.9004 -12.7998 83.2002 -12.7998z" />
    <glyph glyph-name="comment-minus" unicode="&#xf4b1;" 
d="M344 224c4.40039 0 8 -3.59961 8 -8v-16c0 -4.40039 -3.59961 -8 -8 -8h-176c-4.40039 0 -8 3.59961 -8 8v16c0 4.40039 3.59961 8 8 8h176zM256 416c141.4 0 256 -93.0996 256 -208s-114.6 -208 -256 -208c-32.7998 0 -64 5.2002 -92.9004 14.2998
c-29.0996 -20.5996 -77.5996 -46.2998 -139.1 -46.2998c-9.59961 0 -18.2998 5.7002 -22.0996 14.5c-3.80078 8.7998 -2 19 4.59961 26c0.5 0.400391 31.5 33.7998 46.4004 73.2002c-33 35.0996 -52.9004 78.7002 -52.9004 126.3c0 114.9 114.6 208 256 208zM256 32
c123.5 0 224 79 224 176s-100.5 176 -224 176s-224 -79 -224 -176c0 -37.5996 15.2998 -73.7002 44.2002 -104.3l13.7002 -14.6006l-7.10059 -18.6992c-11 -29.2002 -28.7998 -54.5 -40.7998 -69.6006c44.0996 4.2998 79.5996 23.2998 102.6 39.6006l13 9.19922
l15.2002 -4.7998c26.9004 -8.5 54.9004 -12.7998 83.2002 -12.7998z" />
    <glyph glyph-name="comment-plus" unicode="&#xf4b2;" 
d="M344 224c4.40039 0 8 -3.59961 8 -8v-16c0 -4.40039 -3.59961 -8 -8 -8h-72v-72c0 -4.40039 -3.59961 -8 -8 -8h-16c-4.40039 0 -8 3.59961 -8 8v72h-72c-4.40039 0 -8 3.59961 -8 8v16c0 4.40039 3.59961 8 8 8h72v72c0 4.40039 3.59961 8 8 8h16
c4.40039 0 8 -3.59961 8 -8v-72h72zM256 416c141.4 0 256 -93.0996 256 -208s-114.6 -208 -256 -208c-32.7998 0 -64 5.2002 -92.9004 14.2998c-29.0996 -20.5996 -77.5996 -46.2998 -139.1 -46.2998c-9.59961 0 -18.2998 5.7002 -22.0996 14.5
c-3.80078 8.7998 -2 19 4.59961 26c0.5 0.400391 31.5 33.7998 46.4004 73.2002c-33 35.0996 -52.9004 78.7002 -52.9004 126.3c0 114.9 114.6 208 256 208zM256 32c123.5 0 224 79 224 176s-100.5 176 -224 176s-224 -79 -224 -176
c0 -37.5996 15.2998 -73.7002 44.2002 -104.3l13.7002 -14.6006l-7.10059 -18.6992c-11 -29.2002 -28.7998 -54.5 -40.7998 -69.6006c44.0996 4.2998 79.5996 23.2998 102.6 39.6006l13 9.19922l15.2002 -4.7998c26.9004 -8.5 54.9004 -12.7998 83.2002 -12.7998z" />
    <glyph glyph-name="comment-slash" unicode="&#xf4b3;" horiz-adv-x="640" 
d="M320 384c-40.2998 0 -78.0996 -8.5 -110.9 -23.2002l-27.7998 21.9004c40 21 87.5 33.2998 138.7 33.2998c141.4 0 256 -93.0996 256 -208c0 -39.2002 -13.5996 -75.7998 -36.9004 -107.1l-25 19.6992c18.9004 25.8008 29.9004 55.6006 29.9004 87.4004
c0 97 -100.5 176 -224 176zM637 -37.2002c3.40039 -2.7998 4 -7.7998 1.2002 -11.2998l-10 -12.5c-2.7002 -3.40039 -7.7998 -4 -11.2002 -1.2002l-476.4 375l-25.0996 19.7998l-112.5 88.6006c-3.40039 2.7998 -4 7.7998 -1.2002 11.2998l10 12.5
c2.7002 3.40039 7.7998 4 11.2002 1.2002l115.9 -91.2002l25.8994 -20.4004zM320 32c29.5 0 57.5996 4.59961 83.5 12.7998l29.5 -23.2002c-34.0996 -13.6992 -72.4004 -21.5996 -113 -21.5996c-32.7998 0 -64 5.2002 -92.9004 14.2998
c-29.0996 -20.5996 -77.5996 -46.2998 -139.1 -46.2998c-9.59961 0 -18.2998 5.7002 -22.0996 14.5c-3.80078 8.7998 -2 19 4.59961 26c0.5 0.400391 31.5 33.7998 46.4004 73.2002c-33 35.0996 -52.9004 78.7002 -52.9004 126.3c0 30.7002 8.40039 59.7002 23.0996 86
l25.4004 -20c-10.5996 -20.4004 -16.5 -42.7002 -16.5 -66c0 -37.5996 15.2998 -73.7002 44.2002 -104.3l13.7002 -14.6006l-7.10059 -18.6992c-11 -29.2002 -28.7998 -54.5 -40.7998 -69.6006c44.0996 4.2998 79.5996 23.2998 102.6 39.6006l13 9.19922l15.2002 -4.7998
c26.9004 -8.5 54.9004 -12.7998 83.2002 -12.7998z" />
    <glyph glyph-name="comment-smile" unicode="&#xf4b4;" 
d="M256 416c141.4 0 256 -93.0996 256 -208s-114.6 -208 -256 -208c-32.7998 0 -64 5.2002 -92.9004 14.2998c-29.0996 -20.5996 -77.5996 -46.2998 -139.1 -46.2998c-9.59961 0 -18.2998 5.7002 -22.0996 14.5c-3.80078 8.7998 -2 19 4.59961 26
c0.5 0.400391 31.5 33.7998 46.4004 73.2002c-33 35.0996 -52.9004 78.7002 -52.9004 126.3c0 114.9 114.6 208 256 208zM256 32c123.5 0 224 79 224 176s-100.5 176 -224 176s-224 -79 -224 -176c0 -37.5996 15.2998 -73.7002 44.2002 -104.3l13.7002 -14.6006
l-7.10059 -18.6992c-11 -29.2002 -28.7998 -54.5 -40.7998 -69.6006c44.0996 4.2998 79.5996 23.2998 102.6 39.6006l13 9.19922l15.2002 -4.7998c26.9004 -8.5 54.9004 -12.7998 83.2002 -12.7998zM331.8 162.7c5.7998 6.7002 15.9004 7.5 22.6006 1.7998
c6.69922 -5.7998 7.59961 -15.9004 1.7998 -22.5996c-24.9004 -29.2002 -61.4004 -45.9004 -100.2 -45.9004s-75.2998 16.7002 -100.1 45.7998c-5.7002 6.7998 -5 16.7998 1.7998 22.6006c6.7002 5.59961 16.7998 4.89941 22.5 -1.80078
c18.7998 -22 46.3994 -34.5996 75.7998 -34.5996s57 12.5996 75.7998 34.7002zM192 232c-13.2998 0 -24 10.7002 -24 24s10.7002 24 24 24s24 -10.7002 24 -24s-10.7002 -24 -24 -24zM320 232c-13.2998 0 -24 10.7002 -24 24s10.7002 24 24 24s24 -10.7002 24 -24
s-10.7002 -24 -24 -24z" />
    <glyph glyph-name="comment-times" unicode="&#xf4b5;" 
d="M329.5 270.2c3.2002 -3.10059 3.2002 -8.2002 0 -11.2998l-50.9004 -50.9004l51 -50.9004c3.10059 -3.09961 3.10059 -8.19922 0 -11.2998l-11.2998 -11.2998c-1.59961 -1.5 -3.59961 -2.2998 -5.7002 -2.2998c-2.09961 0 -4.09961 0.700195 -5.69922 2.2998
l-50.9004 50.9004l-50.9004 -50.9004c-1.59961 -1.5 -3.59961 -2.2998 -5.69922 -2.2998c-2.10059 0 -4.10059 0.700195 -5.7002 2.2998l-11.2998 11.2998c-3.10059 3.10059 -3.10059 8.2002 0 11.2998l50.8994 50.9004l-50.8994 50.9004
c-3.10059 3.09961 -3.10059 8.19922 0 11.2998l11.2998 11.2998c1.59961 1.5 3.59961 2.2998 5.7002 2.2998c2.09961 0 4.09961 -0.700195 5.69922 -2.2998l50.9004 -50.9004l50.7998 50.9004c1.60059 1.5 3.60059 2.2998 5.7002 2.2998s4.09961 -0.700195 5.7002 -2.2998z
M256 416c141.4 0 256 -93.0996 256 -208s-114.6 -208 -256 -208c-32.7998 0 -64 5.2002 -92.9004 14.2998c-29.0996 -20.5996 -77.5996 -46.2998 -139.1 -46.2998c-9.59961 0 -18.2998 5.7002 -22.0996 14.5c-3.80078 8.7998 -2 19 4.59961 26
c0.5 0.400391 31.5 33.7998 46.4004 73.2002c-33 35.0996 -52.9004 78.7002 -52.9004 126.3c0 114.9 114.6 208 256 208zM256 32c123.5 0 224 79 224 176s-100.5 176 -224 176s-224 -79 -224 -176c0 -37.5996 15.2998 -73.7002 44.2002 -104.3l13.7002 -14.6006
l-7.10059 -18.6992c-11 -29.2002 -28.7998 -54.5 -40.7998 -69.6006c44.0996 4.2998 79.5996 23.2998 102.6 39.6006l13 9.19922l15.2002 -4.7998c26.9004 -8.5 54.9004 -12.7998 83.2002 -12.7998z" />
    <glyph glyph-name="comments-alt" unicode="&#xf4b6;" horiz-adv-x="576" 
d="M512 288c35.2998 0 64 -28.7002 64 -64v-160c0 -35.2998 -28.7002 -64 -64 -64h-32v-52c0 -7.09961 -5.7998 -12 -12 -12c-2.40039 0 -4.90039 0.799805 -7.09961 2.40039l-108.9 61.5996h-96c-35.2998 0 -64 28.7002 -64 64v77.9004l-76.9004 -43.5
c-2.19922 -1.7002 -4.69922 -2.40039 -7.09961 -2.40039c-6.2002 0 -12 4.90039 -12 12v52h-32c-35.2998 0 -64 28.7002 -64 64v160c0 35.2998 28.7002 64 64 64h288c35.2998 0 64 -28.7002 64 -64v-96h96zM64 192h64v-49.5996l80.2998 45.3994l7.2998 4.2002h136.4
c17.5996 0 32 14.4004 32 32v160c0 17.5996 -14.4004 32 -32 32h-288c-17.5996 0 -32 -14.4004 -32 -32v-160c0 -17.5996 14.4004 -32 32 -32zM544 64v160c0 17.5996 -14.4004 32 -32 32h-96v-32c0 -35.2998 -28.7002 -64 -64 -64h-128v-96c0 -17.5996 14.4004 -32 32 -32
h104.5l7.2998 -4.2002l80.2002 -45.3994v49.5996h64c17.5996 0 32 14.4004 32 32z" />
    <glyph glyph-name="container-storage" unicode="&#xf4b7;" horiz-adv-x="640" 
d="M632 384h-8v-384h8c4.40039 0 8 -3.59961 8 -8v-16c0 -4.40039 -3.59961 -8 -8 -8h-624c-4.40039 0 -8 3.59961 -8 8v16c0 4.40039 3.59961 8 8 8h8v384h-8c-4.40039 0 -8 3.59961 -8 8v16c0 4.40039 3.59961 8 8 8h624c4.40039 0 8 -3.59961 8 -8v-16
c0 -4.40039 -3.59961 -8 -8 -8zM592 0v384h-544v-384h544zM120 64c-4.40039 0 -8 3.59961 -8 8v240c0 4.40039 3.59961 8 8 8h16c4.40039 0 8 -3.59961 8 -8v-240c0 -4.40039 -3.59961 -8 -8 -8h-16zM216 64c-4.40039 0 -8 3.59961 -8 8v240c0 4.40039 3.59961 8 8 8h16
c4.40039 0 8 -3.59961 8 -8v-240c0 -4.40039 -3.59961 -8 -8 -8h-16zM312 64c-4.40039 0 -8 3.59961 -8 8v240c0 4.40039 3.59961 8 8 8h16c4.40039 0 8 -3.59961 8 -8v-240c0 -4.40039 -3.59961 -8 -8 -8h-16zM408 64c-4.40039 0 -8 3.59961 -8 8v240
c0 4.40039 3.59961 8 8 8h16c4.40039 0 8 -3.59961 8 -8v-240c0 -4.40039 -3.59961 -8 -8 -8h-16zM504 64c-4.40039 0 -8 3.59961 -8 8v240c0 4.40039 3.59961 8 8 8h16c4.40039 0 8 -3.59961 8 -8v-240c0 -4.40039 -3.59961 -8 -8 -8h-16z" />
    <glyph glyph-name="couch" unicode="&#xf4b8;" horiz-adv-x="640" 
d="M576 254.1c36.5 -7.5 64 -39.8994 64 -78.5996c0 -25.0996 -12.0996 -48.7002 -32 -63.7998v-79.6006c0 -17.6992 -14.2998 -32.0996 -32 -32.0996h-64c-17.2998 0 -31.2998 14.7002 -31.7998 32h-320.4c-0.5 -17.2998 -14.5 -32 -31.7998 -32h-64
c-17.7002 0 -32 14.4004 -32 32.0996v79.6006c-19.9004 15 -32 38.7002 -32 63.7998c0 38.7998 27.5 71.0996 64 78.5996v33.7002c0 53.1006 43 96.2002 96 96.2002h320c53 0 96 -43.0996 96 -96.2002v-33.7002zM128 32.0996v175.5c0 8.80078 -7.2002 16 -16 16h-32
c-26.5 0 -48 -21.5996 -48 -48.0996c0 -24.9004 14.9004 -36 32 -46v-97.4004h64zM480 64v95.5h-320v-95.5h320zM480 207.6c0 26.5 21.5 48.1006 48 48.1006h16v32.0996c0 35.2998 -28.7002 64.1006 -64 64.1006h-320c-35.2998 0 -64 -28.7002 -64 -64.1006v-32.0996h16
c26.5 0 48 -21.6006 48 -48.1006v-15.5996h320v15.5996zM576 129.5c18.0996 10.5996 32 22.0996 32 46c0 26.5 -21.5 48.0996 -48 48.0996h-32c-8.7998 0 -16 -7.19922 -16 -16v-175.5h64v97.4004z" />
    <glyph glyph-name="donate" unicode="&#xf4b9;" 
d="M224.7 232.3c-21.4004 6.10059 -38.4004 24.1006 -40.4004 46.2002c-2.89941 31.2002 21.6006 57.5 52.2002 57.5h3.5v24c0 4.40039 3.59961 8 8 8h16c4.40039 0 8 -3.59961 8 -8v-23.9004h1.40039c15.6992 0 30.5996 -5.09961 42.8994 -14.5
c3.90039 -3 4.5 -8.69922 1 -12.1992l-11.3994 -11.4004c-2.60059 -2.7002 -6.80078 -3.40039 -9.80078 -1.2002c-6.5 4.7002 -14.3994 7.2998 -22.5996 7.2998h-36.9004c-11.2998 0 -20.5 -9.19922 -20.5 -20.5c0 -9.09961 6.10059 -17.1992 14.9004 -19.6992
l59.0996 -16.9004c27.8008 -8 45.2002 -38.2002 35.1006 -67.7998c-7.40039 -21.6006 -28.9004 -35.2002 -51.7002 -35.2002h-1.40039v-24c0 -4.40039 -3.59961 -8 -8 -8h-16c-4.39941 0 -8 3.59961 -8 8v24h-1.39941c-15.7002 0 -30.6006 5.09961 -42.9004 14.5
c-3.89941 3 -4.5 8.7002 -1 12.2002l11.4004 11.3994c2.59961 2.7002 6.7998 3.40039 9.7998 1.2002c6.5 -4.7002 14.4004 -7.2998 22.5996 -7.2998h36.9004c11.2998 0 20.5 9.2002 20.5 20.5c0 9.09961 -6.09961 17.2002 -14.9004 19.7002zM480 160
c17.7002 0 32 -14.4004 32 -32v-160c0 -17.5996 -14.2998 -32 -32 -32h-448c-17.7002 0 -32 14.4004 -32 32v160c0 17.5996 14.2998 32 32 32h32c-10.2998 24.5996 -16 51.5996 -16 80c0 114.9 93.0996 208 208 208s208 -93.0996 208 -208
c0 -28.4004 -5.7002 -55.4004 -16 -80h32zM256 416c-97 0 -176 -79 -176 -176s79 -176 176 -176s176 79 176 176s-79 176 -176 176zM480 -32v160h-48.9004c-16.5996 -25.7998 -38.5996 -47.7002 -64.5996 -64h41.5c4.40039 0 8 -3.59961 8 -8v-16
c0 -4.40039 -3.59961 -8 -8 -8h-304c-4.40039 0 -8 3.59961 -8 8v16c0 4.40039 3.59961 8 8 8h41.5c-26 16.2998 -48 38.2002 -64.5996 64h-48.9004v-160h448z" />
    <glyph glyph-name="fragile" unicode="&#xf4bb;" horiz-adv-x="288" 
d="M213.9 -32c24.5 0 33.0996 -32 20 -32h-179.801c-13.1992 0 -4.5 32 20 32h53.9004v129.7c-76.7002 8.7002 -134.6 77.5996 -127.4 157.6l16 178.101c0.700195 8.2998 7.5 14.5996 15.7002 14.5996h223.4c8.2002 0 15 -6.2998 15.7002 -14.5996l16 -178.101
c7.19922 -80 -50.7002 -148.899 -127.4 -157.6v-129.7h53.9004zM32.5 252.5c-5.2002 -57.4004 36.7002 -124.5 111.5 -124.5s116.6 67.2998 111.5 124.5l-14.5996 163.5h-84.6006l41.6006 -69.4004c-17.9004 -10.6992 -4.10059 -2.39941 -76.2002 -45.6992l70.5 -70.6006
c3.2998 -3.2998 3.2998 -8.59961 0 -11.7998c-3 -3 -7.7002 -3.2002 -11 -0.700195c-101 78.2002 -86.4004 66.9004 -113.5 87.9004c25.5 15.2998 3.59961 2.2002 86.2998 51.7998l-35.0996 58.5h-71.8008z" />
    <glyph glyph-name="hand-heart" unicode="&#xf4bc;" horiz-adv-x="448" 
d="M392 336c30.9004 0 56 -25.0996 55.9004 -56v-120.4c0 -23.0996 -2.30078 -46.2998 -6.80078 -69l-20.5996 -103.199c-6 -29.8008 -32.4004 -51.4004 -62.7998 -51.4004h-180.601c-21.5 0 -41.3994 10.7002 -53.2998 28.5996l-113.7 171.301
c-17.6992 25.2998 -11.5 60.2998 13.8008 78c30 21 60.5996 5.09961 72.0996 -6.7002v152.8c0 30.9004 25.0996 56 56 56c9.7002 0 18.7998 -2.5 26.7002 -6.7998c7.2998 22.5 28.3994 38.7998 53.2998 38.7998s46 -16.2998 53.2998 -38.7998
c7.90039 4.2998 17 6.7998 26.7002 6.7998c30.9004 0 56 -25.0996 56 -56v-29.4004c7.2998 3.5 15.4004 5.40039 24 5.40039zM416 159.7v120.3c0 13.2998 -10.7002 24 -24 24s-24 -10.7002 -24 -24v-80c0 -4.40039 -3.59961 -8 -8 -8h-16c-4.40039 0 -8 3.59961 -8 8v160
c0 13.2998 -10.7002 24 -24 24s-24 -10.7002 -24 -24v-160c0 -4.40039 -3.59961 -8 -8 -8h-16c-4.40039 0 -8 3.59961 -8 8v192c0 13.2998 -10.7002 24 -24 24s-24 -10.7002 -24 -24v-192c0 -4.40039 -3.59961 -8 -8 -8h-16c-4.40039 0 -8 3.59961 -8 8v160
c0 13.2998 -10.7002 24 -24 24s-24 -10.7002 -24 -24v-228.1c0 -7.90039 -10.0996 -11 -14.5996 -4.60059l-37.8008 54.4004c-3.39941 4.89941 -17.5996 17 -33.3994 5.89941c-10.9004 -7.59961 -13.5 -22.5 -5.90039 -33.3994l114.2 -171.9
c6 -8.89941 16 -14.2998 26.7002 -14.2998h180.6c15.2998 0 28.4004 10.7002 31.4004 25.7002l20.5996 103.2c4.10059 20.6992 6.2002 41.6992 6.2002 62.7998zM333.3 149c23.6006 -19.0996 24.7998 -53.5 3.90039 -74.2002l-72.6006 -71.2998
c-4.69922 -4.59961 -12.2998 -4.59961 -17 0l-72.5996 71.2998c-21.0996 20.7002 -19.9004 55.1006 3.7002 74.2002c6 4.90039 16.5996 11 30.2998 11c13.0996 0 29.2002 -5.59961 47 -23.0996c17.7998 17.5 33.9004 23.0996 47 23.0996
c13.7002 0 24.2002 -6.09961 30.2998 -11zM314.6 97.5996c12 11.8008 2.10059 30.4004 -11.5996 30.4004c-6.7002 0 -15.5 -4.90039 -24.5996 -13.9004l-22.4004 -22.0996l-22.4004 22.0996c-9.09961 8.90039 -17.8994 13.9004 -24.5996 13.9004
c-13.7002 0 -23.5996 -18.5996 -11.5996 -30.4004l58.5996 -57.5996z" />
    <glyph glyph-name="hand-holding" unicode="&#xf4bd;" horiz-adv-x="576" 
d="M558.3 114.4c11.7002 -10.6006 18.2002 -25.8008 17.7002 -41.4004s-7.7998 -30.2002 -20 -40l-100.9 -80.7002c-13.1992 -10.5996 -29.5996 -16.3994 -46.5996 -16.3994h-400.5c-4.40039 0 -8 3.59961 -8 8v16c0 4.39941 3.59961 8 8 8h400.5
c9.7002 0 19.0996 3.19922 26.7002 9.2998l100.8 80.7002c10.2002 8.09961 11 23.5 0.900391 32.5996c-3.90039 3.5 -8.80078 5.2002 -13.8008 5.2002c-5.09961 0 -10.3994 -1.7998 -14.5996 -5.2002l-61.5996 -49.2002c-7.60059 -6 -17 -9.2998 -26.7002 -9.2998h-180.2
c-8.7998 0 -16 7.2002 -16 16s7.2002 16 16 16h88c13.2998 0 24 10.7002 24 24s-10.7002 24 -24 24h-146.7c-13.7998 0 -27.2998 -4.5 -38.3994 -12.7998l-46.9004 -35.2002h-88c-4.40039 0 -8 3.59961 -8 8v16c0 4.40039 3.59961 8 8 8h77.2998l38.4004 28.7998
c16.5996 12.5 36.7998 19.2002 57.5996 19.2002h144.3c28.2002 0 53.8008 -19.7998 57.8008 -47.7002c1.69922 -11.5996 -0.200195 -22.7002 -4.80078 -32.2998h41.6006c2.5 0 4.7998 0.799805 6.7002 2.2998l61.5996 49.2998
c9.7998 7.90039 22.0996 12.2002 34.5996 12.2002c13.1006 0 25.6006 -4.7998 35.2002 -13.3994z" />
    <glyph glyph-name="hand-holding-heart" unicode="&#xf4be;" horiz-adv-x="576" 
d="M558.3 114.4c11.7002 -10.6006 18.2002 -25.8008 17.7002 -41.4004s-7.7998 -30.2002 -20 -40l-100.9 -80.7002c-13.1992 -10.5996 -29.5996 -16.3994 -46.5996 -16.3994h-400.5c-4.40039 0 -8 3.59961 -8 8v16c0 4.39941 3.59961 8 8 8h400.5
c9.7002 0 19.0996 3.19922 26.7002 9.2998l100.8 80.7002c10.2002 8.09961 11 23.5 0.900391 32.5996c-8.40039 7.59961 -20.7002 6.09961 -28.4004 0l-61.5996 -49.2002c-7.60059 -6 -17 -9.2998 -26.7002 -9.2998h-180.2c-8.7998 0 -16 7.2002 -16 16s7.2002 16 16 16h88
c13.2998 0 24 10.7002 24 24s-10.7002 24 -24 24h-146.7c-13.7998 0 -27.2998 -4.5 -38.3994 -12.7998l-46.9004 -35.2002h-88c-4.40039 0 -8 3.59961 -8 8v16c0 4.40039 3.59961 8 8 8h77.2998l38.4004 28.7998c16.5996 12.5 36.7998 19.2002 57.5996 19.2002h144.2
c28.2002 0 53.7998 -19.7998 57.7998 -47.7002c1.7002 -11.5996 -0.200195 -22.7002 -4.7998 -32.2998h41.5996c2.5 0 4.80078 0.799805 6.7002 2.2998l61.6006 49.2998c20.5 16.4004 50.1992 16.5 69.8994 -1.19922zM275.3 197.5l-108.899 114.1
c-31.6006 33.1006 -29.7002 88.1006 5.59961 118.7c35.5996 30.9004 81.9004 16.4004 104.9 -7.7002l11.0996 -11.5996l11.2002 11.5996c23.5 24.7002 69.5996 38.3008 104.899 7.7002c35.4004 -30.5996 37.2002 -85.5 5.60059 -118.7l-108.9 -114.1
c-7.09961 -7.40039 -18.5 -7.40039 -25.5 0zM192.4 406.1c-23.7002 -20.5996 -20.1006 -54.6992 -3.40039 -72.0996l99 -103.8l99 103.8c16.7998 17.5996 20.4004 51.5 -3.40039 72.0996c-20.8994 18 -48.3994 8.40039 -61.8994 -5.69922l-33.7002 -35.3008
l-33.7002 35.3008c-13.7002 14.3994 -41.0996 23.6992 -61.8994 5.69922z" />
    <glyph glyph-name="hand-holding-seedling" unicode="&#xf4bf;" horiz-adv-x="576" 
d="M248.9 256c-84.3008 0 -152.9 79 -152.9 176v16h55.0996c60 0 111.9 -40.0996 136.9 -98.0996c25 58 76.9004 98.0996 136.9 98.0996h55.0996v-16c0 -97 -68.5996 -176 -152.9 -176h-23.0996v-56c0 -4.40039 -3.59961 -8 -8 -8h-16c-4.40039 0 -8 3.59961 -8 8v56
h-23.0996zM424.9 416c-62.1006 0 -113.5 -56.0996 -120.101 -128h22.4004c62.0996 0 113.399 56.0996 120.1 128h-22.3994zM151.1 416h-22.3994c6.7002 -71.9004 58 -128 120.1 -128h22.4004c-6.7002 71.9004 -58 128 -120.101 128zM558.3 114.4
c11.7002 -10.6006 18.2002 -25.8008 17.7002 -41.4004s-7.7998 -30.2002 -20 -40l-100.9 -80.7002c-13.1992 -10.5996 -29.5996 -16.3994 -46.5996 -16.3994h-400.5c-4.40039 0 -8 3.59961 -8 8v16c0 4.39941 3.59961 8 8 8h400.5c9.7002 0 19.0996 3.19922 26.7002 9.2998
l100.8 80.7002c10.2002 8.09961 11 23.5 0.900391 32.5996c-3.90039 3.5 -8.80078 5.2002 -13.8008 5.2002c-5.09961 0 -10.3994 -1.7998 -14.5996 -5.2002l-61.5996 -49.2002c-7.60059 -6 -17 -9.2998 -26.7002 -9.2998h-180.2c-8.7998 0 -16 7.2002 -16 16
s7.2002 16 16 16h88c13.2998 0 24 10.7002 24 24s-10.7002 24 -24 24h-146.7c-13.7998 0 -27.2998 -4.5 -38.3994 -12.7998l-46.9004 -35.2002h-88c-4.40039 0 -8 3.59961 -8 8v16c0 4.40039 3.59961 8 8 8h77.2998l38.4004 28.7998
c16.5996 12.5 36.7998 19.2002 57.5996 19.2002h144.3c28.2002 0 53.8008 -19.7998 57.8008 -47.7002c1.69922 -11.5996 -0.200195 -22.7002 -4.80078 -32.2998h41.6006c2.5 0 4.7998 0.799805 6.7002 2.2998l61.5996 49.2998
c9.7998 7.90039 22.0996 12.2002 34.5996 12.2002c13.1006 0 25.6006 -4.7998 35.2002 -13.3994z" />
    <glyph glyph-name="hands" unicode="&#xf4c2;" horiz-adv-x="640" 
d="M220 199.2l42.5 -58.5c16.5996 -22.2002 25.5996 -49.1006 25.5996 -76.7998v-120c0 -4.40039 -3.59961 -8 -8 -8h-16c-4.39941 0 -8 3.59961 -8 8v120c0 20.5996 -6.7998 41.0996 -19.5 58l-42.3994 58.3994c-5.2998 7.2998 -15.4004 8.60059 -22.4004 3.5
c-7.7002 -5.59961 -8.2002 -15.7998 -3.5 -22.2998l30.6006 -42.2002c0.0996094 -0.299805 0.299805 -0.5 0.5 -0.799805c26 -39.7002 -33.9004 -86.5996 -70.8008 -42.4004l-64.5996 77.5v149.7c0 22.2998 -32 21.7002 -32 0.700195v-170.4
c0 -3.59961 1.2002 -7.19922 3.5 -10l107 -133.699c9.59961 -11.9004 15.5 -29.2002 17.0996 -45.2002c0.5 -4.7998 -3.19922 -8.7002 -8 -8.7002h-16c-4 0 -7.5 2.90039 -8 6.90039c-1.19922 9.5 -4.69922 20.1992 -10.0996 27l-107 133.699
c-6.7998 8.5 -10.5 19.1006 -10.5 30v170.4c0 26.7998 21.9004 48.4004 48.7998 47.9004c26 -0.400391 47.2002 -23.7002 47.2002 -49.7002v-137.101l62 -73.2998c7.09961 -8.39941 20.0996 1.7998 13.5996 10.7002l-28.5996 39.2998
c-13.4004 18.5 -13.0996 44.5 2.5 61.2998c25.4004 27.5 60.5 15.3008 74.5 -3.89941zM640 304l0.0996094 -170.3c0 -10.9004 -3.69922 -21.5 -10.5 -30l-107 -133.7c-5.5 -6.7998 -8.89941 -17.4004 -10.0996 -27c-0.5 -4 -4 -6.90039 -8 -6.90039h-16
c-4.7998 0 -8.5 3.90039 -8 8.7002c1.59961 16 7.59961 33.2998 17.0996 45.2002l107 133.7c2.30078 2.7998 3.5 6.39941 3.5 10v170.399c0 21 -32 21.6006 -32 -0.699219v-149.7l-64.5996 -77.5c-36.9004 -44.2998 -96.9004 2.7002 -70.7998 42.3994
c0.0996094 0.300781 0.299805 0.5 0.5 0.800781l30.5996 42.1992c4.7998 6.5 4.2998 16.7002 -3.5 22.3008c-7.09961 5.19922 -17.0996 3.7998 -22.3994 -3.5l-42.4004 -58.4004c-12.7002 -16.9004 -19.5 -37.4004 -19.5 -58v-120c0 -4.40039 -3.59961 -8 -8 -8h-16
c-4.40039 0 -8 3.59961 -8 8v120c0 27.7002 9 54.7002 25.5996 76.9004l42.4004 58.3994c13.9004 19.2002 49 31.2998 74.5 3.90039c15.5996 -16.7002 15.9004 -42.7998 2.5 -61.2998l-28.5996 -39.3008c-6.5 -9 6.5 -19.0996 13.5996 -10.6992l62 73.2998v137.1
c0 26 21.2002 49.2998 47.2002 49.7002c26.8994 0.400391 48.7998 -21.2002 48.7998 -48z" />
    <glyph glyph-name="hands-heart" unicode="&#xf4c3;" horiz-adv-x="640" 
d="M436 430.4c35.4004 -30.6006 37.2002 -85.6006 5.59961 -118.7l-108.899 -114.101c-7.10059 -7.39941 -18.5 -7.39941 -25.5 0l-108.9 114.101c-31.5996 33.0996 -29.7002 88.0996 5.60059 118.7c14.5 12.5 30.5996 17.5996 46.2998 17.5996
c23.0996 0 45 -11 58.7002 -25.4004l11.0996 -11.5996l11 11.7002c14 14.5996 35.7998 25.2998 58.5996 25.2998c15.8008 0 32 -5.09961 46.4004 -17.5996zM419 333.9c16.7002 17.5996 20.4004 51.5 -3.5 72.1992c-8.09961 7.10059 -17.2998 9.90039 -26.2002 9.90039
c-13.8994 0 -27.3994 -7 -35.5996 -15.5996l-33.7002 -35.3008l-33.7002 35.2002c-8.2998 8.7002 -21.7002 15.6006 -35.5996 15.6006c-9 0 -18.1006 -2.80078 -26.2998 -9.90039c-23.8008 -20.5 -20.1006 -54.5996 -3.40039 -72.0996l99 -103.801zM220 199.2l42.5 -58.5
c16.5996 -22.2002 25.5996 -49.1006 25.5996 -76.7998v-120c0 -4.40039 -3.59961 -8 -8 -8h-16c-4.39941 0 -8 3.59961 -8 8v120c0 20.5996 -6.7998 41.0996 -19.5 58l-42.3994 58.3994c-5.2998 7.2998 -15.4004 8.60059 -22.4004 3.5
c-7.7002 -5.59961 -8.2002 -15.7998 -3.5 -22.2998l30.6006 -42.2002c0.0996094 -0.299805 0.299805 -0.5 0.5 -0.799805c26 -39.7002 -33.9004 -86.5996 -70.8008 -42.4004l-64.5996 77.5v149.7c0 22.2998 -32 21.7002 -32 0.700195v-170.4
c0 -3.59961 1.2002 -7.19922 3.5 -10l107 -133.699c9.59961 -11.9004 15.5 -29.2002 17.0996 -45.2002c0.5 -4.7998 -3.19922 -8.7002 -8 -8.7002h-16c-4 0 -7.5 2.90039 -8 6.90039c-1.19922 9.5 -4.69922 20.1992 -10.0996 27l-107 133.699
c-6.7998 8.5 -10.5 19.1006 -10.5 30v170.4c0 26.7998 21.9004 48.4004 48.7998 47.9004c26 -0.400391 47.2002 -23.7002 47.2002 -49.7002v-137.101l62 -73.2998c7.09961 -8.39941 20.0996 1.7998 13.5996 10.7002l-28.5996 39.2998
c-13.4004 18.5 -13.0996 44.5 2.5 61.2998c25.4004 27.5 60.5 15.3008 74.5 -3.89941zM640 304l0.0996094 -170.3c0 -10.9004 -3.69922 -21.5 -10.5 -30l-107 -133.7c-5.5 -6.7998 -8.89941 -17.4004 -10.0996 -27c-0.5 -4 -4 -6.90039 -8 -6.90039h-16
c-4.7998 0 -8.5 3.90039 -8 8.7002c1.59961 16 7.59961 33.2998 17.0996 45.2002l107 133.7c2.30078 2.7998 3.5 6.39941 3.5 10v170.399c0 21 -32 21.6006 -32 -0.699219v-149.7l-64.5996 -77.5c-36.9004 -44.2998 -96.9004 2.7002 -70.7998 42.3994
c0.0996094 0.300781 0.299805 0.5 0.5 0.800781l30.5996 42.1992c4.7998 6.5 4.2998 16.7002 -3.5 22.3008c-7.09961 5.19922 -17.0996 3.7998 -22.3994 -3.5l-42.4004 -58.4004c-12.7002 -16.9004 -19.5 -37.4004 -19.5 -58v-120c0 -4.40039 -3.59961 -8 -8 -8h-16
c-4.40039 0 -8 3.59961 -8 8v120c0 27.7002 9 54.7002 25.5996 76.9004l42.4004 58.3994c13.9004 19.2002 49 31.2998 74.5 3.90039c15.5996 -16.7002 15.9004 -42.7998 2.5 -61.2998l-28.5996 -39.3008c-6.5 -9 6.5 -19.0996 13.5996 -10.6992l62 73.2998v137.1
c0 26 21.2002 49.2998 47.2002 49.7002c26.8994 0.400391 48.7998 -21.2002 48.7998 -48z" />
    <glyph glyph-name="hands-helping" unicode="&#xf4c4;" horiz-adv-x="640" 
d="M638.9 238.3c2.19922 -3.7998 0.899414 -8.7002 -2.90039 -10.8994l-132.2 -77c-7.2002 -11.1006 -18.2002 -19.4004 -31.7998 -21.7002v-4.7002c0 -32.4004 -22.9004 -59.5996 -53.2998 -66.2998c-6.7998 -32.9004 -36 -57.7002 -70.7998 -57.7002h-100.801
l-108.199 -62.9004c-3.80078 -2.19922 -8.7002 -0.899414 -10.9004 2.90039l-8 13.7998c-2.2002 3.7998 -0.900391 8.7002 2.90039 10.9004l115.6 67.2998h109.4c22.1992 0 40.1992 18 40.1992 40.2002v16h16.1006c19.7998 0 35.7998 16 35.7998 35.7998v36h24
c8.7998 0 16 7.2002 16 16v32c0 8.7998 -7.2002 16 -16 16h-112v-32c0 -37.4004 -32.2998 -67.4004 -70.4004 -63.7002c-33.2998 3.2002 -57.5996 33.1006 -57.5996 66.5v65.9004l-44.5996 -26.4004c-11.9004 -7.2002 -19.4004 -20.3994 -19.4004 -34.3994v-57.2002
l-140.1 -79.6006c-3.80078 -2.19922 -8.7002 -0.799805 -10.9004 3l-8 13.9004c-2.2002 3.7998 -0.799805 8.7002 3 10.9004l124 70.3994v38.6006c0 25.1992 13.5 48.8994 35.0996 61.8994l62.5 37c3.5 19.9004 14.7002 37.5 32.2002 48.5l33.5 20.9004
c16.5 10.2998 35.6006 15.7998 55.1006 15.7998h94.6992l111 63c3.80078 2.2002 8.7002 0.799805 10.9004 -3l8 -14c2.2002 -3.7998 0.799805 -8.7002 -3 -10.9004l-118.5 -67h-103.2c-13.5 0 -26.7002 -3.7998 -38.0996 -10.8994l-33.4004 -20.9004
c-11.7002 -7.2998 -18.7998 -20.0996 -18.7998 -33.8994v-94.3008c0 -19.3994 17.4004 -34.8994 37.4004 -31.5996c15.6992 2.5 26.5996 17.2998 26.5996 33.2998v62.2002h144c26.5 0 48 -21.5 48 -48v-15.9004l108 63c3.7998 2.2002 8.7002 0.900391 10.9004 -2.89941z" />
    <glyph glyph-name="hands-usd" unicode="&#xf4c5;" horiz-adv-x="640" 
d="M640 304l0.0996094 -170.3c0 -10.9004 -3.69922 -21.5 -10.5 -30l-107 -133.7c-5.5 -6.7998 -8.89941 -17.4004 -10.0996 -27c-0.5 -4 -4 -6.90039 -8 -6.90039h-16c-4.7998 0 -8.5 3.90039 -8 8.7002c1.59961 16 7.59961 33.2998 17.0996 45.2002l107 133.7
c2.30078 2.7998 3.5 6.39941 3.5 10v170.399c0 21 -32 21.6006 -32 -0.699219v-149.7l-64.5996 -77.5c-36.9004 -44.2998 -96.9004 2.7002 -70.7998 42.3994c0.0996094 0.300781 0.299805 0.5 0.5 0.800781l30.5996 42.1992c4.7998 6.5 4.2998 16.7002 -3.5 22.3008
c-7.09961 5.19922 -17.0996 3.7998 -22.3994 -3.5l-42.4004 -58.4004c-12.7002 -16.9004 -19.5 -37.4004 -19.5 -58v-120c0 -4.40039 -3.59961 -8 -8 -8h-16c-4.40039 0 -8 3.59961 -8 8v120c0 27.7002 9 54.7002 25.5996 76.9004l42.4004 58.3994
c13.9004 19.2002 49 31.2998 74.5 3.90039c15.5996 -16.7002 15.9004 -42.7998 2.5 -61.2998l-28.5996 -39.3008c-6.5 -9 6.5 -19.0996 13.5996 -10.6992l62 73.2998v137.1c0 26 21.2002 49.2998 47.2002 49.7002c26.8994 0.400391 48.7998 -21.2002 48.7998 -48zM220 199.2
l42.5 -58.5c16.5996 -22.2002 25.5996 -49.1006 25.5996 -76.7998v-120c0 -4.40039 -3.59961 -8 -8 -8h-16c-4.39941 0 -8 3.59961 -8 8v120c0 20.5996 -6.7998 41.0996 -19.5 58l-42.3994 58.3994c-5.2998 7.2998 -15.4004 8.60059 -22.4004 3.5
c-7.7002 -5.59961 -8.2002 -15.7998 -3.5 -22.2998l30.6006 -42.2002c0.0996094 -0.299805 0.299805 -0.5 0.5 -0.799805c26 -39.7002 -33.9004 -86.5996 -70.8008 -42.4004l-64.5996 77.5v149.7c0 22.2998 -32 21.7002 -32 0.700195v-170.4
c0 -3.59961 1.2002 -7.19922 3.5 -10l107 -133.699c9.59961 -11.9004 15.5 -29.2002 17.0996 -45.2002c0.5 -4.7998 -3.19922 -8.7002 -8 -8.7002h-16c-4 0 -7.5 2.90039 -8 6.90039c-1.19922 9.5 -4.69922 20.1992 -10.0996 27l-107 133.699
c-6.7998 8.5 -10.5 19.1006 -10.5 30v170.4c0 26.7998 21.9004 48.4004 48.7998 47.9004c26 -0.400391 47.2002 -23.7002 47.2002 -49.7002v-137.101l62 -73.2998c7.09961 -8.39941 20.0996 1.7998 13.5996 10.7002l-28.5996 39.2998
c-13.4004 18.5 -13.0996 44.5 2.5 61.2998c25.4004 27.5 60.5 15.3008 74.5 -3.89941zM389.1 259.2c-7.39941 -21.6006 -28.8994 -35.2002 -51.5 -35.2002h-1.39941v-24c0 -4.40039 -3.60059 -8 -8 -8h-16c-4.40039 0 -8 3.59961 -8 8v24h-1.40039
c-15.7002 0 -30.5996 5.09961 -42.8994 14.5c-3.90039 3 -4.5 8.7002 -1 12.2002l11.3994 11.3994c2.60059 2.7002 6.7998 3.40039 9.7998 1.2002c6.5 -4.7002 14.4004 -7.2998 22.6006 -7.2998h36.8994c11.3008 0 20.5 9.2002 20.5 20.5
c0 9.09961 -6.09961 17.2002 -14.8994 19.7002l-56.4004 16.0996c-21.3994 6.10059 -38.3994 24 -40.5 46.2002c-2.89941 31.2002 21.6006 57.5 52.2002 57.5h3.5v24c0 4.40039 3.59961 8 8 8h16c4.40039 0 8 -3.59961 8 -8v-24h1.40039
c15.6992 0 30.5996 -5.09961 42.7998 -14.4004c3.89941 -3 4.5 -8.69922 1 -12.1992l-11.4004 -11.4004c-2.59961 -2.7002 -6.7998 -3.40039 -9.7998 -1.2002c-6.5 4.7002 -14.4004 7.2998 -22.5996 7.2998h-36.9004c-11.2998 0 -20.5 -9.19922 -20.5 -20.5
c0 -9.09961 6.09961 -17.1992 14.9004 -19.6992l59.0996 -16.9004c27.7998 -8 45.2002 -38.2002 35.0996 -67.7998z" />
    <glyph glyph-name="handshake-alt" unicode="&#xf4c6;" horiz-adv-x="640" 
d="M238.4 271.4c-14.9004 -13.7002 -15.8008 -36.9004 -2.30078 -51.6006c13.1006 -14.2002 37.3008 -15.2998 51.7002 -2.2002l75.1006 68.8008c6.5 5.89941 16.5996 5.5 22.5996 -1s5.5 -16.6006 -1 -22.6006l-28.4004 -26.0996l121.9 -99
c3.5 -2.90039 6.2998 -6.2998 8.7998 -9.7998h145.2c4.40039 0 8 -3.60059 8 -8v-16c0 -4.40039 -3.59961 -8 -8 -8h-136.3c-0.900391 -9.10059 -4.2998 -18.1006 -10.5 -25.7002l-9.5 -11.7002c-17.1006 -21 -43.6006 -20.9004 -60 -12l-21.9004 -26.9004
c-10.2998 -12.5996 -25.3994 -19.5996 -41.3994 -19.5996c-12.2002 0 -23.9004 4.09961 -33.5 11.9004l-7.2002 6.19922c-29.2002 -23.5996 -71.2002 -24.2998 -101 -0.199219l-81.5 78h-121.2c-4.40039 0 -8 3.59961 -8 8v16c0 4.39941 3.59961 8 8 8h134l89.9004 -86.1006
c19.5996 -15.7998 49.8994 -12.5996 66.5996 7.90039l10.4004 12.7998l30.5996 -26.0996c8.40039 -6.80078 21.9004 -5.90039 29.4004 3.39941l41.5 51l17.7998 -14.3994c7.09961 -5.80078 17.0996 -4.30078 22.5 2.2998l9.5 11.7002c5.59961 6.7998 4.5 17 -2.2998 22.5
l-125.601 101.899l-22.7998 -20.8994c-38.2998 -35.1006 -82.5996 -11.4004 -96.9004 4.19922c-25.3994 27.7002 -24 71 4.2002 96.9004l59 54.0996c-0.799805 2.2002 -0.200195 0.700195 -1.09961 2.90039h-69.5c-4.2002 0 -8.2998 -1.7002 -11.2998 -4.7002
l-59.3008 -59.2998h-126.6c-4.40039 0 -8 3.59961 -8 8v16c0 4.40039 3.59961 8 8 8h113.4l49.8994 50.0996c9.10059 9 21.2998 14.1006 34 14.1006h69.5c10.6006 0 20.9004 -3.7998 29.2998 -10.2998c8.2002 6.09961 17.9004 10 28.3008 10h101
c12.7998 0 24.7998 -5 33.8994 -14.1006l51.2002 -49.8994h113.5c4.40039 0 8 -3.60059 8 -8v-16c0 -4.40039 -3.59961 -8 -8 -8h-126.6l-60.7002 59.0996c-3.10059 3.09961 -7.10059 4.7998 -11.4004 4.7998h-101c-4 0 -7.7998 -1.5 -10.7998 -4.2002z" />
    <glyph glyph-name="heart-square" unicode="&#xf4c8;" horiz-adv-x="448" 
d="M340 302.4c35.4004 -30.6006 37.2002 -85.5 5.59961 -118.7l-108.899 -114.101c-7.10059 -7.39941 -18.5 -7.39941 -25.5 0l-108.9 114.101c-31.5996 33.0996 -29.7002 88.0996 5.60059 118.7c14.5 12.5 30.5996 17.5996 46.2998 17.5996
c23.0996 0 45 -11 58.7002 -25.2998l11.0996 -11.6006l11 11.6006c14 14.5996 35.7998 25.2998 58.5996 25.2998c15.8008 0 32 -5.09961 46.4004 -17.5996zM323 205.9c16.7002 17.5996 20.4004 51.5996 -3.5 72c-8.09961 7.09961 -17.2998 9.89941 -26.2002 9.89941
c-13.8994 0 -27.3994 -6.89941 -35.5996 -15.5l-33.7002 -35.2998l-33.7002 35.2998c-8.2998 8.7002 -21.7002 15.6006 -35.5996 15.6006c-9 0 -18.1006 -2.80078 -26.2998 -9.90039c-23.8008 -20.5 -20.1006 -54.5996 -3.40039 -72.0996l99 -103.801zM400 416
c26.5 0 48 -21.5 48 -48v-352c0 -26.5 -21.5 -48 -48 -48h-352c-26.5 0 -48 21.5 -48 48v352c0 26.5 21.5 48 48 48h352zM416 16v352c0 8.7998 -7.2002 16 -16 16h-352c-8.7998 0 -16 -7.2002 -16 -16v-352c0 -8.7998 7.2002 -16 16 -16h352c8.7998 0 16 7.2002 16 16z" />
    <glyph glyph-name="leaf-heart" unicode="&#xf4cb;" horiz-adv-x="576" 
d="M426.2 242.8c27.5 -23 29 -64.2002 4.5 -89.0996l-84.7002 -85.6006c-5.5 -5.59961 -14.4004 -5.5 -19.7998 0l-84.7002 85.6006c-24.5996 24.8994 -23.2002 66.0996 4.2998 89.0996c13.7998 11.6006 47.6006 28.5 90.2002 -14.5c42.5 43 76.2998 26.1006 90.2002 14.5z
M407.8 176.2c10.2998 10.3994 12.2998 30 -1.89941 42c-13.8008 11.5 -31.3008 3.5 -38.4004 -3.7002l-31.4004 -31.7002l-31.3994 31.7002c-7.2002 7.09961 -24.7002 15.2002 -38.4004 3.7002c-14.3994 -12 -12.2998 -31.7002 -2.09961 -42l71.7998 -72.6006zM546.2 438.3
c19 -42.3994 29.7998 -94.3994 29.7998 -144.6c0 -172.5 -110.5 -313.3 -267.6 -324.601c-114.601 -12.0996 -174.301 71.5 -189.801 100.5c-63.2998 -57.5 -87.2998 -122.199 -87.5 -122.899c-3.09961 -9 -12.7998 -12.5 -20.3994 -9.7998
c-8.2998 3 -12.7002 12.0996 -9.7998 20.3994c1.09961 3.2002 28.3994 78.5 104.5 143.5c-6 18.6006 -9.40039 38.5 -9.40039 59.2002c0 106 86 192 192 192h80c63.4004 0 118.9 33.5996 149.9 87.5c3.2998 5.7002 8.69922 8.5 14 8.5
c5.69922 0 11.3994 -3.2002 14.2998 -9.7002zM305 0.900391c138.9 10.0996 239 133.199 239 292.8c0 34.7998 -5.7998 71.2002 -16.2998 103.5c-38.7002 -48.7998 -96.4004 -77.2002 -159.7 -77.2002h-80c-88.2002 0 -160 -71.7998 -160 -160
c0 -92.7002 80 -169.3 177 -159.1z" />
    <glyph glyph-name="loveseat" unicode="&#xf4cc;" 
d="M448 254.1c36.5 -7.5 64 -39.8994 64 -78.5996c0 -25.0996 -12.0996 -48.7002 -32 -63.7998v-79.6006c0 -17.6992 -14.2998 -32.0996 -32 -32.0996h-64c-17.2998 0 -31.2998 14.7002 -31.7998 32h-192.4c-0.5 -17.2998 -14.5 -32 -31.7998 -32h-64
c-17.7002 0 -32 14.4004 -32 32.0996v79.6006c-19.9004 15 -32 38.7002 -32 63.7998c0 38.7998 27.5 71.0996 64 78.5996v33.7002c0 53.1006 43 96.2002 96 96.2002h192c53 0 96 -43.0996 96 -96.2002v-33.7002zM128 32.0996v175.5c0 8.80078 -7.2002 16 -16 16h-32
c-26.5 0 -48 -21.5996 -48 -48.0996c0 -24.9004 14.9004 -36 32 -46v-97.4004h64zM352 64v95.5h-192v-95.5h192zM352 207.6c0 26.5 21.5 48.1006 48 48.1006h16v32.0996c0 35.2998 -28.7002 64.1006 -64 64.1006h-192c-35.2998 0 -64 -28.7002 -64 -64.1006v-32.0996h16
c26.5 0 48 -21.6006 48 -48.1006v-15.5996h192v15.5996zM448 129.5c18.0996 10.5996 32 22.0996 32 46c0 26.5 -21.5 48.0996 -48 48.0996h-32c-8.7998 0 -16 -7.19922 -16 -16v-175.5h64v97.4004z" />
    <glyph glyph-name="parachute-box" unicode="&#xf4cd;" 
d="M511.9 243.8c1.09961 -10.7002 -6.80078 -19.7998 -16.1006 -19.7998h-32.5l-111.3 -121.4v-134.6c0 -17.7002 -14.2998 -32 -32 -32h-128c-17.7002 0 -32 14.2998 -32 32v134.6l-111.4 121.4h-32.5c-9.19922 0 -17.0996 9.09961 -16 19.7998
c12.7002 123.3 143.101 204.2 255.9 204.2s243.2 -80.9004 255.9 -204.2zM256 416c-51.7998 0 -112 -64 -112 -160h224c0 96 -60.2002 160 -112 160zM34.2998 256h77.7002v0.799805c0 59.1006 21.2998 107.4 51.4004 140.101
c-62.4004 -25.7002 -115.7 -75.8008 -129.101 -140.9zM180.1 128h59.9004v96h-148zM320 -24v112c0 4.40039 -3.59961 8 -8 8h-112c-4.40039 0 -8 -3.59961 -8 -8v-112c0 -4.40039 3.59961 -8 8 -8h112c4.40039 0 8 3.59961 8 8zM331.9 128l88 96h-147.9v-96h59.9004z
M400 256h77.7002c-13.4004 65.0996 -66.7998 115.2 -129.101 140.9c30.1006 -32.8008 51.4004 -81 51.4004 -140.101v-0.799805z" />
    <glyph glyph-name="people-carry" unicode="&#xf4ce;" horiz-adv-x="640" 
d="M635.9 3.59961c10.6992 -24.0996 -0.200195 -52.5 -24.2002 -63.2998c-29 -12.7998 -54.9004 5.2002 -63.4004 24.2998l-29.7002 66.7002l-6.89941 -53.2998c-1.2002 -8.7998 -12.7998 -46.0996 -53.2998 -41.5c-26.8008 3.5 -45.4004 27.5996 -42 53.7998l10.5 81.5
c1.59961 12.7002 7 24.6006 15.5 34.2002l41.0996 46.5996l-4.2002 16.9004c-4.59961 -5.90039 -10.2002 -11.2998 -16.7002 -16.0996c-1.59961 -1.2002 2.7002 1.69922 -47.6992 -30.4004c-2.10059 -6.2998 -7.90039 -10.7998 -14.9004 -10.7998h-160
c-6.90039 0 -12.7002 4.59961 -14.9004 10.7998c-50.3994 32 -46 29.2002 -47.6992 30.4004c-6.5 4.69922 -12.1006 10.0996 -16.7002 16.0996l-4.2002 -16.9004l41.2002 -46.5996c8.5 -9.59961 13.8994 -21.5 15.5 -34.2002l10.5 -81.5
c3.2998 -26.2002 -15.2998 -50.2998 -42 -53.7998c-40.2998 -4.59961 -52.2002 32.9004 -53.2998 41.5l-6.90039 53.2998l-29.7002 -66.7002c-8.5 -19.0996 -34.3994 -37.0996 -63.3994 -24.2998c-24.1006 10.7002 -35 39.2002 -24.3008 63.2998l52.3008 117.4
c-19.6006 22.0996 -24.9004 48.2998 -19.4004 72.4004l18.4004 80.1992c5 21.7002 19.2998 39.9004 38.3994 51.1006c-24.5996 24.0996 -28.3994 60.5 -11.3994 88.5996c14.7998 24.4004 39.7998 34.7002 61.5996 34.7002c33.2002 0 62 -22.5 69.9004 -54.9004
c3.5 -14.1992 6.09961 -52.0996 -29.3008 -76.3994c17.4004 -13.2002 30.9004 -30.5 39.4004 -50.5v21.7998c0 8.7998 7.2002 16 16 16h160c8.7998 0 16 -7.2002 16 -16v-21.7002c8.59961 20 22.0996 37.2998 39.4004 50.5c-35.5 24.2998 -32.8008 62.2998 -29.3008 76.4004
c8 32.2998 36.7002 54.7998 69.9004 54.7998c21.7002 0 46.7998 -10.2002 61.7002 -34.7998c17 -28.2002 13.0996 -64.6006 -11.4004 -88.6006c19.1006 -11.0996 33.4004 -29.3994 38.4004 -51.0996l18.3994 -80.2002c5.60059 -24.2002 0 -50.3994 -19.3994 -72.3994z
M457.2 385.6c-6.60059 -26.6992 14.3994 -49.5996 38.7998 -49.5996c18 0 34.2998 12.2002 38.9004 30.5c6.5 26.7002 -14.5 49.5 -38.9004 49.5c-18 0 -34.4004 -12.2002 -38.7998 -30.4004zM144 416c-24 0 -45.5 -22.4004 -38.7998 -49.5996
c4.5 -18.2002 20.7998 -30.4004 38.7998 -30.4004c24 0 45.5 22.4004 38.7998 49.5996c-4.5 18.2002 -20.7998 30.4004 -38.7998 30.4004zM62.5996 -22.4004l40.3008 90.5l-23.3008 26.4004l-46.1992 -103.9c-3.60059 -8.09961 0 -17.5 8.09961 -21.0996
s17.5 0 21.0996 8.09961zM269.7 151.5c4.7998 7.5 2.5 17.4004 -4.90039 22.0996l-50.2002 31.8008c-1.7998 2.2998 -3.5 4.5 -5.2998 6.7998l-11.7002 34.8994c-7.09961 21.3008 -21.5996 39.3008 -41 50.7002c-0.599609 0.299805 -18.6992 12.2998 -41.6992 2.40039
c-14.2002 -6.10059 -24.7002 -18.7998 -28.2002 -33.7998l-18.4004 -80.2002c-3.5 -15.1006 0.5 -31 10.7998 -42.6006l64.2002 -72.6992c4.2998 -4.80078 7 -10.8008 7.7998 -17.1006l9.2002 -71.7998c0.299805 -2.7998 4.10059 -15.5996 18.2002 -13.7998
c8.59961 1.09961 14.5996 9.2998 13.5 17.8994l-10.5 81.5c-0.900391 6.30078 -3.59961 12.3008 -7.7998 17.1006l-52.4004 59.2998l27.1006 108.3c1.09961 4.2998 6.69922 5.5 9.39941 1.90039c3.2998 -4.40039 7 -10.2998 9.2998 -17.2002l11.3008 -33.7998
c3.09961 -9.40039 9 -17.5 18.0996 -24.1006l51.0996 -32.5c7.10059 -4.5 17.1006 -2.89941 22.1006 4.90039zM338.9 144.1c-7.30078 20.6006 0.0996094 44.3008 19.2998 56.5l25.7998 16.4004v55h-128v-55.0996l25.9004 -16.3008
c19.0996 -12.2998 26.5996 -35.8994 19.2998 -56.5h37.7002zM496.9 71l64.3994 72.5996c10.2002 11.7002 14.2998 27.5 10.7998 42.6006l-18.3994 80.2002c-3.40039 15 -14 27.6992 -28.2002 33.7998c-23 9.89941 -41.2002 -2.10059 -41.7002 -2.40039
c-19.3994 -11.3994 -33.8994 -29.3994 -41 -50.7002l-11.7002 -34.8994c-1.7998 -2.2998 -3.5 -4.5 -5.2998 -6.7998l-50.2002 -31.8008c-7.39941 -4.7998 -9.59961 -14.5996 -4.89941 -22.0996c5 -7.90039 15.0996 -9.2998 22.0996 -4.90039l51.1006 32.5
c8.89941 6.60059 14.7998 14.7002 17.8994 24.1006l11.2998 33.7998c2.30078 6.90039 6 12.7998 9.30078 17.2002c2.69922 3.59961 8.2998 2.5 9.39941 -1.90039l27.1006 -108.2l-52.4004 -59.2998c-4.2998 -4.7998 -7 -10.7998 -7.7998 -17.0996l-10.5 -81.5
c-1.10059 -8.7002 4.89941 -16.7998 13.5 -17.9004c14 -1.7998 17.7998 11 18.2002 13.7998l9.19922 71.8008c0.900391 6.39941 3.60059 12.2998 7.80078 17.0996zM598.5 -30.5c8.09961 3.59961 11.7002 13.0996 8.09961 21.2002l-46.1992 103.899l-23.3008 -26.3994
l40.3008 -90.6006c3.59961 -8.09961 13 -11.6992 21.0996 -8.09961z" />
    <glyph glyph-name="person-carry" unicode="&#xf4cf;" horiz-adv-x="384" 
d="M368 352c8.7998 0 16 -7.2002 16 -16v-160c0 -8.7998 -7.2002 -16 -16 -16h-211.9l-28.0996 28.0996v-39.1992l37.7998 -32.5c14.2002 -12 23.7998 -28.8008 27.2002 -47.1006l14.0996 -76.5996c4.90039 -26.2998 -12.6992 -51.1006 -38.3994 -55.7998
c-28.2002 -5.30078 -51.6006 14.6992 -56 38.5l-13.1006 71.5l-3.59961 3.09961v-66c0 -26.5 -21.5 -48 -48 -48s-48 21.5 -48 48v272c0 28.5996 15.5996 53.9004 38.5 68c-9.7002 9.2002 -17 21 -20.4004 34.7998c-11.2998 45.7002 23.6006 89.2002 69.9004 89.2002
c33.2002 0 62 -22.5 69.9004 -54.7002c5.09961 -20.8994 1.7998 -52.8994 -26.3008 -74.3994c2.60059 -2.10059 5.30078 -3.90039 7.7002 -6.30078l52.7002 -52.6992v76.0996c0 8.7998 7.2002 16 16 16h160zM88 416c-24 0 -45.5 -22.4004 -38.7998 -49.5
c4.5 -18.2998 20.7998 -30.5 38.7998 -30.5c24 0 45.5 22.4004 38.7998 49.5c-4.5 18.2998 -20.7998 30.5 -38.7998 30.5zM64 -16v93.4004l-32 27.3994v-120.8c0 -8.7998 7.2002 -16 16 -16s16 7.2002 16 16zM169.4 192h54.5996c8.7998 0 16 7.2002 16 16s-7.2002 16 -16 16
h-41.4004l-65.8994 65.9004c-8.90039 9 -21.2998 14.0996 -36.7002 14.0996h-2.09961c-25.6006 -0.799805 -45.9004 -22.4004 -45.9004 -48v-87c0 -14.0996 6.09961 -27.2998 16.9004 -36.5996l75.5996 -64.7002c3 -2.60059 5.09961 -6.2002 5.7998 -10.1006l14.1006 -76.5
c1.39941 -7.69922 8.09961 -13.0996 15.6992 -13.0996c0.900391 0 1.90039 0.0996094 2.90039 0.299805c8.59961 1.60059 14.4004 9.90039 12.7998 18.6006l-14.0996 76.5996c-2.10059 11.0996 -7.90039 21.2998 -16.5 28.5996l-49.2002 42.1006v111.899
c0 4.80078 4 8 8.09961 8c2 0 4 -0.799805 5.60059 -2.39941zM352 192v128h-128v-64c26.5 0 48 -21.5 48 -48c0 -5.59961 -1.09961 -11 -2.90039 -16h82.9004z" />
    <glyph glyph-name="person-dolly" unicode="&#xf4d0;" 
d="M507.6 56.2002l4.2002 -15.4004c1.10059 -4.2998 -1.39941 -8.7002 -5.7002 -9.7998l-155.199 -41.5996c-5.10059 -30.3008 -31.2002 -53.4004 -62.9004 -53.4004c-35.2998 0 -64 28.7002 -64 64c0 22.5 11.5996 42.2002 29.0996 53.5996l-28.5 106.5
c-0.199219 0 -0.399414 -0.0996094 -0.599609 -0.0996094h-67.9004l-28.0996 28.0996v-39.1992l37.7998 -32.5c14.2002 -12 23.7998 -28.8008 27.2002 -47.1006l14.0996 -76.5996c2.30078 -12.6006 -0.399414 -25.2998 -7.69922 -35.9004
c-7.30078 -10.5 -18.2002 -17.5996 -30.7002 -19.8994c-28.2002 -5.30078 -51.6006 14.6992 -56 38.5l-13.1006 71.5l-3.59961 3.09961v-66c0 -26.5 -21.5 -48 -48 -48s-48 21.5 -48 48v272c0 28.5996 15.5996 53.9004 38.5 68c-9.7002 9.2002 -17 21 -20.4004 34.7998
c-4.59961 18.7002 -1.69922 38.1006 8.30078 54.5c14.7998 24.4004 39.8994 34.7002 61.5996 34.7002c33.2002 0 62 -22.5 69.7998 -54.5996c4.60059 -18.7002 1.7002 -38.1006 -8.2998 -54.5c-4.7998 -7.90039 -10.9004 -14.5 -18 -19.9004
c2.59961 -2.09961 5.2998 -3.90039 7.7002 -6.2998l56.5996 -56.6006h3l-21.7998 81.8008c-1.09961 4.2998 1.40039 8.69922 5.7002 9.7998l15.5 4.09961c4.2998 1.10059 8.7002 -1.39941 9.7998 -5.7002l24.2998 -90.7998c22.5 -4 39.7002 -23.5996 39.7002 -47.2002
c0 -3.89941 -0.599609 -7.59961 -1.5 -11.1992l127.1 34c17.1006 4.59961 34.6006 -5.5 39.2002 -22.6006l40.7002 -151.8l20.2998 5.40039c4.2998 1.09961 8.7002 -1.40039 9.7998 -5.7002zM88 416c-24 0 -45.5 -22.4004 -38.7998 -49.5
c4.5 -18.2998 20.7998 -30.5 38.7998 -30.5c24 0 45.5 22.4004 38.7998 49.5c-4.5 18.2998 -20.7998 30.5 -38.7998 30.5zM64 -16v93.4004l-32 27.3994v-120.8c0 -8.7998 7.2002 -16 16 -16s16 7.2002 16 16zM169.4 192h54.5996c8.7998 0 16 7.2002 16 16s-7.2002 16 -16 16
h-41.4004l-65.8994 65.9004c-8.90039 9 -21.2998 14.0996 -36.7002 14.0996h-2.09961c-25.6006 -0.799805 -45.9004 -22.4004 -45.9004 -48v-87c0 -14.0996 6.09961 -27.2998 16.9004 -36.5996l75.5996 -64.7002c3 -2.60059 5.09961 -6.2002 5.7998 -10.1006l14.1006 -76.5
c1.39941 -7.69922 8.09961 -13.0996 15.6992 -13.0996c0.900391 0 1.90039 0.0996094 2.90039 0.299805c8.59961 1.60059 14.4004 9.90039 12.7998 18.6006l-14.0996 76.5996c-2.10059 11.0996 -7.90039 21.2998 -16.5 28.5996l-49.2002 42.1006v111.899
c0 4.80078 4 8 8.09961 8c2 0 4 -0.799805 5.60059 -2.39941zM288 -32c17.5996 0 32 14.4004 32 32s-14.4004 32 -32 32s-32 -14.4004 -32 -32s14.4004 -32 32 -32zM348 21.7998l98.5996 26.4004l-40.6992 151.8l-148.2 -39.7002l25.8994 -96.5996
c1.5 0.0996094 2.90039 0.399414 4.40039 0.399414c27.7002 0 51.0996 -17.6992 60 -42.2998z" />
    <glyph glyph-name="person-dolly-empty" unicode="&#xf4d1;" 
d="M507.6 56.2002l4.2002 -15.4004c1.10059 -4.2998 -1.39941 -8.7002 -5.7002 -9.7998l-155.199 -41.5996c-5.10059 -30.3008 -31.2002 -53.4004 -62.9004 -53.4004c-35.2998 0 -64 28.7002 -64 64c0 22.5 11.5996 42.2002 29.0996 53.5996l-28.5 106.5
c-0.199219 0 -0.399414 -0.0996094 -0.599609 -0.0996094h-67.9004l-28.0996 28.0996v-39.1992l37.7998 -32.5c14.2002 -12 23.7998 -28.8008 27.2002 -47.1006l14.0996 -76.5996c2.30078 -12.6006 -0.399414 -25.2998 -7.69922 -35.9004
c-7.30078 -10.5 -18.2002 -17.5996 -30.7002 -19.8994c-28.2002 -5.30078 -51.6006 14.6992 -56 38.5l-13.1006 71.5l-3.59961 3.09961v-66c0 -26.5 -21.5 -48 -48 -48s-48 21.5 -48 48v272c0 28.5996 15.5996 53.9004 38.5 68c-9.7002 9.2002 -17 21 -20.4004 34.7998
c-4.59961 18.7002 -1.69922 38.1006 8.30078 54.5c14.7998 24.4004 39.8994 34.7002 61.5996 34.7002c33.2002 0 62 -22.5 69.7998 -54.5c4.60059 -18.7002 1.7002 -38.0996 -8.2998 -54.5c-4.7998 -7.90039 -10.9004 -14.5 -18 -19.9004
c2.59961 -2.09961 5.2998 -3.89941 7.7002 -6.2998l56.5996 -56.5996h3l-22.5996 81.7998c-1.10059 4.2998 1.39941 8.7002 5.7002 9.7998l15.5 4.10059c4.2998 1.09961 8.69922 -1.40039 9.7998 -5.7002l25.0996 -90.9004c22.5 -4 39.7002 -23.5996 39.7002 -47.2002
c0 -14.6992 -6.7998 -27.7998 -17.2998 -36.5996l28.8994 -107.8c1.5 0.0996094 2.90039 0.399414 4.40039 0.399414c27.7002 0 51.0996 -17.6992 60 -42.2998l149.8 40.1006c4.2998 1.09961 8.7002 -1.40039 9.7998 -5.7002zM88 416c-24 0 -45.5 -22.4004 -38.7998 -49.5
c4.5 -18.2998 20.7998 -30.5 38.7998 -30.5c24 0 45.5 22.4004 38.7998 49.5c-4.5 18.2998 -20.7998 30.5 -38.7998 30.5zM64 -16v93.4004l-32 27.3994v-120.8c0 -8.7998 7.2002 -16 16 -16s16 7.2002 16 16zM169.4 192h54.5996c8.7998 0 16 7.2002 16 16s-7.2002 16 -16 16
h-41.4004l-65.8994 65.9004c-8.90039 9 -21.2998 14.0996 -36.7002 14.0996h-2.09961c-25.6006 -0.799805 -45.9004 -22.4004 -45.9004 -48v-87c0 -14.0996 6.09961 -27.2998 16.9004 -36.5996l75.5996 -64.7002c3 -2.60059 5.09961 -6.2002 5.7998 -10.1006l14.1006 -76.5
c1.39941 -7.69922 8.09961 -13.0996 15.6992 -13.0996c0.900391 0 1.90039 0.0996094 2.90039 0.299805c8.59961 1.60059 14.4004 9.90039 12.7998 18.6006l-14.0996 76.5996c-2.10059 11.0996 -7.90039 21.2998 -16.5 28.5996l-49.2002 42.1006v111.899
c0 4.80078 4 8 8.09961 8c2 0 4 -0.799805 5.60059 -2.39941zM288 -32c17.5996 0 32 14.4004 32 32s-14.4004 32 -32 32s-32 -14.4004 -32 -32s14.4004 -32 32 -32z" />
    <glyph glyph-name="phone-plus" unicode="&#xf4d2;" 
d="M8 320c-4.40039 0 -8 3.59961 -8 8v16c0 4.40039 3.59961 8 8 8h88v88c0 4.40039 3.59961 8 8 8h16c4.40039 0 8 -3.59961 8 -8v-88h88c4.40039 0 8 -3.59961 8 -8v-16c0 -4.40039 -3.59961 -8 -8 -8h-88v-88c0 -4.40039 -3.59961 -8 -8 -8h-16
c-4.40039 0 -8 3.59961 -8 8v88h-88zM487.8 423.9c14.2002 -3.2002 24.2002 -15.8008 24.2002 -30.4004c0 -253.3 -205.3 -457.5 -457.5 -457.5c-14.5996 0 -27.2002 10 -30.5 24.0996l-23.2002 100.801c-3.39941 14.7998 4.2002 29.7998 18.1006 35.7998l108.399 46.5
c12.7002 5.5 27.7002 1.7998 36.5 -8.90039l44.1006 -53.8994c69.2998 34 125.6 90.3994 159.6 159.6l-53.9004 44.0996c-10.6992 8.80078 -14.3994 23.8008 -8.89941 36.5l46.5 108.5c6 13.9004 21.0996 21.5 35.7998 18.1006zM55.0996 -32
c234.5 0.299805 424.601 190.3 424.801 424.8l-99.6006 23l-46 -107.399l72.7998 -59.5c-48.3994 -103.2 -104.5 -159.5 -208.1 -208.101l-59.5 72.7998l-107.4 -46z" />
    <glyph glyph-name="ramp-loading" unicode="&#xf4d4;" horiz-adv-x="384" 
d="M384 96c0 -17.7002 -14.2998 -32 -32 -32h-6.90039l35.8008 -83.4004c9.09961 -21.0996 -6.40039 -44.5996 -29.4004 -44.5996h-318.9c-23 0 -38.5 23.5 -29.3994 44.5996l35.7002 83.4004h-6.90039c-17.7002 0 -32 14.2998 -32 32v320c0 17.7002 14.2998 32 32 32h320
c17.7002 0 32 -14.2998 32 -32v-320zM351.4 -32l-68.5 160h-181.7l-68.6006 -160h318.801zM331.4 96h20.5996v320h-320v-320h20.5996l19.1006 44.5996c5 11.8008 16.5996 19.4004 29.3994 19.4004h181.801c12.7998 0 24.3994 -7.59961 29.3994 -19.4004z" />
    <glyph glyph-name="ribbon" unicode="&#xf4d6;" horiz-adv-x="448" 
d="M439.5 40.2998c13.7002 -14.7998 10.2998 -37.5 -6 -48.2002l-64.7998 -50c-7.2998 -4.69922 -27.4004 -12.3994 -43 4.30078l-101.7 109l-101.7 -109c-8.09961 -8.60059 -25.3994 -15.7002 -41.8994 -5l-66.9004 51.5c-13.2002 8.39941 -20 31.0996 -5.09961 47.1992
l117.899 120.101l-44.2002 47.2998c-32.8994 35.2002 -38.0996 86.2998 -13 127l42.2002 68.5c5.5 9 12.7002 16.5 21.5 22.0996c16.1006 10.4004 45.1006 22.9004 91.2002 22.9004c46.2002 0 75.0996 -12.5 91.2998 -23c8.7002 -5.59961 16 -12.9004 21.5 -21.9004
l39.5 -64.0996c27.2002 -44.2002 23.2002 -95.7998 -10.2002 -131.5l-42.3994 -45.4004zM328.4 355.7c-4.90039 -19.4004 -13.6006 -40.9004 -29.6006 -56.4004l-52 -56.2998l54.7998 -57.5996l41.1006 44c23.5996 25.2998 26 60.8994 6.2998 92.8994zM224.8 266.2
l43.7998 47.3994c-26.6992 8 -62.1992 8 -88.8994 0zM150.2 398.2c-1.7002 -1 -3.2002 -2.2002 -4.7002 -3.5c0.799805 -11.6006 3.59961 -35.2002 13.2998 -54.6006c18.7002 7.80078 40.4004 11.9004 65.2002 11.9004s46.4004 -4.09961 65 -11.7998
c9 18 12.5 39.5996 13.5 53.2998c-1.59961 1.5 -2.7002 3.5 -4.59961 4.7002c-12.6006 8.09961 -35.6006 17.7998 -73.9004 17.7998s-61.2998 -9.59961 -73.7998 -17.7998zM98.9004 -32.5l103.3 111.3l-54.1006 58l-116.5 -118.8zM349.1 -31.7002l65.9004 49.9004
l-266.2 281.6c-15.5996 15.1006 -24.3994 36.4004 -29.2998 55.6006l-23.2002 -37.6006c-17.5 -28.3994 -13.7998 -63.8994 9.10059 -88.3994z" />
    <glyph glyph-name="seedling" unicode="&#xf4d8;" 
d="M442.7 416h69.2998v-16c0 -132.3 -90.9004 -240 -202.7 -240h-37.2998v-184c0 -4.40039 -3.59961 -8 -8 -8h-16c-4.40039 0 -8 3.59961 -8 8v120h-37.2998c-111.8 0 -202.7 107.7 -202.7 240v16h69.2998c75.5 0 141.2 -49.0996 176.2 -121.7
c20.7998 106.3 101.3 185.7 197.2 185.7zM202.7 128h36.7998c-6.7998 107.2 -80.5 192 -170.2 192h-36.7998c6.7002 -107.2 80.5 -192 170.2 -192zM309.3 192c89.7002 0 163.5 84.7998 170.2 192h-36.7998c-89.7002 0 -163.5 -84.7998 -170.2 -192h36.7998z" />
    <glyph glyph-name="sign" unicode="&#xf4d9;" 
d="M504 384c4.40039 0 8 -3.59961 8 -8v-16c0 -4.40039 -3.59961 -8 -8 -8h-56v-48h16c17.7002 0 32 -14.2998 32 -32v-176c0 -17.7002 -14.2998 -32 -32 -32h-288c-17.7002 0 -32 14.2998 -32 32v176c0 17.7002 14.2998 32 32 32h16v48h-96v-408
c0 -4.40039 -3.59961 -8 -8 -8h-16c-4.40039 0 -8 3.59961 -8 8v408h-56c-4.40039 0 -8 3.59961 -8 8v16c0 4.40039 3.59961 8 8 8h56v56c0 4.40039 3.59961 8 8 8h16c4.40039 0 8 -3.59961 8 -8v-56h408zM464 96v176h-288v-176h288zM416 304v48h-192v-48h192z" />
    <glyph glyph-name="tape" unicode="&#xf4db;" horiz-adv-x="640" 
d="M632 0c4.40039 0 8 -3.59961 8 -8v-16c0 -4.40039 -3.59961 -8 -8 -8h-408c-123.7 0 -224 100.3 -224 224s100.3 224 224 224s224 -100.3 224 -224c0 -81.5996 -43.7998 -152.8 -109.1 -192h293.1zM32 192c0 -105.9 86.0996 -192 192 -192s192 86.0996 192 192
s-86.0996 192 -192 192s-192 -86.0996 -192 -192zM224 288c53 0 96 -43 96 -96s-43 -96 -96 -96s-96 43 -96 96s43 96 96 96zM224 128c35.2998 0 64 28.7002 64 64s-28.7002 64 -64 64s-64 -28.7002 -64 -64s28.7002 -64 64 -64z" />
    <glyph glyph-name="truck-container" unicode="&#xf4dc;" horiz-adv-x="640" 
d="M32 128c-17.7002 0 -32 14.2998 -32 32v224c0 17.7002 14.2998 32 32 32h336c17.7002 0 32 -14.2998 32 -32v-224c0 -17.7002 -14.2998 -32 -32 -32h-336zM32 384v-224h336v224h-336zM621.3 242.7c12 -12 18.7002 -28.2002 18.7002 -45.2002v-117.4
c0 -8.7998 -7.2002 -16 -16 -16h-17.5996c1 -5.19922 1.59961 -10.5 1.59961 -16c0 -50.6992 -47.2002 -90.3994 -100 -77.5996c-25.7002 6.2002 -47.2002 26 -55.5996 51.0996c-5 14.8008 -5.5 29.2002 -2.80078 42.4004h-198c2.7002 -7.5 4.40039 -15.5 4.40039 -24
c0 -39.7998 -32.2002 -72 -72 -72c-22.7998 0 -42.7998 10.7998 -56 27.2998c-13.2002 -16.5 -33.2002 -27.2998 -56 -27.2998c-39.7998 0 -72 32.2002 -72 72s32.2002 72 72 72c22.7998 0 42.7998 -10.7998 56 -27.4004c13.2002 16.5 33.2002 27.3008 56 27.3008
c17 0 32.4004 -6.10059 44.7002 -16h203.3v208c0 8.7998 7.2002 16 16 16h69.5c17 0 33.2998 -6.7002 45.2998 -18.7002zM72 0c22.0996 0 40 17.9004 40 40s-17.9004 40 -40 40s-40 -17.9004 -40 -40s17.9004 -40 40 -40zM184 0c22.0996 0 40 17.9004 40 40
s-17.9004 40 -40 40s-40 -17.9004 -40 -40s17.9004 -40 40 -40zM464 288v-64h130.7l-54.6006 54.5996c-6 6.10059 -14.0996 9.40039 -22.5996 9.40039h-53.5zM528 0c26.5 0 48 21.5 48 48s-21.5 48 -48 48s-48 -21.5 -48 -48s21.5 -48 48 -48zM608 96v96h-144v-96h0.400391
c14.5996 19.2998 37.5 32 63.5996 32s49 -12.7002 63.5996 -32h16.4004zM104 192c-4.40039 0 -8 3.59961 -8 8v144c0 4.40039 3.59961 8 8 8h16c4.40039 0 8 -3.59961 8 -8v-144c0 -4.40039 -3.59961 -8 -8 -8h-16zM200 192c-4.40039 0 -8 3.59961 -8 8v144
c0 4.40039 3.59961 8 8 8h16c4.40039 0 8 -3.59961 8 -8v-144c0 -4.40039 -3.59961 -8 -8 -8h-16zM296 192c-4.40039 0 -8 3.59961 -8 8v144c0 4.40039 3.59961 8 8 8h16c4.40039 0 8 -3.59961 8 -8v-144c0 -4.40039 -3.59961 -8 -8 -8h-16z" />
    <glyph glyph-name="truck-couch" unicode="&#xf4dd;" horiz-adv-x="640" 
d="M416 416c-17.5996 0 -32 -14.4004 -32 -32v-304h37.2998c13.9004 46.0996 56.1006 80 106.7 80c61.9004 0 112 -50.0996 112 -112s-50.0996 -112 -112 -112s-112 50.0996 -112 112h-48.7998l-352.9 -111.6c-4.2002 -1.2002 -8.59961 1.2998 -9.7998 5.59961
l-4.2002 15.4004c-1.2002 4.19922 1.2998 8.59961 5.60059 9.7998l346.1 108.899v307.9c0 35.2998 28.7002 64 64 64h224v-32h-224zM528 128c-44.0996 0 -80 -35.9004 -80 -80s35.9004 -80 80 -80s80 35.9004 80 80s-35.9004 80 -80 80zM3 122.3
c-6.09961 19.6006 -1.40039 41.9004 15.7002 57.7002l-6.40039 20.5996c-13.2002 42.2002 10.4004 87 52.6006 100.101l152.699 47.5996h0.100586c42 13 86.8994 -10.5996 100 -52.7002l2.2002 -7v-45.2998c-3.5 0.600586 -7.10059 0.400391 -10.8008 -0.700195
c-12.6992 -4 -19.6992 -17.5 -15.7998 -30.0996l11.9004 -38.2002l-213.9 -66.5l-11.8994 38.2002c-3.90039 12.5996 -17.4004 19.7002 -30 15.7998c-12.6006 -3.89941 -19.8008 -17.2002 -15.8008 -30l21.4004 -68.7998l265 82.4004v-33.5l-255.5 -79.4004h-0.0996094
c-16.8008 -5.2002 -34.7002 4.2002 -40 21zM74.4004 270.1c-25.3008 -7.89941 -39.5 -34.6992 -31.6006 -60.0996l5 -16.0996c27 4.19922 53.9004 -11.6006 62.2002 -38.5l2.40039 -7.60059l152.8 47.5l-2.40039 7.60059c-8.2998 26.8994 4.7998 55.1992 29.5 67l-5 16.0996
c-7.89941 25.2002 -34.7998 39.4004 -60 31.5996h-0.0996094z" />
    <glyph glyph-name="truck-loading" unicode="&#xf4de;" horiz-adv-x="640" 
d="M100.4 33.4004c-17.1006 -5.40039 -35 4.19922 -40.3008 20.7998l-58.3994 182.899c-5.40039 16.9004 4 34.9004 20.7998 40.2002l213.3 68.2002c16.7002 5.40039 34.7998 -3.90039 40.2002 -20.7998l58.5 -182.9c5.40039 -16.7998 -3.90039 -34.7998 -20.7002 -40.2002z
M154.1 285.8l-30.3994 -9.7998l19.5 -61l30.3994 9.7998zM93.0996 266.3l-60.8994 -19.5l58.3994 -182.899l213.4 68.1992l-58.5 182.9l-60.9004 -19.5l29.2002 -91.4004l-91.3994 -29.1992zM416 416c-17.5996 0 -32 -14.4004 -32 -32v-304h37.2998
c13.9004 46.0996 56.1006 80 106.7 80c61.9004 0 112 -50.0996 112 -112s-50.0996 -112 -112 -112s-112 50.0996 -112 112h-48.7998l-352.9 -111.6c-4.2002 -1.2002 -8.59961 1.2998 -9.7998 5.59961l-4.2002 15.4004c-1.2002 4.19922 1.2998 8.59961 5.60059 9.7998
l346.1 108.899v307.9c0 35.2998 28.7002 64 64 64h224v-32h-224zM528 128c-44.0996 0 -80 -35.9004 -80 -80s35.9004 -80 80 -80s80 35.9004 80 80s-35.9004 80 -80 80z" />
    <glyph glyph-name="truck-moving" unicode="&#xf4df;" horiz-adv-x="640" 
d="M621.3 242.7c12 -12 18.7002 -28.2002 18.7002 -45.2002v-117.5c0 -8.7998 -7.2002 -16 -16 -16h-17.5996c1 -5.2002 1.59961 -10.5 1.59961 -16c0 -44.2002 -35.7998 -80 -80 -80s-80 35.7998 -80 80c0 5.5 0.5 10.7998 1.59961 16h-163.199
c1 -5.2002 1.59961 -10.5 1.59961 -16c0 -44.2002 -35.7998 -80 -80 -80c-26.2998 0 -49.4004 12.7998 -64 32.4004c-14.5996 -19.5 -37.7002 -32.4004 -64 -32.4004c-44.2002 0 -80 35.7998 -80 80v336c0 17.7002 14.2998 32 32 32h400c17.7002 0 32 -14.2998 32 -32
v-64.0996h53.5c17 0 33.2998 -6.7002 45.2998 -18.7002zM80 0c26.5 0 48 21.5 48 48s-21.5 48 -48 48s-48 -21.5 -48 -48s21.5 -48 48 -48zM208 0c26.5 0 48 21.5 48 48s-21.5 48 -48 48s-48 -21.5 -48 -48s21.5 -48 48 -48zM432 96v288h-400v-272.4
c13.4004 10.2002 29.9004 16.4004 48 16.4004c26 0 49 -12.7002 63.7002 -32h0.700195c14.5996 19.2998 37.5 32 63.5996 32s49 -12.7002 63.5996 -32h160.4zM464 288v-64h130.7l-54.6006 54.5996c-6 6.10059 -14.0996 9.40039 -22.5996 9.40039h-53.5zM528 0
c26.5 0 48 21.5 48 48s-21.5 48 -48 48s-48 -21.5 -48 -48s21.5 -48 48 -48zM608 96v96h-144v-96h0.400391c14.5996 19.2998 37.5 32 63.5996 32s49 -12.7002 63.5996 -32h16.4004z" />
    <glyph glyph-name="truck-ramp" unicode="&#xf4e0;" horiz-adv-x="640" 
d="M416 416c-17.5996 0 -32 -14.4004 -32 -32v-304h37.2002c13.7998 46.0996 56.0996 80 106.8 80c61.9004 0 112 -50.0996 112 -112s-50.0996 -112 -112 -112s-112 50.0996 -112 112h-48.7998l-352.9 -111.6c-4.2002 -1.2002 -8.59961 1.2998 -9.7998 5.59961
l-4.2002 15.4004c-1.2002 4.19922 1.2998 8.59961 5.60059 9.7998l346.1 108.899v307.9c0 35.2998 28.7002 64 64 64h224v-32h-224zM528 128c-44.0996 0 -80 -35.9004 -80 -80s35.9004 -80 80 -80s80 35.9004 80 80s-35.9004 80 -80 80z" />
    <glyph glyph-name="video-plus" unicode="&#xf4e1;" horiz-adv-x="576" 
d="M543.9 352c16.5996 0 32.0996 -13 32 -31.5v-257c0 -18.5 -15.5 -31.5 -32.1006 -31.5c-6.09961 0 -12.5 1.7002 -18.2002 5.7002l-109.6 69.8994v-59.7998c0 -26.3994 -23.2002 -47.7998 -51.7998 -47.7998h-312.4c-28.5996 0 -51.7998 21.4004 -51.7998 47.7998v288.4
c0 26.3994 23.2002 47.7998 51.7998 47.7998h312.4c28.5996 0 51.7998 -21.4004 51.7998 -47.7998v-59.7998l109.7 69.8994c5.7002 3.90039 12 5.7002 18.2002 5.7002zM384 256v80.2002c0 8.59961 -9.09961 15.7998 -19.7998 15.7998h-312.4
c-10.7002 0 -19.7998 -7.2002 -19.7998 -15.7998v-288.4c0 -8.59961 9.09961 -15.7998 19.7998 -15.7998h312.4c10.7002 0 19.7998 7.2002 19.7998 15.7998v208.2zM544 63.5v256.5l-128 -81.5v-92.9004l126.8 -80.7998zM296 208c4.40039 0 8 -3.59961 8 -8v-16
c0 -4.40039 -3.59961 -8 -8 -8h-72v-72c0 -4.40039 -3.59961 -8 -8 -8h-16c-4.40039 0 -8 3.59961 -8 8v72h-72c-4.40039 0 -8 3.59961 -8 8v16c0 4.40039 3.59961 8 8 8h72v72c0 4.40039 3.59961 8 8 8h16c4.40039 0 8 -3.59961 8 -8v-72h72z" />
    <glyph glyph-name="video-slash" unicode="&#xf4e2;" horiz-adv-x="640" 
d="M637 -37.2002c3.40039 -2.7998 4 -7.7998 1.2002 -11.3994l-10 -12.5c-2.7002 -3.40039 -7.7998 -4 -11.2002 -1.2002l-169 133.1l-9.09961 7.2002l-435.9 343.2c-3.40039 2.7998 -4 7.7998 -1.2002 11.2998l10 12.5c2.7002 3.40039 7.7998 4 11.2002 1.2002l103.5 -81.5
l16.2002 -12.7002zM396.2 32c6.2998 0 11.7002 2.59961 15.3994 6.2998l25.3008 -19.8994c-9.5 -11.2002 -24.1006 -18.5 -40.7002 -18.5h-312.4c-28.5996 0 -51.7998 21.3994 -51.7998 47.7998v288.399c0 0.400391 0.0996094 0.700195 0.0996094 1.10059l31.9004 -25.1006
v-264.3c0 -8.59961 9.09961 -15.7998 19.7998 -15.7998h312.4zM396.2 352h-176l-40.6006 32h216.601c28.5996 0 51.7998 -21.4004 51.7998 -47.7998v-59.7998l109.7 69.8994c5.7002 3.90039 12 5.7002 18.2002 5.7002c16.5996 0 32.0996 -13 32.0996 -31.5v-257
c0 -5.2002 -1.5 -9.7998 -3.59961 -14l-28.4004 22.4004v248.1l-128 -81.5v-65.7998l-32 25.2002v138.3c0 8.59961 -9.09961 15.7998 -19.7998 15.7998z" />
  </font>
</defs>
</svg>
